%TF.GenerationSoftware,KiCad,Pcbnew,8.0.6-1.fc41*%
%TF.CreationDate,2024-12-09T10:01:21+11:00*%
%TF.ProjectId,pueo-mx-spaced,7075656f-2d6d-4782-9d73-70616365642e,0.1*%
%TF.SameCoordinates,Original*%
%TF.FileFunction,Profile,NP*%
%FSLAX46Y46*%
G04 Gerber Fmt 4.6, Leading zero omitted, Abs format (unit mm)*
G04 Created by KiCad (PCBNEW 8.0.6-1.fc41) date 2024-12-09 10:01:21*
%MOMM*%
%LPD*%
G01*
G04 APERTURE LIST*
%TA.AperFunction,Profile*%
%ADD10C,0.150000*%
%TD*%
G04 APERTURE END LIST*
D10*
X127391617Y-52508462D02*
G75*
G02*
X127891618Y-52008517I499983J-38D01*
G01*
X205937191Y-120172699D02*
X203670607Y-119347735D01*
X127391617Y-55258467D02*
G75*
G02*
X126891616Y-55758517I-500017J-33D01*
G01*
X203341619Y-118877887D02*
X203341618Y-56258468D01*
X103116618Y-56258467D02*
G75*
G02*
X103616618Y-55758518I499982J-33D01*
G01*
X200763705Y-135848639D02*
G75*
G02*
X200122849Y-136147464I-469805J170939D01*
G01*
X144891616Y-55758467D02*
G75*
G02*
X144391633Y-55258466I84J500067D01*
G01*
X177135354Y-122929480D02*
X175747211Y-126743380D01*
X202841618Y-55758469D02*
G75*
G02*
X203341631Y-56258468I82J-499931D01*
G01*
X143891619Y-52008471D02*
X127891618Y-52008467D01*
X126891616Y-55758470D02*
X103616618Y-55758466D01*
X103116618Y-114536918D02*
X103116617Y-121758467D01*
X144391618Y-55258466D02*
X144391617Y-52508469D01*
X176046045Y-127384233D02*
G75*
G02*
X175747193Y-126743373I170955J469833D01*
G01*
X200763705Y-135848639D02*
X206236028Y-120813557D01*
X176046045Y-127384233D02*
X200122846Y-136147473D01*
X202841618Y-55758469D02*
X144891616Y-55758467D01*
X176665508Y-122258469D02*
G75*
G02*
X177135348Y-122929478I92J-499931D01*
G01*
X103616618Y-122258466D02*
X176665508Y-122258469D01*
X103116618Y-56258467D02*
X103116618Y-114536918D01*
X103616618Y-122258466D02*
G75*
G02*
X103116634Y-121758467I82J500066D01*
G01*
X205937192Y-120172699D02*
G75*
G02*
X206236103Y-120813586I-170992J-469901D01*
G01*
X203670607Y-119347735D02*
G75*
G02*
X203341682Y-118877887I171093J469835D01*
G01*
X143891619Y-52008471D02*
G75*
G02*
X144391629Y-52508469I81J-499929D01*
G01*
X127391617Y-52508462D02*
X127391617Y-55258467D01*
M02*
