M48
; DRILL file {KiCad 8.0.6-1.fc41} date 2024-12-09T10:01:16+1100
; FORMAT={-:-/ absolute / inch / decimal}
; #@! TF.CreationDate,2024-12-09T10:01:16+11:00
; #@! TF.GenerationSoftware,Kicad,Pcbnew,8.0.6-1.fc41
; #@! TF.FileFunction,Plated,1,2,PTH
FMAT,2
INCH
; #@! TA.AperFunction,Plated,PTH,ViaDrill
T1C0.0157
; #@! TA.AperFunction,Plated,PTH,ComponentDrill
T2C0.0295
; #@! TA.AperFunction,Plated,PTH,ComponentDrill
T3C0.0315
; #@! TA.AperFunction,Plated,PTH,ComponentDrill
T4C0.0394
; #@! TA.AperFunction,Plated,PTH,ComponentDrill
T5C0.0429
; #@! TA.AperFunction,Plated,PTH,ComponentDrill
T6C0.0430
; #@! TA.AperFunction,Plated,PTH,ComponentDrill
T7C0.0472
; #@! TA.AperFunction,Plated,PTH,ComponentDrill
T8C0.0866
%
G90
G05
T1
X6.5193Y-2.3944
X6.5198Y-2.4962
X6.5218Y-2.2935
X7.5433Y-2.3701
X7.5984Y-2.4724
T2
X7.9245Y-3.7421
X7.9245Y-3.6633
T3
X7.8204Y-4.136
X7.8204Y-4.0375
X7.8204Y-4.2344
X7.9464Y-4.2344
X7.9464Y-4.136
X7.9464Y-4.0375
T4
X4.3059Y-2.4028
X4.3451Y-3.1498
X4.3842Y-3.8968
X4.6991Y-2.3822
X4.7382Y-3.1292
X4.7774Y-3.8762
X5.1532Y-2.9118
X5.1532Y-3.6598
X5.1532Y-2.1637
X5.5469Y-2.9118
X5.5469Y-3.6598
X5.5469Y-2.1637
X5.9012Y-3.8468
X5.9012Y-2.3507
X5.9012Y-3.0988
X6.2949Y-3.8468
X6.2949Y-2.3507
X6.2949Y-3.0988
X6.6493Y-3.4728
X6.6493Y-2.7247
X7.043Y-3.4728
X7.043Y-2.7247
X7.4091Y-4.6005
X7.7791Y-4.7352
T5
X6.7783Y-2.2944
X6.7783Y-2.4944
X6.9783Y-2.2944
X6.9783Y-2.4944
T6
X7.2942Y-2.3677
X7.2942Y-2.4677
X7.2942Y-2.9677
X7.2942Y-3.3677
X7.2942Y-2.7677
X7.2942Y-2.8677
X7.2942Y-3.0677
X7.2942Y-3.1677
X7.2942Y-3.2677
X7.2942Y-3.4677
X7.2942Y-2.5677
X7.2942Y-2.6677
X7.8942Y-3.1677
X7.8942Y-3.2677
X7.8942Y-2.3677
X7.8942Y-2.5677
X7.8942Y-2.6677
X7.8942Y-2.7677
X7.8942Y-2.9677
X7.8942Y-3.0677
X7.8942Y-2.4677
X7.8942Y-2.8677
X7.8942Y-3.3677
X7.8942Y-3.4677
T7
X4.3252Y-2.7704
X4.3643Y-3.5174
X4.4035Y-4.2644
X4.5261Y-2.8427
X4.5652Y-3.5897
X4.6044Y-4.3367
X4.7184Y-2.7498
X4.7575Y-3.4968
X4.7967Y-4.2438
X5.1532Y-3.2799
X5.1532Y-4.0279
X5.1532Y-2.5318
X5.3501Y-3.3625
X5.3501Y-4.1106
X5.3501Y-2.6145
X5.5469Y-3.2799
X5.5469Y-4.0279
X5.5469Y-2.5318
X5.9012Y-4.2149
X5.9012Y-2.7188
X5.9012Y-3.4669
X6.0981Y-4.2976
X6.0981Y-2.8015
X6.0981Y-3.5495
X6.2949Y-4.2149
X6.2949Y-2.7188
X6.2949Y-3.4669
X6.6493Y-3.8409
X6.6493Y-3.0929
X6.8461Y-3.9236
X6.8461Y-3.1755
X7.043Y-3.8409
X7.043Y-3.0929
X7.2832Y-4.9464
X7.4399Y-5.0914
X7.6532Y-5.0811
T8
X4.3072Y-4.6276
X4.9386Y-2.5832
X4.9676Y-3.4696
X5.7044Y-4.2326
X5.7044Y-4.2326
X5.7306Y-2.7328
X6.4674Y-3.4958
X7.1453Y-2.3921
X7.8848Y-4.4387
X7.8848Y-4.4387
M30
