M48
; DRILL file {KiCad 8.0.6-1.fc41} date 2024-12-09T10:01:16+1100
; FORMAT={-:-/ absolute / inch / decimal}
; #@! TF.CreationDate,2024-12-09T10:01:16+11:00
; #@! TF.GenerationSoftware,Kicad,Pcbnew,8.0.6-1.fc41
; #@! TF.FileFunction,NonPlated,1,2,NPTH
FMAT,2
INCH
; #@! TA.AperFunction,NonPlated,NPTH,ComponentDrill
T1C0.0670
; #@! TA.AperFunction,NonPlated,NPTH,ComponentDrill
T2C0.1890
%
G90
G05
T1
X4.2977Y-2.622
X4.3369Y-3.3691
X4.376Y-4.1161
X4.7302Y-2.5994
X4.7693Y-3.3464
X4.8085Y-4.0934
X5.1335Y-3.1303
X5.1335Y-3.8783
X5.1335Y-2.3822
X5.5666Y-3.1303
X5.5666Y-3.8783
X5.5666Y-2.3822
X5.8816Y-4.0653
X5.8816Y-2.5692
X5.8816Y-3.3173
X6.3146Y-4.0653
X6.3146Y-2.5692
X6.3146Y-3.3173
X6.6296Y-3.6913
X6.6296Y-2.9432
X7.0627Y-3.6913
X7.0627Y-2.9432
X7.3159Y-4.7991
X7.7228Y-4.9472
T2
X4.5139Y-2.6107
X4.5531Y-3.3577
X4.5922Y-4.1047
X5.3501Y-3.1303
X5.3501Y-3.8783
X5.3501Y-2.3822
X6.0981Y-4.0653
X6.0981Y-2.5692
X6.0981Y-3.3173
X6.8461Y-3.6913
X6.8461Y-2.9432
X7.5194Y-4.8732
M30
