%TF.GenerationSoftware,KiCad,Pcbnew,8.0.6-1.fc41*%
%TF.CreationDate,2024-12-09T10:01:17+11:00*%
%TF.ProjectId,pueo-mx-spaced,7075656f-2d6d-4782-9d73-70616365642e,0.1*%
%TF.SameCoordinates,Original*%
%TF.FileFunction,Drillmap*%
%TF.FilePolarity,Positive*%
%FSLAX45Y45*%
G04 Gerber Fmt 4.5, Leading zero omitted, Abs format (unit mm)*
G04 Created by KiCad (PCBNEW 8.0.6-1.fc41) date 2024-12-09 10:01:17*
%MOMM*%
%LPD*%
G01*
G04 APERTURE LIST*
%ADD10C,0.150000*%
%ADD11C,0.200000*%
%ADD12C,0.170180*%
%ADD13C,0.480000*%
G04 APERTURE END LIST*
D10*
X12739162Y-5250846D02*
G75*
G02*
X12789162Y-5200852I49998J-4D01*
G01*
X20593719Y-12017270D02*
X20367061Y-11934773D01*
X12739162Y-5525847D02*
G75*
G02*
X12689162Y-5575852I-50002J-3D01*
G01*
X20334162Y-11887789D02*
X20334162Y-5625847D01*
X10311662Y-5625847D02*
G75*
G02*
X10361662Y-5575852I49998J-3D01*
G01*
X20076371Y-13584864D02*
G75*
G02*
X20012285Y-13614746I-46981J17094D01*
G01*
X14489162Y-5575847D02*
G75*
G02*
X14439163Y-5525847I8J50007D01*
G01*
X17713535Y-12292948D02*
X17574721Y-12674338D01*
X20284162Y-5575847D02*
G75*
G02*
X20334163Y-5625847I8J-49993D01*
G01*
X14389162Y-5200847D02*
X12789162Y-5200847D01*
X12689162Y-5575847D02*
X10361662Y-5575847D01*
X10311662Y-11453692D02*
X10311662Y-12175847D01*
X14439162Y-5525847D02*
X14439162Y-5250847D01*
X17604605Y-12738423D02*
G75*
G02*
X17574719Y-12674337I17096J46983D01*
G01*
X20076371Y-13584864D02*
X20623603Y-12081356D01*
X17604605Y-12738423D02*
X20012285Y-13614747D01*
X20284162Y-5575847D02*
X14489162Y-5575847D01*
X17666551Y-12225847D02*
G75*
G02*
X17713535Y-12292948I9J-49993D01*
G01*
X10361662Y-12225847D02*
X17666551Y-12225847D01*
X10311662Y-5625847D02*
X10311662Y-11453692D01*
X10361662Y-12225847D02*
G75*
G02*
X10311663Y-12175847I8J50007D01*
G01*
X20593719Y-12017270D02*
G75*
G02*
X20623610Y-12081359I-17099J-46990D01*
G01*
X20367061Y-11934773D02*
G75*
G02*
X20334168Y-11887789I17109J46984D01*
G01*
X14389162Y-5200847D02*
G75*
G02*
X14439163Y-5250847I8J-49993D01*
G01*
X12739162Y-5250846D02*
X12739162Y-5525847D01*
D11*
D12*
X10831076Y-6574908D02*
X11001256Y-6745088D01*
X11001256Y-6574908D02*
X10831076Y-6745088D01*
X10930515Y-8472303D02*
X11100695Y-8642483D01*
X11100695Y-8472303D02*
X10930515Y-8642483D01*
X11029953Y-10369700D02*
X11200133Y-10539880D01*
X11200133Y-10369700D02*
X11029953Y-10539880D01*
X11929569Y-6517338D02*
X12099749Y-6687518D01*
X12099749Y-6517338D02*
X11929569Y-6687518D01*
X12029007Y-8414734D02*
X12199187Y-8584914D01*
X12199187Y-8414734D02*
X12029007Y-8584914D01*
X12128445Y-10312130D02*
X12298625Y-10482310D01*
X12298625Y-10312130D02*
X12128445Y-10482310D01*
X12954072Y-7865756D02*
X13124252Y-8035936D01*
X13124252Y-7865756D02*
X12954072Y-8035936D01*
X12954072Y-9765757D02*
X13124252Y-9935937D01*
X13124252Y-9765757D02*
X12954072Y-9935937D01*
X12954072Y-5965756D02*
X13124252Y-6135936D01*
X13124252Y-5965756D02*
X12954072Y-6135936D01*
X14054071Y-7865757D02*
X14224251Y-8035937D01*
X14224251Y-7865757D02*
X14054071Y-8035937D01*
X14054071Y-9765757D02*
X14224251Y-9935937D01*
X14224251Y-9765757D02*
X14054071Y-9935937D01*
X14054072Y-5965757D02*
X14224252Y-6135937D01*
X14224252Y-5965757D02*
X14054072Y-6135937D01*
X14854072Y-10240756D02*
X15024252Y-10410936D01*
X15024252Y-10240756D02*
X14854072Y-10410936D01*
X14854072Y-6440757D02*
X15024252Y-6610937D01*
X15024252Y-6440757D02*
X14854072Y-6610937D01*
X14854072Y-8340757D02*
X15024252Y-8510937D01*
X15024252Y-8340757D02*
X14854072Y-8510937D01*
X15954072Y-10240757D02*
X16124252Y-10410937D01*
X16124252Y-10240757D02*
X15954072Y-10410937D01*
X15954072Y-6440757D02*
X16124252Y-6610937D01*
X16124252Y-6440757D02*
X15954072Y-6610937D01*
X15954072Y-8340757D02*
X16124252Y-8510937D01*
X16124252Y-8340757D02*
X15954072Y-8510937D01*
X16754072Y-9290756D02*
X16924252Y-9460936D01*
X16924252Y-9290756D02*
X16754072Y-9460936D01*
X16754072Y-7390757D02*
X16924252Y-7560937D01*
X16924252Y-7390757D02*
X16754072Y-7560937D01*
X17854072Y-9290757D02*
X18024252Y-9460937D01*
X18024252Y-9290757D02*
X17854072Y-9460937D01*
X17854072Y-7390757D02*
X18024252Y-7560937D01*
X18024252Y-7390757D02*
X17854072Y-7560937D01*
X18497241Y-12104646D02*
X18667421Y-12274826D01*
X18667421Y-12104646D02*
X18497241Y-12274826D01*
X19530903Y-12480868D02*
X19701083Y-12651048D01*
X19701083Y-12480868D02*
X19530903Y-12651048D01*
D13*
X11705413Y-6631213D02*
G75*
G02*
X11225413Y-6631213I-240000J0D01*
G01*
X11225413Y-6631213D02*
G75*
G02*
X11705413Y-6631213I240000J0D01*
G01*
X11804851Y-8528608D02*
G75*
G02*
X11324851Y-8528608I-240000J0D01*
G01*
X11324851Y-8528608D02*
G75*
G02*
X11804851Y-8528608I240000J0D01*
G01*
X11904289Y-10426005D02*
G75*
G02*
X11424289Y-10426005I-240000J0D01*
G01*
X11424289Y-10426005D02*
G75*
G02*
X11904289Y-10426005I240000J0D01*
G01*
X13829161Y-7950847D02*
G75*
G02*
X13349161Y-7950847I-240000J0D01*
G01*
X13349161Y-7950847D02*
G75*
G02*
X13829161Y-7950847I240000J0D01*
G01*
X13829162Y-9850847D02*
G75*
G02*
X13349162Y-9850847I-240000J0D01*
G01*
X13349162Y-9850847D02*
G75*
G02*
X13829162Y-9850847I240000J0D01*
G01*
X13829162Y-6050847D02*
G75*
G02*
X13349162Y-6050847I-240000J0D01*
G01*
X13349162Y-6050847D02*
G75*
G02*
X13829162Y-6050847I240000J0D01*
G01*
X15729162Y-10325847D02*
G75*
G02*
X15249162Y-10325847I-240000J0D01*
G01*
X15249162Y-10325847D02*
G75*
G02*
X15729162Y-10325847I240000J0D01*
G01*
X15729162Y-6525847D02*
G75*
G02*
X15249162Y-6525847I-240000J0D01*
G01*
X15249162Y-6525847D02*
G75*
G02*
X15729162Y-6525847I240000J0D01*
G01*
X15729162Y-8425847D02*
G75*
G02*
X15249162Y-8425847I-240000J0D01*
G01*
X15249162Y-8425847D02*
G75*
G02*
X15729162Y-8425847I240000J0D01*
G01*
X17629162Y-9375847D02*
G75*
G02*
X17149162Y-9375847I-240000J0D01*
G01*
X17149162Y-9375847D02*
G75*
G02*
X17629162Y-9375847I240000J0D01*
G01*
X17629162Y-7475847D02*
G75*
G02*
X17149162Y-7475847I-240000J0D01*
G01*
X17149162Y-7475847D02*
G75*
G02*
X17629162Y-7475847I240000J0D01*
G01*
X19339162Y-12377847D02*
G75*
G02*
X18859162Y-12377847I-240000J0D01*
G01*
X18859162Y-12377847D02*
G75*
G02*
X19339162Y-12377847I240000J0D01*
G01*
D11*
X10564939Y-13936747D02*
X10564939Y-13736747D01*
X10564939Y-13736747D02*
X10612558Y-13736747D01*
X10612558Y-13736747D02*
X10641129Y-13746271D01*
X10641129Y-13746271D02*
X10660177Y-13765319D01*
X10660177Y-13765319D02*
X10669700Y-13784366D01*
X10669700Y-13784366D02*
X10679224Y-13822462D01*
X10679224Y-13822462D02*
X10679224Y-13851033D01*
X10679224Y-13851033D02*
X10669700Y-13889128D01*
X10669700Y-13889128D02*
X10660177Y-13908176D01*
X10660177Y-13908176D02*
X10641129Y-13927224D01*
X10641129Y-13927224D02*
X10612558Y-13936747D01*
X10612558Y-13936747D02*
X10564939Y-13936747D01*
X10764939Y-13936747D02*
X10764939Y-13803414D01*
X10764939Y-13841509D02*
X10774462Y-13822462D01*
X10774462Y-13822462D02*
X10783986Y-13812938D01*
X10783986Y-13812938D02*
X10803034Y-13803414D01*
X10803034Y-13803414D02*
X10822081Y-13803414D01*
X10888748Y-13936747D02*
X10888748Y-13803414D01*
X10888748Y-13736747D02*
X10879224Y-13746271D01*
X10879224Y-13746271D02*
X10888748Y-13755795D01*
X10888748Y-13755795D02*
X10898272Y-13746271D01*
X10898272Y-13746271D02*
X10888748Y-13736747D01*
X10888748Y-13736747D02*
X10888748Y-13755795D01*
X11012558Y-13936747D02*
X10993510Y-13927224D01*
X10993510Y-13927224D02*
X10983986Y-13908176D01*
X10983986Y-13908176D02*
X10983986Y-13736747D01*
X11117319Y-13936747D02*
X11098272Y-13927224D01*
X11098272Y-13927224D02*
X11088748Y-13908176D01*
X11088748Y-13908176D02*
X11088748Y-13736747D01*
X11345891Y-13936747D02*
X11345891Y-13736747D01*
X11345891Y-13736747D02*
X11412558Y-13879605D01*
X11412558Y-13879605D02*
X11479224Y-13736747D01*
X11479224Y-13736747D02*
X11479224Y-13936747D01*
X11660177Y-13936747D02*
X11660177Y-13831986D01*
X11660177Y-13831986D02*
X11650653Y-13812938D01*
X11650653Y-13812938D02*
X11631605Y-13803414D01*
X11631605Y-13803414D02*
X11593510Y-13803414D01*
X11593510Y-13803414D02*
X11574462Y-13812938D01*
X11660177Y-13927224D02*
X11641129Y-13936747D01*
X11641129Y-13936747D02*
X11593510Y-13936747D01*
X11593510Y-13936747D02*
X11574462Y-13927224D01*
X11574462Y-13927224D02*
X11564938Y-13908176D01*
X11564938Y-13908176D02*
X11564938Y-13889128D01*
X11564938Y-13889128D02*
X11574462Y-13870081D01*
X11574462Y-13870081D02*
X11593510Y-13860557D01*
X11593510Y-13860557D02*
X11641129Y-13860557D01*
X11641129Y-13860557D02*
X11660177Y-13851033D01*
X11755415Y-13803414D02*
X11755415Y-14003414D01*
X11755415Y-13812938D02*
X11774462Y-13803414D01*
X11774462Y-13803414D02*
X11812558Y-13803414D01*
X11812558Y-13803414D02*
X11831605Y-13812938D01*
X11831605Y-13812938D02*
X11841129Y-13822462D01*
X11841129Y-13822462D02*
X11850653Y-13841509D01*
X11850653Y-13841509D02*
X11850653Y-13898652D01*
X11850653Y-13898652D02*
X11841129Y-13917700D01*
X11841129Y-13917700D02*
X11831605Y-13927224D01*
X11831605Y-13927224D02*
X11812558Y-13936747D01*
X11812558Y-13936747D02*
X11774462Y-13936747D01*
X11774462Y-13936747D02*
X11755415Y-13927224D01*
X11936367Y-13917700D02*
X11945891Y-13927224D01*
X11945891Y-13927224D02*
X11936367Y-13936747D01*
X11936367Y-13936747D02*
X11926843Y-13927224D01*
X11926843Y-13927224D02*
X11936367Y-13917700D01*
X11936367Y-13917700D02*
X11936367Y-13936747D01*
X11936367Y-13812938D02*
X11945891Y-13822462D01*
X11945891Y-13822462D02*
X11936367Y-13831986D01*
X11936367Y-13831986D02*
X11926843Y-13822462D01*
X11926843Y-13822462D02*
X11936367Y-13812938D01*
X11936367Y-13812938D02*
X11936367Y-13831986D01*
D12*
X10133982Y-14180174D02*
X10304162Y-14350354D01*
X10304162Y-14180174D02*
X10133982Y-14350354D01*
D11*
X10669700Y-14356747D02*
X10555415Y-14356747D01*
X10612558Y-14356747D02*
X10612558Y-14156747D01*
X10612558Y-14156747D02*
X10593510Y-14185319D01*
X10593510Y-14185319D02*
X10574462Y-14204366D01*
X10574462Y-14204366D02*
X10555415Y-14213890D01*
X10755415Y-14337700D02*
X10764939Y-14347224D01*
X10764939Y-14347224D02*
X10755415Y-14356747D01*
X10755415Y-14356747D02*
X10745891Y-14347224D01*
X10745891Y-14347224D02*
X10755415Y-14337700D01*
X10755415Y-14337700D02*
X10755415Y-14356747D01*
X10831605Y-14156747D02*
X10964939Y-14156747D01*
X10964939Y-14156747D02*
X10879224Y-14356747D01*
X11079224Y-14156747D02*
X11098272Y-14156747D01*
X11098272Y-14156747D02*
X11117320Y-14166271D01*
X11117320Y-14166271D02*
X11126843Y-14175795D01*
X11126843Y-14175795D02*
X11136367Y-14194843D01*
X11136367Y-14194843D02*
X11145891Y-14232938D01*
X11145891Y-14232938D02*
X11145891Y-14280557D01*
X11145891Y-14280557D02*
X11136367Y-14318652D01*
X11136367Y-14318652D02*
X11126843Y-14337700D01*
X11126843Y-14337700D02*
X11117320Y-14347224D01*
X11117320Y-14347224D02*
X11098272Y-14356747D01*
X11098272Y-14356747D02*
X11079224Y-14356747D01*
X11079224Y-14356747D02*
X11060177Y-14347224D01*
X11060177Y-14347224D02*
X11050653Y-14337700D01*
X11050653Y-14337700D02*
X11041129Y-14318652D01*
X11041129Y-14318652D02*
X11031605Y-14280557D01*
X11031605Y-14280557D02*
X11031605Y-14232938D01*
X11031605Y-14232938D02*
X11041129Y-14194843D01*
X11041129Y-14194843D02*
X11050653Y-14175795D01*
X11050653Y-14175795D02*
X11060177Y-14166271D01*
X11060177Y-14166271D02*
X11079224Y-14156747D01*
X11222081Y-14175795D02*
X11231605Y-14166271D01*
X11231605Y-14166271D02*
X11250653Y-14156747D01*
X11250653Y-14156747D02*
X11298272Y-14156747D01*
X11298272Y-14156747D02*
X11317319Y-14166271D01*
X11317319Y-14166271D02*
X11326843Y-14175795D01*
X11326843Y-14175795D02*
X11336367Y-14194843D01*
X11336367Y-14194843D02*
X11336367Y-14213890D01*
X11336367Y-14213890D02*
X11326843Y-14242462D01*
X11326843Y-14242462D02*
X11212558Y-14356747D01*
X11212558Y-14356747D02*
X11336367Y-14356747D01*
X11422081Y-14356747D02*
X11422081Y-14223414D01*
X11422081Y-14242462D02*
X11431605Y-14232938D01*
X11431605Y-14232938D02*
X11450653Y-14223414D01*
X11450653Y-14223414D02*
X11479224Y-14223414D01*
X11479224Y-14223414D02*
X11498272Y-14232938D01*
X11498272Y-14232938D02*
X11507796Y-14251986D01*
X11507796Y-14251986D02*
X11507796Y-14356747D01*
X11507796Y-14251986D02*
X11517319Y-14232938D01*
X11517319Y-14232938D02*
X11536367Y-14223414D01*
X11536367Y-14223414D02*
X11564938Y-14223414D01*
X11564938Y-14223414D02*
X11583986Y-14232938D01*
X11583986Y-14232938D02*
X11593510Y-14251986D01*
X11593510Y-14251986D02*
X11593510Y-14356747D01*
X11688748Y-14356747D02*
X11688748Y-14223414D01*
X11688748Y-14242462D02*
X11698272Y-14232938D01*
X11698272Y-14232938D02*
X11717319Y-14223414D01*
X11717319Y-14223414D02*
X11745891Y-14223414D01*
X11745891Y-14223414D02*
X11764939Y-14232938D01*
X11764939Y-14232938D02*
X11774462Y-14251986D01*
X11774462Y-14251986D02*
X11774462Y-14356747D01*
X11774462Y-14251986D02*
X11783986Y-14232938D01*
X11783986Y-14232938D02*
X11803034Y-14223414D01*
X11803034Y-14223414D02*
X11831605Y-14223414D01*
X11831605Y-14223414D02*
X11850653Y-14232938D01*
X11850653Y-14232938D02*
X11860177Y-14251986D01*
X11860177Y-14251986D02*
X11860177Y-14356747D01*
X12250653Y-14147224D02*
X12079224Y-14404366D01*
X12507796Y-14156747D02*
X12526843Y-14156747D01*
X12526843Y-14156747D02*
X12545891Y-14166271D01*
X12545891Y-14166271D02*
X12555415Y-14175795D01*
X12555415Y-14175795D02*
X12564939Y-14194843D01*
X12564939Y-14194843D02*
X12574462Y-14232938D01*
X12574462Y-14232938D02*
X12574462Y-14280557D01*
X12574462Y-14280557D02*
X12564939Y-14318652D01*
X12564939Y-14318652D02*
X12555415Y-14337700D01*
X12555415Y-14337700D02*
X12545891Y-14347224D01*
X12545891Y-14347224D02*
X12526843Y-14356747D01*
X12526843Y-14356747D02*
X12507796Y-14356747D01*
X12507796Y-14356747D02*
X12488748Y-14347224D01*
X12488748Y-14347224D02*
X12479224Y-14337700D01*
X12479224Y-14337700D02*
X12469701Y-14318652D01*
X12469701Y-14318652D02*
X12460177Y-14280557D01*
X12460177Y-14280557D02*
X12460177Y-14232938D01*
X12460177Y-14232938D02*
X12469701Y-14194843D01*
X12469701Y-14194843D02*
X12479224Y-14175795D01*
X12479224Y-14175795D02*
X12488748Y-14166271D01*
X12488748Y-14166271D02*
X12507796Y-14156747D01*
X12660177Y-14337700D02*
X12669701Y-14347224D01*
X12669701Y-14347224D02*
X12660177Y-14356747D01*
X12660177Y-14356747D02*
X12650653Y-14347224D01*
X12650653Y-14347224D02*
X12660177Y-14337700D01*
X12660177Y-14337700D02*
X12660177Y-14356747D01*
X12793510Y-14156747D02*
X12812558Y-14156747D01*
X12812558Y-14156747D02*
X12831605Y-14166271D01*
X12831605Y-14166271D02*
X12841129Y-14175795D01*
X12841129Y-14175795D02*
X12850653Y-14194843D01*
X12850653Y-14194843D02*
X12860177Y-14232938D01*
X12860177Y-14232938D02*
X12860177Y-14280557D01*
X12860177Y-14280557D02*
X12850653Y-14318652D01*
X12850653Y-14318652D02*
X12841129Y-14337700D01*
X12841129Y-14337700D02*
X12831605Y-14347224D01*
X12831605Y-14347224D02*
X12812558Y-14356747D01*
X12812558Y-14356747D02*
X12793510Y-14356747D01*
X12793510Y-14356747D02*
X12774462Y-14347224D01*
X12774462Y-14347224D02*
X12764939Y-14337700D01*
X12764939Y-14337700D02*
X12755415Y-14318652D01*
X12755415Y-14318652D02*
X12745891Y-14280557D01*
X12745891Y-14280557D02*
X12745891Y-14232938D01*
X12745891Y-14232938D02*
X12755415Y-14194843D01*
X12755415Y-14194843D02*
X12764939Y-14175795D01*
X12764939Y-14175795D02*
X12774462Y-14166271D01*
X12774462Y-14166271D02*
X12793510Y-14156747D01*
X13031605Y-14156747D02*
X12993510Y-14156747D01*
X12993510Y-14156747D02*
X12974462Y-14166271D01*
X12974462Y-14166271D02*
X12964939Y-14175795D01*
X12964939Y-14175795D02*
X12945891Y-14204366D01*
X12945891Y-14204366D02*
X12936367Y-14242462D01*
X12936367Y-14242462D02*
X12936367Y-14318652D01*
X12936367Y-14318652D02*
X12945891Y-14337700D01*
X12945891Y-14337700D02*
X12955415Y-14347224D01*
X12955415Y-14347224D02*
X12974462Y-14356747D01*
X12974462Y-14356747D02*
X13012558Y-14356747D01*
X13012558Y-14356747D02*
X13031605Y-14347224D01*
X13031605Y-14347224D02*
X13041129Y-14337700D01*
X13041129Y-14337700D02*
X13050653Y-14318652D01*
X13050653Y-14318652D02*
X13050653Y-14271033D01*
X13050653Y-14271033D02*
X13041129Y-14251986D01*
X13041129Y-14251986D02*
X13031605Y-14242462D01*
X13031605Y-14242462D02*
X13012558Y-14232938D01*
X13012558Y-14232938D02*
X12974462Y-14232938D01*
X12974462Y-14232938D02*
X12955415Y-14242462D01*
X12955415Y-14242462D02*
X12945891Y-14251986D01*
X12945891Y-14251986D02*
X12936367Y-14271033D01*
X13117320Y-14156747D02*
X13250653Y-14156747D01*
X13250653Y-14156747D02*
X13164939Y-14356747D01*
X13364939Y-14156747D02*
X13383986Y-14156747D01*
X13383986Y-14156747D02*
X13403034Y-14166271D01*
X13403034Y-14166271D02*
X13412558Y-14175795D01*
X13412558Y-14175795D02*
X13422082Y-14194843D01*
X13422082Y-14194843D02*
X13431605Y-14232938D01*
X13431605Y-14232938D02*
X13431605Y-14280557D01*
X13431605Y-14280557D02*
X13422082Y-14318652D01*
X13422082Y-14318652D02*
X13412558Y-14337700D01*
X13412558Y-14337700D02*
X13403034Y-14347224D01*
X13403034Y-14347224D02*
X13383986Y-14356747D01*
X13383986Y-14356747D02*
X13364939Y-14356747D01*
X13364939Y-14356747D02*
X13345891Y-14347224D01*
X13345891Y-14347224D02*
X13336367Y-14337700D01*
X13336367Y-14337700D02*
X13326843Y-14318652D01*
X13326843Y-14318652D02*
X13317320Y-14280557D01*
X13317320Y-14280557D02*
X13317320Y-14232938D01*
X13317320Y-14232938D02*
X13326843Y-14194843D01*
X13326843Y-14194843D02*
X13336367Y-14175795D01*
X13336367Y-14175795D02*
X13345891Y-14166271D01*
X13345891Y-14166271D02*
X13364939Y-14156747D01*
X13507796Y-14156747D02*
X13507796Y-14194843D01*
X13583986Y-14156747D02*
X13583986Y-14194843D01*
X13879225Y-14432938D02*
X13869701Y-14423414D01*
X13869701Y-14423414D02*
X13850653Y-14394843D01*
X13850653Y-14394843D02*
X13841129Y-14375795D01*
X13841129Y-14375795D02*
X13831605Y-14347224D01*
X13831605Y-14347224D02*
X13822082Y-14299605D01*
X13822082Y-14299605D02*
X13822082Y-14261509D01*
X13822082Y-14261509D02*
X13831605Y-14213890D01*
X13831605Y-14213890D02*
X13841129Y-14185319D01*
X13841129Y-14185319D02*
X13850653Y-14166271D01*
X13850653Y-14166271D02*
X13869701Y-14137700D01*
X13869701Y-14137700D02*
X13879225Y-14128176D01*
X13945891Y-14175795D02*
X13955415Y-14166271D01*
X13955415Y-14166271D02*
X13974463Y-14156747D01*
X13974463Y-14156747D02*
X14022082Y-14156747D01*
X14022082Y-14156747D02*
X14041129Y-14166271D01*
X14041129Y-14166271D02*
X14050653Y-14175795D01*
X14050653Y-14175795D02*
X14060177Y-14194843D01*
X14060177Y-14194843D02*
X14060177Y-14213890D01*
X14060177Y-14213890D02*
X14050653Y-14242462D01*
X14050653Y-14242462D02*
X13936367Y-14356747D01*
X13936367Y-14356747D02*
X14060177Y-14356747D01*
X14231605Y-14223414D02*
X14231605Y-14356747D01*
X14183986Y-14147224D02*
X14136367Y-14290081D01*
X14136367Y-14290081D02*
X14260177Y-14290081D01*
X14488748Y-14356747D02*
X14488748Y-14156747D01*
X14574463Y-14356747D02*
X14574463Y-14251986D01*
X14574463Y-14251986D02*
X14564939Y-14232938D01*
X14564939Y-14232938D02*
X14545891Y-14223414D01*
X14545891Y-14223414D02*
X14517320Y-14223414D01*
X14517320Y-14223414D02*
X14498272Y-14232938D01*
X14498272Y-14232938D02*
X14488748Y-14242462D01*
X14698272Y-14356747D02*
X14679225Y-14347224D01*
X14679225Y-14347224D02*
X14669701Y-14337700D01*
X14669701Y-14337700D02*
X14660177Y-14318652D01*
X14660177Y-14318652D02*
X14660177Y-14261509D01*
X14660177Y-14261509D02*
X14669701Y-14242462D01*
X14669701Y-14242462D02*
X14679225Y-14232938D01*
X14679225Y-14232938D02*
X14698272Y-14223414D01*
X14698272Y-14223414D02*
X14726844Y-14223414D01*
X14726844Y-14223414D02*
X14745891Y-14232938D01*
X14745891Y-14232938D02*
X14755415Y-14242462D01*
X14755415Y-14242462D02*
X14764939Y-14261509D01*
X14764939Y-14261509D02*
X14764939Y-14318652D01*
X14764939Y-14318652D02*
X14755415Y-14337700D01*
X14755415Y-14337700D02*
X14745891Y-14347224D01*
X14745891Y-14347224D02*
X14726844Y-14356747D01*
X14726844Y-14356747D02*
X14698272Y-14356747D01*
X14879225Y-14356747D02*
X14860177Y-14347224D01*
X14860177Y-14347224D02*
X14850653Y-14328176D01*
X14850653Y-14328176D02*
X14850653Y-14156747D01*
X15031606Y-14347224D02*
X15012558Y-14356747D01*
X15012558Y-14356747D02*
X14974463Y-14356747D01*
X14974463Y-14356747D02*
X14955415Y-14347224D01*
X14955415Y-14347224D02*
X14945891Y-14328176D01*
X14945891Y-14328176D02*
X14945891Y-14251986D01*
X14945891Y-14251986D02*
X14955415Y-14232938D01*
X14955415Y-14232938D02*
X14974463Y-14223414D01*
X14974463Y-14223414D02*
X15012558Y-14223414D01*
X15012558Y-14223414D02*
X15031606Y-14232938D01*
X15031606Y-14232938D02*
X15041129Y-14251986D01*
X15041129Y-14251986D02*
X15041129Y-14271033D01*
X15041129Y-14271033D02*
X14945891Y-14290081D01*
X15117320Y-14347224D02*
X15136367Y-14356747D01*
X15136367Y-14356747D02*
X15174463Y-14356747D01*
X15174463Y-14356747D02*
X15193510Y-14347224D01*
X15193510Y-14347224D02*
X15203034Y-14328176D01*
X15203034Y-14328176D02*
X15203034Y-14318652D01*
X15203034Y-14318652D02*
X15193510Y-14299605D01*
X15193510Y-14299605D02*
X15174463Y-14290081D01*
X15174463Y-14290081D02*
X15145891Y-14290081D01*
X15145891Y-14290081D02*
X15126844Y-14280557D01*
X15126844Y-14280557D02*
X15117320Y-14261509D01*
X15117320Y-14261509D02*
X15117320Y-14251986D01*
X15117320Y-14251986D02*
X15126844Y-14232938D01*
X15126844Y-14232938D02*
X15145891Y-14223414D01*
X15145891Y-14223414D02*
X15174463Y-14223414D01*
X15174463Y-14223414D02*
X15193510Y-14232938D01*
X15269701Y-14432938D02*
X15279225Y-14423414D01*
X15279225Y-14423414D02*
X15298272Y-14394843D01*
X15298272Y-14394843D02*
X15307796Y-14375795D01*
X15307796Y-14375795D02*
X15317320Y-14347224D01*
X15317320Y-14347224D02*
X15326844Y-14299605D01*
X15326844Y-14299605D02*
X15326844Y-14261509D01*
X15326844Y-14261509D02*
X15317320Y-14213890D01*
X15317320Y-14213890D02*
X15307796Y-14185319D01*
X15307796Y-14185319D02*
X15298272Y-14166271D01*
X15298272Y-14166271D02*
X15279225Y-14137700D01*
X15279225Y-14137700D02*
X15269701Y-14128176D01*
X15631606Y-14432938D02*
X15622082Y-14423414D01*
X15622082Y-14423414D02*
X15603034Y-14394843D01*
X15603034Y-14394843D02*
X15593510Y-14375795D01*
X15593510Y-14375795D02*
X15583987Y-14347224D01*
X15583987Y-14347224D02*
X15574463Y-14299605D01*
X15574463Y-14299605D02*
X15574463Y-14261509D01*
X15574463Y-14261509D02*
X15583987Y-14213890D01*
X15583987Y-14213890D02*
X15593510Y-14185319D01*
X15593510Y-14185319D02*
X15603034Y-14166271D01*
X15603034Y-14166271D02*
X15622082Y-14137700D01*
X15622082Y-14137700D02*
X15631606Y-14128176D01*
X15707796Y-14223414D02*
X15707796Y-14356747D01*
X15707796Y-14242462D02*
X15717320Y-14232938D01*
X15717320Y-14232938D02*
X15736367Y-14223414D01*
X15736367Y-14223414D02*
X15764939Y-14223414D01*
X15764939Y-14223414D02*
X15783987Y-14232938D01*
X15783987Y-14232938D02*
X15793510Y-14251986D01*
X15793510Y-14251986D02*
X15793510Y-14356747D01*
X15917320Y-14356747D02*
X15898272Y-14347224D01*
X15898272Y-14347224D02*
X15888748Y-14337700D01*
X15888748Y-14337700D02*
X15879225Y-14318652D01*
X15879225Y-14318652D02*
X15879225Y-14261509D01*
X15879225Y-14261509D02*
X15888748Y-14242462D01*
X15888748Y-14242462D02*
X15898272Y-14232938D01*
X15898272Y-14232938D02*
X15917320Y-14223414D01*
X15917320Y-14223414D02*
X15945891Y-14223414D01*
X15945891Y-14223414D02*
X15964939Y-14232938D01*
X15964939Y-14232938D02*
X15974463Y-14242462D01*
X15974463Y-14242462D02*
X15983987Y-14261509D01*
X15983987Y-14261509D02*
X15983987Y-14318652D01*
X15983987Y-14318652D02*
X15974463Y-14337700D01*
X15974463Y-14337700D02*
X15964939Y-14347224D01*
X15964939Y-14347224D02*
X15945891Y-14356747D01*
X15945891Y-14356747D02*
X15917320Y-14356747D01*
X16041129Y-14223414D02*
X16117320Y-14223414D01*
X16069701Y-14156747D02*
X16069701Y-14328176D01*
X16069701Y-14328176D02*
X16079225Y-14347224D01*
X16079225Y-14347224D02*
X16098272Y-14356747D01*
X16098272Y-14356747D02*
X16117320Y-14356747D01*
X16336368Y-14223414D02*
X16336368Y-14423414D01*
X16336368Y-14232938D02*
X16355415Y-14223414D01*
X16355415Y-14223414D02*
X16393510Y-14223414D01*
X16393510Y-14223414D02*
X16412558Y-14232938D01*
X16412558Y-14232938D02*
X16422082Y-14242462D01*
X16422082Y-14242462D02*
X16431606Y-14261509D01*
X16431606Y-14261509D02*
X16431606Y-14318652D01*
X16431606Y-14318652D02*
X16422082Y-14337700D01*
X16422082Y-14337700D02*
X16412558Y-14347224D01*
X16412558Y-14347224D02*
X16393510Y-14356747D01*
X16393510Y-14356747D02*
X16355415Y-14356747D01*
X16355415Y-14356747D02*
X16336368Y-14347224D01*
X16545891Y-14356747D02*
X16526844Y-14347224D01*
X16526844Y-14347224D02*
X16517320Y-14328176D01*
X16517320Y-14328176D02*
X16517320Y-14156747D01*
X16707796Y-14356747D02*
X16707796Y-14251986D01*
X16707796Y-14251986D02*
X16698272Y-14232938D01*
X16698272Y-14232938D02*
X16679225Y-14223414D01*
X16679225Y-14223414D02*
X16641129Y-14223414D01*
X16641129Y-14223414D02*
X16622082Y-14232938D01*
X16707796Y-14347224D02*
X16688749Y-14356747D01*
X16688749Y-14356747D02*
X16641129Y-14356747D01*
X16641129Y-14356747D02*
X16622082Y-14347224D01*
X16622082Y-14347224D02*
X16612558Y-14328176D01*
X16612558Y-14328176D02*
X16612558Y-14309128D01*
X16612558Y-14309128D02*
X16622082Y-14290081D01*
X16622082Y-14290081D02*
X16641129Y-14280557D01*
X16641129Y-14280557D02*
X16688749Y-14280557D01*
X16688749Y-14280557D02*
X16707796Y-14271033D01*
X16774463Y-14223414D02*
X16850653Y-14223414D01*
X16803034Y-14156747D02*
X16803034Y-14328176D01*
X16803034Y-14328176D02*
X16812558Y-14347224D01*
X16812558Y-14347224D02*
X16831606Y-14356747D01*
X16831606Y-14356747D02*
X16850653Y-14356747D01*
X16993511Y-14347224D02*
X16974463Y-14356747D01*
X16974463Y-14356747D02*
X16936368Y-14356747D01*
X16936368Y-14356747D02*
X16917320Y-14347224D01*
X16917320Y-14347224D02*
X16907796Y-14328176D01*
X16907796Y-14328176D02*
X16907796Y-14251986D01*
X16907796Y-14251986D02*
X16917320Y-14232938D01*
X16917320Y-14232938D02*
X16936368Y-14223414D01*
X16936368Y-14223414D02*
X16974463Y-14223414D01*
X16974463Y-14223414D02*
X16993511Y-14232938D01*
X16993511Y-14232938D02*
X17003034Y-14251986D01*
X17003034Y-14251986D02*
X17003034Y-14271033D01*
X17003034Y-14271033D02*
X16907796Y-14290081D01*
X17174463Y-14356747D02*
X17174463Y-14156747D01*
X17174463Y-14347224D02*
X17155415Y-14356747D01*
X17155415Y-14356747D02*
X17117320Y-14356747D01*
X17117320Y-14356747D02*
X17098272Y-14347224D01*
X17098272Y-14347224D02*
X17088749Y-14337700D01*
X17088749Y-14337700D02*
X17079225Y-14318652D01*
X17079225Y-14318652D02*
X17079225Y-14261509D01*
X17079225Y-14261509D02*
X17088749Y-14242462D01*
X17088749Y-14242462D02*
X17098272Y-14232938D01*
X17098272Y-14232938D02*
X17117320Y-14223414D01*
X17117320Y-14223414D02*
X17155415Y-14223414D01*
X17155415Y-14223414D02*
X17174463Y-14232938D01*
X17250653Y-14432938D02*
X17260177Y-14423414D01*
X17260177Y-14423414D02*
X17279225Y-14394843D01*
X17279225Y-14394843D02*
X17288749Y-14375795D01*
X17288749Y-14375795D02*
X17298272Y-14347224D01*
X17298272Y-14347224D02*
X17307796Y-14299605D01*
X17307796Y-14299605D02*
X17307796Y-14261509D01*
X17307796Y-14261509D02*
X17298272Y-14213890D01*
X17298272Y-14213890D02*
X17288749Y-14185319D01*
X17288749Y-14185319D02*
X17279225Y-14166271D01*
X17279225Y-14166271D02*
X17260177Y-14137700D01*
X17260177Y-14137700D02*
X17250653Y-14128176D01*
X10304162Y-14555444D02*
G75*
G02*
X10104162Y-14555444I-100000J0D01*
G01*
X10104162Y-14555444D02*
G75*
G02*
X10304162Y-14555444I100000J0D01*
G01*
X10650653Y-14513594D02*
X10650653Y-14646927D01*
X10603034Y-14437404D02*
X10555415Y-14580261D01*
X10555415Y-14580261D02*
X10679224Y-14580261D01*
X10755415Y-14627880D02*
X10764939Y-14637404D01*
X10764939Y-14637404D02*
X10755415Y-14646927D01*
X10755415Y-14646927D02*
X10745891Y-14637404D01*
X10745891Y-14637404D02*
X10755415Y-14627880D01*
X10755415Y-14627880D02*
X10755415Y-14646927D01*
X10879224Y-14532642D02*
X10860177Y-14523118D01*
X10860177Y-14523118D02*
X10850653Y-14513594D01*
X10850653Y-14513594D02*
X10841129Y-14494546D01*
X10841129Y-14494546D02*
X10841129Y-14485023D01*
X10841129Y-14485023D02*
X10850653Y-14465975D01*
X10850653Y-14465975D02*
X10860177Y-14456451D01*
X10860177Y-14456451D02*
X10879224Y-14446927D01*
X10879224Y-14446927D02*
X10917320Y-14446927D01*
X10917320Y-14446927D02*
X10936367Y-14456451D01*
X10936367Y-14456451D02*
X10945891Y-14465975D01*
X10945891Y-14465975D02*
X10955415Y-14485023D01*
X10955415Y-14485023D02*
X10955415Y-14494546D01*
X10955415Y-14494546D02*
X10945891Y-14513594D01*
X10945891Y-14513594D02*
X10936367Y-14523118D01*
X10936367Y-14523118D02*
X10917320Y-14532642D01*
X10917320Y-14532642D02*
X10879224Y-14532642D01*
X10879224Y-14532642D02*
X10860177Y-14542166D01*
X10860177Y-14542166D02*
X10850653Y-14551689D01*
X10850653Y-14551689D02*
X10841129Y-14570737D01*
X10841129Y-14570737D02*
X10841129Y-14608832D01*
X10841129Y-14608832D02*
X10850653Y-14627880D01*
X10850653Y-14627880D02*
X10860177Y-14637404D01*
X10860177Y-14637404D02*
X10879224Y-14646927D01*
X10879224Y-14646927D02*
X10917320Y-14646927D01*
X10917320Y-14646927D02*
X10936367Y-14637404D01*
X10936367Y-14637404D02*
X10945891Y-14627880D01*
X10945891Y-14627880D02*
X10955415Y-14608832D01*
X10955415Y-14608832D02*
X10955415Y-14570737D01*
X10955415Y-14570737D02*
X10945891Y-14551689D01*
X10945891Y-14551689D02*
X10936367Y-14542166D01*
X10936367Y-14542166D02*
X10917320Y-14532642D01*
X11079224Y-14446927D02*
X11098272Y-14446927D01*
X11098272Y-14446927D02*
X11117320Y-14456451D01*
X11117320Y-14456451D02*
X11126843Y-14465975D01*
X11126843Y-14465975D02*
X11136367Y-14485023D01*
X11136367Y-14485023D02*
X11145891Y-14523118D01*
X11145891Y-14523118D02*
X11145891Y-14570737D01*
X11145891Y-14570737D02*
X11136367Y-14608832D01*
X11136367Y-14608832D02*
X11126843Y-14627880D01*
X11126843Y-14627880D02*
X11117320Y-14637404D01*
X11117320Y-14637404D02*
X11098272Y-14646927D01*
X11098272Y-14646927D02*
X11079224Y-14646927D01*
X11079224Y-14646927D02*
X11060177Y-14637404D01*
X11060177Y-14637404D02*
X11050653Y-14627880D01*
X11050653Y-14627880D02*
X11041129Y-14608832D01*
X11041129Y-14608832D02*
X11031605Y-14570737D01*
X11031605Y-14570737D02*
X11031605Y-14523118D01*
X11031605Y-14523118D02*
X11041129Y-14485023D01*
X11041129Y-14485023D02*
X11050653Y-14465975D01*
X11050653Y-14465975D02*
X11060177Y-14456451D01*
X11060177Y-14456451D02*
X11079224Y-14446927D01*
X11269700Y-14446927D02*
X11288748Y-14446927D01*
X11288748Y-14446927D02*
X11307796Y-14456451D01*
X11307796Y-14456451D02*
X11317319Y-14465975D01*
X11317319Y-14465975D02*
X11326843Y-14485023D01*
X11326843Y-14485023D02*
X11336367Y-14523118D01*
X11336367Y-14523118D02*
X11336367Y-14570737D01*
X11336367Y-14570737D02*
X11326843Y-14608832D01*
X11326843Y-14608832D02*
X11317319Y-14627880D01*
X11317319Y-14627880D02*
X11307796Y-14637404D01*
X11307796Y-14637404D02*
X11288748Y-14646927D01*
X11288748Y-14646927D02*
X11269700Y-14646927D01*
X11269700Y-14646927D02*
X11250653Y-14637404D01*
X11250653Y-14637404D02*
X11241129Y-14627880D01*
X11241129Y-14627880D02*
X11231605Y-14608832D01*
X11231605Y-14608832D02*
X11222081Y-14570737D01*
X11222081Y-14570737D02*
X11222081Y-14523118D01*
X11222081Y-14523118D02*
X11231605Y-14485023D01*
X11231605Y-14485023D02*
X11241129Y-14465975D01*
X11241129Y-14465975D02*
X11250653Y-14456451D01*
X11250653Y-14456451D02*
X11269700Y-14446927D01*
X11422081Y-14646927D02*
X11422081Y-14513594D01*
X11422081Y-14532642D02*
X11431605Y-14523118D01*
X11431605Y-14523118D02*
X11450653Y-14513594D01*
X11450653Y-14513594D02*
X11479224Y-14513594D01*
X11479224Y-14513594D02*
X11498272Y-14523118D01*
X11498272Y-14523118D02*
X11507796Y-14542166D01*
X11507796Y-14542166D02*
X11507796Y-14646927D01*
X11507796Y-14542166D02*
X11517319Y-14523118D01*
X11517319Y-14523118D02*
X11536367Y-14513594D01*
X11536367Y-14513594D02*
X11564938Y-14513594D01*
X11564938Y-14513594D02*
X11583986Y-14523118D01*
X11583986Y-14523118D02*
X11593510Y-14542166D01*
X11593510Y-14542166D02*
X11593510Y-14646927D01*
X11688748Y-14646927D02*
X11688748Y-14513594D01*
X11688748Y-14532642D02*
X11698272Y-14523118D01*
X11698272Y-14523118D02*
X11717319Y-14513594D01*
X11717319Y-14513594D02*
X11745891Y-14513594D01*
X11745891Y-14513594D02*
X11764939Y-14523118D01*
X11764939Y-14523118D02*
X11774462Y-14542166D01*
X11774462Y-14542166D02*
X11774462Y-14646927D01*
X11774462Y-14542166D02*
X11783986Y-14523118D01*
X11783986Y-14523118D02*
X11803034Y-14513594D01*
X11803034Y-14513594D02*
X11831605Y-14513594D01*
X11831605Y-14513594D02*
X11850653Y-14523118D01*
X11850653Y-14523118D02*
X11860177Y-14542166D01*
X11860177Y-14542166D02*
X11860177Y-14646927D01*
X12250653Y-14437404D02*
X12079224Y-14694546D01*
X12507796Y-14446927D02*
X12526843Y-14446927D01*
X12526843Y-14446927D02*
X12545891Y-14456451D01*
X12545891Y-14456451D02*
X12555415Y-14465975D01*
X12555415Y-14465975D02*
X12564939Y-14485023D01*
X12564939Y-14485023D02*
X12574462Y-14523118D01*
X12574462Y-14523118D02*
X12574462Y-14570737D01*
X12574462Y-14570737D02*
X12564939Y-14608832D01*
X12564939Y-14608832D02*
X12555415Y-14627880D01*
X12555415Y-14627880D02*
X12545891Y-14637404D01*
X12545891Y-14637404D02*
X12526843Y-14646927D01*
X12526843Y-14646927D02*
X12507796Y-14646927D01*
X12507796Y-14646927D02*
X12488748Y-14637404D01*
X12488748Y-14637404D02*
X12479224Y-14627880D01*
X12479224Y-14627880D02*
X12469701Y-14608832D01*
X12469701Y-14608832D02*
X12460177Y-14570737D01*
X12460177Y-14570737D02*
X12460177Y-14523118D01*
X12460177Y-14523118D02*
X12469701Y-14485023D01*
X12469701Y-14485023D02*
X12479224Y-14465975D01*
X12479224Y-14465975D02*
X12488748Y-14456451D01*
X12488748Y-14456451D02*
X12507796Y-14446927D01*
X12660177Y-14627880D02*
X12669701Y-14637404D01*
X12669701Y-14637404D02*
X12660177Y-14646927D01*
X12660177Y-14646927D02*
X12650653Y-14637404D01*
X12650653Y-14637404D02*
X12660177Y-14627880D01*
X12660177Y-14627880D02*
X12660177Y-14646927D01*
X12860177Y-14646927D02*
X12745891Y-14646927D01*
X12803034Y-14646927D02*
X12803034Y-14446927D01*
X12803034Y-14446927D02*
X12783986Y-14475499D01*
X12783986Y-14475499D02*
X12764939Y-14494546D01*
X12764939Y-14494546D02*
X12745891Y-14504070D01*
X12974462Y-14532642D02*
X12955415Y-14523118D01*
X12955415Y-14523118D02*
X12945891Y-14513594D01*
X12945891Y-14513594D02*
X12936367Y-14494546D01*
X12936367Y-14494546D02*
X12936367Y-14485023D01*
X12936367Y-14485023D02*
X12945891Y-14465975D01*
X12945891Y-14465975D02*
X12955415Y-14456451D01*
X12955415Y-14456451D02*
X12974462Y-14446927D01*
X12974462Y-14446927D02*
X13012558Y-14446927D01*
X13012558Y-14446927D02*
X13031605Y-14456451D01*
X13031605Y-14456451D02*
X13041129Y-14465975D01*
X13041129Y-14465975D02*
X13050653Y-14485023D01*
X13050653Y-14485023D02*
X13050653Y-14494546D01*
X13050653Y-14494546D02*
X13041129Y-14513594D01*
X13041129Y-14513594D02*
X13031605Y-14523118D01*
X13031605Y-14523118D02*
X13012558Y-14532642D01*
X13012558Y-14532642D02*
X12974462Y-14532642D01*
X12974462Y-14532642D02*
X12955415Y-14542166D01*
X12955415Y-14542166D02*
X12945891Y-14551689D01*
X12945891Y-14551689D02*
X12936367Y-14570737D01*
X12936367Y-14570737D02*
X12936367Y-14608832D01*
X12936367Y-14608832D02*
X12945891Y-14627880D01*
X12945891Y-14627880D02*
X12955415Y-14637404D01*
X12955415Y-14637404D02*
X12974462Y-14646927D01*
X12974462Y-14646927D02*
X13012558Y-14646927D01*
X13012558Y-14646927D02*
X13031605Y-14637404D01*
X13031605Y-14637404D02*
X13041129Y-14627880D01*
X13041129Y-14627880D02*
X13050653Y-14608832D01*
X13050653Y-14608832D02*
X13050653Y-14570737D01*
X13050653Y-14570737D02*
X13041129Y-14551689D01*
X13041129Y-14551689D02*
X13031605Y-14542166D01*
X13031605Y-14542166D02*
X13012558Y-14532642D01*
X13145891Y-14646927D02*
X13183986Y-14646927D01*
X13183986Y-14646927D02*
X13203034Y-14637404D01*
X13203034Y-14637404D02*
X13212558Y-14627880D01*
X13212558Y-14627880D02*
X13231605Y-14599308D01*
X13231605Y-14599308D02*
X13241129Y-14561213D01*
X13241129Y-14561213D02*
X13241129Y-14485023D01*
X13241129Y-14485023D02*
X13231605Y-14465975D01*
X13231605Y-14465975D02*
X13222082Y-14456451D01*
X13222082Y-14456451D02*
X13203034Y-14446927D01*
X13203034Y-14446927D02*
X13164939Y-14446927D01*
X13164939Y-14446927D02*
X13145891Y-14456451D01*
X13145891Y-14456451D02*
X13136367Y-14465975D01*
X13136367Y-14465975D02*
X13126843Y-14485023D01*
X13126843Y-14485023D02*
X13126843Y-14532642D01*
X13126843Y-14532642D02*
X13136367Y-14551689D01*
X13136367Y-14551689D02*
X13145891Y-14561213D01*
X13145891Y-14561213D02*
X13164939Y-14570737D01*
X13164939Y-14570737D02*
X13203034Y-14570737D01*
X13203034Y-14570737D02*
X13222082Y-14561213D01*
X13222082Y-14561213D02*
X13231605Y-14551689D01*
X13231605Y-14551689D02*
X13241129Y-14532642D01*
X13364939Y-14446927D02*
X13383986Y-14446927D01*
X13383986Y-14446927D02*
X13403034Y-14456451D01*
X13403034Y-14456451D02*
X13412558Y-14465975D01*
X13412558Y-14465975D02*
X13422082Y-14485023D01*
X13422082Y-14485023D02*
X13431605Y-14523118D01*
X13431605Y-14523118D02*
X13431605Y-14570737D01*
X13431605Y-14570737D02*
X13422082Y-14608832D01*
X13422082Y-14608832D02*
X13412558Y-14627880D01*
X13412558Y-14627880D02*
X13403034Y-14637404D01*
X13403034Y-14637404D02*
X13383986Y-14646927D01*
X13383986Y-14646927D02*
X13364939Y-14646927D01*
X13364939Y-14646927D02*
X13345891Y-14637404D01*
X13345891Y-14637404D02*
X13336367Y-14627880D01*
X13336367Y-14627880D02*
X13326843Y-14608832D01*
X13326843Y-14608832D02*
X13317320Y-14570737D01*
X13317320Y-14570737D02*
X13317320Y-14523118D01*
X13317320Y-14523118D02*
X13326843Y-14485023D01*
X13326843Y-14485023D02*
X13336367Y-14465975D01*
X13336367Y-14465975D02*
X13345891Y-14456451D01*
X13345891Y-14456451D02*
X13364939Y-14446927D01*
X13507796Y-14446927D02*
X13507796Y-14485023D01*
X13583986Y-14446927D02*
X13583986Y-14485023D01*
X13879225Y-14723118D02*
X13869701Y-14713594D01*
X13869701Y-14713594D02*
X13850653Y-14685023D01*
X13850653Y-14685023D02*
X13841129Y-14665975D01*
X13841129Y-14665975D02*
X13831605Y-14637404D01*
X13831605Y-14637404D02*
X13822082Y-14589785D01*
X13822082Y-14589785D02*
X13822082Y-14551689D01*
X13822082Y-14551689D02*
X13831605Y-14504070D01*
X13831605Y-14504070D02*
X13841129Y-14475499D01*
X13841129Y-14475499D02*
X13850653Y-14456451D01*
X13850653Y-14456451D02*
X13869701Y-14427880D01*
X13869701Y-14427880D02*
X13879225Y-14418356D01*
X14060177Y-14646927D02*
X13945891Y-14646927D01*
X14003034Y-14646927D02*
X14003034Y-14446927D01*
X14003034Y-14446927D02*
X13983986Y-14475499D01*
X13983986Y-14475499D02*
X13964939Y-14494546D01*
X13964939Y-14494546D02*
X13945891Y-14504070D01*
X14136367Y-14465975D02*
X14145891Y-14456451D01*
X14145891Y-14456451D02*
X14164939Y-14446927D01*
X14164939Y-14446927D02*
X14212558Y-14446927D01*
X14212558Y-14446927D02*
X14231605Y-14456451D01*
X14231605Y-14456451D02*
X14241129Y-14465975D01*
X14241129Y-14465975D02*
X14250653Y-14485023D01*
X14250653Y-14485023D02*
X14250653Y-14504070D01*
X14250653Y-14504070D02*
X14241129Y-14532642D01*
X14241129Y-14532642D02*
X14126844Y-14646927D01*
X14126844Y-14646927D02*
X14250653Y-14646927D01*
X14488748Y-14646927D02*
X14488748Y-14446927D01*
X14574463Y-14646927D02*
X14574463Y-14542166D01*
X14574463Y-14542166D02*
X14564939Y-14523118D01*
X14564939Y-14523118D02*
X14545891Y-14513594D01*
X14545891Y-14513594D02*
X14517320Y-14513594D01*
X14517320Y-14513594D02*
X14498272Y-14523118D01*
X14498272Y-14523118D02*
X14488748Y-14532642D01*
X14698272Y-14646927D02*
X14679225Y-14637404D01*
X14679225Y-14637404D02*
X14669701Y-14627880D01*
X14669701Y-14627880D02*
X14660177Y-14608832D01*
X14660177Y-14608832D02*
X14660177Y-14551689D01*
X14660177Y-14551689D02*
X14669701Y-14532642D01*
X14669701Y-14532642D02*
X14679225Y-14523118D01*
X14679225Y-14523118D02*
X14698272Y-14513594D01*
X14698272Y-14513594D02*
X14726844Y-14513594D01*
X14726844Y-14513594D02*
X14745891Y-14523118D01*
X14745891Y-14523118D02*
X14755415Y-14532642D01*
X14755415Y-14532642D02*
X14764939Y-14551689D01*
X14764939Y-14551689D02*
X14764939Y-14608832D01*
X14764939Y-14608832D02*
X14755415Y-14627880D01*
X14755415Y-14627880D02*
X14745891Y-14637404D01*
X14745891Y-14637404D02*
X14726844Y-14646927D01*
X14726844Y-14646927D02*
X14698272Y-14646927D01*
X14879225Y-14646927D02*
X14860177Y-14637404D01*
X14860177Y-14637404D02*
X14850653Y-14618356D01*
X14850653Y-14618356D02*
X14850653Y-14446927D01*
X15031606Y-14637404D02*
X15012558Y-14646927D01*
X15012558Y-14646927D02*
X14974463Y-14646927D01*
X14974463Y-14646927D02*
X14955415Y-14637404D01*
X14955415Y-14637404D02*
X14945891Y-14618356D01*
X14945891Y-14618356D02*
X14945891Y-14542166D01*
X14945891Y-14542166D02*
X14955415Y-14523118D01*
X14955415Y-14523118D02*
X14974463Y-14513594D01*
X14974463Y-14513594D02*
X15012558Y-14513594D01*
X15012558Y-14513594D02*
X15031606Y-14523118D01*
X15031606Y-14523118D02*
X15041129Y-14542166D01*
X15041129Y-14542166D02*
X15041129Y-14561213D01*
X15041129Y-14561213D02*
X14945891Y-14580261D01*
X15117320Y-14637404D02*
X15136367Y-14646927D01*
X15136367Y-14646927D02*
X15174463Y-14646927D01*
X15174463Y-14646927D02*
X15193510Y-14637404D01*
X15193510Y-14637404D02*
X15203034Y-14618356D01*
X15203034Y-14618356D02*
X15203034Y-14608832D01*
X15203034Y-14608832D02*
X15193510Y-14589785D01*
X15193510Y-14589785D02*
X15174463Y-14580261D01*
X15174463Y-14580261D02*
X15145891Y-14580261D01*
X15145891Y-14580261D02*
X15126844Y-14570737D01*
X15126844Y-14570737D02*
X15117320Y-14551689D01*
X15117320Y-14551689D02*
X15117320Y-14542166D01*
X15117320Y-14542166D02*
X15126844Y-14523118D01*
X15126844Y-14523118D02*
X15145891Y-14513594D01*
X15145891Y-14513594D02*
X15174463Y-14513594D01*
X15174463Y-14513594D02*
X15193510Y-14523118D01*
X15269701Y-14723118D02*
X15279225Y-14713594D01*
X15279225Y-14713594D02*
X15298272Y-14685023D01*
X15298272Y-14685023D02*
X15307796Y-14665975D01*
X15307796Y-14665975D02*
X15317320Y-14637404D01*
X15317320Y-14637404D02*
X15326844Y-14589785D01*
X15326844Y-14589785D02*
X15326844Y-14551689D01*
X15326844Y-14551689D02*
X15317320Y-14504070D01*
X15317320Y-14504070D02*
X15307796Y-14475499D01*
X15307796Y-14475499D02*
X15298272Y-14456451D01*
X15298272Y-14456451D02*
X15279225Y-14427880D01*
X15279225Y-14427880D02*
X15269701Y-14418356D01*
X15631606Y-14723118D02*
X15622082Y-14713594D01*
X15622082Y-14713594D02*
X15603034Y-14685023D01*
X15603034Y-14685023D02*
X15593510Y-14665975D01*
X15593510Y-14665975D02*
X15583987Y-14637404D01*
X15583987Y-14637404D02*
X15574463Y-14589785D01*
X15574463Y-14589785D02*
X15574463Y-14551689D01*
X15574463Y-14551689D02*
X15583987Y-14504070D01*
X15583987Y-14504070D02*
X15593510Y-14475499D01*
X15593510Y-14475499D02*
X15603034Y-14456451D01*
X15603034Y-14456451D02*
X15622082Y-14427880D01*
X15622082Y-14427880D02*
X15631606Y-14418356D01*
X15707796Y-14513594D02*
X15707796Y-14646927D01*
X15707796Y-14532642D02*
X15717320Y-14523118D01*
X15717320Y-14523118D02*
X15736367Y-14513594D01*
X15736367Y-14513594D02*
X15764939Y-14513594D01*
X15764939Y-14513594D02*
X15783987Y-14523118D01*
X15783987Y-14523118D02*
X15793510Y-14542166D01*
X15793510Y-14542166D02*
X15793510Y-14646927D01*
X15917320Y-14646927D02*
X15898272Y-14637404D01*
X15898272Y-14637404D02*
X15888748Y-14627880D01*
X15888748Y-14627880D02*
X15879225Y-14608832D01*
X15879225Y-14608832D02*
X15879225Y-14551689D01*
X15879225Y-14551689D02*
X15888748Y-14532642D01*
X15888748Y-14532642D02*
X15898272Y-14523118D01*
X15898272Y-14523118D02*
X15917320Y-14513594D01*
X15917320Y-14513594D02*
X15945891Y-14513594D01*
X15945891Y-14513594D02*
X15964939Y-14523118D01*
X15964939Y-14523118D02*
X15974463Y-14532642D01*
X15974463Y-14532642D02*
X15983987Y-14551689D01*
X15983987Y-14551689D02*
X15983987Y-14608832D01*
X15983987Y-14608832D02*
X15974463Y-14627880D01*
X15974463Y-14627880D02*
X15964939Y-14637404D01*
X15964939Y-14637404D02*
X15945891Y-14646927D01*
X15945891Y-14646927D02*
X15917320Y-14646927D01*
X16041129Y-14513594D02*
X16117320Y-14513594D01*
X16069701Y-14446927D02*
X16069701Y-14618356D01*
X16069701Y-14618356D02*
X16079225Y-14637404D01*
X16079225Y-14637404D02*
X16098272Y-14646927D01*
X16098272Y-14646927D02*
X16117320Y-14646927D01*
X16336368Y-14513594D02*
X16336368Y-14713594D01*
X16336368Y-14523118D02*
X16355415Y-14513594D01*
X16355415Y-14513594D02*
X16393510Y-14513594D01*
X16393510Y-14513594D02*
X16412558Y-14523118D01*
X16412558Y-14523118D02*
X16422082Y-14532642D01*
X16422082Y-14532642D02*
X16431606Y-14551689D01*
X16431606Y-14551689D02*
X16431606Y-14608832D01*
X16431606Y-14608832D02*
X16422082Y-14627880D01*
X16422082Y-14627880D02*
X16412558Y-14637404D01*
X16412558Y-14637404D02*
X16393510Y-14646927D01*
X16393510Y-14646927D02*
X16355415Y-14646927D01*
X16355415Y-14646927D02*
X16336368Y-14637404D01*
X16545891Y-14646927D02*
X16526844Y-14637404D01*
X16526844Y-14637404D02*
X16517320Y-14618356D01*
X16517320Y-14618356D02*
X16517320Y-14446927D01*
X16707796Y-14646927D02*
X16707796Y-14542166D01*
X16707796Y-14542166D02*
X16698272Y-14523118D01*
X16698272Y-14523118D02*
X16679225Y-14513594D01*
X16679225Y-14513594D02*
X16641129Y-14513594D01*
X16641129Y-14513594D02*
X16622082Y-14523118D01*
X16707796Y-14637404D02*
X16688749Y-14646927D01*
X16688749Y-14646927D02*
X16641129Y-14646927D01*
X16641129Y-14646927D02*
X16622082Y-14637404D01*
X16622082Y-14637404D02*
X16612558Y-14618356D01*
X16612558Y-14618356D02*
X16612558Y-14599308D01*
X16612558Y-14599308D02*
X16622082Y-14580261D01*
X16622082Y-14580261D02*
X16641129Y-14570737D01*
X16641129Y-14570737D02*
X16688749Y-14570737D01*
X16688749Y-14570737D02*
X16707796Y-14561213D01*
X16774463Y-14513594D02*
X16850653Y-14513594D01*
X16803034Y-14446927D02*
X16803034Y-14618356D01*
X16803034Y-14618356D02*
X16812558Y-14637404D01*
X16812558Y-14637404D02*
X16831606Y-14646927D01*
X16831606Y-14646927D02*
X16850653Y-14646927D01*
X16993511Y-14637404D02*
X16974463Y-14646927D01*
X16974463Y-14646927D02*
X16936368Y-14646927D01*
X16936368Y-14646927D02*
X16917320Y-14637404D01*
X16917320Y-14637404D02*
X16907796Y-14618356D01*
X16907796Y-14618356D02*
X16907796Y-14542166D01*
X16907796Y-14542166D02*
X16917320Y-14523118D01*
X16917320Y-14523118D02*
X16936368Y-14513594D01*
X16936368Y-14513594D02*
X16974463Y-14513594D01*
X16974463Y-14513594D02*
X16993511Y-14523118D01*
X16993511Y-14523118D02*
X17003034Y-14542166D01*
X17003034Y-14542166D02*
X17003034Y-14561213D01*
X17003034Y-14561213D02*
X16907796Y-14580261D01*
X17174463Y-14646927D02*
X17174463Y-14446927D01*
X17174463Y-14637404D02*
X17155415Y-14646927D01*
X17155415Y-14646927D02*
X17117320Y-14646927D01*
X17117320Y-14646927D02*
X17098272Y-14637404D01*
X17098272Y-14637404D02*
X17088749Y-14627880D01*
X17088749Y-14627880D02*
X17079225Y-14608832D01*
X17079225Y-14608832D02*
X17079225Y-14551689D01*
X17079225Y-14551689D02*
X17088749Y-14532642D01*
X17088749Y-14532642D02*
X17098272Y-14523118D01*
X17098272Y-14523118D02*
X17117320Y-14513594D01*
X17117320Y-14513594D02*
X17155415Y-14513594D01*
X17155415Y-14513594D02*
X17174463Y-14523118D01*
X17250653Y-14723118D02*
X17260177Y-14713594D01*
X17260177Y-14713594D02*
X17279225Y-14685023D01*
X17279225Y-14685023D02*
X17288749Y-14665975D01*
X17288749Y-14665975D02*
X17298272Y-14637404D01*
X17298272Y-14637404D02*
X17307796Y-14589785D01*
X17307796Y-14589785D02*
X17307796Y-14551689D01*
X17307796Y-14551689D02*
X17298272Y-14504070D01*
X17298272Y-14504070D02*
X17288749Y-14475499D01*
X17288749Y-14475499D02*
X17279225Y-14456451D01*
X17279225Y-14456451D02*
X17260177Y-14427880D01*
X17260177Y-14427880D02*
X17250653Y-14418356D01*
M02*
