%TF.GenerationSoftware,KiCad,Pcbnew,8.0.6-1.fc41*%
%TF.CreationDate,2024-12-09T10:01:21+11:00*%
%TF.ProjectId,pueo-mx-spaced,7075656f-2d6d-4782-9d73-70616365642e,0.1*%
%TF.SameCoordinates,Original*%
%TF.FileFunction,Soldermask,Bot*%
%TF.FilePolarity,Negative*%
%FSLAX46Y46*%
G04 Gerber Fmt 4.6, Leading zero omitted, Abs format (unit mm)*
G04 Created by KiCad (PCBNEW 8.0.6-1.fc41) date 2024-12-09 10:01:21*
%MOMM*%
%LPD*%
G01*
G04 APERTURE LIST*
G04 Aperture macros list*
%AMRoundRect*
0 Rectangle with rounded corners*
0 $1 Rounding radius*
0 $2 $3 $4 $5 $6 $7 $8 $9 X,Y pos of 4 corners*
0 Add a 4 corners polygon primitive as box body*
4,1,4,$2,$3,$4,$5,$6,$7,$8,$9,$2,$3,0*
0 Add four circle primitives for the rounded corners*
1,1,$1+$1,$2,$3*
1,1,$1+$1,$4,$5*
1,1,$1+$1,$6,$7*
1,1,$1+$1,$8,$9*
0 Add four rect primitives between the rounded corners*
20,1,$1+$1,$2,$3,$4,$5,0*
20,1,$1+$1,$4,$5,$6,$7,0*
20,1,$1+$1,$6,$7,$8,$9,0*
20,1,$1+$1,$8,$9,$2,$3,0*%
%AMFreePoly0*
4,1,16,0.685355,0.785355,0.700000,0.750000,0.691603,0.722265,0.210093,0.000000,0.691603,-0.722265,0.699029,-0.759806,0.677735,-0.791603,0.650000,-0.800000,-0.500000,-0.800000,-0.535355,-0.785355,-0.550000,-0.750000,-0.550000,0.750000,-0.535355,0.785355,-0.500000,0.800000,0.650000,0.800000,0.685355,0.785355,0.685355,0.785355,$1*%
%AMFreePoly1*
4,1,16,0.535355,0.785355,0.550000,0.750000,0.550000,-0.750000,0.535355,-0.785355,0.500000,-0.800000,-0.500000,-0.800000,-0.535355,-0.785355,-0.541603,-0.777735,-1.041603,-0.027735,-1.049029,0.009806,-1.041603,0.027735,-0.541603,0.777735,-0.509806,0.799029,-0.500000,0.800000,0.500000,0.800000,0.535355,0.785355,0.535355,0.785355,$1*%
G04 Aperture macros list end*
%ADD10C,1.801800*%
%ADD11C,2.100000*%
%ADD12C,4.900000*%
%ADD13C,2.300000*%
%ADD14O,1.850000X1.300000*%
%ADD15C,4.500000*%
%ADD16C,3.700000*%
%ADD17RoundRect,0.270833X-0.654167X0.379167X-0.654167X-0.379167X0.654167X-0.379167X0.654167X0.379167X0*%
%ADD18RoundRect,0.050000X-0.762000X0.250000X-0.762000X-0.250000X0.762000X-0.250000X0.762000X0.250000X0*%
%ADD19C,1.852600*%
%ADD20FreePoly0,180.000000*%
%ADD21FreePoly1,180.000000*%
%ADD22RoundRect,0.102000X-0.820000X0.820000X-0.820000X-0.820000X0.820000X-0.820000X0.820000X0.820000X0*%
%ADD23C,1.844000*%
%ADD24RoundRect,0.270833X0.379167X0.479167X-0.379167X0.479167X-0.379167X-0.479167X0.379167X-0.479167X0*%
%ADD25RoundRect,0.050000X-0.800000X0.800000X-0.800000X-0.800000X0.800000X-0.800000X0.800000X0.800000X0*%
%ADD26C,1.700000*%
G04 APERTURE END LIST*
D10*
%TO.C,S4*%
X109161664Y-66599976D03*
D11*
X109370515Y-61031412D03*
D12*
X114654126Y-66312127D03*
D11*
X119356810Y-60508052D03*
D10*
X120146588Y-66024278D03*
D13*
X114962907Y-72204038D03*
X109859854Y-70368598D03*
X119846150Y-69845238D03*
%TD*%
D10*
%TO.C,S13*%
X185823306Y-121897357D03*
D11*
X188191365Y-116853071D03*
D12*
X190991616Y-123778467D03*
D11*
X197588289Y-120273275D03*
D10*
X196159926Y-125659577D03*
D13*
X188973696Y-129322655D03*
X184993475Y-125639199D03*
X194390402Y-129059401D03*
%TD*%
D10*
%TO.C,S8*%
X149391618Y-103258464D03*
D11*
X149891615Y-97708468D03*
D12*
X154891617Y-103258466D03*
D11*
X159891617Y-97708465D03*
D10*
X160391616Y-103258468D03*
D13*
X154891617Y-109158468D03*
X149891617Y-107058466D03*
X159891617Y-107058466D03*
%TD*%
D14*
%TO.C,*%
X201282700Y-95048470D03*
%TD*%
D10*
%TO.C,S3*%
X110156046Y-85573933D03*
D11*
X110364897Y-80005369D03*
D12*
X115648508Y-85286084D03*
D11*
X120351192Y-79482009D03*
D10*
X121140970Y-84998235D03*
D13*
X115957289Y-91177995D03*
X110854236Y-89342555D03*
X120840532Y-88819195D03*
%TD*%
D10*
%TO.C,S5*%
X130391617Y-98508468D03*
D11*
X130891614Y-92958472D03*
D12*
X135891616Y-98508470D03*
D11*
X140891616Y-92958469D03*
D10*
X141391615Y-98508472D03*
D13*
X135891616Y-104408472D03*
X130891616Y-102308470D03*
X140891616Y-102308470D03*
%TD*%
D15*
%TO.C,*%
X144891617Y-107508466D03*
%TD*%
D16*
%TO.C,REF\u002A\u002A*%
X109402834Y-117541819D03*
%TD*%
D10*
%TO.C,S12*%
X168391620Y-74758467D03*
D11*
X168891617Y-69208471D03*
D12*
X173891619Y-74758469D03*
D11*
X178891619Y-69208468D03*
D10*
X179391618Y-74758471D03*
D13*
X173891619Y-80658471D03*
X168891619Y-78558469D03*
X178891619Y-78558469D03*
%TD*%
D16*
%TO.C,REF\u002A\u002A*%
X125439323Y-65613080D03*
%TD*%
D17*
%TO.C,*%
X201282701Y-93048471D03*
%TD*%
D10*
%TO.C,S11*%
X168391618Y-93758463D03*
D11*
X168891615Y-88208467D03*
D12*
X173891617Y-93758465D03*
D11*
X178891617Y-88208464D03*
D10*
X179391616Y-93758467D03*
D13*
X173891617Y-99658467D03*
X168891617Y-97558465D03*
X178891617Y-97558465D03*
%TD*%
D10*
%TO.C,S10*%
X149391619Y-65258467D03*
D11*
X149891616Y-59708471D03*
D12*
X154891618Y-65258469D03*
D11*
X159891618Y-59708468D03*
D10*
X160391617Y-65258471D03*
D13*
X154891618Y-71158471D03*
X149891618Y-69058469D03*
X159891618Y-69058469D03*
%TD*%
D16*
%TO.C,REF\u002A\u002A*%
X181491618Y-60758466D03*
%TD*%
D18*
%TO.C,MCU1*%
X199166618Y-60138466D03*
D19*
X185271617Y-60138467D03*
X200511617Y-60138469D03*
D20*
X198216619Y-60138469D03*
D18*
X199166618Y-62678468D03*
D19*
X200511619Y-62678469D03*
D20*
X198216618Y-62678469D03*
D19*
X185271617Y-62678469D03*
X185271620Y-65218466D03*
D18*
X199166618Y-65218467D03*
D20*
X198216617Y-65218468D03*
D19*
X200511618Y-65218469D03*
X185271620Y-67758467D03*
X200511618Y-67758468D03*
D21*
X196766620Y-60138468D03*
X196766617Y-62678468D03*
X196766618Y-65218468D03*
D19*
X200511618Y-70298469D03*
X200511619Y-72838467D03*
X200511618Y-75378468D03*
X200511618Y-77918468D03*
X200511616Y-80458469D03*
X200511616Y-82998470D03*
X200511619Y-85538467D03*
X200511619Y-88078469D03*
X185271618Y-70298468D03*
X185271618Y-72838468D03*
X185271617Y-75378469D03*
X185271618Y-77918467D03*
X185271618Y-80458468D03*
X185271618Y-82998467D03*
X185271617Y-85538467D03*
X185271619Y-88078467D03*
%TD*%
D10*
%TO.C,S6*%
X130391616Y-79508464D03*
D11*
X130891613Y-73958468D03*
D12*
X135891615Y-79508466D03*
D11*
X140891615Y-73958465D03*
D10*
X141391614Y-79508468D03*
D13*
X135891615Y-85408468D03*
X130891615Y-83308466D03*
X140891615Y-83308466D03*
%TD*%
D10*
%TO.C,S2*%
X111150431Y-104547895D03*
D11*
X111359282Y-98979331D03*
D12*
X116642893Y-104260046D03*
D11*
X121345577Y-98455971D03*
D10*
X122135355Y-103972197D03*
D13*
X116951674Y-110151957D03*
X111848621Y-108316517D03*
X121834917Y-107793157D03*
%TD*%
D10*
%TO.C,S7*%
X130391619Y-60508465D03*
D11*
X130891616Y-54958469D03*
D12*
X135891618Y-60508467D03*
D11*
X140891618Y-54958466D03*
D10*
X141391617Y-60508469D03*
D13*
X135891618Y-66408469D03*
X130891618Y-64308467D03*
X140891618Y-64308467D03*
%TD*%
D16*
%TO.C,REF\u002A\u002A*%
X200274472Y-112742162D03*
%TD*%
D15*
%TO.C,REF\u002A\u002A*%
X126176986Y-88128899D03*
X145556553Y-69414268D03*
X144891617Y-107508466D03*
X164271184Y-88793835D03*
%TD*%
D16*
%TO.C,*%
X200274472Y-112742162D03*
%TD*%
D22*
%TO.C,REF\u002A\u002A*%
X177248141Y-58277937D03*
D23*
X177248141Y-63357939D03*
X172168139Y-63357939D03*
X172168139Y-58277937D03*
%TD*%
D10*
%TO.C,S9*%
X149391620Y-84258467D03*
D11*
X149891617Y-78708471D03*
D12*
X154891619Y-84258469D03*
D11*
X159891619Y-78708468D03*
D10*
X160391618Y-84258471D03*
D13*
X154891619Y-90158471D03*
X149891619Y-88058469D03*
X159891619Y-88058469D03*
%TD*%
D24*
%TO.C,REF\u002A\u002A*%
X168981278Y-58254490D03*
X166981278Y-58254486D03*
%TD*%
%TO.C,REF\u002A\u002A*%
X168981279Y-63404491D03*
X166981279Y-63404487D03*
%TD*%
D25*
%TO.C,on/off*%
X198638611Y-102553469D03*
D26*
X198638604Y-105053469D03*
X198638619Y-107553467D03*
X201838621Y-102553461D03*
X201838616Y-105053469D03*
X201838605Y-107553468D03*
%TD*%
D24*
%TO.C,REF\u002A\u002A*%
X168981278Y-60817946D03*
X166981278Y-60817942D03*
%TD*%
M02*
