%TF.GenerationSoftware,KiCad,Pcbnew,8.0.6-1.fc41*%
%TF.CreationDate,2024-12-09T10:01:17+11:00*%
%TF.ProjectId,pueo-mx-spaced,7075656f-2d6d-4782-9d73-70616365642e,0.1*%
%TF.SameCoordinates,Original*%
%TF.FileFunction,Drillmap*%
%TF.FilePolarity,Positive*%
%FSLAX45Y45*%
G04 Gerber Fmt 4.5, Leading zero omitted, Abs format (unit mm)*
G04 Created by KiCad (PCBNEW 8.0.6-1.fc41) date 2024-12-09 10:01:17*
%MOMM*%
%LPD*%
G01*
G04 APERTURE LIST*
%ADD10C,0.150000*%
%ADD11C,0.200000*%
%ADD12C,0.100000*%
%ADD13C,0.109000*%
%ADD14C,0.109220*%
%ADD15C,0.120000*%
%ADD16C,0.220000*%
G04 APERTURE END LIST*
D10*
X12739162Y-5250846D02*
G75*
G02*
X12789162Y-5200852I49998J-4D01*
G01*
X20593719Y-12017270D02*
X20367061Y-11934773D01*
X12739162Y-5525847D02*
G75*
G02*
X12689162Y-5575852I-50002J-3D01*
G01*
X20334162Y-11887789D02*
X20334162Y-5625847D01*
X10311662Y-5625847D02*
G75*
G02*
X10361662Y-5575852I49998J-3D01*
G01*
X20076371Y-13584864D02*
G75*
G02*
X20012285Y-13614746I-46981J17094D01*
G01*
X14489162Y-5575847D02*
G75*
G02*
X14439163Y-5525847I8J50007D01*
G01*
X17713535Y-12292948D02*
X17574721Y-12674338D01*
X20284162Y-5575847D02*
G75*
G02*
X20334163Y-5625847I8J-49993D01*
G01*
X14389162Y-5200847D02*
X12789162Y-5200847D01*
X12689162Y-5575847D02*
X10361662Y-5575847D01*
X10311662Y-11453692D02*
X10311662Y-12175847D01*
X14439162Y-5525847D02*
X14439162Y-5250847D01*
X17604605Y-12738423D02*
G75*
G02*
X17574719Y-12674337I17096J46983D01*
G01*
X20076371Y-13584864D02*
X20623603Y-12081356D01*
X17604605Y-12738423D02*
X20012285Y-13614747D01*
X20284162Y-5575847D02*
X14489162Y-5575847D01*
X17666551Y-12225847D02*
G75*
G02*
X17713535Y-12292948I9J-49993D01*
G01*
X10361662Y-12225847D02*
X17666551Y-12225847D01*
X10311662Y-5625847D02*
X10311662Y-11453692D01*
X10361662Y-12225847D02*
G75*
G02*
X10311663Y-12175847I8J50007D01*
G01*
X20593719Y-12017270D02*
G75*
G02*
X20623610Y-12081359I-17099J-46990D01*
G01*
X20367061Y-11934773D02*
G75*
G02*
X20334168Y-11887789I17109J46984D01*
G01*
X14389162Y-5200847D02*
G75*
G02*
X14439163Y-5250847I8J-49993D01*
G01*
X12739162Y-5250846D02*
X12739162Y-5525847D01*
D11*
D12*
X16538955Y-6061794D02*
X16578955Y-6101794D01*
X16578955Y-6061794D02*
X16538955Y-6101794D01*
X16540329Y-6320449D02*
X16580329Y-6360449D01*
X16580329Y-6320449D02*
X16540329Y-6360449D01*
X16545299Y-5805449D02*
X16585299Y-5845449D01*
X16585299Y-5805449D02*
X16545299Y-5845449D01*
X19140000Y-6000000D02*
X19180000Y-6040000D01*
X19180000Y-6000000D02*
X19140000Y-6040000D01*
X19280000Y-6260000D02*
X19320000Y-6300000D01*
X19320000Y-6260000D02*
X19280000Y-6300000D01*
X20165770Y-9504847D02*
G75*
G02*
X20090770Y-9504847I-37500J0D01*
G01*
X20090770Y-9504847D02*
G75*
G02*
X20165770Y-9504847I37500J0D01*
G01*
X20165770Y-9304847D02*
G75*
G02*
X20090770Y-9304847I-37500J0D01*
G01*
X20090770Y-9304847D02*
G75*
G02*
X20165770Y-9304847I37500J0D01*
G01*
X19863860Y-10465347D02*
X19863860Y-10545347D01*
X19823860Y-10505347D02*
X19903860Y-10505347D01*
X19863861Y-10215347D02*
X19863861Y-10295347D01*
X19823861Y-10255347D02*
X19903861Y-10255347D01*
X19863862Y-10715347D02*
X19863862Y-10795347D01*
X19823862Y-10755347D02*
X19903862Y-10755347D01*
X20183861Y-10715347D02*
X20183861Y-10795347D01*
X20143861Y-10755347D02*
X20223861Y-10755347D01*
X20183862Y-10465347D02*
X20183862Y-10545347D01*
X20143862Y-10505347D02*
X20223862Y-10505347D01*
X20183862Y-10215346D02*
X20183862Y-10295346D01*
X20143862Y-10255346D02*
X20223862Y-10255346D01*
X10972407Y-6138497D02*
X10972407Y-6067785D01*
X10901696Y-6067785D01*
X10901696Y-6138497D01*
X10972407Y-6138497D01*
X11071845Y-8035893D02*
X11071845Y-7965181D01*
X11001134Y-7965181D01*
X11001134Y-8035893D01*
X11071845Y-8035893D01*
X11171284Y-9933289D02*
X11171284Y-9862577D01*
X11100573Y-9862577D01*
X11100573Y-9933289D01*
X11171284Y-9933289D01*
X11971037Y-6086161D02*
X11971037Y-6015449D01*
X11900325Y-6015449D01*
X11900325Y-6086161D01*
X11971037Y-6086161D01*
X12070475Y-7983557D02*
X12070475Y-7912845D01*
X11999763Y-7912845D01*
X11999763Y-7983557D01*
X12070475Y-7983557D01*
X12169913Y-9880953D02*
X12169913Y-9810241D01*
X12099202Y-9810241D01*
X12099202Y-9880953D01*
X12169913Y-9880953D01*
X13124517Y-7431202D02*
X13124517Y-7360491D01*
X13053806Y-7360491D01*
X13053806Y-7431202D01*
X13124517Y-7431202D01*
X13124517Y-9331203D02*
X13124517Y-9260492D01*
X13053806Y-9260492D01*
X13053806Y-9331203D01*
X13124517Y-9331203D01*
X13124517Y-5531203D02*
X13124517Y-5460491D01*
X13053806Y-5460491D01*
X13053806Y-5531203D01*
X13124517Y-5531203D01*
X14124517Y-7431202D02*
X14124517Y-7360491D01*
X14053806Y-7360491D01*
X14053806Y-7431202D01*
X14124517Y-7431202D01*
X14124517Y-9331203D02*
X14124517Y-9260491D01*
X14053806Y-9260491D01*
X14053806Y-9331203D01*
X14124517Y-9331203D01*
X14124517Y-5531202D02*
X14124517Y-5460491D01*
X14053806Y-5460491D01*
X14053806Y-5531202D01*
X14124517Y-5531202D01*
X15024517Y-9806203D02*
X15024517Y-9735491D01*
X14953806Y-9735491D01*
X14953806Y-9806203D01*
X15024517Y-9806203D01*
X15024517Y-6006203D02*
X15024517Y-5935491D01*
X14953806Y-5935491D01*
X14953806Y-6006203D01*
X15024517Y-6006203D01*
X15024517Y-7906203D02*
X15024517Y-7835491D01*
X14953806Y-7835491D01*
X14953806Y-7906203D01*
X15024517Y-7906203D01*
X16024517Y-9806202D02*
X16024517Y-9735491D01*
X15953806Y-9735491D01*
X15953806Y-9806202D01*
X16024517Y-9806202D01*
X16024517Y-6006202D02*
X16024517Y-5935491D01*
X15953806Y-5935491D01*
X15953806Y-6006202D01*
X16024517Y-6006202D01*
X16024518Y-7906202D02*
X16024518Y-7835491D01*
X15953806Y-7835491D01*
X15953806Y-7906202D01*
X16024518Y-7906202D01*
X16924517Y-8856202D02*
X16924517Y-8785491D01*
X16853806Y-8785491D01*
X16853806Y-8856202D01*
X16924517Y-8856202D01*
X16924517Y-6956203D02*
X16924517Y-6885491D01*
X16853806Y-6885491D01*
X16853806Y-6956203D01*
X16924517Y-6956203D01*
X17924517Y-8856202D02*
X17924517Y-8785491D01*
X17853806Y-8785491D01*
X17853806Y-8856202D01*
X17924517Y-8856202D01*
X17924518Y-6956202D02*
X17924518Y-6885491D01*
X17853806Y-6885491D01*
X17853806Y-6956202D01*
X17924518Y-6956202D01*
X18854492Y-11720663D02*
X18854492Y-11649951D01*
X18783781Y-11649951D01*
X18783781Y-11720663D01*
X18854492Y-11720663D01*
X19794185Y-12062683D02*
X19794185Y-11991972D01*
X19723473Y-11991972D01*
X19723473Y-12062683D01*
X19794185Y-12062683D01*
D13*
X17216814Y-5882294D02*
X17271314Y-5827794D01*
X17216814Y-5773294D01*
X17162314Y-5827794D01*
X17216814Y-5882294D01*
X17216814Y-6390294D02*
X17271314Y-6335794D01*
X17216814Y-6281294D01*
X17162314Y-6335794D01*
X17216814Y-6390294D01*
X17724814Y-5882294D02*
X17779314Y-5827794D01*
X17724814Y-5773294D01*
X17670314Y-5827794D01*
X17724814Y-5882294D01*
X17724814Y-6390294D02*
X17779314Y-6335794D01*
X17724814Y-6281294D01*
X17670314Y-6335794D01*
X17724814Y-6390294D01*
D14*
X18472552Y-5959237D02*
X18581772Y-6068457D01*
X18581772Y-5959237D02*
X18472552Y-6068457D01*
X18581772Y-6013847D02*
G75*
G02*
X18472552Y-6013847I-54610J0D01*
G01*
X18472552Y-6013847D02*
G75*
G02*
X18581772Y-6013847I54610J0D01*
G01*
X18472552Y-6213237D02*
X18581772Y-6322457D01*
X18581772Y-6213237D02*
X18472552Y-6322457D01*
X18581772Y-6267847D02*
G75*
G02*
X18472552Y-6267847I-54610J0D01*
G01*
X18472552Y-6267847D02*
G75*
G02*
X18581772Y-6267847I54610J0D01*
G01*
X18472552Y-7483237D02*
X18581772Y-7592457D01*
X18581772Y-7483237D02*
X18472552Y-7592457D01*
X18581772Y-7537847D02*
G75*
G02*
X18472552Y-7537847I-54610J0D01*
G01*
X18472552Y-7537847D02*
G75*
G02*
X18581772Y-7537847I54610J0D01*
G01*
X18472552Y-8499237D02*
X18581772Y-8608457D01*
X18581772Y-8499237D02*
X18472552Y-8608457D01*
X18581772Y-8553847D02*
G75*
G02*
X18472552Y-8553847I-54610J0D01*
G01*
X18472552Y-8553847D02*
G75*
G02*
X18581772Y-8553847I54610J0D01*
G01*
X18472552Y-6975237D02*
X18581772Y-7084457D01*
X18581772Y-6975237D02*
X18472552Y-7084457D01*
X18581772Y-7029847D02*
G75*
G02*
X18472552Y-7029847I-54610J0D01*
G01*
X18472552Y-7029847D02*
G75*
G02*
X18581772Y-7029847I54610J0D01*
G01*
X18472552Y-7229237D02*
X18581772Y-7338457D01*
X18581772Y-7229237D02*
X18472552Y-7338457D01*
X18581772Y-7283847D02*
G75*
G02*
X18472552Y-7283847I-54610J0D01*
G01*
X18472552Y-7283847D02*
G75*
G02*
X18581772Y-7283847I54610J0D01*
G01*
X18472552Y-7737237D02*
X18581772Y-7846457D01*
X18581772Y-7737237D02*
X18472552Y-7846457D01*
X18581772Y-7791847D02*
G75*
G02*
X18472552Y-7791847I-54610J0D01*
G01*
X18472552Y-7791847D02*
G75*
G02*
X18581772Y-7791847I54610J0D01*
G01*
X18472552Y-7991237D02*
X18581772Y-8100457D01*
X18581772Y-7991237D02*
X18472552Y-8100457D01*
X18581772Y-8045847D02*
G75*
G02*
X18472552Y-8045847I-54610J0D01*
G01*
X18472552Y-8045847D02*
G75*
G02*
X18581772Y-8045847I54610J0D01*
G01*
X18472552Y-8245237D02*
X18581772Y-8354457D01*
X18581772Y-8245237D02*
X18472552Y-8354457D01*
X18581772Y-8299847D02*
G75*
G02*
X18472552Y-8299847I-54610J0D01*
G01*
X18472552Y-8299847D02*
G75*
G02*
X18581772Y-8299847I54610J0D01*
G01*
X18472552Y-8753237D02*
X18581772Y-8862457D01*
X18581772Y-8753237D02*
X18472552Y-8862457D01*
X18581772Y-8807847D02*
G75*
G02*
X18472552Y-8807847I-54610J0D01*
G01*
X18472552Y-8807847D02*
G75*
G02*
X18581772Y-8807847I54610J0D01*
G01*
X18472552Y-6467237D02*
X18581772Y-6576457D01*
X18581772Y-6467237D02*
X18472552Y-6576457D01*
X18581772Y-6521847D02*
G75*
G02*
X18472552Y-6521847I-54610J0D01*
G01*
X18472552Y-6521847D02*
G75*
G02*
X18581772Y-6521847I54610J0D01*
G01*
X18472552Y-6721237D02*
X18581772Y-6830457D01*
X18581772Y-6721237D02*
X18472552Y-6830457D01*
X18581772Y-6775847D02*
G75*
G02*
X18472552Y-6775847I-54610J0D01*
G01*
X18472552Y-6775847D02*
G75*
G02*
X18581772Y-6775847I54610J0D01*
G01*
X19996552Y-7991237D02*
X20105772Y-8100457D01*
X20105772Y-7991237D02*
X19996552Y-8100457D01*
X20105772Y-8045847D02*
G75*
G02*
X19996552Y-8045847I-54610J0D01*
G01*
X19996552Y-8045847D02*
G75*
G02*
X20105772Y-8045847I54610J0D01*
G01*
X19996552Y-8245237D02*
X20105772Y-8354457D01*
X20105772Y-8245237D02*
X19996552Y-8354457D01*
X20105772Y-8299847D02*
G75*
G02*
X19996552Y-8299847I-54610J0D01*
G01*
X19996552Y-8299847D02*
G75*
G02*
X20105772Y-8299847I54610J0D01*
G01*
X19996552Y-5959237D02*
X20105772Y-6068457D01*
X20105772Y-5959237D02*
X19996552Y-6068457D01*
X20105772Y-6013847D02*
G75*
G02*
X19996552Y-6013847I-54610J0D01*
G01*
X19996552Y-6013847D02*
G75*
G02*
X20105772Y-6013847I54610J0D01*
G01*
X19996552Y-6467237D02*
X20105772Y-6576457D01*
X20105772Y-6467237D02*
X19996552Y-6576457D01*
X20105772Y-6521847D02*
G75*
G02*
X19996552Y-6521847I-54610J0D01*
G01*
X19996552Y-6521847D02*
G75*
G02*
X20105772Y-6521847I54610J0D01*
G01*
X19996552Y-6721237D02*
X20105772Y-6830457D01*
X20105772Y-6721237D02*
X19996552Y-6830457D01*
X20105772Y-6775847D02*
G75*
G02*
X19996552Y-6775847I-54610J0D01*
G01*
X19996552Y-6775847D02*
G75*
G02*
X20105772Y-6775847I54610J0D01*
G01*
X19996552Y-6975237D02*
X20105772Y-7084457D01*
X20105772Y-6975237D02*
X19996552Y-7084457D01*
X20105772Y-7029847D02*
G75*
G02*
X19996552Y-7029847I-54610J0D01*
G01*
X19996552Y-7029847D02*
G75*
G02*
X20105772Y-7029847I54610J0D01*
G01*
X19996552Y-7483237D02*
X20105772Y-7592457D01*
X20105772Y-7483237D02*
X19996552Y-7592457D01*
X20105772Y-7537847D02*
G75*
G02*
X19996552Y-7537847I-54610J0D01*
G01*
X19996552Y-7537847D02*
G75*
G02*
X20105772Y-7537847I54610J0D01*
G01*
X19996552Y-7737237D02*
X20105772Y-7846457D01*
X20105772Y-7737237D02*
X19996552Y-7846457D01*
X20105772Y-7791847D02*
G75*
G02*
X19996552Y-7791847I-54610J0D01*
G01*
X19996552Y-7791847D02*
G75*
G02*
X20105772Y-7791847I54610J0D01*
G01*
X19996552Y-6213237D02*
X20105772Y-6322457D01*
X20105772Y-6213237D02*
X19996552Y-6322457D01*
X20105772Y-6267847D02*
G75*
G02*
X19996552Y-6267847I-54610J0D01*
G01*
X19996552Y-6267847D02*
G75*
G02*
X20105772Y-6267847I54610J0D01*
G01*
X19996552Y-7229237D02*
X20105772Y-7338457D01*
X20105772Y-7229237D02*
X19996552Y-7338457D01*
X20105772Y-7283847D02*
G75*
G02*
X19996552Y-7283847I-54610J0D01*
G01*
X19996552Y-7283847D02*
G75*
G02*
X20105772Y-7283847I54610J0D01*
G01*
X19996552Y-8499237D02*
X20105772Y-8608457D01*
X20105772Y-8499237D02*
X19996552Y-8608457D01*
X20105772Y-8553847D02*
G75*
G02*
X19996552Y-8553847I-54610J0D01*
G01*
X19996552Y-8553847D02*
G75*
G02*
X20105772Y-8553847I54610J0D01*
G01*
X19996552Y-8753237D02*
X20105772Y-8862457D01*
X20105772Y-8753237D02*
X19996552Y-8862457D01*
X20105772Y-8807847D02*
G75*
G02*
X19996552Y-8807847I-54610J0D01*
G01*
X19996552Y-8807847D02*
G75*
G02*
X20105772Y-8807847I54610J0D01*
G01*
D15*
X10925985Y-6976860D02*
X11045985Y-7096860D01*
X11045985Y-6976860D02*
X10925985Y-7096860D01*
X10985985Y-6976860D02*
X10985985Y-7096860D01*
X10925985Y-7036860D02*
X11045985Y-7036860D01*
X11025424Y-8874256D02*
X11145424Y-8994256D01*
X11145424Y-8874256D02*
X11025424Y-8994256D01*
X11085424Y-8874256D02*
X11085424Y-8994256D01*
X11025424Y-8934256D02*
X11145424Y-8934256D01*
X11124862Y-10771652D02*
X11244862Y-10891652D01*
X11244862Y-10771652D02*
X11124862Y-10891652D01*
X11184862Y-10771652D02*
X11184862Y-10891652D01*
X11124862Y-10831652D02*
X11244862Y-10831652D01*
X11436291Y-7160404D02*
X11556291Y-7280404D01*
X11556291Y-7160404D02*
X11436291Y-7280404D01*
X11496291Y-7160404D02*
X11496291Y-7280404D01*
X11436291Y-7220404D02*
X11556291Y-7220404D01*
X11535729Y-9057800D02*
X11655729Y-9177800D01*
X11655729Y-9057800D02*
X11535729Y-9177800D01*
X11595729Y-9057800D02*
X11595729Y-9177800D01*
X11535729Y-9117800D02*
X11655729Y-9117800D01*
X11635167Y-10955196D02*
X11755167Y-11075196D01*
X11755167Y-10955196D02*
X11635167Y-11075196D01*
X11695167Y-10955196D02*
X11695167Y-11075196D01*
X11635167Y-11015196D02*
X11755167Y-11015196D01*
X11924615Y-6924524D02*
X12044615Y-7044524D01*
X12044615Y-6924524D02*
X11924615Y-7044524D01*
X11984615Y-6924524D02*
X11984615Y-7044524D01*
X11924615Y-6984524D02*
X12044615Y-6984524D01*
X12024053Y-8821920D02*
X12144053Y-8941920D01*
X12144053Y-8821920D02*
X12024053Y-8941920D01*
X12084053Y-8821920D02*
X12084053Y-8941920D01*
X12024053Y-8881920D02*
X12144053Y-8881920D01*
X12123492Y-10719316D02*
X12243492Y-10839316D01*
X12243492Y-10719316D02*
X12123492Y-10839316D01*
X12183492Y-10719316D02*
X12183492Y-10839316D01*
X12123492Y-10779316D02*
X12243492Y-10779316D01*
X13029161Y-8270847D02*
X13149161Y-8390847D01*
X13149161Y-8270847D02*
X13029161Y-8390847D01*
X13089161Y-8270847D02*
X13089161Y-8390847D01*
X13029161Y-8330847D02*
X13149161Y-8330847D01*
X13029162Y-10170847D02*
X13149162Y-10290847D01*
X13149162Y-10170847D02*
X13029162Y-10290847D01*
X13089162Y-10170847D02*
X13089162Y-10290847D01*
X13029162Y-10230847D02*
X13149162Y-10230847D01*
X13029162Y-6370847D02*
X13149162Y-6490847D01*
X13149162Y-6370847D02*
X13029162Y-6490847D01*
X13089162Y-6370847D02*
X13089162Y-6490847D01*
X13029162Y-6430847D02*
X13149162Y-6430847D01*
X13529161Y-8480847D02*
X13649161Y-8600847D01*
X13649161Y-8480847D02*
X13529161Y-8600847D01*
X13589161Y-8480847D02*
X13589161Y-8600847D01*
X13529161Y-8540847D02*
X13649161Y-8540847D01*
X13529162Y-10380847D02*
X13649162Y-10500847D01*
X13649162Y-10380847D02*
X13529162Y-10500847D01*
X13589162Y-10380847D02*
X13589162Y-10500847D01*
X13529162Y-10440847D02*
X13649162Y-10440847D01*
X13529162Y-6580847D02*
X13649162Y-6700847D01*
X13649162Y-6580847D02*
X13529162Y-6700847D01*
X13589162Y-6580847D02*
X13589162Y-6700847D01*
X13529162Y-6640847D02*
X13649162Y-6640847D01*
X14029161Y-8270847D02*
X14149161Y-8390847D01*
X14149161Y-8270847D02*
X14029161Y-8390847D01*
X14089161Y-8270847D02*
X14089161Y-8390847D01*
X14029161Y-8330847D02*
X14149161Y-8330847D01*
X14029162Y-10170847D02*
X14149162Y-10290847D01*
X14149162Y-10170847D02*
X14029162Y-10290847D01*
X14089162Y-10170847D02*
X14089162Y-10290847D01*
X14029162Y-10230847D02*
X14149162Y-10230847D01*
X14029162Y-6370847D02*
X14149162Y-6490847D01*
X14149162Y-6370847D02*
X14029162Y-6490847D01*
X14089162Y-6370847D02*
X14089162Y-6490847D01*
X14029162Y-6430847D02*
X14149162Y-6430847D01*
X14929162Y-10645847D02*
X15049162Y-10765847D01*
X15049162Y-10645847D02*
X14929162Y-10765847D01*
X14989162Y-10645847D02*
X14989162Y-10765847D01*
X14929162Y-10705847D02*
X15049162Y-10705847D01*
X14929162Y-6845847D02*
X15049162Y-6965847D01*
X15049162Y-6845847D02*
X14929162Y-6965847D01*
X14989162Y-6845847D02*
X14989162Y-6965847D01*
X14929162Y-6905847D02*
X15049162Y-6905847D01*
X14929162Y-8745847D02*
X15049162Y-8865847D01*
X15049162Y-8745847D02*
X14929162Y-8865847D01*
X14989162Y-8745847D02*
X14989162Y-8865847D01*
X14929162Y-8805847D02*
X15049162Y-8805847D01*
X15429162Y-10855847D02*
X15549162Y-10975847D01*
X15549162Y-10855847D02*
X15429162Y-10975847D01*
X15489162Y-10855847D02*
X15489162Y-10975847D01*
X15429162Y-10915847D02*
X15549162Y-10915847D01*
X15429162Y-7055847D02*
X15549162Y-7175847D01*
X15549162Y-7055847D02*
X15429162Y-7175847D01*
X15489162Y-7055847D02*
X15489162Y-7175847D01*
X15429162Y-7115847D02*
X15549162Y-7115847D01*
X15429162Y-8955847D02*
X15549162Y-9075847D01*
X15549162Y-8955847D02*
X15429162Y-9075847D01*
X15489162Y-8955847D02*
X15489162Y-9075847D01*
X15429162Y-9015847D02*
X15549162Y-9015847D01*
X15929162Y-10645847D02*
X16049162Y-10765847D01*
X16049162Y-10645847D02*
X15929162Y-10765847D01*
X15989162Y-10645847D02*
X15989162Y-10765847D01*
X15929162Y-10705847D02*
X16049162Y-10705847D01*
X15929162Y-6845847D02*
X16049162Y-6965847D01*
X16049162Y-6845847D02*
X15929162Y-6965847D01*
X15989162Y-6845847D02*
X15989162Y-6965847D01*
X15929162Y-6905847D02*
X16049162Y-6905847D01*
X15929162Y-8745847D02*
X16049162Y-8865847D01*
X16049162Y-8745847D02*
X15929162Y-8865847D01*
X15989162Y-8745847D02*
X15989162Y-8865847D01*
X15929162Y-8805847D02*
X16049162Y-8805847D01*
X16829162Y-9695847D02*
X16949162Y-9815847D01*
X16949162Y-9695847D02*
X16829162Y-9815847D01*
X16889162Y-9695847D02*
X16889162Y-9815847D01*
X16829162Y-9755847D02*
X16949162Y-9755847D01*
X16829162Y-7795847D02*
X16949162Y-7915847D01*
X16949162Y-7795847D02*
X16829162Y-7915847D01*
X16889162Y-7795847D02*
X16889162Y-7915847D01*
X16829162Y-7855847D02*
X16949162Y-7855847D01*
X17329162Y-9905847D02*
X17449162Y-10025847D01*
X17449162Y-9905847D02*
X17329162Y-10025847D01*
X17389162Y-9905847D02*
X17389162Y-10025847D01*
X17329162Y-9965847D02*
X17449162Y-9965847D01*
X17329162Y-8005847D02*
X17449162Y-8125847D01*
X17449162Y-8005847D02*
X17329162Y-8125847D01*
X17389162Y-8005847D02*
X17389162Y-8125847D01*
X17329162Y-8065847D02*
X17449162Y-8065847D01*
X17829162Y-9695847D02*
X17949162Y-9815847D01*
X17949162Y-9695847D02*
X17829162Y-9815847D01*
X17889162Y-9695847D02*
X17889162Y-9815847D01*
X17829162Y-9755847D02*
X17949162Y-9755847D01*
X17829162Y-7795847D02*
X17949162Y-7915847D01*
X17949162Y-7795847D02*
X17829162Y-7915847D01*
X17889162Y-7795847D02*
X17889162Y-7915847D01*
X17829162Y-7855847D02*
X17949162Y-7855847D01*
X18439348Y-12503920D02*
X18559348Y-12623920D01*
X18559348Y-12503920D02*
X18439348Y-12623920D01*
X18499348Y-12503920D02*
X18499348Y-12623920D01*
X18439348Y-12563920D02*
X18559348Y-12563920D01*
X18837370Y-12872265D02*
X18957370Y-12992265D01*
X18957370Y-12872265D02*
X18837370Y-12992265D01*
X18897370Y-12872265D02*
X18897370Y-12992265D01*
X18837370Y-12932265D02*
X18957370Y-12932265D01*
X19379040Y-12845940D02*
X19499040Y-12965940D01*
X19499040Y-12845940D02*
X19379040Y-12965940D01*
X19439040Y-12845940D02*
X19439040Y-12965940D01*
X19379040Y-12905940D02*
X19499040Y-12905940D01*
D16*
X10830283Y-11644182D02*
X11050283Y-11864182D01*
X11050283Y-11644182D02*
X10830283Y-11864182D01*
X11018066Y-11831964D02*
X11018066Y-11676399D01*
X10862501Y-11676399D01*
X10862501Y-11831964D01*
X11018066Y-11831964D01*
X12433932Y-6451308D02*
X12653932Y-6671308D01*
X12653932Y-6451308D02*
X12433932Y-6671308D01*
X12621715Y-6639090D02*
X12621715Y-6483525D01*
X12466150Y-6483525D01*
X12466150Y-6639090D01*
X12621715Y-6639090D01*
X12507699Y-8702890D02*
X12727699Y-8922890D01*
X12727699Y-8702890D02*
X12507699Y-8922890D01*
X12695481Y-8890672D02*
X12695481Y-8735107D01*
X12539916Y-8735107D01*
X12539916Y-8890672D01*
X12695481Y-8890672D01*
X14379162Y-10640847D02*
X14599162Y-10860847D01*
X14599162Y-10640847D02*
X14379162Y-10860847D01*
X14566944Y-10828629D02*
X14566944Y-10673064D01*
X14411379Y-10673064D01*
X14411379Y-10828629D01*
X14566944Y-10828629D01*
X14379162Y-10640847D02*
X14599162Y-10860847D01*
X14599162Y-10640847D02*
X14379162Y-10860847D01*
X14566944Y-10828629D02*
X14566944Y-10673064D01*
X14411379Y-10673064D01*
X14411379Y-10828629D01*
X14566944Y-10828629D01*
X14445655Y-6831427D02*
X14665655Y-7051427D01*
X14665655Y-6831427D02*
X14445655Y-7051427D01*
X14633438Y-7019209D02*
X14633438Y-6863644D01*
X14477873Y-6863644D01*
X14477873Y-7019209D01*
X14633438Y-7019209D01*
X16317118Y-8769384D02*
X16537118Y-8989384D01*
X16537118Y-8769384D02*
X16317118Y-8989384D01*
X16504901Y-8957166D02*
X16504901Y-8801601D01*
X16349336Y-8801601D01*
X16349336Y-8957166D01*
X16504901Y-8957166D01*
X18039162Y-5965847D02*
X18259162Y-6185847D01*
X18259162Y-5965847D02*
X18039162Y-6185847D01*
X18226944Y-6153629D02*
X18226944Y-5998064D01*
X18071379Y-5998064D01*
X18071379Y-6153629D01*
X18226944Y-6153629D01*
X19917447Y-11164216D02*
X20137447Y-11384216D01*
X20137447Y-11164216D02*
X19917447Y-11384216D01*
X20105230Y-11351999D02*
X20105230Y-11196434D01*
X19949665Y-11196434D01*
X19949665Y-11351999D01*
X20105230Y-11351999D01*
X19917447Y-11164216D02*
X20137447Y-11384216D01*
X20137447Y-11164216D02*
X19917447Y-11384216D01*
X20105230Y-11351999D02*
X20105230Y-11196434D01*
X19949665Y-11196434D01*
X19949665Y-11351999D01*
X20105230Y-11351999D01*
D11*
X10564939Y-13936747D02*
X10564939Y-13736747D01*
X10564939Y-13736747D02*
X10612558Y-13736747D01*
X10612558Y-13736747D02*
X10641129Y-13746271D01*
X10641129Y-13746271D02*
X10660177Y-13765319D01*
X10660177Y-13765319D02*
X10669700Y-13784366D01*
X10669700Y-13784366D02*
X10679224Y-13822462D01*
X10679224Y-13822462D02*
X10679224Y-13851033D01*
X10679224Y-13851033D02*
X10669700Y-13889128D01*
X10669700Y-13889128D02*
X10660177Y-13908176D01*
X10660177Y-13908176D02*
X10641129Y-13927224D01*
X10641129Y-13927224D02*
X10612558Y-13936747D01*
X10612558Y-13936747D02*
X10564939Y-13936747D01*
X10764939Y-13936747D02*
X10764939Y-13803414D01*
X10764939Y-13841509D02*
X10774462Y-13822462D01*
X10774462Y-13822462D02*
X10783986Y-13812938D01*
X10783986Y-13812938D02*
X10803034Y-13803414D01*
X10803034Y-13803414D02*
X10822081Y-13803414D01*
X10888748Y-13936747D02*
X10888748Y-13803414D01*
X10888748Y-13736747D02*
X10879224Y-13746271D01*
X10879224Y-13746271D02*
X10888748Y-13755795D01*
X10888748Y-13755795D02*
X10898272Y-13746271D01*
X10898272Y-13746271D02*
X10888748Y-13736747D01*
X10888748Y-13736747D02*
X10888748Y-13755795D01*
X11012558Y-13936747D02*
X10993510Y-13927224D01*
X10993510Y-13927224D02*
X10983986Y-13908176D01*
X10983986Y-13908176D02*
X10983986Y-13736747D01*
X11117319Y-13936747D02*
X11098272Y-13927224D01*
X11098272Y-13927224D02*
X11088748Y-13908176D01*
X11088748Y-13908176D02*
X11088748Y-13736747D01*
X11345891Y-13936747D02*
X11345891Y-13736747D01*
X11345891Y-13736747D02*
X11412558Y-13879605D01*
X11412558Y-13879605D02*
X11479224Y-13736747D01*
X11479224Y-13736747D02*
X11479224Y-13936747D01*
X11660177Y-13936747D02*
X11660177Y-13831986D01*
X11660177Y-13831986D02*
X11650653Y-13812938D01*
X11650653Y-13812938D02*
X11631605Y-13803414D01*
X11631605Y-13803414D02*
X11593510Y-13803414D01*
X11593510Y-13803414D02*
X11574462Y-13812938D01*
X11660177Y-13927224D02*
X11641129Y-13936747D01*
X11641129Y-13936747D02*
X11593510Y-13936747D01*
X11593510Y-13936747D02*
X11574462Y-13927224D01*
X11574462Y-13927224D02*
X11564938Y-13908176D01*
X11564938Y-13908176D02*
X11564938Y-13889128D01*
X11564938Y-13889128D02*
X11574462Y-13870081D01*
X11574462Y-13870081D02*
X11593510Y-13860557D01*
X11593510Y-13860557D02*
X11641129Y-13860557D01*
X11641129Y-13860557D02*
X11660177Y-13851033D01*
X11755415Y-13803414D02*
X11755415Y-14003414D01*
X11755415Y-13812938D02*
X11774462Y-13803414D01*
X11774462Y-13803414D02*
X11812558Y-13803414D01*
X11812558Y-13803414D02*
X11831605Y-13812938D01*
X11831605Y-13812938D02*
X11841129Y-13822462D01*
X11841129Y-13822462D02*
X11850653Y-13841509D01*
X11850653Y-13841509D02*
X11850653Y-13898652D01*
X11850653Y-13898652D02*
X11841129Y-13917700D01*
X11841129Y-13917700D02*
X11831605Y-13927224D01*
X11831605Y-13927224D02*
X11812558Y-13936747D01*
X11812558Y-13936747D02*
X11774462Y-13936747D01*
X11774462Y-13936747D02*
X11755415Y-13927224D01*
X11936367Y-13917700D02*
X11945891Y-13927224D01*
X11945891Y-13927224D02*
X11936367Y-13936747D01*
X11936367Y-13936747D02*
X11926843Y-13927224D01*
X11926843Y-13927224D02*
X11936367Y-13917700D01*
X11936367Y-13917700D02*
X11936367Y-13936747D01*
X11936367Y-13812938D02*
X11945891Y-13822462D01*
X11945891Y-13822462D02*
X11936367Y-13831986D01*
X11936367Y-13831986D02*
X11926843Y-13822462D01*
X11926843Y-13822462D02*
X11936367Y-13812938D01*
X11936367Y-13812938D02*
X11936367Y-13831986D01*
D12*
X10264162Y-14245264D02*
X10304162Y-14285264D01*
X10304162Y-14245264D02*
X10264162Y-14285264D01*
D11*
X10603034Y-14156747D02*
X10622081Y-14156747D01*
X10622081Y-14156747D02*
X10641129Y-14166271D01*
X10641129Y-14166271D02*
X10650653Y-14175795D01*
X10650653Y-14175795D02*
X10660177Y-14194843D01*
X10660177Y-14194843D02*
X10669700Y-14232938D01*
X10669700Y-14232938D02*
X10669700Y-14280557D01*
X10669700Y-14280557D02*
X10660177Y-14318652D01*
X10660177Y-14318652D02*
X10650653Y-14337700D01*
X10650653Y-14337700D02*
X10641129Y-14347224D01*
X10641129Y-14347224D02*
X10622081Y-14356747D01*
X10622081Y-14356747D02*
X10603034Y-14356747D01*
X10603034Y-14356747D02*
X10583986Y-14347224D01*
X10583986Y-14347224D02*
X10574462Y-14337700D01*
X10574462Y-14337700D02*
X10564939Y-14318652D01*
X10564939Y-14318652D02*
X10555415Y-14280557D01*
X10555415Y-14280557D02*
X10555415Y-14232938D01*
X10555415Y-14232938D02*
X10564939Y-14194843D01*
X10564939Y-14194843D02*
X10574462Y-14175795D01*
X10574462Y-14175795D02*
X10583986Y-14166271D01*
X10583986Y-14166271D02*
X10603034Y-14156747D01*
X10755415Y-14337700D02*
X10764939Y-14347224D01*
X10764939Y-14347224D02*
X10755415Y-14356747D01*
X10755415Y-14356747D02*
X10745891Y-14347224D01*
X10745891Y-14347224D02*
X10755415Y-14337700D01*
X10755415Y-14337700D02*
X10755415Y-14356747D01*
X10936367Y-14223414D02*
X10936367Y-14356747D01*
X10888748Y-14147224D02*
X10841129Y-14290081D01*
X10841129Y-14290081D02*
X10964939Y-14290081D01*
X11079224Y-14156747D02*
X11098272Y-14156747D01*
X11098272Y-14156747D02*
X11117320Y-14166271D01*
X11117320Y-14166271D02*
X11126843Y-14175795D01*
X11126843Y-14175795D02*
X11136367Y-14194843D01*
X11136367Y-14194843D02*
X11145891Y-14232938D01*
X11145891Y-14232938D02*
X11145891Y-14280557D01*
X11145891Y-14280557D02*
X11136367Y-14318652D01*
X11136367Y-14318652D02*
X11126843Y-14337700D01*
X11126843Y-14337700D02*
X11117320Y-14347224D01*
X11117320Y-14347224D02*
X11098272Y-14356747D01*
X11098272Y-14356747D02*
X11079224Y-14356747D01*
X11079224Y-14356747D02*
X11060177Y-14347224D01*
X11060177Y-14347224D02*
X11050653Y-14337700D01*
X11050653Y-14337700D02*
X11041129Y-14318652D01*
X11041129Y-14318652D02*
X11031605Y-14280557D01*
X11031605Y-14280557D02*
X11031605Y-14232938D01*
X11031605Y-14232938D02*
X11041129Y-14194843D01*
X11041129Y-14194843D02*
X11050653Y-14175795D01*
X11050653Y-14175795D02*
X11060177Y-14166271D01*
X11060177Y-14166271D02*
X11079224Y-14156747D01*
X11269700Y-14156747D02*
X11288748Y-14156747D01*
X11288748Y-14156747D02*
X11307796Y-14166271D01*
X11307796Y-14166271D02*
X11317319Y-14175795D01*
X11317319Y-14175795D02*
X11326843Y-14194843D01*
X11326843Y-14194843D02*
X11336367Y-14232938D01*
X11336367Y-14232938D02*
X11336367Y-14280557D01*
X11336367Y-14280557D02*
X11326843Y-14318652D01*
X11326843Y-14318652D02*
X11317319Y-14337700D01*
X11317319Y-14337700D02*
X11307796Y-14347224D01*
X11307796Y-14347224D02*
X11288748Y-14356747D01*
X11288748Y-14356747D02*
X11269700Y-14356747D01*
X11269700Y-14356747D02*
X11250653Y-14347224D01*
X11250653Y-14347224D02*
X11241129Y-14337700D01*
X11241129Y-14337700D02*
X11231605Y-14318652D01*
X11231605Y-14318652D02*
X11222081Y-14280557D01*
X11222081Y-14280557D02*
X11222081Y-14232938D01*
X11222081Y-14232938D02*
X11231605Y-14194843D01*
X11231605Y-14194843D02*
X11241129Y-14175795D01*
X11241129Y-14175795D02*
X11250653Y-14166271D01*
X11250653Y-14166271D02*
X11269700Y-14156747D01*
X11422081Y-14356747D02*
X11422081Y-14223414D01*
X11422081Y-14242462D02*
X11431605Y-14232938D01*
X11431605Y-14232938D02*
X11450653Y-14223414D01*
X11450653Y-14223414D02*
X11479224Y-14223414D01*
X11479224Y-14223414D02*
X11498272Y-14232938D01*
X11498272Y-14232938D02*
X11507796Y-14251986D01*
X11507796Y-14251986D02*
X11507796Y-14356747D01*
X11507796Y-14251986D02*
X11517319Y-14232938D01*
X11517319Y-14232938D02*
X11536367Y-14223414D01*
X11536367Y-14223414D02*
X11564938Y-14223414D01*
X11564938Y-14223414D02*
X11583986Y-14232938D01*
X11583986Y-14232938D02*
X11593510Y-14251986D01*
X11593510Y-14251986D02*
X11593510Y-14356747D01*
X11688748Y-14356747D02*
X11688748Y-14223414D01*
X11688748Y-14242462D02*
X11698272Y-14232938D01*
X11698272Y-14232938D02*
X11717319Y-14223414D01*
X11717319Y-14223414D02*
X11745891Y-14223414D01*
X11745891Y-14223414D02*
X11764939Y-14232938D01*
X11764939Y-14232938D02*
X11774462Y-14251986D01*
X11774462Y-14251986D02*
X11774462Y-14356747D01*
X11774462Y-14251986D02*
X11783986Y-14232938D01*
X11783986Y-14232938D02*
X11803034Y-14223414D01*
X11803034Y-14223414D02*
X11831605Y-14223414D01*
X11831605Y-14223414D02*
X11850653Y-14232938D01*
X11850653Y-14232938D02*
X11860177Y-14251986D01*
X11860177Y-14251986D02*
X11860177Y-14356747D01*
X12250653Y-14147224D02*
X12079224Y-14404366D01*
X12507796Y-14156747D02*
X12526843Y-14156747D01*
X12526843Y-14156747D02*
X12545891Y-14166271D01*
X12545891Y-14166271D02*
X12555415Y-14175795D01*
X12555415Y-14175795D02*
X12564939Y-14194843D01*
X12564939Y-14194843D02*
X12574462Y-14232938D01*
X12574462Y-14232938D02*
X12574462Y-14280557D01*
X12574462Y-14280557D02*
X12564939Y-14318652D01*
X12564939Y-14318652D02*
X12555415Y-14337700D01*
X12555415Y-14337700D02*
X12545891Y-14347224D01*
X12545891Y-14347224D02*
X12526843Y-14356747D01*
X12526843Y-14356747D02*
X12507796Y-14356747D01*
X12507796Y-14356747D02*
X12488748Y-14347224D01*
X12488748Y-14347224D02*
X12479224Y-14337700D01*
X12479224Y-14337700D02*
X12469701Y-14318652D01*
X12469701Y-14318652D02*
X12460177Y-14280557D01*
X12460177Y-14280557D02*
X12460177Y-14232938D01*
X12460177Y-14232938D02*
X12469701Y-14194843D01*
X12469701Y-14194843D02*
X12479224Y-14175795D01*
X12479224Y-14175795D02*
X12488748Y-14166271D01*
X12488748Y-14166271D02*
X12507796Y-14156747D01*
X12660177Y-14337700D02*
X12669701Y-14347224D01*
X12669701Y-14347224D02*
X12660177Y-14356747D01*
X12660177Y-14356747D02*
X12650653Y-14347224D01*
X12650653Y-14347224D02*
X12660177Y-14337700D01*
X12660177Y-14337700D02*
X12660177Y-14356747D01*
X12793510Y-14156747D02*
X12812558Y-14156747D01*
X12812558Y-14156747D02*
X12831605Y-14166271D01*
X12831605Y-14166271D02*
X12841129Y-14175795D01*
X12841129Y-14175795D02*
X12850653Y-14194843D01*
X12850653Y-14194843D02*
X12860177Y-14232938D01*
X12860177Y-14232938D02*
X12860177Y-14280557D01*
X12860177Y-14280557D02*
X12850653Y-14318652D01*
X12850653Y-14318652D02*
X12841129Y-14337700D01*
X12841129Y-14337700D02*
X12831605Y-14347224D01*
X12831605Y-14347224D02*
X12812558Y-14356747D01*
X12812558Y-14356747D02*
X12793510Y-14356747D01*
X12793510Y-14356747D02*
X12774462Y-14347224D01*
X12774462Y-14347224D02*
X12764939Y-14337700D01*
X12764939Y-14337700D02*
X12755415Y-14318652D01*
X12755415Y-14318652D02*
X12745891Y-14280557D01*
X12745891Y-14280557D02*
X12745891Y-14232938D01*
X12745891Y-14232938D02*
X12755415Y-14194843D01*
X12755415Y-14194843D02*
X12764939Y-14175795D01*
X12764939Y-14175795D02*
X12774462Y-14166271D01*
X12774462Y-14166271D02*
X12793510Y-14156747D01*
X13050653Y-14356747D02*
X12936367Y-14356747D01*
X12993510Y-14356747D02*
X12993510Y-14156747D01*
X12993510Y-14156747D02*
X12974462Y-14185319D01*
X12974462Y-14185319D02*
X12955415Y-14204366D01*
X12955415Y-14204366D02*
X12936367Y-14213890D01*
X13231605Y-14156747D02*
X13136367Y-14156747D01*
X13136367Y-14156747D02*
X13126843Y-14251986D01*
X13126843Y-14251986D02*
X13136367Y-14242462D01*
X13136367Y-14242462D02*
X13155415Y-14232938D01*
X13155415Y-14232938D02*
X13203034Y-14232938D01*
X13203034Y-14232938D02*
X13222082Y-14242462D01*
X13222082Y-14242462D02*
X13231605Y-14251986D01*
X13231605Y-14251986D02*
X13241129Y-14271033D01*
X13241129Y-14271033D02*
X13241129Y-14318652D01*
X13241129Y-14318652D02*
X13231605Y-14337700D01*
X13231605Y-14337700D02*
X13222082Y-14347224D01*
X13222082Y-14347224D02*
X13203034Y-14356747D01*
X13203034Y-14356747D02*
X13155415Y-14356747D01*
X13155415Y-14356747D02*
X13136367Y-14347224D01*
X13136367Y-14347224D02*
X13126843Y-14337700D01*
X13307796Y-14156747D02*
X13441129Y-14156747D01*
X13441129Y-14156747D02*
X13355415Y-14356747D01*
X13507796Y-14156747D02*
X13507796Y-14194843D01*
X13583986Y-14156747D02*
X13583986Y-14194843D01*
X13879225Y-14432938D02*
X13869701Y-14423414D01*
X13869701Y-14423414D02*
X13850653Y-14394843D01*
X13850653Y-14394843D02*
X13841129Y-14375795D01*
X13841129Y-14375795D02*
X13831605Y-14347224D01*
X13831605Y-14347224D02*
X13822082Y-14299605D01*
X13822082Y-14299605D02*
X13822082Y-14261509D01*
X13822082Y-14261509D02*
X13831605Y-14213890D01*
X13831605Y-14213890D02*
X13841129Y-14185319D01*
X13841129Y-14185319D02*
X13850653Y-14166271D01*
X13850653Y-14166271D02*
X13869701Y-14137700D01*
X13869701Y-14137700D02*
X13879225Y-14128176D01*
X14050653Y-14156747D02*
X13955415Y-14156747D01*
X13955415Y-14156747D02*
X13945891Y-14251986D01*
X13945891Y-14251986D02*
X13955415Y-14242462D01*
X13955415Y-14242462D02*
X13974463Y-14232938D01*
X13974463Y-14232938D02*
X14022082Y-14232938D01*
X14022082Y-14232938D02*
X14041129Y-14242462D01*
X14041129Y-14242462D02*
X14050653Y-14251986D01*
X14050653Y-14251986D02*
X14060177Y-14271033D01*
X14060177Y-14271033D02*
X14060177Y-14318652D01*
X14060177Y-14318652D02*
X14050653Y-14337700D01*
X14050653Y-14337700D02*
X14041129Y-14347224D01*
X14041129Y-14347224D02*
X14022082Y-14356747D01*
X14022082Y-14356747D02*
X13974463Y-14356747D01*
X13974463Y-14356747D02*
X13955415Y-14347224D01*
X13955415Y-14347224D02*
X13945891Y-14337700D01*
X14298272Y-14356747D02*
X14298272Y-14156747D01*
X14383986Y-14356747D02*
X14383986Y-14251986D01*
X14383986Y-14251986D02*
X14374463Y-14232938D01*
X14374463Y-14232938D02*
X14355415Y-14223414D01*
X14355415Y-14223414D02*
X14326844Y-14223414D01*
X14326844Y-14223414D02*
X14307796Y-14232938D01*
X14307796Y-14232938D02*
X14298272Y-14242462D01*
X14507796Y-14356747D02*
X14488748Y-14347224D01*
X14488748Y-14347224D02*
X14479225Y-14337700D01*
X14479225Y-14337700D02*
X14469701Y-14318652D01*
X14469701Y-14318652D02*
X14469701Y-14261509D01*
X14469701Y-14261509D02*
X14479225Y-14242462D01*
X14479225Y-14242462D02*
X14488748Y-14232938D01*
X14488748Y-14232938D02*
X14507796Y-14223414D01*
X14507796Y-14223414D02*
X14536367Y-14223414D01*
X14536367Y-14223414D02*
X14555415Y-14232938D01*
X14555415Y-14232938D02*
X14564939Y-14242462D01*
X14564939Y-14242462D02*
X14574463Y-14261509D01*
X14574463Y-14261509D02*
X14574463Y-14318652D01*
X14574463Y-14318652D02*
X14564939Y-14337700D01*
X14564939Y-14337700D02*
X14555415Y-14347224D01*
X14555415Y-14347224D02*
X14536367Y-14356747D01*
X14536367Y-14356747D02*
X14507796Y-14356747D01*
X14688748Y-14356747D02*
X14669701Y-14347224D01*
X14669701Y-14347224D02*
X14660177Y-14328176D01*
X14660177Y-14328176D02*
X14660177Y-14156747D01*
X14841129Y-14347224D02*
X14822082Y-14356747D01*
X14822082Y-14356747D02*
X14783986Y-14356747D01*
X14783986Y-14356747D02*
X14764939Y-14347224D01*
X14764939Y-14347224D02*
X14755415Y-14328176D01*
X14755415Y-14328176D02*
X14755415Y-14251986D01*
X14755415Y-14251986D02*
X14764939Y-14232938D01*
X14764939Y-14232938D02*
X14783986Y-14223414D01*
X14783986Y-14223414D02*
X14822082Y-14223414D01*
X14822082Y-14223414D02*
X14841129Y-14232938D01*
X14841129Y-14232938D02*
X14850653Y-14251986D01*
X14850653Y-14251986D02*
X14850653Y-14271033D01*
X14850653Y-14271033D02*
X14755415Y-14290081D01*
X14926844Y-14347224D02*
X14945891Y-14356747D01*
X14945891Y-14356747D02*
X14983986Y-14356747D01*
X14983986Y-14356747D02*
X15003034Y-14347224D01*
X15003034Y-14347224D02*
X15012558Y-14328176D01*
X15012558Y-14328176D02*
X15012558Y-14318652D01*
X15012558Y-14318652D02*
X15003034Y-14299605D01*
X15003034Y-14299605D02*
X14983986Y-14290081D01*
X14983986Y-14290081D02*
X14955415Y-14290081D01*
X14955415Y-14290081D02*
X14936367Y-14280557D01*
X14936367Y-14280557D02*
X14926844Y-14261509D01*
X14926844Y-14261509D02*
X14926844Y-14251986D01*
X14926844Y-14251986D02*
X14936367Y-14232938D01*
X14936367Y-14232938D02*
X14955415Y-14223414D01*
X14955415Y-14223414D02*
X14983986Y-14223414D01*
X14983986Y-14223414D02*
X15003034Y-14232938D01*
X15079225Y-14432938D02*
X15088748Y-14423414D01*
X15088748Y-14423414D02*
X15107796Y-14394843D01*
X15107796Y-14394843D02*
X15117320Y-14375795D01*
X15117320Y-14375795D02*
X15126844Y-14347224D01*
X15126844Y-14347224D02*
X15136367Y-14299605D01*
X15136367Y-14299605D02*
X15136367Y-14261509D01*
X15136367Y-14261509D02*
X15126844Y-14213890D01*
X15126844Y-14213890D02*
X15117320Y-14185319D01*
X15117320Y-14185319D02*
X15107796Y-14166271D01*
X15107796Y-14166271D02*
X15088748Y-14137700D01*
X15088748Y-14137700D02*
X15079225Y-14128176D01*
D12*
X10304162Y-14529264D02*
G75*
G02*
X10229162Y-14529264I-37500J0D01*
G01*
X10229162Y-14529264D02*
G75*
G02*
X10304162Y-14529264I37500J0D01*
G01*
D11*
X10603034Y-14420747D02*
X10622081Y-14420747D01*
X10622081Y-14420747D02*
X10641129Y-14430271D01*
X10641129Y-14430271D02*
X10650653Y-14439795D01*
X10650653Y-14439795D02*
X10660177Y-14458843D01*
X10660177Y-14458843D02*
X10669700Y-14496938D01*
X10669700Y-14496938D02*
X10669700Y-14544557D01*
X10669700Y-14544557D02*
X10660177Y-14582652D01*
X10660177Y-14582652D02*
X10650653Y-14601700D01*
X10650653Y-14601700D02*
X10641129Y-14611224D01*
X10641129Y-14611224D02*
X10622081Y-14620747D01*
X10622081Y-14620747D02*
X10603034Y-14620747D01*
X10603034Y-14620747D02*
X10583986Y-14611224D01*
X10583986Y-14611224D02*
X10574462Y-14601700D01*
X10574462Y-14601700D02*
X10564939Y-14582652D01*
X10564939Y-14582652D02*
X10555415Y-14544557D01*
X10555415Y-14544557D02*
X10555415Y-14496938D01*
X10555415Y-14496938D02*
X10564939Y-14458843D01*
X10564939Y-14458843D02*
X10574462Y-14439795D01*
X10574462Y-14439795D02*
X10583986Y-14430271D01*
X10583986Y-14430271D02*
X10603034Y-14420747D01*
X10755415Y-14601700D02*
X10764939Y-14611224D01*
X10764939Y-14611224D02*
X10755415Y-14620747D01*
X10755415Y-14620747D02*
X10745891Y-14611224D01*
X10745891Y-14611224D02*
X10755415Y-14601700D01*
X10755415Y-14601700D02*
X10755415Y-14620747D01*
X10831605Y-14420747D02*
X10964939Y-14420747D01*
X10964939Y-14420747D02*
X10879224Y-14620747D01*
X11136367Y-14420747D02*
X11041129Y-14420747D01*
X11041129Y-14420747D02*
X11031605Y-14515986D01*
X11031605Y-14515986D02*
X11041129Y-14506462D01*
X11041129Y-14506462D02*
X11060177Y-14496938D01*
X11060177Y-14496938D02*
X11107796Y-14496938D01*
X11107796Y-14496938D02*
X11126843Y-14506462D01*
X11126843Y-14506462D02*
X11136367Y-14515986D01*
X11136367Y-14515986D02*
X11145891Y-14535033D01*
X11145891Y-14535033D02*
X11145891Y-14582652D01*
X11145891Y-14582652D02*
X11136367Y-14601700D01*
X11136367Y-14601700D02*
X11126843Y-14611224D01*
X11126843Y-14611224D02*
X11107796Y-14620747D01*
X11107796Y-14620747D02*
X11060177Y-14620747D01*
X11060177Y-14620747D02*
X11041129Y-14611224D01*
X11041129Y-14611224D02*
X11031605Y-14601700D01*
X11269700Y-14420747D02*
X11288748Y-14420747D01*
X11288748Y-14420747D02*
X11307796Y-14430271D01*
X11307796Y-14430271D02*
X11317319Y-14439795D01*
X11317319Y-14439795D02*
X11326843Y-14458843D01*
X11326843Y-14458843D02*
X11336367Y-14496938D01*
X11336367Y-14496938D02*
X11336367Y-14544557D01*
X11336367Y-14544557D02*
X11326843Y-14582652D01*
X11326843Y-14582652D02*
X11317319Y-14601700D01*
X11317319Y-14601700D02*
X11307796Y-14611224D01*
X11307796Y-14611224D02*
X11288748Y-14620747D01*
X11288748Y-14620747D02*
X11269700Y-14620747D01*
X11269700Y-14620747D02*
X11250653Y-14611224D01*
X11250653Y-14611224D02*
X11241129Y-14601700D01*
X11241129Y-14601700D02*
X11231605Y-14582652D01*
X11231605Y-14582652D02*
X11222081Y-14544557D01*
X11222081Y-14544557D02*
X11222081Y-14496938D01*
X11222081Y-14496938D02*
X11231605Y-14458843D01*
X11231605Y-14458843D02*
X11241129Y-14439795D01*
X11241129Y-14439795D02*
X11250653Y-14430271D01*
X11250653Y-14430271D02*
X11269700Y-14420747D01*
X11422081Y-14620747D02*
X11422081Y-14487414D01*
X11422081Y-14506462D02*
X11431605Y-14496938D01*
X11431605Y-14496938D02*
X11450653Y-14487414D01*
X11450653Y-14487414D02*
X11479224Y-14487414D01*
X11479224Y-14487414D02*
X11498272Y-14496938D01*
X11498272Y-14496938D02*
X11507796Y-14515986D01*
X11507796Y-14515986D02*
X11507796Y-14620747D01*
X11507796Y-14515986D02*
X11517319Y-14496938D01*
X11517319Y-14496938D02*
X11536367Y-14487414D01*
X11536367Y-14487414D02*
X11564938Y-14487414D01*
X11564938Y-14487414D02*
X11583986Y-14496938D01*
X11583986Y-14496938D02*
X11593510Y-14515986D01*
X11593510Y-14515986D02*
X11593510Y-14620747D01*
X11688748Y-14620747D02*
X11688748Y-14487414D01*
X11688748Y-14506462D02*
X11698272Y-14496938D01*
X11698272Y-14496938D02*
X11717319Y-14487414D01*
X11717319Y-14487414D02*
X11745891Y-14487414D01*
X11745891Y-14487414D02*
X11764939Y-14496938D01*
X11764939Y-14496938D02*
X11774462Y-14515986D01*
X11774462Y-14515986D02*
X11774462Y-14620747D01*
X11774462Y-14515986D02*
X11783986Y-14496938D01*
X11783986Y-14496938D02*
X11803034Y-14487414D01*
X11803034Y-14487414D02*
X11831605Y-14487414D01*
X11831605Y-14487414D02*
X11850653Y-14496938D01*
X11850653Y-14496938D02*
X11860177Y-14515986D01*
X11860177Y-14515986D02*
X11860177Y-14620747D01*
X12250653Y-14411224D02*
X12079224Y-14668366D01*
X12507796Y-14420747D02*
X12526843Y-14420747D01*
X12526843Y-14420747D02*
X12545891Y-14430271D01*
X12545891Y-14430271D02*
X12555415Y-14439795D01*
X12555415Y-14439795D02*
X12564939Y-14458843D01*
X12564939Y-14458843D02*
X12574462Y-14496938D01*
X12574462Y-14496938D02*
X12574462Y-14544557D01*
X12574462Y-14544557D02*
X12564939Y-14582652D01*
X12564939Y-14582652D02*
X12555415Y-14601700D01*
X12555415Y-14601700D02*
X12545891Y-14611224D01*
X12545891Y-14611224D02*
X12526843Y-14620747D01*
X12526843Y-14620747D02*
X12507796Y-14620747D01*
X12507796Y-14620747D02*
X12488748Y-14611224D01*
X12488748Y-14611224D02*
X12479224Y-14601700D01*
X12479224Y-14601700D02*
X12469701Y-14582652D01*
X12469701Y-14582652D02*
X12460177Y-14544557D01*
X12460177Y-14544557D02*
X12460177Y-14496938D01*
X12460177Y-14496938D02*
X12469701Y-14458843D01*
X12469701Y-14458843D02*
X12479224Y-14439795D01*
X12479224Y-14439795D02*
X12488748Y-14430271D01*
X12488748Y-14430271D02*
X12507796Y-14420747D01*
X12660177Y-14601700D02*
X12669701Y-14611224D01*
X12669701Y-14611224D02*
X12660177Y-14620747D01*
X12660177Y-14620747D02*
X12650653Y-14611224D01*
X12650653Y-14611224D02*
X12660177Y-14601700D01*
X12660177Y-14601700D02*
X12660177Y-14620747D01*
X12793510Y-14420747D02*
X12812558Y-14420747D01*
X12812558Y-14420747D02*
X12831605Y-14430271D01*
X12831605Y-14430271D02*
X12841129Y-14439795D01*
X12841129Y-14439795D02*
X12850653Y-14458843D01*
X12850653Y-14458843D02*
X12860177Y-14496938D01*
X12860177Y-14496938D02*
X12860177Y-14544557D01*
X12860177Y-14544557D02*
X12850653Y-14582652D01*
X12850653Y-14582652D02*
X12841129Y-14601700D01*
X12841129Y-14601700D02*
X12831605Y-14611224D01*
X12831605Y-14611224D02*
X12812558Y-14620747D01*
X12812558Y-14620747D02*
X12793510Y-14620747D01*
X12793510Y-14620747D02*
X12774462Y-14611224D01*
X12774462Y-14611224D02*
X12764939Y-14601700D01*
X12764939Y-14601700D02*
X12755415Y-14582652D01*
X12755415Y-14582652D02*
X12745891Y-14544557D01*
X12745891Y-14544557D02*
X12745891Y-14496938D01*
X12745891Y-14496938D02*
X12755415Y-14458843D01*
X12755415Y-14458843D02*
X12764939Y-14439795D01*
X12764939Y-14439795D02*
X12774462Y-14430271D01*
X12774462Y-14430271D02*
X12793510Y-14420747D01*
X12936367Y-14439795D02*
X12945891Y-14430271D01*
X12945891Y-14430271D02*
X12964939Y-14420747D01*
X12964939Y-14420747D02*
X13012558Y-14420747D01*
X13012558Y-14420747D02*
X13031605Y-14430271D01*
X13031605Y-14430271D02*
X13041129Y-14439795D01*
X13041129Y-14439795D02*
X13050653Y-14458843D01*
X13050653Y-14458843D02*
X13050653Y-14477890D01*
X13050653Y-14477890D02*
X13041129Y-14506462D01*
X13041129Y-14506462D02*
X12926843Y-14620747D01*
X12926843Y-14620747D02*
X13050653Y-14620747D01*
X13145891Y-14620747D02*
X13183986Y-14620747D01*
X13183986Y-14620747D02*
X13203034Y-14611224D01*
X13203034Y-14611224D02*
X13212558Y-14601700D01*
X13212558Y-14601700D02*
X13231605Y-14573128D01*
X13231605Y-14573128D02*
X13241129Y-14535033D01*
X13241129Y-14535033D02*
X13241129Y-14458843D01*
X13241129Y-14458843D02*
X13231605Y-14439795D01*
X13231605Y-14439795D02*
X13222082Y-14430271D01*
X13222082Y-14430271D02*
X13203034Y-14420747D01*
X13203034Y-14420747D02*
X13164939Y-14420747D01*
X13164939Y-14420747D02*
X13145891Y-14430271D01*
X13145891Y-14430271D02*
X13136367Y-14439795D01*
X13136367Y-14439795D02*
X13126843Y-14458843D01*
X13126843Y-14458843D02*
X13126843Y-14506462D01*
X13126843Y-14506462D02*
X13136367Y-14525509D01*
X13136367Y-14525509D02*
X13145891Y-14535033D01*
X13145891Y-14535033D02*
X13164939Y-14544557D01*
X13164939Y-14544557D02*
X13203034Y-14544557D01*
X13203034Y-14544557D02*
X13222082Y-14535033D01*
X13222082Y-14535033D02*
X13231605Y-14525509D01*
X13231605Y-14525509D02*
X13241129Y-14506462D01*
X13422082Y-14420747D02*
X13326843Y-14420747D01*
X13326843Y-14420747D02*
X13317320Y-14515986D01*
X13317320Y-14515986D02*
X13326843Y-14506462D01*
X13326843Y-14506462D02*
X13345891Y-14496938D01*
X13345891Y-14496938D02*
X13393510Y-14496938D01*
X13393510Y-14496938D02*
X13412558Y-14506462D01*
X13412558Y-14506462D02*
X13422082Y-14515986D01*
X13422082Y-14515986D02*
X13431605Y-14535033D01*
X13431605Y-14535033D02*
X13431605Y-14582652D01*
X13431605Y-14582652D02*
X13422082Y-14601700D01*
X13422082Y-14601700D02*
X13412558Y-14611224D01*
X13412558Y-14611224D02*
X13393510Y-14620747D01*
X13393510Y-14620747D02*
X13345891Y-14620747D01*
X13345891Y-14620747D02*
X13326843Y-14611224D01*
X13326843Y-14611224D02*
X13317320Y-14601700D01*
X13507796Y-14420747D02*
X13507796Y-14458843D01*
X13583986Y-14420747D02*
X13583986Y-14458843D01*
X13879225Y-14696938D02*
X13869701Y-14687414D01*
X13869701Y-14687414D02*
X13850653Y-14658843D01*
X13850653Y-14658843D02*
X13841129Y-14639795D01*
X13841129Y-14639795D02*
X13831605Y-14611224D01*
X13831605Y-14611224D02*
X13822082Y-14563605D01*
X13822082Y-14563605D02*
X13822082Y-14525509D01*
X13822082Y-14525509D02*
X13831605Y-14477890D01*
X13831605Y-14477890D02*
X13841129Y-14449319D01*
X13841129Y-14449319D02*
X13850653Y-14430271D01*
X13850653Y-14430271D02*
X13869701Y-14401700D01*
X13869701Y-14401700D02*
X13879225Y-14392176D01*
X13945891Y-14439795D02*
X13955415Y-14430271D01*
X13955415Y-14430271D02*
X13974463Y-14420747D01*
X13974463Y-14420747D02*
X14022082Y-14420747D01*
X14022082Y-14420747D02*
X14041129Y-14430271D01*
X14041129Y-14430271D02*
X14050653Y-14439795D01*
X14050653Y-14439795D02*
X14060177Y-14458843D01*
X14060177Y-14458843D02*
X14060177Y-14477890D01*
X14060177Y-14477890D02*
X14050653Y-14506462D01*
X14050653Y-14506462D02*
X13936367Y-14620747D01*
X13936367Y-14620747D02*
X14060177Y-14620747D01*
X14298272Y-14620747D02*
X14298272Y-14420747D01*
X14383986Y-14620747D02*
X14383986Y-14515986D01*
X14383986Y-14515986D02*
X14374463Y-14496938D01*
X14374463Y-14496938D02*
X14355415Y-14487414D01*
X14355415Y-14487414D02*
X14326844Y-14487414D01*
X14326844Y-14487414D02*
X14307796Y-14496938D01*
X14307796Y-14496938D02*
X14298272Y-14506462D01*
X14507796Y-14620747D02*
X14488748Y-14611224D01*
X14488748Y-14611224D02*
X14479225Y-14601700D01*
X14479225Y-14601700D02*
X14469701Y-14582652D01*
X14469701Y-14582652D02*
X14469701Y-14525509D01*
X14469701Y-14525509D02*
X14479225Y-14506462D01*
X14479225Y-14506462D02*
X14488748Y-14496938D01*
X14488748Y-14496938D02*
X14507796Y-14487414D01*
X14507796Y-14487414D02*
X14536367Y-14487414D01*
X14536367Y-14487414D02*
X14555415Y-14496938D01*
X14555415Y-14496938D02*
X14564939Y-14506462D01*
X14564939Y-14506462D02*
X14574463Y-14525509D01*
X14574463Y-14525509D02*
X14574463Y-14582652D01*
X14574463Y-14582652D02*
X14564939Y-14601700D01*
X14564939Y-14601700D02*
X14555415Y-14611224D01*
X14555415Y-14611224D02*
X14536367Y-14620747D01*
X14536367Y-14620747D02*
X14507796Y-14620747D01*
X14688748Y-14620747D02*
X14669701Y-14611224D01*
X14669701Y-14611224D02*
X14660177Y-14592176D01*
X14660177Y-14592176D02*
X14660177Y-14420747D01*
X14841129Y-14611224D02*
X14822082Y-14620747D01*
X14822082Y-14620747D02*
X14783986Y-14620747D01*
X14783986Y-14620747D02*
X14764939Y-14611224D01*
X14764939Y-14611224D02*
X14755415Y-14592176D01*
X14755415Y-14592176D02*
X14755415Y-14515986D01*
X14755415Y-14515986D02*
X14764939Y-14496938D01*
X14764939Y-14496938D02*
X14783986Y-14487414D01*
X14783986Y-14487414D02*
X14822082Y-14487414D01*
X14822082Y-14487414D02*
X14841129Y-14496938D01*
X14841129Y-14496938D02*
X14850653Y-14515986D01*
X14850653Y-14515986D02*
X14850653Y-14535033D01*
X14850653Y-14535033D02*
X14755415Y-14554081D01*
X14926844Y-14611224D02*
X14945891Y-14620747D01*
X14945891Y-14620747D02*
X14983986Y-14620747D01*
X14983986Y-14620747D02*
X15003034Y-14611224D01*
X15003034Y-14611224D02*
X15012558Y-14592176D01*
X15012558Y-14592176D02*
X15012558Y-14582652D01*
X15012558Y-14582652D02*
X15003034Y-14563605D01*
X15003034Y-14563605D02*
X14983986Y-14554081D01*
X14983986Y-14554081D02*
X14955415Y-14554081D01*
X14955415Y-14554081D02*
X14936367Y-14544557D01*
X14936367Y-14544557D02*
X14926844Y-14525509D01*
X14926844Y-14525509D02*
X14926844Y-14515986D01*
X14926844Y-14515986D02*
X14936367Y-14496938D01*
X14936367Y-14496938D02*
X14955415Y-14487414D01*
X14955415Y-14487414D02*
X14983986Y-14487414D01*
X14983986Y-14487414D02*
X15003034Y-14496938D01*
X15079225Y-14696938D02*
X15088748Y-14687414D01*
X15088748Y-14687414D02*
X15107796Y-14658843D01*
X15107796Y-14658843D02*
X15117320Y-14639795D01*
X15117320Y-14639795D02*
X15126844Y-14611224D01*
X15126844Y-14611224D02*
X15136367Y-14563605D01*
X15136367Y-14563605D02*
X15136367Y-14525509D01*
X15136367Y-14525509D02*
X15126844Y-14477890D01*
X15126844Y-14477890D02*
X15117320Y-14449319D01*
X15117320Y-14449319D02*
X15107796Y-14430271D01*
X15107796Y-14430271D02*
X15088748Y-14401700D01*
X15088748Y-14401700D02*
X15079225Y-14392176D01*
D12*
X10264162Y-14753264D02*
X10264162Y-14833264D01*
X10224162Y-14793264D02*
X10304162Y-14793264D01*
D11*
X10603034Y-14684747D02*
X10622081Y-14684747D01*
X10622081Y-14684747D02*
X10641129Y-14694271D01*
X10641129Y-14694271D02*
X10650653Y-14703795D01*
X10650653Y-14703795D02*
X10660177Y-14722843D01*
X10660177Y-14722843D02*
X10669700Y-14760938D01*
X10669700Y-14760938D02*
X10669700Y-14808557D01*
X10669700Y-14808557D02*
X10660177Y-14846652D01*
X10660177Y-14846652D02*
X10650653Y-14865700D01*
X10650653Y-14865700D02*
X10641129Y-14875224D01*
X10641129Y-14875224D02*
X10622081Y-14884747D01*
X10622081Y-14884747D02*
X10603034Y-14884747D01*
X10603034Y-14884747D02*
X10583986Y-14875224D01*
X10583986Y-14875224D02*
X10574462Y-14865700D01*
X10574462Y-14865700D02*
X10564939Y-14846652D01*
X10564939Y-14846652D02*
X10555415Y-14808557D01*
X10555415Y-14808557D02*
X10555415Y-14760938D01*
X10555415Y-14760938D02*
X10564939Y-14722843D01*
X10564939Y-14722843D02*
X10574462Y-14703795D01*
X10574462Y-14703795D02*
X10583986Y-14694271D01*
X10583986Y-14694271D02*
X10603034Y-14684747D01*
X10755415Y-14865700D02*
X10764939Y-14875224D01*
X10764939Y-14875224D02*
X10755415Y-14884747D01*
X10755415Y-14884747D02*
X10745891Y-14875224D01*
X10745891Y-14875224D02*
X10755415Y-14865700D01*
X10755415Y-14865700D02*
X10755415Y-14884747D01*
X10879224Y-14770462D02*
X10860177Y-14760938D01*
X10860177Y-14760938D02*
X10850653Y-14751414D01*
X10850653Y-14751414D02*
X10841129Y-14732366D01*
X10841129Y-14732366D02*
X10841129Y-14722843D01*
X10841129Y-14722843D02*
X10850653Y-14703795D01*
X10850653Y-14703795D02*
X10860177Y-14694271D01*
X10860177Y-14694271D02*
X10879224Y-14684747D01*
X10879224Y-14684747D02*
X10917320Y-14684747D01*
X10917320Y-14684747D02*
X10936367Y-14694271D01*
X10936367Y-14694271D02*
X10945891Y-14703795D01*
X10945891Y-14703795D02*
X10955415Y-14722843D01*
X10955415Y-14722843D02*
X10955415Y-14732366D01*
X10955415Y-14732366D02*
X10945891Y-14751414D01*
X10945891Y-14751414D02*
X10936367Y-14760938D01*
X10936367Y-14760938D02*
X10917320Y-14770462D01*
X10917320Y-14770462D02*
X10879224Y-14770462D01*
X10879224Y-14770462D02*
X10860177Y-14779986D01*
X10860177Y-14779986D02*
X10850653Y-14789509D01*
X10850653Y-14789509D02*
X10841129Y-14808557D01*
X10841129Y-14808557D02*
X10841129Y-14846652D01*
X10841129Y-14846652D02*
X10850653Y-14865700D01*
X10850653Y-14865700D02*
X10860177Y-14875224D01*
X10860177Y-14875224D02*
X10879224Y-14884747D01*
X10879224Y-14884747D02*
X10917320Y-14884747D01*
X10917320Y-14884747D02*
X10936367Y-14875224D01*
X10936367Y-14875224D02*
X10945891Y-14865700D01*
X10945891Y-14865700D02*
X10955415Y-14846652D01*
X10955415Y-14846652D02*
X10955415Y-14808557D01*
X10955415Y-14808557D02*
X10945891Y-14789509D01*
X10945891Y-14789509D02*
X10936367Y-14779986D01*
X10936367Y-14779986D02*
X10917320Y-14770462D01*
X11079224Y-14684747D02*
X11098272Y-14684747D01*
X11098272Y-14684747D02*
X11117320Y-14694271D01*
X11117320Y-14694271D02*
X11126843Y-14703795D01*
X11126843Y-14703795D02*
X11136367Y-14722843D01*
X11136367Y-14722843D02*
X11145891Y-14760938D01*
X11145891Y-14760938D02*
X11145891Y-14808557D01*
X11145891Y-14808557D02*
X11136367Y-14846652D01*
X11136367Y-14846652D02*
X11126843Y-14865700D01*
X11126843Y-14865700D02*
X11117320Y-14875224D01*
X11117320Y-14875224D02*
X11098272Y-14884747D01*
X11098272Y-14884747D02*
X11079224Y-14884747D01*
X11079224Y-14884747D02*
X11060177Y-14875224D01*
X11060177Y-14875224D02*
X11050653Y-14865700D01*
X11050653Y-14865700D02*
X11041129Y-14846652D01*
X11041129Y-14846652D02*
X11031605Y-14808557D01*
X11031605Y-14808557D02*
X11031605Y-14760938D01*
X11031605Y-14760938D02*
X11041129Y-14722843D01*
X11041129Y-14722843D02*
X11050653Y-14703795D01*
X11050653Y-14703795D02*
X11060177Y-14694271D01*
X11060177Y-14694271D02*
X11079224Y-14684747D01*
X11269700Y-14684747D02*
X11288748Y-14684747D01*
X11288748Y-14684747D02*
X11307796Y-14694271D01*
X11307796Y-14694271D02*
X11317319Y-14703795D01*
X11317319Y-14703795D02*
X11326843Y-14722843D01*
X11326843Y-14722843D02*
X11336367Y-14760938D01*
X11336367Y-14760938D02*
X11336367Y-14808557D01*
X11336367Y-14808557D02*
X11326843Y-14846652D01*
X11326843Y-14846652D02*
X11317319Y-14865700D01*
X11317319Y-14865700D02*
X11307796Y-14875224D01*
X11307796Y-14875224D02*
X11288748Y-14884747D01*
X11288748Y-14884747D02*
X11269700Y-14884747D01*
X11269700Y-14884747D02*
X11250653Y-14875224D01*
X11250653Y-14875224D02*
X11241129Y-14865700D01*
X11241129Y-14865700D02*
X11231605Y-14846652D01*
X11231605Y-14846652D02*
X11222081Y-14808557D01*
X11222081Y-14808557D02*
X11222081Y-14760938D01*
X11222081Y-14760938D02*
X11231605Y-14722843D01*
X11231605Y-14722843D02*
X11241129Y-14703795D01*
X11241129Y-14703795D02*
X11250653Y-14694271D01*
X11250653Y-14694271D02*
X11269700Y-14684747D01*
X11422081Y-14884747D02*
X11422081Y-14751414D01*
X11422081Y-14770462D02*
X11431605Y-14760938D01*
X11431605Y-14760938D02*
X11450653Y-14751414D01*
X11450653Y-14751414D02*
X11479224Y-14751414D01*
X11479224Y-14751414D02*
X11498272Y-14760938D01*
X11498272Y-14760938D02*
X11507796Y-14779986D01*
X11507796Y-14779986D02*
X11507796Y-14884747D01*
X11507796Y-14779986D02*
X11517319Y-14760938D01*
X11517319Y-14760938D02*
X11536367Y-14751414D01*
X11536367Y-14751414D02*
X11564938Y-14751414D01*
X11564938Y-14751414D02*
X11583986Y-14760938D01*
X11583986Y-14760938D02*
X11593510Y-14779986D01*
X11593510Y-14779986D02*
X11593510Y-14884747D01*
X11688748Y-14884747D02*
X11688748Y-14751414D01*
X11688748Y-14770462D02*
X11698272Y-14760938D01*
X11698272Y-14760938D02*
X11717319Y-14751414D01*
X11717319Y-14751414D02*
X11745891Y-14751414D01*
X11745891Y-14751414D02*
X11764939Y-14760938D01*
X11764939Y-14760938D02*
X11774462Y-14779986D01*
X11774462Y-14779986D02*
X11774462Y-14884747D01*
X11774462Y-14779986D02*
X11783986Y-14760938D01*
X11783986Y-14760938D02*
X11803034Y-14751414D01*
X11803034Y-14751414D02*
X11831605Y-14751414D01*
X11831605Y-14751414D02*
X11850653Y-14760938D01*
X11850653Y-14760938D02*
X11860177Y-14779986D01*
X11860177Y-14779986D02*
X11860177Y-14884747D01*
X12250653Y-14675224D02*
X12079224Y-14932366D01*
X12507796Y-14684747D02*
X12526843Y-14684747D01*
X12526843Y-14684747D02*
X12545891Y-14694271D01*
X12545891Y-14694271D02*
X12555415Y-14703795D01*
X12555415Y-14703795D02*
X12564939Y-14722843D01*
X12564939Y-14722843D02*
X12574462Y-14760938D01*
X12574462Y-14760938D02*
X12574462Y-14808557D01*
X12574462Y-14808557D02*
X12564939Y-14846652D01*
X12564939Y-14846652D02*
X12555415Y-14865700D01*
X12555415Y-14865700D02*
X12545891Y-14875224D01*
X12545891Y-14875224D02*
X12526843Y-14884747D01*
X12526843Y-14884747D02*
X12507796Y-14884747D01*
X12507796Y-14884747D02*
X12488748Y-14875224D01*
X12488748Y-14875224D02*
X12479224Y-14865700D01*
X12479224Y-14865700D02*
X12469701Y-14846652D01*
X12469701Y-14846652D02*
X12460177Y-14808557D01*
X12460177Y-14808557D02*
X12460177Y-14760938D01*
X12460177Y-14760938D02*
X12469701Y-14722843D01*
X12469701Y-14722843D02*
X12479224Y-14703795D01*
X12479224Y-14703795D02*
X12488748Y-14694271D01*
X12488748Y-14694271D02*
X12507796Y-14684747D01*
X12660177Y-14865700D02*
X12669701Y-14875224D01*
X12669701Y-14875224D02*
X12660177Y-14884747D01*
X12660177Y-14884747D02*
X12650653Y-14875224D01*
X12650653Y-14875224D02*
X12660177Y-14865700D01*
X12660177Y-14865700D02*
X12660177Y-14884747D01*
X12793510Y-14684747D02*
X12812558Y-14684747D01*
X12812558Y-14684747D02*
X12831605Y-14694271D01*
X12831605Y-14694271D02*
X12841129Y-14703795D01*
X12841129Y-14703795D02*
X12850653Y-14722843D01*
X12850653Y-14722843D02*
X12860177Y-14760938D01*
X12860177Y-14760938D02*
X12860177Y-14808557D01*
X12860177Y-14808557D02*
X12850653Y-14846652D01*
X12850653Y-14846652D02*
X12841129Y-14865700D01*
X12841129Y-14865700D02*
X12831605Y-14875224D01*
X12831605Y-14875224D02*
X12812558Y-14884747D01*
X12812558Y-14884747D02*
X12793510Y-14884747D01*
X12793510Y-14884747D02*
X12774462Y-14875224D01*
X12774462Y-14875224D02*
X12764939Y-14865700D01*
X12764939Y-14865700D02*
X12755415Y-14846652D01*
X12755415Y-14846652D02*
X12745891Y-14808557D01*
X12745891Y-14808557D02*
X12745891Y-14760938D01*
X12745891Y-14760938D02*
X12755415Y-14722843D01*
X12755415Y-14722843D02*
X12764939Y-14703795D01*
X12764939Y-14703795D02*
X12774462Y-14694271D01*
X12774462Y-14694271D02*
X12793510Y-14684747D01*
X12926843Y-14684747D02*
X13050653Y-14684747D01*
X13050653Y-14684747D02*
X12983986Y-14760938D01*
X12983986Y-14760938D02*
X13012558Y-14760938D01*
X13012558Y-14760938D02*
X13031605Y-14770462D01*
X13031605Y-14770462D02*
X13041129Y-14779986D01*
X13041129Y-14779986D02*
X13050653Y-14799033D01*
X13050653Y-14799033D02*
X13050653Y-14846652D01*
X13050653Y-14846652D02*
X13041129Y-14865700D01*
X13041129Y-14865700D02*
X13031605Y-14875224D01*
X13031605Y-14875224D02*
X13012558Y-14884747D01*
X13012558Y-14884747D02*
X12955415Y-14884747D01*
X12955415Y-14884747D02*
X12936367Y-14875224D01*
X12936367Y-14875224D02*
X12926843Y-14865700D01*
X13241129Y-14884747D02*
X13126843Y-14884747D01*
X13183986Y-14884747D02*
X13183986Y-14684747D01*
X13183986Y-14684747D02*
X13164939Y-14713319D01*
X13164939Y-14713319D02*
X13145891Y-14732366D01*
X13145891Y-14732366D02*
X13126843Y-14741890D01*
X13422082Y-14684747D02*
X13326843Y-14684747D01*
X13326843Y-14684747D02*
X13317320Y-14779986D01*
X13317320Y-14779986D02*
X13326843Y-14770462D01*
X13326843Y-14770462D02*
X13345891Y-14760938D01*
X13345891Y-14760938D02*
X13393510Y-14760938D01*
X13393510Y-14760938D02*
X13412558Y-14770462D01*
X13412558Y-14770462D02*
X13422082Y-14779986D01*
X13422082Y-14779986D02*
X13431605Y-14799033D01*
X13431605Y-14799033D02*
X13431605Y-14846652D01*
X13431605Y-14846652D02*
X13422082Y-14865700D01*
X13422082Y-14865700D02*
X13412558Y-14875224D01*
X13412558Y-14875224D02*
X13393510Y-14884747D01*
X13393510Y-14884747D02*
X13345891Y-14884747D01*
X13345891Y-14884747D02*
X13326843Y-14875224D01*
X13326843Y-14875224D02*
X13317320Y-14865700D01*
X13507796Y-14684747D02*
X13507796Y-14722843D01*
X13583986Y-14684747D02*
X13583986Y-14722843D01*
X13879225Y-14960938D02*
X13869701Y-14951414D01*
X13869701Y-14951414D02*
X13850653Y-14922843D01*
X13850653Y-14922843D02*
X13841129Y-14903795D01*
X13841129Y-14903795D02*
X13831605Y-14875224D01*
X13831605Y-14875224D02*
X13822082Y-14827605D01*
X13822082Y-14827605D02*
X13822082Y-14789509D01*
X13822082Y-14789509D02*
X13831605Y-14741890D01*
X13831605Y-14741890D02*
X13841129Y-14713319D01*
X13841129Y-14713319D02*
X13850653Y-14694271D01*
X13850653Y-14694271D02*
X13869701Y-14665700D01*
X13869701Y-14665700D02*
X13879225Y-14656176D01*
X14041129Y-14684747D02*
X14003034Y-14684747D01*
X14003034Y-14684747D02*
X13983986Y-14694271D01*
X13983986Y-14694271D02*
X13974463Y-14703795D01*
X13974463Y-14703795D02*
X13955415Y-14732366D01*
X13955415Y-14732366D02*
X13945891Y-14770462D01*
X13945891Y-14770462D02*
X13945891Y-14846652D01*
X13945891Y-14846652D02*
X13955415Y-14865700D01*
X13955415Y-14865700D02*
X13964939Y-14875224D01*
X13964939Y-14875224D02*
X13983986Y-14884747D01*
X13983986Y-14884747D02*
X14022082Y-14884747D01*
X14022082Y-14884747D02*
X14041129Y-14875224D01*
X14041129Y-14875224D02*
X14050653Y-14865700D01*
X14050653Y-14865700D02*
X14060177Y-14846652D01*
X14060177Y-14846652D02*
X14060177Y-14799033D01*
X14060177Y-14799033D02*
X14050653Y-14779986D01*
X14050653Y-14779986D02*
X14041129Y-14770462D01*
X14041129Y-14770462D02*
X14022082Y-14760938D01*
X14022082Y-14760938D02*
X13983986Y-14760938D01*
X13983986Y-14760938D02*
X13964939Y-14770462D01*
X13964939Y-14770462D02*
X13955415Y-14779986D01*
X13955415Y-14779986D02*
X13945891Y-14799033D01*
X14298272Y-14884747D02*
X14298272Y-14684747D01*
X14383986Y-14884747D02*
X14383986Y-14779986D01*
X14383986Y-14779986D02*
X14374463Y-14760938D01*
X14374463Y-14760938D02*
X14355415Y-14751414D01*
X14355415Y-14751414D02*
X14326844Y-14751414D01*
X14326844Y-14751414D02*
X14307796Y-14760938D01*
X14307796Y-14760938D02*
X14298272Y-14770462D01*
X14507796Y-14884747D02*
X14488748Y-14875224D01*
X14488748Y-14875224D02*
X14479225Y-14865700D01*
X14479225Y-14865700D02*
X14469701Y-14846652D01*
X14469701Y-14846652D02*
X14469701Y-14789509D01*
X14469701Y-14789509D02*
X14479225Y-14770462D01*
X14479225Y-14770462D02*
X14488748Y-14760938D01*
X14488748Y-14760938D02*
X14507796Y-14751414D01*
X14507796Y-14751414D02*
X14536367Y-14751414D01*
X14536367Y-14751414D02*
X14555415Y-14760938D01*
X14555415Y-14760938D02*
X14564939Y-14770462D01*
X14564939Y-14770462D02*
X14574463Y-14789509D01*
X14574463Y-14789509D02*
X14574463Y-14846652D01*
X14574463Y-14846652D02*
X14564939Y-14865700D01*
X14564939Y-14865700D02*
X14555415Y-14875224D01*
X14555415Y-14875224D02*
X14536367Y-14884747D01*
X14536367Y-14884747D02*
X14507796Y-14884747D01*
X14688748Y-14884747D02*
X14669701Y-14875224D01*
X14669701Y-14875224D02*
X14660177Y-14856176D01*
X14660177Y-14856176D02*
X14660177Y-14684747D01*
X14841129Y-14875224D02*
X14822082Y-14884747D01*
X14822082Y-14884747D02*
X14783986Y-14884747D01*
X14783986Y-14884747D02*
X14764939Y-14875224D01*
X14764939Y-14875224D02*
X14755415Y-14856176D01*
X14755415Y-14856176D02*
X14755415Y-14779986D01*
X14755415Y-14779986D02*
X14764939Y-14760938D01*
X14764939Y-14760938D02*
X14783986Y-14751414D01*
X14783986Y-14751414D02*
X14822082Y-14751414D01*
X14822082Y-14751414D02*
X14841129Y-14760938D01*
X14841129Y-14760938D02*
X14850653Y-14779986D01*
X14850653Y-14779986D02*
X14850653Y-14799033D01*
X14850653Y-14799033D02*
X14755415Y-14818081D01*
X14926844Y-14875224D02*
X14945891Y-14884747D01*
X14945891Y-14884747D02*
X14983986Y-14884747D01*
X14983986Y-14884747D02*
X15003034Y-14875224D01*
X15003034Y-14875224D02*
X15012558Y-14856176D01*
X15012558Y-14856176D02*
X15012558Y-14846652D01*
X15012558Y-14846652D02*
X15003034Y-14827605D01*
X15003034Y-14827605D02*
X14983986Y-14818081D01*
X14983986Y-14818081D02*
X14955415Y-14818081D01*
X14955415Y-14818081D02*
X14936367Y-14808557D01*
X14936367Y-14808557D02*
X14926844Y-14789509D01*
X14926844Y-14789509D02*
X14926844Y-14779986D01*
X14926844Y-14779986D02*
X14936367Y-14760938D01*
X14936367Y-14760938D02*
X14955415Y-14751414D01*
X14955415Y-14751414D02*
X14983986Y-14751414D01*
X14983986Y-14751414D02*
X15003034Y-14760938D01*
X15079225Y-14960938D02*
X15088748Y-14951414D01*
X15088748Y-14951414D02*
X15107796Y-14922843D01*
X15107796Y-14922843D02*
X15117320Y-14903795D01*
X15117320Y-14903795D02*
X15126844Y-14875224D01*
X15126844Y-14875224D02*
X15136367Y-14827605D01*
X15136367Y-14827605D02*
X15136367Y-14789509D01*
X15136367Y-14789509D02*
X15126844Y-14741890D01*
X15126844Y-14741890D02*
X15117320Y-14713319D01*
X15117320Y-14713319D02*
X15107796Y-14694271D01*
X15107796Y-14694271D02*
X15088748Y-14665700D01*
X15088748Y-14665700D02*
X15079225Y-14656176D01*
D12*
X10289517Y-15092619D02*
X10289517Y-15021908D01*
X10218806Y-15021908D01*
X10218806Y-15092619D01*
X10289517Y-15092619D01*
D11*
X10669700Y-15148747D02*
X10555415Y-15148747D01*
X10612558Y-15148747D02*
X10612558Y-14948747D01*
X10612558Y-14948747D02*
X10593510Y-14977319D01*
X10593510Y-14977319D02*
X10574462Y-14996366D01*
X10574462Y-14996366D02*
X10555415Y-15005890D01*
X10755415Y-15129700D02*
X10764939Y-15139224D01*
X10764939Y-15139224D02*
X10755415Y-15148747D01*
X10755415Y-15148747D02*
X10745891Y-15139224D01*
X10745891Y-15139224D02*
X10755415Y-15129700D01*
X10755415Y-15129700D02*
X10755415Y-15148747D01*
X10888748Y-14948747D02*
X10907796Y-14948747D01*
X10907796Y-14948747D02*
X10926843Y-14958271D01*
X10926843Y-14958271D02*
X10936367Y-14967795D01*
X10936367Y-14967795D02*
X10945891Y-14986843D01*
X10945891Y-14986843D02*
X10955415Y-15024938D01*
X10955415Y-15024938D02*
X10955415Y-15072557D01*
X10955415Y-15072557D02*
X10945891Y-15110652D01*
X10945891Y-15110652D02*
X10936367Y-15129700D01*
X10936367Y-15129700D02*
X10926843Y-15139224D01*
X10926843Y-15139224D02*
X10907796Y-15148747D01*
X10907796Y-15148747D02*
X10888748Y-15148747D01*
X10888748Y-15148747D02*
X10869700Y-15139224D01*
X10869700Y-15139224D02*
X10860177Y-15129700D01*
X10860177Y-15129700D02*
X10850653Y-15110652D01*
X10850653Y-15110652D02*
X10841129Y-15072557D01*
X10841129Y-15072557D02*
X10841129Y-15024938D01*
X10841129Y-15024938D02*
X10850653Y-14986843D01*
X10850653Y-14986843D02*
X10860177Y-14967795D01*
X10860177Y-14967795D02*
X10869700Y-14958271D01*
X10869700Y-14958271D02*
X10888748Y-14948747D01*
X11079224Y-14948747D02*
X11098272Y-14948747D01*
X11098272Y-14948747D02*
X11117320Y-14958271D01*
X11117320Y-14958271D02*
X11126843Y-14967795D01*
X11126843Y-14967795D02*
X11136367Y-14986843D01*
X11136367Y-14986843D02*
X11145891Y-15024938D01*
X11145891Y-15024938D02*
X11145891Y-15072557D01*
X11145891Y-15072557D02*
X11136367Y-15110652D01*
X11136367Y-15110652D02*
X11126843Y-15129700D01*
X11126843Y-15129700D02*
X11117320Y-15139224D01*
X11117320Y-15139224D02*
X11098272Y-15148747D01*
X11098272Y-15148747D02*
X11079224Y-15148747D01*
X11079224Y-15148747D02*
X11060177Y-15139224D01*
X11060177Y-15139224D02*
X11050653Y-15129700D01*
X11050653Y-15129700D02*
X11041129Y-15110652D01*
X11041129Y-15110652D02*
X11031605Y-15072557D01*
X11031605Y-15072557D02*
X11031605Y-15024938D01*
X11031605Y-15024938D02*
X11041129Y-14986843D01*
X11041129Y-14986843D02*
X11050653Y-14967795D01*
X11050653Y-14967795D02*
X11060177Y-14958271D01*
X11060177Y-14958271D02*
X11079224Y-14948747D01*
X11269700Y-14948747D02*
X11288748Y-14948747D01*
X11288748Y-14948747D02*
X11307796Y-14958271D01*
X11307796Y-14958271D02*
X11317319Y-14967795D01*
X11317319Y-14967795D02*
X11326843Y-14986843D01*
X11326843Y-14986843D02*
X11336367Y-15024938D01*
X11336367Y-15024938D02*
X11336367Y-15072557D01*
X11336367Y-15072557D02*
X11326843Y-15110652D01*
X11326843Y-15110652D02*
X11317319Y-15129700D01*
X11317319Y-15129700D02*
X11307796Y-15139224D01*
X11307796Y-15139224D02*
X11288748Y-15148747D01*
X11288748Y-15148747D02*
X11269700Y-15148747D01*
X11269700Y-15148747D02*
X11250653Y-15139224D01*
X11250653Y-15139224D02*
X11241129Y-15129700D01*
X11241129Y-15129700D02*
X11231605Y-15110652D01*
X11231605Y-15110652D02*
X11222081Y-15072557D01*
X11222081Y-15072557D02*
X11222081Y-15024938D01*
X11222081Y-15024938D02*
X11231605Y-14986843D01*
X11231605Y-14986843D02*
X11241129Y-14967795D01*
X11241129Y-14967795D02*
X11250653Y-14958271D01*
X11250653Y-14958271D02*
X11269700Y-14948747D01*
X11422081Y-15148747D02*
X11422081Y-15015414D01*
X11422081Y-15034462D02*
X11431605Y-15024938D01*
X11431605Y-15024938D02*
X11450653Y-15015414D01*
X11450653Y-15015414D02*
X11479224Y-15015414D01*
X11479224Y-15015414D02*
X11498272Y-15024938D01*
X11498272Y-15024938D02*
X11507796Y-15043986D01*
X11507796Y-15043986D02*
X11507796Y-15148747D01*
X11507796Y-15043986D02*
X11517319Y-15024938D01*
X11517319Y-15024938D02*
X11536367Y-15015414D01*
X11536367Y-15015414D02*
X11564938Y-15015414D01*
X11564938Y-15015414D02*
X11583986Y-15024938D01*
X11583986Y-15024938D02*
X11593510Y-15043986D01*
X11593510Y-15043986D02*
X11593510Y-15148747D01*
X11688748Y-15148747D02*
X11688748Y-15015414D01*
X11688748Y-15034462D02*
X11698272Y-15024938D01*
X11698272Y-15024938D02*
X11717319Y-15015414D01*
X11717319Y-15015414D02*
X11745891Y-15015414D01*
X11745891Y-15015414D02*
X11764939Y-15024938D01*
X11764939Y-15024938D02*
X11774462Y-15043986D01*
X11774462Y-15043986D02*
X11774462Y-15148747D01*
X11774462Y-15043986D02*
X11783986Y-15024938D01*
X11783986Y-15024938D02*
X11803034Y-15015414D01*
X11803034Y-15015414D02*
X11831605Y-15015414D01*
X11831605Y-15015414D02*
X11850653Y-15024938D01*
X11850653Y-15024938D02*
X11860177Y-15043986D01*
X11860177Y-15043986D02*
X11860177Y-15148747D01*
X12250653Y-14939224D02*
X12079224Y-15196366D01*
X12507796Y-14948747D02*
X12526843Y-14948747D01*
X12526843Y-14948747D02*
X12545891Y-14958271D01*
X12545891Y-14958271D02*
X12555415Y-14967795D01*
X12555415Y-14967795D02*
X12564939Y-14986843D01*
X12564939Y-14986843D02*
X12574462Y-15024938D01*
X12574462Y-15024938D02*
X12574462Y-15072557D01*
X12574462Y-15072557D02*
X12564939Y-15110652D01*
X12564939Y-15110652D02*
X12555415Y-15129700D01*
X12555415Y-15129700D02*
X12545891Y-15139224D01*
X12545891Y-15139224D02*
X12526843Y-15148747D01*
X12526843Y-15148747D02*
X12507796Y-15148747D01*
X12507796Y-15148747D02*
X12488748Y-15139224D01*
X12488748Y-15139224D02*
X12479224Y-15129700D01*
X12479224Y-15129700D02*
X12469701Y-15110652D01*
X12469701Y-15110652D02*
X12460177Y-15072557D01*
X12460177Y-15072557D02*
X12460177Y-15024938D01*
X12460177Y-15024938D02*
X12469701Y-14986843D01*
X12469701Y-14986843D02*
X12479224Y-14967795D01*
X12479224Y-14967795D02*
X12488748Y-14958271D01*
X12488748Y-14958271D02*
X12507796Y-14948747D01*
X12660177Y-15129700D02*
X12669701Y-15139224D01*
X12669701Y-15139224D02*
X12660177Y-15148747D01*
X12660177Y-15148747D02*
X12650653Y-15139224D01*
X12650653Y-15139224D02*
X12660177Y-15129700D01*
X12660177Y-15129700D02*
X12660177Y-15148747D01*
X12793510Y-14948747D02*
X12812558Y-14948747D01*
X12812558Y-14948747D02*
X12831605Y-14958271D01*
X12831605Y-14958271D02*
X12841129Y-14967795D01*
X12841129Y-14967795D02*
X12850653Y-14986843D01*
X12850653Y-14986843D02*
X12860177Y-15024938D01*
X12860177Y-15024938D02*
X12860177Y-15072557D01*
X12860177Y-15072557D02*
X12850653Y-15110652D01*
X12850653Y-15110652D02*
X12841129Y-15129700D01*
X12841129Y-15129700D02*
X12831605Y-15139224D01*
X12831605Y-15139224D02*
X12812558Y-15148747D01*
X12812558Y-15148747D02*
X12793510Y-15148747D01*
X12793510Y-15148747D02*
X12774462Y-15139224D01*
X12774462Y-15139224D02*
X12764939Y-15129700D01*
X12764939Y-15129700D02*
X12755415Y-15110652D01*
X12755415Y-15110652D02*
X12745891Y-15072557D01*
X12745891Y-15072557D02*
X12745891Y-15024938D01*
X12745891Y-15024938D02*
X12755415Y-14986843D01*
X12755415Y-14986843D02*
X12764939Y-14967795D01*
X12764939Y-14967795D02*
X12774462Y-14958271D01*
X12774462Y-14958271D02*
X12793510Y-14948747D01*
X12926843Y-14948747D02*
X13050653Y-14948747D01*
X13050653Y-14948747D02*
X12983986Y-15024938D01*
X12983986Y-15024938D02*
X13012558Y-15024938D01*
X13012558Y-15024938D02*
X13031605Y-15034462D01*
X13031605Y-15034462D02*
X13041129Y-15043986D01*
X13041129Y-15043986D02*
X13050653Y-15063033D01*
X13050653Y-15063033D02*
X13050653Y-15110652D01*
X13050653Y-15110652D02*
X13041129Y-15129700D01*
X13041129Y-15129700D02*
X13031605Y-15139224D01*
X13031605Y-15139224D02*
X13012558Y-15148747D01*
X13012558Y-15148747D02*
X12955415Y-15148747D01*
X12955415Y-15148747D02*
X12936367Y-15139224D01*
X12936367Y-15139224D02*
X12926843Y-15129700D01*
X13145891Y-15148747D02*
X13183986Y-15148747D01*
X13183986Y-15148747D02*
X13203034Y-15139224D01*
X13203034Y-15139224D02*
X13212558Y-15129700D01*
X13212558Y-15129700D02*
X13231605Y-15101128D01*
X13231605Y-15101128D02*
X13241129Y-15063033D01*
X13241129Y-15063033D02*
X13241129Y-14986843D01*
X13241129Y-14986843D02*
X13231605Y-14967795D01*
X13231605Y-14967795D02*
X13222082Y-14958271D01*
X13222082Y-14958271D02*
X13203034Y-14948747D01*
X13203034Y-14948747D02*
X13164939Y-14948747D01*
X13164939Y-14948747D02*
X13145891Y-14958271D01*
X13145891Y-14958271D02*
X13136367Y-14967795D01*
X13136367Y-14967795D02*
X13126843Y-14986843D01*
X13126843Y-14986843D02*
X13126843Y-15034462D01*
X13126843Y-15034462D02*
X13136367Y-15053509D01*
X13136367Y-15053509D02*
X13145891Y-15063033D01*
X13145891Y-15063033D02*
X13164939Y-15072557D01*
X13164939Y-15072557D02*
X13203034Y-15072557D01*
X13203034Y-15072557D02*
X13222082Y-15063033D01*
X13222082Y-15063033D02*
X13231605Y-15053509D01*
X13231605Y-15053509D02*
X13241129Y-15034462D01*
X13412558Y-15015414D02*
X13412558Y-15148747D01*
X13364939Y-14939224D02*
X13317320Y-15082081D01*
X13317320Y-15082081D02*
X13441129Y-15082081D01*
X13507796Y-14948747D02*
X13507796Y-14986843D01*
X13583986Y-14948747D02*
X13583986Y-14986843D01*
X13879225Y-15224938D02*
X13869701Y-15215414D01*
X13869701Y-15215414D02*
X13850653Y-15186843D01*
X13850653Y-15186843D02*
X13841129Y-15167795D01*
X13841129Y-15167795D02*
X13831605Y-15139224D01*
X13831605Y-15139224D02*
X13822082Y-15091605D01*
X13822082Y-15091605D02*
X13822082Y-15053509D01*
X13822082Y-15053509D02*
X13831605Y-15005890D01*
X13831605Y-15005890D02*
X13841129Y-14977319D01*
X13841129Y-14977319D02*
X13850653Y-14958271D01*
X13850653Y-14958271D02*
X13869701Y-14929700D01*
X13869701Y-14929700D02*
X13879225Y-14920176D01*
X13945891Y-14967795D02*
X13955415Y-14958271D01*
X13955415Y-14958271D02*
X13974463Y-14948747D01*
X13974463Y-14948747D02*
X14022082Y-14948747D01*
X14022082Y-14948747D02*
X14041129Y-14958271D01*
X14041129Y-14958271D02*
X14050653Y-14967795D01*
X14050653Y-14967795D02*
X14060177Y-14986843D01*
X14060177Y-14986843D02*
X14060177Y-15005890D01*
X14060177Y-15005890D02*
X14050653Y-15034462D01*
X14050653Y-15034462D02*
X13936367Y-15148747D01*
X13936367Y-15148747D02*
X14060177Y-15148747D01*
X14231605Y-15015414D02*
X14231605Y-15148747D01*
X14183986Y-14939224D02*
X14136367Y-15082081D01*
X14136367Y-15082081D02*
X14260177Y-15082081D01*
X14488748Y-15148747D02*
X14488748Y-14948747D01*
X14574463Y-15148747D02*
X14574463Y-15043986D01*
X14574463Y-15043986D02*
X14564939Y-15024938D01*
X14564939Y-15024938D02*
X14545891Y-15015414D01*
X14545891Y-15015414D02*
X14517320Y-15015414D01*
X14517320Y-15015414D02*
X14498272Y-15024938D01*
X14498272Y-15024938D02*
X14488748Y-15034462D01*
X14698272Y-15148747D02*
X14679225Y-15139224D01*
X14679225Y-15139224D02*
X14669701Y-15129700D01*
X14669701Y-15129700D02*
X14660177Y-15110652D01*
X14660177Y-15110652D02*
X14660177Y-15053509D01*
X14660177Y-15053509D02*
X14669701Y-15034462D01*
X14669701Y-15034462D02*
X14679225Y-15024938D01*
X14679225Y-15024938D02*
X14698272Y-15015414D01*
X14698272Y-15015414D02*
X14726844Y-15015414D01*
X14726844Y-15015414D02*
X14745891Y-15024938D01*
X14745891Y-15024938D02*
X14755415Y-15034462D01*
X14755415Y-15034462D02*
X14764939Y-15053509D01*
X14764939Y-15053509D02*
X14764939Y-15110652D01*
X14764939Y-15110652D02*
X14755415Y-15129700D01*
X14755415Y-15129700D02*
X14745891Y-15139224D01*
X14745891Y-15139224D02*
X14726844Y-15148747D01*
X14726844Y-15148747D02*
X14698272Y-15148747D01*
X14879225Y-15148747D02*
X14860177Y-15139224D01*
X14860177Y-15139224D02*
X14850653Y-15120176D01*
X14850653Y-15120176D02*
X14850653Y-14948747D01*
X15031606Y-15139224D02*
X15012558Y-15148747D01*
X15012558Y-15148747D02*
X14974463Y-15148747D01*
X14974463Y-15148747D02*
X14955415Y-15139224D01*
X14955415Y-15139224D02*
X14945891Y-15120176D01*
X14945891Y-15120176D02*
X14945891Y-15043986D01*
X14945891Y-15043986D02*
X14955415Y-15024938D01*
X14955415Y-15024938D02*
X14974463Y-15015414D01*
X14974463Y-15015414D02*
X15012558Y-15015414D01*
X15012558Y-15015414D02*
X15031606Y-15024938D01*
X15031606Y-15024938D02*
X15041129Y-15043986D01*
X15041129Y-15043986D02*
X15041129Y-15063033D01*
X15041129Y-15063033D02*
X14945891Y-15082081D01*
X15117320Y-15139224D02*
X15136367Y-15148747D01*
X15136367Y-15148747D02*
X15174463Y-15148747D01*
X15174463Y-15148747D02*
X15193510Y-15139224D01*
X15193510Y-15139224D02*
X15203034Y-15120176D01*
X15203034Y-15120176D02*
X15203034Y-15110652D01*
X15203034Y-15110652D02*
X15193510Y-15091605D01*
X15193510Y-15091605D02*
X15174463Y-15082081D01*
X15174463Y-15082081D02*
X15145891Y-15082081D01*
X15145891Y-15082081D02*
X15126844Y-15072557D01*
X15126844Y-15072557D02*
X15117320Y-15053509D01*
X15117320Y-15053509D02*
X15117320Y-15043986D01*
X15117320Y-15043986D02*
X15126844Y-15024938D01*
X15126844Y-15024938D02*
X15145891Y-15015414D01*
X15145891Y-15015414D02*
X15174463Y-15015414D01*
X15174463Y-15015414D02*
X15193510Y-15024938D01*
X15269701Y-15224938D02*
X15279225Y-15215414D01*
X15279225Y-15215414D02*
X15298272Y-15186843D01*
X15298272Y-15186843D02*
X15307796Y-15167795D01*
X15307796Y-15167795D02*
X15317320Y-15139224D01*
X15317320Y-15139224D02*
X15326844Y-15091605D01*
X15326844Y-15091605D02*
X15326844Y-15053509D01*
X15326844Y-15053509D02*
X15317320Y-15005890D01*
X15317320Y-15005890D02*
X15307796Y-14977319D01*
X15307796Y-14977319D02*
X15298272Y-14958271D01*
X15298272Y-14958271D02*
X15279225Y-14929700D01*
X15279225Y-14929700D02*
X15269701Y-14920176D01*
D13*
X10249662Y-15375764D02*
X10304162Y-15321264D01*
X10249662Y-15266764D01*
X10195162Y-15321264D01*
X10249662Y-15375764D01*
D11*
X10669700Y-15412747D02*
X10555415Y-15412747D01*
X10612558Y-15412747D02*
X10612558Y-15212747D01*
X10612558Y-15212747D02*
X10593510Y-15241319D01*
X10593510Y-15241319D02*
X10574462Y-15260366D01*
X10574462Y-15260366D02*
X10555415Y-15269890D01*
X10755415Y-15393700D02*
X10764939Y-15403224D01*
X10764939Y-15403224D02*
X10755415Y-15412747D01*
X10755415Y-15412747D02*
X10745891Y-15403224D01*
X10745891Y-15403224D02*
X10755415Y-15393700D01*
X10755415Y-15393700D02*
X10755415Y-15412747D01*
X10888748Y-15212747D02*
X10907796Y-15212747D01*
X10907796Y-15212747D02*
X10926843Y-15222271D01*
X10926843Y-15222271D02*
X10936367Y-15231795D01*
X10936367Y-15231795D02*
X10945891Y-15250843D01*
X10945891Y-15250843D02*
X10955415Y-15288938D01*
X10955415Y-15288938D02*
X10955415Y-15336557D01*
X10955415Y-15336557D02*
X10945891Y-15374652D01*
X10945891Y-15374652D02*
X10936367Y-15393700D01*
X10936367Y-15393700D02*
X10926843Y-15403224D01*
X10926843Y-15403224D02*
X10907796Y-15412747D01*
X10907796Y-15412747D02*
X10888748Y-15412747D01*
X10888748Y-15412747D02*
X10869700Y-15403224D01*
X10869700Y-15403224D02*
X10860177Y-15393700D01*
X10860177Y-15393700D02*
X10850653Y-15374652D01*
X10850653Y-15374652D02*
X10841129Y-15336557D01*
X10841129Y-15336557D02*
X10841129Y-15288938D01*
X10841129Y-15288938D02*
X10850653Y-15250843D01*
X10850653Y-15250843D02*
X10860177Y-15231795D01*
X10860177Y-15231795D02*
X10869700Y-15222271D01*
X10869700Y-15222271D02*
X10888748Y-15212747D01*
X11050653Y-15412747D02*
X11088748Y-15412747D01*
X11088748Y-15412747D02*
X11107796Y-15403224D01*
X11107796Y-15403224D02*
X11117320Y-15393700D01*
X11117320Y-15393700D02*
X11136367Y-15365128D01*
X11136367Y-15365128D02*
X11145891Y-15327033D01*
X11145891Y-15327033D02*
X11145891Y-15250843D01*
X11145891Y-15250843D02*
X11136367Y-15231795D01*
X11136367Y-15231795D02*
X11126843Y-15222271D01*
X11126843Y-15222271D02*
X11107796Y-15212747D01*
X11107796Y-15212747D02*
X11069700Y-15212747D01*
X11069700Y-15212747D02*
X11050653Y-15222271D01*
X11050653Y-15222271D02*
X11041129Y-15231795D01*
X11041129Y-15231795D02*
X11031605Y-15250843D01*
X11031605Y-15250843D02*
X11031605Y-15298462D01*
X11031605Y-15298462D02*
X11041129Y-15317509D01*
X11041129Y-15317509D02*
X11050653Y-15327033D01*
X11050653Y-15327033D02*
X11069700Y-15336557D01*
X11069700Y-15336557D02*
X11107796Y-15336557D01*
X11107796Y-15336557D02*
X11126843Y-15327033D01*
X11126843Y-15327033D02*
X11136367Y-15317509D01*
X11136367Y-15317509D02*
X11145891Y-15298462D01*
X11269700Y-15212747D02*
X11288748Y-15212747D01*
X11288748Y-15212747D02*
X11307796Y-15222271D01*
X11307796Y-15222271D02*
X11317319Y-15231795D01*
X11317319Y-15231795D02*
X11326843Y-15250843D01*
X11326843Y-15250843D02*
X11336367Y-15288938D01*
X11336367Y-15288938D02*
X11336367Y-15336557D01*
X11336367Y-15336557D02*
X11326843Y-15374652D01*
X11326843Y-15374652D02*
X11317319Y-15393700D01*
X11317319Y-15393700D02*
X11307796Y-15403224D01*
X11307796Y-15403224D02*
X11288748Y-15412747D01*
X11288748Y-15412747D02*
X11269700Y-15412747D01*
X11269700Y-15412747D02*
X11250653Y-15403224D01*
X11250653Y-15403224D02*
X11241129Y-15393700D01*
X11241129Y-15393700D02*
X11231605Y-15374652D01*
X11231605Y-15374652D02*
X11222081Y-15336557D01*
X11222081Y-15336557D02*
X11222081Y-15288938D01*
X11222081Y-15288938D02*
X11231605Y-15250843D01*
X11231605Y-15250843D02*
X11241129Y-15231795D01*
X11241129Y-15231795D02*
X11250653Y-15222271D01*
X11250653Y-15222271D02*
X11269700Y-15212747D01*
X11422081Y-15412747D02*
X11422081Y-15279414D01*
X11422081Y-15298462D02*
X11431605Y-15288938D01*
X11431605Y-15288938D02*
X11450653Y-15279414D01*
X11450653Y-15279414D02*
X11479224Y-15279414D01*
X11479224Y-15279414D02*
X11498272Y-15288938D01*
X11498272Y-15288938D02*
X11507796Y-15307986D01*
X11507796Y-15307986D02*
X11507796Y-15412747D01*
X11507796Y-15307986D02*
X11517319Y-15288938D01*
X11517319Y-15288938D02*
X11536367Y-15279414D01*
X11536367Y-15279414D02*
X11564938Y-15279414D01*
X11564938Y-15279414D02*
X11583986Y-15288938D01*
X11583986Y-15288938D02*
X11593510Y-15307986D01*
X11593510Y-15307986D02*
X11593510Y-15412747D01*
X11688748Y-15412747D02*
X11688748Y-15279414D01*
X11688748Y-15298462D02*
X11698272Y-15288938D01*
X11698272Y-15288938D02*
X11717319Y-15279414D01*
X11717319Y-15279414D02*
X11745891Y-15279414D01*
X11745891Y-15279414D02*
X11764939Y-15288938D01*
X11764939Y-15288938D02*
X11774462Y-15307986D01*
X11774462Y-15307986D02*
X11774462Y-15412747D01*
X11774462Y-15307986D02*
X11783986Y-15288938D01*
X11783986Y-15288938D02*
X11803034Y-15279414D01*
X11803034Y-15279414D02*
X11831605Y-15279414D01*
X11831605Y-15279414D02*
X11850653Y-15288938D01*
X11850653Y-15288938D02*
X11860177Y-15307986D01*
X11860177Y-15307986D02*
X11860177Y-15412747D01*
X12250653Y-15203224D02*
X12079224Y-15460366D01*
X12507796Y-15212747D02*
X12526843Y-15212747D01*
X12526843Y-15212747D02*
X12545891Y-15222271D01*
X12545891Y-15222271D02*
X12555415Y-15231795D01*
X12555415Y-15231795D02*
X12564939Y-15250843D01*
X12564939Y-15250843D02*
X12574462Y-15288938D01*
X12574462Y-15288938D02*
X12574462Y-15336557D01*
X12574462Y-15336557D02*
X12564939Y-15374652D01*
X12564939Y-15374652D02*
X12555415Y-15393700D01*
X12555415Y-15393700D02*
X12545891Y-15403224D01*
X12545891Y-15403224D02*
X12526843Y-15412747D01*
X12526843Y-15412747D02*
X12507796Y-15412747D01*
X12507796Y-15412747D02*
X12488748Y-15403224D01*
X12488748Y-15403224D02*
X12479224Y-15393700D01*
X12479224Y-15393700D02*
X12469701Y-15374652D01*
X12469701Y-15374652D02*
X12460177Y-15336557D01*
X12460177Y-15336557D02*
X12460177Y-15288938D01*
X12460177Y-15288938D02*
X12469701Y-15250843D01*
X12469701Y-15250843D02*
X12479224Y-15231795D01*
X12479224Y-15231795D02*
X12488748Y-15222271D01*
X12488748Y-15222271D02*
X12507796Y-15212747D01*
X12660177Y-15393700D02*
X12669701Y-15403224D01*
X12669701Y-15403224D02*
X12660177Y-15412747D01*
X12660177Y-15412747D02*
X12650653Y-15403224D01*
X12650653Y-15403224D02*
X12660177Y-15393700D01*
X12660177Y-15393700D02*
X12660177Y-15412747D01*
X12793510Y-15212747D02*
X12812558Y-15212747D01*
X12812558Y-15212747D02*
X12831605Y-15222271D01*
X12831605Y-15222271D02*
X12841129Y-15231795D01*
X12841129Y-15231795D02*
X12850653Y-15250843D01*
X12850653Y-15250843D02*
X12860177Y-15288938D01*
X12860177Y-15288938D02*
X12860177Y-15336557D01*
X12860177Y-15336557D02*
X12850653Y-15374652D01*
X12850653Y-15374652D02*
X12841129Y-15393700D01*
X12841129Y-15393700D02*
X12831605Y-15403224D01*
X12831605Y-15403224D02*
X12812558Y-15412747D01*
X12812558Y-15412747D02*
X12793510Y-15412747D01*
X12793510Y-15412747D02*
X12774462Y-15403224D01*
X12774462Y-15403224D02*
X12764939Y-15393700D01*
X12764939Y-15393700D02*
X12755415Y-15374652D01*
X12755415Y-15374652D02*
X12745891Y-15336557D01*
X12745891Y-15336557D02*
X12745891Y-15288938D01*
X12745891Y-15288938D02*
X12755415Y-15250843D01*
X12755415Y-15250843D02*
X12764939Y-15231795D01*
X12764939Y-15231795D02*
X12774462Y-15222271D01*
X12774462Y-15222271D02*
X12793510Y-15212747D01*
X13031605Y-15279414D02*
X13031605Y-15412747D01*
X12983986Y-15203224D02*
X12936367Y-15346081D01*
X12936367Y-15346081D02*
X13060177Y-15346081D01*
X13126843Y-15231795D02*
X13136367Y-15222271D01*
X13136367Y-15222271D02*
X13155415Y-15212747D01*
X13155415Y-15212747D02*
X13203034Y-15212747D01*
X13203034Y-15212747D02*
X13222082Y-15222271D01*
X13222082Y-15222271D02*
X13231605Y-15231795D01*
X13231605Y-15231795D02*
X13241129Y-15250843D01*
X13241129Y-15250843D02*
X13241129Y-15269890D01*
X13241129Y-15269890D02*
X13231605Y-15298462D01*
X13231605Y-15298462D02*
X13117320Y-15412747D01*
X13117320Y-15412747D02*
X13241129Y-15412747D01*
X13336367Y-15412747D02*
X13374462Y-15412747D01*
X13374462Y-15412747D02*
X13393510Y-15403224D01*
X13393510Y-15403224D02*
X13403034Y-15393700D01*
X13403034Y-15393700D02*
X13422082Y-15365128D01*
X13422082Y-15365128D02*
X13431605Y-15327033D01*
X13431605Y-15327033D02*
X13431605Y-15250843D01*
X13431605Y-15250843D02*
X13422082Y-15231795D01*
X13422082Y-15231795D02*
X13412558Y-15222271D01*
X13412558Y-15222271D02*
X13393510Y-15212747D01*
X13393510Y-15212747D02*
X13355415Y-15212747D01*
X13355415Y-15212747D02*
X13336367Y-15222271D01*
X13336367Y-15222271D02*
X13326843Y-15231795D01*
X13326843Y-15231795D02*
X13317320Y-15250843D01*
X13317320Y-15250843D02*
X13317320Y-15298462D01*
X13317320Y-15298462D02*
X13326843Y-15317509D01*
X13326843Y-15317509D02*
X13336367Y-15327033D01*
X13336367Y-15327033D02*
X13355415Y-15336557D01*
X13355415Y-15336557D02*
X13393510Y-15336557D01*
X13393510Y-15336557D02*
X13412558Y-15327033D01*
X13412558Y-15327033D02*
X13422082Y-15317509D01*
X13422082Y-15317509D02*
X13431605Y-15298462D01*
X13507796Y-15212747D02*
X13507796Y-15250843D01*
X13583986Y-15212747D02*
X13583986Y-15250843D01*
X13879225Y-15488938D02*
X13869701Y-15479414D01*
X13869701Y-15479414D02*
X13850653Y-15450843D01*
X13850653Y-15450843D02*
X13841129Y-15431795D01*
X13841129Y-15431795D02*
X13831605Y-15403224D01*
X13831605Y-15403224D02*
X13822082Y-15355605D01*
X13822082Y-15355605D02*
X13822082Y-15317509D01*
X13822082Y-15317509D02*
X13831605Y-15269890D01*
X13831605Y-15269890D02*
X13841129Y-15241319D01*
X13841129Y-15241319D02*
X13850653Y-15222271D01*
X13850653Y-15222271D02*
X13869701Y-15193700D01*
X13869701Y-15193700D02*
X13879225Y-15184176D01*
X14041129Y-15279414D02*
X14041129Y-15412747D01*
X13993510Y-15203224D02*
X13945891Y-15346081D01*
X13945891Y-15346081D02*
X14069701Y-15346081D01*
X14298272Y-15412747D02*
X14298272Y-15212747D01*
X14383986Y-15412747D02*
X14383986Y-15307986D01*
X14383986Y-15307986D02*
X14374463Y-15288938D01*
X14374463Y-15288938D02*
X14355415Y-15279414D01*
X14355415Y-15279414D02*
X14326844Y-15279414D01*
X14326844Y-15279414D02*
X14307796Y-15288938D01*
X14307796Y-15288938D02*
X14298272Y-15298462D01*
X14507796Y-15412747D02*
X14488748Y-15403224D01*
X14488748Y-15403224D02*
X14479225Y-15393700D01*
X14479225Y-15393700D02*
X14469701Y-15374652D01*
X14469701Y-15374652D02*
X14469701Y-15317509D01*
X14469701Y-15317509D02*
X14479225Y-15298462D01*
X14479225Y-15298462D02*
X14488748Y-15288938D01*
X14488748Y-15288938D02*
X14507796Y-15279414D01*
X14507796Y-15279414D02*
X14536367Y-15279414D01*
X14536367Y-15279414D02*
X14555415Y-15288938D01*
X14555415Y-15288938D02*
X14564939Y-15298462D01*
X14564939Y-15298462D02*
X14574463Y-15317509D01*
X14574463Y-15317509D02*
X14574463Y-15374652D01*
X14574463Y-15374652D02*
X14564939Y-15393700D01*
X14564939Y-15393700D02*
X14555415Y-15403224D01*
X14555415Y-15403224D02*
X14536367Y-15412747D01*
X14536367Y-15412747D02*
X14507796Y-15412747D01*
X14688748Y-15412747D02*
X14669701Y-15403224D01*
X14669701Y-15403224D02*
X14660177Y-15384176D01*
X14660177Y-15384176D02*
X14660177Y-15212747D01*
X14841129Y-15403224D02*
X14822082Y-15412747D01*
X14822082Y-15412747D02*
X14783986Y-15412747D01*
X14783986Y-15412747D02*
X14764939Y-15403224D01*
X14764939Y-15403224D02*
X14755415Y-15384176D01*
X14755415Y-15384176D02*
X14755415Y-15307986D01*
X14755415Y-15307986D02*
X14764939Y-15288938D01*
X14764939Y-15288938D02*
X14783986Y-15279414D01*
X14783986Y-15279414D02*
X14822082Y-15279414D01*
X14822082Y-15279414D02*
X14841129Y-15288938D01*
X14841129Y-15288938D02*
X14850653Y-15307986D01*
X14850653Y-15307986D02*
X14850653Y-15327033D01*
X14850653Y-15327033D02*
X14755415Y-15346081D01*
X14926844Y-15403224D02*
X14945891Y-15412747D01*
X14945891Y-15412747D02*
X14983986Y-15412747D01*
X14983986Y-15412747D02*
X15003034Y-15403224D01*
X15003034Y-15403224D02*
X15012558Y-15384176D01*
X15012558Y-15384176D02*
X15012558Y-15374652D01*
X15012558Y-15374652D02*
X15003034Y-15355605D01*
X15003034Y-15355605D02*
X14983986Y-15346081D01*
X14983986Y-15346081D02*
X14955415Y-15346081D01*
X14955415Y-15346081D02*
X14936367Y-15336557D01*
X14936367Y-15336557D02*
X14926844Y-15317509D01*
X14926844Y-15317509D02*
X14926844Y-15307986D01*
X14926844Y-15307986D02*
X14936367Y-15288938D01*
X14936367Y-15288938D02*
X14955415Y-15279414D01*
X14955415Y-15279414D02*
X14983986Y-15279414D01*
X14983986Y-15279414D02*
X15003034Y-15288938D01*
X15079225Y-15488938D02*
X15088748Y-15479414D01*
X15088748Y-15479414D02*
X15107796Y-15450843D01*
X15107796Y-15450843D02*
X15117320Y-15431795D01*
X15117320Y-15431795D02*
X15126844Y-15403224D01*
X15126844Y-15403224D02*
X15136367Y-15355605D01*
X15136367Y-15355605D02*
X15136367Y-15317509D01*
X15136367Y-15317509D02*
X15126844Y-15269890D01*
X15126844Y-15269890D02*
X15117320Y-15241319D01*
X15117320Y-15241319D02*
X15107796Y-15222271D01*
X15107796Y-15222271D02*
X15088748Y-15193700D01*
X15088748Y-15193700D02*
X15079225Y-15184176D01*
D14*
X10194942Y-15530654D02*
X10304162Y-15639874D01*
X10304162Y-15530654D02*
X10194942Y-15639874D01*
X10304162Y-15585264D02*
G75*
G02*
X10194942Y-15585264I-54610J0D01*
G01*
X10194942Y-15585264D02*
G75*
G02*
X10304162Y-15585264I54610J0D01*
G01*
D11*
X10669700Y-15676747D02*
X10555415Y-15676747D01*
X10612558Y-15676747D02*
X10612558Y-15476747D01*
X10612558Y-15476747D02*
X10593510Y-15505319D01*
X10593510Y-15505319D02*
X10574462Y-15524366D01*
X10574462Y-15524366D02*
X10555415Y-15533890D01*
X10755415Y-15657700D02*
X10764939Y-15667224D01*
X10764939Y-15667224D02*
X10755415Y-15676747D01*
X10755415Y-15676747D02*
X10745891Y-15667224D01*
X10745891Y-15667224D02*
X10755415Y-15657700D01*
X10755415Y-15657700D02*
X10755415Y-15676747D01*
X10888748Y-15476747D02*
X10907796Y-15476747D01*
X10907796Y-15476747D02*
X10926843Y-15486271D01*
X10926843Y-15486271D02*
X10936367Y-15495795D01*
X10936367Y-15495795D02*
X10945891Y-15514843D01*
X10945891Y-15514843D02*
X10955415Y-15552938D01*
X10955415Y-15552938D02*
X10955415Y-15600557D01*
X10955415Y-15600557D02*
X10945891Y-15638652D01*
X10945891Y-15638652D02*
X10936367Y-15657700D01*
X10936367Y-15657700D02*
X10926843Y-15667224D01*
X10926843Y-15667224D02*
X10907796Y-15676747D01*
X10907796Y-15676747D02*
X10888748Y-15676747D01*
X10888748Y-15676747D02*
X10869700Y-15667224D01*
X10869700Y-15667224D02*
X10860177Y-15657700D01*
X10860177Y-15657700D02*
X10850653Y-15638652D01*
X10850653Y-15638652D02*
X10841129Y-15600557D01*
X10841129Y-15600557D02*
X10841129Y-15552938D01*
X10841129Y-15552938D02*
X10850653Y-15514843D01*
X10850653Y-15514843D02*
X10860177Y-15495795D01*
X10860177Y-15495795D02*
X10869700Y-15486271D01*
X10869700Y-15486271D02*
X10888748Y-15476747D01*
X11050653Y-15676747D02*
X11088748Y-15676747D01*
X11088748Y-15676747D02*
X11107796Y-15667224D01*
X11107796Y-15667224D02*
X11117320Y-15657700D01*
X11117320Y-15657700D02*
X11136367Y-15629128D01*
X11136367Y-15629128D02*
X11145891Y-15591033D01*
X11145891Y-15591033D02*
X11145891Y-15514843D01*
X11145891Y-15514843D02*
X11136367Y-15495795D01*
X11136367Y-15495795D02*
X11126843Y-15486271D01*
X11126843Y-15486271D02*
X11107796Y-15476747D01*
X11107796Y-15476747D02*
X11069700Y-15476747D01*
X11069700Y-15476747D02*
X11050653Y-15486271D01*
X11050653Y-15486271D02*
X11041129Y-15495795D01*
X11041129Y-15495795D02*
X11031605Y-15514843D01*
X11031605Y-15514843D02*
X11031605Y-15562462D01*
X11031605Y-15562462D02*
X11041129Y-15581509D01*
X11041129Y-15581509D02*
X11050653Y-15591033D01*
X11050653Y-15591033D02*
X11069700Y-15600557D01*
X11069700Y-15600557D02*
X11107796Y-15600557D01*
X11107796Y-15600557D02*
X11126843Y-15591033D01*
X11126843Y-15591033D02*
X11136367Y-15581509D01*
X11136367Y-15581509D02*
X11145891Y-15562462D01*
X11222081Y-15495795D02*
X11231605Y-15486271D01*
X11231605Y-15486271D02*
X11250653Y-15476747D01*
X11250653Y-15476747D02*
X11298272Y-15476747D01*
X11298272Y-15476747D02*
X11317319Y-15486271D01*
X11317319Y-15486271D02*
X11326843Y-15495795D01*
X11326843Y-15495795D02*
X11336367Y-15514843D01*
X11336367Y-15514843D02*
X11336367Y-15533890D01*
X11336367Y-15533890D02*
X11326843Y-15562462D01*
X11326843Y-15562462D02*
X11212558Y-15676747D01*
X11212558Y-15676747D02*
X11336367Y-15676747D01*
X11422081Y-15676747D02*
X11422081Y-15543414D01*
X11422081Y-15562462D02*
X11431605Y-15552938D01*
X11431605Y-15552938D02*
X11450653Y-15543414D01*
X11450653Y-15543414D02*
X11479224Y-15543414D01*
X11479224Y-15543414D02*
X11498272Y-15552938D01*
X11498272Y-15552938D02*
X11507796Y-15571986D01*
X11507796Y-15571986D02*
X11507796Y-15676747D01*
X11507796Y-15571986D02*
X11517319Y-15552938D01*
X11517319Y-15552938D02*
X11536367Y-15543414D01*
X11536367Y-15543414D02*
X11564938Y-15543414D01*
X11564938Y-15543414D02*
X11583986Y-15552938D01*
X11583986Y-15552938D02*
X11593510Y-15571986D01*
X11593510Y-15571986D02*
X11593510Y-15676747D01*
X11688748Y-15676747D02*
X11688748Y-15543414D01*
X11688748Y-15562462D02*
X11698272Y-15552938D01*
X11698272Y-15552938D02*
X11717319Y-15543414D01*
X11717319Y-15543414D02*
X11745891Y-15543414D01*
X11745891Y-15543414D02*
X11764939Y-15552938D01*
X11764939Y-15552938D02*
X11774462Y-15571986D01*
X11774462Y-15571986D02*
X11774462Y-15676747D01*
X11774462Y-15571986D02*
X11783986Y-15552938D01*
X11783986Y-15552938D02*
X11803034Y-15543414D01*
X11803034Y-15543414D02*
X11831605Y-15543414D01*
X11831605Y-15543414D02*
X11850653Y-15552938D01*
X11850653Y-15552938D02*
X11860177Y-15571986D01*
X11860177Y-15571986D02*
X11860177Y-15676747D01*
X12250653Y-15467224D02*
X12079224Y-15724366D01*
X12507796Y-15476747D02*
X12526843Y-15476747D01*
X12526843Y-15476747D02*
X12545891Y-15486271D01*
X12545891Y-15486271D02*
X12555415Y-15495795D01*
X12555415Y-15495795D02*
X12564939Y-15514843D01*
X12564939Y-15514843D02*
X12574462Y-15552938D01*
X12574462Y-15552938D02*
X12574462Y-15600557D01*
X12574462Y-15600557D02*
X12564939Y-15638652D01*
X12564939Y-15638652D02*
X12555415Y-15657700D01*
X12555415Y-15657700D02*
X12545891Y-15667224D01*
X12545891Y-15667224D02*
X12526843Y-15676747D01*
X12526843Y-15676747D02*
X12507796Y-15676747D01*
X12507796Y-15676747D02*
X12488748Y-15667224D01*
X12488748Y-15667224D02*
X12479224Y-15657700D01*
X12479224Y-15657700D02*
X12469701Y-15638652D01*
X12469701Y-15638652D02*
X12460177Y-15600557D01*
X12460177Y-15600557D02*
X12460177Y-15552938D01*
X12460177Y-15552938D02*
X12469701Y-15514843D01*
X12469701Y-15514843D02*
X12479224Y-15495795D01*
X12479224Y-15495795D02*
X12488748Y-15486271D01*
X12488748Y-15486271D02*
X12507796Y-15476747D01*
X12660177Y-15657700D02*
X12669701Y-15667224D01*
X12669701Y-15667224D02*
X12660177Y-15676747D01*
X12660177Y-15676747D02*
X12650653Y-15667224D01*
X12650653Y-15667224D02*
X12660177Y-15657700D01*
X12660177Y-15657700D02*
X12660177Y-15676747D01*
X12793510Y-15476747D02*
X12812558Y-15476747D01*
X12812558Y-15476747D02*
X12831605Y-15486271D01*
X12831605Y-15486271D02*
X12841129Y-15495795D01*
X12841129Y-15495795D02*
X12850653Y-15514843D01*
X12850653Y-15514843D02*
X12860177Y-15552938D01*
X12860177Y-15552938D02*
X12860177Y-15600557D01*
X12860177Y-15600557D02*
X12850653Y-15638652D01*
X12850653Y-15638652D02*
X12841129Y-15657700D01*
X12841129Y-15657700D02*
X12831605Y-15667224D01*
X12831605Y-15667224D02*
X12812558Y-15676747D01*
X12812558Y-15676747D02*
X12793510Y-15676747D01*
X12793510Y-15676747D02*
X12774462Y-15667224D01*
X12774462Y-15667224D02*
X12764939Y-15657700D01*
X12764939Y-15657700D02*
X12755415Y-15638652D01*
X12755415Y-15638652D02*
X12745891Y-15600557D01*
X12745891Y-15600557D02*
X12745891Y-15552938D01*
X12745891Y-15552938D02*
X12755415Y-15514843D01*
X12755415Y-15514843D02*
X12764939Y-15495795D01*
X12764939Y-15495795D02*
X12774462Y-15486271D01*
X12774462Y-15486271D02*
X12793510Y-15476747D01*
X13031605Y-15543414D02*
X13031605Y-15676747D01*
X12983986Y-15467224D02*
X12936367Y-15610081D01*
X12936367Y-15610081D02*
X13060177Y-15610081D01*
X13117320Y-15476747D02*
X13241129Y-15476747D01*
X13241129Y-15476747D02*
X13174462Y-15552938D01*
X13174462Y-15552938D02*
X13203034Y-15552938D01*
X13203034Y-15552938D02*
X13222082Y-15562462D01*
X13222082Y-15562462D02*
X13231605Y-15571986D01*
X13231605Y-15571986D02*
X13241129Y-15591033D01*
X13241129Y-15591033D02*
X13241129Y-15638652D01*
X13241129Y-15638652D02*
X13231605Y-15657700D01*
X13231605Y-15657700D02*
X13222082Y-15667224D01*
X13222082Y-15667224D02*
X13203034Y-15676747D01*
X13203034Y-15676747D02*
X13145891Y-15676747D01*
X13145891Y-15676747D02*
X13126843Y-15667224D01*
X13126843Y-15667224D02*
X13117320Y-15657700D01*
X13364939Y-15476747D02*
X13383986Y-15476747D01*
X13383986Y-15476747D02*
X13403034Y-15486271D01*
X13403034Y-15486271D02*
X13412558Y-15495795D01*
X13412558Y-15495795D02*
X13422082Y-15514843D01*
X13422082Y-15514843D02*
X13431605Y-15552938D01*
X13431605Y-15552938D02*
X13431605Y-15600557D01*
X13431605Y-15600557D02*
X13422082Y-15638652D01*
X13422082Y-15638652D02*
X13412558Y-15657700D01*
X13412558Y-15657700D02*
X13403034Y-15667224D01*
X13403034Y-15667224D02*
X13383986Y-15676747D01*
X13383986Y-15676747D02*
X13364939Y-15676747D01*
X13364939Y-15676747D02*
X13345891Y-15667224D01*
X13345891Y-15667224D02*
X13336367Y-15657700D01*
X13336367Y-15657700D02*
X13326843Y-15638652D01*
X13326843Y-15638652D02*
X13317320Y-15600557D01*
X13317320Y-15600557D02*
X13317320Y-15552938D01*
X13317320Y-15552938D02*
X13326843Y-15514843D01*
X13326843Y-15514843D02*
X13336367Y-15495795D01*
X13336367Y-15495795D02*
X13345891Y-15486271D01*
X13345891Y-15486271D02*
X13364939Y-15476747D01*
X13507796Y-15476747D02*
X13507796Y-15514843D01*
X13583986Y-15476747D02*
X13583986Y-15514843D01*
X13879225Y-15752938D02*
X13869701Y-15743414D01*
X13869701Y-15743414D02*
X13850653Y-15714843D01*
X13850653Y-15714843D02*
X13841129Y-15695795D01*
X13841129Y-15695795D02*
X13831605Y-15667224D01*
X13831605Y-15667224D02*
X13822082Y-15619605D01*
X13822082Y-15619605D02*
X13822082Y-15581509D01*
X13822082Y-15581509D02*
X13831605Y-15533890D01*
X13831605Y-15533890D02*
X13841129Y-15505319D01*
X13841129Y-15505319D02*
X13850653Y-15486271D01*
X13850653Y-15486271D02*
X13869701Y-15457700D01*
X13869701Y-15457700D02*
X13879225Y-15448176D01*
X13945891Y-15495795D02*
X13955415Y-15486271D01*
X13955415Y-15486271D02*
X13974463Y-15476747D01*
X13974463Y-15476747D02*
X14022082Y-15476747D01*
X14022082Y-15476747D02*
X14041129Y-15486271D01*
X14041129Y-15486271D02*
X14050653Y-15495795D01*
X14050653Y-15495795D02*
X14060177Y-15514843D01*
X14060177Y-15514843D02*
X14060177Y-15533890D01*
X14060177Y-15533890D02*
X14050653Y-15562462D01*
X14050653Y-15562462D02*
X13936367Y-15676747D01*
X13936367Y-15676747D02*
X14060177Y-15676747D01*
X14231605Y-15543414D02*
X14231605Y-15676747D01*
X14183986Y-15467224D02*
X14136367Y-15610081D01*
X14136367Y-15610081D02*
X14260177Y-15610081D01*
X14488748Y-15676747D02*
X14488748Y-15476747D01*
X14574463Y-15676747D02*
X14574463Y-15571986D01*
X14574463Y-15571986D02*
X14564939Y-15552938D01*
X14564939Y-15552938D02*
X14545891Y-15543414D01*
X14545891Y-15543414D02*
X14517320Y-15543414D01*
X14517320Y-15543414D02*
X14498272Y-15552938D01*
X14498272Y-15552938D02*
X14488748Y-15562462D01*
X14698272Y-15676747D02*
X14679225Y-15667224D01*
X14679225Y-15667224D02*
X14669701Y-15657700D01*
X14669701Y-15657700D02*
X14660177Y-15638652D01*
X14660177Y-15638652D02*
X14660177Y-15581509D01*
X14660177Y-15581509D02*
X14669701Y-15562462D01*
X14669701Y-15562462D02*
X14679225Y-15552938D01*
X14679225Y-15552938D02*
X14698272Y-15543414D01*
X14698272Y-15543414D02*
X14726844Y-15543414D01*
X14726844Y-15543414D02*
X14745891Y-15552938D01*
X14745891Y-15552938D02*
X14755415Y-15562462D01*
X14755415Y-15562462D02*
X14764939Y-15581509D01*
X14764939Y-15581509D02*
X14764939Y-15638652D01*
X14764939Y-15638652D02*
X14755415Y-15657700D01*
X14755415Y-15657700D02*
X14745891Y-15667224D01*
X14745891Y-15667224D02*
X14726844Y-15676747D01*
X14726844Y-15676747D02*
X14698272Y-15676747D01*
X14879225Y-15676747D02*
X14860177Y-15667224D01*
X14860177Y-15667224D02*
X14850653Y-15648176D01*
X14850653Y-15648176D02*
X14850653Y-15476747D01*
X15031606Y-15667224D02*
X15012558Y-15676747D01*
X15012558Y-15676747D02*
X14974463Y-15676747D01*
X14974463Y-15676747D02*
X14955415Y-15667224D01*
X14955415Y-15667224D02*
X14945891Y-15648176D01*
X14945891Y-15648176D02*
X14945891Y-15571986D01*
X14945891Y-15571986D02*
X14955415Y-15552938D01*
X14955415Y-15552938D02*
X14974463Y-15543414D01*
X14974463Y-15543414D02*
X15012558Y-15543414D01*
X15012558Y-15543414D02*
X15031606Y-15552938D01*
X15031606Y-15552938D02*
X15041129Y-15571986D01*
X15041129Y-15571986D02*
X15041129Y-15591033D01*
X15041129Y-15591033D02*
X14945891Y-15610081D01*
X15117320Y-15667224D02*
X15136367Y-15676747D01*
X15136367Y-15676747D02*
X15174463Y-15676747D01*
X15174463Y-15676747D02*
X15193510Y-15667224D01*
X15193510Y-15667224D02*
X15203034Y-15648176D01*
X15203034Y-15648176D02*
X15203034Y-15638652D01*
X15203034Y-15638652D02*
X15193510Y-15619605D01*
X15193510Y-15619605D02*
X15174463Y-15610081D01*
X15174463Y-15610081D02*
X15145891Y-15610081D01*
X15145891Y-15610081D02*
X15126844Y-15600557D01*
X15126844Y-15600557D02*
X15117320Y-15581509D01*
X15117320Y-15581509D02*
X15117320Y-15571986D01*
X15117320Y-15571986D02*
X15126844Y-15552938D01*
X15126844Y-15552938D02*
X15145891Y-15543414D01*
X15145891Y-15543414D02*
X15174463Y-15543414D01*
X15174463Y-15543414D02*
X15193510Y-15552938D01*
X15269701Y-15752938D02*
X15279225Y-15743414D01*
X15279225Y-15743414D02*
X15298272Y-15714843D01*
X15298272Y-15714843D02*
X15307796Y-15695795D01*
X15307796Y-15695795D02*
X15317320Y-15667224D01*
X15317320Y-15667224D02*
X15326844Y-15619605D01*
X15326844Y-15619605D02*
X15326844Y-15581509D01*
X15326844Y-15581509D02*
X15317320Y-15533890D01*
X15317320Y-15533890D02*
X15307796Y-15505319D01*
X15307796Y-15505319D02*
X15298272Y-15486271D01*
X15298272Y-15486271D02*
X15279225Y-15457700D01*
X15279225Y-15457700D02*
X15269701Y-15448176D01*
D15*
X10184162Y-15789264D02*
X10304162Y-15909264D01*
X10304162Y-15789264D02*
X10184162Y-15909264D01*
X10244162Y-15789264D02*
X10244162Y-15909264D01*
X10184162Y-15849264D02*
X10304162Y-15849264D01*
D11*
X10669700Y-15940747D02*
X10555415Y-15940747D01*
X10612558Y-15940747D02*
X10612558Y-15740747D01*
X10612558Y-15740747D02*
X10593510Y-15769319D01*
X10593510Y-15769319D02*
X10574462Y-15788366D01*
X10574462Y-15788366D02*
X10555415Y-15797890D01*
X10755415Y-15921700D02*
X10764939Y-15931224D01*
X10764939Y-15931224D02*
X10755415Y-15940747D01*
X10755415Y-15940747D02*
X10745891Y-15931224D01*
X10745891Y-15931224D02*
X10755415Y-15921700D01*
X10755415Y-15921700D02*
X10755415Y-15940747D01*
X10841129Y-15759795D02*
X10850653Y-15750271D01*
X10850653Y-15750271D02*
X10869700Y-15740747D01*
X10869700Y-15740747D02*
X10917320Y-15740747D01*
X10917320Y-15740747D02*
X10936367Y-15750271D01*
X10936367Y-15750271D02*
X10945891Y-15759795D01*
X10945891Y-15759795D02*
X10955415Y-15778843D01*
X10955415Y-15778843D02*
X10955415Y-15797890D01*
X10955415Y-15797890D02*
X10945891Y-15826462D01*
X10945891Y-15826462D02*
X10831605Y-15940747D01*
X10831605Y-15940747D02*
X10955415Y-15940747D01*
X11079224Y-15740747D02*
X11098272Y-15740747D01*
X11098272Y-15740747D02*
X11117320Y-15750271D01*
X11117320Y-15750271D02*
X11126843Y-15759795D01*
X11126843Y-15759795D02*
X11136367Y-15778843D01*
X11136367Y-15778843D02*
X11145891Y-15816938D01*
X11145891Y-15816938D02*
X11145891Y-15864557D01*
X11145891Y-15864557D02*
X11136367Y-15902652D01*
X11136367Y-15902652D02*
X11126843Y-15921700D01*
X11126843Y-15921700D02*
X11117320Y-15931224D01*
X11117320Y-15931224D02*
X11098272Y-15940747D01*
X11098272Y-15940747D02*
X11079224Y-15940747D01*
X11079224Y-15940747D02*
X11060177Y-15931224D01*
X11060177Y-15931224D02*
X11050653Y-15921700D01*
X11050653Y-15921700D02*
X11041129Y-15902652D01*
X11041129Y-15902652D02*
X11031605Y-15864557D01*
X11031605Y-15864557D02*
X11031605Y-15816938D01*
X11031605Y-15816938D02*
X11041129Y-15778843D01*
X11041129Y-15778843D02*
X11050653Y-15759795D01*
X11050653Y-15759795D02*
X11060177Y-15750271D01*
X11060177Y-15750271D02*
X11079224Y-15740747D01*
X11269700Y-15740747D02*
X11288748Y-15740747D01*
X11288748Y-15740747D02*
X11307796Y-15750271D01*
X11307796Y-15750271D02*
X11317319Y-15759795D01*
X11317319Y-15759795D02*
X11326843Y-15778843D01*
X11326843Y-15778843D02*
X11336367Y-15816938D01*
X11336367Y-15816938D02*
X11336367Y-15864557D01*
X11336367Y-15864557D02*
X11326843Y-15902652D01*
X11326843Y-15902652D02*
X11317319Y-15921700D01*
X11317319Y-15921700D02*
X11307796Y-15931224D01*
X11307796Y-15931224D02*
X11288748Y-15940747D01*
X11288748Y-15940747D02*
X11269700Y-15940747D01*
X11269700Y-15940747D02*
X11250653Y-15931224D01*
X11250653Y-15931224D02*
X11241129Y-15921700D01*
X11241129Y-15921700D02*
X11231605Y-15902652D01*
X11231605Y-15902652D02*
X11222081Y-15864557D01*
X11222081Y-15864557D02*
X11222081Y-15816938D01*
X11222081Y-15816938D02*
X11231605Y-15778843D01*
X11231605Y-15778843D02*
X11241129Y-15759795D01*
X11241129Y-15759795D02*
X11250653Y-15750271D01*
X11250653Y-15750271D02*
X11269700Y-15740747D01*
X11422081Y-15940747D02*
X11422081Y-15807414D01*
X11422081Y-15826462D02*
X11431605Y-15816938D01*
X11431605Y-15816938D02*
X11450653Y-15807414D01*
X11450653Y-15807414D02*
X11479224Y-15807414D01*
X11479224Y-15807414D02*
X11498272Y-15816938D01*
X11498272Y-15816938D02*
X11507796Y-15835986D01*
X11507796Y-15835986D02*
X11507796Y-15940747D01*
X11507796Y-15835986D02*
X11517319Y-15816938D01*
X11517319Y-15816938D02*
X11536367Y-15807414D01*
X11536367Y-15807414D02*
X11564938Y-15807414D01*
X11564938Y-15807414D02*
X11583986Y-15816938D01*
X11583986Y-15816938D02*
X11593510Y-15835986D01*
X11593510Y-15835986D02*
X11593510Y-15940747D01*
X11688748Y-15940747D02*
X11688748Y-15807414D01*
X11688748Y-15826462D02*
X11698272Y-15816938D01*
X11698272Y-15816938D02*
X11717319Y-15807414D01*
X11717319Y-15807414D02*
X11745891Y-15807414D01*
X11745891Y-15807414D02*
X11764939Y-15816938D01*
X11764939Y-15816938D02*
X11774462Y-15835986D01*
X11774462Y-15835986D02*
X11774462Y-15940747D01*
X11774462Y-15835986D02*
X11783986Y-15816938D01*
X11783986Y-15816938D02*
X11803034Y-15807414D01*
X11803034Y-15807414D02*
X11831605Y-15807414D01*
X11831605Y-15807414D02*
X11850653Y-15816938D01*
X11850653Y-15816938D02*
X11860177Y-15835986D01*
X11860177Y-15835986D02*
X11860177Y-15940747D01*
X12250653Y-15731224D02*
X12079224Y-15988366D01*
X12507796Y-15740747D02*
X12526843Y-15740747D01*
X12526843Y-15740747D02*
X12545891Y-15750271D01*
X12545891Y-15750271D02*
X12555415Y-15759795D01*
X12555415Y-15759795D02*
X12564939Y-15778843D01*
X12564939Y-15778843D02*
X12574462Y-15816938D01*
X12574462Y-15816938D02*
X12574462Y-15864557D01*
X12574462Y-15864557D02*
X12564939Y-15902652D01*
X12564939Y-15902652D02*
X12555415Y-15921700D01*
X12555415Y-15921700D02*
X12545891Y-15931224D01*
X12545891Y-15931224D02*
X12526843Y-15940747D01*
X12526843Y-15940747D02*
X12507796Y-15940747D01*
X12507796Y-15940747D02*
X12488748Y-15931224D01*
X12488748Y-15931224D02*
X12479224Y-15921700D01*
X12479224Y-15921700D02*
X12469701Y-15902652D01*
X12469701Y-15902652D02*
X12460177Y-15864557D01*
X12460177Y-15864557D02*
X12460177Y-15816938D01*
X12460177Y-15816938D02*
X12469701Y-15778843D01*
X12469701Y-15778843D02*
X12479224Y-15759795D01*
X12479224Y-15759795D02*
X12488748Y-15750271D01*
X12488748Y-15750271D02*
X12507796Y-15740747D01*
X12660177Y-15921700D02*
X12669701Y-15931224D01*
X12669701Y-15931224D02*
X12660177Y-15940747D01*
X12660177Y-15940747D02*
X12650653Y-15931224D01*
X12650653Y-15931224D02*
X12660177Y-15921700D01*
X12660177Y-15921700D02*
X12660177Y-15940747D01*
X12793510Y-15740747D02*
X12812558Y-15740747D01*
X12812558Y-15740747D02*
X12831605Y-15750271D01*
X12831605Y-15750271D02*
X12841129Y-15759795D01*
X12841129Y-15759795D02*
X12850653Y-15778843D01*
X12850653Y-15778843D02*
X12860177Y-15816938D01*
X12860177Y-15816938D02*
X12860177Y-15864557D01*
X12860177Y-15864557D02*
X12850653Y-15902652D01*
X12850653Y-15902652D02*
X12841129Y-15921700D01*
X12841129Y-15921700D02*
X12831605Y-15931224D01*
X12831605Y-15931224D02*
X12812558Y-15940747D01*
X12812558Y-15940747D02*
X12793510Y-15940747D01*
X12793510Y-15940747D02*
X12774462Y-15931224D01*
X12774462Y-15931224D02*
X12764939Y-15921700D01*
X12764939Y-15921700D02*
X12755415Y-15902652D01*
X12755415Y-15902652D02*
X12745891Y-15864557D01*
X12745891Y-15864557D02*
X12745891Y-15816938D01*
X12745891Y-15816938D02*
X12755415Y-15778843D01*
X12755415Y-15778843D02*
X12764939Y-15759795D01*
X12764939Y-15759795D02*
X12774462Y-15750271D01*
X12774462Y-15750271D02*
X12793510Y-15740747D01*
X13031605Y-15807414D02*
X13031605Y-15940747D01*
X12983986Y-15731224D02*
X12936367Y-15874081D01*
X12936367Y-15874081D02*
X13060177Y-15874081D01*
X13117320Y-15740747D02*
X13250653Y-15740747D01*
X13250653Y-15740747D02*
X13164939Y-15940747D01*
X13317320Y-15759795D02*
X13326843Y-15750271D01*
X13326843Y-15750271D02*
X13345891Y-15740747D01*
X13345891Y-15740747D02*
X13393510Y-15740747D01*
X13393510Y-15740747D02*
X13412558Y-15750271D01*
X13412558Y-15750271D02*
X13422082Y-15759795D01*
X13422082Y-15759795D02*
X13431605Y-15778843D01*
X13431605Y-15778843D02*
X13431605Y-15797890D01*
X13431605Y-15797890D02*
X13422082Y-15826462D01*
X13422082Y-15826462D02*
X13307796Y-15940747D01*
X13307796Y-15940747D02*
X13431605Y-15940747D01*
X13507796Y-15740747D02*
X13507796Y-15778843D01*
X13583986Y-15740747D02*
X13583986Y-15778843D01*
X13879225Y-16016938D02*
X13869701Y-16007414D01*
X13869701Y-16007414D02*
X13850653Y-15978843D01*
X13850653Y-15978843D02*
X13841129Y-15959795D01*
X13841129Y-15959795D02*
X13831605Y-15931224D01*
X13831605Y-15931224D02*
X13822082Y-15883605D01*
X13822082Y-15883605D02*
X13822082Y-15845509D01*
X13822082Y-15845509D02*
X13831605Y-15797890D01*
X13831605Y-15797890D02*
X13841129Y-15769319D01*
X13841129Y-15769319D02*
X13850653Y-15750271D01*
X13850653Y-15750271D02*
X13869701Y-15721700D01*
X13869701Y-15721700D02*
X13879225Y-15712176D01*
X13936367Y-15740747D02*
X14060177Y-15740747D01*
X14060177Y-15740747D02*
X13993510Y-15816938D01*
X13993510Y-15816938D02*
X14022082Y-15816938D01*
X14022082Y-15816938D02*
X14041129Y-15826462D01*
X14041129Y-15826462D02*
X14050653Y-15835986D01*
X14050653Y-15835986D02*
X14060177Y-15855033D01*
X14060177Y-15855033D02*
X14060177Y-15902652D01*
X14060177Y-15902652D02*
X14050653Y-15921700D01*
X14050653Y-15921700D02*
X14041129Y-15931224D01*
X14041129Y-15931224D02*
X14022082Y-15940747D01*
X14022082Y-15940747D02*
X13964939Y-15940747D01*
X13964939Y-15940747D02*
X13945891Y-15931224D01*
X13945891Y-15931224D02*
X13936367Y-15921700D01*
X14231605Y-15740747D02*
X14193510Y-15740747D01*
X14193510Y-15740747D02*
X14174463Y-15750271D01*
X14174463Y-15750271D02*
X14164939Y-15759795D01*
X14164939Y-15759795D02*
X14145891Y-15788366D01*
X14145891Y-15788366D02*
X14136367Y-15826462D01*
X14136367Y-15826462D02*
X14136367Y-15902652D01*
X14136367Y-15902652D02*
X14145891Y-15921700D01*
X14145891Y-15921700D02*
X14155415Y-15931224D01*
X14155415Y-15931224D02*
X14174463Y-15940747D01*
X14174463Y-15940747D02*
X14212558Y-15940747D01*
X14212558Y-15940747D02*
X14231605Y-15931224D01*
X14231605Y-15931224D02*
X14241129Y-15921700D01*
X14241129Y-15921700D02*
X14250653Y-15902652D01*
X14250653Y-15902652D02*
X14250653Y-15855033D01*
X14250653Y-15855033D02*
X14241129Y-15835986D01*
X14241129Y-15835986D02*
X14231605Y-15826462D01*
X14231605Y-15826462D02*
X14212558Y-15816938D01*
X14212558Y-15816938D02*
X14174463Y-15816938D01*
X14174463Y-15816938D02*
X14155415Y-15826462D01*
X14155415Y-15826462D02*
X14145891Y-15835986D01*
X14145891Y-15835986D02*
X14136367Y-15855033D01*
X14488748Y-15940747D02*
X14488748Y-15740747D01*
X14574463Y-15940747D02*
X14574463Y-15835986D01*
X14574463Y-15835986D02*
X14564939Y-15816938D01*
X14564939Y-15816938D02*
X14545891Y-15807414D01*
X14545891Y-15807414D02*
X14517320Y-15807414D01*
X14517320Y-15807414D02*
X14498272Y-15816938D01*
X14498272Y-15816938D02*
X14488748Y-15826462D01*
X14698272Y-15940747D02*
X14679225Y-15931224D01*
X14679225Y-15931224D02*
X14669701Y-15921700D01*
X14669701Y-15921700D02*
X14660177Y-15902652D01*
X14660177Y-15902652D02*
X14660177Y-15845509D01*
X14660177Y-15845509D02*
X14669701Y-15826462D01*
X14669701Y-15826462D02*
X14679225Y-15816938D01*
X14679225Y-15816938D02*
X14698272Y-15807414D01*
X14698272Y-15807414D02*
X14726844Y-15807414D01*
X14726844Y-15807414D02*
X14745891Y-15816938D01*
X14745891Y-15816938D02*
X14755415Y-15826462D01*
X14755415Y-15826462D02*
X14764939Y-15845509D01*
X14764939Y-15845509D02*
X14764939Y-15902652D01*
X14764939Y-15902652D02*
X14755415Y-15921700D01*
X14755415Y-15921700D02*
X14745891Y-15931224D01*
X14745891Y-15931224D02*
X14726844Y-15940747D01*
X14726844Y-15940747D02*
X14698272Y-15940747D01*
X14879225Y-15940747D02*
X14860177Y-15931224D01*
X14860177Y-15931224D02*
X14850653Y-15912176D01*
X14850653Y-15912176D02*
X14850653Y-15740747D01*
X15031606Y-15931224D02*
X15012558Y-15940747D01*
X15012558Y-15940747D02*
X14974463Y-15940747D01*
X14974463Y-15940747D02*
X14955415Y-15931224D01*
X14955415Y-15931224D02*
X14945891Y-15912176D01*
X14945891Y-15912176D02*
X14945891Y-15835986D01*
X14945891Y-15835986D02*
X14955415Y-15816938D01*
X14955415Y-15816938D02*
X14974463Y-15807414D01*
X14974463Y-15807414D02*
X15012558Y-15807414D01*
X15012558Y-15807414D02*
X15031606Y-15816938D01*
X15031606Y-15816938D02*
X15041129Y-15835986D01*
X15041129Y-15835986D02*
X15041129Y-15855033D01*
X15041129Y-15855033D02*
X14945891Y-15874081D01*
X15117320Y-15931224D02*
X15136367Y-15940747D01*
X15136367Y-15940747D02*
X15174463Y-15940747D01*
X15174463Y-15940747D02*
X15193510Y-15931224D01*
X15193510Y-15931224D02*
X15203034Y-15912176D01*
X15203034Y-15912176D02*
X15203034Y-15902652D01*
X15203034Y-15902652D02*
X15193510Y-15883605D01*
X15193510Y-15883605D02*
X15174463Y-15874081D01*
X15174463Y-15874081D02*
X15145891Y-15874081D01*
X15145891Y-15874081D02*
X15126844Y-15864557D01*
X15126844Y-15864557D02*
X15117320Y-15845509D01*
X15117320Y-15845509D02*
X15117320Y-15835986D01*
X15117320Y-15835986D02*
X15126844Y-15816938D01*
X15126844Y-15816938D02*
X15145891Y-15807414D01*
X15145891Y-15807414D02*
X15174463Y-15807414D01*
X15174463Y-15807414D02*
X15193510Y-15816938D01*
X15269701Y-16016938D02*
X15279225Y-16007414D01*
X15279225Y-16007414D02*
X15298272Y-15978843D01*
X15298272Y-15978843D02*
X15307796Y-15959795D01*
X15307796Y-15959795D02*
X15317320Y-15931224D01*
X15317320Y-15931224D02*
X15326844Y-15883605D01*
X15326844Y-15883605D02*
X15326844Y-15845509D01*
X15326844Y-15845509D02*
X15317320Y-15797890D01*
X15317320Y-15797890D02*
X15307796Y-15769319D01*
X15307796Y-15769319D02*
X15298272Y-15750271D01*
X15298272Y-15750271D02*
X15279225Y-15721700D01*
X15279225Y-15721700D02*
X15269701Y-15712176D01*
X10104162Y-16013264D02*
X10304162Y-16213264D01*
X10304162Y-16013264D02*
X10104162Y-16213264D01*
X10274873Y-16183975D02*
X10274873Y-16042552D01*
X10133450Y-16042552D01*
X10133450Y-16183975D01*
X10274873Y-16183975D01*
X10555415Y-16023795D02*
X10564939Y-16014271D01*
X10564939Y-16014271D02*
X10583986Y-16004747D01*
X10583986Y-16004747D02*
X10631605Y-16004747D01*
X10631605Y-16004747D02*
X10650653Y-16014271D01*
X10650653Y-16014271D02*
X10660177Y-16023795D01*
X10660177Y-16023795D02*
X10669700Y-16042843D01*
X10669700Y-16042843D02*
X10669700Y-16061890D01*
X10669700Y-16061890D02*
X10660177Y-16090462D01*
X10660177Y-16090462D02*
X10545891Y-16204747D01*
X10545891Y-16204747D02*
X10669700Y-16204747D01*
X10755415Y-16185700D02*
X10764939Y-16195224D01*
X10764939Y-16195224D02*
X10755415Y-16204747D01*
X10755415Y-16204747D02*
X10745891Y-16195224D01*
X10745891Y-16195224D02*
X10755415Y-16185700D01*
X10755415Y-16185700D02*
X10755415Y-16204747D01*
X10841129Y-16023795D02*
X10850653Y-16014271D01*
X10850653Y-16014271D02*
X10869700Y-16004747D01*
X10869700Y-16004747D02*
X10917320Y-16004747D01*
X10917320Y-16004747D02*
X10936367Y-16014271D01*
X10936367Y-16014271D02*
X10945891Y-16023795D01*
X10945891Y-16023795D02*
X10955415Y-16042843D01*
X10955415Y-16042843D02*
X10955415Y-16061890D01*
X10955415Y-16061890D02*
X10945891Y-16090462D01*
X10945891Y-16090462D02*
X10831605Y-16204747D01*
X10831605Y-16204747D02*
X10955415Y-16204747D01*
X11079224Y-16004747D02*
X11098272Y-16004747D01*
X11098272Y-16004747D02*
X11117320Y-16014271D01*
X11117320Y-16014271D02*
X11126843Y-16023795D01*
X11126843Y-16023795D02*
X11136367Y-16042843D01*
X11136367Y-16042843D02*
X11145891Y-16080938D01*
X11145891Y-16080938D02*
X11145891Y-16128557D01*
X11145891Y-16128557D02*
X11136367Y-16166652D01*
X11136367Y-16166652D02*
X11126843Y-16185700D01*
X11126843Y-16185700D02*
X11117320Y-16195224D01*
X11117320Y-16195224D02*
X11098272Y-16204747D01*
X11098272Y-16204747D02*
X11079224Y-16204747D01*
X11079224Y-16204747D02*
X11060177Y-16195224D01*
X11060177Y-16195224D02*
X11050653Y-16185700D01*
X11050653Y-16185700D02*
X11041129Y-16166652D01*
X11041129Y-16166652D02*
X11031605Y-16128557D01*
X11031605Y-16128557D02*
X11031605Y-16080938D01*
X11031605Y-16080938D02*
X11041129Y-16042843D01*
X11041129Y-16042843D02*
X11050653Y-16023795D01*
X11050653Y-16023795D02*
X11060177Y-16014271D01*
X11060177Y-16014271D02*
X11079224Y-16004747D01*
X11269700Y-16004747D02*
X11288748Y-16004747D01*
X11288748Y-16004747D02*
X11307796Y-16014271D01*
X11307796Y-16014271D02*
X11317319Y-16023795D01*
X11317319Y-16023795D02*
X11326843Y-16042843D01*
X11326843Y-16042843D02*
X11336367Y-16080938D01*
X11336367Y-16080938D02*
X11336367Y-16128557D01*
X11336367Y-16128557D02*
X11326843Y-16166652D01*
X11326843Y-16166652D02*
X11317319Y-16185700D01*
X11317319Y-16185700D02*
X11307796Y-16195224D01*
X11307796Y-16195224D02*
X11288748Y-16204747D01*
X11288748Y-16204747D02*
X11269700Y-16204747D01*
X11269700Y-16204747D02*
X11250653Y-16195224D01*
X11250653Y-16195224D02*
X11241129Y-16185700D01*
X11241129Y-16185700D02*
X11231605Y-16166652D01*
X11231605Y-16166652D02*
X11222081Y-16128557D01*
X11222081Y-16128557D02*
X11222081Y-16080938D01*
X11222081Y-16080938D02*
X11231605Y-16042843D01*
X11231605Y-16042843D02*
X11241129Y-16023795D01*
X11241129Y-16023795D02*
X11250653Y-16014271D01*
X11250653Y-16014271D02*
X11269700Y-16004747D01*
X11422081Y-16204747D02*
X11422081Y-16071414D01*
X11422081Y-16090462D02*
X11431605Y-16080938D01*
X11431605Y-16080938D02*
X11450653Y-16071414D01*
X11450653Y-16071414D02*
X11479224Y-16071414D01*
X11479224Y-16071414D02*
X11498272Y-16080938D01*
X11498272Y-16080938D02*
X11507796Y-16099986D01*
X11507796Y-16099986D02*
X11507796Y-16204747D01*
X11507796Y-16099986D02*
X11517319Y-16080938D01*
X11517319Y-16080938D02*
X11536367Y-16071414D01*
X11536367Y-16071414D02*
X11564938Y-16071414D01*
X11564938Y-16071414D02*
X11583986Y-16080938D01*
X11583986Y-16080938D02*
X11593510Y-16099986D01*
X11593510Y-16099986D02*
X11593510Y-16204747D01*
X11688748Y-16204747D02*
X11688748Y-16071414D01*
X11688748Y-16090462D02*
X11698272Y-16080938D01*
X11698272Y-16080938D02*
X11717319Y-16071414D01*
X11717319Y-16071414D02*
X11745891Y-16071414D01*
X11745891Y-16071414D02*
X11764939Y-16080938D01*
X11764939Y-16080938D02*
X11774462Y-16099986D01*
X11774462Y-16099986D02*
X11774462Y-16204747D01*
X11774462Y-16099986D02*
X11783986Y-16080938D01*
X11783986Y-16080938D02*
X11803034Y-16071414D01*
X11803034Y-16071414D02*
X11831605Y-16071414D01*
X11831605Y-16071414D02*
X11850653Y-16080938D01*
X11850653Y-16080938D02*
X11860177Y-16099986D01*
X11860177Y-16099986D02*
X11860177Y-16204747D01*
X12250653Y-15995224D02*
X12079224Y-16252366D01*
X12507796Y-16004747D02*
X12526843Y-16004747D01*
X12526843Y-16004747D02*
X12545891Y-16014271D01*
X12545891Y-16014271D02*
X12555415Y-16023795D01*
X12555415Y-16023795D02*
X12564939Y-16042843D01*
X12564939Y-16042843D02*
X12574462Y-16080938D01*
X12574462Y-16080938D02*
X12574462Y-16128557D01*
X12574462Y-16128557D02*
X12564939Y-16166652D01*
X12564939Y-16166652D02*
X12555415Y-16185700D01*
X12555415Y-16185700D02*
X12545891Y-16195224D01*
X12545891Y-16195224D02*
X12526843Y-16204747D01*
X12526843Y-16204747D02*
X12507796Y-16204747D01*
X12507796Y-16204747D02*
X12488748Y-16195224D01*
X12488748Y-16195224D02*
X12479224Y-16185700D01*
X12479224Y-16185700D02*
X12469701Y-16166652D01*
X12469701Y-16166652D02*
X12460177Y-16128557D01*
X12460177Y-16128557D02*
X12460177Y-16080938D01*
X12460177Y-16080938D02*
X12469701Y-16042843D01*
X12469701Y-16042843D02*
X12479224Y-16023795D01*
X12479224Y-16023795D02*
X12488748Y-16014271D01*
X12488748Y-16014271D02*
X12507796Y-16004747D01*
X12660177Y-16185700D02*
X12669701Y-16195224D01*
X12669701Y-16195224D02*
X12660177Y-16204747D01*
X12660177Y-16204747D02*
X12650653Y-16195224D01*
X12650653Y-16195224D02*
X12660177Y-16185700D01*
X12660177Y-16185700D02*
X12660177Y-16204747D01*
X12793510Y-16004747D02*
X12812558Y-16004747D01*
X12812558Y-16004747D02*
X12831605Y-16014271D01*
X12831605Y-16014271D02*
X12841129Y-16023795D01*
X12841129Y-16023795D02*
X12850653Y-16042843D01*
X12850653Y-16042843D02*
X12860177Y-16080938D01*
X12860177Y-16080938D02*
X12860177Y-16128557D01*
X12860177Y-16128557D02*
X12850653Y-16166652D01*
X12850653Y-16166652D02*
X12841129Y-16185700D01*
X12841129Y-16185700D02*
X12831605Y-16195224D01*
X12831605Y-16195224D02*
X12812558Y-16204747D01*
X12812558Y-16204747D02*
X12793510Y-16204747D01*
X12793510Y-16204747D02*
X12774462Y-16195224D01*
X12774462Y-16195224D02*
X12764939Y-16185700D01*
X12764939Y-16185700D02*
X12755415Y-16166652D01*
X12755415Y-16166652D02*
X12745891Y-16128557D01*
X12745891Y-16128557D02*
X12745891Y-16080938D01*
X12745891Y-16080938D02*
X12755415Y-16042843D01*
X12755415Y-16042843D02*
X12764939Y-16023795D01*
X12764939Y-16023795D02*
X12774462Y-16014271D01*
X12774462Y-16014271D02*
X12793510Y-16004747D01*
X12974462Y-16090462D02*
X12955415Y-16080938D01*
X12955415Y-16080938D02*
X12945891Y-16071414D01*
X12945891Y-16071414D02*
X12936367Y-16052366D01*
X12936367Y-16052366D02*
X12936367Y-16042843D01*
X12936367Y-16042843D02*
X12945891Y-16023795D01*
X12945891Y-16023795D02*
X12955415Y-16014271D01*
X12955415Y-16014271D02*
X12974462Y-16004747D01*
X12974462Y-16004747D02*
X13012558Y-16004747D01*
X13012558Y-16004747D02*
X13031605Y-16014271D01*
X13031605Y-16014271D02*
X13041129Y-16023795D01*
X13041129Y-16023795D02*
X13050653Y-16042843D01*
X13050653Y-16042843D02*
X13050653Y-16052366D01*
X13050653Y-16052366D02*
X13041129Y-16071414D01*
X13041129Y-16071414D02*
X13031605Y-16080938D01*
X13031605Y-16080938D02*
X13012558Y-16090462D01*
X13012558Y-16090462D02*
X12974462Y-16090462D01*
X12974462Y-16090462D02*
X12955415Y-16099986D01*
X12955415Y-16099986D02*
X12945891Y-16109509D01*
X12945891Y-16109509D02*
X12936367Y-16128557D01*
X12936367Y-16128557D02*
X12936367Y-16166652D01*
X12936367Y-16166652D02*
X12945891Y-16185700D01*
X12945891Y-16185700D02*
X12955415Y-16195224D01*
X12955415Y-16195224D02*
X12974462Y-16204747D01*
X12974462Y-16204747D02*
X13012558Y-16204747D01*
X13012558Y-16204747D02*
X13031605Y-16195224D01*
X13031605Y-16195224D02*
X13041129Y-16185700D01*
X13041129Y-16185700D02*
X13050653Y-16166652D01*
X13050653Y-16166652D02*
X13050653Y-16128557D01*
X13050653Y-16128557D02*
X13041129Y-16109509D01*
X13041129Y-16109509D02*
X13031605Y-16099986D01*
X13031605Y-16099986D02*
X13012558Y-16090462D01*
X13222082Y-16004747D02*
X13183986Y-16004747D01*
X13183986Y-16004747D02*
X13164939Y-16014271D01*
X13164939Y-16014271D02*
X13155415Y-16023795D01*
X13155415Y-16023795D02*
X13136367Y-16052366D01*
X13136367Y-16052366D02*
X13126843Y-16090462D01*
X13126843Y-16090462D02*
X13126843Y-16166652D01*
X13126843Y-16166652D02*
X13136367Y-16185700D01*
X13136367Y-16185700D02*
X13145891Y-16195224D01*
X13145891Y-16195224D02*
X13164939Y-16204747D01*
X13164939Y-16204747D02*
X13203034Y-16204747D01*
X13203034Y-16204747D02*
X13222082Y-16195224D01*
X13222082Y-16195224D02*
X13231605Y-16185700D01*
X13231605Y-16185700D02*
X13241129Y-16166652D01*
X13241129Y-16166652D02*
X13241129Y-16119033D01*
X13241129Y-16119033D02*
X13231605Y-16099986D01*
X13231605Y-16099986D02*
X13222082Y-16090462D01*
X13222082Y-16090462D02*
X13203034Y-16080938D01*
X13203034Y-16080938D02*
X13164939Y-16080938D01*
X13164939Y-16080938D02*
X13145891Y-16090462D01*
X13145891Y-16090462D02*
X13136367Y-16099986D01*
X13136367Y-16099986D02*
X13126843Y-16119033D01*
X13412558Y-16004747D02*
X13374462Y-16004747D01*
X13374462Y-16004747D02*
X13355415Y-16014271D01*
X13355415Y-16014271D02*
X13345891Y-16023795D01*
X13345891Y-16023795D02*
X13326843Y-16052366D01*
X13326843Y-16052366D02*
X13317320Y-16090462D01*
X13317320Y-16090462D02*
X13317320Y-16166652D01*
X13317320Y-16166652D02*
X13326843Y-16185700D01*
X13326843Y-16185700D02*
X13336367Y-16195224D01*
X13336367Y-16195224D02*
X13355415Y-16204747D01*
X13355415Y-16204747D02*
X13393510Y-16204747D01*
X13393510Y-16204747D02*
X13412558Y-16195224D01*
X13412558Y-16195224D02*
X13422082Y-16185700D01*
X13422082Y-16185700D02*
X13431605Y-16166652D01*
X13431605Y-16166652D02*
X13431605Y-16119033D01*
X13431605Y-16119033D02*
X13422082Y-16099986D01*
X13422082Y-16099986D02*
X13412558Y-16090462D01*
X13412558Y-16090462D02*
X13393510Y-16080938D01*
X13393510Y-16080938D02*
X13355415Y-16080938D01*
X13355415Y-16080938D02*
X13336367Y-16090462D01*
X13336367Y-16090462D02*
X13326843Y-16099986D01*
X13326843Y-16099986D02*
X13317320Y-16119033D01*
X13507796Y-16004747D02*
X13507796Y-16042843D01*
X13583986Y-16004747D02*
X13583986Y-16042843D01*
X13879225Y-16280938D02*
X13869701Y-16271414D01*
X13869701Y-16271414D02*
X13850653Y-16242843D01*
X13850653Y-16242843D02*
X13841129Y-16223795D01*
X13841129Y-16223795D02*
X13831605Y-16195224D01*
X13831605Y-16195224D02*
X13822082Y-16147605D01*
X13822082Y-16147605D02*
X13822082Y-16109509D01*
X13822082Y-16109509D02*
X13831605Y-16061890D01*
X13831605Y-16061890D02*
X13841129Y-16033319D01*
X13841129Y-16033319D02*
X13850653Y-16014271D01*
X13850653Y-16014271D02*
X13869701Y-15985700D01*
X13869701Y-15985700D02*
X13879225Y-15976176D01*
X14060177Y-16204747D02*
X13945891Y-16204747D01*
X14003034Y-16204747D02*
X14003034Y-16004747D01*
X14003034Y-16004747D02*
X13983986Y-16033319D01*
X13983986Y-16033319D02*
X13964939Y-16052366D01*
X13964939Y-16052366D02*
X13945891Y-16061890D01*
X14183986Y-16004747D02*
X14203034Y-16004747D01*
X14203034Y-16004747D02*
X14222082Y-16014271D01*
X14222082Y-16014271D02*
X14231605Y-16023795D01*
X14231605Y-16023795D02*
X14241129Y-16042843D01*
X14241129Y-16042843D02*
X14250653Y-16080938D01*
X14250653Y-16080938D02*
X14250653Y-16128557D01*
X14250653Y-16128557D02*
X14241129Y-16166652D01*
X14241129Y-16166652D02*
X14231605Y-16185700D01*
X14231605Y-16185700D02*
X14222082Y-16195224D01*
X14222082Y-16195224D02*
X14203034Y-16204747D01*
X14203034Y-16204747D02*
X14183986Y-16204747D01*
X14183986Y-16204747D02*
X14164939Y-16195224D01*
X14164939Y-16195224D02*
X14155415Y-16185700D01*
X14155415Y-16185700D02*
X14145891Y-16166652D01*
X14145891Y-16166652D02*
X14136367Y-16128557D01*
X14136367Y-16128557D02*
X14136367Y-16080938D01*
X14136367Y-16080938D02*
X14145891Y-16042843D01*
X14145891Y-16042843D02*
X14155415Y-16023795D01*
X14155415Y-16023795D02*
X14164939Y-16014271D01*
X14164939Y-16014271D02*
X14183986Y-16004747D01*
X14488748Y-16204747D02*
X14488748Y-16004747D01*
X14574463Y-16204747D02*
X14574463Y-16099986D01*
X14574463Y-16099986D02*
X14564939Y-16080938D01*
X14564939Y-16080938D02*
X14545891Y-16071414D01*
X14545891Y-16071414D02*
X14517320Y-16071414D01*
X14517320Y-16071414D02*
X14498272Y-16080938D01*
X14498272Y-16080938D02*
X14488748Y-16090462D01*
X14698272Y-16204747D02*
X14679225Y-16195224D01*
X14679225Y-16195224D02*
X14669701Y-16185700D01*
X14669701Y-16185700D02*
X14660177Y-16166652D01*
X14660177Y-16166652D02*
X14660177Y-16109509D01*
X14660177Y-16109509D02*
X14669701Y-16090462D01*
X14669701Y-16090462D02*
X14679225Y-16080938D01*
X14679225Y-16080938D02*
X14698272Y-16071414D01*
X14698272Y-16071414D02*
X14726844Y-16071414D01*
X14726844Y-16071414D02*
X14745891Y-16080938D01*
X14745891Y-16080938D02*
X14755415Y-16090462D01*
X14755415Y-16090462D02*
X14764939Y-16109509D01*
X14764939Y-16109509D02*
X14764939Y-16166652D01*
X14764939Y-16166652D02*
X14755415Y-16185700D01*
X14755415Y-16185700D02*
X14745891Y-16195224D01*
X14745891Y-16195224D02*
X14726844Y-16204747D01*
X14726844Y-16204747D02*
X14698272Y-16204747D01*
X14879225Y-16204747D02*
X14860177Y-16195224D01*
X14860177Y-16195224D02*
X14850653Y-16176176D01*
X14850653Y-16176176D02*
X14850653Y-16004747D01*
X15031606Y-16195224D02*
X15012558Y-16204747D01*
X15012558Y-16204747D02*
X14974463Y-16204747D01*
X14974463Y-16204747D02*
X14955415Y-16195224D01*
X14955415Y-16195224D02*
X14945891Y-16176176D01*
X14945891Y-16176176D02*
X14945891Y-16099986D01*
X14945891Y-16099986D02*
X14955415Y-16080938D01*
X14955415Y-16080938D02*
X14974463Y-16071414D01*
X14974463Y-16071414D02*
X15012558Y-16071414D01*
X15012558Y-16071414D02*
X15031606Y-16080938D01*
X15031606Y-16080938D02*
X15041129Y-16099986D01*
X15041129Y-16099986D02*
X15041129Y-16119033D01*
X15041129Y-16119033D02*
X14945891Y-16138081D01*
X15117320Y-16195224D02*
X15136367Y-16204747D01*
X15136367Y-16204747D02*
X15174463Y-16204747D01*
X15174463Y-16204747D02*
X15193510Y-16195224D01*
X15193510Y-16195224D02*
X15203034Y-16176176D01*
X15203034Y-16176176D02*
X15203034Y-16166652D01*
X15203034Y-16166652D02*
X15193510Y-16147605D01*
X15193510Y-16147605D02*
X15174463Y-16138081D01*
X15174463Y-16138081D02*
X15145891Y-16138081D01*
X15145891Y-16138081D02*
X15126844Y-16128557D01*
X15126844Y-16128557D02*
X15117320Y-16109509D01*
X15117320Y-16109509D02*
X15117320Y-16099986D01*
X15117320Y-16099986D02*
X15126844Y-16080938D01*
X15126844Y-16080938D02*
X15145891Y-16071414D01*
X15145891Y-16071414D02*
X15174463Y-16071414D01*
X15174463Y-16071414D02*
X15193510Y-16080938D01*
X15269701Y-16280938D02*
X15279225Y-16271414D01*
X15279225Y-16271414D02*
X15298272Y-16242843D01*
X15298272Y-16242843D02*
X15307796Y-16223795D01*
X15307796Y-16223795D02*
X15317320Y-16195224D01*
X15317320Y-16195224D02*
X15326844Y-16147605D01*
X15326844Y-16147605D02*
X15326844Y-16109509D01*
X15326844Y-16109509D02*
X15317320Y-16061890D01*
X15317320Y-16061890D02*
X15307796Y-16033319D01*
X15307796Y-16033319D02*
X15298272Y-16014271D01*
X15298272Y-16014271D02*
X15279225Y-15985700D01*
X15279225Y-15985700D02*
X15269701Y-15976176D01*
M02*
