%TF.GenerationSoftware,KiCad,Pcbnew,8.0.5*%
%TF.CreationDate,2024-09-24T21:25:47+10:00*%
%TF.ProjectId,pueo-min-space,7075656f-2d6d-4696-9e2d-73706163652e,0.1*%
%TF.SameCoordinates,Original*%
%TF.FileFunction,Soldermask,Top*%
%TF.FilePolarity,Negative*%
%FSLAX46Y46*%
G04 Gerber Fmt 4.6, Leading zero omitted, Abs format (unit mm)*
G04 Created by KiCad (PCBNEW 8.0.5) date 2024-09-24 21:25:47*
%MOMM*%
%LPD*%
G01*
G04 APERTURE LIST*
G04 Aperture macros list*
%AMRoundRect*
0 Rectangle with rounded corners*
0 $1 Rounding radius*
0 $2 $3 $4 $5 $6 $7 $8 $9 X,Y pos of 4 corners*
0 Add a 4 corners polygon primitive as box body*
4,1,4,$2,$3,$4,$5,$6,$7,$8,$9,$2,$3,0*
0 Add four circle primitives for the rounded corners*
1,1,$1+$1,$2,$3*
1,1,$1+$1,$4,$5*
1,1,$1+$1,$6,$7*
1,1,$1+$1,$8,$9*
0 Add four rect primitives between the rounded corners*
20,1,$1+$1,$2,$3,$4,$5,0*
20,1,$1+$1,$4,$5,$6,$7,0*
20,1,$1+$1,$6,$7,$8,$9,0*
20,1,$1+$1,$8,$9,$2,$3,0*%
%AMFreePoly0*
4,1,16,0.535355,0.785355,0.550000,0.750000,0.550000,-0.750000,0.535355,-0.785355,0.500000,-0.800000,-0.650000,-0.800000,-0.685355,-0.785355,-0.700000,-0.750000,-0.691603,-0.722265,-0.210093,0.000000,-0.691603,0.722265,-0.699029,0.759806,-0.677735,0.791603,-0.650000,0.800000,0.500000,0.800000,0.535355,0.785355,0.535355,0.785355,$1*%
%AMFreePoly1*
4,1,16,0.535355,0.785355,0.541603,0.777735,1.041603,0.027735,1.049029,-0.009806,1.041603,-0.027735,0.541603,-0.777735,0.509806,-0.799029,0.500000,-0.800000,-0.500000,-0.800000,-0.535355,-0.785355,-0.550000,-0.750000,-0.550000,0.750000,-0.535355,0.785355,-0.500000,0.800000,0.500000,0.800000,0.535355,0.785355,0.535355,0.785355,$1*%
G04 Aperture macros list end*
%ADD10C,1.801800*%
%ADD11C,3.529000*%
%ADD12C,2.132000*%
%ADD13RoundRect,0.270833X-0.654167X0.379167X-0.654167X-0.379167X0.654167X-0.379167X0.654167X0.379167X0*%
%ADD14O,1.850000X1.300000*%
%ADD15FreePoly0,180.000000*%
%ADD16RoundRect,0.050000X-0.762000X0.250000X-0.762000X-0.250000X0.762000X-0.250000X0.762000X0.250000X0*%
%ADD17C,1.852600*%
%ADD18FreePoly1,180.000000*%
%ADD19C,2.100000*%
%ADD20RoundRect,0.050000X-0.800000X0.800000X-0.800000X-0.800000X0.800000X-0.800000X0.800000X0.800000X0*%
%ADD21C,1.700000*%
G04 APERTURE END LIST*
D10*
%TO.C,S12*%
X157820834Y-64477911D03*
D11*
X163320834Y-64477911D03*
D10*
X168820834Y-64477911D03*
D12*
X158320834Y-60677911D03*
X168320834Y-60677911D03*
X163320834Y-58577911D03*
%TD*%
D10*
%TO.C,S13*%
X173652522Y-102586798D03*
D11*
X178820831Y-104467909D03*
D10*
X183989140Y-106349020D03*
D12*
X175422044Y-99186976D03*
X184818971Y-102607178D03*
X180838750Y-98923723D03*
%TD*%
D10*
%TO.C,S9*%
X142320834Y-72227911D03*
D11*
X147820834Y-72227911D03*
D10*
X153320834Y-72227911D03*
D12*
X142820834Y-68427911D03*
X152820834Y-68427911D03*
X147820834Y-66327911D03*
%TD*%
D13*
%TO.C,J6*%
X187960420Y-84807747D03*
D14*
X187960417Y-86807747D03*
%TD*%
D10*
%TO.C,S4*%
X109511311Y-57875103D03*
D11*
X115003773Y-57587255D03*
D10*
X120496235Y-57299407D03*
D12*
X109811749Y-54054143D03*
X119798044Y-53530783D03*
X114694991Y-51695341D03*
%TD*%
D10*
%TO.C,S3*%
X110322518Y-73353863D03*
D11*
X115814980Y-73066015D03*
D10*
X121307442Y-72778167D03*
D12*
X110622956Y-69532903D03*
X120609251Y-69009543D03*
X115506198Y-67174101D03*
%TD*%
D10*
%TO.C,S7*%
X126820837Y-52852911D03*
D11*
X132320837Y-52852911D03*
D10*
X137820837Y-52852911D03*
D12*
X127320837Y-49052911D03*
X137320837Y-49052911D03*
X132320837Y-46952911D03*
%TD*%
D10*
%TO.C,S11*%
X157820834Y-79977912D03*
D11*
X163320834Y-79977912D03*
D10*
X168820834Y-79977912D03*
D12*
X158320834Y-76177912D03*
X168320834Y-76177912D03*
X163320834Y-74077912D03*
%TD*%
D10*
%TO.C,S10*%
X142320832Y-56727910D03*
D11*
X147820832Y-56727910D03*
D10*
X153320832Y-56727910D03*
D12*
X142820832Y-52927910D03*
X152820832Y-52927910D03*
X147820832Y-50827910D03*
%TD*%
D10*
%TO.C,S8*%
X142320836Y-87727913D03*
D11*
X147820836Y-87727913D03*
D10*
X153320836Y-87727913D03*
D12*
X142820836Y-83927913D03*
X152820836Y-83927913D03*
X147820836Y-81827913D03*
%TD*%
D10*
%TO.C,S2*%
X111133726Y-88832619D03*
D11*
X116626188Y-88544771D03*
D10*
X122118650Y-88256923D03*
D12*
X111434164Y-85011659D03*
X121420459Y-84488299D03*
X116317406Y-82652857D03*
%TD*%
D15*
%TO.C,MCU1*%
X175060833Y-53012911D03*
D16*
X174135834Y-53012912D03*
D17*
X172765840Y-53012913D03*
X188005829Y-53012915D03*
D15*
X175060833Y-55552912D03*
D16*
X174135832Y-55552912D03*
D17*
X172765833Y-55552912D03*
X188005833Y-55552913D03*
X172765834Y-58092911D03*
X188005835Y-58092912D03*
D15*
X175060834Y-58092912D03*
D16*
X174135832Y-58092912D03*
D17*
X188005834Y-60632914D03*
X172765833Y-60632914D03*
D18*
X176510830Y-53012911D03*
X176510833Y-55552911D03*
X176510833Y-58092912D03*
D17*
X188005833Y-63172912D03*
X188005833Y-65712911D03*
X188005833Y-68252913D03*
X188005834Y-70792913D03*
X188005833Y-73332910D03*
X188005832Y-75872913D03*
X188005833Y-78412912D03*
X188005826Y-80952911D03*
X172765832Y-63172911D03*
X172765833Y-65712911D03*
X172765833Y-68252913D03*
X172765833Y-70792912D03*
X172765832Y-73332910D03*
X172765831Y-75872912D03*
X172765833Y-78412911D03*
X172765837Y-80952909D03*
%TD*%
D10*
%TO.C,S1*%
X95483763Y-90878525D03*
D11*
X100930237Y-90113073D03*
D10*
X106376711Y-89347621D03*
D12*
X95450039Y-87045917D03*
X105352720Y-85654189D03*
X100109116Y-84270491D03*
%TD*%
D10*
%TO.C,S6*%
X126820832Y-68352913D03*
D11*
X132320832Y-68352913D03*
D10*
X137820832Y-68352913D03*
D12*
X127320832Y-64552913D03*
X137320832Y-64552913D03*
X132320832Y-62452913D03*
%TD*%
D19*
%TO.C,SW16*%
X160355000Y-52582000D03*
X166855000Y-52582000D03*
%TD*%
D10*
%TO.C,S5*%
X126820834Y-83852915D03*
D11*
X132320834Y-83852915D03*
D10*
X137820834Y-83852915D03*
D12*
X127320834Y-80052915D03*
X137320834Y-80052915D03*
X132320834Y-77952915D03*
%TD*%
D20*
%TO.C,on/off*%
X185809425Y-90730861D03*
D21*
X185809418Y-93230862D03*
X185809433Y-95730861D03*
X189009435Y-90730853D03*
X189009430Y-93230861D03*
X189009419Y-95730860D03*
%TD*%
M02*
