M48
; DRILL file {KiCad 8.0.5} date 2024-09-24T21:25:45+1000
; FORMAT={-:-/ absolute / inch / decimal}
; #@! TF.CreationDate,2024-09-24T21:25:45+10:00
; #@! TF.GenerationSoftware,Kicad,Pcbnew,8.0.5
; #@! TF.FileFunction,NonPlated,1,2,NPTH
FMAT,2
INCH
; #@! TA.AperFunction,NonPlated,NPTH,ComponentDrill
T1C0.0670
; #@! TA.AperFunction,NonPlated,NPTH,ComponentDrill
T2C0.1350
%
G90
G05
T1
X3.7592Y-3.5779
X4.1881Y-3.5176
X4.3115Y-2.2785
X4.3434Y-2.8879
X4.3753Y-3.4973
X4.7439Y-2.2559
X4.7759Y-2.8653
X4.8078Y-3.4747
X4.9929Y-2.6911
X4.9929Y-3.3013
X4.9929Y-2.0808
X5.426Y-2.6911
X5.426Y-3.3013
X5.426Y-2.0808
X5.6032Y-2.2334
X5.6032Y-2.8436
X5.6032Y-3.4539
X6.0363Y-2.2334
X6.0363Y-2.8436
X6.0363Y-3.4539
X6.2134Y-2.5385
X6.2134Y-3.1487
X6.6465Y-2.5385
X6.6465Y-3.1487
X6.8367Y-4.0389
X7.2437Y-4.187
T2
X3.9736Y-3.5478
X4.5277Y-2.2672
X4.5596Y-2.8766
X4.5916Y-3.486
X5.2095Y-2.6911
X5.2095Y-3.3013
X5.2095Y-2.0808
X5.8197Y-2.2334
X5.8197Y-2.8436
X5.8197Y-3.4539
X6.43Y-2.5385
X6.43Y-3.1487
X7.0402Y-4.1129
M30
