%TF.GenerationSoftware,KiCad,Pcbnew,8.0.5*%
%TF.CreationDate,2024-09-24T21:25:47+10:00*%
%TF.ProjectId,pueo-min-space,7075656f-2d6d-4696-9e2d-73706163652e,0.1*%
%TF.SameCoordinates,Original*%
%TF.FileFunction,Legend,Bot*%
%TF.FilePolarity,Positive*%
%FSLAX46Y46*%
G04 Gerber Fmt 4.6, Leading zero omitted, Abs format (unit mm)*
G04 Created by KiCad (PCBNEW 8.0.5) date 2024-09-24 21:25:47*
%MOMM*%
%LPD*%
G01*
G04 APERTURE LIST*
%ADD10C,0.150000*%
%ADD11C,0.120000*%
G04 APERTURE END LIST*
D10*
X182491677Y-53367141D02*
X182758344Y-52986188D01*
X182948820Y-53367141D02*
X182948820Y-52567141D01*
X182948820Y-52567141D02*
X182644058Y-52567141D01*
X182644058Y-52567141D02*
X182567868Y-52605236D01*
X182567868Y-52605236D02*
X182529773Y-52643331D01*
X182529773Y-52643331D02*
X182491677Y-52719522D01*
X182491677Y-52719522D02*
X182491677Y-52833807D01*
X182491677Y-52833807D02*
X182529773Y-52909998D01*
X182529773Y-52909998D02*
X182567868Y-52948093D01*
X182567868Y-52948093D02*
X182644058Y-52986188D01*
X182644058Y-52986188D02*
X182948820Y-52986188D01*
X182186916Y-53138569D02*
X181805963Y-53138569D01*
X182263106Y-53367141D02*
X181996439Y-52567141D01*
X181996439Y-52567141D02*
X181729773Y-53367141D01*
X181539297Y-52567141D02*
X181348821Y-53367141D01*
X181348821Y-53367141D02*
X181196440Y-52795712D01*
X181196440Y-52795712D02*
X181044059Y-53367141D01*
X181044059Y-53367141D02*
X180853583Y-52567141D01*
X182548819Y-55145242D02*
X182625009Y-55107147D01*
X182625009Y-55107147D02*
X182739295Y-55107147D01*
X182739295Y-55107147D02*
X182853581Y-55145242D01*
X182853581Y-55145242D02*
X182929771Y-55221432D01*
X182929771Y-55221432D02*
X182967866Y-55297623D01*
X182967866Y-55297623D02*
X183005962Y-55450004D01*
X183005962Y-55450004D02*
X183005962Y-55564290D01*
X183005962Y-55564290D02*
X182967866Y-55716671D01*
X182967866Y-55716671D02*
X182929771Y-55792861D01*
X182929771Y-55792861D02*
X182853581Y-55869052D01*
X182853581Y-55869052D02*
X182739295Y-55907147D01*
X182739295Y-55907147D02*
X182663104Y-55907147D01*
X182663104Y-55907147D02*
X182548819Y-55869052D01*
X182548819Y-55869052D02*
X182510723Y-55830956D01*
X182510723Y-55830956D02*
X182510723Y-55564290D01*
X182510723Y-55564290D02*
X182663104Y-55564290D01*
X182167866Y-55907147D02*
X182167866Y-55107147D01*
X182167866Y-55107147D02*
X181710723Y-55907147D01*
X181710723Y-55907147D02*
X181710723Y-55107147D01*
X181329771Y-55907147D02*
X181329771Y-55107147D01*
X181329771Y-55107147D02*
X181139295Y-55107147D01*
X181139295Y-55107147D02*
X181025009Y-55145242D01*
X181025009Y-55145242D02*
X180948819Y-55221432D01*
X180948819Y-55221432D02*
X180910724Y-55297623D01*
X180910724Y-55297623D02*
X180872628Y-55450004D01*
X180872628Y-55450004D02*
X180872628Y-55564290D01*
X180872628Y-55564290D02*
X180910724Y-55716671D01*
X180910724Y-55716671D02*
X180948819Y-55792861D01*
X180948819Y-55792861D02*
X181025009Y-55869052D01*
X181025009Y-55869052D02*
X181139295Y-55907147D01*
X181139295Y-55907147D02*
X181329771Y-55907147D01*
X182491675Y-58447147D02*
X182758342Y-58066194D01*
X182948818Y-58447147D02*
X182948818Y-57647147D01*
X182948818Y-57647147D02*
X182644056Y-57647147D01*
X182644056Y-57647147D02*
X182567866Y-57685242D01*
X182567866Y-57685242D02*
X182529771Y-57723337D01*
X182529771Y-57723337D02*
X182491675Y-57799528D01*
X182491675Y-57799528D02*
X182491675Y-57913813D01*
X182491675Y-57913813D02*
X182529771Y-57990004D01*
X182529771Y-57990004D02*
X182567866Y-58028099D01*
X182567866Y-58028099D02*
X182644056Y-58066194D01*
X182644056Y-58066194D02*
X182948818Y-58066194D01*
X182186914Y-58409052D02*
X182072628Y-58447147D01*
X182072628Y-58447147D02*
X181882152Y-58447147D01*
X181882152Y-58447147D02*
X181805961Y-58409052D01*
X181805961Y-58409052D02*
X181767866Y-58370956D01*
X181767866Y-58370956D02*
X181729771Y-58294766D01*
X181729771Y-58294766D02*
X181729771Y-58218575D01*
X181729771Y-58218575D02*
X181767866Y-58142385D01*
X181767866Y-58142385D02*
X181805961Y-58104290D01*
X181805961Y-58104290D02*
X181882152Y-58066194D01*
X181882152Y-58066194D02*
X182034533Y-58028099D01*
X182034533Y-58028099D02*
X182110723Y-57990004D01*
X182110723Y-57990004D02*
X182148818Y-57951909D01*
X182148818Y-57951909D02*
X182186914Y-57875718D01*
X182186914Y-57875718D02*
X182186914Y-57799528D01*
X182186914Y-57799528D02*
X182148818Y-57723337D01*
X182148818Y-57723337D02*
X182110723Y-57685242D01*
X182110723Y-57685242D02*
X182034533Y-57647147D01*
X182034533Y-57647147D02*
X181844056Y-57647147D01*
X181844056Y-57647147D02*
X181729771Y-57685242D01*
X181501199Y-57647147D02*
X181044056Y-57647147D01*
X181272628Y-58447147D02*
X181272628Y-57647147D01*
D11*
%TO.C,MCU1*%
X183585832Y-52012911D02*
X183585832Y-54012912D01*
X183585832Y-54012912D02*
X186385834Y-54012912D01*
X183585833Y-54552910D02*
X183585834Y-56552912D01*
X183585833Y-59092914D02*
X186385833Y-59092912D01*
X183585834Y-56552912D02*
X186385832Y-56552912D01*
X183585834Y-57092912D02*
X183585833Y-59092914D01*
X186385822Y-52682917D02*
X186385833Y-52012914D01*
X186385831Y-57092912D02*
X183585834Y-57092912D01*
X186385832Y-55232911D02*
X186385833Y-54552912D01*
X186385832Y-56552912D02*
X186385834Y-55882913D01*
X186385832Y-57757913D02*
X186385831Y-57092912D01*
X186385833Y-52012914D02*
X183585832Y-52012911D01*
X186385833Y-54552912D02*
X183585833Y-54552910D01*
X186385833Y-59092912D02*
X186385832Y-58432911D01*
X186385834Y-54012912D02*
X186385831Y-53332913D01*
%TD*%
M02*
