%TF.GenerationSoftware,KiCad,Pcbnew,8.0.5*%
%TF.CreationDate,2024-09-24T21:25:47+10:00*%
%TF.ProjectId,pueo-min-space,7075656f-2d6d-4696-9e2d-73706163652e,0.1*%
%TF.SameCoordinates,Original*%
%TF.FileFunction,Profile,NP*%
%FSLAX46Y46*%
G04 Gerber Fmt 4.6, Leading zero omitted, Abs format (unit mm)*
G04 Created by KiCad (PCBNEW 8.0.5) date 2024-09-24 21:25:47*
%MOMM*%
%LPD*%
G01*
G04 APERTURE LIST*
%TA.AperFunction,Profile*%
%ADD10C,0.150000*%
%TD*%
G04 APERTURE END LIST*
D10*
X94616607Y-99079016D02*
X105711247Y-97519766D01*
X189480835Y-48202914D02*
G75*
G02*
X189980786Y-48702916I-35J-499986D01*
G01*
X192363458Y-100883601D02*
G75*
G02*
X192662266Y-101524449I-170958J-469799D01*
G01*
X124320831Y-45352912D02*
X124320835Y-47702912D01*
X189980832Y-99666294D02*
X189980836Y-48702916D01*
X106780833Y-104002912D02*
X165505872Y-104002910D01*
X165278207Y-108052220D02*
G75*
G02*
X164979393Y-107411371I170993J469820D01*
G01*
X139820837Y-44852914D02*
G75*
G02*
X140320786Y-45352912I-37J-499986D01*
G01*
X187531995Y-115619848D02*
G75*
G02*
X186891124Y-115918721I-469895J171048D01*
G01*
X189480834Y-48202914D02*
X140820834Y-48202914D01*
X105850420Y-81342966D02*
X92389840Y-83234725D01*
X165505872Y-104002910D02*
G75*
G02*
X165975731Y-104673924I28J-499990D01*
G01*
X106780834Y-104002912D02*
G75*
G02*
X106280788Y-103502913I-34J500012D01*
G01*
X140320834Y-47702910D02*
X140320837Y-45352912D01*
X94616607Y-99079016D02*
G75*
G02*
X94051879Y-98653470I-69607J495116D01*
G01*
X139820836Y-44852914D02*
X124820832Y-44852909D01*
X91964294Y-83799447D02*
G75*
G02*
X92389850Y-83234794I495106J69547D01*
G01*
X123820833Y-48202911D02*
X106780833Y-48202911D01*
X190309822Y-100136139D02*
G75*
G02*
X189980818Y-99666294I170978J469839D01*
G01*
X165975720Y-104673920D02*
X164979371Y-107411363D01*
X187531994Y-115619849D02*
X192662295Y-101524460D01*
X192363458Y-100883601D02*
X190309821Y-100136139D01*
X140820834Y-48202913D02*
G75*
G02*
X140320787Y-47702910I-34J500013D01*
G01*
X106280833Y-80847830D02*
G75*
G02*
X105850420Y-81342963I-500033J30D01*
G01*
X106280836Y-98014902D02*
X106280835Y-103502910D01*
X91964294Y-83799447D02*
X94051890Y-98653468D01*
X105711247Y-97519766D02*
G75*
G02*
X106280795Y-98014902I69553J-495134D01*
G01*
X106280832Y-48702911D02*
G75*
G02*
X106780833Y-48202932I499968J11D01*
G01*
X165278207Y-108052220D02*
X186891137Y-115918685D01*
X106280832Y-48702911D02*
X106280833Y-80847830D01*
X124320835Y-47702913D02*
G75*
G02*
X123820833Y-48202935I-500035J13D01*
G01*
X124320832Y-45352910D02*
G75*
G02*
X124820832Y-44852932I499968J10D01*
G01*
M02*
