M48
; DRILL file {KiCad 8.0.5} date 2024-09-24T21:25:45+1000
; FORMAT={-:-/ absolute / inch / decimal}
; #@! TF.CreationDate,2024-09-24T21:25:45+10:00
; #@! TF.GenerationSoftware,Kicad,Pcbnew,8.0.5
; #@! TF.FileFunction,Plated,1,2,PTH
FMAT,2
INCH
; #@! TA.AperFunction,Plated,PTH,ViaDrill
T1C0.0157
; #@! TA.AperFunction,Plated,PTH,ComponentDrill
T2C0.0295
; #@! TA.AperFunction,Plated,PTH,ComponentDrill
T3C0.0315
; #@! TA.AperFunction,Plated,PTH,ComponentDrill
T4C0.0430
; #@! TA.AperFunction,Plated,PTH,ComponentDrill
T5C0.0500
; #@! TA.AperFunction,Plated,PTH,ComponentDrill
T6C0.0512
%
G90
G05
T1
X7.1036Y-2.0231
X7.1036Y-2.1871
X7.1649Y-2.0228
X7.165Y-2.2871
T2
X7.4Y-3.4176
X7.4Y-3.3389
T3
X7.3153Y-3.6705
X7.3153Y-3.5721
X7.3153Y-3.7689
X7.4413Y-3.7689
X7.4413Y-3.6705
X7.4413Y-3.5721
T4
X6.8018Y-2.9871
X6.8018Y-2.4871
X6.8018Y-2.8871
X6.8018Y-2.1871
X6.8018Y-2.3871
X6.8018Y-2.5871
X6.8018Y-2.6871
X6.8018Y-2.7871
X6.8018Y-3.0871
X6.8018Y-2.2871
X6.8018Y-3.1871
X6.8018Y-2.0871
X7.4018Y-3.1871
X7.4018Y-2.0871
X7.4018Y-2.9871
X7.4018Y-2.1871
X7.4018Y-2.4871
X7.4018Y-2.5871
X7.4018Y-2.6871
X7.4018Y-2.8871
X7.4018Y-3.0871
X7.4018Y-2.3871
X7.4018Y-2.7871
X7.4018Y-2.2871
T5
X3.7579Y-3.427
X3.9413Y-3.3177
X4.1477Y-3.3722
X4.3233Y-2.1281
X4.3552Y-2.7375
X4.3872Y-3.3469
X4.5156Y-2.0352
X4.5475Y-2.6446
X4.5794Y-3.254
X4.7165Y-2.1075
X4.7484Y-2.7169
X4.7803Y-3.3263
X5.0126Y-2.5415
X5.0126Y-3.1517
X5.0126Y-1.9312
X5.2095Y-2.4588
X5.2095Y-3.069
X5.2095Y-1.8485
X5.4063Y-2.5415
X5.4063Y-3.1517
X5.4063Y-1.9312
X5.6229Y-2.0838
X5.6229Y-2.694
X5.6229Y-3.3042
X5.8197Y-2.0011
X5.8197Y-2.6113
X5.8197Y-3.2216
X6.0166Y-2.0838
X6.0166Y-2.694
X6.0166Y-3.3042
X6.2331Y-2.3889
X6.2331Y-2.9991
X6.43Y-2.3062
X6.43Y-2.9165
X6.6268Y-2.3889
X6.6268Y-2.9991
X6.9064Y-3.905
X7.1196Y-3.8946
X7.2763Y-4.0397
T6
X6.3132Y-2.0702
X6.5691Y-2.0702
M30
