%TF.GenerationSoftware,KiCad,Pcbnew,8.0.5*%
%TF.CreationDate,2024-09-24T21:25:45+10:00*%
%TF.ProjectId,pueo-min-space,7075656f-2d6d-4696-9e2d-73706163652e,0.1*%
%TF.SameCoordinates,Original*%
%TF.FileFunction,Drillmap*%
%TF.FilePolarity,Positive*%
%FSLAX45Y45*%
G04 Gerber Fmt 4.5, Leading zero omitted, Abs format (unit mm)*
G04 Created by KiCad (PCBNEW 8.0.5) date 2024-09-24 21:25:45*
%MOMM*%
%LPD*%
G01*
G04 APERTURE LIST*
%ADD10C,0.150000*%
%ADD11C,0.200000*%
%ADD12C,0.170180*%
%ADD13C,0.342900*%
G04 APERTURE END LIST*
D10*
X9461661Y-9907902D02*
X10571125Y-9751977D01*
X18948084Y-4820291D02*
G75*
G02*
X18998079Y-4870292I-4J-49999D01*
G01*
X19236346Y-10088360D02*
G75*
G02*
X19266227Y-10152445I-17096J-46980D01*
G01*
X12432083Y-4535291D02*
X12432083Y-4770291D01*
X18998083Y-9966629D02*
X18998084Y-4870292D01*
X10678083Y-10400291D02*
X16550587Y-10400291D01*
X16527821Y-10805222D02*
G75*
G02*
X16497939Y-10741137I17099J46982D01*
G01*
X13982084Y-4485291D02*
G75*
G02*
X14032079Y-4535291I-4J-49999D01*
G01*
X18753200Y-11561985D02*
G75*
G02*
X18689112Y-11591872I-46990J17105D01*
G01*
X18948083Y-4820291D02*
X14082083Y-4820291D01*
X10585042Y-8134297D02*
X9238984Y-8323472D01*
X16550587Y-10400291D02*
G75*
G02*
X16597573Y-10467392I3J-49999D01*
G01*
X10678083Y-10400291D02*
G75*
G02*
X10628079Y-10350291I-3J50001D01*
G01*
X14032083Y-4770291D02*
X14032084Y-4535291D01*
X9461661Y-9907902D02*
G75*
G02*
X9405188Y-9865347I-6961J49512D01*
G01*
X13982084Y-4485291D02*
X12482083Y-4485291D01*
X9196429Y-8379945D02*
G75*
G02*
X9238985Y-8323479I49511J6955D01*
G01*
X12382083Y-4820291D02*
X10678083Y-4820291D01*
X19030982Y-10013614D02*
G75*
G02*
X18998082Y-9966629I17098J46984D01*
G01*
X16597572Y-10467392D02*
X16497937Y-10741136D01*
X18753199Y-11561985D02*
X19266230Y-10152446D01*
X19236346Y-10088360D02*
X19030982Y-10013614D01*
X14082083Y-4820291D02*
G75*
G02*
X14032079Y-4770291I-3J50001D01*
G01*
X10628083Y-8084783D02*
G75*
G02*
X10585042Y-8134296I-50003J3D01*
G01*
X10628084Y-9801490D02*
X10628084Y-10350291D01*
X9196429Y-8379945D02*
X9405189Y-9865347D01*
X10571125Y-9751977D02*
G75*
G02*
X10628080Y-9801490I6955J-49513D01*
G01*
X10628083Y-4870291D02*
G75*
G02*
X10678083Y-4820293I49997J1D01*
G01*
X16527821Y-10805222D02*
X18689114Y-11591868D01*
X10628083Y-4870291D02*
X10628083Y-8084783D01*
X12432083Y-4770291D02*
G75*
G02*
X12382083Y-4820294I-50004J1D01*
G01*
X12432083Y-4535291D02*
G75*
G02*
X12482083Y-4485293I49997J1D01*
G01*
D11*
D12*
X9463286Y-9002763D02*
X9633466Y-9172943D01*
X9633466Y-9002763D02*
X9463286Y-9172943D01*
X10552581Y-8849672D02*
X10722761Y-9019852D01*
X10722761Y-8849672D02*
X10552581Y-9019852D01*
X10866041Y-5702420D02*
X11036221Y-5872600D01*
X11036221Y-5702420D02*
X10866041Y-5872600D01*
X10947162Y-7250296D02*
X11117342Y-7420476D01*
X11117342Y-7250296D02*
X10947162Y-7420476D01*
X11028283Y-8798172D02*
X11198463Y-8968352D01*
X11198463Y-8798172D02*
X11028283Y-8968352D01*
X11964533Y-5644851D02*
X12134713Y-5815031D01*
X12134713Y-5644851D02*
X11964533Y-5815031D01*
X12045654Y-7192727D02*
X12215834Y-7362907D01*
X12215834Y-7192727D02*
X12045654Y-7362907D01*
X12126775Y-8740602D02*
X12296955Y-8910782D01*
X12296955Y-8740602D02*
X12126775Y-8910782D01*
X12596993Y-6750201D02*
X12767173Y-6920381D01*
X12767173Y-6750201D02*
X12596993Y-6920381D01*
X12596993Y-8300201D02*
X12767173Y-8470382D01*
X12767173Y-8300201D02*
X12596993Y-8470382D01*
X12596994Y-5200201D02*
X12767174Y-5370381D01*
X12767174Y-5200201D02*
X12596994Y-5370381D01*
X13696993Y-6750201D02*
X13867173Y-6920381D01*
X13867173Y-6750201D02*
X13696993Y-6920381D01*
X13696993Y-8300201D02*
X13867173Y-8470382D01*
X13867173Y-8300201D02*
X13696993Y-8470382D01*
X13696994Y-5200201D02*
X13867174Y-5370381D01*
X13867174Y-5200201D02*
X13696994Y-5370381D01*
X14146993Y-5587701D02*
X14317173Y-5757881D01*
X14317173Y-5587701D02*
X14146993Y-5757881D01*
X14146993Y-7137701D02*
X14317173Y-7307881D01*
X14317173Y-7137701D02*
X14146993Y-7307881D01*
X14146994Y-8687701D02*
X14317174Y-8857881D01*
X14317174Y-8687701D02*
X14146994Y-8857881D01*
X15246993Y-5587701D02*
X15417173Y-5757881D01*
X15417173Y-5587701D02*
X15246993Y-5757881D01*
X15246993Y-7137701D02*
X15417173Y-7307881D01*
X15417173Y-7137701D02*
X15246993Y-7307881D01*
X15246994Y-8687701D02*
X15417174Y-8857881D01*
X15417174Y-8687701D02*
X15246994Y-8857881D01*
X15696993Y-6362701D02*
X15867173Y-6532881D01*
X15867173Y-6362701D02*
X15696993Y-6532881D01*
X15696993Y-7912701D02*
X15867173Y-8082881D01*
X15867173Y-7912701D02*
X15696993Y-8082881D01*
X16796993Y-6362701D02*
X16967173Y-6532881D01*
X16967173Y-6362701D02*
X16796993Y-6532881D01*
X16796993Y-7912701D02*
X16967173Y-8082881D01*
X16967173Y-7912701D02*
X16796993Y-8082881D01*
X17280162Y-10173590D02*
X17450342Y-10343770D01*
X17450342Y-10173590D02*
X17280162Y-10343770D01*
X18313824Y-10549812D02*
X18484004Y-10719992D01*
X18484004Y-10549812D02*
X18313824Y-10719992D01*
D13*
X10264474Y-9011307D02*
G75*
G02*
X9921574Y-9011307I-171450J0D01*
G01*
X9921574Y-9011307D02*
G75*
G02*
X10264474Y-9011307I171450J0D01*
G01*
X11671827Y-5758725D02*
G75*
G02*
X11328927Y-5758725I-171450J0D01*
G01*
X11328927Y-5758725D02*
G75*
G02*
X11671827Y-5758725I171450J0D01*
G01*
X11752948Y-7306601D02*
G75*
G02*
X11410048Y-7306601I-171450J0D01*
G01*
X11410048Y-7306601D02*
G75*
G02*
X11752948Y-7306601I171450J0D01*
G01*
X11834069Y-8854477D02*
G75*
G02*
X11491169Y-8854477I-171450J0D01*
G01*
X11491169Y-8854477D02*
G75*
G02*
X11834069Y-8854477I171450J0D01*
G01*
X13403533Y-6835291D02*
G75*
G02*
X13060633Y-6835291I-171450J0D01*
G01*
X13060633Y-6835291D02*
G75*
G02*
X13403533Y-6835291I171450J0D01*
G01*
X13403533Y-8385291D02*
G75*
G02*
X13060633Y-8385291I-171450J0D01*
G01*
X13060633Y-8385291D02*
G75*
G02*
X13403533Y-8385291I171450J0D01*
G01*
X13403534Y-5285291D02*
G75*
G02*
X13060634Y-5285291I-171450J0D01*
G01*
X13060634Y-5285291D02*
G75*
G02*
X13403534Y-5285291I171450J0D01*
G01*
X14953533Y-5672791D02*
G75*
G02*
X14610633Y-5672791I-171450J0D01*
G01*
X14610633Y-5672791D02*
G75*
G02*
X14953533Y-5672791I171450J0D01*
G01*
X14953533Y-7222791D02*
G75*
G02*
X14610633Y-7222791I-171450J0D01*
G01*
X14610633Y-7222791D02*
G75*
G02*
X14953533Y-7222791I171450J0D01*
G01*
X14953534Y-8772791D02*
G75*
G02*
X14610634Y-8772791I-171450J0D01*
G01*
X14610634Y-8772791D02*
G75*
G02*
X14953534Y-8772791I171450J0D01*
G01*
X16503533Y-6447791D02*
G75*
G02*
X16160633Y-6447791I-171450J0D01*
G01*
X16160633Y-6447791D02*
G75*
G02*
X16503533Y-6447791I171450J0D01*
G01*
X16503533Y-7997791D02*
G75*
G02*
X16160633Y-7997791I-171450J0D01*
G01*
X16160633Y-7997791D02*
G75*
G02*
X16503533Y-7997791I171450J0D01*
G01*
X18053533Y-10446791D02*
G75*
G02*
X17710633Y-10446791I-171450J0D01*
G01*
X17710633Y-10446791D02*
G75*
G02*
X18053533Y-10446791I171450J0D01*
G01*
D11*
X9449220Y-11913870D02*
X9449220Y-11713870D01*
X9449220Y-11713870D02*
X9496839Y-11713870D01*
X9496839Y-11713870D02*
X9525411Y-11723393D01*
X9525411Y-11723393D02*
X9544458Y-11742441D01*
X9544458Y-11742441D02*
X9553982Y-11761489D01*
X9553982Y-11761489D02*
X9563506Y-11799584D01*
X9563506Y-11799584D02*
X9563506Y-11828155D01*
X9563506Y-11828155D02*
X9553982Y-11866251D01*
X9553982Y-11866251D02*
X9544458Y-11885298D01*
X9544458Y-11885298D02*
X9525411Y-11904346D01*
X9525411Y-11904346D02*
X9496839Y-11913870D01*
X9496839Y-11913870D02*
X9449220Y-11913870D01*
X9649220Y-11913870D02*
X9649220Y-11780536D01*
X9649220Y-11818632D02*
X9658744Y-11799584D01*
X9658744Y-11799584D02*
X9668268Y-11790060D01*
X9668268Y-11790060D02*
X9687315Y-11780536D01*
X9687315Y-11780536D02*
X9706363Y-11780536D01*
X9773030Y-11913870D02*
X9773030Y-11780536D01*
X9773030Y-11713870D02*
X9763506Y-11723393D01*
X9763506Y-11723393D02*
X9773030Y-11732917D01*
X9773030Y-11732917D02*
X9782553Y-11723393D01*
X9782553Y-11723393D02*
X9773030Y-11713870D01*
X9773030Y-11713870D02*
X9773030Y-11732917D01*
X9896839Y-11913870D02*
X9877792Y-11904346D01*
X9877792Y-11904346D02*
X9868268Y-11885298D01*
X9868268Y-11885298D02*
X9868268Y-11713870D01*
X10001601Y-11913870D02*
X9982553Y-11904346D01*
X9982553Y-11904346D02*
X9973030Y-11885298D01*
X9973030Y-11885298D02*
X9973030Y-11713870D01*
X10230173Y-11913870D02*
X10230173Y-11713870D01*
X10230173Y-11713870D02*
X10296839Y-11856727D01*
X10296839Y-11856727D02*
X10363506Y-11713870D01*
X10363506Y-11713870D02*
X10363506Y-11913870D01*
X10544458Y-11913870D02*
X10544458Y-11809108D01*
X10544458Y-11809108D02*
X10534934Y-11790060D01*
X10534934Y-11790060D02*
X10515887Y-11780536D01*
X10515887Y-11780536D02*
X10477792Y-11780536D01*
X10477792Y-11780536D02*
X10458744Y-11790060D01*
X10544458Y-11904346D02*
X10525411Y-11913870D01*
X10525411Y-11913870D02*
X10477792Y-11913870D01*
X10477792Y-11913870D02*
X10458744Y-11904346D01*
X10458744Y-11904346D02*
X10449220Y-11885298D01*
X10449220Y-11885298D02*
X10449220Y-11866251D01*
X10449220Y-11866251D02*
X10458744Y-11847203D01*
X10458744Y-11847203D02*
X10477792Y-11837679D01*
X10477792Y-11837679D02*
X10525411Y-11837679D01*
X10525411Y-11837679D02*
X10544458Y-11828155D01*
X10639696Y-11780536D02*
X10639696Y-11980536D01*
X10639696Y-11790060D02*
X10658744Y-11780536D01*
X10658744Y-11780536D02*
X10696839Y-11780536D01*
X10696839Y-11780536D02*
X10715887Y-11790060D01*
X10715887Y-11790060D02*
X10725411Y-11799584D01*
X10725411Y-11799584D02*
X10734934Y-11818632D01*
X10734934Y-11818632D02*
X10734934Y-11875774D01*
X10734934Y-11875774D02*
X10725411Y-11894822D01*
X10725411Y-11894822D02*
X10715887Y-11904346D01*
X10715887Y-11904346D02*
X10696839Y-11913870D01*
X10696839Y-11913870D02*
X10658744Y-11913870D01*
X10658744Y-11913870D02*
X10639696Y-11904346D01*
X10820649Y-11894822D02*
X10830173Y-11904346D01*
X10830173Y-11904346D02*
X10820649Y-11913870D01*
X10820649Y-11913870D02*
X10811125Y-11904346D01*
X10811125Y-11904346D02*
X10820649Y-11894822D01*
X10820649Y-11894822D02*
X10820649Y-11913870D01*
X10820649Y-11790060D02*
X10830173Y-11799584D01*
X10830173Y-11799584D02*
X10820649Y-11809108D01*
X10820649Y-11809108D02*
X10811125Y-11799584D01*
X10811125Y-11799584D02*
X10820649Y-11790060D01*
X10820649Y-11790060D02*
X10820649Y-11809108D01*
D12*
X9018263Y-12157296D02*
X9188443Y-12327476D01*
X9188443Y-12157296D02*
X9018263Y-12327476D01*
D11*
X9553982Y-12333870D02*
X9439696Y-12333870D01*
X9496839Y-12333870D02*
X9496839Y-12133870D01*
X9496839Y-12133870D02*
X9477792Y-12162441D01*
X9477792Y-12162441D02*
X9458744Y-12181489D01*
X9458744Y-12181489D02*
X9439696Y-12191012D01*
X9639696Y-12314822D02*
X9649220Y-12324346D01*
X9649220Y-12324346D02*
X9639696Y-12333870D01*
X9639696Y-12333870D02*
X9630173Y-12324346D01*
X9630173Y-12324346D02*
X9639696Y-12314822D01*
X9639696Y-12314822D02*
X9639696Y-12333870D01*
X9715887Y-12133870D02*
X9849220Y-12133870D01*
X9849220Y-12133870D02*
X9763506Y-12333870D01*
X9963506Y-12133870D02*
X9982554Y-12133870D01*
X9982554Y-12133870D02*
X10001601Y-12143393D01*
X10001601Y-12143393D02*
X10011125Y-12152917D01*
X10011125Y-12152917D02*
X10020649Y-12171965D01*
X10020649Y-12171965D02*
X10030173Y-12210060D01*
X10030173Y-12210060D02*
X10030173Y-12257679D01*
X10030173Y-12257679D02*
X10020649Y-12295774D01*
X10020649Y-12295774D02*
X10011125Y-12314822D01*
X10011125Y-12314822D02*
X10001601Y-12324346D01*
X10001601Y-12324346D02*
X9982554Y-12333870D01*
X9982554Y-12333870D02*
X9963506Y-12333870D01*
X9963506Y-12333870D02*
X9944458Y-12324346D01*
X9944458Y-12324346D02*
X9934934Y-12314822D01*
X9934934Y-12314822D02*
X9925411Y-12295774D01*
X9925411Y-12295774D02*
X9915887Y-12257679D01*
X9915887Y-12257679D02*
X9915887Y-12210060D01*
X9915887Y-12210060D02*
X9925411Y-12171965D01*
X9925411Y-12171965D02*
X9934934Y-12152917D01*
X9934934Y-12152917D02*
X9944458Y-12143393D01*
X9944458Y-12143393D02*
X9963506Y-12133870D01*
X10106363Y-12152917D02*
X10115887Y-12143393D01*
X10115887Y-12143393D02*
X10134934Y-12133870D01*
X10134934Y-12133870D02*
X10182554Y-12133870D01*
X10182554Y-12133870D02*
X10201601Y-12143393D01*
X10201601Y-12143393D02*
X10211125Y-12152917D01*
X10211125Y-12152917D02*
X10220649Y-12171965D01*
X10220649Y-12171965D02*
X10220649Y-12191012D01*
X10220649Y-12191012D02*
X10211125Y-12219584D01*
X10211125Y-12219584D02*
X10096839Y-12333870D01*
X10096839Y-12333870D02*
X10220649Y-12333870D01*
X10306363Y-12333870D02*
X10306363Y-12200536D01*
X10306363Y-12219584D02*
X10315887Y-12210060D01*
X10315887Y-12210060D02*
X10334934Y-12200536D01*
X10334934Y-12200536D02*
X10363506Y-12200536D01*
X10363506Y-12200536D02*
X10382554Y-12210060D01*
X10382554Y-12210060D02*
X10392077Y-12229108D01*
X10392077Y-12229108D02*
X10392077Y-12333870D01*
X10392077Y-12229108D02*
X10401601Y-12210060D01*
X10401601Y-12210060D02*
X10420649Y-12200536D01*
X10420649Y-12200536D02*
X10449220Y-12200536D01*
X10449220Y-12200536D02*
X10468268Y-12210060D01*
X10468268Y-12210060D02*
X10477792Y-12229108D01*
X10477792Y-12229108D02*
X10477792Y-12333870D01*
X10573030Y-12333870D02*
X10573030Y-12200536D01*
X10573030Y-12219584D02*
X10582554Y-12210060D01*
X10582554Y-12210060D02*
X10601601Y-12200536D01*
X10601601Y-12200536D02*
X10630173Y-12200536D01*
X10630173Y-12200536D02*
X10649220Y-12210060D01*
X10649220Y-12210060D02*
X10658744Y-12229108D01*
X10658744Y-12229108D02*
X10658744Y-12333870D01*
X10658744Y-12229108D02*
X10668268Y-12210060D01*
X10668268Y-12210060D02*
X10687315Y-12200536D01*
X10687315Y-12200536D02*
X10715887Y-12200536D01*
X10715887Y-12200536D02*
X10734935Y-12210060D01*
X10734935Y-12210060D02*
X10744458Y-12229108D01*
X10744458Y-12229108D02*
X10744458Y-12333870D01*
X11134935Y-12124346D02*
X10963506Y-12381489D01*
X11392077Y-12133870D02*
X11411125Y-12133870D01*
X11411125Y-12133870D02*
X11430173Y-12143393D01*
X11430173Y-12143393D02*
X11439696Y-12152917D01*
X11439696Y-12152917D02*
X11449220Y-12171965D01*
X11449220Y-12171965D02*
X11458744Y-12210060D01*
X11458744Y-12210060D02*
X11458744Y-12257679D01*
X11458744Y-12257679D02*
X11449220Y-12295774D01*
X11449220Y-12295774D02*
X11439696Y-12314822D01*
X11439696Y-12314822D02*
X11430173Y-12324346D01*
X11430173Y-12324346D02*
X11411125Y-12333870D01*
X11411125Y-12333870D02*
X11392077Y-12333870D01*
X11392077Y-12333870D02*
X11373030Y-12324346D01*
X11373030Y-12324346D02*
X11363506Y-12314822D01*
X11363506Y-12314822D02*
X11353982Y-12295774D01*
X11353982Y-12295774D02*
X11344458Y-12257679D01*
X11344458Y-12257679D02*
X11344458Y-12210060D01*
X11344458Y-12210060D02*
X11353982Y-12171965D01*
X11353982Y-12171965D02*
X11363506Y-12152917D01*
X11363506Y-12152917D02*
X11373030Y-12143393D01*
X11373030Y-12143393D02*
X11392077Y-12133870D01*
X11544458Y-12314822D02*
X11553982Y-12324346D01*
X11553982Y-12324346D02*
X11544458Y-12333870D01*
X11544458Y-12333870D02*
X11534935Y-12324346D01*
X11534935Y-12324346D02*
X11544458Y-12314822D01*
X11544458Y-12314822D02*
X11544458Y-12333870D01*
X11677792Y-12133870D02*
X11696839Y-12133870D01*
X11696839Y-12133870D02*
X11715887Y-12143393D01*
X11715887Y-12143393D02*
X11725411Y-12152917D01*
X11725411Y-12152917D02*
X11734935Y-12171965D01*
X11734935Y-12171965D02*
X11744458Y-12210060D01*
X11744458Y-12210060D02*
X11744458Y-12257679D01*
X11744458Y-12257679D02*
X11734935Y-12295774D01*
X11734935Y-12295774D02*
X11725411Y-12314822D01*
X11725411Y-12314822D02*
X11715887Y-12324346D01*
X11715887Y-12324346D02*
X11696839Y-12333870D01*
X11696839Y-12333870D02*
X11677792Y-12333870D01*
X11677792Y-12333870D02*
X11658744Y-12324346D01*
X11658744Y-12324346D02*
X11649220Y-12314822D01*
X11649220Y-12314822D02*
X11639696Y-12295774D01*
X11639696Y-12295774D02*
X11630173Y-12257679D01*
X11630173Y-12257679D02*
X11630173Y-12210060D01*
X11630173Y-12210060D02*
X11639696Y-12171965D01*
X11639696Y-12171965D02*
X11649220Y-12152917D01*
X11649220Y-12152917D02*
X11658744Y-12143393D01*
X11658744Y-12143393D02*
X11677792Y-12133870D01*
X11915887Y-12133870D02*
X11877792Y-12133870D01*
X11877792Y-12133870D02*
X11858744Y-12143393D01*
X11858744Y-12143393D02*
X11849220Y-12152917D01*
X11849220Y-12152917D02*
X11830173Y-12181489D01*
X11830173Y-12181489D02*
X11820649Y-12219584D01*
X11820649Y-12219584D02*
X11820649Y-12295774D01*
X11820649Y-12295774D02*
X11830173Y-12314822D01*
X11830173Y-12314822D02*
X11839696Y-12324346D01*
X11839696Y-12324346D02*
X11858744Y-12333870D01*
X11858744Y-12333870D02*
X11896839Y-12333870D01*
X11896839Y-12333870D02*
X11915887Y-12324346D01*
X11915887Y-12324346D02*
X11925411Y-12314822D01*
X11925411Y-12314822D02*
X11934935Y-12295774D01*
X11934935Y-12295774D02*
X11934935Y-12248155D01*
X11934935Y-12248155D02*
X11925411Y-12229108D01*
X11925411Y-12229108D02*
X11915887Y-12219584D01*
X11915887Y-12219584D02*
X11896839Y-12210060D01*
X11896839Y-12210060D02*
X11858744Y-12210060D01*
X11858744Y-12210060D02*
X11839696Y-12219584D01*
X11839696Y-12219584D02*
X11830173Y-12229108D01*
X11830173Y-12229108D02*
X11820649Y-12248155D01*
X12001601Y-12133870D02*
X12134935Y-12133870D01*
X12134935Y-12133870D02*
X12049220Y-12333870D01*
X12249220Y-12133870D02*
X12268268Y-12133870D01*
X12268268Y-12133870D02*
X12287316Y-12143393D01*
X12287316Y-12143393D02*
X12296839Y-12152917D01*
X12296839Y-12152917D02*
X12306363Y-12171965D01*
X12306363Y-12171965D02*
X12315887Y-12210060D01*
X12315887Y-12210060D02*
X12315887Y-12257679D01*
X12315887Y-12257679D02*
X12306363Y-12295774D01*
X12306363Y-12295774D02*
X12296839Y-12314822D01*
X12296839Y-12314822D02*
X12287316Y-12324346D01*
X12287316Y-12324346D02*
X12268268Y-12333870D01*
X12268268Y-12333870D02*
X12249220Y-12333870D01*
X12249220Y-12333870D02*
X12230173Y-12324346D01*
X12230173Y-12324346D02*
X12220649Y-12314822D01*
X12220649Y-12314822D02*
X12211125Y-12295774D01*
X12211125Y-12295774D02*
X12201601Y-12257679D01*
X12201601Y-12257679D02*
X12201601Y-12210060D01*
X12201601Y-12210060D02*
X12211125Y-12171965D01*
X12211125Y-12171965D02*
X12220649Y-12152917D01*
X12220649Y-12152917D02*
X12230173Y-12143393D01*
X12230173Y-12143393D02*
X12249220Y-12133870D01*
X12392077Y-12133870D02*
X12392077Y-12171965D01*
X12468268Y-12133870D02*
X12468268Y-12171965D01*
X12763506Y-12410060D02*
X12753982Y-12400536D01*
X12753982Y-12400536D02*
X12734935Y-12371965D01*
X12734935Y-12371965D02*
X12725411Y-12352917D01*
X12725411Y-12352917D02*
X12715887Y-12324346D01*
X12715887Y-12324346D02*
X12706363Y-12276727D01*
X12706363Y-12276727D02*
X12706363Y-12238632D01*
X12706363Y-12238632D02*
X12715887Y-12191012D01*
X12715887Y-12191012D02*
X12725411Y-12162441D01*
X12725411Y-12162441D02*
X12734935Y-12143393D01*
X12734935Y-12143393D02*
X12753982Y-12114822D01*
X12753982Y-12114822D02*
X12763506Y-12105298D01*
X12830173Y-12152917D02*
X12839697Y-12143393D01*
X12839697Y-12143393D02*
X12858744Y-12133870D01*
X12858744Y-12133870D02*
X12906363Y-12133870D01*
X12906363Y-12133870D02*
X12925411Y-12143393D01*
X12925411Y-12143393D02*
X12934935Y-12152917D01*
X12934935Y-12152917D02*
X12944458Y-12171965D01*
X12944458Y-12171965D02*
X12944458Y-12191012D01*
X12944458Y-12191012D02*
X12934935Y-12219584D01*
X12934935Y-12219584D02*
X12820649Y-12333870D01*
X12820649Y-12333870D02*
X12944458Y-12333870D01*
X13115887Y-12133870D02*
X13077792Y-12133870D01*
X13077792Y-12133870D02*
X13058744Y-12143393D01*
X13058744Y-12143393D02*
X13049220Y-12152917D01*
X13049220Y-12152917D02*
X13030173Y-12181489D01*
X13030173Y-12181489D02*
X13020649Y-12219584D01*
X13020649Y-12219584D02*
X13020649Y-12295774D01*
X13020649Y-12295774D02*
X13030173Y-12314822D01*
X13030173Y-12314822D02*
X13039697Y-12324346D01*
X13039697Y-12324346D02*
X13058744Y-12333870D01*
X13058744Y-12333870D02*
X13096839Y-12333870D01*
X13096839Y-12333870D02*
X13115887Y-12324346D01*
X13115887Y-12324346D02*
X13125411Y-12314822D01*
X13125411Y-12314822D02*
X13134935Y-12295774D01*
X13134935Y-12295774D02*
X13134935Y-12248155D01*
X13134935Y-12248155D02*
X13125411Y-12229108D01*
X13125411Y-12229108D02*
X13115887Y-12219584D01*
X13115887Y-12219584D02*
X13096839Y-12210060D01*
X13096839Y-12210060D02*
X13058744Y-12210060D01*
X13058744Y-12210060D02*
X13039697Y-12219584D01*
X13039697Y-12219584D02*
X13030173Y-12229108D01*
X13030173Y-12229108D02*
X13020649Y-12248155D01*
X13373030Y-12333870D02*
X13373030Y-12133870D01*
X13458744Y-12333870D02*
X13458744Y-12229108D01*
X13458744Y-12229108D02*
X13449220Y-12210060D01*
X13449220Y-12210060D02*
X13430173Y-12200536D01*
X13430173Y-12200536D02*
X13401601Y-12200536D01*
X13401601Y-12200536D02*
X13382554Y-12210060D01*
X13382554Y-12210060D02*
X13373030Y-12219584D01*
X13582554Y-12333870D02*
X13563506Y-12324346D01*
X13563506Y-12324346D02*
X13553982Y-12314822D01*
X13553982Y-12314822D02*
X13544459Y-12295774D01*
X13544459Y-12295774D02*
X13544459Y-12238632D01*
X13544459Y-12238632D02*
X13553982Y-12219584D01*
X13553982Y-12219584D02*
X13563506Y-12210060D01*
X13563506Y-12210060D02*
X13582554Y-12200536D01*
X13582554Y-12200536D02*
X13611125Y-12200536D01*
X13611125Y-12200536D02*
X13630173Y-12210060D01*
X13630173Y-12210060D02*
X13639697Y-12219584D01*
X13639697Y-12219584D02*
X13649220Y-12238632D01*
X13649220Y-12238632D02*
X13649220Y-12295774D01*
X13649220Y-12295774D02*
X13639697Y-12314822D01*
X13639697Y-12314822D02*
X13630173Y-12324346D01*
X13630173Y-12324346D02*
X13611125Y-12333870D01*
X13611125Y-12333870D02*
X13582554Y-12333870D01*
X13763506Y-12333870D02*
X13744459Y-12324346D01*
X13744459Y-12324346D02*
X13734935Y-12305298D01*
X13734935Y-12305298D02*
X13734935Y-12133870D01*
X13915887Y-12324346D02*
X13896840Y-12333870D01*
X13896840Y-12333870D02*
X13858744Y-12333870D01*
X13858744Y-12333870D02*
X13839697Y-12324346D01*
X13839697Y-12324346D02*
X13830173Y-12305298D01*
X13830173Y-12305298D02*
X13830173Y-12229108D01*
X13830173Y-12229108D02*
X13839697Y-12210060D01*
X13839697Y-12210060D02*
X13858744Y-12200536D01*
X13858744Y-12200536D02*
X13896840Y-12200536D01*
X13896840Y-12200536D02*
X13915887Y-12210060D01*
X13915887Y-12210060D02*
X13925411Y-12229108D01*
X13925411Y-12229108D02*
X13925411Y-12248155D01*
X13925411Y-12248155D02*
X13830173Y-12267203D01*
X14001601Y-12324346D02*
X14020649Y-12333870D01*
X14020649Y-12333870D02*
X14058744Y-12333870D01*
X14058744Y-12333870D02*
X14077792Y-12324346D01*
X14077792Y-12324346D02*
X14087316Y-12305298D01*
X14087316Y-12305298D02*
X14087316Y-12295774D01*
X14087316Y-12295774D02*
X14077792Y-12276727D01*
X14077792Y-12276727D02*
X14058744Y-12267203D01*
X14058744Y-12267203D02*
X14030173Y-12267203D01*
X14030173Y-12267203D02*
X14011125Y-12257679D01*
X14011125Y-12257679D02*
X14001601Y-12238632D01*
X14001601Y-12238632D02*
X14001601Y-12229108D01*
X14001601Y-12229108D02*
X14011125Y-12210060D01*
X14011125Y-12210060D02*
X14030173Y-12200536D01*
X14030173Y-12200536D02*
X14058744Y-12200536D01*
X14058744Y-12200536D02*
X14077792Y-12210060D01*
X14153982Y-12410060D02*
X14163506Y-12400536D01*
X14163506Y-12400536D02*
X14182554Y-12371965D01*
X14182554Y-12371965D02*
X14192078Y-12352917D01*
X14192078Y-12352917D02*
X14201601Y-12324346D01*
X14201601Y-12324346D02*
X14211125Y-12276727D01*
X14211125Y-12276727D02*
X14211125Y-12238632D01*
X14211125Y-12238632D02*
X14201601Y-12191012D01*
X14201601Y-12191012D02*
X14192078Y-12162441D01*
X14192078Y-12162441D02*
X14182554Y-12143393D01*
X14182554Y-12143393D02*
X14163506Y-12114822D01*
X14163506Y-12114822D02*
X14153982Y-12105298D01*
X14515887Y-12410060D02*
X14506363Y-12400536D01*
X14506363Y-12400536D02*
X14487316Y-12371965D01*
X14487316Y-12371965D02*
X14477792Y-12352917D01*
X14477792Y-12352917D02*
X14468268Y-12324346D01*
X14468268Y-12324346D02*
X14458744Y-12276727D01*
X14458744Y-12276727D02*
X14458744Y-12238632D01*
X14458744Y-12238632D02*
X14468268Y-12191012D01*
X14468268Y-12191012D02*
X14477792Y-12162441D01*
X14477792Y-12162441D02*
X14487316Y-12143393D01*
X14487316Y-12143393D02*
X14506363Y-12114822D01*
X14506363Y-12114822D02*
X14515887Y-12105298D01*
X14592078Y-12200536D02*
X14592078Y-12333870D01*
X14592078Y-12219584D02*
X14601601Y-12210060D01*
X14601601Y-12210060D02*
X14620649Y-12200536D01*
X14620649Y-12200536D02*
X14649221Y-12200536D01*
X14649221Y-12200536D02*
X14668268Y-12210060D01*
X14668268Y-12210060D02*
X14677792Y-12229108D01*
X14677792Y-12229108D02*
X14677792Y-12333870D01*
X14801601Y-12333870D02*
X14782554Y-12324346D01*
X14782554Y-12324346D02*
X14773030Y-12314822D01*
X14773030Y-12314822D02*
X14763506Y-12295774D01*
X14763506Y-12295774D02*
X14763506Y-12238632D01*
X14763506Y-12238632D02*
X14773030Y-12219584D01*
X14773030Y-12219584D02*
X14782554Y-12210060D01*
X14782554Y-12210060D02*
X14801601Y-12200536D01*
X14801601Y-12200536D02*
X14830173Y-12200536D01*
X14830173Y-12200536D02*
X14849221Y-12210060D01*
X14849221Y-12210060D02*
X14858744Y-12219584D01*
X14858744Y-12219584D02*
X14868268Y-12238632D01*
X14868268Y-12238632D02*
X14868268Y-12295774D01*
X14868268Y-12295774D02*
X14858744Y-12314822D01*
X14858744Y-12314822D02*
X14849221Y-12324346D01*
X14849221Y-12324346D02*
X14830173Y-12333870D01*
X14830173Y-12333870D02*
X14801601Y-12333870D01*
X14925411Y-12200536D02*
X15001601Y-12200536D01*
X14953982Y-12133870D02*
X14953982Y-12305298D01*
X14953982Y-12305298D02*
X14963506Y-12324346D01*
X14963506Y-12324346D02*
X14982554Y-12333870D01*
X14982554Y-12333870D02*
X15001601Y-12333870D01*
X15220649Y-12200536D02*
X15220649Y-12400536D01*
X15220649Y-12210060D02*
X15239697Y-12200536D01*
X15239697Y-12200536D02*
X15277792Y-12200536D01*
X15277792Y-12200536D02*
X15296840Y-12210060D01*
X15296840Y-12210060D02*
X15306363Y-12219584D01*
X15306363Y-12219584D02*
X15315887Y-12238632D01*
X15315887Y-12238632D02*
X15315887Y-12295774D01*
X15315887Y-12295774D02*
X15306363Y-12314822D01*
X15306363Y-12314822D02*
X15296840Y-12324346D01*
X15296840Y-12324346D02*
X15277792Y-12333870D01*
X15277792Y-12333870D02*
X15239697Y-12333870D01*
X15239697Y-12333870D02*
X15220649Y-12324346D01*
X15430173Y-12333870D02*
X15411125Y-12324346D01*
X15411125Y-12324346D02*
X15401602Y-12305298D01*
X15401602Y-12305298D02*
X15401602Y-12133870D01*
X15592078Y-12333870D02*
X15592078Y-12229108D01*
X15592078Y-12229108D02*
X15582554Y-12210060D01*
X15582554Y-12210060D02*
X15563506Y-12200536D01*
X15563506Y-12200536D02*
X15525411Y-12200536D01*
X15525411Y-12200536D02*
X15506363Y-12210060D01*
X15592078Y-12324346D02*
X15573030Y-12333870D01*
X15573030Y-12333870D02*
X15525411Y-12333870D01*
X15525411Y-12333870D02*
X15506363Y-12324346D01*
X15506363Y-12324346D02*
X15496840Y-12305298D01*
X15496840Y-12305298D02*
X15496840Y-12286251D01*
X15496840Y-12286251D02*
X15506363Y-12267203D01*
X15506363Y-12267203D02*
X15525411Y-12257679D01*
X15525411Y-12257679D02*
X15573030Y-12257679D01*
X15573030Y-12257679D02*
X15592078Y-12248155D01*
X15658744Y-12200536D02*
X15734935Y-12200536D01*
X15687316Y-12133870D02*
X15687316Y-12305298D01*
X15687316Y-12305298D02*
X15696840Y-12324346D01*
X15696840Y-12324346D02*
X15715887Y-12333870D01*
X15715887Y-12333870D02*
X15734935Y-12333870D01*
X15877792Y-12324346D02*
X15858744Y-12333870D01*
X15858744Y-12333870D02*
X15820649Y-12333870D01*
X15820649Y-12333870D02*
X15801602Y-12324346D01*
X15801602Y-12324346D02*
X15792078Y-12305298D01*
X15792078Y-12305298D02*
X15792078Y-12229108D01*
X15792078Y-12229108D02*
X15801602Y-12210060D01*
X15801602Y-12210060D02*
X15820649Y-12200536D01*
X15820649Y-12200536D02*
X15858744Y-12200536D01*
X15858744Y-12200536D02*
X15877792Y-12210060D01*
X15877792Y-12210060D02*
X15887316Y-12229108D01*
X15887316Y-12229108D02*
X15887316Y-12248155D01*
X15887316Y-12248155D02*
X15792078Y-12267203D01*
X16058744Y-12333870D02*
X16058744Y-12133870D01*
X16058744Y-12324346D02*
X16039697Y-12333870D01*
X16039697Y-12333870D02*
X16001602Y-12333870D01*
X16001602Y-12333870D02*
X15982554Y-12324346D01*
X15982554Y-12324346D02*
X15973030Y-12314822D01*
X15973030Y-12314822D02*
X15963506Y-12295774D01*
X15963506Y-12295774D02*
X15963506Y-12238632D01*
X15963506Y-12238632D02*
X15973030Y-12219584D01*
X15973030Y-12219584D02*
X15982554Y-12210060D01*
X15982554Y-12210060D02*
X16001602Y-12200536D01*
X16001602Y-12200536D02*
X16039697Y-12200536D01*
X16039697Y-12200536D02*
X16058744Y-12210060D01*
X16134935Y-12410060D02*
X16144459Y-12400536D01*
X16144459Y-12400536D02*
X16163506Y-12371965D01*
X16163506Y-12371965D02*
X16173030Y-12352917D01*
X16173030Y-12352917D02*
X16182554Y-12324346D01*
X16182554Y-12324346D02*
X16192078Y-12276727D01*
X16192078Y-12276727D02*
X16192078Y-12238632D01*
X16192078Y-12238632D02*
X16182554Y-12191012D01*
X16182554Y-12191012D02*
X16173030Y-12162441D01*
X16173030Y-12162441D02*
X16163506Y-12143393D01*
X16163506Y-12143393D02*
X16144459Y-12114822D01*
X16144459Y-12114822D02*
X16134935Y-12105298D01*
X9188443Y-12532566D02*
G75*
G02*
X8988443Y-12532566I-100000J0D01*
G01*
X8988443Y-12532566D02*
G75*
G02*
X9188443Y-12532566I100000J0D01*
G01*
X9430173Y-12424050D02*
X9553982Y-12424050D01*
X9553982Y-12424050D02*
X9487315Y-12500240D01*
X9487315Y-12500240D02*
X9515887Y-12500240D01*
X9515887Y-12500240D02*
X9534934Y-12509764D01*
X9534934Y-12509764D02*
X9544458Y-12519288D01*
X9544458Y-12519288D02*
X9553982Y-12538335D01*
X9553982Y-12538335D02*
X9553982Y-12585954D01*
X9553982Y-12585954D02*
X9544458Y-12605002D01*
X9544458Y-12605002D02*
X9534934Y-12614526D01*
X9534934Y-12614526D02*
X9515887Y-12624050D01*
X9515887Y-12624050D02*
X9458744Y-12624050D01*
X9458744Y-12624050D02*
X9439696Y-12614526D01*
X9439696Y-12614526D02*
X9430173Y-12605002D01*
X9639696Y-12605002D02*
X9649220Y-12614526D01*
X9649220Y-12614526D02*
X9639696Y-12624050D01*
X9639696Y-12624050D02*
X9630173Y-12614526D01*
X9630173Y-12614526D02*
X9639696Y-12605002D01*
X9639696Y-12605002D02*
X9639696Y-12624050D01*
X9820649Y-12490716D02*
X9820649Y-12624050D01*
X9773030Y-12414526D02*
X9725411Y-12557383D01*
X9725411Y-12557383D02*
X9849220Y-12557383D01*
X9915887Y-12443097D02*
X9925411Y-12433573D01*
X9925411Y-12433573D02*
X9944458Y-12424050D01*
X9944458Y-12424050D02*
X9992077Y-12424050D01*
X9992077Y-12424050D02*
X10011125Y-12433573D01*
X10011125Y-12433573D02*
X10020649Y-12443097D01*
X10020649Y-12443097D02*
X10030173Y-12462145D01*
X10030173Y-12462145D02*
X10030173Y-12481192D01*
X10030173Y-12481192D02*
X10020649Y-12509764D01*
X10020649Y-12509764D02*
X9906363Y-12624050D01*
X9906363Y-12624050D02*
X10030173Y-12624050D01*
X10125411Y-12624050D02*
X10163506Y-12624050D01*
X10163506Y-12624050D02*
X10182554Y-12614526D01*
X10182554Y-12614526D02*
X10192077Y-12605002D01*
X10192077Y-12605002D02*
X10211125Y-12576431D01*
X10211125Y-12576431D02*
X10220649Y-12538335D01*
X10220649Y-12538335D02*
X10220649Y-12462145D01*
X10220649Y-12462145D02*
X10211125Y-12443097D01*
X10211125Y-12443097D02*
X10201601Y-12433573D01*
X10201601Y-12433573D02*
X10182554Y-12424050D01*
X10182554Y-12424050D02*
X10144458Y-12424050D01*
X10144458Y-12424050D02*
X10125411Y-12433573D01*
X10125411Y-12433573D02*
X10115887Y-12443097D01*
X10115887Y-12443097D02*
X10106363Y-12462145D01*
X10106363Y-12462145D02*
X10106363Y-12509764D01*
X10106363Y-12509764D02*
X10115887Y-12528812D01*
X10115887Y-12528812D02*
X10125411Y-12538335D01*
X10125411Y-12538335D02*
X10144458Y-12547859D01*
X10144458Y-12547859D02*
X10182554Y-12547859D01*
X10182554Y-12547859D02*
X10201601Y-12538335D01*
X10201601Y-12538335D02*
X10211125Y-12528812D01*
X10211125Y-12528812D02*
X10220649Y-12509764D01*
X10306363Y-12624050D02*
X10306363Y-12490716D01*
X10306363Y-12509764D02*
X10315887Y-12500240D01*
X10315887Y-12500240D02*
X10334934Y-12490716D01*
X10334934Y-12490716D02*
X10363506Y-12490716D01*
X10363506Y-12490716D02*
X10382554Y-12500240D01*
X10382554Y-12500240D02*
X10392077Y-12519288D01*
X10392077Y-12519288D02*
X10392077Y-12624050D01*
X10392077Y-12519288D02*
X10401601Y-12500240D01*
X10401601Y-12500240D02*
X10420649Y-12490716D01*
X10420649Y-12490716D02*
X10449220Y-12490716D01*
X10449220Y-12490716D02*
X10468268Y-12500240D01*
X10468268Y-12500240D02*
X10477792Y-12519288D01*
X10477792Y-12519288D02*
X10477792Y-12624050D01*
X10573030Y-12624050D02*
X10573030Y-12490716D01*
X10573030Y-12509764D02*
X10582554Y-12500240D01*
X10582554Y-12500240D02*
X10601601Y-12490716D01*
X10601601Y-12490716D02*
X10630173Y-12490716D01*
X10630173Y-12490716D02*
X10649220Y-12500240D01*
X10649220Y-12500240D02*
X10658744Y-12519288D01*
X10658744Y-12519288D02*
X10658744Y-12624050D01*
X10658744Y-12519288D02*
X10668268Y-12500240D01*
X10668268Y-12500240D02*
X10687315Y-12490716D01*
X10687315Y-12490716D02*
X10715887Y-12490716D01*
X10715887Y-12490716D02*
X10734935Y-12500240D01*
X10734935Y-12500240D02*
X10744458Y-12519288D01*
X10744458Y-12519288D02*
X10744458Y-12624050D01*
X11134935Y-12414526D02*
X10963506Y-12671669D01*
X11392077Y-12424050D02*
X11411125Y-12424050D01*
X11411125Y-12424050D02*
X11430173Y-12433573D01*
X11430173Y-12433573D02*
X11439696Y-12443097D01*
X11439696Y-12443097D02*
X11449220Y-12462145D01*
X11449220Y-12462145D02*
X11458744Y-12500240D01*
X11458744Y-12500240D02*
X11458744Y-12547859D01*
X11458744Y-12547859D02*
X11449220Y-12585954D01*
X11449220Y-12585954D02*
X11439696Y-12605002D01*
X11439696Y-12605002D02*
X11430173Y-12614526D01*
X11430173Y-12614526D02*
X11411125Y-12624050D01*
X11411125Y-12624050D02*
X11392077Y-12624050D01*
X11392077Y-12624050D02*
X11373030Y-12614526D01*
X11373030Y-12614526D02*
X11363506Y-12605002D01*
X11363506Y-12605002D02*
X11353982Y-12585954D01*
X11353982Y-12585954D02*
X11344458Y-12547859D01*
X11344458Y-12547859D02*
X11344458Y-12500240D01*
X11344458Y-12500240D02*
X11353982Y-12462145D01*
X11353982Y-12462145D02*
X11363506Y-12443097D01*
X11363506Y-12443097D02*
X11373030Y-12433573D01*
X11373030Y-12433573D02*
X11392077Y-12424050D01*
X11544458Y-12605002D02*
X11553982Y-12614526D01*
X11553982Y-12614526D02*
X11544458Y-12624050D01*
X11544458Y-12624050D02*
X11534935Y-12614526D01*
X11534935Y-12614526D02*
X11544458Y-12605002D01*
X11544458Y-12605002D02*
X11544458Y-12624050D01*
X11744458Y-12624050D02*
X11630173Y-12624050D01*
X11687315Y-12624050D02*
X11687315Y-12424050D01*
X11687315Y-12424050D02*
X11668268Y-12452621D01*
X11668268Y-12452621D02*
X11649220Y-12471669D01*
X11649220Y-12471669D02*
X11630173Y-12481192D01*
X11811125Y-12424050D02*
X11934935Y-12424050D01*
X11934935Y-12424050D02*
X11868268Y-12500240D01*
X11868268Y-12500240D02*
X11896839Y-12500240D01*
X11896839Y-12500240D02*
X11915887Y-12509764D01*
X11915887Y-12509764D02*
X11925411Y-12519288D01*
X11925411Y-12519288D02*
X11934935Y-12538335D01*
X11934935Y-12538335D02*
X11934935Y-12585954D01*
X11934935Y-12585954D02*
X11925411Y-12605002D01*
X11925411Y-12605002D02*
X11915887Y-12614526D01*
X11915887Y-12614526D02*
X11896839Y-12624050D01*
X11896839Y-12624050D02*
X11839696Y-12624050D01*
X11839696Y-12624050D02*
X11820649Y-12614526D01*
X11820649Y-12614526D02*
X11811125Y-12605002D01*
X12115887Y-12424050D02*
X12020649Y-12424050D01*
X12020649Y-12424050D02*
X12011125Y-12519288D01*
X12011125Y-12519288D02*
X12020649Y-12509764D01*
X12020649Y-12509764D02*
X12039696Y-12500240D01*
X12039696Y-12500240D02*
X12087316Y-12500240D01*
X12087316Y-12500240D02*
X12106363Y-12509764D01*
X12106363Y-12509764D02*
X12115887Y-12519288D01*
X12115887Y-12519288D02*
X12125411Y-12538335D01*
X12125411Y-12538335D02*
X12125411Y-12585954D01*
X12125411Y-12585954D02*
X12115887Y-12605002D01*
X12115887Y-12605002D02*
X12106363Y-12614526D01*
X12106363Y-12614526D02*
X12087316Y-12624050D01*
X12087316Y-12624050D02*
X12039696Y-12624050D01*
X12039696Y-12624050D02*
X12020649Y-12614526D01*
X12020649Y-12614526D02*
X12011125Y-12605002D01*
X12249220Y-12424050D02*
X12268268Y-12424050D01*
X12268268Y-12424050D02*
X12287316Y-12433573D01*
X12287316Y-12433573D02*
X12296839Y-12443097D01*
X12296839Y-12443097D02*
X12306363Y-12462145D01*
X12306363Y-12462145D02*
X12315887Y-12500240D01*
X12315887Y-12500240D02*
X12315887Y-12547859D01*
X12315887Y-12547859D02*
X12306363Y-12585954D01*
X12306363Y-12585954D02*
X12296839Y-12605002D01*
X12296839Y-12605002D02*
X12287316Y-12614526D01*
X12287316Y-12614526D02*
X12268268Y-12624050D01*
X12268268Y-12624050D02*
X12249220Y-12624050D01*
X12249220Y-12624050D02*
X12230173Y-12614526D01*
X12230173Y-12614526D02*
X12220649Y-12605002D01*
X12220649Y-12605002D02*
X12211125Y-12585954D01*
X12211125Y-12585954D02*
X12201601Y-12547859D01*
X12201601Y-12547859D02*
X12201601Y-12500240D01*
X12201601Y-12500240D02*
X12211125Y-12462145D01*
X12211125Y-12462145D02*
X12220649Y-12443097D01*
X12220649Y-12443097D02*
X12230173Y-12433573D01*
X12230173Y-12433573D02*
X12249220Y-12424050D01*
X12392077Y-12424050D02*
X12392077Y-12462145D01*
X12468268Y-12424050D02*
X12468268Y-12462145D01*
X12763506Y-12700240D02*
X12753982Y-12690716D01*
X12753982Y-12690716D02*
X12734935Y-12662145D01*
X12734935Y-12662145D02*
X12725411Y-12643097D01*
X12725411Y-12643097D02*
X12715887Y-12614526D01*
X12715887Y-12614526D02*
X12706363Y-12566907D01*
X12706363Y-12566907D02*
X12706363Y-12528812D01*
X12706363Y-12528812D02*
X12715887Y-12481192D01*
X12715887Y-12481192D02*
X12725411Y-12452621D01*
X12725411Y-12452621D02*
X12734935Y-12433573D01*
X12734935Y-12433573D02*
X12753982Y-12405002D01*
X12753982Y-12405002D02*
X12763506Y-12395478D01*
X12944458Y-12624050D02*
X12830173Y-12624050D01*
X12887316Y-12624050D02*
X12887316Y-12424050D01*
X12887316Y-12424050D02*
X12868268Y-12452621D01*
X12868268Y-12452621D02*
X12849220Y-12471669D01*
X12849220Y-12471669D02*
X12830173Y-12481192D01*
X13011125Y-12424050D02*
X13134935Y-12424050D01*
X13134935Y-12424050D02*
X13068268Y-12500240D01*
X13068268Y-12500240D02*
X13096839Y-12500240D01*
X13096839Y-12500240D02*
X13115887Y-12509764D01*
X13115887Y-12509764D02*
X13125411Y-12519288D01*
X13125411Y-12519288D02*
X13134935Y-12538335D01*
X13134935Y-12538335D02*
X13134935Y-12585954D01*
X13134935Y-12585954D02*
X13125411Y-12605002D01*
X13125411Y-12605002D02*
X13115887Y-12614526D01*
X13115887Y-12614526D02*
X13096839Y-12624050D01*
X13096839Y-12624050D02*
X13039697Y-12624050D01*
X13039697Y-12624050D02*
X13020649Y-12614526D01*
X13020649Y-12614526D02*
X13011125Y-12605002D01*
X13373030Y-12624050D02*
X13373030Y-12424050D01*
X13458744Y-12624050D02*
X13458744Y-12519288D01*
X13458744Y-12519288D02*
X13449220Y-12500240D01*
X13449220Y-12500240D02*
X13430173Y-12490716D01*
X13430173Y-12490716D02*
X13401601Y-12490716D01*
X13401601Y-12490716D02*
X13382554Y-12500240D01*
X13382554Y-12500240D02*
X13373030Y-12509764D01*
X13582554Y-12624050D02*
X13563506Y-12614526D01*
X13563506Y-12614526D02*
X13553982Y-12605002D01*
X13553982Y-12605002D02*
X13544459Y-12585954D01*
X13544459Y-12585954D02*
X13544459Y-12528812D01*
X13544459Y-12528812D02*
X13553982Y-12509764D01*
X13553982Y-12509764D02*
X13563506Y-12500240D01*
X13563506Y-12500240D02*
X13582554Y-12490716D01*
X13582554Y-12490716D02*
X13611125Y-12490716D01*
X13611125Y-12490716D02*
X13630173Y-12500240D01*
X13630173Y-12500240D02*
X13639697Y-12509764D01*
X13639697Y-12509764D02*
X13649220Y-12528812D01*
X13649220Y-12528812D02*
X13649220Y-12585954D01*
X13649220Y-12585954D02*
X13639697Y-12605002D01*
X13639697Y-12605002D02*
X13630173Y-12614526D01*
X13630173Y-12614526D02*
X13611125Y-12624050D01*
X13611125Y-12624050D02*
X13582554Y-12624050D01*
X13763506Y-12624050D02*
X13744459Y-12614526D01*
X13744459Y-12614526D02*
X13734935Y-12595478D01*
X13734935Y-12595478D02*
X13734935Y-12424050D01*
X13915887Y-12614526D02*
X13896840Y-12624050D01*
X13896840Y-12624050D02*
X13858744Y-12624050D01*
X13858744Y-12624050D02*
X13839697Y-12614526D01*
X13839697Y-12614526D02*
X13830173Y-12595478D01*
X13830173Y-12595478D02*
X13830173Y-12519288D01*
X13830173Y-12519288D02*
X13839697Y-12500240D01*
X13839697Y-12500240D02*
X13858744Y-12490716D01*
X13858744Y-12490716D02*
X13896840Y-12490716D01*
X13896840Y-12490716D02*
X13915887Y-12500240D01*
X13915887Y-12500240D02*
X13925411Y-12519288D01*
X13925411Y-12519288D02*
X13925411Y-12538335D01*
X13925411Y-12538335D02*
X13830173Y-12557383D01*
X14001601Y-12614526D02*
X14020649Y-12624050D01*
X14020649Y-12624050D02*
X14058744Y-12624050D01*
X14058744Y-12624050D02*
X14077792Y-12614526D01*
X14077792Y-12614526D02*
X14087316Y-12595478D01*
X14087316Y-12595478D02*
X14087316Y-12585954D01*
X14087316Y-12585954D02*
X14077792Y-12566907D01*
X14077792Y-12566907D02*
X14058744Y-12557383D01*
X14058744Y-12557383D02*
X14030173Y-12557383D01*
X14030173Y-12557383D02*
X14011125Y-12547859D01*
X14011125Y-12547859D02*
X14001601Y-12528812D01*
X14001601Y-12528812D02*
X14001601Y-12519288D01*
X14001601Y-12519288D02*
X14011125Y-12500240D01*
X14011125Y-12500240D02*
X14030173Y-12490716D01*
X14030173Y-12490716D02*
X14058744Y-12490716D01*
X14058744Y-12490716D02*
X14077792Y-12500240D01*
X14153982Y-12700240D02*
X14163506Y-12690716D01*
X14163506Y-12690716D02*
X14182554Y-12662145D01*
X14182554Y-12662145D02*
X14192078Y-12643097D01*
X14192078Y-12643097D02*
X14201601Y-12614526D01*
X14201601Y-12614526D02*
X14211125Y-12566907D01*
X14211125Y-12566907D02*
X14211125Y-12528812D01*
X14211125Y-12528812D02*
X14201601Y-12481192D01*
X14201601Y-12481192D02*
X14192078Y-12452621D01*
X14192078Y-12452621D02*
X14182554Y-12433573D01*
X14182554Y-12433573D02*
X14163506Y-12405002D01*
X14163506Y-12405002D02*
X14153982Y-12395478D01*
X14515887Y-12700240D02*
X14506363Y-12690716D01*
X14506363Y-12690716D02*
X14487316Y-12662145D01*
X14487316Y-12662145D02*
X14477792Y-12643097D01*
X14477792Y-12643097D02*
X14468268Y-12614526D01*
X14468268Y-12614526D02*
X14458744Y-12566907D01*
X14458744Y-12566907D02*
X14458744Y-12528812D01*
X14458744Y-12528812D02*
X14468268Y-12481192D01*
X14468268Y-12481192D02*
X14477792Y-12452621D01*
X14477792Y-12452621D02*
X14487316Y-12433573D01*
X14487316Y-12433573D02*
X14506363Y-12405002D01*
X14506363Y-12405002D02*
X14515887Y-12395478D01*
X14592078Y-12490716D02*
X14592078Y-12624050D01*
X14592078Y-12509764D02*
X14601601Y-12500240D01*
X14601601Y-12500240D02*
X14620649Y-12490716D01*
X14620649Y-12490716D02*
X14649221Y-12490716D01*
X14649221Y-12490716D02*
X14668268Y-12500240D01*
X14668268Y-12500240D02*
X14677792Y-12519288D01*
X14677792Y-12519288D02*
X14677792Y-12624050D01*
X14801601Y-12624050D02*
X14782554Y-12614526D01*
X14782554Y-12614526D02*
X14773030Y-12605002D01*
X14773030Y-12605002D02*
X14763506Y-12585954D01*
X14763506Y-12585954D02*
X14763506Y-12528812D01*
X14763506Y-12528812D02*
X14773030Y-12509764D01*
X14773030Y-12509764D02*
X14782554Y-12500240D01*
X14782554Y-12500240D02*
X14801601Y-12490716D01*
X14801601Y-12490716D02*
X14830173Y-12490716D01*
X14830173Y-12490716D02*
X14849221Y-12500240D01*
X14849221Y-12500240D02*
X14858744Y-12509764D01*
X14858744Y-12509764D02*
X14868268Y-12528812D01*
X14868268Y-12528812D02*
X14868268Y-12585954D01*
X14868268Y-12585954D02*
X14858744Y-12605002D01*
X14858744Y-12605002D02*
X14849221Y-12614526D01*
X14849221Y-12614526D02*
X14830173Y-12624050D01*
X14830173Y-12624050D02*
X14801601Y-12624050D01*
X14925411Y-12490716D02*
X15001601Y-12490716D01*
X14953982Y-12424050D02*
X14953982Y-12595478D01*
X14953982Y-12595478D02*
X14963506Y-12614526D01*
X14963506Y-12614526D02*
X14982554Y-12624050D01*
X14982554Y-12624050D02*
X15001601Y-12624050D01*
X15220649Y-12490716D02*
X15220649Y-12690716D01*
X15220649Y-12500240D02*
X15239697Y-12490716D01*
X15239697Y-12490716D02*
X15277792Y-12490716D01*
X15277792Y-12490716D02*
X15296840Y-12500240D01*
X15296840Y-12500240D02*
X15306363Y-12509764D01*
X15306363Y-12509764D02*
X15315887Y-12528812D01*
X15315887Y-12528812D02*
X15315887Y-12585954D01*
X15315887Y-12585954D02*
X15306363Y-12605002D01*
X15306363Y-12605002D02*
X15296840Y-12614526D01*
X15296840Y-12614526D02*
X15277792Y-12624050D01*
X15277792Y-12624050D02*
X15239697Y-12624050D01*
X15239697Y-12624050D02*
X15220649Y-12614526D01*
X15430173Y-12624050D02*
X15411125Y-12614526D01*
X15411125Y-12614526D02*
X15401602Y-12595478D01*
X15401602Y-12595478D02*
X15401602Y-12424050D01*
X15592078Y-12624050D02*
X15592078Y-12519288D01*
X15592078Y-12519288D02*
X15582554Y-12500240D01*
X15582554Y-12500240D02*
X15563506Y-12490716D01*
X15563506Y-12490716D02*
X15525411Y-12490716D01*
X15525411Y-12490716D02*
X15506363Y-12500240D01*
X15592078Y-12614526D02*
X15573030Y-12624050D01*
X15573030Y-12624050D02*
X15525411Y-12624050D01*
X15525411Y-12624050D02*
X15506363Y-12614526D01*
X15506363Y-12614526D02*
X15496840Y-12595478D01*
X15496840Y-12595478D02*
X15496840Y-12576431D01*
X15496840Y-12576431D02*
X15506363Y-12557383D01*
X15506363Y-12557383D02*
X15525411Y-12547859D01*
X15525411Y-12547859D02*
X15573030Y-12547859D01*
X15573030Y-12547859D02*
X15592078Y-12538335D01*
X15658744Y-12490716D02*
X15734935Y-12490716D01*
X15687316Y-12424050D02*
X15687316Y-12595478D01*
X15687316Y-12595478D02*
X15696840Y-12614526D01*
X15696840Y-12614526D02*
X15715887Y-12624050D01*
X15715887Y-12624050D02*
X15734935Y-12624050D01*
X15877792Y-12614526D02*
X15858744Y-12624050D01*
X15858744Y-12624050D02*
X15820649Y-12624050D01*
X15820649Y-12624050D02*
X15801602Y-12614526D01*
X15801602Y-12614526D02*
X15792078Y-12595478D01*
X15792078Y-12595478D02*
X15792078Y-12519288D01*
X15792078Y-12519288D02*
X15801602Y-12500240D01*
X15801602Y-12500240D02*
X15820649Y-12490716D01*
X15820649Y-12490716D02*
X15858744Y-12490716D01*
X15858744Y-12490716D02*
X15877792Y-12500240D01*
X15877792Y-12500240D02*
X15887316Y-12519288D01*
X15887316Y-12519288D02*
X15887316Y-12538335D01*
X15887316Y-12538335D02*
X15792078Y-12557383D01*
X16058744Y-12624050D02*
X16058744Y-12424050D01*
X16058744Y-12614526D02*
X16039697Y-12624050D01*
X16039697Y-12624050D02*
X16001602Y-12624050D01*
X16001602Y-12624050D02*
X15982554Y-12614526D01*
X15982554Y-12614526D02*
X15973030Y-12605002D01*
X15973030Y-12605002D02*
X15963506Y-12585954D01*
X15963506Y-12585954D02*
X15963506Y-12528812D01*
X15963506Y-12528812D02*
X15973030Y-12509764D01*
X15973030Y-12509764D02*
X15982554Y-12500240D01*
X15982554Y-12500240D02*
X16001602Y-12490716D01*
X16001602Y-12490716D02*
X16039697Y-12490716D01*
X16039697Y-12490716D02*
X16058744Y-12500240D01*
X16134935Y-12700240D02*
X16144459Y-12690716D01*
X16144459Y-12690716D02*
X16163506Y-12662145D01*
X16163506Y-12662145D02*
X16173030Y-12643097D01*
X16173030Y-12643097D02*
X16182554Y-12614526D01*
X16182554Y-12614526D02*
X16192078Y-12566907D01*
X16192078Y-12566907D02*
X16192078Y-12528812D01*
X16192078Y-12528812D02*
X16182554Y-12481192D01*
X16182554Y-12481192D02*
X16173030Y-12452621D01*
X16173030Y-12452621D02*
X16163506Y-12433573D01*
X16163506Y-12433573D02*
X16144459Y-12405002D01*
X16144459Y-12405002D02*
X16134935Y-12395478D01*
M02*
