%TF.GenerationSoftware,KiCad,Pcbnew,8.0.5*%
%TF.CreationDate,2024-09-24T21:25:47+10:00*%
%TF.ProjectId,pueo-min-space,7075656f-2d6d-4696-9e2d-73706163652e,0.1*%
%TF.SameCoordinates,Original*%
%TF.FileFunction,Legend,Top*%
%TF.FilePolarity,Positive*%
%FSLAX46Y46*%
G04 Gerber Fmt 4.6, Leading zero omitted, Abs format (unit mm)*
G04 Created by KiCad (PCBNEW 8.0.5) date 2024-09-24 21:25:47*
%MOMM*%
%LPD*%
G01*
G04 APERTURE LIST*
%ADD10C,0.150000*%
%ADD11C,0.120000*%
%ADD12C,2.000000*%
G04 APERTURE END LIST*
D10*
X186219993Y-59806160D02*
X185419993Y-59806160D01*
X186181897Y-59806160D02*
X186219993Y-59882350D01*
X186219993Y-59882350D02*
X186219993Y-60034731D01*
X186219993Y-60034731D02*
X186181897Y-60110922D01*
X186181897Y-60110922D02*
X186143802Y-60149017D01*
X186143802Y-60149017D02*
X186067612Y-60187112D01*
X186067612Y-60187112D02*
X185839040Y-60187112D01*
X185839040Y-60187112D02*
X185762850Y-60149017D01*
X185762850Y-60149017D02*
X185724755Y-60110922D01*
X185724755Y-60110922D02*
X185686659Y-60034731D01*
X185686659Y-60034731D02*
X185686659Y-59882350D01*
X185686659Y-59882350D02*
X185724755Y-59806160D01*
X186219993Y-60872827D02*
X185686659Y-60872827D01*
X186219993Y-60529970D02*
X185800945Y-60529970D01*
X185800945Y-60529970D02*
X185724755Y-60568065D01*
X185724755Y-60568065D02*
X185686659Y-60644255D01*
X185686659Y-60644255D02*
X185686659Y-60758541D01*
X185686659Y-60758541D02*
X185724755Y-60834732D01*
X185724755Y-60834732D02*
X185762850Y-60872827D01*
X185724755Y-61558542D02*
X185686659Y-61482351D01*
X185686659Y-61482351D02*
X185686659Y-61329970D01*
X185686659Y-61329970D02*
X185724755Y-61253780D01*
X185724755Y-61253780D02*
X185800945Y-61215684D01*
X185800945Y-61215684D02*
X186105707Y-61215684D01*
X186105707Y-61215684D02*
X186181897Y-61253780D01*
X186181897Y-61253780D02*
X186219993Y-61329970D01*
X186219993Y-61329970D02*
X186219993Y-61482351D01*
X186219993Y-61482351D02*
X186181897Y-61558542D01*
X186181897Y-61558542D02*
X186105707Y-61596637D01*
X186105707Y-61596637D02*
X186029516Y-61596637D01*
X186029516Y-61596637D02*
X185953326Y-61215684D01*
X185686659Y-62053779D02*
X185724755Y-61977589D01*
X185724755Y-61977589D02*
X185762850Y-61939494D01*
X185762850Y-61939494D02*
X185839040Y-61901398D01*
X185839040Y-61901398D02*
X186067612Y-61901398D01*
X186067612Y-61901398D02*
X186143802Y-61939494D01*
X186143802Y-61939494D02*
X186181897Y-61977589D01*
X186181897Y-61977589D02*
X186219993Y-62053779D01*
X186219993Y-62053779D02*
X186219993Y-62168065D01*
X186219993Y-62168065D02*
X186181897Y-62244256D01*
X186181897Y-62244256D02*
X186143802Y-62282351D01*
X186143802Y-62282351D02*
X186067612Y-62320446D01*
X186067612Y-62320446D02*
X185839040Y-62320446D01*
X185839040Y-62320446D02*
X185762850Y-62282351D01*
X185762850Y-62282351D02*
X185724755Y-62244256D01*
X185724755Y-62244256D02*
X185686659Y-62168065D01*
X185686659Y-62168065D02*
X185686659Y-62053779D01*
X185991421Y-62663304D02*
X185991421Y-63272828D01*
X185686659Y-63653780D02*
X186219993Y-63653780D01*
X186143802Y-63653780D02*
X186181897Y-63691875D01*
X186181897Y-63691875D02*
X186219993Y-63768065D01*
X186219993Y-63768065D02*
X186219993Y-63882351D01*
X186219993Y-63882351D02*
X186181897Y-63958542D01*
X186181897Y-63958542D02*
X186105707Y-63996637D01*
X186105707Y-63996637D02*
X185686659Y-63996637D01*
X186105707Y-63996637D02*
X186181897Y-64034732D01*
X186181897Y-64034732D02*
X186219993Y-64110923D01*
X186219993Y-64110923D02*
X186219993Y-64225208D01*
X186219993Y-64225208D02*
X186181897Y-64301399D01*
X186181897Y-64301399D02*
X186105707Y-64339494D01*
X186105707Y-64339494D02*
X185686659Y-64339494D01*
X185686659Y-64720447D02*
X186219993Y-64720447D01*
X186486659Y-64720447D02*
X186448564Y-64682351D01*
X186448564Y-64682351D02*
X186410469Y-64720447D01*
X186410469Y-64720447D02*
X186448564Y-64758542D01*
X186448564Y-64758542D02*
X186486659Y-64720447D01*
X186486659Y-64720447D02*
X186410469Y-64720447D01*
X186219993Y-65101399D02*
X185686659Y-65101399D01*
X186143802Y-65101399D02*
X186181897Y-65139494D01*
X186181897Y-65139494D02*
X186219993Y-65215684D01*
X186219993Y-65215684D02*
X186219993Y-65329970D01*
X186219993Y-65329970D02*
X186181897Y-65406161D01*
X186181897Y-65406161D02*
X186105707Y-65444256D01*
X186105707Y-65444256D02*
X185686659Y-65444256D01*
X185991421Y-65825209D02*
X185991421Y-66434733D01*
X185724755Y-66777589D02*
X185686659Y-66853780D01*
X185686659Y-66853780D02*
X185686659Y-67006161D01*
X185686659Y-67006161D02*
X185724755Y-67082351D01*
X185724755Y-67082351D02*
X185800945Y-67120447D01*
X185800945Y-67120447D02*
X185839040Y-67120447D01*
X185839040Y-67120447D02*
X185915231Y-67082351D01*
X185915231Y-67082351D02*
X185953326Y-67006161D01*
X185953326Y-67006161D02*
X185953326Y-66891875D01*
X185953326Y-66891875D02*
X185991421Y-66815685D01*
X185991421Y-66815685D02*
X186067612Y-66777589D01*
X186067612Y-66777589D02*
X186105707Y-66777589D01*
X186105707Y-66777589D02*
X186181897Y-66815685D01*
X186181897Y-66815685D02*
X186219993Y-66891875D01*
X186219993Y-66891875D02*
X186219993Y-67006161D01*
X186219993Y-67006161D02*
X186181897Y-67082351D01*
X186219993Y-67463304D02*
X185419993Y-67463304D01*
X186181897Y-67463304D02*
X186219993Y-67539494D01*
X186219993Y-67539494D02*
X186219993Y-67691875D01*
X186219993Y-67691875D02*
X186181897Y-67768066D01*
X186181897Y-67768066D02*
X186143802Y-67806161D01*
X186143802Y-67806161D02*
X186067612Y-67844256D01*
X186067612Y-67844256D02*
X185839040Y-67844256D01*
X185839040Y-67844256D02*
X185762850Y-67806161D01*
X185762850Y-67806161D02*
X185724755Y-67768066D01*
X185724755Y-67768066D02*
X185686659Y-67691875D01*
X185686659Y-67691875D02*
X185686659Y-67539494D01*
X185686659Y-67539494D02*
X185724755Y-67463304D01*
X185686659Y-68529971D02*
X186105707Y-68529971D01*
X186105707Y-68529971D02*
X186181897Y-68491876D01*
X186181897Y-68491876D02*
X186219993Y-68415685D01*
X186219993Y-68415685D02*
X186219993Y-68263304D01*
X186219993Y-68263304D02*
X186181897Y-68187114D01*
X185724755Y-68529971D02*
X185686659Y-68453780D01*
X185686659Y-68453780D02*
X185686659Y-68263304D01*
X185686659Y-68263304D02*
X185724755Y-68187114D01*
X185724755Y-68187114D02*
X185800945Y-68149018D01*
X185800945Y-68149018D02*
X185877135Y-68149018D01*
X185877135Y-68149018D02*
X185953326Y-68187114D01*
X185953326Y-68187114D02*
X185991421Y-68263304D01*
X185991421Y-68263304D02*
X185991421Y-68453780D01*
X185991421Y-68453780D02*
X186029516Y-68529971D01*
X185724755Y-69253781D02*
X185686659Y-69177590D01*
X185686659Y-69177590D02*
X185686659Y-69025209D01*
X185686659Y-69025209D02*
X185724755Y-68949019D01*
X185724755Y-68949019D02*
X185762850Y-68910924D01*
X185762850Y-68910924D02*
X185839040Y-68872828D01*
X185839040Y-68872828D02*
X186067612Y-68872828D01*
X186067612Y-68872828D02*
X186143802Y-68910924D01*
X186143802Y-68910924D02*
X186181897Y-68949019D01*
X186181897Y-68949019D02*
X186219993Y-69025209D01*
X186219993Y-69025209D02*
X186219993Y-69177590D01*
X186219993Y-69177590D02*
X186181897Y-69253781D01*
X185724755Y-69901400D02*
X185686659Y-69825209D01*
X185686659Y-69825209D02*
X185686659Y-69672828D01*
X185686659Y-69672828D02*
X185724755Y-69596638D01*
X185724755Y-69596638D02*
X185800945Y-69558542D01*
X185800945Y-69558542D02*
X186105707Y-69558542D01*
X186105707Y-69558542D02*
X186181897Y-69596638D01*
X186181897Y-69596638D02*
X186219993Y-69672828D01*
X186219993Y-69672828D02*
X186219993Y-69825209D01*
X186219993Y-69825209D02*
X186181897Y-69901400D01*
X186181897Y-69901400D02*
X186105707Y-69939495D01*
X186105707Y-69939495D02*
X186029516Y-69939495D01*
X186029516Y-69939495D02*
X185953326Y-69558542D01*
X186219993Y-70206161D02*
X185686659Y-70396637D01*
X185686659Y-70396637D02*
X186219993Y-70587114D01*
X186486659Y-71044257D02*
X186486659Y-71120447D01*
X186486659Y-71120447D02*
X186448564Y-71196638D01*
X186448564Y-71196638D02*
X186410469Y-71234733D01*
X186410469Y-71234733D02*
X186334278Y-71272828D01*
X186334278Y-71272828D02*
X186181897Y-71310923D01*
X186181897Y-71310923D02*
X185991421Y-71310923D01*
X185991421Y-71310923D02*
X185839040Y-71272828D01*
X185839040Y-71272828D02*
X185762850Y-71234733D01*
X185762850Y-71234733D02*
X185724755Y-71196638D01*
X185724755Y-71196638D02*
X185686659Y-71120447D01*
X185686659Y-71120447D02*
X185686659Y-71044257D01*
X185686659Y-71044257D02*
X185724755Y-70968066D01*
X185724755Y-70968066D02*
X185762850Y-70929971D01*
X185762850Y-70929971D02*
X185839040Y-70891876D01*
X185839040Y-70891876D02*
X185991421Y-70853780D01*
X185991421Y-70853780D02*
X186181897Y-70853780D01*
X186181897Y-70853780D02*
X186334278Y-70891876D01*
X186334278Y-70891876D02*
X186410469Y-70929971D01*
X186410469Y-70929971D02*
X186448564Y-70968066D01*
X186448564Y-70968066D02*
X186486659Y-71044257D01*
X185762850Y-71653781D02*
X185724755Y-71691876D01*
X185724755Y-71691876D02*
X185686659Y-71653781D01*
X185686659Y-71653781D02*
X185724755Y-71615685D01*
X185724755Y-71615685D02*
X185762850Y-71653781D01*
X185762850Y-71653781D02*
X185686659Y-71653781D01*
X185686659Y-72453780D02*
X185686659Y-71996637D01*
X185686659Y-72225209D02*
X186486659Y-72225209D01*
X186486659Y-72225209D02*
X186372374Y-72149018D01*
X186372374Y-72149018D02*
X186296183Y-72072828D01*
X186296183Y-72072828D02*
X186258088Y-71996637D01*
X184398704Y-59806160D02*
X185198704Y-59806160D01*
X184893942Y-59806160D02*
X184932038Y-59882350D01*
X184932038Y-59882350D02*
X184932038Y-60034731D01*
X184932038Y-60034731D02*
X184893942Y-60110922D01*
X184893942Y-60110922D02*
X184855847Y-60149017D01*
X184855847Y-60149017D02*
X184779657Y-60187112D01*
X184779657Y-60187112D02*
X184551085Y-60187112D01*
X184551085Y-60187112D02*
X184474895Y-60149017D01*
X184474895Y-60149017D02*
X184436800Y-60110922D01*
X184436800Y-60110922D02*
X184398704Y-60034731D01*
X184398704Y-60034731D02*
X184398704Y-59882350D01*
X184398704Y-59882350D02*
X184436800Y-59806160D01*
X184932038Y-60453779D02*
X184398704Y-60644255D01*
X184932038Y-60834732D02*
X184398704Y-60644255D01*
X184398704Y-60644255D02*
X184208228Y-60568065D01*
X184208228Y-60568065D02*
X184170133Y-60529970D01*
X184170133Y-60529970D02*
X184132038Y-60453779D01*
X184398704Y-61749018D02*
X184932038Y-61749018D01*
X184779657Y-61749018D02*
X184855847Y-61787113D01*
X184855847Y-61787113D02*
X184893942Y-61825208D01*
X184893942Y-61825208D02*
X184932038Y-61901399D01*
X184932038Y-61901399D02*
X184932038Y-61977589D01*
X184436800Y-62549018D02*
X184398704Y-62472827D01*
X184398704Y-62472827D02*
X184398704Y-62320446D01*
X184398704Y-62320446D02*
X184436800Y-62244256D01*
X184436800Y-62244256D02*
X184512990Y-62206160D01*
X184512990Y-62206160D02*
X184817752Y-62206160D01*
X184817752Y-62206160D02*
X184893942Y-62244256D01*
X184893942Y-62244256D02*
X184932038Y-62320446D01*
X184932038Y-62320446D02*
X184932038Y-62472827D01*
X184932038Y-62472827D02*
X184893942Y-62549018D01*
X184893942Y-62549018D02*
X184817752Y-62587113D01*
X184817752Y-62587113D02*
X184741561Y-62587113D01*
X184741561Y-62587113D02*
X184665371Y-62206160D01*
X184436800Y-63234732D02*
X184398704Y-63158541D01*
X184398704Y-63158541D02*
X184398704Y-63006160D01*
X184398704Y-63006160D02*
X184436800Y-62929970D01*
X184436800Y-62929970D02*
X184512990Y-62891874D01*
X184512990Y-62891874D02*
X184817752Y-62891874D01*
X184817752Y-62891874D02*
X184893942Y-62929970D01*
X184893942Y-62929970D02*
X184932038Y-63006160D01*
X184932038Y-63006160D02*
X184932038Y-63158541D01*
X184932038Y-63158541D02*
X184893942Y-63234732D01*
X184893942Y-63234732D02*
X184817752Y-63272827D01*
X184817752Y-63272827D02*
X184741561Y-63272827D01*
X184741561Y-63272827D02*
X184665371Y-62891874D01*
X184932038Y-63539493D02*
X184398704Y-63729969D01*
X184398704Y-63729969D02*
X184932038Y-63920446D01*
X184436800Y-64529970D02*
X184398704Y-64453779D01*
X184398704Y-64453779D02*
X184398704Y-64301398D01*
X184398704Y-64301398D02*
X184436800Y-64225208D01*
X184436800Y-64225208D02*
X184512990Y-64187112D01*
X184512990Y-64187112D02*
X184817752Y-64187112D01*
X184817752Y-64187112D02*
X184893942Y-64225208D01*
X184893942Y-64225208D02*
X184932038Y-64301398D01*
X184932038Y-64301398D02*
X184932038Y-64453779D01*
X184932038Y-64453779D02*
X184893942Y-64529970D01*
X184893942Y-64529970D02*
X184817752Y-64568065D01*
X184817752Y-64568065D02*
X184741561Y-64568065D01*
X184741561Y-64568065D02*
X184665371Y-64187112D01*
X178372742Y-53375206D02*
X178106075Y-52994253D01*
X177915599Y-53375206D02*
X177915599Y-52575206D01*
X177915599Y-52575206D02*
X178220361Y-52575206D01*
X178220361Y-52575206D02*
X178296551Y-52613301D01*
X178296551Y-52613301D02*
X178334646Y-52651396D01*
X178334646Y-52651396D02*
X178372742Y-52727587D01*
X178372742Y-52727587D02*
X178372742Y-52841872D01*
X178372742Y-52841872D02*
X178334646Y-52918063D01*
X178334646Y-52918063D02*
X178296551Y-52956158D01*
X178296551Y-52956158D02*
X178220361Y-52994253D01*
X178220361Y-52994253D02*
X177915599Y-52994253D01*
X178677503Y-53146634D02*
X179058456Y-53146634D01*
X178601313Y-53375206D02*
X178867980Y-52575206D01*
X178867980Y-52575206D02*
X179134646Y-53375206D01*
X179325122Y-52575206D02*
X179515598Y-53375206D01*
X179515598Y-53375206D02*
X179667979Y-52803777D01*
X179667979Y-52803777D02*
X179820360Y-53375206D01*
X179820360Y-53375206D02*
X180010837Y-52575206D01*
X178372739Y-58455208D02*
X178106072Y-58074255D01*
X177915596Y-58455208D02*
X177915596Y-57655208D01*
X177915596Y-57655208D02*
X178220358Y-57655208D01*
X178220358Y-57655208D02*
X178296548Y-57693303D01*
X178296548Y-57693303D02*
X178334643Y-57731398D01*
X178334643Y-57731398D02*
X178372739Y-57807589D01*
X178372739Y-57807589D02*
X178372739Y-57921874D01*
X178372739Y-57921874D02*
X178334643Y-57998065D01*
X178334643Y-57998065D02*
X178296548Y-58036160D01*
X178296548Y-58036160D02*
X178220358Y-58074255D01*
X178220358Y-58074255D02*
X177915596Y-58074255D01*
X178677500Y-58417113D02*
X178791786Y-58455208D01*
X178791786Y-58455208D02*
X178982262Y-58455208D01*
X178982262Y-58455208D02*
X179058453Y-58417113D01*
X179058453Y-58417113D02*
X179096548Y-58379017D01*
X179096548Y-58379017D02*
X179134643Y-58302827D01*
X179134643Y-58302827D02*
X179134643Y-58226636D01*
X179134643Y-58226636D02*
X179096548Y-58150446D01*
X179096548Y-58150446D02*
X179058453Y-58112351D01*
X179058453Y-58112351D02*
X178982262Y-58074255D01*
X178982262Y-58074255D02*
X178829881Y-58036160D01*
X178829881Y-58036160D02*
X178753691Y-57998065D01*
X178753691Y-57998065D02*
X178715596Y-57959970D01*
X178715596Y-57959970D02*
X178677500Y-57883779D01*
X178677500Y-57883779D02*
X178677500Y-57807589D01*
X178677500Y-57807589D02*
X178715596Y-57731398D01*
X178715596Y-57731398D02*
X178753691Y-57693303D01*
X178753691Y-57693303D02*
X178829881Y-57655208D01*
X178829881Y-57655208D02*
X179020358Y-57655208D01*
X179020358Y-57655208D02*
X179134643Y-57693303D01*
X179363215Y-57655208D02*
X179820358Y-57655208D01*
X179591786Y-58455208D02*
X179591786Y-57655208D01*
X178315594Y-55153301D02*
X178239404Y-55115206D01*
X178239404Y-55115206D02*
X178125118Y-55115206D01*
X178125118Y-55115206D02*
X178010832Y-55153301D01*
X178010832Y-55153301D02*
X177934642Y-55229491D01*
X177934642Y-55229491D02*
X177896547Y-55305682D01*
X177896547Y-55305682D02*
X177858451Y-55458063D01*
X177858451Y-55458063D02*
X177858451Y-55572349D01*
X177858451Y-55572349D02*
X177896547Y-55724730D01*
X177896547Y-55724730D02*
X177934642Y-55800920D01*
X177934642Y-55800920D02*
X178010832Y-55877111D01*
X178010832Y-55877111D02*
X178125118Y-55915206D01*
X178125118Y-55915206D02*
X178201309Y-55915206D01*
X178201309Y-55915206D02*
X178315594Y-55877111D01*
X178315594Y-55877111D02*
X178353690Y-55839015D01*
X178353690Y-55839015D02*
X178353690Y-55572349D01*
X178353690Y-55572349D02*
X178201309Y-55572349D01*
X178696547Y-55915206D02*
X178696547Y-55115206D01*
X178696547Y-55115206D02*
X179153690Y-55915206D01*
X179153690Y-55915206D02*
X179153690Y-55115206D01*
X179534642Y-55915206D02*
X179534642Y-55115206D01*
X179534642Y-55115206D02*
X179725118Y-55115206D01*
X179725118Y-55115206D02*
X179839404Y-55153301D01*
X179839404Y-55153301D02*
X179915594Y-55229491D01*
X179915594Y-55229491D02*
X179953689Y-55305682D01*
X179953689Y-55305682D02*
X179991785Y-55458063D01*
X179991785Y-55458063D02*
X179991785Y-55572349D01*
X179991785Y-55572349D02*
X179953689Y-55724730D01*
X179953689Y-55724730D02*
X179915594Y-55800920D01*
X179915594Y-55800920D02*
X179839404Y-55877111D01*
X179839404Y-55877111D02*
X179725118Y-55915206D01*
X179725118Y-55915206D02*
X179534642Y-55915206D01*
D11*
%TO.C,MCU1*%
X174385830Y-55232914D02*
X174385832Y-54552912D01*
X174385832Y-54012912D02*
X174385834Y-53332911D01*
X174385832Y-54552912D02*
X177185831Y-54552913D01*
X174385833Y-52682911D02*
X174385834Y-52012908D01*
X174385833Y-56552910D02*
X174385833Y-55882912D01*
X174385833Y-57092911D02*
X177185831Y-57092913D01*
X174385833Y-57757911D02*
X174385833Y-57092911D01*
X174385833Y-59092911D02*
X174385833Y-58407912D01*
X174385834Y-52012908D02*
X177185833Y-52012911D01*
X177185831Y-54552913D02*
X177185834Y-56552912D01*
X177185831Y-57092913D02*
X177185832Y-59092911D01*
X177185832Y-54012910D02*
X174385832Y-54012912D01*
X177185832Y-59092911D02*
X174385833Y-59092911D01*
X177185833Y-52012911D02*
X177185832Y-54012910D01*
X177185834Y-56552912D02*
X174385833Y-56552910D01*
%TD*%
D12*
%TO.C,SW16*%
X160355000Y-52582000D03*
X166855000Y-52582000D03*
%TD*%
M02*
