%TF.GenerationSoftware,KiCad,Pcbnew,8.0.5-1.fc40*%
%TF.CreationDate,2024-10-14T16:03:28+11:00*%
%TF.ProjectId,pueo,7075656f-2e6b-4696-9361-645f70636258,0.1*%
%TF.SameCoordinates,Original*%
%TF.FileFunction,Drillmap*%
%TF.FilePolarity,Positive*%
%FSLAX45Y45*%
G04 Gerber Fmt 4.5, Leading zero omitted, Abs format (unit mm)*
G04 Created by KiCad (PCBNEW 8.0.5-1.fc40) date 2024-10-14 16:03:28*
%MOMM*%
%LPD*%
G01*
G04 APERTURE LIST*
%ADD10C,0.150000*%
%ADD11C,0.200000*%
%ADD12C,0.100000*%
%ADD13C,0.109000*%
%ADD14C,0.109220*%
%ADD15C,0.127000*%
%ADD16C,0.220000*%
G04 APERTURE END LIST*
D10*
X18586046Y-15384964D02*
G75*
G02*
X18556164Y-15320880I17105J46985D01*
G01*
X10255357Y-14380449D02*
G75*
G02*
X10198890Y-14337894I-6957J49509D01*
G01*
X21206853Y-8759388D02*
G75*
G02*
X21256852Y-8809388I-3J-50002D01*
G01*
X11686853Y-14884388D02*
X18643624Y-14884388D01*
X21575160Y-14663811D02*
G75*
G02*
X21605038Y-14727894I-17100J-46979D01*
G01*
X10255358Y-14380450D02*
X11579894Y-14194298D01*
X11636853Y-14243811D02*
X11636853Y-14834388D01*
X15515603Y-8346888D02*
G75*
G02*
X15565602Y-8396888I-3J-50002D01*
G01*
X11636853Y-8809388D02*
X11636853Y-12426122D01*
X21289752Y-14559931D02*
G75*
G02*
X21256855Y-14512946I17098J46981D01*
G01*
X11579894Y-14194298D02*
G75*
G02*
X11636849Y-14243811I6956J-49512D01*
G01*
X21057812Y-16231405D02*
G75*
G02*
X20993728Y-16261283I-46982J17105D01*
G01*
X18586046Y-15384965D02*
X20993726Y-16261288D01*
X15615602Y-8759388D02*
G75*
G02*
X15565602Y-8709388I-3J49998D01*
G01*
X15565603Y-8709388D02*
X15565603Y-8396888D01*
X11686853Y-14884388D02*
G75*
G02*
X11636852Y-14834388I-3J49998D01*
G01*
X18690609Y-14951489D02*
X18556162Y-15320879D01*
X21057812Y-16231405D02*
X21605044Y-14727896D01*
X9976208Y-12753466D02*
X10198885Y-14337894D01*
X11636853Y-8809388D02*
G75*
G02*
X11686853Y-8759393I49997J-2D01*
G01*
X21575160Y-14663811D02*
X21289752Y-14559931D01*
X21206853Y-8759388D02*
X15615602Y-8759388D01*
X13865603Y-8396888D02*
X13865603Y-8709388D01*
X10018763Y-12696993D02*
X11593811Y-12475635D01*
X13865603Y-8709388D02*
G75*
G02*
X13815603Y-8759393I-50003J-2D01*
G01*
X15515603Y-8346888D02*
X13915603Y-8346888D01*
X13865603Y-8396888D02*
G75*
G02*
X13915603Y-8346893I49997J-2D01*
G01*
X21256853Y-14512946D02*
X21256853Y-8809388D01*
X11636853Y-12426122D02*
G75*
G02*
X11593812Y-12475636I-50003J2D01*
G01*
X18643624Y-14884388D02*
G75*
G02*
X18690608Y-14951488I-4J-50002D01*
G01*
X9976208Y-12753466D02*
G75*
G02*
X10018764Y-12696998I49512J6956D01*
G01*
X13815603Y-8759388D02*
X11686853Y-8759388D01*
D11*
D12*
X17499243Y-9195747D02*
X17539243Y-9235747D01*
X17539243Y-9195747D02*
X17499243Y-9235747D01*
X17500618Y-9454402D02*
X17540618Y-9494402D01*
X17540618Y-9454402D02*
X17500618Y-9494402D01*
X17505588Y-8939402D02*
X17545588Y-8979402D01*
X17545588Y-8939402D02*
X17505588Y-8979402D01*
X20130000Y-9229888D02*
X20170000Y-9269888D01*
X20170000Y-9229888D02*
X20130000Y-9269888D01*
X20250000Y-9483888D02*
X20290000Y-9523888D01*
X20290000Y-9483888D02*
X20250000Y-9523888D01*
X20422112Y-9737888D02*
X20462112Y-9777888D01*
X20462112Y-9737888D02*
X20422112Y-9777888D01*
X21060562Y-12629372D02*
G75*
G02*
X20985562Y-12629372I-37500J0D01*
G01*
X20985562Y-12629372D02*
G75*
G02*
X21060562Y-12629372I37500J0D01*
G01*
X21060562Y-12429372D02*
G75*
G02*
X20985562Y-12429372I-37500J0D01*
G01*
X20985562Y-12429372D02*
G75*
G02*
X21060562Y-12429372I37500J0D01*
G01*
X20805602Y-13229387D02*
X20805602Y-13309387D01*
X20765602Y-13269387D02*
X20845602Y-13269387D01*
X20805603Y-12979387D02*
X20805603Y-13059387D01*
X20765603Y-13019387D02*
X20845603Y-13019387D01*
X20805604Y-13479387D02*
X20805604Y-13559387D01*
X20765604Y-13519387D02*
X20845604Y-13519387D01*
X21125603Y-13479387D02*
X21125603Y-13559387D01*
X21085603Y-13519387D02*
X21165603Y-13519387D01*
X21125604Y-13229387D02*
X21125604Y-13309387D01*
X21085604Y-13269387D02*
X21165604Y-13269387D01*
X21125604Y-12979386D02*
X21125604Y-13059386D01*
X21085604Y-13019386D02*
X21165604Y-13019386D01*
D13*
X18215640Y-9000285D02*
X18215640Y-8923209D01*
X18138565Y-8923209D01*
X18138565Y-9000285D01*
X18215640Y-9000285D01*
X18215640Y-9508285D02*
X18215640Y-9431209D01*
X18138565Y-9431209D01*
X18138565Y-9508285D01*
X18215640Y-9508285D01*
X18723640Y-9000285D02*
X18723640Y-8923209D01*
X18646565Y-8923209D01*
X18646565Y-9000285D01*
X18723640Y-9000285D01*
X18723640Y-9508285D02*
X18723640Y-9431209D01*
X18646565Y-9431209D01*
X18646565Y-9508285D01*
X18723640Y-9508285D01*
D14*
X19503603Y-11590498D02*
X19558213Y-11535888D01*
X19503603Y-11481278D01*
X19448993Y-11535888D01*
X19503603Y-11590498D01*
X19503603Y-10320498D02*
X19558213Y-10265888D01*
X19503603Y-10211278D01*
X19448993Y-10265888D01*
X19503603Y-10320498D01*
X19503603Y-11336498D02*
X19558213Y-11281888D01*
X19503603Y-11227278D01*
X19448993Y-11281888D01*
X19503603Y-11336498D01*
X19503603Y-9558498D02*
X19558213Y-9503888D01*
X19503603Y-9449278D01*
X19448993Y-9503888D01*
X19503603Y-9558498D01*
X19503603Y-10066498D02*
X19558213Y-10011888D01*
X19503603Y-9957278D01*
X19448993Y-10011888D01*
X19503603Y-10066498D01*
X19503603Y-10574498D02*
X19558213Y-10519888D01*
X19503603Y-10465278D01*
X19448993Y-10519888D01*
X19503603Y-10574498D01*
X19503603Y-10828498D02*
X19558213Y-10773888D01*
X19503603Y-10719278D01*
X19448993Y-10773888D01*
X19503603Y-10828498D01*
X19503603Y-11082498D02*
X19558213Y-11027888D01*
X19503603Y-10973278D01*
X19448993Y-11027888D01*
X19503603Y-11082498D01*
X19503603Y-11844498D02*
X19558213Y-11789888D01*
X19503603Y-11735278D01*
X19448993Y-11789888D01*
X19503603Y-11844498D01*
X19503603Y-9812498D02*
X19558213Y-9757888D01*
X19503603Y-9703278D01*
X19448993Y-9757888D01*
X19503603Y-9812498D01*
X19503604Y-12098498D02*
X19558214Y-12043888D01*
X19503604Y-11989278D01*
X19448994Y-12043888D01*
X19503604Y-12098498D01*
X19503604Y-9304498D02*
X19558214Y-9249888D01*
X19503604Y-9195278D01*
X19448994Y-9249888D01*
X19503604Y-9304498D01*
X21027602Y-12098498D02*
X21082212Y-12043888D01*
X21027602Y-11989278D01*
X20972992Y-12043888D01*
X21027602Y-12098498D01*
X21027603Y-9304499D02*
X21082213Y-9249889D01*
X21027603Y-9195279D01*
X20972993Y-9249889D01*
X21027603Y-9304499D01*
X21027603Y-11590498D02*
X21082213Y-11535888D01*
X21027603Y-11481278D01*
X20972993Y-11535888D01*
X21027603Y-11590498D01*
X21027603Y-9558498D02*
X21082213Y-9503888D01*
X21027603Y-9449278D01*
X20972993Y-9503888D01*
X21027603Y-9558498D01*
X21027603Y-10320498D02*
X21082213Y-10265888D01*
X21027603Y-10211278D01*
X20972993Y-10265888D01*
X21027603Y-10320498D01*
X21027603Y-10574498D02*
X21082213Y-10519888D01*
X21027603Y-10465278D01*
X20972993Y-10519888D01*
X21027603Y-10574498D01*
X21027603Y-10828498D02*
X21082213Y-10773888D01*
X21027603Y-10719278D01*
X20972993Y-10773888D01*
X21027603Y-10828498D01*
X21027603Y-11336498D02*
X21082213Y-11281888D01*
X21027603Y-11227278D01*
X20972993Y-11281888D01*
X21027603Y-11336498D01*
X21027603Y-11844498D02*
X21082213Y-11789888D01*
X21027603Y-11735278D01*
X20972993Y-11789888D01*
X21027603Y-11844498D01*
X21027603Y-10066498D02*
X21082213Y-10011888D01*
X21027603Y-9957278D01*
X20972993Y-10011888D01*
X21027603Y-10066498D01*
X21027603Y-11082498D02*
X21082213Y-11027888D01*
X21027603Y-10973278D01*
X20972993Y-11027888D01*
X21027603Y-11082498D01*
X21027603Y-9812498D02*
X21082213Y-9757888D01*
X21027603Y-9703278D01*
X20972993Y-9757888D01*
X21027603Y-9812498D01*
D15*
X10317755Y-13057167D02*
X10444755Y-13184167D01*
X10444755Y-13057167D02*
X10317755Y-13184167D01*
X10444755Y-13120667D02*
G75*
G02*
X10317755Y-13120667I-63500J0D01*
G01*
X10317755Y-13120667D02*
G75*
G02*
X10444755Y-13120667I63500J0D01*
G01*
X10783662Y-12779625D02*
X10910662Y-12906625D01*
X10910662Y-12779625D02*
X10783662Y-12906625D01*
X10910662Y-12843125D02*
G75*
G02*
X10783662Y-12843125I-63500J0D01*
G01*
X10783662Y-12843125D02*
G75*
G02*
X10910662Y-12843125I63500J0D01*
G01*
X11308023Y-12917995D02*
X11435023Y-13044995D01*
X11435023Y-12917995D02*
X11308023Y-13044995D01*
X11435023Y-12981495D02*
G75*
G02*
X11308023Y-12981495I-63500J0D01*
G01*
X11308023Y-12981495D02*
G75*
G02*
X11435023Y-12981495I63500J0D01*
G01*
X12083288Y-9319692D02*
X12210288Y-9446692D01*
X12210288Y-9319692D02*
X12083288Y-9446692D01*
X12210288Y-9383192D02*
G75*
G02*
X12083288Y-9383192I-63500J0D01*
G01*
X12083288Y-9383192D02*
G75*
G02*
X12210288Y-9383192I63500J0D01*
G01*
X12174876Y-11067293D02*
X12301876Y-11194293D01*
X12301876Y-11067293D02*
X12174876Y-11194293D01*
X12301876Y-11130793D02*
G75*
G02*
X12174876Y-11130793I-63500J0D01*
G01*
X12174876Y-11130793D02*
G75*
G02*
X12301876Y-11130793I63500J0D01*
G01*
X12266464Y-12814895D02*
X12393464Y-12941895D01*
X12393464Y-12814895D02*
X12266464Y-12941895D01*
X12393464Y-12878395D02*
G75*
G02*
X12266464Y-12878395I-63500J0D01*
G01*
X12266464Y-12878395D02*
G75*
G02*
X12393464Y-12878395I63500J0D01*
G01*
X12571612Y-9083812D02*
X12698612Y-9210812D01*
X12698612Y-9083812D02*
X12571612Y-9210812D01*
X12698612Y-9147312D02*
G75*
G02*
X12571612Y-9147312I-63500J0D01*
G01*
X12571612Y-9147312D02*
G75*
G02*
X12698612Y-9147312I63500J0D01*
G01*
X12663200Y-10831413D02*
X12790200Y-10958413D01*
X12790200Y-10831413D02*
X12663200Y-10958413D01*
X12790200Y-10894913D02*
G75*
G02*
X12663200Y-10894913I-63500J0D01*
G01*
X12663200Y-10894913D02*
G75*
G02*
X12790200Y-10894913I63500J0D01*
G01*
X12754788Y-12579015D02*
X12881788Y-12706015D01*
X12881788Y-12579015D02*
X12754788Y-12706015D01*
X12881788Y-12642515D02*
G75*
G02*
X12754788Y-12642515I-63500J0D01*
G01*
X12754788Y-12642515D02*
G75*
G02*
X12881788Y-12642515I63500J0D01*
G01*
X13081917Y-9267356D02*
X13208917Y-9394356D01*
X13208917Y-9267356D02*
X13081917Y-9394356D01*
X13208917Y-9330856D02*
G75*
G02*
X13081917Y-9330856I-63500J0D01*
G01*
X13081917Y-9330856D02*
G75*
G02*
X13208917Y-9330856I63500J0D01*
G01*
X13173506Y-11014957D02*
X13300506Y-11141957D01*
X13300506Y-11014957D02*
X13173506Y-11141957D01*
X13300506Y-11078457D02*
G75*
G02*
X13173506Y-11078457I-63500J0D01*
G01*
X13173506Y-11078457D02*
G75*
G02*
X13300506Y-11078457I63500J0D01*
G01*
X13265094Y-12762559D02*
X13392094Y-12889559D01*
X13392094Y-12762559D02*
X13265094Y-12889559D01*
X13392094Y-12826059D02*
G75*
G02*
X13265094Y-12826059I-63500J0D01*
G01*
X13265094Y-12826059D02*
G75*
G02*
X13392094Y-12826059I63500J0D01*
G01*
X14152103Y-10503388D02*
X14279103Y-10630388D01*
X14279103Y-10503388D02*
X14152103Y-10630388D01*
X14279103Y-10566888D02*
G75*
G02*
X14152103Y-10566888I-63500J0D01*
G01*
X14152103Y-10566888D02*
G75*
G02*
X14279103Y-10566888I63500J0D01*
G01*
X14152103Y-8753388D02*
X14279103Y-8880388D01*
X14279103Y-8753388D02*
X14152103Y-8880388D01*
X14279103Y-8816888D02*
G75*
G02*
X14152103Y-8816888I-63500J0D01*
G01*
X14152103Y-8816888D02*
G75*
G02*
X14279103Y-8816888I63500J0D01*
G01*
X14152103Y-12253388D02*
X14279103Y-12380388D01*
X14279103Y-12253388D02*
X14152103Y-12380388D01*
X14279103Y-12316888D02*
G75*
G02*
X14152103Y-12316888I-63500J0D01*
G01*
X14152103Y-12316888D02*
G75*
G02*
X14279103Y-12316888I63500J0D01*
G01*
X14652103Y-10293388D02*
X14779103Y-10420388D01*
X14779103Y-10293388D02*
X14652103Y-10420388D01*
X14779103Y-10356888D02*
G75*
G02*
X14652103Y-10356888I-63500J0D01*
G01*
X14652103Y-10356888D02*
G75*
G02*
X14779103Y-10356888I63500J0D01*
G01*
X14652103Y-8543388D02*
X14779103Y-8670388D01*
X14779103Y-8543388D02*
X14652103Y-8670388D01*
X14779103Y-8606888D02*
G75*
G02*
X14652103Y-8606888I-63500J0D01*
G01*
X14652103Y-8606888D02*
G75*
G02*
X14779103Y-8606888I63500J0D01*
G01*
X14652103Y-12043388D02*
X14779103Y-12170388D01*
X14779103Y-12043388D02*
X14652103Y-12170388D01*
X14779103Y-12106888D02*
G75*
G02*
X14652103Y-12106888I-63500J0D01*
G01*
X14652103Y-12106888D02*
G75*
G02*
X14779103Y-12106888I63500J0D01*
G01*
X15152103Y-10503388D02*
X15279103Y-10630388D01*
X15279103Y-10503388D02*
X15152103Y-10630388D01*
X15279103Y-10566888D02*
G75*
G02*
X15152103Y-10566888I-63500J0D01*
G01*
X15152103Y-10566888D02*
G75*
G02*
X15279103Y-10566888I63500J0D01*
G01*
X15152103Y-8753388D02*
X15279103Y-8880388D01*
X15279103Y-8753388D02*
X15152103Y-8880388D01*
X15279103Y-8816888D02*
G75*
G02*
X15152103Y-8816888I-63500J0D01*
G01*
X15152103Y-8816888D02*
G75*
G02*
X15279103Y-8816888I63500J0D01*
G01*
X15152103Y-12253388D02*
X15279103Y-12380388D01*
X15279103Y-12253388D02*
X15152103Y-12380388D01*
X15279103Y-12316888D02*
G75*
G02*
X15152103Y-12316888I-63500J0D01*
G01*
X15152103Y-12316888D02*
G75*
G02*
X15279103Y-12316888I63500J0D01*
G01*
X16002102Y-10940888D02*
X16129102Y-11067888D01*
X16129102Y-10940888D02*
X16002102Y-11067888D01*
X16129102Y-11004388D02*
G75*
G02*
X16002102Y-11004388I-63500J0D01*
G01*
X16002102Y-11004388D02*
G75*
G02*
X16129102Y-11004388I63500J0D01*
G01*
X16002103Y-12690888D02*
X16129103Y-12817888D01*
X16129103Y-12690888D02*
X16002103Y-12817888D01*
X16129103Y-12754388D02*
G75*
G02*
X16002103Y-12754388I-63500J0D01*
G01*
X16002103Y-12754388D02*
G75*
G02*
X16129103Y-12754388I63500J0D01*
G01*
X16002103Y-9190888D02*
X16129103Y-9317888D01*
X16129103Y-9190888D02*
X16002103Y-9317888D01*
X16129103Y-9254388D02*
G75*
G02*
X16002103Y-9254388I-63500J0D01*
G01*
X16002103Y-9254388D02*
G75*
G02*
X16129103Y-9254388I63500J0D01*
G01*
X16502102Y-10730888D02*
X16629102Y-10857888D01*
X16629102Y-10730888D02*
X16502102Y-10857888D01*
X16629102Y-10794388D02*
G75*
G02*
X16502102Y-10794388I-63500J0D01*
G01*
X16502102Y-10794388D02*
G75*
G02*
X16629102Y-10794388I63500J0D01*
G01*
X16502103Y-12480888D02*
X16629103Y-12607888D01*
X16629103Y-12480888D02*
X16502103Y-12607888D01*
X16629103Y-12544388D02*
G75*
G02*
X16502103Y-12544388I-63500J0D01*
G01*
X16502103Y-12544388D02*
G75*
G02*
X16629103Y-12544388I63500J0D01*
G01*
X16502103Y-8980888D02*
X16629103Y-9107888D01*
X16629103Y-8980888D02*
X16502103Y-9107888D01*
X16629103Y-9044388D02*
G75*
G02*
X16502103Y-9044388I-63500J0D01*
G01*
X16502103Y-9044388D02*
G75*
G02*
X16629103Y-9044388I63500J0D01*
G01*
X17002102Y-10940888D02*
X17129102Y-11067888D01*
X17129102Y-10940888D02*
X17002102Y-11067888D01*
X17129102Y-11004388D02*
G75*
G02*
X17002102Y-11004388I-63500J0D01*
G01*
X17002102Y-11004388D02*
G75*
G02*
X17129102Y-11004388I63500J0D01*
G01*
X17002103Y-12690888D02*
X17129103Y-12817888D01*
X17129103Y-12690888D02*
X17002103Y-12817888D01*
X17129103Y-12754388D02*
G75*
G02*
X17002103Y-12754388I-63500J0D01*
G01*
X17002103Y-12754388D02*
G75*
G02*
X17129103Y-12754388I63500J0D01*
G01*
X17002103Y-9190888D02*
X17129103Y-9317888D01*
X17129103Y-9190888D02*
X17002103Y-9317888D01*
X17129103Y-9254388D02*
G75*
G02*
X17002103Y-9254388I-63500J0D01*
G01*
X17002103Y-9254388D02*
G75*
G02*
X17129103Y-9254388I63500J0D01*
G01*
X17852103Y-10065888D02*
X17979103Y-10192888D01*
X17979103Y-10065888D02*
X17852103Y-10192888D01*
X17979103Y-10129388D02*
G75*
G02*
X17852103Y-10129388I-63500J0D01*
G01*
X17852103Y-10129388D02*
G75*
G02*
X17979103Y-10129388I63500J0D01*
G01*
X17852103Y-11815888D02*
X17979103Y-11942888D01*
X17979103Y-11815888D02*
X17852103Y-11942888D01*
X17979103Y-11879388D02*
G75*
G02*
X17852103Y-11879388I-63500J0D01*
G01*
X17852103Y-11879388D02*
G75*
G02*
X17979103Y-11879388I63500J0D01*
G01*
X18352103Y-9855888D02*
X18479103Y-9982888D01*
X18479103Y-9855888D02*
X18352103Y-9982888D01*
X18479103Y-9919388D02*
G75*
G02*
X18352103Y-9919388I-63500J0D01*
G01*
X18352103Y-9919388D02*
G75*
G02*
X18479103Y-9919388I63500J0D01*
G01*
X18352103Y-11605888D02*
X18479103Y-11732888D01*
X18479103Y-11605888D02*
X18352103Y-11732888D01*
X18479103Y-11669388D02*
G75*
G02*
X18352103Y-11669388I-63500J0D01*
G01*
X18352103Y-11669388D02*
G75*
G02*
X18479103Y-11669388I63500J0D01*
G01*
X18852103Y-10065888D02*
X18979103Y-10192888D01*
X18979103Y-10065888D02*
X18852103Y-10192888D01*
X18979103Y-10129388D02*
G75*
G02*
X18852103Y-10129388I-63500J0D01*
G01*
X18852103Y-10129388D02*
G75*
G02*
X18979103Y-10129388I63500J0D01*
G01*
X18852103Y-11815888D02*
X18979103Y-11942888D01*
X18979103Y-11815888D02*
X18852103Y-11942888D01*
X18979103Y-11879388D02*
G75*
G02*
X18852103Y-11879388I-63500J0D01*
G01*
X18852103Y-11879388D02*
G75*
G02*
X18979103Y-11879388I63500J0D01*
G01*
X19677224Y-14432794D02*
X19804224Y-14559794D01*
X19804224Y-14432794D02*
X19677224Y-14559794D01*
X19804224Y-14496294D02*
G75*
G02*
X19677224Y-14496294I-63500J0D01*
G01*
X19677224Y-14496294D02*
G75*
G02*
X19804224Y-14496294I63500J0D01*
G01*
X20218895Y-14406469D02*
X20345895Y-14533469D01*
X20345895Y-14406469D02*
X20218895Y-14533469D01*
X20345895Y-14469969D02*
G75*
G02*
X20218895Y-14469969I-63500J0D01*
G01*
X20218895Y-14469969D02*
G75*
G02*
X20345895Y-14469969I63500J0D01*
G01*
X20616917Y-14774815D02*
X20743917Y-14901815D01*
X20743917Y-14774815D02*
X20616917Y-14901815D01*
X20743917Y-14838315D02*
G75*
G02*
X20616917Y-14838315I-63500J0D01*
G01*
X20616917Y-14838315D02*
G75*
G02*
X20743917Y-14838315I63500J0D01*
G01*
D16*
X12027643Y-14345027D02*
X12247643Y-14565027D01*
X12247643Y-14345027D02*
X12027643Y-14565027D01*
X12137643Y-14345027D02*
X12137643Y-14565027D01*
X12027643Y-14455027D02*
X12247643Y-14455027D01*
X13599558Y-9526640D02*
X13819558Y-9746640D01*
X13819558Y-9526640D02*
X13599558Y-9746640D01*
X13709558Y-9526640D02*
X13709558Y-9746640D01*
X13599558Y-9636640D02*
X13819558Y-9636640D01*
X13602541Y-11870141D02*
X13822541Y-12090141D01*
X13822541Y-11870141D02*
X13602541Y-12090141D01*
X13712541Y-11870141D02*
X13712541Y-12090141D01*
X13602541Y-11980141D02*
X13822541Y-11980141D01*
X15474004Y-13808098D02*
X15694004Y-14028098D01*
X15694004Y-13808098D02*
X15474004Y-14028098D01*
X15584004Y-13808098D02*
X15584004Y-14028098D01*
X15474004Y-13918098D02*
X15694004Y-13918098D01*
X15540498Y-9998678D02*
X15760498Y-10218678D01*
X15760498Y-9998678D02*
X15540498Y-10218678D01*
X15650498Y-9998678D02*
X15650498Y-10218678D01*
X15540498Y-10108678D02*
X15760498Y-10108678D01*
X17411961Y-11936635D02*
X17631961Y-12156635D01*
X17631961Y-11936635D02*
X17411961Y-12156635D01*
X17521961Y-11936635D02*
X17521961Y-12156635D01*
X17411961Y-12046635D02*
X17631961Y-12046635D01*
X18999450Y-9099800D02*
X19219450Y-9319800D01*
X19219450Y-9099800D02*
X18999450Y-9319800D01*
X19109450Y-9099800D02*
X19109450Y-9319800D01*
X18999450Y-9209800D02*
X19219450Y-9209800D01*
X20755603Y-13899388D02*
X20975603Y-14119388D01*
X20975603Y-13899388D02*
X20755603Y-14119388D01*
X20865603Y-13899388D02*
X20865603Y-14119388D01*
X20755603Y-14009388D02*
X20975603Y-14009388D01*
D11*
X10228999Y-16583282D02*
X10228999Y-16383282D01*
X10228999Y-16383282D02*
X10276618Y-16383282D01*
X10276618Y-16383282D02*
X10305190Y-16392806D01*
X10305190Y-16392806D02*
X10324237Y-16411854D01*
X10324237Y-16411854D02*
X10333761Y-16430901D01*
X10333761Y-16430901D02*
X10343285Y-16468996D01*
X10343285Y-16468996D02*
X10343285Y-16497568D01*
X10343285Y-16497568D02*
X10333761Y-16535663D01*
X10333761Y-16535663D02*
X10324237Y-16554711D01*
X10324237Y-16554711D02*
X10305190Y-16573758D01*
X10305190Y-16573758D02*
X10276618Y-16583282D01*
X10276618Y-16583282D02*
X10228999Y-16583282D01*
X10428999Y-16583282D02*
X10428999Y-16449949D01*
X10428999Y-16488044D02*
X10438523Y-16468996D01*
X10438523Y-16468996D02*
X10448047Y-16459473D01*
X10448047Y-16459473D02*
X10467094Y-16449949D01*
X10467094Y-16449949D02*
X10486142Y-16449949D01*
X10552809Y-16583282D02*
X10552809Y-16449949D01*
X10552809Y-16383282D02*
X10543285Y-16392806D01*
X10543285Y-16392806D02*
X10552809Y-16402330D01*
X10552809Y-16402330D02*
X10562332Y-16392806D01*
X10562332Y-16392806D02*
X10552809Y-16383282D01*
X10552809Y-16383282D02*
X10552809Y-16402330D01*
X10676618Y-16583282D02*
X10657570Y-16573758D01*
X10657570Y-16573758D02*
X10648047Y-16554711D01*
X10648047Y-16554711D02*
X10648047Y-16383282D01*
X10781380Y-16583282D02*
X10762332Y-16573758D01*
X10762332Y-16573758D02*
X10752809Y-16554711D01*
X10752809Y-16554711D02*
X10752809Y-16383282D01*
X11009951Y-16583282D02*
X11009951Y-16383282D01*
X11009951Y-16383282D02*
X11076618Y-16526139D01*
X11076618Y-16526139D02*
X11143285Y-16383282D01*
X11143285Y-16383282D02*
X11143285Y-16583282D01*
X11324237Y-16583282D02*
X11324237Y-16478520D01*
X11324237Y-16478520D02*
X11314713Y-16459473D01*
X11314713Y-16459473D02*
X11295666Y-16449949D01*
X11295666Y-16449949D02*
X11257570Y-16449949D01*
X11257570Y-16449949D02*
X11238523Y-16459473D01*
X11324237Y-16573758D02*
X11305189Y-16583282D01*
X11305189Y-16583282D02*
X11257570Y-16583282D01*
X11257570Y-16583282D02*
X11238523Y-16573758D01*
X11238523Y-16573758D02*
X11228999Y-16554711D01*
X11228999Y-16554711D02*
X11228999Y-16535663D01*
X11228999Y-16535663D02*
X11238523Y-16516615D01*
X11238523Y-16516615D02*
X11257570Y-16507092D01*
X11257570Y-16507092D02*
X11305189Y-16507092D01*
X11305189Y-16507092D02*
X11324237Y-16497568D01*
X11419475Y-16449949D02*
X11419475Y-16649949D01*
X11419475Y-16459473D02*
X11438523Y-16449949D01*
X11438523Y-16449949D02*
X11476618Y-16449949D01*
X11476618Y-16449949D02*
X11495666Y-16459473D01*
X11495666Y-16459473D02*
X11505189Y-16468996D01*
X11505189Y-16468996D02*
X11514713Y-16488044D01*
X11514713Y-16488044D02*
X11514713Y-16545187D01*
X11514713Y-16545187D02*
X11505189Y-16564234D01*
X11505189Y-16564234D02*
X11495666Y-16573758D01*
X11495666Y-16573758D02*
X11476618Y-16583282D01*
X11476618Y-16583282D02*
X11438523Y-16583282D01*
X11438523Y-16583282D02*
X11419475Y-16573758D01*
X11600428Y-16564234D02*
X11609951Y-16573758D01*
X11609951Y-16573758D02*
X11600428Y-16583282D01*
X11600428Y-16583282D02*
X11590904Y-16573758D01*
X11590904Y-16573758D02*
X11600428Y-16564234D01*
X11600428Y-16564234D02*
X11600428Y-16583282D01*
X11600428Y-16459473D02*
X11609951Y-16468996D01*
X11609951Y-16468996D02*
X11600428Y-16478520D01*
X11600428Y-16478520D02*
X11590904Y-16468996D01*
X11590904Y-16468996D02*
X11600428Y-16459473D01*
X11600428Y-16459473D02*
X11600428Y-16478520D01*
D12*
X9928222Y-16891798D02*
X9968222Y-16931798D01*
X9968222Y-16891798D02*
X9928222Y-16931798D01*
D11*
X10267094Y-16803282D02*
X10286142Y-16803282D01*
X10286142Y-16803282D02*
X10305190Y-16812806D01*
X10305190Y-16812806D02*
X10314713Y-16822330D01*
X10314713Y-16822330D02*
X10324237Y-16841377D01*
X10324237Y-16841377D02*
X10333761Y-16879473D01*
X10333761Y-16879473D02*
X10333761Y-16927092D01*
X10333761Y-16927092D02*
X10324237Y-16965187D01*
X10324237Y-16965187D02*
X10314713Y-16984235D01*
X10314713Y-16984235D02*
X10305190Y-16993758D01*
X10305190Y-16993758D02*
X10286142Y-17003282D01*
X10286142Y-17003282D02*
X10267094Y-17003282D01*
X10267094Y-17003282D02*
X10248047Y-16993758D01*
X10248047Y-16993758D02*
X10238523Y-16984235D01*
X10238523Y-16984235D02*
X10228999Y-16965187D01*
X10228999Y-16965187D02*
X10219475Y-16927092D01*
X10219475Y-16927092D02*
X10219475Y-16879473D01*
X10219475Y-16879473D02*
X10228999Y-16841377D01*
X10228999Y-16841377D02*
X10238523Y-16822330D01*
X10238523Y-16822330D02*
X10248047Y-16812806D01*
X10248047Y-16812806D02*
X10267094Y-16803282D01*
X10419475Y-16984235D02*
X10428999Y-16993758D01*
X10428999Y-16993758D02*
X10419475Y-17003282D01*
X10419475Y-17003282D02*
X10409951Y-16993758D01*
X10409951Y-16993758D02*
X10419475Y-16984235D01*
X10419475Y-16984235D02*
X10419475Y-17003282D01*
X10600428Y-16869949D02*
X10600428Y-17003282D01*
X10552809Y-16793758D02*
X10505190Y-16936616D01*
X10505190Y-16936616D02*
X10628999Y-16936616D01*
X10743285Y-16803282D02*
X10762332Y-16803282D01*
X10762332Y-16803282D02*
X10781380Y-16812806D01*
X10781380Y-16812806D02*
X10790904Y-16822330D01*
X10790904Y-16822330D02*
X10800428Y-16841377D01*
X10800428Y-16841377D02*
X10809951Y-16879473D01*
X10809951Y-16879473D02*
X10809951Y-16927092D01*
X10809951Y-16927092D02*
X10800428Y-16965187D01*
X10800428Y-16965187D02*
X10790904Y-16984235D01*
X10790904Y-16984235D02*
X10781380Y-16993758D01*
X10781380Y-16993758D02*
X10762332Y-17003282D01*
X10762332Y-17003282D02*
X10743285Y-17003282D01*
X10743285Y-17003282D02*
X10724237Y-16993758D01*
X10724237Y-16993758D02*
X10714713Y-16984235D01*
X10714713Y-16984235D02*
X10705190Y-16965187D01*
X10705190Y-16965187D02*
X10695666Y-16927092D01*
X10695666Y-16927092D02*
X10695666Y-16879473D01*
X10695666Y-16879473D02*
X10705190Y-16841377D01*
X10705190Y-16841377D02*
X10714713Y-16822330D01*
X10714713Y-16822330D02*
X10724237Y-16812806D01*
X10724237Y-16812806D02*
X10743285Y-16803282D01*
X10933761Y-16803282D02*
X10952809Y-16803282D01*
X10952809Y-16803282D02*
X10971856Y-16812806D01*
X10971856Y-16812806D02*
X10981380Y-16822330D01*
X10981380Y-16822330D02*
X10990904Y-16841377D01*
X10990904Y-16841377D02*
X11000428Y-16879473D01*
X11000428Y-16879473D02*
X11000428Y-16927092D01*
X11000428Y-16927092D02*
X10990904Y-16965187D01*
X10990904Y-16965187D02*
X10981380Y-16984235D01*
X10981380Y-16984235D02*
X10971856Y-16993758D01*
X10971856Y-16993758D02*
X10952809Y-17003282D01*
X10952809Y-17003282D02*
X10933761Y-17003282D01*
X10933761Y-17003282D02*
X10914713Y-16993758D01*
X10914713Y-16993758D02*
X10905190Y-16984235D01*
X10905190Y-16984235D02*
X10895666Y-16965187D01*
X10895666Y-16965187D02*
X10886142Y-16927092D01*
X10886142Y-16927092D02*
X10886142Y-16879473D01*
X10886142Y-16879473D02*
X10895666Y-16841377D01*
X10895666Y-16841377D02*
X10905190Y-16822330D01*
X10905190Y-16822330D02*
X10914713Y-16812806D01*
X10914713Y-16812806D02*
X10933761Y-16803282D01*
X11086142Y-17003282D02*
X11086142Y-16869949D01*
X11086142Y-16888996D02*
X11095666Y-16879473D01*
X11095666Y-16879473D02*
X11114713Y-16869949D01*
X11114713Y-16869949D02*
X11143285Y-16869949D01*
X11143285Y-16869949D02*
X11162332Y-16879473D01*
X11162332Y-16879473D02*
X11171856Y-16898520D01*
X11171856Y-16898520D02*
X11171856Y-17003282D01*
X11171856Y-16898520D02*
X11181380Y-16879473D01*
X11181380Y-16879473D02*
X11200428Y-16869949D01*
X11200428Y-16869949D02*
X11228999Y-16869949D01*
X11228999Y-16869949D02*
X11248047Y-16879473D01*
X11248047Y-16879473D02*
X11257570Y-16898520D01*
X11257570Y-16898520D02*
X11257570Y-17003282D01*
X11352809Y-17003282D02*
X11352809Y-16869949D01*
X11352809Y-16888996D02*
X11362332Y-16879473D01*
X11362332Y-16879473D02*
X11381380Y-16869949D01*
X11381380Y-16869949D02*
X11409951Y-16869949D01*
X11409951Y-16869949D02*
X11428999Y-16879473D01*
X11428999Y-16879473D02*
X11438523Y-16898520D01*
X11438523Y-16898520D02*
X11438523Y-17003282D01*
X11438523Y-16898520D02*
X11448047Y-16879473D01*
X11448047Y-16879473D02*
X11467094Y-16869949D01*
X11467094Y-16869949D02*
X11495666Y-16869949D01*
X11495666Y-16869949D02*
X11514713Y-16879473D01*
X11514713Y-16879473D02*
X11524237Y-16898520D01*
X11524237Y-16898520D02*
X11524237Y-17003282D01*
X11914713Y-16793758D02*
X11743285Y-17050901D01*
X12171856Y-16803282D02*
X12190904Y-16803282D01*
X12190904Y-16803282D02*
X12209952Y-16812806D01*
X12209952Y-16812806D02*
X12219475Y-16822330D01*
X12219475Y-16822330D02*
X12228999Y-16841377D01*
X12228999Y-16841377D02*
X12238523Y-16879473D01*
X12238523Y-16879473D02*
X12238523Y-16927092D01*
X12238523Y-16927092D02*
X12228999Y-16965187D01*
X12228999Y-16965187D02*
X12219475Y-16984235D01*
X12219475Y-16984235D02*
X12209952Y-16993758D01*
X12209952Y-16993758D02*
X12190904Y-17003282D01*
X12190904Y-17003282D02*
X12171856Y-17003282D01*
X12171856Y-17003282D02*
X12152809Y-16993758D01*
X12152809Y-16993758D02*
X12143285Y-16984235D01*
X12143285Y-16984235D02*
X12133761Y-16965187D01*
X12133761Y-16965187D02*
X12124237Y-16927092D01*
X12124237Y-16927092D02*
X12124237Y-16879473D01*
X12124237Y-16879473D02*
X12133761Y-16841377D01*
X12133761Y-16841377D02*
X12143285Y-16822330D01*
X12143285Y-16822330D02*
X12152809Y-16812806D01*
X12152809Y-16812806D02*
X12171856Y-16803282D01*
X12324237Y-16984235D02*
X12333761Y-16993758D01*
X12333761Y-16993758D02*
X12324237Y-17003282D01*
X12324237Y-17003282D02*
X12314713Y-16993758D01*
X12314713Y-16993758D02*
X12324237Y-16984235D01*
X12324237Y-16984235D02*
X12324237Y-17003282D01*
X12457571Y-16803282D02*
X12476618Y-16803282D01*
X12476618Y-16803282D02*
X12495666Y-16812806D01*
X12495666Y-16812806D02*
X12505190Y-16822330D01*
X12505190Y-16822330D02*
X12514713Y-16841377D01*
X12514713Y-16841377D02*
X12524237Y-16879473D01*
X12524237Y-16879473D02*
X12524237Y-16927092D01*
X12524237Y-16927092D02*
X12514713Y-16965187D01*
X12514713Y-16965187D02*
X12505190Y-16984235D01*
X12505190Y-16984235D02*
X12495666Y-16993758D01*
X12495666Y-16993758D02*
X12476618Y-17003282D01*
X12476618Y-17003282D02*
X12457571Y-17003282D01*
X12457571Y-17003282D02*
X12438523Y-16993758D01*
X12438523Y-16993758D02*
X12428999Y-16984235D01*
X12428999Y-16984235D02*
X12419475Y-16965187D01*
X12419475Y-16965187D02*
X12409952Y-16927092D01*
X12409952Y-16927092D02*
X12409952Y-16879473D01*
X12409952Y-16879473D02*
X12419475Y-16841377D01*
X12419475Y-16841377D02*
X12428999Y-16822330D01*
X12428999Y-16822330D02*
X12438523Y-16812806D01*
X12438523Y-16812806D02*
X12457571Y-16803282D01*
X12714713Y-17003282D02*
X12600428Y-17003282D01*
X12657571Y-17003282D02*
X12657571Y-16803282D01*
X12657571Y-16803282D02*
X12638523Y-16831854D01*
X12638523Y-16831854D02*
X12619475Y-16850901D01*
X12619475Y-16850901D02*
X12600428Y-16860425D01*
X12895666Y-16803282D02*
X12800428Y-16803282D01*
X12800428Y-16803282D02*
X12790904Y-16898520D01*
X12790904Y-16898520D02*
X12800428Y-16888996D01*
X12800428Y-16888996D02*
X12819475Y-16879473D01*
X12819475Y-16879473D02*
X12867094Y-16879473D01*
X12867094Y-16879473D02*
X12886142Y-16888996D01*
X12886142Y-16888996D02*
X12895666Y-16898520D01*
X12895666Y-16898520D02*
X12905190Y-16917568D01*
X12905190Y-16917568D02*
X12905190Y-16965187D01*
X12905190Y-16965187D02*
X12895666Y-16984235D01*
X12895666Y-16984235D02*
X12886142Y-16993758D01*
X12886142Y-16993758D02*
X12867094Y-17003282D01*
X12867094Y-17003282D02*
X12819475Y-17003282D01*
X12819475Y-17003282D02*
X12800428Y-16993758D01*
X12800428Y-16993758D02*
X12790904Y-16984235D01*
X12971856Y-16803282D02*
X13105190Y-16803282D01*
X13105190Y-16803282D02*
X13019475Y-17003282D01*
X13171856Y-16803282D02*
X13171856Y-16841377D01*
X13248047Y-16803282D02*
X13248047Y-16841377D01*
X13543285Y-17079473D02*
X13533761Y-17069949D01*
X13533761Y-17069949D02*
X13514714Y-17041377D01*
X13514714Y-17041377D02*
X13505190Y-17022330D01*
X13505190Y-17022330D02*
X13495666Y-16993758D01*
X13495666Y-16993758D02*
X13486142Y-16946139D01*
X13486142Y-16946139D02*
X13486142Y-16908044D01*
X13486142Y-16908044D02*
X13495666Y-16860425D01*
X13495666Y-16860425D02*
X13505190Y-16831854D01*
X13505190Y-16831854D02*
X13514714Y-16812806D01*
X13514714Y-16812806D02*
X13533761Y-16784235D01*
X13533761Y-16784235D02*
X13543285Y-16774711D01*
X13705190Y-16803282D02*
X13667094Y-16803282D01*
X13667094Y-16803282D02*
X13648047Y-16812806D01*
X13648047Y-16812806D02*
X13638523Y-16822330D01*
X13638523Y-16822330D02*
X13619475Y-16850901D01*
X13619475Y-16850901D02*
X13609952Y-16888996D01*
X13609952Y-16888996D02*
X13609952Y-16965187D01*
X13609952Y-16965187D02*
X13619475Y-16984235D01*
X13619475Y-16984235D02*
X13628999Y-16993758D01*
X13628999Y-16993758D02*
X13648047Y-17003282D01*
X13648047Y-17003282D02*
X13686142Y-17003282D01*
X13686142Y-17003282D02*
X13705190Y-16993758D01*
X13705190Y-16993758D02*
X13714714Y-16984235D01*
X13714714Y-16984235D02*
X13724237Y-16965187D01*
X13724237Y-16965187D02*
X13724237Y-16917568D01*
X13724237Y-16917568D02*
X13714714Y-16898520D01*
X13714714Y-16898520D02*
X13705190Y-16888996D01*
X13705190Y-16888996D02*
X13686142Y-16879473D01*
X13686142Y-16879473D02*
X13648047Y-16879473D01*
X13648047Y-16879473D02*
X13628999Y-16888996D01*
X13628999Y-16888996D02*
X13619475Y-16898520D01*
X13619475Y-16898520D02*
X13609952Y-16917568D01*
X13962333Y-17003282D02*
X13962333Y-16803282D01*
X14048047Y-17003282D02*
X14048047Y-16898520D01*
X14048047Y-16898520D02*
X14038523Y-16879473D01*
X14038523Y-16879473D02*
X14019476Y-16869949D01*
X14019476Y-16869949D02*
X13990904Y-16869949D01*
X13990904Y-16869949D02*
X13971856Y-16879473D01*
X13971856Y-16879473D02*
X13962333Y-16888996D01*
X14171856Y-17003282D02*
X14152809Y-16993758D01*
X14152809Y-16993758D02*
X14143285Y-16984235D01*
X14143285Y-16984235D02*
X14133761Y-16965187D01*
X14133761Y-16965187D02*
X14133761Y-16908044D01*
X14133761Y-16908044D02*
X14143285Y-16888996D01*
X14143285Y-16888996D02*
X14152809Y-16879473D01*
X14152809Y-16879473D02*
X14171856Y-16869949D01*
X14171856Y-16869949D02*
X14200428Y-16869949D01*
X14200428Y-16869949D02*
X14219476Y-16879473D01*
X14219476Y-16879473D02*
X14228999Y-16888996D01*
X14228999Y-16888996D02*
X14238523Y-16908044D01*
X14238523Y-16908044D02*
X14238523Y-16965187D01*
X14238523Y-16965187D02*
X14228999Y-16984235D01*
X14228999Y-16984235D02*
X14219476Y-16993758D01*
X14219476Y-16993758D02*
X14200428Y-17003282D01*
X14200428Y-17003282D02*
X14171856Y-17003282D01*
X14352809Y-17003282D02*
X14333761Y-16993758D01*
X14333761Y-16993758D02*
X14324237Y-16974711D01*
X14324237Y-16974711D02*
X14324237Y-16803282D01*
X14505190Y-16993758D02*
X14486142Y-17003282D01*
X14486142Y-17003282D02*
X14448047Y-17003282D01*
X14448047Y-17003282D02*
X14428999Y-16993758D01*
X14428999Y-16993758D02*
X14419476Y-16974711D01*
X14419476Y-16974711D02*
X14419476Y-16898520D01*
X14419476Y-16898520D02*
X14428999Y-16879473D01*
X14428999Y-16879473D02*
X14448047Y-16869949D01*
X14448047Y-16869949D02*
X14486142Y-16869949D01*
X14486142Y-16869949D02*
X14505190Y-16879473D01*
X14505190Y-16879473D02*
X14514714Y-16898520D01*
X14514714Y-16898520D02*
X14514714Y-16917568D01*
X14514714Y-16917568D02*
X14419476Y-16936616D01*
X14590904Y-16993758D02*
X14609952Y-17003282D01*
X14609952Y-17003282D02*
X14648047Y-17003282D01*
X14648047Y-17003282D02*
X14667095Y-16993758D01*
X14667095Y-16993758D02*
X14676618Y-16974711D01*
X14676618Y-16974711D02*
X14676618Y-16965187D01*
X14676618Y-16965187D02*
X14667095Y-16946139D01*
X14667095Y-16946139D02*
X14648047Y-16936616D01*
X14648047Y-16936616D02*
X14619476Y-16936616D01*
X14619476Y-16936616D02*
X14600428Y-16927092D01*
X14600428Y-16927092D02*
X14590904Y-16908044D01*
X14590904Y-16908044D02*
X14590904Y-16898520D01*
X14590904Y-16898520D02*
X14600428Y-16879473D01*
X14600428Y-16879473D02*
X14619476Y-16869949D01*
X14619476Y-16869949D02*
X14648047Y-16869949D01*
X14648047Y-16869949D02*
X14667095Y-16879473D01*
X14743285Y-17079473D02*
X14752809Y-17069949D01*
X14752809Y-17069949D02*
X14771857Y-17041377D01*
X14771857Y-17041377D02*
X14781380Y-17022330D01*
X14781380Y-17022330D02*
X14790904Y-16993758D01*
X14790904Y-16993758D02*
X14800428Y-16946139D01*
X14800428Y-16946139D02*
X14800428Y-16908044D01*
X14800428Y-16908044D02*
X14790904Y-16860425D01*
X14790904Y-16860425D02*
X14781380Y-16831854D01*
X14781380Y-16831854D02*
X14771857Y-16812806D01*
X14771857Y-16812806D02*
X14752809Y-16784235D01*
X14752809Y-16784235D02*
X14743285Y-16774711D01*
D12*
X9968222Y-17175798D02*
G75*
G02*
X9893222Y-17175798I-37500J0D01*
G01*
X9893222Y-17175798D02*
G75*
G02*
X9968222Y-17175798I37500J0D01*
G01*
D11*
X10267094Y-17067282D02*
X10286142Y-17067282D01*
X10286142Y-17067282D02*
X10305190Y-17076806D01*
X10305190Y-17076806D02*
X10314713Y-17086330D01*
X10314713Y-17086330D02*
X10324237Y-17105377D01*
X10324237Y-17105377D02*
X10333761Y-17143473D01*
X10333761Y-17143473D02*
X10333761Y-17191092D01*
X10333761Y-17191092D02*
X10324237Y-17229187D01*
X10324237Y-17229187D02*
X10314713Y-17248235D01*
X10314713Y-17248235D02*
X10305190Y-17257758D01*
X10305190Y-17257758D02*
X10286142Y-17267282D01*
X10286142Y-17267282D02*
X10267094Y-17267282D01*
X10267094Y-17267282D02*
X10248047Y-17257758D01*
X10248047Y-17257758D02*
X10238523Y-17248235D01*
X10238523Y-17248235D02*
X10228999Y-17229187D01*
X10228999Y-17229187D02*
X10219475Y-17191092D01*
X10219475Y-17191092D02*
X10219475Y-17143473D01*
X10219475Y-17143473D02*
X10228999Y-17105377D01*
X10228999Y-17105377D02*
X10238523Y-17086330D01*
X10238523Y-17086330D02*
X10248047Y-17076806D01*
X10248047Y-17076806D02*
X10267094Y-17067282D01*
X10419475Y-17248235D02*
X10428999Y-17257758D01*
X10428999Y-17257758D02*
X10419475Y-17267282D01*
X10419475Y-17267282D02*
X10409951Y-17257758D01*
X10409951Y-17257758D02*
X10419475Y-17248235D01*
X10419475Y-17248235D02*
X10419475Y-17267282D01*
X10495666Y-17067282D02*
X10628999Y-17067282D01*
X10628999Y-17067282D02*
X10543285Y-17267282D01*
X10800428Y-17067282D02*
X10705190Y-17067282D01*
X10705190Y-17067282D02*
X10695666Y-17162520D01*
X10695666Y-17162520D02*
X10705190Y-17152996D01*
X10705190Y-17152996D02*
X10724237Y-17143473D01*
X10724237Y-17143473D02*
X10771856Y-17143473D01*
X10771856Y-17143473D02*
X10790904Y-17152996D01*
X10790904Y-17152996D02*
X10800428Y-17162520D01*
X10800428Y-17162520D02*
X10809951Y-17181568D01*
X10809951Y-17181568D02*
X10809951Y-17229187D01*
X10809951Y-17229187D02*
X10800428Y-17248235D01*
X10800428Y-17248235D02*
X10790904Y-17257758D01*
X10790904Y-17257758D02*
X10771856Y-17267282D01*
X10771856Y-17267282D02*
X10724237Y-17267282D01*
X10724237Y-17267282D02*
X10705190Y-17257758D01*
X10705190Y-17257758D02*
X10695666Y-17248235D01*
X10933761Y-17067282D02*
X10952809Y-17067282D01*
X10952809Y-17067282D02*
X10971856Y-17076806D01*
X10971856Y-17076806D02*
X10981380Y-17086330D01*
X10981380Y-17086330D02*
X10990904Y-17105377D01*
X10990904Y-17105377D02*
X11000428Y-17143473D01*
X11000428Y-17143473D02*
X11000428Y-17191092D01*
X11000428Y-17191092D02*
X10990904Y-17229187D01*
X10990904Y-17229187D02*
X10981380Y-17248235D01*
X10981380Y-17248235D02*
X10971856Y-17257758D01*
X10971856Y-17257758D02*
X10952809Y-17267282D01*
X10952809Y-17267282D02*
X10933761Y-17267282D01*
X10933761Y-17267282D02*
X10914713Y-17257758D01*
X10914713Y-17257758D02*
X10905190Y-17248235D01*
X10905190Y-17248235D02*
X10895666Y-17229187D01*
X10895666Y-17229187D02*
X10886142Y-17191092D01*
X10886142Y-17191092D02*
X10886142Y-17143473D01*
X10886142Y-17143473D02*
X10895666Y-17105377D01*
X10895666Y-17105377D02*
X10905190Y-17086330D01*
X10905190Y-17086330D02*
X10914713Y-17076806D01*
X10914713Y-17076806D02*
X10933761Y-17067282D01*
X11086142Y-17267282D02*
X11086142Y-17133949D01*
X11086142Y-17152996D02*
X11095666Y-17143473D01*
X11095666Y-17143473D02*
X11114713Y-17133949D01*
X11114713Y-17133949D02*
X11143285Y-17133949D01*
X11143285Y-17133949D02*
X11162332Y-17143473D01*
X11162332Y-17143473D02*
X11171856Y-17162520D01*
X11171856Y-17162520D02*
X11171856Y-17267282D01*
X11171856Y-17162520D02*
X11181380Y-17143473D01*
X11181380Y-17143473D02*
X11200428Y-17133949D01*
X11200428Y-17133949D02*
X11228999Y-17133949D01*
X11228999Y-17133949D02*
X11248047Y-17143473D01*
X11248047Y-17143473D02*
X11257570Y-17162520D01*
X11257570Y-17162520D02*
X11257570Y-17267282D01*
X11352809Y-17267282D02*
X11352809Y-17133949D01*
X11352809Y-17152996D02*
X11362332Y-17143473D01*
X11362332Y-17143473D02*
X11381380Y-17133949D01*
X11381380Y-17133949D02*
X11409951Y-17133949D01*
X11409951Y-17133949D02*
X11428999Y-17143473D01*
X11428999Y-17143473D02*
X11438523Y-17162520D01*
X11438523Y-17162520D02*
X11438523Y-17267282D01*
X11438523Y-17162520D02*
X11448047Y-17143473D01*
X11448047Y-17143473D02*
X11467094Y-17133949D01*
X11467094Y-17133949D02*
X11495666Y-17133949D01*
X11495666Y-17133949D02*
X11514713Y-17143473D01*
X11514713Y-17143473D02*
X11524237Y-17162520D01*
X11524237Y-17162520D02*
X11524237Y-17267282D01*
X11914713Y-17057758D02*
X11743285Y-17314901D01*
X12171856Y-17067282D02*
X12190904Y-17067282D01*
X12190904Y-17067282D02*
X12209952Y-17076806D01*
X12209952Y-17076806D02*
X12219475Y-17086330D01*
X12219475Y-17086330D02*
X12228999Y-17105377D01*
X12228999Y-17105377D02*
X12238523Y-17143473D01*
X12238523Y-17143473D02*
X12238523Y-17191092D01*
X12238523Y-17191092D02*
X12228999Y-17229187D01*
X12228999Y-17229187D02*
X12219475Y-17248235D01*
X12219475Y-17248235D02*
X12209952Y-17257758D01*
X12209952Y-17257758D02*
X12190904Y-17267282D01*
X12190904Y-17267282D02*
X12171856Y-17267282D01*
X12171856Y-17267282D02*
X12152809Y-17257758D01*
X12152809Y-17257758D02*
X12143285Y-17248235D01*
X12143285Y-17248235D02*
X12133761Y-17229187D01*
X12133761Y-17229187D02*
X12124237Y-17191092D01*
X12124237Y-17191092D02*
X12124237Y-17143473D01*
X12124237Y-17143473D02*
X12133761Y-17105377D01*
X12133761Y-17105377D02*
X12143285Y-17086330D01*
X12143285Y-17086330D02*
X12152809Y-17076806D01*
X12152809Y-17076806D02*
X12171856Y-17067282D01*
X12324237Y-17248235D02*
X12333761Y-17257758D01*
X12333761Y-17257758D02*
X12324237Y-17267282D01*
X12324237Y-17267282D02*
X12314713Y-17257758D01*
X12314713Y-17257758D02*
X12324237Y-17248235D01*
X12324237Y-17248235D02*
X12324237Y-17267282D01*
X12457571Y-17067282D02*
X12476618Y-17067282D01*
X12476618Y-17067282D02*
X12495666Y-17076806D01*
X12495666Y-17076806D02*
X12505190Y-17086330D01*
X12505190Y-17086330D02*
X12514713Y-17105377D01*
X12514713Y-17105377D02*
X12524237Y-17143473D01*
X12524237Y-17143473D02*
X12524237Y-17191092D01*
X12524237Y-17191092D02*
X12514713Y-17229187D01*
X12514713Y-17229187D02*
X12505190Y-17248235D01*
X12505190Y-17248235D02*
X12495666Y-17257758D01*
X12495666Y-17257758D02*
X12476618Y-17267282D01*
X12476618Y-17267282D02*
X12457571Y-17267282D01*
X12457571Y-17267282D02*
X12438523Y-17257758D01*
X12438523Y-17257758D02*
X12428999Y-17248235D01*
X12428999Y-17248235D02*
X12419475Y-17229187D01*
X12419475Y-17229187D02*
X12409952Y-17191092D01*
X12409952Y-17191092D02*
X12409952Y-17143473D01*
X12409952Y-17143473D02*
X12419475Y-17105377D01*
X12419475Y-17105377D02*
X12428999Y-17086330D01*
X12428999Y-17086330D02*
X12438523Y-17076806D01*
X12438523Y-17076806D02*
X12457571Y-17067282D01*
X12600428Y-17086330D02*
X12609952Y-17076806D01*
X12609952Y-17076806D02*
X12628999Y-17067282D01*
X12628999Y-17067282D02*
X12676618Y-17067282D01*
X12676618Y-17067282D02*
X12695666Y-17076806D01*
X12695666Y-17076806D02*
X12705190Y-17086330D01*
X12705190Y-17086330D02*
X12714713Y-17105377D01*
X12714713Y-17105377D02*
X12714713Y-17124425D01*
X12714713Y-17124425D02*
X12705190Y-17152996D01*
X12705190Y-17152996D02*
X12590904Y-17267282D01*
X12590904Y-17267282D02*
X12714713Y-17267282D01*
X12809952Y-17267282D02*
X12848047Y-17267282D01*
X12848047Y-17267282D02*
X12867094Y-17257758D01*
X12867094Y-17257758D02*
X12876618Y-17248235D01*
X12876618Y-17248235D02*
X12895666Y-17219663D01*
X12895666Y-17219663D02*
X12905190Y-17181568D01*
X12905190Y-17181568D02*
X12905190Y-17105377D01*
X12905190Y-17105377D02*
X12895666Y-17086330D01*
X12895666Y-17086330D02*
X12886142Y-17076806D01*
X12886142Y-17076806D02*
X12867094Y-17067282D01*
X12867094Y-17067282D02*
X12828999Y-17067282D01*
X12828999Y-17067282D02*
X12809952Y-17076806D01*
X12809952Y-17076806D02*
X12800428Y-17086330D01*
X12800428Y-17086330D02*
X12790904Y-17105377D01*
X12790904Y-17105377D02*
X12790904Y-17152996D01*
X12790904Y-17152996D02*
X12800428Y-17172044D01*
X12800428Y-17172044D02*
X12809952Y-17181568D01*
X12809952Y-17181568D02*
X12828999Y-17191092D01*
X12828999Y-17191092D02*
X12867094Y-17191092D01*
X12867094Y-17191092D02*
X12886142Y-17181568D01*
X12886142Y-17181568D02*
X12895666Y-17172044D01*
X12895666Y-17172044D02*
X12905190Y-17152996D01*
X13086142Y-17067282D02*
X12990904Y-17067282D01*
X12990904Y-17067282D02*
X12981380Y-17162520D01*
X12981380Y-17162520D02*
X12990904Y-17152996D01*
X12990904Y-17152996D02*
X13009952Y-17143473D01*
X13009952Y-17143473D02*
X13057571Y-17143473D01*
X13057571Y-17143473D02*
X13076618Y-17152996D01*
X13076618Y-17152996D02*
X13086142Y-17162520D01*
X13086142Y-17162520D02*
X13095666Y-17181568D01*
X13095666Y-17181568D02*
X13095666Y-17229187D01*
X13095666Y-17229187D02*
X13086142Y-17248235D01*
X13086142Y-17248235D02*
X13076618Y-17257758D01*
X13076618Y-17257758D02*
X13057571Y-17267282D01*
X13057571Y-17267282D02*
X13009952Y-17267282D01*
X13009952Y-17267282D02*
X12990904Y-17257758D01*
X12990904Y-17257758D02*
X12981380Y-17248235D01*
X13171856Y-17067282D02*
X13171856Y-17105377D01*
X13248047Y-17067282D02*
X13248047Y-17105377D01*
X13543285Y-17343473D02*
X13533761Y-17333949D01*
X13533761Y-17333949D02*
X13514714Y-17305377D01*
X13514714Y-17305377D02*
X13505190Y-17286330D01*
X13505190Y-17286330D02*
X13495666Y-17257758D01*
X13495666Y-17257758D02*
X13486142Y-17210139D01*
X13486142Y-17210139D02*
X13486142Y-17172044D01*
X13486142Y-17172044D02*
X13495666Y-17124425D01*
X13495666Y-17124425D02*
X13505190Y-17095854D01*
X13505190Y-17095854D02*
X13514714Y-17076806D01*
X13514714Y-17076806D02*
X13533761Y-17048235D01*
X13533761Y-17048235D02*
X13543285Y-17038711D01*
X13609952Y-17086330D02*
X13619475Y-17076806D01*
X13619475Y-17076806D02*
X13638523Y-17067282D01*
X13638523Y-17067282D02*
X13686142Y-17067282D01*
X13686142Y-17067282D02*
X13705190Y-17076806D01*
X13705190Y-17076806D02*
X13714714Y-17086330D01*
X13714714Y-17086330D02*
X13724237Y-17105377D01*
X13724237Y-17105377D02*
X13724237Y-17124425D01*
X13724237Y-17124425D02*
X13714714Y-17152996D01*
X13714714Y-17152996D02*
X13600428Y-17267282D01*
X13600428Y-17267282D02*
X13724237Y-17267282D01*
X13962333Y-17267282D02*
X13962333Y-17067282D01*
X14048047Y-17267282D02*
X14048047Y-17162520D01*
X14048047Y-17162520D02*
X14038523Y-17143473D01*
X14038523Y-17143473D02*
X14019476Y-17133949D01*
X14019476Y-17133949D02*
X13990904Y-17133949D01*
X13990904Y-17133949D02*
X13971856Y-17143473D01*
X13971856Y-17143473D02*
X13962333Y-17152996D01*
X14171856Y-17267282D02*
X14152809Y-17257758D01*
X14152809Y-17257758D02*
X14143285Y-17248235D01*
X14143285Y-17248235D02*
X14133761Y-17229187D01*
X14133761Y-17229187D02*
X14133761Y-17172044D01*
X14133761Y-17172044D02*
X14143285Y-17152996D01*
X14143285Y-17152996D02*
X14152809Y-17143473D01*
X14152809Y-17143473D02*
X14171856Y-17133949D01*
X14171856Y-17133949D02*
X14200428Y-17133949D01*
X14200428Y-17133949D02*
X14219476Y-17143473D01*
X14219476Y-17143473D02*
X14228999Y-17152996D01*
X14228999Y-17152996D02*
X14238523Y-17172044D01*
X14238523Y-17172044D02*
X14238523Y-17229187D01*
X14238523Y-17229187D02*
X14228999Y-17248235D01*
X14228999Y-17248235D02*
X14219476Y-17257758D01*
X14219476Y-17257758D02*
X14200428Y-17267282D01*
X14200428Y-17267282D02*
X14171856Y-17267282D01*
X14352809Y-17267282D02*
X14333761Y-17257758D01*
X14333761Y-17257758D02*
X14324237Y-17238711D01*
X14324237Y-17238711D02*
X14324237Y-17067282D01*
X14505190Y-17257758D02*
X14486142Y-17267282D01*
X14486142Y-17267282D02*
X14448047Y-17267282D01*
X14448047Y-17267282D02*
X14428999Y-17257758D01*
X14428999Y-17257758D02*
X14419476Y-17238711D01*
X14419476Y-17238711D02*
X14419476Y-17162520D01*
X14419476Y-17162520D02*
X14428999Y-17143473D01*
X14428999Y-17143473D02*
X14448047Y-17133949D01*
X14448047Y-17133949D02*
X14486142Y-17133949D01*
X14486142Y-17133949D02*
X14505190Y-17143473D01*
X14505190Y-17143473D02*
X14514714Y-17162520D01*
X14514714Y-17162520D02*
X14514714Y-17181568D01*
X14514714Y-17181568D02*
X14419476Y-17200616D01*
X14590904Y-17257758D02*
X14609952Y-17267282D01*
X14609952Y-17267282D02*
X14648047Y-17267282D01*
X14648047Y-17267282D02*
X14667095Y-17257758D01*
X14667095Y-17257758D02*
X14676618Y-17238711D01*
X14676618Y-17238711D02*
X14676618Y-17229187D01*
X14676618Y-17229187D02*
X14667095Y-17210139D01*
X14667095Y-17210139D02*
X14648047Y-17200616D01*
X14648047Y-17200616D02*
X14619476Y-17200616D01*
X14619476Y-17200616D02*
X14600428Y-17191092D01*
X14600428Y-17191092D02*
X14590904Y-17172044D01*
X14590904Y-17172044D02*
X14590904Y-17162520D01*
X14590904Y-17162520D02*
X14600428Y-17143473D01*
X14600428Y-17143473D02*
X14619476Y-17133949D01*
X14619476Y-17133949D02*
X14648047Y-17133949D01*
X14648047Y-17133949D02*
X14667095Y-17143473D01*
X14743285Y-17343473D02*
X14752809Y-17333949D01*
X14752809Y-17333949D02*
X14771857Y-17305377D01*
X14771857Y-17305377D02*
X14781380Y-17286330D01*
X14781380Y-17286330D02*
X14790904Y-17257758D01*
X14790904Y-17257758D02*
X14800428Y-17210139D01*
X14800428Y-17210139D02*
X14800428Y-17172044D01*
X14800428Y-17172044D02*
X14790904Y-17124425D01*
X14790904Y-17124425D02*
X14781380Y-17095854D01*
X14781380Y-17095854D02*
X14771857Y-17076806D01*
X14771857Y-17076806D02*
X14752809Y-17048235D01*
X14752809Y-17048235D02*
X14743285Y-17038711D01*
D12*
X9928222Y-17399798D02*
X9928222Y-17479798D01*
X9888222Y-17439798D02*
X9968222Y-17439798D01*
D11*
X10267094Y-17331282D02*
X10286142Y-17331282D01*
X10286142Y-17331282D02*
X10305190Y-17340806D01*
X10305190Y-17340806D02*
X10314713Y-17350330D01*
X10314713Y-17350330D02*
X10324237Y-17369377D01*
X10324237Y-17369377D02*
X10333761Y-17407473D01*
X10333761Y-17407473D02*
X10333761Y-17455092D01*
X10333761Y-17455092D02*
X10324237Y-17493187D01*
X10324237Y-17493187D02*
X10314713Y-17512235D01*
X10314713Y-17512235D02*
X10305190Y-17521758D01*
X10305190Y-17521758D02*
X10286142Y-17531282D01*
X10286142Y-17531282D02*
X10267094Y-17531282D01*
X10267094Y-17531282D02*
X10248047Y-17521758D01*
X10248047Y-17521758D02*
X10238523Y-17512235D01*
X10238523Y-17512235D02*
X10228999Y-17493187D01*
X10228999Y-17493187D02*
X10219475Y-17455092D01*
X10219475Y-17455092D02*
X10219475Y-17407473D01*
X10219475Y-17407473D02*
X10228999Y-17369377D01*
X10228999Y-17369377D02*
X10238523Y-17350330D01*
X10238523Y-17350330D02*
X10248047Y-17340806D01*
X10248047Y-17340806D02*
X10267094Y-17331282D01*
X10419475Y-17512235D02*
X10428999Y-17521758D01*
X10428999Y-17521758D02*
X10419475Y-17531282D01*
X10419475Y-17531282D02*
X10409951Y-17521758D01*
X10409951Y-17521758D02*
X10419475Y-17512235D01*
X10419475Y-17512235D02*
X10419475Y-17531282D01*
X10543285Y-17416996D02*
X10524237Y-17407473D01*
X10524237Y-17407473D02*
X10514713Y-17397949D01*
X10514713Y-17397949D02*
X10505190Y-17378901D01*
X10505190Y-17378901D02*
X10505190Y-17369377D01*
X10505190Y-17369377D02*
X10514713Y-17350330D01*
X10514713Y-17350330D02*
X10524237Y-17340806D01*
X10524237Y-17340806D02*
X10543285Y-17331282D01*
X10543285Y-17331282D02*
X10581380Y-17331282D01*
X10581380Y-17331282D02*
X10600428Y-17340806D01*
X10600428Y-17340806D02*
X10609951Y-17350330D01*
X10609951Y-17350330D02*
X10619475Y-17369377D01*
X10619475Y-17369377D02*
X10619475Y-17378901D01*
X10619475Y-17378901D02*
X10609951Y-17397949D01*
X10609951Y-17397949D02*
X10600428Y-17407473D01*
X10600428Y-17407473D02*
X10581380Y-17416996D01*
X10581380Y-17416996D02*
X10543285Y-17416996D01*
X10543285Y-17416996D02*
X10524237Y-17426520D01*
X10524237Y-17426520D02*
X10514713Y-17436044D01*
X10514713Y-17436044D02*
X10505190Y-17455092D01*
X10505190Y-17455092D02*
X10505190Y-17493187D01*
X10505190Y-17493187D02*
X10514713Y-17512235D01*
X10514713Y-17512235D02*
X10524237Y-17521758D01*
X10524237Y-17521758D02*
X10543285Y-17531282D01*
X10543285Y-17531282D02*
X10581380Y-17531282D01*
X10581380Y-17531282D02*
X10600428Y-17521758D01*
X10600428Y-17521758D02*
X10609951Y-17512235D01*
X10609951Y-17512235D02*
X10619475Y-17493187D01*
X10619475Y-17493187D02*
X10619475Y-17455092D01*
X10619475Y-17455092D02*
X10609951Y-17436044D01*
X10609951Y-17436044D02*
X10600428Y-17426520D01*
X10600428Y-17426520D02*
X10581380Y-17416996D01*
X10743285Y-17331282D02*
X10762332Y-17331282D01*
X10762332Y-17331282D02*
X10781380Y-17340806D01*
X10781380Y-17340806D02*
X10790904Y-17350330D01*
X10790904Y-17350330D02*
X10800428Y-17369377D01*
X10800428Y-17369377D02*
X10809951Y-17407473D01*
X10809951Y-17407473D02*
X10809951Y-17455092D01*
X10809951Y-17455092D02*
X10800428Y-17493187D01*
X10800428Y-17493187D02*
X10790904Y-17512235D01*
X10790904Y-17512235D02*
X10781380Y-17521758D01*
X10781380Y-17521758D02*
X10762332Y-17531282D01*
X10762332Y-17531282D02*
X10743285Y-17531282D01*
X10743285Y-17531282D02*
X10724237Y-17521758D01*
X10724237Y-17521758D02*
X10714713Y-17512235D01*
X10714713Y-17512235D02*
X10705190Y-17493187D01*
X10705190Y-17493187D02*
X10695666Y-17455092D01*
X10695666Y-17455092D02*
X10695666Y-17407473D01*
X10695666Y-17407473D02*
X10705190Y-17369377D01*
X10705190Y-17369377D02*
X10714713Y-17350330D01*
X10714713Y-17350330D02*
X10724237Y-17340806D01*
X10724237Y-17340806D02*
X10743285Y-17331282D01*
X10933761Y-17331282D02*
X10952809Y-17331282D01*
X10952809Y-17331282D02*
X10971856Y-17340806D01*
X10971856Y-17340806D02*
X10981380Y-17350330D01*
X10981380Y-17350330D02*
X10990904Y-17369377D01*
X10990904Y-17369377D02*
X11000428Y-17407473D01*
X11000428Y-17407473D02*
X11000428Y-17455092D01*
X11000428Y-17455092D02*
X10990904Y-17493187D01*
X10990904Y-17493187D02*
X10981380Y-17512235D01*
X10981380Y-17512235D02*
X10971856Y-17521758D01*
X10971856Y-17521758D02*
X10952809Y-17531282D01*
X10952809Y-17531282D02*
X10933761Y-17531282D01*
X10933761Y-17531282D02*
X10914713Y-17521758D01*
X10914713Y-17521758D02*
X10905190Y-17512235D01*
X10905190Y-17512235D02*
X10895666Y-17493187D01*
X10895666Y-17493187D02*
X10886142Y-17455092D01*
X10886142Y-17455092D02*
X10886142Y-17407473D01*
X10886142Y-17407473D02*
X10895666Y-17369377D01*
X10895666Y-17369377D02*
X10905190Y-17350330D01*
X10905190Y-17350330D02*
X10914713Y-17340806D01*
X10914713Y-17340806D02*
X10933761Y-17331282D01*
X11086142Y-17531282D02*
X11086142Y-17397949D01*
X11086142Y-17416996D02*
X11095666Y-17407473D01*
X11095666Y-17407473D02*
X11114713Y-17397949D01*
X11114713Y-17397949D02*
X11143285Y-17397949D01*
X11143285Y-17397949D02*
X11162332Y-17407473D01*
X11162332Y-17407473D02*
X11171856Y-17426520D01*
X11171856Y-17426520D02*
X11171856Y-17531282D01*
X11171856Y-17426520D02*
X11181380Y-17407473D01*
X11181380Y-17407473D02*
X11200428Y-17397949D01*
X11200428Y-17397949D02*
X11228999Y-17397949D01*
X11228999Y-17397949D02*
X11248047Y-17407473D01*
X11248047Y-17407473D02*
X11257570Y-17426520D01*
X11257570Y-17426520D02*
X11257570Y-17531282D01*
X11352809Y-17531282D02*
X11352809Y-17397949D01*
X11352809Y-17416996D02*
X11362332Y-17407473D01*
X11362332Y-17407473D02*
X11381380Y-17397949D01*
X11381380Y-17397949D02*
X11409951Y-17397949D01*
X11409951Y-17397949D02*
X11428999Y-17407473D01*
X11428999Y-17407473D02*
X11438523Y-17426520D01*
X11438523Y-17426520D02*
X11438523Y-17531282D01*
X11438523Y-17426520D02*
X11448047Y-17407473D01*
X11448047Y-17407473D02*
X11467094Y-17397949D01*
X11467094Y-17397949D02*
X11495666Y-17397949D01*
X11495666Y-17397949D02*
X11514713Y-17407473D01*
X11514713Y-17407473D02*
X11524237Y-17426520D01*
X11524237Y-17426520D02*
X11524237Y-17531282D01*
X11914713Y-17321758D02*
X11743285Y-17578901D01*
X12171856Y-17331282D02*
X12190904Y-17331282D01*
X12190904Y-17331282D02*
X12209952Y-17340806D01*
X12209952Y-17340806D02*
X12219475Y-17350330D01*
X12219475Y-17350330D02*
X12228999Y-17369377D01*
X12228999Y-17369377D02*
X12238523Y-17407473D01*
X12238523Y-17407473D02*
X12238523Y-17455092D01*
X12238523Y-17455092D02*
X12228999Y-17493187D01*
X12228999Y-17493187D02*
X12219475Y-17512235D01*
X12219475Y-17512235D02*
X12209952Y-17521758D01*
X12209952Y-17521758D02*
X12190904Y-17531282D01*
X12190904Y-17531282D02*
X12171856Y-17531282D01*
X12171856Y-17531282D02*
X12152809Y-17521758D01*
X12152809Y-17521758D02*
X12143285Y-17512235D01*
X12143285Y-17512235D02*
X12133761Y-17493187D01*
X12133761Y-17493187D02*
X12124237Y-17455092D01*
X12124237Y-17455092D02*
X12124237Y-17407473D01*
X12124237Y-17407473D02*
X12133761Y-17369377D01*
X12133761Y-17369377D02*
X12143285Y-17350330D01*
X12143285Y-17350330D02*
X12152809Y-17340806D01*
X12152809Y-17340806D02*
X12171856Y-17331282D01*
X12324237Y-17512235D02*
X12333761Y-17521758D01*
X12333761Y-17521758D02*
X12324237Y-17531282D01*
X12324237Y-17531282D02*
X12314713Y-17521758D01*
X12314713Y-17521758D02*
X12324237Y-17512235D01*
X12324237Y-17512235D02*
X12324237Y-17531282D01*
X12457571Y-17331282D02*
X12476618Y-17331282D01*
X12476618Y-17331282D02*
X12495666Y-17340806D01*
X12495666Y-17340806D02*
X12505190Y-17350330D01*
X12505190Y-17350330D02*
X12514713Y-17369377D01*
X12514713Y-17369377D02*
X12524237Y-17407473D01*
X12524237Y-17407473D02*
X12524237Y-17455092D01*
X12524237Y-17455092D02*
X12514713Y-17493187D01*
X12514713Y-17493187D02*
X12505190Y-17512235D01*
X12505190Y-17512235D02*
X12495666Y-17521758D01*
X12495666Y-17521758D02*
X12476618Y-17531282D01*
X12476618Y-17531282D02*
X12457571Y-17531282D01*
X12457571Y-17531282D02*
X12438523Y-17521758D01*
X12438523Y-17521758D02*
X12428999Y-17512235D01*
X12428999Y-17512235D02*
X12419475Y-17493187D01*
X12419475Y-17493187D02*
X12409952Y-17455092D01*
X12409952Y-17455092D02*
X12409952Y-17407473D01*
X12409952Y-17407473D02*
X12419475Y-17369377D01*
X12419475Y-17369377D02*
X12428999Y-17350330D01*
X12428999Y-17350330D02*
X12438523Y-17340806D01*
X12438523Y-17340806D02*
X12457571Y-17331282D01*
X12590904Y-17331282D02*
X12714713Y-17331282D01*
X12714713Y-17331282D02*
X12648047Y-17407473D01*
X12648047Y-17407473D02*
X12676618Y-17407473D01*
X12676618Y-17407473D02*
X12695666Y-17416996D01*
X12695666Y-17416996D02*
X12705190Y-17426520D01*
X12705190Y-17426520D02*
X12714713Y-17445568D01*
X12714713Y-17445568D02*
X12714713Y-17493187D01*
X12714713Y-17493187D02*
X12705190Y-17512235D01*
X12705190Y-17512235D02*
X12695666Y-17521758D01*
X12695666Y-17521758D02*
X12676618Y-17531282D01*
X12676618Y-17531282D02*
X12619475Y-17531282D01*
X12619475Y-17531282D02*
X12600428Y-17521758D01*
X12600428Y-17521758D02*
X12590904Y-17512235D01*
X12905190Y-17531282D02*
X12790904Y-17531282D01*
X12848047Y-17531282D02*
X12848047Y-17331282D01*
X12848047Y-17331282D02*
X12828999Y-17359854D01*
X12828999Y-17359854D02*
X12809952Y-17378901D01*
X12809952Y-17378901D02*
X12790904Y-17388425D01*
X13086142Y-17331282D02*
X12990904Y-17331282D01*
X12990904Y-17331282D02*
X12981380Y-17426520D01*
X12981380Y-17426520D02*
X12990904Y-17416996D01*
X12990904Y-17416996D02*
X13009952Y-17407473D01*
X13009952Y-17407473D02*
X13057571Y-17407473D01*
X13057571Y-17407473D02*
X13076618Y-17416996D01*
X13076618Y-17416996D02*
X13086142Y-17426520D01*
X13086142Y-17426520D02*
X13095666Y-17445568D01*
X13095666Y-17445568D02*
X13095666Y-17493187D01*
X13095666Y-17493187D02*
X13086142Y-17512235D01*
X13086142Y-17512235D02*
X13076618Y-17521758D01*
X13076618Y-17521758D02*
X13057571Y-17531282D01*
X13057571Y-17531282D02*
X13009952Y-17531282D01*
X13009952Y-17531282D02*
X12990904Y-17521758D01*
X12990904Y-17521758D02*
X12981380Y-17512235D01*
X13171856Y-17331282D02*
X13171856Y-17369377D01*
X13248047Y-17331282D02*
X13248047Y-17369377D01*
X13543285Y-17607473D02*
X13533761Y-17597949D01*
X13533761Y-17597949D02*
X13514714Y-17569377D01*
X13514714Y-17569377D02*
X13505190Y-17550330D01*
X13505190Y-17550330D02*
X13495666Y-17521758D01*
X13495666Y-17521758D02*
X13486142Y-17474139D01*
X13486142Y-17474139D02*
X13486142Y-17436044D01*
X13486142Y-17436044D02*
X13495666Y-17388425D01*
X13495666Y-17388425D02*
X13505190Y-17359854D01*
X13505190Y-17359854D02*
X13514714Y-17340806D01*
X13514714Y-17340806D02*
X13533761Y-17312235D01*
X13533761Y-17312235D02*
X13543285Y-17302711D01*
X13705190Y-17331282D02*
X13667094Y-17331282D01*
X13667094Y-17331282D02*
X13648047Y-17340806D01*
X13648047Y-17340806D02*
X13638523Y-17350330D01*
X13638523Y-17350330D02*
X13619475Y-17378901D01*
X13619475Y-17378901D02*
X13609952Y-17416996D01*
X13609952Y-17416996D02*
X13609952Y-17493187D01*
X13609952Y-17493187D02*
X13619475Y-17512235D01*
X13619475Y-17512235D02*
X13628999Y-17521758D01*
X13628999Y-17521758D02*
X13648047Y-17531282D01*
X13648047Y-17531282D02*
X13686142Y-17531282D01*
X13686142Y-17531282D02*
X13705190Y-17521758D01*
X13705190Y-17521758D02*
X13714714Y-17512235D01*
X13714714Y-17512235D02*
X13724237Y-17493187D01*
X13724237Y-17493187D02*
X13724237Y-17445568D01*
X13724237Y-17445568D02*
X13714714Y-17426520D01*
X13714714Y-17426520D02*
X13705190Y-17416996D01*
X13705190Y-17416996D02*
X13686142Y-17407473D01*
X13686142Y-17407473D02*
X13648047Y-17407473D01*
X13648047Y-17407473D02*
X13628999Y-17416996D01*
X13628999Y-17416996D02*
X13619475Y-17426520D01*
X13619475Y-17426520D02*
X13609952Y-17445568D01*
X13962333Y-17531282D02*
X13962333Y-17331282D01*
X14048047Y-17531282D02*
X14048047Y-17426520D01*
X14048047Y-17426520D02*
X14038523Y-17407473D01*
X14038523Y-17407473D02*
X14019476Y-17397949D01*
X14019476Y-17397949D02*
X13990904Y-17397949D01*
X13990904Y-17397949D02*
X13971856Y-17407473D01*
X13971856Y-17407473D02*
X13962333Y-17416996D01*
X14171856Y-17531282D02*
X14152809Y-17521758D01*
X14152809Y-17521758D02*
X14143285Y-17512235D01*
X14143285Y-17512235D02*
X14133761Y-17493187D01*
X14133761Y-17493187D02*
X14133761Y-17436044D01*
X14133761Y-17436044D02*
X14143285Y-17416996D01*
X14143285Y-17416996D02*
X14152809Y-17407473D01*
X14152809Y-17407473D02*
X14171856Y-17397949D01*
X14171856Y-17397949D02*
X14200428Y-17397949D01*
X14200428Y-17397949D02*
X14219476Y-17407473D01*
X14219476Y-17407473D02*
X14228999Y-17416996D01*
X14228999Y-17416996D02*
X14238523Y-17436044D01*
X14238523Y-17436044D02*
X14238523Y-17493187D01*
X14238523Y-17493187D02*
X14228999Y-17512235D01*
X14228999Y-17512235D02*
X14219476Y-17521758D01*
X14219476Y-17521758D02*
X14200428Y-17531282D01*
X14200428Y-17531282D02*
X14171856Y-17531282D01*
X14352809Y-17531282D02*
X14333761Y-17521758D01*
X14333761Y-17521758D02*
X14324237Y-17502711D01*
X14324237Y-17502711D02*
X14324237Y-17331282D01*
X14505190Y-17521758D02*
X14486142Y-17531282D01*
X14486142Y-17531282D02*
X14448047Y-17531282D01*
X14448047Y-17531282D02*
X14428999Y-17521758D01*
X14428999Y-17521758D02*
X14419476Y-17502711D01*
X14419476Y-17502711D02*
X14419476Y-17426520D01*
X14419476Y-17426520D02*
X14428999Y-17407473D01*
X14428999Y-17407473D02*
X14448047Y-17397949D01*
X14448047Y-17397949D02*
X14486142Y-17397949D01*
X14486142Y-17397949D02*
X14505190Y-17407473D01*
X14505190Y-17407473D02*
X14514714Y-17426520D01*
X14514714Y-17426520D02*
X14514714Y-17445568D01*
X14514714Y-17445568D02*
X14419476Y-17464616D01*
X14590904Y-17521758D02*
X14609952Y-17531282D01*
X14609952Y-17531282D02*
X14648047Y-17531282D01*
X14648047Y-17531282D02*
X14667095Y-17521758D01*
X14667095Y-17521758D02*
X14676618Y-17502711D01*
X14676618Y-17502711D02*
X14676618Y-17493187D01*
X14676618Y-17493187D02*
X14667095Y-17474139D01*
X14667095Y-17474139D02*
X14648047Y-17464616D01*
X14648047Y-17464616D02*
X14619476Y-17464616D01*
X14619476Y-17464616D02*
X14600428Y-17455092D01*
X14600428Y-17455092D02*
X14590904Y-17436044D01*
X14590904Y-17436044D02*
X14590904Y-17426520D01*
X14590904Y-17426520D02*
X14600428Y-17407473D01*
X14600428Y-17407473D02*
X14619476Y-17397949D01*
X14619476Y-17397949D02*
X14648047Y-17397949D01*
X14648047Y-17397949D02*
X14667095Y-17407473D01*
X14743285Y-17607473D02*
X14752809Y-17597949D01*
X14752809Y-17597949D02*
X14771857Y-17569377D01*
X14771857Y-17569377D02*
X14781380Y-17550330D01*
X14781380Y-17550330D02*
X14790904Y-17521758D01*
X14790904Y-17521758D02*
X14800428Y-17474139D01*
X14800428Y-17474139D02*
X14800428Y-17436044D01*
X14800428Y-17436044D02*
X14790904Y-17388425D01*
X14790904Y-17388425D02*
X14781380Y-17359854D01*
X14781380Y-17359854D02*
X14771857Y-17340806D01*
X14771857Y-17340806D02*
X14752809Y-17312235D01*
X14752809Y-17312235D02*
X14743285Y-17302711D01*
D13*
X9952260Y-17742336D02*
X9952260Y-17665261D01*
X9875185Y-17665261D01*
X9875185Y-17742336D01*
X9952260Y-17742336D01*
D11*
X10333761Y-17795282D02*
X10219475Y-17795282D01*
X10276618Y-17795282D02*
X10276618Y-17595282D01*
X10276618Y-17595282D02*
X10257570Y-17623854D01*
X10257570Y-17623854D02*
X10238523Y-17642901D01*
X10238523Y-17642901D02*
X10219475Y-17652425D01*
X10419475Y-17776235D02*
X10428999Y-17785758D01*
X10428999Y-17785758D02*
X10419475Y-17795282D01*
X10419475Y-17795282D02*
X10409951Y-17785758D01*
X10409951Y-17785758D02*
X10419475Y-17776235D01*
X10419475Y-17776235D02*
X10419475Y-17795282D01*
X10552809Y-17595282D02*
X10571856Y-17595282D01*
X10571856Y-17595282D02*
X10590904Y-17604806D01*
X10590904Y-17604806D02*
X10600428Y-17614330D01*
X10600428Y-17614330D02*
X10609951Y-17633377D01*
X10609951Y-17633377D02*
X10619475Y-17671473D01*
X10619475Y-17671473D02*
X10619475Y-17719092D01*
X10619475Y-17719092D02*
X10609951Y-17757187D01*
X10609951Y-17757187D02*
X10600428Y-17776235D01*
X10600428Y-17776235D02*
X10590904Y-17785758D01*
X10590904Y-17785758D02*
X10571856Y-17795282D01*
X10571856Y-17795282D02*
X10552809Y-17795282D01*
X10552809Y-17795282D02*
X10533761Y-17785758D01*
X10533761Y-17785758D02*
X10524237Y-17776235D01*
X10524237Y-17776235D02*
X10514713Y-17757187D01*
X10514713Y-17757187D02*
X10505190Y-17719092D01*
X10505190Y-17719092D02*
X10505190Y-17671473D01*
X10505190Y-17671473D02*
X10514713Y-17633377D01*
X10514713Y-17633377D02*
X10524237Y-17614330D01*
X10524237Y-17614330D02*
X10533761Y-17604806D01*
X10533761Y-17604806D02*
X10552809Y-17595282D01*
X10714713Y-17795282D02*
X10752809Y-17795282D01*
X10752809Y-17795282D02*
X10771856Y-17785758D01*
X10771856Y-17785758D02*
X10781380Y-17776235D01*
X10781380Y-17776235D02*
X10800428Y-17747663D01*
X10800428Y-17747663D02*
X10809951Y-17709568D01*
X10809951Y-17709568D02*
X10809951Y-17633377D01*
X10809951Y-17633377D02*
X10800428Y-17614330D01*
X10800428Y-17614330D02*
X10790904Y-17604806D01*
X10790904Y-17604806D02*
X10771856Y-17595282D01*
X10771856Y-17595282D02*
X10733761Y-17595282D01*
X10733761Y-17595282D02*
X10714713Y-17604806D01*
X10714713Y-17604806D02*
X10705190Y-17614330D01*
X10705190Y-17614330D02*
X10695666Y-17633377D01*
X10695666Y-17633377D02*
X10695666Y-17680996D01*
X10695666Y-17680996D02*
X10705190Y-17700044D01*
X10705190Y-17700044D02*
X10714713Y-17709568D01*
X10714713Y-17709568D02*
X10733761Y-17719092D01*
X10733761Y-17719092D02*
X10771856Y-17719092D01*
X10771856Y-17719092D02*
X10790904Y-17709568D01*
X10790904Y-17709568D02*
X10800428Y-17700044D01*
X10800428Y-17700044D02*
X10809951Y-17680996D01*
X10933761Y-17595282D02*
X10952809Y-17595282D01*
X10952809Y-17595282D02*
X10971856Y-17604806D01*
X10971856Y-17604806D02*
X10981380Y-17614330D01*
X10981380Y-17614330D02*
X10990904Y-17633377D01*
X10990904Y-17633377D02*
X11000428Y-17671473D01*
X11000428Y-17671473D02*
X11000428Y-17719092D01*
X11000428Y-17719092D02*
X10990904Y-17757187D01*
X10990904Y-17757187D02*
X10981380Y-17776235D01*
X10981380Y-17776235D02*
X10971856Y-17785758D01*
X10971856Y-17785758D02*
X10952809Y-17795282D01*
X10952809Y-17795282D02*
X10933761Y-17795282D01*
X10933761Y-17795282D02*
X10914713Y-17785758D01*
X10914713Y-17785758D02*
X10905190Y-17776235D01*
X10905190Y-17776235D02*
X10895666Y-17757187D01*
X10895666Y-17757187D02*
X10886142Y-17719092D01*
X10886142Y-17719092D02*
X10886142Y-17671473D01*
X10886142Y-17671473D02*
X10895666Y-17633377D01*
X10895666Y-17633377D02*
X10905190Y-17614330D01*
X10905190Y-17614330D02*
X10914713Y-17604806D01*
X10914713Y-17604806D02*
X10933761Y-17595282D01*
X11086142Y-17795282D02*
X11086142Y-17661949D01*
X11086142Y-17680996D02*
X11095666Y-17671473D01*
X11095666Y-17671473D02*
X11114713Y-17661949D01*
X11114713Y-17661949D02*
X11143285Y-17661949D01*
X11143285Y-17661949D02*
X11162332Y-17671473D01*
X11162332Y-17671473D02*
X11171856Y-17690520D01*
X11171856Y-17690520D02*
X11171856Y-17795282D01*
X11171856Y-17690520D02*
X11181380Y-17671473D01*
X11181380Y-17671473D02*
X11200428Y-17661949D01*
X11200428Y-17661949D02*
X11228999Y-17661949D01*
X11228999Y-17661949D02*
X11248047Y-17671473D01*
X11248047Y-17671473D02*
X11257570Y-17690520D01*
X11257570Y-17690520D02*
X11257570Y-17795282D01*
X11352809Y-17795282D02*
X11352809Y-17661949D01*
X11352809Y-17680996D02*
X11362332Y-17671473D01*
X11362332Y-17671473D02*
X11381380Y-17661949D01*
X11381380Y-17661949D02*
X11409951Y-17661949D01*
X11409951Y-17661949D02*
X11428999Y-17671473D01*
X11428999Y-17671473D02*
X11438523Y-17690520D01*
X11438523Y-17690520D02*
X11438523Y-17795282D01*
X11438523Y-17690520D02*
X11448047Y-17671473D01*
X11448047Y-17671473D02*
X11467094Y-17661949D01*
X11467094Y-17661949D02*
X11495666Y-17661949D01*
X11495666Y-17661949D02*
X11514713Y-17671473D01*
X11514713Y-17671473D02*
X11524237Y-17690520D01*
X11524237Y-17690520D02*
X11524237Y-17795282D01*
X11914713Y-17585758D02*
X11743285Y-17842901D01*
X12171856Y-17595282D02*
X12190904Y-17595282D01*
X12190904Y-17595282D02*
X12209952Y-17604806D01*
X12209952Y-17604806D02*
X12219475Y-17614330D01*
X12219475Y-17614330D02*
X12228999Y-17633377D01*
X12228999Y-17633377D02*
X12238523Y-17671473D01*
X12238523Y-17671473D02*
X12238523Y-17719092D01*
X12238523Y-17719092D02*
X12228999Y-17757187D01*
X12228999Y-17757187D02*
X12219475Y-17776235D01*
X12219475Y-17776235D02*
X12209952Y-17785758D01*
X12209952Y-17785758D02*
X12190904Y-17795282D01*
X12190904Y-17795282D02*
X12171856Y-17795282D01*
X12171856Y-17795282D02*
X12152809Y-17785758D01*
X12152809Y-17785758D02*
X12143285Y-17776235D01*
X12143285Y-17776235D02*
X12133761Y-17757187D01*
X12133761Y-17757187D02*
X12124237Y-17719092D01*
X12124237Y-17719092D02*
X12124237Y-17671473D01*
X12124237Y-17671473D02*
X12133761Y-17633377D01*
X12133761Y-17633377D02*
X12143285Y-17614330D01*
X12143285Y-17614330D02*
X12152809Y-17604806D01*
X12152809Y-17604806D02*
X12171856Y-17595282D01*
X12324237Y-17776235D02*
X12333761Y-17785758D01*
X12333761Y-17785758D02*
X12324237Y-17795282D01*
X12324237Y-17795282D02*
X12314713Y-17785758D01*
X12314713Y-17785758D02*
X12324237Y-17776235D01*
X12324237Y-17776235D02*
X12324237Y-17795282D01*
X12457571Y-17595282D02*
X12476618Y-17595282D01*
X12476618Y-17595282D02*
X12495666Y-17604806D01*
X12495666Y-17604806D02*
X12505190Y-17614330D01*
X12505190Y-17614330D02*
X12514713Y-17633377D01*
X12514713Y-17633377D02*
X12524237Y-17671473D01*
X12524237Y-17671473D02*
X12524237Y-17719092D01*
X12524237Y-17719092D02*
X12514713Y-17757187D01*
X12514713Y-17757187D02*
X12505190Y-17776235D01*
X12505190Y-17776235D02*
X12495666Y-17785758D01*
X12495666Y-17785758D02*
X12476618Y-17795282D01*
X12476618Y-17795282D02*
X12457571Y-17795282D01*
X12457571Y-17795282D02*
X12438523Y-17785758D01*
X12438523Y-17785758D02*
X12428999Y-17776235D01*
X12428999Y-17776235D02*
X12419475Y-17757187D01*
X12419475Y-17757187D02*
X12409952Y-17719092D01*
X12409952Y-17719092D02*
X12409952Y-17671473D01*
X12409952Y-17671473D02*
X12419475Y-17633377D01*
X12419475Y-17633377D02*
X12428999Y-17614330D01*
X12428999Y-17614330D02*
X12438523Y-17604806D01*
X12438523Y-17604806D02*
X12457571Y-17595282D01*
X12695666Y-17661949D02*
X12695666Y-17795282D01*
X12648047Y-17585758D02*
X12600428Y-17728616D01*
X12600428Y-17728616D02*
X12724237Y-17728616D01*
X12790904Y-17614330D02*
X12800428Y-17604806D01*
X12800428Y-17604806D02*
X12819475Y-17595282D01*
X12819475Y-17595282D02*
X12867094Y-17595282D01*
X12867094Y-17595282D02*
X12886142Y-17604806D01*
X12886142Y-17604806D02*
X12895666Y-17614330D01*
X12895666Y-17614330D02*
X12905190Y-17633377D01*
X12905190Y-17633377D02*
X12905190Y-17652425D01*
X12905190Y-17652425D02*
X12895666Y-17680996D01*
X12895666Y-17680996D02*
X12781380Y-17795282D01*
X12781380Y-17795282D02*
X12905190Y-17795282D01*
X13000428Y-17795282D02*
X13038523Y-17795282D01*
X13038523Y-17795282D02*
X13057571Y-17785758D01*
X13057571Y-17785758D02*
X13067094Y-17776235D01*
X13067094Y-17776235D02*
X13086142Y-17747663D01*
X13086142Y-17747663D02*
X13095666Y-17709568D01*
X13095666Y-17709568D02*
X13095666Y-17633377D01*
X13095666Y-17633377D02*
X13086142Y-17614330D01*
X13086142Y-17614330D02*
X13076618Y-17604806D01*
X13076618Y-17604806D02*
X13057571Y-17595282D01*
X13057571Y-17595282D02*
X13019475Y-17595282D01*
X13019475Y-17595282D02*
X13000428Y-17604806D01*
X13000428Y-17604806D02*
X12990904Y-17614330D01*
X12990904Y-17614330D02*
X12981380Y-17633377D01*
X12981380Y-17633377D02*
X12981380Y-17680996D01*
X12981380Y-17680996D02*
X12990904Y-17700044D01*
X12990904Y-17700044D02*
X13000428Y-17709568D01*
X13000428Y-17709568D02*
X13019475Y-17719092D01*
X13019475Y-17719092D02*
X13057571Y-17719092D01*
X13057571Y-17719092D02*
X13076618Y-17709568D01*
X13076618Y-17709568D02*
X13086142Y-17700044D01*
X13086142Y-17700044D02*
X13095666Y-17680996D01*
X13171856Y-17595282D02*
X13171856Y-17633377D01*
X13248047Y-17595282D02*
X13248047Y-17633377D01*
X13543285Y-17871473D02*
X13533761Y-17861949D01*
X13533761Y-17861949D02*
X13514714Y-17833377D01*
X13514714Y-17833377D02*
X13505190Y-17814330D01*
X13505190Y-17814330D02*
X13495666Y-17785758D01*
X13495666Y-17785758D02*
X13486142Y-17738139D01*
X13486142Y-17738139D02*
X13486142Y-17700044D01*
X13486142Y-17700044D02*
X13495666Y-17652425D01*
X13495666Y-17652425D02*
X13505190Y-17623854D01*
X13505190Y-17623854D02*
X13514714Y-17604806D01*
X13514714Y-17604806D02*
X13533761Y-17576235D01*
X13533761Y-17576235D02*
X13543285Y-17566711D01*
X13705190Y-17661949D02*
X13705190Y-17795282D01*
X13657571Y-17585758D02*
X13609952Y-17728616D01*
X13609952Y-17728616D02*
X13733761Y-17728616D01*
X13962333Y-17795282D02*
X13962333Y-17595282D01*
X14048047Y-17795282D02*
X14048047Y-17690520D01*
X14048047Y-17690520D02*
X14038523Y-17671473D01*
X14038523Y-17671473D02*
X14019476Y-17661949D01*
X14019476Y-17661949D02*
X13990904Y-17661949D01*
X13990904Y-17661949D02*
X13971856Y-17671473D01*
X13971856Y-17671473D02*
X13962333Y-17680996D01*
X14171856Y-17795282D02*
X14152809Y-17785758D01*
X14152809Y-17785758D02*
X14143285Y-17776235D01*
X14143285Y-17776235D02*
X14133761Y-17757187D01*
X14133761Y-17757187D02*
X14133761Y-17700044D01*
X14133761Y-17700044D02*
X14143285Y-17680996D01*
X14143285Y-17680996D02*
X14152809Y-17671473D01*
X14152809Y-17671473D02*
X14171856Y-17661949D01*
X14171856Y-17661949D02*
X14200428Y-17661949D01*
X14200428Y-17661949D02*
X14219476Y-17671473D01*
X14219476Y-17671473D02*
X14228999Y-17680996D01*
X14228999Y-17680996D02*
X14238523Y-17700044D01*
X14238523Y-17700044D02*
X14238523Y-17757187D01*
X14238523Y-17757187D02*
X14228999Y-17776235D01*
X14228999Y-17776235D02*
X14219476Y-17785758D01*
X14219476Y-17785758D02*
X14200428Y-17795282D01*
X14200428Y-17795282D02*
X14171856Y-17795282D01*
X14352809Y-17795282D02*
X14333761Y-17785758D01*
X14333761Y-17785758D02*
X14324237Y-17766711D01*
X14324237Y-17766711D02*
X14324237Y-17595282D01*
X14505190Y-17785758D02*
X14486142Y-17795282D01*
X14486142Y-17795282D02*
X14448047Y-17795282D01*
X14448047Y-17795282D02*
X14428999Y-17785758D01*
X14428999Y-17785758D02*
X14419476Y-17766711D01*
X14419476Y-17766711D02*
X14419476Y-17690520D01*
X14419476Y-17690520D02*
X14428999Y-17671473D01*
X14428999Y-17671473D02*
X14448047Y-17661949D01*
X14448047Y-17661949D02*
X14486142Y-17661949D01*
X14486142Y-17661949D02*
X14505190Y-17671473D01*
X14505190Y-17671473D02*
X14514714Y-17690520D01*
X14514714Y-17690520D02*
X14514714Y-17709568D01*
X14514714Y-17709568D02*
X14419476Y-17728616D01*
X14590904Y-17785758D02*
X14609952Y-17795282D01*
X14609952Y-17795282D02*
X14648047Y-17795282D01*
X14648047Y-17795282D02*
X14667095Y-17785758D01*
X14667095Y-17785758D02*
X14676618Y-17766711D01*
X14676618Y-17766711D02*
X14676618Y-17757187D01*
X14676618Y-17757187D02*
X14667095Y-17738139D01*
X14667095Y-17738139D02*
X14648047Y-17728616D01*
X14648047Y-17728616D02*
X14619476Y-17728616D01*
X14619476Y-17728616D02*
X14600428Y-17719092D01*
X14600428Y-17719092D02*
X14590904Y-17700044D01*
X14590904Y-17700044D02*
X14590904Y-17690520D01*
X14590904Y-17690520D02*
X14600428Y-17671473D01*
X14600428Y-17671473D02*
X14619476Y-17661949D01*
X14619476Y-17661949D02*
X14648047Y-17661949D01*
X14648047Y-17661949D02*
X14667095Y-17671473D01*
X14743285Y-17871473D02*
X14752809Y-17861949D01*
X14752809Y-17861949D02*
X14771857Y-17833377D01*
X14771857Y-17833377D02*
X14781380Y-17814330D01*
X14781380Y-17814330D02*
X14790904Y-17785758D01*
X14790904Y-17785758D02*
X14800428Y-17738139D01*
X14800428Y-17738139D02*
X14800428Y-17700044D01*
X14800428Y-17700044D02*
X14790904Y-17652425D01*
X14790904Y-17652425D02*
X14781380Y-17623854D01*
X14781380Y-17623854D02*
X14771857Y-17604806D01*
X14771857Y-17604806D02*
X14752809Y-17576235D01*
X14752809Y-17576235D02*
X14743285Y-17566711D01*
D14*
X9913612Y-18022408D02*
X9968222Y-17967798D01*
X9913612Y-17913188D01*
X9859002Y-17967798D01*
X9913612Y-18022408D01*
D11*
X10333761Y-18059282D02*
X10219475Y-18059282D01*
X10276618Y-18059282D02*
X10276618Y-17859282D01*
X10276618Y-17859282D02*
X10257570Y-17887854D01*
X10257570Y-17887854D02*
X10238523Y-17906901D01*
X10238523Y-17906901D02*
X10219475Y-17916425D01*
X10419475Y-18040235D02*
X10428999Y-18049758D01*
X10428999Y-18049758D02*
X10419475Y-18059282D01*
X10419475Y-18059282D02*
X10409951Y-18049758D01*
X10409951Y-18049758D02*
X10419475Y-18040235D01*
X10419475Y-18040235D02*
X10419475Y-18059282D01*
X10552809Y-17859282D02*
X10571856Y-17859282D01*
X10571856Y-17859282D02*
X10590904Y-17868806D01*
X10590904Y-17868806D02*
X10600428Y-17878330D01*
X10600428Y-17878330D02*
X10609951Y-17897377D01*
X10609951Y-17897377D02*
X10619475Y-17935473D01*
X10619475Y-17935473D02*
X10619475Y-17983092D01*
X10619475Y-17983092D02*
X10609951Y-18021187D01*
X10609951Y-18021187D02*
X10600428Y-18040235D01*
X10600428Y-18040235D02*
X10590904Y-18049758D01*
X10590904Y-18049758D02*
X10571856Y-18059282D01*
X10571856Y-18059282D02*
X10552809Y-18059282D01*
X10552809Y-18059282D02*
X10533761Y-18049758D01*
X10533761Y-18049758D02*
X10524237Y-18040235D01*
X10524237Y-18040235D02*
X10514713Y-18021187D01*
X10514713Y-18021187D02*
X10505190Y-17983092D01*
X10505190Y-17983092D02*
X10505190Y-17935473D01*
X10505190Y-17935473D02*
X10514713Y-17897377D01*
X10514713Y-17897377D02*
X10524237Y-17878330D01*
X10524237Y-17878330D02*
X10533761Y-17868806D01*
X10533761Y-17868806D02*
X10552809Y-17859282D01*
X10714713Y-18059282D02*
X10752809Y-18059282D01*
X10752809Y-18059282D02*
X10771856Y-18049758D01*
X10771856Y-18049758D02*
X10781380Y-18040235D01*
X10781380Y-18040235D02*
X10800428Y-18011663D01*
X10800428Y-18011663D02*
X10809951Y-17973568D01*
X10809951Y-17973568D02*
X10809951Y-17897377D01*
X10809951Y-17897377D02*
X10800428Y-17878330D01*
X10800428Y-17878330D02*
X10790904Y-17868806D01*
X10790904Y-17868806D02*
X10771856Y-17859282D01*
X10771856Y-17859282D02*
X10733761Y-17859282D01*
X10733761Y-17859282D02*
X10714713Y-17868806D01*
X10714713Y-17868806D02*
X10705190Y-17878330D01*
X10705190Y-17878330D02*
X10695666Y-17897377D01*
X10695666Y-17897377D02*
X10695666Y-17944996D01*
X10695666Y-17944996D02*
X10705190Y-17964044D01*
X10705190Y-17964044D02*
X10714713Y-17973568D01*
X10714713Y-17973568D02*
X10733761Y-17983092D01*
X10733761Y-17983092D02*
X10771856Y-17983092D01*
X10771856Y-17983092D02*
X10790904Y-17973568D01*
X10790904Y-17973568D02*
X10800428Y-17964044D01*
X10800428Y-17964044D02*
X10809951Y-17944996D01*
X10886142Y-17878330D02*
X10895666Y-17868806D01*
X10895666Y-17868806D02*
X10914713Y-17859282D01*
X10914713Y-17859282D02*
X10962332Y-17859282D01*
X10962332Y-17859282D02*
X10981380Y-17868806D01*
X10981380Y-17868806D02*
X10990904Y-17878330D01*
X10990904Y-17878330D02*
X11000428Y-17897377D01*
X11000428Y-17897377D02*
X11000428Y-17916425D01*
X11000428Y-17916425D02*
X10990904Y-17944996D01*
X10990904Y-17944996D02*
X10876618Y-18059282D01*
X10876618Y-18059282D02*
X11000428Y-18059282D01*
X11086142Y-18059282D02*
X11086142Y-17925949D01*
X11086142Y-17944996D02*
X11095666Y-17935473D01*
X11095666Y-17935473D02*
X11114713Y-17925949D01*
X11114713Y-17925949D02*
X11143285Y-17925949D01*
X11143285Y-17925949D02*
X11162332Y-17935473D01*
X11162332Y-17935473D02*
X11171856Y-17954520D01*
X11171856Y-17954520D02*
X11171856Y-18059282D01*
X11171856Y-17954520D02*
X11181380Y-17935473D01*
X11181380Y-17935473D02*
X11200428Y-17925949D01*
X11200428Y-17925949D02*
X11228999Y-17925949D01*
X11228999Y-17925949D02*
X11248047Y-17935473D01*
X11248047Y-17935473D02*
X11257570Y-17954520D01*
X11257570Y-17954520D02*
X11257570Y-18059282D01*
X11352809Y-18059282D02*
X11352809Y-17925949D01*
X11352809Y-17944996D02*
X11362332Y-17935473D01*
X11362332Y-17935473D02*
X11381380Y-17925949D01*
X11381380Y-17925949D02*
X11409951Y-17925949D01*
X11409951Y-17925949D02*
X11428999Y-17935473D01*
X11428999Y-17935473D02*
X11438523Y-17954520D01*
X11438523Y-17954520D02*
X11438523Y-18059282D01*
X11438523Y-17954520D02*
X11448047Y-17935473D01*
X11448047Y-17935473D02*
X11467094Y-17925949D01*
X11467094Y-17925949D02*
X11495666Y-17925949D01*
X11495666Y-17925949D02*
X11514713Y-17935473D01*
X11514713Y-17935473D02*
X11524237Y-17954520D01*
X11524237Y-17954520D02*
X11524237Y-18059282D01*
X11914713Y-17849758D02*
X11743285Y-18106901D01*
X12171856Y-17859282D02*
X12190904Y-17859282D01*
X12190904Y-17859282D02*
X12209952Y-17868806D01*
X12209952Y-17868806D02*
X12219475Y-17878330D01*
X12219475Y-17878330D02*
X12228999Y-17897377D01*
X12228999Y-17897377D02*
X12238523Y-17935473D01*
X12238523Y-17935473D02*
X12238523Y-17983092D01*
X12238523Y-17983092D02*
X12228999Y-18021187D01*
X12228999Y-18021187D02*
X12219475Y-18040235D01*
X12219475Y-18040235D02*
X12209952Y-18049758D01*
X12209952Y-18049758D02*
X12190904Y-18059282D01*
X12190904Y-18059282D02*
X12171856Y-18059282D01*
X12171856Y-18059282D02*
X12152809Y-18049758D01*
X12152809Y-18049758D02*
X12143285Y-18040235D01*
X12143285Y-18040235D02*
X12133761Y-18021187D01*
X12133761Y-18021187D02*
X12124237Y-17983092D01*
X12124237Y-17983092D02*
X12124237Y-17935473D01*
X12124237Y-17935473D02*
X12133761Y-17897377D01*
X12133761Y-17897377D02*
X12143285Y-17878330D01*
X12143285Y-17878330D02*
X12152809Y-17868806D01*
X12152809Y-17868806D02*
X12171856Y-17859282D01*
X12324237Y-18040235D02*
X12333761Y-18049758D01*
X12333761Y-18049758D02*
X12324237Y-18059282D01*
X12324237Y-18059282D02*
X12314713Y-18049758D01*
X12314713Y-18049758D02*
X12324237Y-18040235D01*
X12324237Y-18040235D02*
X12324237Y-18059282D01*
X12457571Y-17859282D02*
X12476618Y-17859282D01*
X12476618Y-17859282D02*
X12495666Y-17868806D01*
X12495666Y-17868806D02*
X12505190Y-17878330D01*
X12505190Y-17878330D02*
X12514713Y-17897377D01*
X12514713Y-17897377D02*
X12524237Y-17935473D01*
X12524237Y-17935473D02*
X12524237Y-17983092D01*
X12524237Y-17983092D02*
X12514713Y-18021187D01*
X12514713Y-18021187D02*
X12505190Y-18040235D01*
X12505190Y-18040235D02*
X12495666Y-18049758D01*
X12495666Y-18049758D02*
X12476618Y-18059282D01*
X12476618Y-18059282D02*
X12457571Y-18059282D01*
X12457571Y-18059282D02*
X12438523Y-18049758D01*
X12438523Y-18049758D02*
X12428999Y-18040235D01*
X12428999Y-18040235D02*
X12419475Y-18021187D01*
X12419475Y-18021187D02*
X12409952Y-17983092D01*
X12409952Y-17983092D02*
X12409952Y-17935473D01*
X12409952Y-17935473D02*
X12419475Y-17897377D01*
X12419475Y-17897377D02*
X12428999Y-17878330D01*
X12428999Y-17878330D02*
X12438523Y-17868806D01*
X12438523Y-17868806D02*
X12457571Y-17859282D01*
X12695666Y-17925949D02*
X12695666Y-18059282D01*
X12648047Y-17849758D02*
X12600428Y-17992616D01*
X12600428Y-17992616D02*
X12724237Y-17992616D01*
X12781380Y-17859282D02*
X12905190Y-17859282D01*
X12905190Y-17859282D02*
X12838523Y-17935473D01*
X12838523Y-17935473D02*
X12867094Y-17935473D01*
X12867094Y-17935473D02*
X12886142Y-17944996D01*
X12886142Y-17944996D02*
X12895666Y-17954520D01*
X12895666Y-17954520D02*
X12905190Y-17973568D01*
X12905190Y-17973568D02*
X12905190Y-18021187D01*
X12905190Y-18021187D02*
X12895666Y-18040235D01*
X12895666Y-18040235D02*
X12886142Y-18049758D01*
X12886142Y-18049758D02*
X12867094Y-18059282D01*
X12867094Y-18059282D02*
X12809952Y-18059282D01*
X12809952Y-18059282D02*
X12790904Y-18049758D01*
X12790904Y-18049758D02*
X12781380Y-18040235D01*
X13028999Y-17859282D02*
X13048047Y-17859282D01*
X13048047Y-17859282D02*
X13067094Y-17868806D01*
X13067094Y-17868806D02*
X13076618Y-17878330D01*
X13076618Y-17878330D02*
X13086142Y-17897377D01*
X13086142Y-17897377D02*
X13095666Y-17935473D01*
X13095666Y-17935473D02*
X13095666Y-17983092D01*
X13095666Y-17983092D02*
X13086142Y-18021187D01*
X13086142Y-18021187D02*
X13076618Y-18040235D01*
X13076618Y-18040235D02*
X13067094Y-18049758D01*
X13067094Y-18049758D02*
X13048047Y-18059282D01*
X13048047Y-18059282D02*
X13028999Y-18059282D01*
X13028999Y-18059282D02*
X13009952Y-18049758D01*
X13009952Y-18049758D02*
X13000428Y-18040235D01*
X13000428Y-18040235D02*
X12990904Y-18021187D01*
X12990904Y-18021187D02*
X12981380Y-17983092D01*
X12981380Y-17983092D02*
X12981380Y-17935473D01*
X12981380Y-17935473D02*
X12990904Y-17897377D01*
X12990904Y-17897377D02*
X13000428Y-17878330D01*
X13000428Y-17878330D02*
X13009952Y-17868806D01*
X13009952Y-17868806D02*
X13028999Y-17859282D01*
X13171856Y-17859282D02*
X13171856Y-17897377D01*
X13248047Y-17859282D02*
X13248047Y-17897377D01*
X13543285Y-18135473D02*
X13533761Y-18125949D01*
X13533761Y-18125949D02*
X13514714Y-18097377D01*
X13514714Y-18097377D02*
X13505190Y-18078330D01*
X13505190Y-18078330D02*
X13495666Y-18049758D01*
X13495666Y-18049758D02*
X13486142Y-18002139D01*
X13486142Y-18002139D02*
X13486142Y-17964044D01*
X13486142Y-17964044D02*
X13495666Y-17916425D01*
X13495666Y-17916425D02*
X13505190Y-17887854D01*
X13505190Y-17887854D02*
X13514714Y-17868806D01*
X13514714Y-17868806D02*
X13533761Y-17840235D01*
X13533761Y-17840235D02*
X13543285Y-17830711D01*
X13609952Y-17878330D02*
X13619475Y-17868806D01*
X13619475Y-17868806D02*
X13638523Y-17859282D01*
X13638523Y-17859282D02*
X13686142Y-17859282D01*
X13686142Y-17859282D02*
X13705190Y-17868806D01*
X13705190Y-17868806D02*
X13714714Y-17878330D01*
X13714714Y-17878330D02*
X13724237Y-17897377D01*
X13724237Y-17897377D02*
X13724237Y-17916425D01*
X13724237Y-17916425D02*
X13714714Y-17944996D01*
X13714714Y-17944996D02*
X13600428Y-18059282D01*
X13600428Y-18059282D02*
X13724237Y-18059282D01*
X13895666Y-17925949D02*
X13895666Y-18059282D01*
X13848047Y-17849758D02*
X13800428Y-17992616D01*
X13800428Y-17992616D02*
X13924237Y-17992616D01*
X14152809Y-18059282D02*
X14152809Y-17859282D01*
X14238523Y-18059282D02*
X14238523Y-17954520D01*
X14238523Y-17954520D02*
X14228999Y-17935473D01*
X14228999Y-17935473D02*
X14209952Y-17925949D01*
X14209952Y-17925949D02*
X14181380Y-17925949D01*
X14181380Y-17925949D02*
X14162333Y-17935473D01*
X14162333Y-17935473D02*
X14152809Y-17944996D01*
X14362333Y-18059282D02*
X14343285Y-18049758D01*
X14343285Y-18049758D02*
X14333761Y-18040235D01*
X14333761Y-18040235D02*
X14324237Y-18021187D01*
X14324237Y-18021187D02*
X14324237Y-17964044D01*
X14324237Y-17964044D02*
X14333761Y-17944996D01*
X14333761Y-17944996D02*
X14343285Y-17935473D01*
X14343285Y-17935473D02*
X14362333Y-17925949D01*
X14362333Y-17925949D02*
X14390904Y-17925949D01*
X14390904Y-17925949D02*
X14409952Y-17935473D01*
X14409952Y-17935473D02*
X14419476Y-17944996D01*
X14419476Y-17944996D02*
X14428999Y-17964044D01*
X14428999Y-17964044D02*
X14428999Y-18021187D01*
X14428999Y-18021187D02*
X14419476Y-18040235D01*
X14419476Y-18040235D02*
X14409952Y-18049758D01*
X14409952Y-18049758D02*
X14390904Y-18059282D01*
X14390904Y-18059282D02*
X14362333Y-18059282D01*
X14543285Y-18059282D02*
X14524237Y-18049758D01*
X14524237Y-18049758D02*
X14514714Y-18030711D01*
X14514714Y-18030711D02*
X14514714Y-17859282D01*
X14695666Y-18049758D02*
X14676618Y-18059282D01*
X14676618Y-18059282D02*
X14638523Y-18059282D01*
X14638523Y-18059282D02*
X14619476Y-18049758D01*
X14619476Y-18049758D02*
X14609952Y-18030711D01*
X14609952Y-18030711D02*
X14609952Y-17954520D01*
X14609952Y-17954520D02*
X14619476Y-17935473D01*
X14619476Y-17935473D02*
X14638523Y-17925949D01*
X14638523Y-17925949D02*
X14676618Y-17925949D01*
X14676618Y-17925949D02*
X14695666Y-17935473D01*
X14695666Y-17935473D02*
X14705190Y-17954520D01*
X14705190Y-17954520D02*
X14705190Y-17973568D01*
X14705190Y-17973568D02*
X14609952Y-17992616D01*
X14781380Y-18049758D02*
X14800428Y-18059282D01*
X14800428Y-18059282D02*
X14838523Y-18059282D01*
X14838523Y-18059282D02*
X14857571Y-18049758D01*
X14857571Y-18049758D02*
X14867095Y-18030711D01*
X14867095Y-18030711D02*
X14867095Y-18021187D01*
X14867095Y-18021187D02*
X14857571Y-18002139D01*
X14857571Y-18002139D02*
X14838523Y-17992616D01*
X14838523Y-17992616D02*
X14809952Y-17992616D01*
X14809952Y-17992616D02*
X14790904Y-17983092D01*
X14790904Y-17983092D02*
X14781380Y-17964044D01*
X14781380Y-17964044D02*
X14781380Y-17954520D01*
X14781380Y-17954520D02*
X14790904Y-17935473D01*
X14790904Y-17935473D02*
X14809952Y-17925949D01*
X14809952Y-17925949D02*
X14838523Y-17925949D01*
X14838523Y-17925949D02*
X14857571Y-17935473D01*
X14933761Y-18135473D02*
X14943285Y-18125949D01*
X14943285Y-18125949D02*
X14962333Y-18097377D01*
X14962333Y-18097377D02*
X14971857Y-18078330D01*
X14971857Y-18078330D02*
X14981380Y-18049758D01*
X14981380Y-18049758D02*
X14990904Y-18002139D01*
X14990904Y-18002139D02*
X14990904Y-17964044D01*
X14990904Y-17964044D02*
X14981380Y-17916425D01*
X14981380Y-17916425D02*
X14971857Y-17887854D01*
X14971857Y-17887854D02*
X14962333Y-17868806D01*
X14962333Y-17868806D02*
X14943285Y-17840235D01*
X14943285Y-17840235D02*
X14933761Y-17830711D01*
D15*
X9841222Y-18168298D02*
X9968222Y-18295298D01*
X9968222Y-18168298D02*
X9841222Y-18295298D01*
X9968222Y-18231798D02*
G75*
G02*
X9841222Y-18231798I-63500J0D01*
G01*
X9841222Y-18231798D02*
G75*
G02*
X9968222Y-18231798I63500J0D01*
G01*
D11*
X10333761Y-18323282D02*
X10219475Y-18323282D01*
X10276618Y-18323282D02*
X10276618Y-18123282D01*
X10276618Y-18123282D02*
X10257570Y-18151854D01*
X10257570Y-18151854D02*
X10238523Y-18170901D01*
X10238523Y-18170901D02*
X10219475Y-18180425D01*
X10419475Y-18304235D02*
X10428999Y-18313758D01*
X10428999Y-18313758D02*
X10419475Y-18323282D01*
X10419475Y-18323282D02*
X10409951Y-18313758D01*
X10409951Y-18313758D02*
X10419475Y-18304235D01*
X10419475Y-18304235D02*
X10419475Y-18323282D01*
X10505190Y-18142330D02*
X10514713Y-18132806D01*
X10514713Y-18132806D02*
X10533761Y-18123282D01*
X10533761Y-18123282D02*
X10581380Y-18123282D01*
X10581380Y-18123282D02*
X10600428Y-18132806D01*
X10600428Y-18132806D02*
X10609951Y-18142330D01*
X10609951Y-18142330D02*
X10619475Y-18161377D01*
X10619475Y-18161377D02*
X10619475Y-18180425D01*
X10619475Y-18180425D02*
X10609951Y-18208996D01*
X10609951Y-18208996D02*
X10495666Y-18323282D01*
X10495666Y-18323282D02*
X10619475Y-18323282D01*
X10686142Y-18123282D02*
X10819475Y-18123282D01*
X10819475Y-18123282D02*
X10733761Y-18323282D01*
X10933761Y-18123282D02*
X10952809Y-18123282D01*
X10952809Y-18123282D02*
X10971856Y-18132806D01*
X10971856Y-18132806D02*
X10981380Y-18142330D01*
X10981380Y-18142330D02*
X10990904Y-18161377D01*
X10990904Y-18161377D02*
X11000428Y-18199473D01*
X11000428Y-18199473D02*
X11000428Y-18247092D01*
X11000428Y-18247092D02*
X10990904Y-18285187D01*
X10990904Y-18285187D02*
X10981380Y-18304235D01*
X10981380Y-18304235D02*
X10971856Y-18313758D01*
X10971856Y-18313758D02*
X10952809Y-18323282D01*
X10952809Y-18323282D02*
X10933761Y-18323282D01*
X10933761Y-18323282D02*
X10914713Y-18313758D01*
X10914713Y-18313758D02*
X10905190Y-18304235D01*
X10905190Y-18304235D02*
X10895666Y-18285187D01*
X10895666Y-18285187D02*
X10886142Y-18247092D01*
X10886142Y-18247092D02*
X10886142Y-18199473D01*
X10886142Y-18199473D02*
X10895666Y-18161377D01*
X10895666Y-18161377D02*
X10905190Y-18142330D01*
X10905190Y-18142330D02*
X10914713Y-18132806D01*
X10914713Y-18132806D02*
X10933761Y-18123282D01*
X11086142Y-18323282D02*
X11086142Y-18189949D01*
X11086142Y-18208996D02*
X11095666Y-18199473D01*
X11095666Y-18199473D02*
X11114713Y-18189949D01*
X11114713Y-18189949D02*
X11143285Y-18189949D01*
X11143285Y-18189949D02*
X11162332Y-18199473D01*
X11162332Y-18199473D02*
X11171856Y-18218520D01*
X11171856Y-18218520D02*
X11171856Y-18323282D01*
X11171856Y-18218520D02*
X11181380Y-18199473D01*
X11181380Y-18199473D02*
X11200428Y-18189949D01*
X11200428Y-18189949D02*
X11228999Y-18189949D01*
X11228999Y-18189949D02*
X11248047Y-18199473D01*
X11248047Y-18199473D02*
X11257570Y-18218520D01*
X11257570Y-18218520D02*
X11257570Y-18323282D01*
X11352809Y-18323282D02*
X11352809Y-18189949D01*
X11352809Y-18208996D02*
X11362332Y-18199473D01*
X11362332Y-18199473D02*
X11381380Y-18189949D01*
X11381380Y-18189949D02*
X11409951Y-18189949D01*
X11409951Y-18189949D02*
X11428999Y-18199473D01*
X11428999Y-18199473D02*
X11438523Y-18218520D01*
X11438523Y-18218520D02*
X11438523Y-18323282D01*
X11438523Y-18218520D02*
X11448047Y-18199473D01*
X11448047Y-18199473D02*
X11467094Y-18189949D01*
X11467094Y-18189949D02*
X11495666Y-18189949D01*
X11495666Y-18189949D02*
X11514713Y-18199473D01*
X11514713Y-18199473D02*
X11524237Y-18218520D01*
X11524237Y-18218520D02*
X11524237Y-18323282D01*
X11914713Y-18113758D02*
X11743285Y-18370901D01*
X12171856Y-18123282D02*
X12190904Y-18123282D01*
X12190904Y-18123282D02*
X12209952Y-18132806D01*
X12209952Y-18132806D02*
X12219475Y-18142330D01*
X12219475Y-18142330D02*
X12228999Y-18161377D01*
X12228999Y-18161377D02*
X12238523Y-18199473D01*
X12238523Y-18199473D02*
X12238523Y-18247092D01*
X12238523Y-18247092D02*
X12228999Y-18285187D01*
X12228999Y-18285187D02*
X12219475Y-18304235D01*
X12219475Y-18304235D02*
X12209952Y-18313758D01*
X12209952Y-18313758D02*
X12190904Y-18323282D01*
X12190904Y-18323282D02*
X12171856Y-18323282D01*
X12171856Y-18323282D02*
X12152809Y-18313758D01*
X12152809Y-18313758D02*
X12143285Y-18304235D01*
X12143285Y-18304235D02*
X12133761Y-18285187D01*
X12133761Y-18285187D02*
X12124237Y-18247092D01*
X12124237Y-18247092D02*
X12124237Y-18199473D01*
X12124237Y-18199473D02*
X12133761Y-18161377D01*
X12133761Y-18161377D02*
X12143285Y-18142330D01*
X12143285Y-18142330D02*
X12152809Y-18132806D01*
X12152809Y-18132806D02*
X12171856Y-18123282D01*
X12324237Y-18304235D02*
X12333761Y-18313758D01*
X12333761Y-18313758D02*
X12324237Y-18323282D01*
X12324237Y-18323282D02*
X12314713Y-18313758D01*
X12314713Y-18313758D02*
X12324237Y-18304235D01*
X12324237Y-18304235D02*
X12324237Y-18323282D01*
X12457571Y-18123282D02*
X12476618Y-18123282D01*
X12476618Y-18123282D02*
X12495666Y-18132806D01*
X12495666Y-18132806D02*
X12505190Y-18142330D01*
X12505190Y-18142330D02*
X12514713Y-18161377D01*
X12514713Y-18161377D02*
X12524237Y-18199473D01*
X12524237Y-18199473D02*
X12524237Y-18247092D01*
X12524237Y-18247092D02*
X12514713Y-18285187D01*
X12514713Y-18285187D02*
X12505190Y-18304235D01*
X12505190Y-18304235D02*
X12495666Y-18313758D01*
X12495666Y-18313758D02*
X12476618Y-18323282D01*
X12476618Y-18323282D02*
X12457571Y-18323282D01*
X12457571Y-18323282D02*
X12438523Y-18313758D01*
X12438523Y-18313758D02*
X12428999Y-18304235D01*
X12428999Y-18304235D02*
X12419475Y-18285187D01*
X12419475Y-18285187D02*
X12409952Y-18247092D01*
X12409952Y-18247092D02*
X12409952Y-18199473D01*
X12409952Y-18199473D02*
X12419475Y-18161377D01*
X12419475Y-18161377D02*
X12428999Y-18142330D01*
X12428999Y-18142330D02*
X12438523Y-18132806D01*
X12438523Y-18132806D02*
X12457571Y-18123282D01*
X12705190Y-18123282D02*
X12609952Y-18123282D01*
X12609952Y-18123282D02*
X12600428Y-18218520D01*
X12600428Y-18218520D02*
X12609952Y-18208996D01*
X12609952Y-18208996D02*
X12628999Y-18199473D01*
X12628999Y-18199473D02*
X12676618Y-18199473D01*
X12676618Y-18199473D02*
X12695666Y-18208996D01*
X12695666Y-18208996D02*
X12705190Y-18218520D01*
X12705190Y-18218520D02*
X12714713Y-18237568D01*
X12714713Y-18237568D02*
X12714713Y-18285187D01*
X12714713Y-18285187D02*
X12705190Y-18304235D01*
X12705190Y-18304235D02*
X12695666Y-18313758D01*
X12695666Y-18313758D02*
X12676618Y-18323282D01*
X12676618Y-18323282D02*
X12628999Y-18323282D01*
X12628999Y-18323282D02*
X12609952Y-18313758D01*
X12609952Y-18313758D02*
X12600428Y-18304235D01*
X12838523Y-18123282D02*
X12857571Y-18123282D01*
X12857571Y-18123282D02*
X12876618Y-18132806D01*
X12876618Y-18132806D02*
X12886142Y-18142330D01*
X12886142Y-18142330D02*
X12895666Y-18161377D01*
X12895666Y-18161377D02*
X12905190Y-18199473D01*
X12905190Y-18199473D02*
X12905190Y-18247092D01*
X12905190Y-18247092D02*
X12895666Y-18285187D01*
X12895666Y-18285187D02*
X12886142Y-18304235D01*
X12886142Y-18304235D02*
X12876618Y-18313758D01*
X12876618Y-18313758D02*
X12857571Y-18323282D01*
X12857571Y-18323282D02*
X12838523Y-18323282D01*
X12838523Y-18323282D02*
X12819475Y-18313758D01*
X12819475Y-18313758D02*
X12809952Y-18304235D01*
X12809952Y-18304235D02*
X12800428Y-18285187D01*
X12800428Y-18285187D02*
X12790904Y-18247092D01*
X12790904Y-18247092D02*
X12790904Y-18199473D01*
X12790904Y-18199473D02*
X12800428Y-18161377D01*
X12800428Y-18161377D02*
X12809952Y-18142330D01*
X12809952Y-18142330D02*
X12819475Y-18132806D01*
X12819475Y-18132806D02*
X12838523Y-18123282D01*
X13028999Y-18123282D02*
X13048047Y-18123282D01*
X13048047Y-18123282D02*
X13067094Y-18132806D01*
X13067094Y-18132806D02*
X13076618Y-18142330D01*
X13076618Y-18142330D02*
X13086142Y-18161377D01*
X13086142Y-18161377D02*
X13095666Y-18199473D01*
X13095666Y-18199473D02*
X13095666Y-18247092D01*
X13095666Y-18247092D02*
X13086142Y-18285187D01*
X13086142Y-18285187D02*
X13076618Y-18304235D01*
X13076618Y-18304235D02*
X13067094Y-18313758D01*
X13067094Y-18313758D02*
X13048047Y-18323282D01*
X13048047Y-18323282D02*
X13028999Y-18323282D01*
X13028999Y-18323282D02*
X13009952Y-18313758D01*
X13009952Y-18313758D02*
X13000428Y-18304235D01*
X13000428Y-18304235D02*
X12990904Y-18285187D01*
X12990904Y-18285187D02*
X12981380Y-18247092D01*
X12981380Y-18247092D02*
X12981380Y-18199473D01*
X12981380Y-18199473D02*
X12990904Y-18161377D01*
X12990904Y-18161377D02*
X13000428Y-18142330D01*
X13000428Y-18142330D02*
X13009952Y-18132806D01*
X13009952Y-18132806D02*
X13028999Y-18123282D01*
X13171856Y-18123282D02*
X13171856Y-18161377D01*
X13248047Y-18123282D02*
X13248047Y-18161377D01*
X13543285Y-18399473D02*
X13533761Y-18389949D01*
X13533761Y-18389949D02*
X13514714Y-18361377D01*
X13514714Y-18361377D02*
X13505190Y-18342330D01*
X13505190Y-18342330D02*
X13495666Y-18313758D01*
X13495666Y-18313758D02*
X13486142Y-18266139D01*
X13486142Y-18266139D02*
X13486142Y-18228044D01*
X13486142Y-18228044D02*
X13495666Y-18180425D01*
X13495666Y-18180425D02*
X13505190Y-18151854D01*
X13505190Y-18151854D02*
X13514714Y-18132806D01*
X13514714Y-18132806D02*
X13533761Y-18104235D01*
X13533761Y-18104235D02*
X13543285Y-18094711D01*
X13600428Y-18123282D02*
X13724237Y-18123282D01*
X13724237Y-18123282D02*
X13657571Y-18199473D01*
X13657571Y-18199473D02*
X13686142Y-18199473D01*
X13686142Y-18199473D02*
X13705190Y-18208996D01*
X13705190Y-18208996D02*
X13714714Y-18218520D01*
X13714714Y-18218520D02*
X13724237Y-18237568D01*
X13724237Y-18237568D02*
X13724237Y-18285187D01*
X13724237Y-18285187D02*
X13714714Y-18304235D01*
X13714714Y-18304235D02*
X13705190Y-18313758D01*
X13705190Y-18313758D02*
X13686142Y-18323282D01*
X13686142Y-18323282D02*
X13628999Y-18323282D01*
X13628999Y-18323282D02*
X13609952Y-18313758D01*
X13609952Y-18313758D02*
X13600428Y-18304235D01*
X13819475Y-18323282D02*
X13857571Y-18323282D01*
X13857571Y-18323282D02*
X13876618Y-18313758D01*
X13876618Y-18313758D02*
X13886142Y-18304235D01*
X13886142Y-18304235D02*
X13905190Y-18275663D01*
X13905190Y-18275663D02*
X13914714Y-18237568D01*
X13914714Y-18237568D02*
X13914714Y-18161377D01*
X13914714Y-18161377D02*
X13905190Y-18142330D01*
X13905190Y-18142330D02*
X13895666Y-18132806D01*
X13895666Y-18132806D02*
X13876618Y-18123282D01*
X13876618Y-18123282D02*
X13838523Y-18123282D01*
X13838523Y-18123282D02*
X13819475Y-18132806D01*
X13819475Y-18132806D02*
X13809952Y-18142330D01*
X13809952Y-18142330D02*
X13800428Y-18161377D01*
X13800428Y-18161377D02*
X13800428Y-18208996D01*
X13800428Y-18208996D02*
X13809952Y-18228044D01*
X13809952Y-18228044D02*
X13819475Y-18237568D01*
X13819475Y-18237568D02*
X13838523Y-18247092D01*
X13838523Y-18247092D02*
X13876618Y-18247092D01*
X13876618Y-18247092D02*
X13895666Y-18237568D01*
X13895666Y-18237568D02*
X13905190Y-18228044D01*
X13905190Y-18228044D02*
X13914714Y-18208996D01*
X14152809Y-18323282D02*
X14152809Y-18123282D01*
X14238523Y-18323282D02*
X14238523Y-18218520D01*
X14238523Y-18218520D02*
X14228999Y-18199473D01*
X14228999Y-18199473D02*
X14209952Y-18189949D01*
X14209952Y-18189949D02*
X14181380Y-18189949D01*
X14181380Y-18189949D02*
X14162333Y-18199473D01*
X14162333Y-18199473D02*
X14152809Y-18208996D01*
X14362333Y-18323282D02*
X14343285Y-18313758D01*
X14343285Y-18313758D02*
X14333761Y-18304235D01*
X14333761Y-18304235D02*
X14324237Y-18285187D01*
X14324237Y-18285187D02*
X14324237Y-18228044D01*
X14324237Y-18228044D02*
X14333761Y-18208996D01*
X14333761Y-18208996D02*
X14343285Y-18199473D01*
X14343285Y-18199473D02*
X14362333Y-18189949D01*
X14362333Y-18189949D02*
X14390904Y-18189949D01*
X14390904Y-18189949D02*
X14409952Y-18199473D01*
X14409952Y-18199473D02*
X14419476Y-18208996D01*
X14419476Y-18208996D02*
X14428999Y-18228044D01*
X14428999Y-18228044D02*
X14428999Y-18285187D01*
X14428999Y-18285187D02*
X14419476Y-18304235D01*
X14419476Y-18304235D02*
X14409952Y-18313758D01*
X14409952Y-18313758D02*
X14390904Y-18323282D01*
X14390904Y-18323282D02*
X14362333Y-18323282D01*
X14543285Y-18323282D02*
X14524237Y-18313758D01*
X14524237Y-18313758D02*
X14514714Y-18294711D01*
X14514714Y-18294711D02*
X14514714Y-18123282D01*
X14695666Y-18313758D02*
X14676618Y-18323282D01*
X14676618Y-18323282D02*
X14638523Y-18323282D01*
X14638523Y-18323282D02*
X14619476Y-18313758D01*
X14619476Y-18313758D02*
X14609952Y-18294711D01*
X14609952Y-18294711D02*
X14609952Y-18218520D01*
X14609952Y-18218520D02*
X14619476Y-18199473D01*
X14619476Y-18199473D02*
X14638523Y-18189949D01*
X14638523Y-18189949D02*
X14676618Y-18189949D01*
X14676618Y-18189949D02*
X14695666Y-18199473D01*
X14695666Y-18199473D02*
X14705190Y-18218520D01*
X14705190Y-18218520D02*
X14705190Y-18237568D01*
X14705190Y-18237568D02*
X14609952Y-18256616D01*
X14781380Y-18313758D02*
X14800428Y-18323282D01*
X14800428Y-18323282D02*
X14838523Y-18323282D01*
X14838523Y-18323282D02*
X14857571Y-18313758D01*
X14857571Y-18313758D02*
X14867095Y-18294711D01*
X14867095Y-18294711D02*
X14867095Y-18285187D01*
X14867095Y-18285187D02*
X14857571Y-18266139D01*
X14857571Y-18266139D02*
X14838523Y-18256616D01*
X14838523Y-18256616D02*
X14809952Y-18256616D01*
X14809952Y-18256616D02*
X14790904Y-18247092D01*
X14790904Y-18247092D02*
X14781380Y-18228044D01*
X14781380Y-18228044D02*
X14781380Y-18218520D01*
X14781380Y-18218520D02*
X14790904Y-18199473D01*
X14790904Y-18199473D02*
X14809952Y-18189949D01*
X14809952Y-18189949D02*
X14838523Y-18189949D01*
X14838523Y-18189949D02*
X14857571Y-18199473D01*
X14933761Y-18399473D02*
X14943285Y-18389949D01*
X14943285Y-18389949D02*
X14962333Y-18361377D01*
X14962333Y-18361377D02*
X14971857Y-18342330D01*
X14971857Y-18342330D02*
X14981380Y-18313758D01*
X14981380Y-18313758D02*
X14990904Y-18266139D01*
X14990904Y-18266139D02*
X14990904Y-18228044D01*
X14990904Y-18228044D02*
X14981380Y-18180425D01*
X14981380Y-18180425D02*
X14971857Y-18151854D01*
X14971857Y-18151854D02*
X14962333Y-18132806D01*
X14962333Y-18132806D02*
X14943285Y-18104235D01*
X14943285Y-18104235D02*
X14933761Y-18094711D01*
X9768222Y-18395798D02*
X9968222Y-18595798D01*
X9968222Y-18395798D02*
X9768222Y-18595798D01*
X9868222Y-18395798D02*
X9868222Y-18595798D01*
X9768222Y-18495798D02*
X9968222Y-18495798D01*
X10219475Y-18406330D02*
X10228999Y-18396806D01*
X10228999Y-18396806D02*
X10248047Y-18387282D01*
X10248047Y-18387282D02*
X10295666Y-18387282D01*
X10295666Y-18387282D02*
X10314713Y-18396806D01*
X10314713Y-18396806D02*
X10324237Y-18406330D01*
X10324237Y-18406330D02*
X10333761Y-18425377D01*
X10333761Y-18425377D02*
X10333761Y-18444425D01*
X10333761Y-18444425D02*
X10324237Y-18472996D01*
X10324237Y-18472996D02*
X10209951Y-18587282D01*
X10209951Y-18587282D02*
X10333761Y-18587282D01*
X10419475Y-18568235D02*
X10428999Y-18577758D01*
X10428999Y-18577758D02*
X10419475Y-18587282D01*
X10419475Y-18587282D02*
X10409951Y-18577758D01*
X10409951Y-18577758D02*
X10419475Y-18568235D01*
X10419475Y-18568235D02*
X10419475Y-18587282D01*
X10505190Y-18406330D02*
X10514713Y-18396806D01*
X10514713Y-18396806D02*
X10533761Y-18387282D01*
X10533761Y-18387282D02*
X10581380Y-18387282D01*
X10581380Y-18387282D02*
X10600428Y-18396806D01*
X10600428Y-18396806D02*
X10609951Y-18406330D01*
X10609951Y-18406330D02*
X10619475Y-18425377D01*
X10619475Y-18425377D02*
X10619475Y-18444425D01*
X10619475Y-18444425D02*
X10609951Y-18472996D01*
X10609951Y-18472996D02*
X10495666Y-18587282D01*
X10495666Y-18587282D02*
X10619475Y-18587282D01*
X10743285Y-18387282D02*
X10762332Y-18387282D01*
X10762332Y-18387282D02*
X10781380Y-18396806D01*
X10781380Y-18396806D02*
X10790904Y-18406330D01*
X10790904Y-18406330D02*
X10800428Y-18425377D01*
X10800428Y-18425377D02*
X10809951Y-18463473D01*
X10809951Y-18463473D02*
X10809951Y-18511092D01*
X10809951Y-18511092D02*
X10800428Y-18549187D01*
X10800428Y-18549187D02*
X10790904Y-18568235D01*
X10790904Y-18568235D02*
X10781380Y-18577758D01*
X10781380Y-18577758D02*
X10762332Y-18587282D01*
X10762332Y-18587282D02*
X10743285Y-18587282D01*
X10743285Y-18587282D02*
X10724237Y-18577758D01*
X10724237Y-18577758D02*
X10714713Y-18568235D01*
X10714713Y-18568235D02*
X10705190Y-18549187D01*
X10705190Y-18549187D02*
X10695666Y-18511092D01*
X10695666Y-18511092D02*
X10695666Y-18463473D01*
X10695666Y-18463473D02*
X10705190Y-18425377D01*
X10705190Y-18425377D02*
X10714713Y-18406330D01*
X10714713Y-18406330D02*
X10724237Y-18396806D01*
X10724237Y-18396806D02*
X10743285Y-18387282D01*
X10933761Y-18387282D02*
X10952809Y-18387282D01*
X10952809Y-18387282D02*
X10971856Y-18396806D01*
X10971856Y-18396806D02*
X10981380Y-18406330D01*
X10981380Y-18406330D02*
X10990904Y-18425377D01*
X10990904Y-18425377D02*
X11000428Y-18463473D01*
X11000428Y-18463473D02*
X11000428Y-18511092D01*
X11000428Y-18511092D02*
X10990904Y-18549187D01*
X10990904Y-18549187D02*
X10981380Y-18568235D01*
X10981380Y-18568235D02*
X10971856Y-18577758D01*
X10971856Y-18577758D02*
X10952809Y-18587282D01*
X10952809Y-18587282D02*
X10933761Y-18587282D01*
X10933761Y-18587282D02*
X10914713Y-18577758D01*
X10914713Y-18577758D02*
X10905190Y-18568235D01*
X10905190Y-18568235D02*
X10895666Y-18549187D01*
X10895666Y-18549187D02*
X10886142Y-18511092D01*
X10886142Y-18511092D02*
X10886142Y-18463473D01*
X10886142Y-18463473D02*
X10895666Y-18425377D01*
X10895666Y-18425377D02*
X10905190Y-18406330D01*
X10905190Y-18406330D02*
X10914713Y-18396806D01*
X10914713Y-18396806D02*
X10933761Y-18387282D01*
X11086142Y-18587282D02*
X11086142Y-18453949D01*
X11086142Y-18472996D02*
X11095666Y-18463473D01*
X11095666Y-18463473D02*
X11114713Y-18453949D01*
X11114713Y-18453949D02*
X11143285Y-18453949D01*
X11143285Y-18453949D02*
X11162332Y-18463473D01*
X11162332Y-18463473D02*
X11171856Y-18482520D01*
X11171856Y-18482520D02*
X11171856Y-18587282D01*
X11171856Y-18482520D02*
X11181380Y-18463473D01*
X11181380Y-18463473D02*
X11200428Y-18453949D01*
X11200428Y-18453949D02*
X11228999Y-18453949D01*
X11228999Y-18453949D02*
X11248047Y-18463473D01*
X11248047Y-18463473D02*
X11257570Y-18482520D01*
X11257570Y-18482520D02*
X11257570Y-18587282D01*
X11352809Y-18587282D02*
X11352809Y-18453949D01*
X11352809Y-18472996D02*
X11362332Y-18463473D01*
X11362332Y-18463473D02*
X11381380Y-18453949D01*
X11381380Y-18453949D02*
X11409951Y-18453949D01*
X11409951Y-18453949D02*
X11428999Y-18463473D01*
X11428999Y-18463473D02*
X11438523Y-18482520D01*
X11438523Y-18482520D02*
X11438523Y-18587282D01*
X11438523Y-18482520D02*
X11448047Y-18463473D01*
X11448047Y-18463473D02*
X11467094Y-18453949D01*
X11467094Y-18453949D02*
X11495666Y-18453949D01*
X11495666Y-18453949D02*
X11514713Y-18463473D01*
X11514713Y-18463473D02*
X11524237Y-18482520D01*
X11524237Y-18482520D02*
X11524237Y-18587282D01*
X11914713Y-18377758D02*
X11743285Y-18634901D01*
X12171856Y-18387282D02*
X12190904Y-18387282D01*
X12190904Y-18387282D02*
X12209952Y-18396806D01*
X12209952Y-18396806D02*
X12219475Y-18406330D01*
X12219475Y-18406330D02*
X12228999Y-18425377D01*
X12228999Y-18425377D02*
X12238523Y-18463473D01*
X12238523Y-18463473D02*
X12238523Y-18511092D01*
X12238523Y-18511092D02*
X12228999Y-18549187D01*
X12228999Y-18549187D02*
X12219475Y-18568235D01*
X12219475Y-18568235D02*
X12209952Y-18577758D01*
X12209952Y-18577758D02*
X12190904Y-18587282D01*
X12190904Y-18587282D02*
X12171856Y-18587282D01*
X12171856Y-18587282D02*
X12152809Y-18577758D01*
X12152809Y-18577758D02*
X12143285Y-18568235D01*
X12143285Y-18568235D02*
X12133761Y-18549187D01*
X12133761Y-18549187D02*
X12124237Y-18511092D01*
X12124237Y-18511092D02*
X12124237Y-18463473D01*
X12124237Y-18463473D02*
X12133761Y-18425377D01*
X12133761Y-18425377D02*
X12143285Y-18406330D01*
X12143285Y-18406330D02*
X12152809Y-18396806D01*
X12152809Y-18396806D02*
X12171856Y-18387282D01*
X12324237Y-18568235D02*
X12333761Y-18577758D01*
X12333761Y-18577758D02*
X12324237Y-18587282D01*
X12324237Y-18587282D02*
X12314713Y-18577758D01*
X12314713Y-18577758D02*
X12324237Y-18568235D01*
X12324237Y-18568235D02*
X12324237Y-18587282D01*
X12457571Y-18387282D02*
X12476618Y-18387282D01*
X12476618Y-18387282D02*
X12495666Y-18396806D01*
X12495666Y-18396806D02*
X12505190Y-18406330D01*
X12505190Y-18406330D02*
X12514713Y-18425377D01*
X12514713Y-18425377D02*
X12524237Y-18463473D01*
X12524237Y-18463473D02*
X12524237Y-18511092D01*
X12524237Y-18511092D02*
X12514713Y-18549187D01*
X12514713Y-18549187D02*
X12505190Y-18568235D01*
X12505190Y-18568235D02*
X12495666Y-18577758D01*
X12495666Y-18577758D02*
X12476618Y-18587282D01*
X12476618Y-18587282D02*
X12457571Y-18587282D01*
X12457571Y-18587282D02*
X12438523Y-18577758D01*
X12438523Y-18577758D02*
X12428999Y-18568235D01*
X12428999Y-18568235D02*
X12419475Y-18549187D01*
X12419475Y-18549187D02*
X12409952Y-18511092D01*
X12409952Y-18511092D02*
X12409952Y-18463473D01*
X12409952Y-18463473D02*
X12419475Y-18425377D01*
X12419475Y-18425377D02*
X12428999Y-18406330D01*
X12428999Y-18406330D02*
X12438523Y-18396806D01*
X12438523Y-18396806D02*
X12457571Y-18387282D01*
X12638523Y-18472996D02*
X12619475Y-18463473D01*
X12619475Y-18463473D02*
X12609952Y-18453949D01*
X12609952Y-18453949D02*
X12600428Y-18434901D01*
X12600428Y-18434901D02*
X12600428Y-18425377D01*
X12600428Y-18425377D02*
X12609952Y-18406330D01*
X12609952Y-18406330D02*
X12619475Y-18396806D01*
X12619475Y-18396806D02*
X12638523Y-18387282D01*
X12638523Y-18387282D02*
X12676618Y-18387282D01*
X12676618Y-18387282D02*
X12695666Y-18396806D01*
X12695666Y-18396806D02*
X12705190Y-18406330D01*
X12705190Y-18406330D02*
X12714713Y-18425377D01*
X12714713Y-18425377D02*
X12714713Y-18434901D01*
X12714713Y-18434901D02*
X12705190Y-18453949D01*
X12705190Y-18453949D02*
X12695666Y-18463473D01*
X12695666Y-18463473D02*
X12676618Y-18472996D01*
X12676618Y-18472996D02*
X12638523Y-18472996D01*
X12638523Y-18472996D02*
X12619475Y-18482520D01*
X12619475Y-18482520D02*
X12609952Y-18492044D01*
X12609952Y-18492044D02*
X12600428Y-18511092D01*
X12600428Y-18511092D02*
X12600428Y-18549187D01*
X12600428Y-18549187D02*
X12609952Y-18568235D01*
X12609952Y-18568235D02*
X12619475Y-18577758D01*
X12619475Y-18577758D02*
X12638523Y-18587282D01*
X12638523Y-18587282D02*
X12676618Y-18587282D01*
X12676618Y-18587282D02*
X12695666Y-18577758D01*
X12695666Y-18577758D02*
X12705190Y-18568235D01*
X12705190Y-18568235D02*
X12714713Y-18549187D01*
X12714713Y-18549187D02*
X12714713Y-18511092D01*
X12714713Y-18511092D02*
X12705190Y-18492044D01*
X12705190Y-18492044D02*
X12695666Y-18482520D01*
X12695666Y-18482520D02*
X12676618Y-18472996D01*
X12886142Y-18387282D02*
X12848047Y-18387282D01*
X12848047Y-18387282D02*
X12828999Y-18396806D01*
X12828999Y-18396806D02*
X12819475Y-18406330D01*
X12819475Y-18406330D02*
X12800428Y-18434901D01*
X12800428Y-18434901D02*
X12790904Y-18472996D01*
X12790904Y-18472996D02*
X12790904Y-18549187D01*
X12790904Y-18549187D02*
X12800428Y-18568235D01*
X12800428Y-18568235D02*
X12809952Y-18577758D01*
X12809952Y-18577758D02*
X12828999Y-18587282D01*
X12828999Y-18587282D02*
X12867094Y-18587282D01*
X12867094Y-18587282D02*
X12886142Y-18577758D01*
X12886142Y-18577758D02*
X12895666Y-18568235D01*
X12895666Y-18568235D02*
X12905190Y-18549187D01*
X12905190Y-18549187D02*
X12905190Y-18501568D01*
X12905190Y-18501568D02*
X12895666Y-18482520D01*
X12895666Y-18482520D02*
X12886142Y-18472996D01*
X12886142Y-18472996D02*
X12867094Y-18463473D01*
X12867094Y-18463473D02*
X12828999Y-18463473D01*
X12828999Y-18463473D02*
X12809952Y-18472996D01*
X12809952Y-18472996D02*
X12800428Y-18482520D01*
X12800428Y-18482520D02*
X12790904Y-18501568D01*
X13076618Y-18387282D02*
X13038523Y-18387282D01*
X13038523Y-18387282D02*
X13019475Y-18396806D01*
X13019475Y-18396806D02*
X13009952Y-18406330D01*
X13009952Y-18406330D02*
X12990904Y-18434901D01*
X12990904Y-18434901D02*
X12981380Y-18472996D01*
X12981380Y-18472996D02*
X12981380Y-18549187D01*
X12981380Y-18549187D02*
X12990904Y-18568235D01*
X12990904Y-18568235D02*
X13000428Y-18577758D01*
X13000428Y-18577758D02*
X13019475Y-18587282D01*
X13019475Y-18587282D02*
X13057571Y-18587282D01*
X13057571Y-18587282D02*
X13076618Y-18577758D01*
X13076618Y-18577758D02*
X13086142Y-18568235D01*
X13086142Y-18568235D02*
X13095666Y-18549187D01*
X13095666Y-18549187D02*
X13095666Y-18501568D01*
X13095666Y-18501568D02*
X13086142Y-18482520D01*
X13086142Y-18482520D02*
X13076618Y-18472996D01*
X13076618Y-18472996D02*
X13057571Y-18463473D01*
X13057571Y-18463473D02*
X13019475Y-18463473D01*
X13019475Y-18463473D02*
X13000428Y-18472996D01*
X13000428Y-18472996D02*
X12990904Y-18482520D01*
X12990904Y-18482520D02*
X12981380Y-18501568D01*
X13171856Y-18387282D02*
X13171856Y-18425377D01*
X13248047Y-18387282D02*
X13248047Y-18425377D01*
X13543285Y-18663473D02*
X13533761Y-18653949D01*
X13533761Y-18653949D02*
X13514714Y-18625377D01*
X13514714Y-18625377D02*
X13505190Y-18606330D01*
X13505190Y-18606330D02*
X13495666Y-18577758D01*
X13495666Y-18577758D02*
X13486142Y-18530139D01*
X13486142Y-18530139D02*
X13486142Y-18492044D01*
X13486142Y-18492044D02*
X13495666Y-18444425D01*
X13495666Y-18444425D02*
X13505190Y-18415854D01*
X13505190Y-18415854D02*
X13514714Y-18396806D01*
X13514714Y-18396806D02*
X13533761Y-18368235D01*
X13533761Y-18368235D02*
X13543285Y-18358711D01*
X13648047Y-18472996D02*
X13628999Y-18463473D01*
X13628999Y-18463473D02*
X13619475Y-18453949D01*
X13619475Y-18453949D02*
X13609952Y-18434901D01*
X13609952Y-18434901D02*
X13609952Y-18425377D01*
X13609952Y-18425377D02*
X13619475Y-18406330D01*
X13619475Y-18406330D02*
X13628999Y-18396806D01*
X13628999Y-18396806D02*
X13648047Y-18387282D01*
X13648047Y-18387282D02*
X13686142Y-18387282D01*
X13686142Y-18387282D02*
X13705190Y-18396806D01*
X13705190Y-18396806D02*
X13714714Y-18406330D01*
X13714714Y-18406330D02*
X13724237Y-18425377D01*
X13724237Y-18425377D02*
X13724237Y-18434901D01*
X13724237Y-18434901D02*
X13714714Y-18453949D01*
X13714714Y-18453949D02*
X13705190Y-18463473D01*
X13705190Y-18463473D02*
X13686142Y-18472996D01*
X13686142Y-18472996D02*
X13648047Y-18472996D01*
X13648047Y-18472996D02*
X13628999Y-18482520D01*
X13628999Y-18482520D02*
X13619475Y-18492044D01*
X13619475Y-18492044D02*
X13609952Y-18511092D01*
X13609952Y-18511092D02*
X13609952Y-18549187D01*
X13609952Y-18549187D02*
X13619475Y-18568235D01*
X13619475Y-18568235D02*
X13628999Y-18577758D01*
X13628999Y-18577758D02*
X13648047Y-18587282D01*
X13648047Y-18587282D02*
X13686142Y-18587282D01*
X13686142Y-18587282D02*
X13705190Y-18577758D01*
X13705190Y-18577758D02*
X13714714Y-18568235D01*
X13714714Y-18568235D02*
X13724237Y-18549187D01*
X13724237Y-18549187D02*
X13724237Y-18511092D01*
X13724237Y-18511092D02*
X13714714Y-18492044D01*
X13714714Y-18492044D02*
X13705190Y-18482520D01*
X13705190Y-18482520D02*
X13686142Y-18472996D01*
X13962333Y-18587282D02*
X13962333Y-18387282D01*
X14048047Y-18587282D02*
X14048047Y-18482520D01*
X14048047Y-18482520D02*
X14038523Y-18463473D01*
X14038523Y-18463473D02*
X14019476Y-18453949D01*
X14019476Y-18453949D02*
X13990904Y-18453949D01*
X13990904Y-18453949D02*
X13971856Y-18463473D01*
X13971856Y-18463473D02*
X13962333Y-18472996D01*
X14171856Y-18587282D02*
X14152809Y-18577758D01*
X14152809Y-18577758D02*
X14143285Y-18568235D01*
X14143285Y-18568235D02*
X14133761Y-18549187D01*
X14133761Y-18549187D02*
X14133761Y-18492044D01*
X14133761Y-18492044D02*
X14143285Y-18472996D01*
X14143285Y-18472996D02*
X14152809Y-18463473D01*
X14152809Y-18463473D02*
X14171856Y-18453949D01*
X14171856Y-18453949D02*
X14200428Y-18453949D01*
X14200428Y-18453949D02*
X14219476Y-18463473D01*
X14219476Y-18463473D02*
X14228999Y-18472996D01*
X14228999Y-18472996D02*
X14238523Y-18492044D01*
X14238523Y-18492044D02*
X14238523Y-18549187D01*
X14238523Y-18549187D02*
X14228999Y-18568235D01*
X14228999Y-18568235D02*
X14219476Y-18577758D01*
X14219476Y-18577758D02*
X14200428Y-18587282D01*
X14200428Y-18587282D02*
X14171856Y-18587282D01*
X14352809Y-18587282D02*
X14333761Y-18577758D01*
X14333761Y-18577758D02*
X14324237Y-18558711D01*
X14324237Y-18558711D02*
X14324237Y-18387282D01*
X14505190Y-18577758D02*
X14486142Y-18587282D01*
X14486142Y-18587282D02*
X14448047Y-18587282D01*
X14448047Y-18587282D02*
X14428999Y-18577758D01*
X14428999Y-18577758D02*
X14419476Y-18558711D01*
X14419476Y-18558711D02*
X14419476Y-18482520D01*
X14419476Y-18482520D02*
X14428999Y-18463473D01*
X14428999Y-18463473D02*
X14448047Y-18453949D01*
X14448047Y-18453949D02*
X14486142Y-18453949D01*
X14486142Y-18453949D02*
X14505190Y-18463473D01*
X14505190Y-18463473D02*
X14514714Y-18482520D01*
X14514714Y-18482520D02*
X14514714Y-18501568D01*
X14514714Y-18501568D02*
X14419476Y-18520616D01*
X14590904Y-18577758D02*
X14609952Y-18587282D01*
X14609952Y-18587282D02*
X14648047Y-18587282D01*
X14648047Y-18587282D02*
X14667095Y-18577758D01*
X14667095Y-18577758D02*
X14676618Y-18558711D01*
X14676618Y-18558711D02*
X14676618Y-18549187D01*
X14676618Y-18549187D02*
X14667095Y-18530139D01*
X14667095Y-18530139D02*
X14648047Y-18520616D01*
X14648047Y-18520616D02*
X14619476Y-18520616D01*
X14619476Y-18520616D02*
X14600428Y-18511092D01*
X14600428Y-18511092D02*
X14590904Y-18492044D01*
X14590904Y-18492044D02*
X14590904Y-18482520D01*
X14590904Y-18482520D02*
X14600428Y-18463473D01*
X14600428Y-18463473D02*
X14619476Y-18453949D01*
X14619476Y-18453949D02*
X14648047Y-18453949D01*
X14648047Y-18453949D02*
X14667095Y-18463473D01*
X14743285Y-18663473D02*
X14752809Y-18653949D01*
X14752809Y-18653949D02*
X14771857Y-18625377D01*
X14771857Y-18625377D02*
X14781380Y-18606330D01*
X14781380Y-18606330D02*
X14790904Y-18577758D01*
X14790904Y-18577758D02*
X14800428Y-18530139D01*
X14800428Y-18530139D02*
X14800428Y-18492044D01*
X14800428Y-18492044D02*
X14790904Y-18444425D01*
X14790904Y-18444425D02*
X14781380Y-18415854D01*
X14781380Y-18415854D02*
X14771857Y-18396806D01*
X14771857Y-18396806D02*
X14752809Y-18368235D01*
X14752809Y-18368235D02*
X14743285Y-18358711D01*
M02*
