M48
; DRILL file {KiCad 8.0.5-1.fc40} date 2024-10-14T16:03:28+1100
; FORMAT={-:-/ absolute / inch / decimal}
; #@! TF.CreationDate,2024-10-14T16:03:28+11:00
; #@! TF.GenerationSoftware,Kicad,Pcbnew,8.0.5-1.fc40
; #@! TF.FileFunction,Plated,1,2,PTH
FMAT,2
INCH
; #@! TA.AperFunction,Plated,PTH,ViaDrill
T1C0.0157
; #@! TA.AperFunction,Plated,PTH,ComponentDrill
T2C0.0295
; #@! TA.AperFunction,Plated,PTH,ComponentDrill
T3C0.0315
; #@! TA.AperFunction,Plated,PTH,ComponentDrill
T4C0.0429
; #@! TA.AperFunction,Plated,PTH,ComponentDrill
T5C0.0430
; #@! TA.AperFunction,Plated,PTH,ComponentDrill
T6C0.0500
; #@! TA.AperFunction,Plated,PTH,ComponentDrill
T7C0.0866
%
G90
G05
T1
X6.8973Y-3.6282
X6.8979Y-3.7301
X6.8998Y-3.5273
X7.9331Y-3.6417
X7.9803Y-3.7417
X8.0481Y-3.8417
T2
X8.2768Y-4.9722
X8.2768Y-4.8935
T3
X8.1912Y-5.2242
X8.1912Y-5.1257
X8.1912Y-5.3226
X8.3172Y-5.3226
X8.3172Y-5.2242
X8.3172Y-5.1257
T4
X7.1563Y-3.5282
X7.1563Y-3.7282
X7.3563Y-3.5282
X7.3563Y-3.7282
T5
X7.6786Y-4.5417
X7.6786Y-4.0417
X7.6786Y-4.4417
X7.6786Y-3.7417
X7.6786Y-3.9417
X7.6786Y-4.1417
X7.6786Y-4.2417
X7.6786Y-4.3417
X7.6786Y-4.6417
X7.6786Y-3.8417
X7.6786Y-4.7417
X7.6786Y-3.6417
X8.2786Y-4.7417
X8.2786Y-3.6417
X8.2786Y-4.5417
X8.2786Y-3.7417
X8.2786Y-4.0417
X8.2786Y-4.1417
X8.2786Y-4.2417
X8.2786Y-4.4417
X8.2786Y-4.6417
X8.2786Y-3.9417
X8.2786Y-4.3417
X8.2786Y-3.8417
T6
X4.0871Y-5.1656
X4.2705Y-5.0563
X4.477Y-5.1108
X4.7822Y-3.6942
X4.8183Y-4.3822
X4.8543Y-5.0702
X4.9745Y-3.6013
X5.0105Y-4.2893
X5.0466Y-4.9774
X5.1754Y-3.6736
X5.2114Y-4.3616
X5.2475Y-5.0496
X5.5967Y-4.1602
X5.5967Y-3.4712
X5.5967Y-4.8492
X5.7935Y-4.0775
X5.7935Y-3.3885
X5.7935Y-4.7665
X5.9904Y-4.1602
X5.9904Y-3.4712
X5.9904Y-4.8492
X6.325Y-4.3324
X6.325Y-5.0214
X6.325Y-3.6435
X6.5219Y-4.2498
X6.5219Y-4.9387
X6.5219Y-3.5608
X6.7187Y-4.3324
X6.7187Y-5.0214
X6.7187Y-3.6435
X7.0534Y-3.9879
X7.0534Y-4.6769
X7.2502Y-3.9053
X7.2502Y-4.5942
X7.4471Y-3.9879
X7.4471Y-4.6769
X7.7719Y-5.7072
X7.9852Y-5.6968
X8.1419Y-5.8419
T7
X4.7786Y-5.691
X5.3975Y-3.794
X5.3986Y-4.7166
X6.1354Y-5.4796
X6.1616Y-3.9798
X6.8984Y-4.7428
X7.5234Y-3.6259
X8.2148Y-5.5155
M30
