%TF.GenerationSoftware,KiCad,Pcbnew,8.0.5-1.fc40*%
%TF.CreationDate,2024-10-14T16:03:34+11:00*%
%TF.ProjectId,pueo,7075656f-2e6b-4696-9361-645f70636258,0.1*%
%TF.SameCoordinates,Original*%
%TF.FileFunction,Legend,Top*%
%TF.FilePolarity,Positive*%
%FSLAX46Y46*%
G04 Gerber Fmt 4.6, Leading zero omitted, Abs format (unit mm)*
G04 Created by KiCad (PCBNEW 8.0.5-1.fc40) date 2024-10-14 16:03:34*
%MOMM*%
%LPD*%
G01*
G04 APERTURE LIST*
%ADD10C,0.150000*%
%ADD11C,0.100000*%
%ADD12C,0.120000*%
%ADD13C,0.200000*%
%ADD14C,0.010000*%
G04 APERTURE END LIST*
D10*
X208625972Y-99188632D02*
X207825972Y-99188632D01*
X208587876Y-99188632D02*
X208625972Y-99264822D01*
X208625972Y-99264822D02*
X208625972Y-99417203D01*
X208625972Y-99417203D02*
X208587876Y-99493394D01*
X208587876Y-99493394D02*
X208549781Y-99531489D01*
X208549781Y-99531489D02*
X208473591Y-99569584D01*
X208473591Y-99569584D02*
X208245019Y-99569584D01*
X208245019Y-99569584D02*
X208168829Y-99531489D01*
X208168829Y-99531489D02*
X208130734Y-99493394D01*
X208130734Y-99493394D02*
X208092638Y-99417203D01*
X208092638Y-99417203D02*
X208092638Y-99264822D01*
X208092638Y-99264822D02*
X208130734Y-99188632D01*
X208625972Y-100255299D02*
X208092638Y-100255299D01*
X208625972Y-99912442D02*
X208206924Y-99912442D01*
X208206924Y-99912442D02*
X208130734Y-99950537D01*
X208130734Y-99950537D02*
X208092638Y-100026727D01*
X208092638Y-100026727D02*
X208092638Y-100141013D01*
X208092638Y-100141013D02*
X208130734Y-100217204D01*
X208130734Y-100217204D02*
X208168829Y-100255299D01*
X208130734Y-100941014D02*
X208092638Y-100864823D01*
X208092638Y-100864823D02*
X208092638Y-100712442D01*
X208092638Y-100712442D02*
X208130734Y-100636252D01*
X208130734Y-100636252D02*
X208206924Y-100598156D01*
X208206924Y-100598156D02*
X208511686Y-100598156D01*
X208511686Y-100598156D02*
X208587876Y-100636252D01*
X208587876Y-100636252D02*
X208625972Y-100712442D01*
X208625972Y-100712442D02*
X208625972Y-100864823D01*
X208625972Y-100864823D02*
X208587876Y-100941014D01*
X208587876Y-100941014D02*
X208511686Y-100979109D01*
X208511686Y-100979109D02*
X208435495Y-100979109D01*
X208435495Y-100979109D02*
X208359305Y-100598156D01*
X208092638Y-101436251D02*
X208130734Y-101360061D01*
X208130734Y-101360061D02*
X208168829Y-101321966D01*
X208168829Y-101321966D02*
X208245019Y-101283870D01*
X208245019Y-101283870D02*
X208473591Y-101283870D01*
X208473591Y-101283870D02*
X208549781Y-101321966D01*
X208549781Y-101321966D02*
X208587876Y-101360061D01*
X208587876Y-101360061D02*
X208625972Y-101436251D01*
X208625972Y-101436251D02*
X208625972Y-101550537D01*
X208625972Y-101550537D02*
X208587876Y-101626728D01*
X208587876Y-101626728D02*
X208549781Y-101664823D01*
X208549781Y-101664823D02*
X208473591Y-101702918D01*
X208473591Y-101702918D02*
X208245019Y-101702918D01*
X208245019Y-101702918D02*
X208168829Y-101664823D01*
X208168829Y-101664823D02*
X208130734Y-101626728D01*
X208130734Y-101626728D02*
X208092638Y-101550537D01*
X208092638Y-101550537D02*
X208092638Y-101436251D01*
X208625972Y-102579109D02*
X208092638Y-102769585D01*
X208092638Y-102769585D02*
X208625972Y-102960062D01*
X208892638Y-103417205D02*
X208892638Y-103493395D01*
X208892638Y-103493395D02*
X208854543Y-103569586D01*
X208854543Y-103569586D02*
X208816448Y-103607681D01*
X208816448Y-103607681D02*
X208740257Y-103645776D01*
X208740257Y-103645776D02*
X208587876Y-103683871D01*
X208587876Y-103683871D02*
X208397400Y-103683871D01*
X208397400Y-103683871D02*
X208245019Y-103645776D01*
X208245019Y-103645776D02*
X208168829Y-103607681D01*
X208168829Y-103607681D02*
X208130734Y-103569586D01*
X208130734Y-103569586D02*
X208092638Y-103493395D01*
X208092638Y-103493395D02*
X208092638Y-103417205D01*
X208092638Y-103417205D02*
X208130734Y-103341014D01*
X208130734Y-103341014D02*
X208168829Y-103302919D01*
X208168829Y-103302919D02*
X208245019Y-103264824D01*
X208245019Y-103264824D02*
X208397400Y-103226728D01*
X208397400Y-103226728D02*
X208587876Y-103226728D01*
X208587876Y-103226728D02*
X208740257Y-103264824D01*
X208740257Y-103264824D02*
X208816448Y-103302919D01*
X208816448Y-103302919D02*
X208854543Y-103341014D01*
X208854543Y-103341014D02*
X208892638Y-103417205D01*
X208168829Y-104026729D02*
X208130734Y-104064824D01*
X208130734Y-104064824D02*
X208092638Y-104026729D01*
X208092638Y-104026729D02*
X208130734Y-103988633D01*
X208130734Y-103988633D02*
X208168829Y-104026729D01*
X208168829Y-104026729D02*
X208092638Y-104026729D01*
X208816448Y-104369585D02*
X208854543Y-104407681D01*
X208854543Y-104407681D02*
X208892638Y-104483871D01*
X208892638Y-104483871D02*
X208892638Y-104674347D01*
X208892638Y-104674347D02*
X208854543Y-104750538D01*
X208854543Y-104750538D02*
X208816448Y-104788633D01*
X208816448Y-104788633D02*
X208740257Y-104826728D01*
X208740257Y-104826728D02*
X208664067Y-104826728D01*
X208664067Y-104826728D02*
X208549781Y-104788633D01*
X208549781Y-104788633D02*
X208092638Y-104331490D01*
X208092638Y-104331490D02*
X208092638Y-104826728D01*
X208092638Y-105779110D02*
X208892638Y-105779110D01*
X208587876Y-105779110D02*
X208625972Y-105855300D01*
X208625972Y-105855300D02*
X208625972Y-106007681D01*
X208625972Y-106007681D02*
X208587876Y-106083872D01*
X208587876Y-106083872D02*
X208549781Y-106121967D01*
X208549781Y-106121967D02*
X208473591Y-106160062D01*
X208473591Y-106160062D02*
X208245019Y-106160062D01*
X208245019Y-106160062D02*
X208168829Y-106121967D01*
X208168829Y-106121967D02*
X208130734Y-106083872D01*
X208130734Y-106083872D02*
X208092638Y-106007681D01*
X208092638Y-106007681D02*
X208092638Y-105855300D01*
X208092638Y-105855300D02*
X208130734Y-105779110D01*
X208625972Y-106426729D02*
X208092638Y-106617205D01*
X208625972Y-106807682D02*
X208092638Y-106617205D01*
X208092638Y-106617205D02*
X207902162Y-106541015D01*
X207902162Y-106541015D02*
X207864067Y-106502920D01*
X207864067Y-106502920D02*
X207825972Y-106426729D01*
X208092638Y-107721968D02*
X208625972Y-107721968D01*
X208473591Y-107721968D02*
X208549781Y-107760063D01*
X208549781Y-107760063D02*
X208587876Y-107798158D01*
X208587876Y-107798158D02*
X208625972Y-107874349D01*
X208625972Y-107874349D02*
X208625972Y-107950539D01*
X208130734Y-108521968D02*
X208092638Y-108445777D01*
X208092638Y-108445777D02*
X208092638Y-108293396D01*
X208092638Y-108293396D02*
X208130734Y-108217206D01*
X208130734Y-108217206D02*
X208206924Y-108179110D01*
X208206924Y-108179110D02*
X208511686Y-108179110D01*
X208511686Y-108179110D02*
X208587876Y-108217206D01*
X208587876Y-108217206D02*
X208625972Y-108293396D01*
X208625972Y-108293396D02*
X208625972Y-108445777D01*
X208625972Y-108445777D02*
X208587876Y-108521968D01*
X208587876Y-108521968D02*
X208511686Y-108560063D01*
X208511686Y-108560063D02*
X208435495Y-108560063D01*
X208435495Y-108560063D02*
X208359305Y-108179110D01*
X208130734Y-109207682D02*
X208092638Y-109131491D01*
X208092638Y-109131491D02*
X208092638Y-108979110D01*
X208092638Y-108979110D02*
X208130734Y-108902920D01*
X208130734Y-108902920D02*
X208206924Y-108864824D01*
X208206924Y-108864824D02*
X208511686Y-108864824D01*
X208511686Y-108864824D02*
X208587876Y-108902920D01*
X208587876Y-108902920D02*
X208625972Y-108979110D01*
X208625972Y-108979110D02*
X208625972Y-109131491D01*
X208625972Y-109131491D02*
X208587876Y-109207682D01*
X208587876Y-109207682D02*
X208511686Y-109245777D01*
X208511686Y-109245777D02*
X208435495Y-109245777D01*
X208435495Y-109245777D02*
X208359305Y-108864824D01*
X208625972Y-109512443D02*
X208092638Y-109702919D01*
X208092638Y-109702919D02*
X208625972Y-109893396D01*
X208130734Y-110502920D02*
X208092638Y-110426729D01*
X208092638Y-110426729D02*
X208092638Y-110274348D01*
X208092638Y-110274348D02*
X208130734Y-110198158D01*
X208130734Y-110198158D02*
X208206924Y-110160062D01*
X208206924Y-110160062D02*
X208511686Y-110160062D01*
X208511686Y-110160062D02*
X208587876Y-110198158D01*
X208587876Y-110198158D02*
X208625972Y-110274348D01*
X208625972Y-110274348D02*
X208625972Y-110426729D01*
X208625972Y-110426729D02*
X208587876Y-110502920D01*
X208587876Y-110502920D02*
X208511686Y-110541015D01*
X208511686Y-110541015D02*
X208435495Y-110541015D01*
X208435495Y-110541015D02*
X208359305Y-110160062D01*
X200642940Y-92861176D02*
X200376273Y-92480223D01*
X200185797Y-92861176D02*
X200185797Y-92061176D01*
X200185797Y-92061176D02*
X200490559Y-92061176D01*
X200490559Y-92061176D02*
X200566749Y-92099271D01*
X200566749Y-92099271D02*
X200604844Y-92137366D01*
X200604844Y-92137366D02*
X200642940Y-92213557D01*
X200642940Y-92213557D02*
X200642940Y-92327842D01*
X200642940Y-92327842D02*
X200604844Y-92404033D01*
X200604844Y-92404033D02*
X200566749Y-92442128D01*
X200566749Y-92442128D02*
X200490559Y-92480223D01*
X200490559Y-92480223D02*
X200185797Y-92480223D01*
X200947701Y-92632604D02*
X201328654Y-92632604D01*
X200871511Y-92861176D02*
X201138178Y-92061176D01*
X201138178Y-92061176D02*
X201404844Y-92861176D01*
X201595320Y-92061176D02*
X201785796Y-92861176D01*
X201785796Y-92861176D02*
X201938177Y-92289747D01*
X201938177Y-92289747D02*
X202090558Y-92861176D01*
X202090558Y-92861176D02*
X202281035Y-92061176D01*
X200642937Y-97941178D02*
X200376270Y-97560225D01*
X200185794Y-97941178D02*
X200185794Y-97141178D01*
X200185794Y-97141178D02*
X200490556Y-97141178D01*
X200490556Y-97141178D02*
X200566746Y-97179273D01*
X200566746Y-97179273D02*
X200604841Y-97217368D01*
X200604841Y-97217368D02*
X200642937Y-97293559D01*
X200642937Y-97293559D02*
X200642937Y-97407844D01*
X200642937Y-97407844D02*
X200604841Y-97484035D01*
X200604841Y-97484035D02*
X200566746Y-97522130D01*
X200566746Y-97522130D02*
X200490556Y-97560225D01*
X200490556Y-97560225D02*
X200185794Y-97560225D01*
X200947698Y-97903083D02*
X201061984Y-97941178D01*
X201061984Y-97941178D02*
X201252460Y-97941178D01*
X201252460Y-97941178D02*
X201328651Y-97903083D01*
X201328651Y-97903083D02*
X201366746Y-97864987D01*
X201366746Y-97864987D02*
X201404841Y-97788797D01*
X201404841Y-97788797D02*
X201404841Y-97712606D01*
X201404841Y-97712606D02*
X201366746Y-97636416D01*
X201366746Y-97636416D02*
X201328651Y-97598321D01*
X201328651Y-97598321D02*
X201252460Y-97560225D01*
X201252460Y-97560225D02*
X201100079Y-97522130D01*
X201100079Y-97522130D02*
X201023889Y-97484035D01*
X201023889Y-97484035D02*
X200985794Y-97445940D01*
X200985794Y-97445940D02*
X200947698Y-97369749D01*
X200947698Y-97369749D02*
X200947698Y-97293559D01*
X200947698Y-97293559D02*
X200985794Y-97217368D01*
X200985794Y-97217368D02*
X201023889Y-97179273D01*
X201023889Y-97179273D02*
X201100079Y-97141178D01*
X201100079Y-97141178D02*
X201290556Y-97141178D01*
X201290556Y-97141178D02*
X201404841Y-97179273D01*
X201633413Y-97141178D02*
X202090556Y-97141178D01*
X201861984Y-97941178D02*
X201861984Y-97141178D01*
X200585792Y-94639271D02*
X200509602Y-94601176D01*
X200509602Y-94601176D02*
X200395316Y-94601176D01*
X200395316Y-94601176D02*
X200281030Y-94639271D01*
X200281030Y-94639271D02*
X200204840Y-94715461D01*
X200204840Y-94715461D02*
X200166745Y-94791652D01*
X200166745Y-94791652D02*
X200128649Y-94944033D01*
X200128649Y-94944033D02*
X200128649Y-95058319D01*
X200128649Y-95058319D02*
X200166745Y-95210700D01*
X200166745Y-95210700D02*
X200204840Y-95286890D01*
X200204840Y-95286890D02*
X200281030Y-95363081D01*
X200281030Y-95363081D02*
X200395316Y-95401176D01*
X200395316Y-95401176D02*
X200471507Y-95401176D01*
X200471507Y-95401176D02*
X200585792Y-95363081D01*
X200585792Y-95363081D02*
X200623888Y-95324985D01*
X200623888Y-95324985D02*
X200623888Y-95058319D01*
X200623888Y-95058319D02*
X200471507Y-95058319D01*
X200966745Y-95401176D02*
X200966745Y-94601176D01*
X200966745Y-94601176D02*
X201423888Y-95401176D01*
X201423888Y-95401176D02*
X201423888Y-94601176D01*
X201804840Y-95401176D02*
X201804840Y-94601176D01*
X201804840Y-94601176D02*
X201995316Y-94601176D01*
X201995316Y-94601176D02*
X202109602Y-94639271D01*
X202109602Y-94639271D02*
X202185792Y-94715461D01*
X202185792Y-94715461D02*
X202223887Y-94791652D01*
X202223887Y-94791652D02*
X202261983Y-94944033D01*
X202261983Y-94944033D02*
X202261983Y-95058319D01*
X202261983Y-95058319D02*
X202223887Y-95210700D01*
X202223887Y-95210700D02*
X202185792Y-95286890D01*
X202185792Y-95286890D02*
X202109602Y-95363081D01*
X202109602Y-95363081D02*
X201995316Y-95401176D01*
X201995316Y-95401176D02*
X201804840Y-95401176D01*
D11*
X155659032Y-128984268D02*
X155664351Y-128679552D01*
X155394401Y-128865345D02*
X156080011Y-128877313D01*
X156080011Y-128877313D02*
X156156854Y-128840553D01*
X156156854Y-128840553D02*
X156196273Y-128765039D01*
X156196273Y-128765039D02*
X156197603Y-128688860D01*
X156169487Y-128116854D02*
X156206246Y-128193697D01*
X156206246Y-128193697D02*
X156203587Y-128346055D01*
X156203587Y-128346055D02*
X156164168Y-128421569D01*
X156164168Y-128421569D02*
X156087324Y-128458329D01*
X156087324Y-128458329D02*
X155782608Y-128453010D01*
X155782608Y-128453010D02*
X155707094Y-128413591D01*
X155707094Y-128413591D02*
X155670335Y-128336747D01*
X155670335Y-128336747D02*
X155672994Y-128184389D01*
X155672994Y-128184389D02*
X155712413Y-128108875D01*
X155712413Y-128108875D02*
X155789257Y-128072116D01*
X155789257Y-128072116D02*
X155865436Y-128073445D01*
X155865436Y-128073445D02*
X155934966Y-128455669D01*
X155680972Y-127727317D02*
X156214225Y-127736624D01*
X155757151Y-127728646D02*
X155719727Y-127689892D01*
X155719727Y-127689892D02*
X155682967Y-127613048D01*
X155682967Y-127613048D02*
X155684962Y-127498780D01*
X155684962Y-127498780D02*
X155724381Y-127423266D01*
X155724381Y-127423266D02*
X155801224Y-127386506D01*
X155801224Y-127386506D02*
X156220208Y-127393820D01*
X155691610Y-127117885D02*
X155696929Y-126813170D01*
X155426979Y-126998963D02*
X156112588Y-127010930D01*
X156112588Y-127010930D02*
X156189432Y-126974170D01*
X156189432Y-126974170D02*
X156228851Y-126898656D01*
X156228851Y-126898656D02*
X156230181Y-126822478D01*
X156234835Y-126555851D02*
X155701583Y-126546543D01*
X155434957Y-126541889D02*
X155472381Y-126580644D01*
X155472381Y-126580644D02*
X155511136Y-126543219D01*
X155511136Y-126543219D02*
X155473711Y-126504465D01*
X155473711Y-126504465D02*
X155434957Y-126541889D01*
X155434957Y-126541889D02*
X155511136Y-126543219D01*
X155708231Y-126165649D02*
X156241484Y-126174957D01*
X155784410Y-126166979D02*
X155746986Y-126128225D01*
X155746986Y-126128225D02*
X155710226Y-126051381D01*
X155710226Y-126051381D02*
X155712221Y-125937113D01*
X155712221Y-125937113D02*
X155751640Y-125861599D01*
X155751640Y-125861599D02*
X155828483Y-125824839D01*
X155828483Y-125824839D02*
X156247467Y-125832152D01*
X155726847Y-125099145D02*
X156374368Y-125110447D01*
X156374368Y-125110447D02*
X156449882Y-125149866D01*
X156449882Y-125149866D02*
X156487306Y-125188621D01*
X156487306Y-125188621D02*
X156524066Y-125265464D01*
X156524066Y-125265464D02*
X156522071Y-125379733D01*
X156522071Y-125379733D02*
X156482652Y-125455247D01*
X156222010Y-125107788D02*
X156258770Y-125184632D01*
X156258770Y-125184632D02*
X156256110Y-125336989D01*
X156256110Y-125336989D02*
X156216691Y-125412503D01*
X156216691Y-125412503D02*
X156177937Y-125449928D01*
X156177937Y-125449928D02*
X156101093Y-125486688D01*
X156101093Y-125486688D02*
X155872557Y-125482698D01*
X155872557Y-125482698D02*
X155797043Y-125443279D01*
X155797043Y-125443279D02*
X155759618Y-125404525D01*
X155759618Y-125404525D02*
X155722858Y-125327681D01*
X155722858Y-125327681D02*
X155725518Y-125175324D01*
X155725518Y-125175324D02*
X155764937Y-125099810D01*
X155834472Y-115294741D02*
X156634350Y-115308703D01*
X155872562Y-115295406D02*
X155835802Y-115218562D01*
X155835802Y-115218562D02*
X155838461Y-115066204D01*
X155838461Y-115066204D02*
X155877880Y-114990690D01*
X155877880Y-114990690D02*
X155916635Y-114953266D01*
X155916635Y-114953266D02*
X155993478Y-114916506D01*
X155993478Y-114916506D02*
X156222015Y-114920495D01*
X156222015Y-114920495D02*
X156297529Y-114959914D01*
X156297529Y-114959914D02*
X156334954Y-114998669D01*
X156334954Y-114998669D02*
X156371713Y-115075512D01*
X156371713Y-115075512D02*
X156369054Y-115227870D01*
X156369054Y-115227870D02*
X156329635Y-115303384D01*
X155853088Y-114228236D02*
X156386340Y-114237544D01*
X155847104Y-114571041D02*
X156266088Y-114578355D01*
X156266088Y-114578355D02*
X156342932Y-114541595D01*
X156342932Y-114541595D02*
X156382351Y-114466081D01*
X156382351Y-114466081D02*
X156384346Y-114351812D01*
X156384346Y-114351812D02*
X156347586Y-114274969D01*
X156347586Y-114274969D02*
X156310161Y-114236214D01*
X156360883Y-113513180D02*
X156397643Y-113590023D01*
X156397643Y-113590023D02*
X156394983Y-113742381D01*
X156394983Y-113742381D02*
X156355564Y-113817895D01*
X156355564Y-113817895D02*
X156316810Y-113855320D01*
X156316810Y-113855320D02*
X156239966Y-113892079D01*
X156239966Y-113892079D02*
X156011430Y-113888090D01*
X156011430Y-113888090D02*
X155935915Y-113848671D01*
X155935915Y-113848671D02*
X155898491Y-113809917D01*
X155898491Y-113809917D02*
X155861731Y-113733073D01*
X155861731Y-113733073D02*
X155864391Y-113580715D01*
X155864391Y-113580715D02*
X155903810Y-113505201D01*
X156404956Y-113171040D02*
X155605078Y-113157078D01*
X156101570Y-113089542D02*
X156410275Y-112866324D01*
X155877023Y-112857016D02*
X156176419Y-113167051D01*
D12*
%TO.C,REF\u002A\u002A*%
X177357097Y-94009024D02*
X177811225Y-94009024D01*
X177357097Y-95479024D02*
X177811225Y-95479024D01*
%TO.C,MCU1*%
X196656028Y-94718884D02*
X196656030Y-94038882D01*
X196656030Y-93498882D02*
X196656032Y-92818881D01*
X196656030Y-94038882D02*
X199456029Y-94038883D01*
X196656031Y-92168881D02*
X196656032Y-91498878D01*
X196656031Y-96038880D02*
X196656031Y-95368882D01*
X196656031Y-96578881D02*
X199456029Y-96578883D01*
X196656031Y-97243881D02*
X196656031Y-96578881D01*
X196656031Y-98578881D02*
X196656031Y-97893882D01*
X196656032Y-91498878D02*
X199456031Y-91498881D01*
X199456029Y-94038883D02*
X199456032Y-96038882D01*
X199456029Y-96578883D02*
X199456030Y-98578881D01*
X199456030Y-93498880D02*
X196656030Y-93498882D01*
X199456030Y-98578881D02*
X196656031Y-98578881D01*
X199456031Y-91498881D02*
X199456030Y-93498880D01*
X199456032Y-96038882D02*
X196656031Y-96038880D01*
%TO.C,REF\u002A\u002A*%
X177357098Y-88859022D02*
X177811226Y-88859022D01*
X177357098Y-90329022D02*
X177811226Y-90329022D01*
X177357098Y-91422474D02*
X177811226Y-91422474D01*
X177357098Y-92892474D02*
X177811226Y-92892474D01*
D13*
X135905474Y-116922181D02*
G75*
G02*
X137011620Y-112790309I20266975J-3211683D01*
G01*
X136767005Y-126804269D02*
G75*
G02*
X135805734Y-122636311I19405457J6670381D01*
G01*
X149502118Y-100728375D02*
G75*
G02*
X153670077Y-99767104I6670428J-19405665D01*
G01*
X152960811Y-140400914D02*
G75*
G02*
X148828941Y-139294769I3211698J20267035D01*
G01*
X155231663Y-109379957D02*
G75*
G02*
X156360908Y-109340523I940841J-10753843D01*
G01*
X155984110Y-130927235D02*
G75*
G02*
X154856929Y-130848415I188392J10793277D01*
G01*
X156360908Y-109340523D02*
G75*
G02*
X157488089Y-109419344I-188397J-10793256D01*
G01*
X157113355Y-130887801D02*
G75*
G02*
X155984110Y-130927235I-940820J10753111D01*
G01*
X159384207Y-99866844D02*
G75*
G02*
X163516078Y-100972989I-3211698J-20267035D01*
G01*
X162842899Y-139539383D02*
G75*
G02*
X158674941Y-140500654I-6670471J19405846D01*
G01*
X175578014Y-113463491D02*
G75*
G02*
X176539285Y-117631447I-19405915J-6670484D01*
G01*
X176439544Y-123345577D02*
G75*
G02*
X175333399Y-127477447I-20266866J3211655D01*
G01*
D14*
X154328749Y-132551901D02*
X154300239Y-134185210D01*
X155117072Y-133396646D01*
X155405342Y-133404772D01*
X155693612Y-133412898D01*
X154831506Y-134258117D01*
X154711509Y-134375764D01*
X154594694Y-134490292D01*
X154482299Y-134600487D01*
X154375565Y-134705133D01*
X154275728Y-134803017D01*
X154184031Y-134892923D01*
X154101711Y-134973636D01*
X154030006Y-135043940D01*
X153970157Y-135102622D01*
X153923403Y-135148467D01*
X153890982Y-135180258D01*
X153876959Y-135194013D01*
X153784518Y-135284689D01*
X153832364Y-132543239D01*
X154328749Y-132551901D01*
G36*
X154328749Y-132551901D02*
G01*
X154300239Y-134185210D01*
X155117072Y-133396646D01*
X155405342Y-133404772D01*
X155693612Y-133412898D01*
X154831506Y-134258117D01*
X154711509Y-134375764D01*
X154594694Y-134490292D01*
X154482299Y-134600487D01*
X154375565Y-134705133D01*
X154275728Y-134803017D01*
X154184031Y-134892923D01*
X154101711Y-134973636D01*
X154030006Y-135043940D01*
X153970157Y-135102622D01*
X153923403Y-135148467D01*
X153890982Y-135180258D01*
X153876959Y-135194013D01*
X153784518Y-135284689D01*
X153832364Y-132543239D01*
X154328749Y-132551901D01*
G37*
X155099801Y-134605760D02*
X155122102Y-134629016D01*
X155155956Y-134665143D01*
X155199413Y-134712000D01*
X155250521Y-134767447D01*
X155307328Y-134829342D01*
X155367881Y-134895544D01*
X155430229Y-134963912D01*
X155492421Y-135032306D01*
X155552503Y-135098584D01*
X155608526Y-135160606D01*
X155658534Y-135216230D01*
X155700579Y-135263316D01*
X155732707Y-135299722D01*
X155752966Y-135323308D01*
X155755212Y-135326039D01*
X155782921Y-135360163D01*
X155163002Y-135349346D01*
X154992751Y-135170276D01*
X154939973Y-135114602D01*
X154890595Y-135062219D01*
X154847575Y-135016281D01*
X154813859Y-134979941D01*
X154792399Y-134956354D01*
X154789283Y-134952807D01*
X154756066Y-134914407D01*
X154919893Y-134755898D01*
X154970458Y-134707319D01*
X155015435Y-134664771D01*
X155052182Y-134630695D01*
X155078071Y-134607523D01*
X155090475Y-134597690D01*
X155091009Y-134597516D01*
X155099801Y-134605760D01*
G36*
X155099801Y-134605760D02*
G01*
X155122102Y-134629016D01*
X155155956Y-134665143D01*
X155199413Y-134712000D01*
X155250521Y-134767447D01*
X155307328Y-134829342D01*
X155367881Y-134895544D01*
X155430229Y-134963912D01*
X155492421Y-135032306D01*
X155552503Y-135098584D01*
X155608526Y-135160606D01*
X155658534Y-135216230D01*
X155700579Y-135263316D01*
X155732707Y-135299722D01*
X155752966Y-135323308D01*
X155755212Y-135326039D01*
X155782921Y-135360163D01*
X155163002Y-135349346D01*
X154992751Y-135170276D01*
X154939973Y-135114602D01*
X154890595Y-135062219D01*
X154847575Y-135016281D01*
X154813859Y-134979941D01*
X154792399Y-134956354D01*
X154789283Y-134952807D01*
X154756066Y-134914407D01*
X154919893Y-134755898D01*
X154970458Y-134707319D01*
X155015435Y-134664771D01*
X155052182Y-134630695D01*
X155078071Y-134607523D01*
X155090475Y-134597690D01*
X155091009Y-134597516D01*
X155099801Y-134605760D01*
G37*
X156524739Y-133089648D02*
X156523105Y-133193877D01*
X156521907Y-133290622D01*
X156521139Y-133377502D01*
X156520812Y-133452169D01*
X156520932Y-133512255D01*
X156521506Y-133555395D01*
X156522540Y-133579224D01*
X156523376Y-133583269D01*
X156535917Y-133577173D01*
X156561045Y-133561266D01*
X156585488Y-133544490D01*
X156701388Y-133475778D01*
X156824443Y-133428815D01*
X156955289Y-133403418D01*
X157094581Y-133399411D01*
X157112379Y-133400390D01*
X157201886Y-133408505D01*
X157278149Y-133421775D01*
X157349448Y-133442514D01*
X157424066Y-133473038D01*
X157493337Y-133506891D01*
X157619936Y-133584418D01*
X157731234Y-133678342D01*
X157826246Y-133787006D01*
X157903991Y-133908702D01*
X157963489Y-134041750D01*
X158003757Y-134184445D01*
X158023812Y-134335096D01*
X158025807Y-134424814D01*
X158012857Y-134577089D01*
X157978982Y-134721084D01*
X157923415Y-134859371D01*
X157864303Y-134965275D01*
X157776505Y-135084054D01*
X157673077Y-135187114D01*
X157556221Y-135273409D01*
X157428131Y-135341898D01*
X157291008Y-135391535D01*
X157147047Y-135421280D01*
X156998464Y-135430087D01*
X156898298Y-135423841D01*
X156754146Y-135396455D01*
X156614407Y-135347733D01*
X156482406Y-135279440D01*
X156361470Y-135193319D01*
X156254932Y-135091117D01*
X156246693Y-135081807D01*
X156167392Y-134976287D01*
X156099773Y-134856907D01*
X156046812Y-134730100D01*
X156011488Y-134602296D01*
X156003427Y-134555707D01*
X156001309Y-134527270D01*
X155999835Y-134477165D01*
X155999350Y-134435476D01*
X156495512Y-134435476D01*
X156504379Y-134533194D01*
X156533167Y-134627730D01*
X156560870Y-134682367D01*
X156626253Y-134771804D01*
X156704485Y-134844058D01*
X156792987Y-134898114D01*
X156889180Y-134932920D01*
X156990483Y-134947484D01*
X157094316Y-134940774D01*
X157167469Y-134922760D01*
X157210740Y-134907427D01*
X157251943Y-134890783D01*
X157268244Y-134883291D01*
X157314062Y-134853082D01*
X157364183Y-134807754D01*
X157413202Y-134753147D01*
X157455708Y-134695092D01*
X157477860Y-134657139D01*
X157498810Y-134613252D01*
X157512128Y-134574872D01*
X157520216Y-134532720D01*
X157525509Y-134477502D01*
X157525878Y-134472210D01*
X157524382Y-134364923D01*
X157503238Y-134266647D01*
X157461221Y-134172462D01*
X157443954Y-134143642D01*
X157380781Y-134064623D01*
X157303062Y-134001090D01*
X157214233Y-133954033D01*
X157117735Y-133924467D01*
X157017005Y-133913387D01*
X156915495Y-133921799D01*
X156816629Y-133950703D01*
X156802519Y-133956743D01*
X156713656Y-134008149D01*
X156638487Y-134075062D01*
X156578051Y-134154365D01*
X156533385Y-134242946D01*
X156505525Y-134337687D01*
X156495512Y-134435476D01*
X155999350Y-134435476D01*
X155999249Y-134426813D01*
X155999014Y-134406803D01*
X155998832Y-134317597D01*
X155999290Y-134210960D01*
X156000387Y-134088304D01*
X156002118Y-133951043D01*
X156004483Y-133800586D01*
X156004685Y-133788854D01*
X156016670Y-133097242D01*
X156533198Y-132596154D01*
X156524739Y-133089648D01*
G36*
X156524739Y-133089648D02*
G01*
X156523105Y-133193877D01*
X156521907Y-133290622D01*
X156521139Y-133377502D01*
X156520812Y-133452169D01*
X156520932Y-133512255D01*
X156521506Y-133555395D01*
X156522540Y-133579224D01*
X156523376Y-133583269D01*
X156535917Y-133577173D01*
X156561045Y-133561266D01*
X156585488Y-133544490D01*
X156701388Y-133475778D01*
X156824443Y-133428815D01*
X156955289Y-133403418D01*
X157094581Y-133399411D01*
X157112379Y-133400390D01*
X157201886Y-133408505D01*
X157278149Y-133421775D01*
X157349448Y-133442514D01*
X157424066Y-133473038D01*
X157493337Y-133506891D01*
X157619936Y-133584418D01*
X157731234Y-133678342D01*
X157826246Y-133787006D01*
X157903991Y-133908702D01*
X157963489Y-134041750D01*
X158003757Y-134184445D01*
X158023812Y-134335096D01*
X158025807Y-134424814D01*
X158012857Y-134577089D01*
X157978982Y-134721084D01*
X157923415Y-134859371D01*
X157864303Y-134965275D01*
X157776505Y-135084054D01*
X157673077Y-135187114D01*
X157556221Y-135273409D01*
X157428131Y-135341898D01*
X157291008Y-135391535D01*
X157147047Y-135421280D01*
X156998464Y-135430087D01*
X156898298Y-135423841D01*
X156754146Y-135396455D01*
X156614407Y-135347733D01*
X156482406Y-135279440D01*
X156361470Y-135193319D01*
X156254932Y-135091117D01*
X156246693Y-135081807D01*
X156167392Y-134976287D01*
X156099773Y-134856907D01*
X156046812Y-134730100D01*
X156011488Y-134602296D01*
X156003427Y-134555707D01*
X156001309Y-134527270D01*
X155999835Y-134477165D01*
X155999350Y-134435476D01*
X156495512Y-134435476D01*
X156504379Y-134533194D01*
X156533167Y-134627730D01*
X156560870Y-134682367D01*
X156626253Y-134771804D01*
X156704485Y-134844058D01*
X156792987Y-134898114D01*
X156889180Y-134932920D01*
X156990483Y-134947484D01*
X157094316Y-134940774D01*
X157167469Y-134922760D01*
X157210740Y-134907427D01*
X157251943Y-134890783D01*
X157268244Y-134883291D01*
X157314062Y-134853082D01*
X157364183Y-134807754D01*
X157413202Y-134753147D01*
X157455708Y-134695092D01*
X157477860Y-134657139D01*
X157498810Y-134613252D01*
X157512128Y-134574872D01*
X157520216Y-134532720D01*
X157525509Y-134477502D01*
X157525878Y-134472210D01*
X157524382Y-134364923D01*
X157503238Y-134266647D01*
X157461221Y-134172462D01*
X157443954Y-134143642D01*
X157380781Y-134064623D01*
X157303062Y-134001090D01*
X157214233Y-133954033D01*
X157117735Y-133924467D01*
X157017005Y-133913387D01*
X156915495Y-133921799D01*
X156816629Y-133950703D01*
X156802519Y-133956743D01*
X156713656Y-134008149D01*
X156638487Y-134075062D01*
X156578051Y-134154365D01*
X156533385Y-134242946D01*
X156505525Y-134337687D01*
X156495512Y-134435476D01*
X155999350Y-134435476D01*
X155999249Y-134426813D01*
X155999014Y-134406803D01*
X155998832Y-134317597D01*
X155999290Y-134210960D01*
X156000387Y-134088304D01*
X156002118Y-133951043D01*
X156004483Y-133800586D01*
X156004685Y-133788854D01*
X156016670Y-133097242D01*
X156533198Y-132596154D01*
X156524739Y-133089648D01*
G37*
%TD*%
M02*
