M48
; DRILL file {KiCad 8.0.5-1.fc40} date 2024-10-14T16:03:28+1100
; FORMAT={-:-/ absolute / inch / decimal}
; #@! TF.CreationDate,2024-10-14T16:03:28+11:00
; #@! TF.GenerationSoftware,Kicad,Pcbnew,8.0.5-1.fc40
; #@! TF.FileFunction,NonPlated,1,2,NPTH
FMAT,2
INCH
; #@! TA.AperFunction,NonPlated,NPTH,ComponentDrill
T1C0.0670
; #@! TA.AperFunction,NonPlated,NPTH,ComponentDrill
T2C0.1350
%
G90
G05
T1
X4.0884Y-5.3165
X4.5173Y-5.2562
X4.7704Y-3.8446
X4.8064Y-4.5326
X4.8425Y-5.2207
X5.2028Y-3.8219
X5.2389Y-4.51
X5.275Y-5.198
X5.577Y-4.3098
X5.577Y-3.6208
X5.577Y-4.9988
X6.0101Y-4.3098
X6.0101Y-3.6208
X6.0101Y-4.9988
X6.3054Y-4.482
X6.3054Y-5.171
X6.3054Y-3.7931
X6.7384Y-4.482
X6.7384Y-5.171
X6.7384Y-3.7931
X7.0337Y-4.1376
X7.0337Y-4.8265
X7.4668Y-4.1376
X7.4668Y-4.8265
X7.7023Y-5.8411
X8.1092Y-5.9892
T2
X4.3029Y-5.2864
X4.9866Y-3.8333
X5.0227Y-4.5213
X5.0587Y-5.2093
X5.7935Y-4.3098
X5.7935Y-3.6208
X5.7935Y-4.9988
X6.5219Y-4.482
X6.5219Y-5.171
X6.5219Y-3.7931
X7.2502Y-4.1376
X7.2502Y-4.8265
X7.9057Y-5.9151
M30
