%TF.GenerationSoftware,KiCad,Pcbnew,8.0.6-1.fc41*%
%TF.CreationDate,2024-12-09T09:59:33+11:00*%
%TF.ProjectId,pueo-mx-spaced,7075656f-2d6d-4782-9d73-70616365642e,0.1*%
%TF.SameCoordinates,Original*%
%TF.FileFunction,Drillmap*%
%TF.FilePolarity,Positive*%
%FSLAX45Y45*%
G04 Gerber Fmt 4.5, Leading zero omitted, Abs format (unit mm)*
G04 Created by KiCad (PCBNEW 8.0.6-1.fc41) date 2024-12-09 09:59:33*
%MOMM*%
%LPD*%
G01*
G04 APERTURE LIST*
%ADD10C,0.150000*%
%ADD11C,0.200000*%
%ADD12C,0.170180*%
%ADD13C,0.480000*%
G04 APERTURE END LIST*
D10*
X20284162Y-5575847D02*
X14489162Y-5575847D01*
X20334162Y-11887789D02*
X20334162Y-5625847D01*
X20284162Y-5575847D02*
G75*
G02*
X20334167Y-5625847I0J-50005D01*
G01*
X20367061Y-11934773D02*
G75*
G02*
X20334164Y-11887789I17101J46982D01*
G01*
X20593719Y-12017270D02*
X20367061Y-11934773D01*
X12739162Y-5250846D02*
G75*
G02*
X12789162Y-5200844I50003J-1D01*
G01*
X12739162Y-5525847D02*
G75*
G02*
X12689162Y-5575844I-49997J-1D01*
G01*
X8784402Y-9944600D02*
X9007079Y-11529029D01*
X8826956Y-9888128D02*
X10268621Y-9685516D01*
X10311662Y-5625847D02*
G75*
G02*
X10361662Y-5575844I50003J-1D01*
G01*
X20076371Y-13584864D02*
G75*
G02*
X20012283Y-13614751I-46986J17097D01*
G01*
X14489162Y-5575847D02*
G75*
G02*
X14439165Y-5525847I4J50000D01*
G01*
X17713535Y-12292948D02*
X17574721Y-12674338D01*
X10311662Y-9636002D02*
G75*
G02*
X10268620Y-9685508I-49996J5D01*
G01*
X14389162Y-5200847D02*
X12789162Y-5200847D01*
X12689162Y-5575847D02*
X10361662Y-5575847D01*
X10311662Y-11453692D02*
X10311662Y-12175847D01*
X14439162Y-5525847D02*
X14439162Y-5250847D01*
X10254703Y-11404179D02*
G75*
G02*
X10311661Y-11453692I6962J-49509D01*
G01*
X9063551Y-11571584D02*
G75*
G02*
X9007080Y-11529029I-6955J49517D01*
G01*
X17604605Y-12738423D02*
G75*
G02*
X17574719Y-12674337I17100J46986D01*
G01*
X20076371Y-13584864D02*
X20623603Y-12081356D01*
X8784402Y-9944601D02*
G75*
G02*
X8826956Y-9888124I49513J6963D01*
G01*
X17604605Y-12738423D02*
X20012285Y-13614747D01*
X17666551Y-12225847D02*
G75*
G02*
X17713540Y-12292950I4J-50001D01*
G01*
X10361662Y-12225847D02*
X17666551Y-12225847D01*
X10311662Y-5625847D02*
X10311662Y-9636002D01*
X10361662Y-12225847D02*
G75*
G02*
X10311666Y-12175847I3J49999D01*
G01*
X20593719Y-12017270D02*
G75*
G02*
X20623604Y-12081356I-17104J-46987D01*
G01*
X9063551Y-11571584D02*
X10254703Y-11404179D01*
X14389162Y-5200847D02*
G75*
G02*
X14439165Y-5250847I3J-50000D01*
G01*
X12739162Y-5250846D02*
X12739162Y-5525847D01*
D11*
D12*
X9107731Y-10609973D02*
X9277911Y-10780153D01*
X9277911Y-10609973D02*
X9107731Y-10780153D01*
X10197025Y-10456883D02*
X10367205Y-10627063D01*
X10367205Y-10456883D02*
X10197025Y-10627063D01*
X10831076Y-6574908D02*
X11001256Y-6745088D01*
X11001256Y-6574908D02*
X10831076Y-6745088D01*
X10930515Y-8472303D02*
X11100695Y-8642483D01*
X11100695Y-8472303D02*
X10930515Y-8642483D01*
X11029953Y-10369700D02*
X11200133Y-10539880D01*
X11200133Y-10369700D02*
X11029953Y-10539880D01*
X11929569Y-6517338D02*
X12099749Y-6687518D01*
X12099749Y-6517338D02*
X11929569Y-6687518D01*
X12029007Y-8414734D02*
X12199187Y-8584914D01*
X12199187Y-8414734D02*
X12029007Y-8584914D01*
X12128445Y-10312130D02*
X12298625Y-10482310D01*
X12298625Y-10312130D02*
X12128445Y-10482310D01*
X12954072Y-7865756D02*
X13124252Y-8035936D01*
X13124252Y-7865756D02*
X12954072Y-8035936D01*
X12954072Y-9765757D02*
X13124252Y-9935937D01*
X13124252Y-9765757D02*
X12954072Y-9935937D01*
X12954072Y-5965756D02*
X13124252Y-6135936D01*
X13124252Y-5965756D02*
X12954072Y-6135936D01*
X14054071Y-7865757D02*
X14224251Y-8035937D01*
X14224251Y-7865757D02*
X14054071Y-8035937D01*
X14054071Y-9765757D02*
X14224251Y-9935937D01*
X14224251Y-9765757D02*
X14054071Y-9935937D01*
X14054072Y-5965757D02*
X14224252Y-6135937D01*
X14224252Y-5965757D02*
X14054072Y-6135937D01*
X14854072Y-10240756D02*
X15024252Y-10410936D01*
X15024252Y-10240756D02*
X14854072Y-10410936D01*
X14854072Y-6440757D02*
X15024252Y-6610937D01*
X15024252Y-6440757D02*
X14854072Y-6610937D01*
X14854072Y-8340757D02*
X15024252Y-8510937D01*
X15024252Y-8340757D02*
X14854072Y-8510937D01*
X15954072Y-10240757D02*
X16124252Y-10410937D01*
X16124252Y-10240757D02*
X15954072Y-10410937D01*
X15954072Y-6440757D02*
X16124252Y-6610937D01*
X16124252Y-6440757D02*
X15954072Y-6610937D01*
X15954072Y-8340757D02*
X16124252Y-8510937D01*
X16124252Y-8340757D02*
X15954072Y-8510937D01*
X16754072Y-9290756D02*
X16924252Y-9460936D01*
X16924252Y-9290756D02*
X16754072Y-9460936D01*
X16754072Y-7390757D02*
X16924252Y-7560937D01*
X16924252Y-7390757D02*
X16754072Y-7560937D01*
X17854072Y-9290757D02*
X18024252Y-9460937D01*
X18024252Y-9290757D02*
X17854072Y-9460937D01*
X17854072Y-7390757D02*
X18024252Y-7560937D01*
X18024252Y-7390757D02*
X17854072Y-7560937D01*
X18497241Y-12104646D02*
X18667421Y-12274826D01*
X18667421Y-12104646D02*
X18497241Y-12274826D01*
X19530903Y-12480868D02*
X19701083Y-12651048D01*
X19701083Y-12480868D02*
X19530903Y-12651048D01*
D13*
X9977468Y-10618518D02*
G75*
G02*
X9497468Y-10618518I-240000J0D01*
G01*
X9497468Y-10618518D02*
G75*
G02*
X9977468Y-10618518I240000J0D01*
G01*
X11705413Y-6631213D02*
G75*
G02*
X11225413Y-6631213I-240000J0D01*
G01*
X11225413Y-6631213D02*
G75*
G02*
X11705413Y-6631213I240000J0D01*
G01*
X11804851Y-8528608D02*
G75*
G02*
X11324851Y-8528608I-240000J0D01*
G01*
X11324851Y-8528608D02*
G75*
G02*
X11804851Y-8528608I240000J0D01*
G01*
X11904289Y-10426005D02*
G75*
G02*
X11424289Y-10426005I-240000J0D01*
G01*
X11424289Y-10426005D02*
G75*
G02*
X11904289Y-10426005I240000J0D01*
G01*
X13829161Y-7950847D02*
G75*
G02*
X13349161Y-7950847I-240000J0D01*
G01*
X13349161Y-7950847D02*
G75*
G02*
X13829161Y-7950847I240000J0D01*
G01*
X13829162Y-9850847D02*
G75*
G02*
X13349162Y-9850847I-240000J0D01*
G01*
X13349162Y-9850847D02*
G75*
G02*
X13829162Y-9850847I240000J0D01*
G01*
X13829162Y-6050847D02*
G75*
G02*
X13349162Y-6050847I-240000J0D01*
G01*
X13349162Y-6050847D02*
G75*
G02*
X13829162Y-6050847I240000J0D01*
G01*
X15729162Y-10325847D02*
G75*
G02*
X15249162Y-10325847I-240000J0D01*
G01*
X15249162Y-10325847D02*
G75*
G02*
X15729162Y-10325847I240000J0D01*
G01*
X15729162Y-6525847D02*
G75*
G02*
X15249162Y-6525847I-240000J0D01*
G01*
X15249162Y-6525847D02*
G75*
G02*
X15729162Y-6525847I240000J0D01*
G01*
X15729162Y-8425847D02*
G75*
G02*
X15249162Y-8425847I-240000J0D01*
G01*
X15249162Y-8425847D02*
G75*
G02*
X15729162Y-8425847I240000J0D01*
G01*
X17629162Y-9375847D02*
G75*
G02*
X17149162Y-9375847I-240000J0D01*
G01*
X17149162Y-9375847D02*
G75*
G02*
X17629162Y-9375847I240000J0D01*
G01*
X17629162Y-7475847D02*
G75*
G02*
X17149162Y-7475847I-240000J0D01*
G01*
X17149162Y-7475847D02*
G75*
G02*
X17629162Y-7475847I240000J0D01*
G01*
X19339162Y-12377847D02*
G75*
G02*
X18859162Y-12377847I-240000J0D01*
G01*
X18859162Y-12377847D02*
G75*
G02*
X19339162Y-12377847I240000J0D01*
G01*
D11*
X9037191Y-13936750D02*
X9037191Y-13736750D01*
X9037191Y-13736750D02*
X9084810Y-13736750D01*
X9084810Y-13736750D02*
X9113382Y-13746274D01*
X9113382Y-13746274D02*
X9132429Y-13765322D01*
X9132429Y-13765322D02*
X9141953Y-13784369D01*
X9141953Y-13784369D02*
X9151477Y-13822465D01*
X9151477Y-13822465D02*
X9151477Y-13851036D01*
X9151477Y-13851036D02*
X9141953Y-13889131D01*
X9141953Y-13889131D02*
X9132429Y-13908179D01*
X9132429Y-13908179D02*
X9113382Y-13927227D01*
X9113382Y-13927227D02*
X9084810Y-13936750D01*
X9084810Y-13936750D02*
X9037191Y-13936750D01*
X9237191Y-13936750D02*
X9237191Y-13803417D01*
X9237191Y-13841512D02*
X9246715Y-13822465D01*
X9246715Y-13822465D02*
X9256239Y-13812941D01*
X9256239Y-13812941D02*
X9275287Y-13803417D01*
X9275287Y-13803417D02*
X9294334Y-13803417D01*
X9361001Y-13936750D02*
X9361001Y-13803417D01*
X9361001Y-13736750D02*
X9351477Y-13746274D01*
X9351477Y-13746274D02*
X9361001Y-13755798D01*
X9361001Y-13755798D02*
X9370525Y-13746274D01*
X9370525Y-13746274D02*
X9361001Y-13736750D01*
X9361001Y-13736750D02*
X9361001Y-13755798D01*
X9484810Y-13936750D02*
X9465763Y-13927227D01*
X9465763Y-13927227D02*
X9456239Y-13908179D01*
X9456239Y-13908179D02*
X9456239Y-13736750D01*
X9589572Y-13936750D02*
X9570525Y-13927227D01*
X9570525Y-13927227D02*
X9561001Y-13908179D01*
X9561001Y-13908179D02*
X9561001Y-13736750D01*
X9818144Y-13936750D02*
X9818144Y-13736750D01*
X9818144Y-13736750D02*
X9884810Y-13879607D01*
X9884810Y-13879607D02*
X9951477Y-13736750D01*
X9951477Y-13736750D02*
X9951477Y-13936750D01*
X10132429Y-13936750D02*
X10132429Y-13831988D01*
X10132429Y-13831988D02*
X10122906Y-13812941D01*
X10122906Y-13812941D02*
X10103858Y-13803417D01*
X10103858Y-13803417D02*
X10065763Y-13803417D01*
X10065763Y-13803417D02*
X10046715Y-13812941D01*
X10132429Y-13927227D02*
X10113382Y-13936750D01*
X10113382Y-13936750D02*
X10065763Y-13936750D01*
X10065763Y-13936750D02*
X10046715Y-13927227D01*
X10046715Y-13927227D02*
X10037191Y-13908179D01*
X10037191Y-13908179D02*
X10037191Y-13889131D01*
X10037191Y-13889131D02*
X10046715Y-13870084D01*
X10046715Y-13870084D02*
X10065763Y-13860560D01*
X10065763Y-13860560D02*
X10113382Y-13860560D01*
X10113382Y-13860560D02*
X10132429Y-13851036D01*
X10227668Y-13803417D02*
X10227668Y-14003417D01*
X10227668Y-13812941D02*
X10246715Y-13803417D01*
X10246715Y-13803417D02*
X10284810Y-13803417D01*
X10284810Y-13803417D02*
X10303858Y-13812941D01*
X10303858Y-13812941D02*
X10313382Y-13822465D01*
X10313382Y-13822465D02*
X10322906Y-13841512D01*
X10322906Y-13841512D02*
X10322906Y-13898655D01*
X10322906Y-13898655D02*
X10313382Y-13917703D01*
X10313382Y-13917703D02*
X10303858Y-13927227D01*
X10303858Y-13927227D02*
X10284810Y-13936750D01*
X10284810Y-13936750D02*
X10246715Y-13936750D01*
X10246715Y-13936750D02*
X10227668Y-13927227D01*
X10408620Y-13917703D02*
X10418144Y-13927227D01*
X10418144Y-13927227D02*
X10408620Y-13936750D01*
X10408620Y-13936750D02*
X10399096Y-13927227D01*
X10399096Y-13927227D02*
X10408620Y-13917703D01*
X10408620Y-13917703D02*
X10408620Y-13936750D01*
X10408620Y-13812941D02*
X10418144Y-13822465D01*
X10418144Y-13822465D02*
X10408620Y-13831988D01*
X10408620Y-13831988D02*
X10399096Y-13822465D01*
X10399096Y-13822465D02*
X10408620Y-13812941D01*
X10408620Y-13812941D02*
X10408620Y-13831988D01*
D12*
X8606235Y-14180177D02*
X8776415Y-14350357D01*
X8776415Y-14180177D02*
X8606235Y-14350357D01*
D11*
X9141953Y-14356750D02*
X9027668Y-14356750D01*
X9084810Y-14356750D02*
X9084810Y-14156750D01*
X9084810Y-14156750D02*
X9065763Y-14185322D01*
X9065763Y-14185322D02*
X9046715Y-14204369D01*
X9046715Y-14204369D02*
X9027668Y-14213893D01*
X9227668Y-14337703D02*
X9237191Y-14347227D01*
X9237191Y-14347227D02*
X9227668Y-14356750D01*
X9227668Y-14356750D02*
X9218144Y-14347227D01*
X9218144Y-14347227D02*
X9227668Y-14337703D01*
X9227668Y-14337703D02*
X9227668Y-14356750D01*
X9303858Y-14156750D02*
X9437191Y-14156750D01*
X9437191Y-14156750D02*
X9351477Y-14356750D01*
X9551477Y-14156750D02*
X9570525Y-14156750D01*
X9570525Y-14156750D02*
X9589572Y-14166274D01*
X9589572Y-14166274D02*
X9599096Y-14175798D01*
X9599096Y-14175798D02*
X9608620Y-14194846D01*
X9608620Y-14194846D02*
X9618144Y-14232941D01*
X9618144Y-14232941D02*
X9618144Y-14280560D01*
X9618144Y-14280560D02*
X9608620Y-14318655D01*
X9608620Y-14318655D02*
X9599096Y-14337703D01*
X9599096Y-14337703D02*
X9589572Y-14347227D01*
X9589572Y-14347227D02*
X9570525Y-14356750D01*
X9570525Y-14356750D02*
X9551477Y-14356750D01*
X9551477Y-14356750D02*
X9532429Y-14347227D01*
X9532429Y-14347227D02*
X9522906Y-14337703D01*
X9522906Y-14337703D02*
X9513382Y-14318655D01*
X9513382Y-14318655D02*
X9503858Y-14280560D01*
X9503858Y-14280560D02*
X9503858Y-14232941D01*
X9503858Y-14232941D02*
X9513382Y-14194846D01*
X9513382Y-14194846D02*
X9522906Y-14175798D01*
X9522906Y-14175798D02*
X9532429Y-14166274D01*
X9532429Y-14166274D02*
X9551477Y-14156750D01*
X9694334Y-14175798D02*
X9703858Y-14166274D01*
X9703858Y-14166274D02*
X9722906Y-14156750D01*
X9722906Y-14156750D02*
X9770525Y-14156750D01*
X9770525Y-14156750D02*
X9789572Y-14166274D01*
X9789572Y-14166274D02*
X9799096Y-14175798D01*
X9799096Y-14175798D02*
X9808620Y-14194846D01*
X9808620Y-14194846D02*
X9808620Y-14213893D01*
X9808620Y-14213893D02*
X9799096Y-14242465D01*
X9799096Y-14242465D02*
X9684810Y-14356750D01*
X9684810Y-14356750D02*
X9808620Y-14356750D01*
X9894334Y-14356750D02*
X9894334Y-14223417D01*
X9894334Y-14242465D02*
X9903858Y-14232941D01*
X9903858Y-14232941D02*
X9922906Y-14223417D01*
X9922906Y-14223417D02*
X9951477Y-14223417D01*
X9951477Y-14223417D02*
X9970525Y-14232941D01*
X9970525Y-14232941D02*
X9980049Y-14251988D01*
X9980049Y-14251988D02*
X9980049Y-14356750D01*
X9980049Y-14251988D02*
X9989572Y-14232941D01*
X9989572Y-14232941D02*
X10008620Y-14223417D01*
X10008620Y-14223417D02*
X10037191Y-14223417D01*
X10037191Y-14223417D02*
X10056239Y-14232941D01*
X10056239Y-14232941D02*
X10065763Y-14251988D01*
X10065763Y-14251988D02*
X10065763Y-14356750D01*
X10161001Y-14356750D02*
X10161001Y-14223417D01*
X10161001Y-14242465D02*
X10170525Y-14232941D01*
X10170525Y-14232941D02*
X10189572Y-14223417D01*
X10189572Y-14223417D02*
X10218144Y-14223417D01*
X10218144Y-14223417D02*
X10237191Y-14232941D01*
X10237191Y-14232941D02*
X10246715Y-14251988D01*
X10246715Y-14251988D02*
X10246715Y-14356750D01*
X10246715Y-14251988D02*
X10256239Y-14232941D01*
X10256239Y-14232941D02*
X10275287Y-14223417D01*
X10275287Y-14223417D02*
X10303858Y-14223417D01*
X10303858Y-14223417D02*
X10322906Y-14232941D01*
X10322906Y-14232941D02*
X10332430Y-14251988D01*
X10332430Y-14251988D02*
X10332430Y-14356750D01*
X10722906Y-14147227D02*
X10551477Y-14404369D01*
X10980049Y-14156750D02*
X10999096Y-14156750D01*
X10999096Y-14156750D02*
X11018144Y-14166274D01*
X11018144Y-14166274D02*
X11027668Y-14175798D01*
X11027668Y-14175798D02*
X11037192Y-14194846D01*
X11037192Y-14194846D02*
X11046715Y-14232941D01*
X11046715Y-14232941D02*
X11046715Y-14280560D01*
X11046715Y-14280560D02*
X11037192Y-14318655D01*
X11037192Y-14318655D02*
X11027668Y-14337703D01*
X11027668Y-14337703D02*
X11018144Y-14347227D01*
X11018144Y-14347227D02*
X10999096Y-14356750D01*
X10999096Y-14356750D02*
X10980049Y-14356750D01*
X10980049Y-14356750D02*
X10961001Y-14347227D01*
X10961001Y-14347227D02*
X10951477Y-14337703D01*
X10951477Y-14337703D02*
X10941953Y-14318655D01*
X10941953Y-14318655D02*
X10932430Y-14280560D01*
X10932430Y-14280560D02*
X10932430Y-14232941D01*
X10932430Y-14232941D02*
X10941953Y-14194846D01*
X10941953Y-14194846D02*
X10951477Y-14175798D01*
X10951477Y-14175798D02*
X10961001Y-14166274D01*
X10961001Y-14166274D02*
X10980049Y-14156750D01*
X11132430Y-14337703D02*
X11141953Y-14347227D01*
X11141953Y-14347227D02*
X11132430Y-14356750D01*
X11132430Y-14356750D02*
X11122906Y-14347227D01*
X11122906Y-14347227D02*
X11132430Y-14337703D01*
X11132430Y-14337703D02*
X11132430Y-14356750D01*
X11265763Y-14156750D02*
X11284811Y-14156750D01*
X11284811Y-14156750D02*
X11303858Y-14166274D01*
X11303858Y-14166274D02*
X11313382Y-14175798D01*
X11313382Y-14175798D02*
X11322906Y-14194846D01*
X11322906Y-14194846D02*
X11332430Y-14232941D01*
X11332430Y-14232941D02*
X11332430Y-14280560D01*
X11332430Y-14280560D02*
X11322906Y-14318655D01*
X11322906Y-14318655D02*
X11313382Y-14337703D01*
X11313382Y-14337703D02*
X11303858Y-14347227D01*
X11303858Y-14347227D02*
X11284811Y-14356750D01*
X11284811Y-14356750D02*
X11265763Y-14356750D01*
X11265763Y-14356750D02*
X11246715Y-14347227D01*
X11246715Y-14347227D02*
X11237191Y-14337703D01*
X11237191Y-14337703D02*
X11227668Y-14318655D01*
X11227668Y-14318655D02*
X11218144Y-14280560D01*
X11218144Y-14280560D02*
X11218144Y-14232941D01*
X11218144Y-14232941D02*
X11227668Y-14194846D01*
X11227668Y-14194846D02*
X11237191Y-14175798D01*
X11237191Y-14175798D02*
X11246715Y-14166274D01*
X11246715Y-14166274D02*
X11265763Y-14156750D01*
X11503858Y-14156750D02*
X11465763Y-14156750D01*
X11465763Y-14156750D02*
X11446715Y-14166274D01*
X11446715Y-14166274D02*
X11437191Y-14175798D01*
X11437191Y-14175798D02*
X11418144Y-14204369D01*
X11418144Y-14204369D02*
X11408620Y-14242465D01*
X11408620Y-14242465D02*
X11408620Y-14318655D01*
X11408620Y-14318655D02*
X11418144Y-14337703D01*
X11418144Y-14337703D02*
X11427668Y-14347227D01*
X11427668Y-14347227D02*
X11446715Y-14356750D01*
X11446715Y-14356750D02*
X11484811Y-14356750D01*
X11484811Y-14356750D02*
X11503858Y-14347227D01*
X11503858Y-14347227D02*
X11513382Y-14337703D01*
X11513382Y-14337703D02*
X11522906Y-14318655D01*
X11522906Y-14318655D02*
X11522906Y-14271036D01*
X11522906Y-14271036D02*
X11513382Y-14251988D01*
X11513382Y-14251988D02*
X11503858Y-14242465D01*
X11503858Y-14242465D02*
X11484811Y-14232941D01*
X11484811Y-14232941D02*
X11446715Y-14232941D01*
X11446715Y-14232941D02*
X11427668Y-14242465D01*
X11427668Y-14242465D02*
X11418144Y-14251988D01*
X11418144Y-14251988D02*
X11408620Y-14271036D01*
X11589572Y-14156750D02*
X11722906Y-14156750D01*
X11722906Y-14156750D02*
X11637191Y-14356750D01*
X11837191Y-14156750D02*
X11856239Y-14156750D01*
X11856239Y-14156750D02*
X11875287Y-14166274D01*
X11875287Y-14166274D02*
X11884811Y-14175798D01*
X11884811Y-14175798D02*
X11894334Y-14194846D01*
X11894334Y-14194846D02*
X11903858Y-14232941D01*
X11903858Y-14232941D02*
X11903858Y-14280560D01*
X11903858Y-14280560D02*
X11894334Y-14318655D01*
X11894334Y-14318655D02*
X11884811Y-14337703D01*
X11884811Y-14337703D02*
X11875287Y-14347227D01*
X11875287Y-14347227D02*
X11856239Y-14356750D01*
X11856239Y-14356750D02*
X11837191Y-14356750D01*
X11837191Y-14356750D02*
X11818144Y-14347227D01*
X11818144Y-14347227D02*
X11808620Y-14337703D01*
X11808620Y-14337703D02*
X11799096Y-14318655D01*
X11799096Y-14318655D02*
X11789572Y-14280560D01*
X11789572Y-14280560D02*
X11789572Y-14232941D01*
X11789572Y-14232941D02*
X11799096Y-14194846D01*
X11799096Y-14194846D02*
X11808620Y-14175798D01*
X11808620Y-14175798D02*
X11818144Y-14166274D01*
X11818144Y-14166274D02*
X11837191Y-14156750D01*
X11980049Y-14156750D02*
X11980049Y-14194846D01*
X12056239Y-14156750D02*
X12056239Y-14194846D01*
X12351477Y-14432941D02*
X12341953Y-14423417D01*
X12341953Y-14423417D02*
X12322906Y-14394846D01*
X12322906Y-14394846D02*
X12313382Y-14375798D01*
X12313382Y-14375798D02*
X12303858Y-14347227D01*
X12303858Y-14347227D02*
X12294334Y-14299607D01*
X12294334Y-14299607D02*
X12294334Y-14261512D01*
X12294334Y-14261512D02*
X12303858Y-14213893D01*
X12303858Y-14213893D02*
X12313382Y-14185322D01*
X12313382Y-14185322D02*
X12322906Y-14166274D01*
X12322906Y-14166274D02*
X12341953Y-14137703D01*
X12341953Y-14137703D02*
X12351477Y-14128179D01*
X12418144Y-14175798D02*
X12427668Y-14166274D01*
X12427668Y-14166274D02*
X12446715Y-14156750D01*
X12446715Y-14156750D02*
X12494334Y-14156750D01*
X12494334Y-14156750D02*
X12513382Y-14166274D01*
X12513382Y-14166274D02*
X12522906Y-14175798D01*
X12522906Y-14175798D02*
X12532430Y-14194846D01*
X12532430Y-14194846D02*
X12532430Y-14213893D01*
X12532430Y-14213893D02*
X12522906Y-14242465D01*
X12522906Y-14242465D02*
X12408620Y-14356750D01*
X12408620Y-14356750D02*
X12532430Y-14356750D01*
X12703858Y-14156750D02*
X12665763Y-14156750D01*
X12665763Y-14156750D02*
X12646715Y-14166274D01*
X12646715Y-14166274D02*
X12637192Y-14175798D01*
X12637192Y-14175798D02*
X12618144Y-14204369D01*
X12618144Y-14204369D02*
X12608620Y-14242465D01*
X12608620Y-14242465D02*
X12608620Y-14318655D01*
X12608620Y-14318655D02*
X12618144Y-14337703D01*
X12618144Y-14337703D02*
X12627668Y-14347227D01*
X12627668Y-14347227D02*
X12646715Y-14356750D01*
X12646715Y-14356750D02*
X12684811Y-14356750D01*
X12684811Y-14356750D02*
X12703858Y-14347227D01*
X12703858Y-14347227D02*
X12713382Y-14337703D01*
X12713382Y-14337703D02*
X12722906Y-14318655D01*
X12722906Y-14318655D02*
X12722906Y-14271036D01*
X12722906Y-14271036D02*
X12713382Y-14251988D01*
X12713382Y-14251988D02*
X12703858Y-14242465D01*
X12703858Y-14242465D02*
X12684811Y-14232941D01*
X12684811Y-14232941D02*
X12646715Y-14232941D01*
X12646715Y-14232941D02*
X12627668Y-14242465D01*
X12627668Y-14242465D02*
X12618144Y-14251988D01*
X12618144Y-14251988D02*
X12608620Y-14271036D01*
X12961001Y-14356750D02*
X12961001Y-14156750D01*
X13046715Y-14356750D02*
X13046715Y-14251988D01*
X13046715Y-14251988D02*
X13037192Y-14232941D01*
X13037192Y-14232941D02*
X13018144Y-14223417D01*
X13018144Y-14223417D02*
X12989573Y-14223417D01*
X12989573Y-14223417D02*
X12970525Y-14232941D01*
X12970525Y-14232941D02*
X12961001Y-14242465D01*
X13170525Y-14356750D02*
X13151477Y-14347227D01*
X13151477Y-14347227D02*
X13141954Y-14337703D01*
X13141954Y-14337703D02*
X13132430Y-14318655D01*
X13132430Y-14318655D02*
X13132430Y-14261512D01*
X13132430Y-14261512D02*
X13141954Y-14242465D01*
X13141954Y-14242465D02*
X13151477Y-14232941D01*
X13151477Y-14232941D02*
X13170525Y-14223417D01*
X13170525Y-14223417D02*
X13199096Y-14223417D01*
X13199096Y-14223417D02*
X13218144Y-14232941D01*
X13218144Y-14232941D02*
X13227668Y-14242465D01*
X13227668Y-14242465D02*
X13237192Y-14261512D01*
X13237192Y-14261512D02*
X13237192Y-14318655D01*
X13237192Y-14318655D02*
X13227668Y-14337703D01*
X13227668Y-14337703D02*
X13218144Y-14347227D01*
X13218144Y-14347227D02*
X13199096Y-14356750D01*
X13199096Y-14356750D02*
X13170525Y-14356750D01*
X13351477Y-14356750D02*
X13332430Y-14347227D01*
X13332430Y-14347227D02*
X13322906Y-14328179D01*
X13322906Y-14328179D02*
X13322906Y-14156750D01*
X13503858Y-14347227D02*
X13484811Y-14356750D01*
X13484811Y-14356750D02*
X13446715Y-14356750D01*
X13446715Y-14356750D02*
X13427668Y-14347227D01*
X13427668Y-14347227D02*
X13418144Y-14328179D01*
X13418144Y-14328179D02*
X13418144Y-14251988D01*
X13418144Y-14251988D02*
X13427668Y-14232941D01*
X13427668Y-14232941D02*
X13446715Y-14223417D01*
X13446715Y-14223417D02*
X13484811Y-14223417D01*
X13484811Y-14223417D02*
X13503858Y-14232941D01*
X13503858Y-14232941D02*
X13513382Y-14251988D01*
X13513382Y-14251988D02*
X13513382Y-14271036D01*
X13513382Y-14271036D02*
X13418144Y-14290084D01*
X13589573Y-14347227D02*
X13608620Y-14356750D01*
X13608620Y-14356750D02*
X13646715Y-14356750D01*
X13646715Y-14356750D02*
X13665763Y-14347227D01*
X13665763Y-14347227D02*
X13675287Y-14328179D01*
X13675287Y-14328179D02*
X13675287Y-14318655D01*
X13675287Y-14318655D02*
X13665763Y-14299607D01*
X13665763Y-14299607D02*
X13646715Y-14290084D01*
X13646715Y-14290084D02*
X13618144Y-14290084D01*
X13618144Y-14290084D02*
X13599096Y-14280560D01*
X13599096Y-14280560D02*
X13589573Y-14261512D01*
X13589573Y-14261512D02*
X13589573Y-14251988D01*
X13589573Y-14251988D02*
X13599096Y-14232941D01*
X13599096Y-14232941D02*
X13618144Y-14223417D01*
X13618144Y-14223417D02*
X13646715Y-14223417D01*
X13646715Y-14223417D02*
X13665763Y-14232941D01*
X13741954Y-14432941D02*
X13751477Y-14423417D01*
X13751477Y-14423417D02*
X13770525Y-14394846D01*
X13770525Y-14394846D02*
X13780049Y-14375798D01*
X13780049Y-14375798D02*
X13789573Y-14347227D01*
X13789573Y-14347227D02*
X13799096Y-14299607D01*
X13799096Y-14299607D02*
X13799096Y-14261512D01*
X13799096Y-14261512D02*
X13789573Y-14213893D01*
X13789573Y-14213893D02*
X13780049Y-14185322D01*
X13780049Y-14185322D02*
X13770525Y-14166274D01*
X13770525Y-14166274D02*
X13751477Y-14137703D01*
X13751477Y-14137703D02*
X13741954Y-14128179D01*
X14103858Y-14432941D02*
X14094335Y-14423417D01*
X14094335Y-14423417D02*
X14075287Y-14394846D01*
X14075287Y-14394846D02*
X14065763Y-14375798D01*
X14065763Y-14375798D02*
X14056239Y-14347227D01*
X14056239Y-14347227D02*
X14046716Y-14299607D01*
X14046716Y-14299607D02*
X14046716Y-14261512D01*
X14046716Y-14261512D02*
X14056239Y-14213893D01*
X14056239Y-14213893D02*
X14065763Y-14185322D01*
X14065763Y-14185322D02*
X14075287Y-14166274D01*
X14075287Y-14166274D02*
X14094335Y-14137703D01*
X14094335Y-14137703D02*
X14103858Y-14128179D01*
X14180049Y-14223417D02*
X14180049Y-14356750D01*
X14180049Y-14242465D02*
X14189573Y-14232941D01*
X14189573Y-14232941D02*
X14208620Y-14223417D01*
X14208620Y-14223417D02*
X14237192Y-14223417D01*
X14237192Y-14223417D02*
X14256239Y-14232941D01*
X14256239Y-14232941D02*
X14265763Y-14251988D01*
X14265763Y-14251988D02*
X14265763Y-14356750D01*
X14389573Y-14356750D02*
X14370525Y-14347227D01*
X14370525Y-14347227D02*
X14361001Y-14337703D01*
X14361001Y-14337703D02*
X14351477Y-14318655D01*
X14351477Y-14318655D02*
X14351477Y-14261512D01*
X14351477Y-14261512D02*
X14361001Y-14242465D01*
X14361001Y-14242465D02*
X14370525Y-14232941D01*
X14370525Y-14232941D02*
X14389573Y-14223417D01*
X14389573Y-14223417D02*
X14418144Y-14223417D01*
X14418144Y-14223417D02*
X14437192Y-14232941D01*
X14437192Y-14232941D02*
X14446716Y-14242465D01*
X14446716Y-14242465D02*
X14456239Y-14261512D01*
X14456239Y-14261512D02*
X14456239Y-14318655D01*
X14456239Y-14318655D02*
X14446716Y-14337703D01*
X14446716Y-14337703D02*
X14437192Y-14347227D01*
X14437192Y-14347227D02*
X14418144Y-14356750D01*
X14418144Y-14356750D02*
X14389573Y-14356750D01*
X14513382Y-14223417D02*
X14589573Y-14223417D01*
X14541954Y-14156750D02*
X14541954Y-14328179D01*
X14541954Y-14328179D02*
X14551477Y-14347227D01*
X14551477Y-14347227D02*
X14570525Y-14356750D01*
X14570525Y-14356750D02*
X14589573Y-14356750D01*
X14808620Y-14223417D02*
X14808620Y-14423417D01*
X14808620Y-14232941D02*
X14827668Y-14223417D01*
X14827668Y-14223417D02*
X14865763Y-14223417D01*
X14865763Y-14223417D02*
X14884811Y-14232941D01*
X14884811Y-14232941D02*
X14894335Y-14242465D01*
X14894335Y-14242465D02*
X14903858Y-14261512D01*
X14903858Y-14261512D02*
X14903858Y-14318655D01*
X14903858Y-14318655D02*
X14894335Y-14337703D01*
X14894335Y-14337703D02*
X14884811Y-14347227D01*
X14884811Y-14347227D02*
X14865763Y-14356750D01*
X14865763Y-14356750D02*
X14827668Y-14356750D01*
X14827668Y-14356750D02*
X14808620Y-14347227D01*
X15018144Y-14356750D02*
X14999097Y-14347227D01*
X14999097Y-14347227D02*
X14989573Y-14328179D01*
X14989573Y-14328179D02*
X14989573Y-14156750D01*
X15180049Y-14356750D02*
X15180049Y-14251988D01*
X15180049Y-14251988D02*
X15170525Y-14232941D01*
X15170525Y-14232941D02*
X15151478Y-14223417D01*
X15151478Y-14223417D02*
X15113382Y-14223417D01*
X15113382Y-14223417D02*
X15094335Y-14232941D01*
X15180049Y-14347227D02*
X15161001Y-14356750D01*
X15161001Y-14356750D02*
X15113382Y-14356750D01*
X15113382Y-14356750D02*
X15094335Y-14347227D01*
X15094335Y-14347227D02*
X15084811Y-14328179D01*
X15084811Y-14328179D02*
X15084811Y-14309131D01*
X15084811Y-14309131D02*
X15094335Y-14290084D01*
X15094335Y-14290084D02*
X15113382Y-14280560D01*
X15113382Y-14280560D02*
X15161001Y-14280560D01*
X15161001Y-14280560D02*
X15180049Y-14271036D01*
X15246716Y-14223417D02*
X15322906Y-14223417D01*
X15275287Y-14156750D02*
X15275287Y-14328179D01*
X15275287Y-14328179D02*
X15284811Y-14347227D01*
X15284811Y-14347227D02*
X15303858Y-14356750D01*
X15303858Y-14356750D02*
X15322906Y-14356750D01*
X15465763Y-14347227D02*
X15446716Y-14356750D01*
X15446716Y-14356750D02*
X15408620Y-14356750D01*
X15408620Y-14356750D02*
X15389573Y-14347227D01*
X15389573Y-14347227D02*
X15380049Y-14328179D01*
X15380049Y-14328179D02*
X15380049Y-14251988D01*
X15380049Y-14251988D02*
X15389573Y-14232941D01*
X15389573Y-14232941D02*
X15408620Y-14223417D01*
X15408620Y-14223417D02*
X15446716Y-14223417D01*
X15446716Y-14223417D02*
X15465763Y-14232941D01*
X15465763Y-14232941D02*
X15475287Y-14251988D01*
X15475287Y-14251988D02*
X15475287Y-14271036D01*
X15475287Y-14271036D02*
X15380049Y-14290084D01*
X15646716Y-14356750D02*
X15646716Y-14156750D01*
X15646716Y-14347227D02*
X15627668Y-14356750D01*
X15627668Y-14356750D02*
X15589573Y-14356750D01*
X15589573Y-14356750D02*
X15570525Y-14347227D01*
X15570525Y-14347227D02*
X15561001Y-14337703D01*
X15561001Y-14337703D02*
X15551478Y-14318655D01*
X15551478Y-14318655D02*
X15551478Y-14261512D01*
X15551478Y-14261512D02*
X15561001Y-14242465D01*
X15561001Y-14242465D02*
X15570525Y-14232941D01*
X15570525Y-14232941D02*
X15589573Y-14223417D01*
X15589573Y-14223417D02*
X15627668Y-14223417D01*
X15627668Y-14223417D02*
X15646716Y-14232941D01*
X15722906Y-14432941D02*
X15732430Y-14423417D01*
X15732430Y-14423417D02*
X15751478Y-14394846D01*
X15751478Y-14394846D02*
X15761001Y-14375798D01*
X15761001Y-14375798D02*
X15770525Y-14347227D01*
X15770525Y-14347227D02*
X15780049Y-14299607D01*
X15780049Y-14299607D02*
X15780049Y-14261512D01*
X15780049Y-14261512D02*
X15770525Y-14213893D01*
X15770525Y-14213893D02*
X15761001Y-14185322D01*
X15761001Y-14185322D02*
X15751478Y-14166274D01*
X15751478Y-14166274D02*
X15732430Y-14137703D01*
X15732430Y-14137703D02*
X15722906Y-14128179D01*
X8776415Y-14555447D02*
G75*
G02*
X8576415Y-14555447I-100000J0D01*
G01*
X8576415Y-14555447D02*
G75*
G02*
X8776415Y-14555447I100000J0D01*
G01*
X9122906Y-14513597D02*
X9122906Y-14646930D01*
X9075287Y-14437407D02*
X9027668Y-14580264D01*
X9027668Y-14580264D02*
X9151477Y-14580264D01*
X9227668Y-14627883D02*
X9237191Y-14637407D01*
X9237191Y-14637407D02*
X9227668Y-14646930D01*
X9227668Y-14646930D02*
X9218144Y-14637407D01*
X9218144Y-14637407D02*
X9227668Y-14627883D01*
X9227668Y-14627883D02*
X9227668Y-14646930D01*
X9351477Y-14532645D02*
X9332429Y-14523121D01*
X9332429Y-14523121D02*
X9322906Y-14513597D01*
X9322906Y-14513597D02*
X9313382Y-14494549D01*
X9313382Y-14494549D02*
X9313382Y-14485026D01*
X9313382Y-14485026D02*
X9322906Y-14465978D01*
X9322906Y-14465978D02*
X9332429Y-14456454D01*
X9332429Y-14456454D02*
X9351477Y-14446930D01*
X9351477Y-14446930D02*
X9389572Y-14446930D01*
X9389572Y-14446930D02*
X9408620Y-14456454D01*
X9408620Y-14456454D02*
X9418144Y-14465978D01*
X9418144Y-14465978D02*
X9427668Y-14485026D01*
X9427668Y-14485026D02*
X9427668Y-14494549D01*
X9427668Y-14494549D02*
X9418144Y-14513597D01*
X9418144Y-14513597D02*
X9408620Y-14523121D01*
X9408620Y-14523121D02*
X9389572Y-14532645D01*
X9389572Y-14532645D02*
X9351477Y-14532645D01*
X9351477Y-14532645D02*
X9332429Y-14542168D01*
X9332429Y-14542168D02*
X9322906Y-14551692D01*
X9322906Y-14551692D02*
X9313382Y-14570740D01*
X9313382Y-14570740D02*
X9313382Y-14608835D01*
X9313382Y-14608835D02*
X9322906Y-14627883D01*
X9322906Y-14627883D02*
X9332429Y-14637407D01*
X9332429Y-14637407D02*
X9351477Y-14646930D01*
X9351477Y-14646930D02*
X9389572Y-14646930D01*
X9389572Y-14646930D02*
X9408620Y-14637407D01*
X9408620Y-14637407D02*
X9418144Y-14627883D01*
X9418144Y-14627883D02*
X9427668Y-14608835D01*
X9427668Y-14608835D02*
X9427668Y-14570740D01*
X9427668Y-14570740D02*
X9418144Y-14551692D01*
X9418144Y-14551692D02*
X9408620Y-14542168D01*
X9408620Y-14542168D02*
X9389572Y-14532645D01*
X9551477Y-14446930D02*
X9570525Y-14446930D01*
X9570525Y-14446930D02*
X9589572Y-14456454D01*
X9589572Y-14456454D02*
X9599096Y-14465978D01*
X9599096Y-14465978D02*
X9608620Y-14485026D01*
X9608620Y-14485026D02*
X9618144Y-14523121D01*
X9618144Y-14523121D02*
X9618144Y-14570740D01*
X9618144Y-14570740D02*
X9608620Y-14608835D01*
X9608620Y-14608835D02*
X9599096Y-14627883D01*
X9599096Y-14627883D02*
X9589572Y-14637407D01*
X9589572Y-14637407D02*
X9570525Y-14646930D01*
X9570525Y-14646930D02*
X9551477Y-14646930D01*
X9551477Y-14646930D02*
X9532429Y-14637407D01*
X9532429Y-14637407D02*
X9522906Y-14627883D01*
X9522906Y-14627883D02*
X9513382Y-14608835D01*
X9513382Y-14608835D02*
X9503858Y-14570740D01*
X9503858Y-14570740D02*
X9503858Y-14523121D01*
X9503858Y-14523121D02*
X9513382Y-14485026D01*
X9513382Y-14485026D02*
X9522906Y-14465978D01*
X9522906Y-14465978D02*
X9532429Y-14456454D01*
X9532429Y-14456454D02*
X9551477Y-14446930D01*
X9741953Y-14446930D02*
X9761001Y-14446930D01*
X9761001Y-14446930D02*
X9780049Y-14456454D01*
X9780049Y-14456454D02*
X9789572Y-14465978D01*
X9789572Y-14465978D02*
X9799096Y-14485026D01*
X9799096Y-14485026D02*
X9808620Y-14523121D01*
X9808620Y-14523121D02*
X9808620Y-14570740D01*
X9808620Y-14570740D02*
X9799096Y-14608835D01*
X9799096Y-14608835D02*
X9789572Y-14627883D01*
X9789572Y-14627883D02*
X9780049Y-14637407D01*
X9780049Y-14637407D02*
X9761001Y-14646930D01*
X9761001Y-14646930D02*
X9741953Y-14646930D01*
X9741953Y-14646930D02*
X9722906Y-14637407D01*
X9722906Y-14637407D02*
X9713382Y-14627883D01*
X9713382Y-14627883D02*
X9703858Y-14608835D01*
X9703858Y-14608835D02*
X9694334Y-14570740D01*
X9694334Y-14570740D02*
X9694334Y-14523121D01*
X9694334Y-14523121D02*
X9703858Y-14485026D01*
X9703858Y-14485026D02*
X9713382Y-14465978D01*
X9713382Y-14465978D02*
X9722906Y-14456454D01*
X9722906Y-14456454D02*
X9741953Y-14446930D01*
X9894334Y-14646930D02*
X9894334Y-14513597D01*
X9894334Y-14532645D02*
X9903858Y-14523121D01*
X9903858Y-14523121D02*
X9922906Y-14513597D01*
X9922906Y-14513597D02*
X9951477Y-14513597D01*
X9951477Y-14513597D02*
X9970525Y-14523121D01*
X9970525Y-14523121D02*
X9980049Y-14542168D01*
X9980049Y-14542168D02*
X9980049Y-14646930D01*
X9980049Y-14542168D02*
X9989572Y-14523121D01*
X9989572Y-14523121D02*
X10008620Y-14513597D01*
X10008620Y-14513597D02*
X10037191Y-14513597D01*
X10037191Y-14513597D02*
X10056239Y-14523121D01*
X10056239Y-14523121D02*
X10065763Y-14542168D01*
X10065763Y-14542168D02*
X10065763Y-14646930D01*
X10161001Y-14646930D02*
X10161001Y-14513597D01*
X10161001Y-14532645D02*
X10170525Y-14523121D01*
X10170525Y-14523121D02*
X10189572Y-14513597D01*
X10189572Y-14513597D02*
X10218144Y-14513597D01*
X10218144Y-14513597D02*
X10237191Y-14523121D01*
X10237191Y-14523121D02*
X10246715Y-14542168D01*
X10246715Y-14542168D02*
X10246715Y-14646930D01*
X10246715Y-14542168D02*
X10256239Y-14523121D01*
X10256239Y-14523121D02*
X10275287Y-14513597D01*
X10275287Y-14513597D02*
X10303858Y-14513597D01*
X10303858Y-14513597D02*
X10322906Y-14523121D01*
X10322906Y-14523121D02*
X10332430Y-14542168D01*
X10332430Y-14542168D02*
X10332430Y-14646930D01*
X10722906Y-14437407D02*
X10551477Y-14694549D01*
X10980049Y-14446930D02*
X10999096Y-14446930D01*
X10999096Y-14446930D02*
X11018144Y-14456454D01*
X11018144Y-14456454D02*
X11027668Y-14465978D01*
X11027668Y-14465978D02*
X11037192Y-14485026D01*
X11037192Y-14485026D02*
X11046715Y-14523121D01*
X11046715Y-14523121D02*
X11046715Y-14570740D01*
X11046715Y-14570740D02*
X11037192Y-14608835D01*
X11037192Y-14608835D02*
X11027668Y-14627883D01*
X11027668Y-14627883D02*
X11018144Y-14637407D01*
X11018144Y-14637407D02*
X10999096Y-14646930D01*
X10999096Y-14646930D02*
X10980049Y-14646930D01*
X10980049Y-14646930D02*
X10961001Y-14637407D01*
X10961001Y-14637407D02*
X10951477Y-14627883D01*
X10951477Y-14627883D02*
X10941953Y-14608835D01*
X10941953Y-14608835D02*
X10932430Y-14570740D01*
X10932430Y-14570740D02*
X10932430Y-14523121D01*
X10932430Y-14523121D02*
X10941953Y-14485026D01*
X10941953Y-14485026D02*
X10951477Y-14465978D01*
X10951477Y-14465978D02*
X10961001Y-14456454D01*
X10961001Y-14456454D02*
X10980049Y-14446930D01*
X11132430Y-14627883D02*
X11141953Y-14637407D01*
X11141953Y-14637407D02*
X11132430Y-14646930D01*
X11132430Y-14646930D02*
X11122906Y-14637407D01*
X11122906Y-14637407D02*
X11132430Y-14627883D01*
X11132430Y-14627883D02*
X11132430Y-14646930D01*
X11332430Y-14646930D02*
X11218144Y-14646930D01*
X11275287Y-14646930D02*
X11275287Y-14446930D01*
X11275287Y-14446930D02*
X11256239Y-14475502D01*
X11256239Y-14475502D02*
X11237191Y-14494549D01*
X11237191Y-14494549D02*
X11218144Y-14504073D01*
X11446715Y-14532645D02*
X11427668Y-14523121D01*
X11427668Y-14523121D02*
X11418144Y-14513597D01*
X11418144Y-14513597D02*
X11408620Y-14494549D01*
X11408620Y-14494549D02*
X11408620Y-14485026D01*
X11408620Y-14485026D02*
X11418144Y-14465978D01*
X11418144Y-14465978D02*
X11427668Y-14456454D01*
X11427668Y-14456454D02*
X11446715Y-14446930D01*
X11446715Y-14446930D02*
X11484811Y-14446930D01*
X11484811Y-14446930D02*
X11503858Y-14456454D01*
X11503858Y-14456454D02*
X11513382Y-14465978D01*
X11513382Y-14465978D02*
X11522906Y-14485026D01*
X11522906Y-14485026D02*
X11522906Y-14494549D01*
X11522906Y-14494549D02*
X11513382Y-14513597D01*
X11513382Y-14513597D02*
X11503858Y-14523121D01*
X11503858Y-14523121D02*
X11484811Y-14532645D01*
X11484811Y-14532645D02*
X11446715Y-14532645D01*
X11446715Y-14532645D02*
X11427668Y-14542168D01*
X11427668Y-14542168D02*
X11418144Y-14551692D01*
X11418144Y-14551692D02*
X11408620Y-14570740D01*
X11408620Y-14570740D02*
X11408620Y-14608835D01*
X11408620Y-14608835D02*
X11418144Y-14627883D01*
X11418144Y-14627883D02*
X11427668Y-14637407D01*
X11427668Y-14637407D02*
X11446715Y-14646930D01*
X11446715Y-14646930D02*
X11484811Y-14646930D01*
X11484811Y-14646930D02*
X11503858Y-14637407D01*
X11503858Y-14637407D02*
X11513382Y-14627883D01*
X11513382Y-14627883D02*
X11522906Y-14608835D01*
X11522906Y-14608835D02*
X11522906Y-14570740D01*
X11522906Y-14570740D02*
X11513382Y-14551692D01*
X11513382Y-14551692D02*
X11503858Y-14542168D01*
X11503858Y-14542168D02*
X11484811Y-14532645D01*
X11618144Y-14646930D02*
X11656239Y-14646930D01*
X11656239Y-14646930D02*
X11675287Y-14637407D01*
X11675287Y-14637407D02*
X11684811Y-14627883D01*
X11684811Y-14627883D02*
X11703858Y-14599311D01*
X11703858Y-14599311D02*
X11713382Y-14561216D01*
X11713382Y-14561216D02*
X11713382Y-14485026D01*
X11713382Y-14485026D02*
X11703858Y-14465978D01*
X11703858Y-14465978D02*
X11694334Y-14456454D01*
X11694334Y-14456454D02*
X11675287Y-14446930D01*
X11675287Y-14446930D02*
X11637191Y-14446930D01*
X11637191Y-14446930D02*
X11618144Y-14456454D01*
X11618144Y-14456454D02*
X11608620Y-14465978D01*
X11608620Y-14465978D02*
X11599096Y-14485026D01*
X11599096Y-14485026D02*
X11599096Y-14532645D01*
X11599096Y-14532645D02*
X11608620Y-14551692D01*
X11608620Y-14551692D02*
X11618144Y-14561216D01*
X11618144Y-14561216D02*
X11637191Y-14570740D01*
X11637191Y-14570740D02*
X11675287Y-14570740D01*
X11675287Y-14570740D02*
X11694334Y-14561216D01*
X11694334Y-14561216D02*
X11703858Y-14551692D01*
X11703858Y-14551692D02*
X11713382Y-14532645D01*
X11837191Y-14446930D02*
X11856239Y-14446930D01*
X11856239Y-14446930D02*
X11875287Y-14456454D01*
X11875287Y-14456454D02*
X11884811Y-14465978D01*
X11884811Y-14465978D02*
X11894334Y-14485026D01*
X11894334Y-14485026D02*
X11903858Y-14523121D01*
X11903858Y-14523121D02*
X11903858Y-14570740D01*
X11903858Y-14570740D02*
X11894334Y-14608835D01*
X11894334Y-14608835D02*
X11884811Y-14627883D01*
X11884811Y-14627883D02*
X11875287Y-14637407D01*
X11875287Y-14637407D02*
X11856239Y-14646930D01*
X11856239Y-14646930D02*
X11837191Y-14646930D01*
X11837191Y-14646930D02*
X11818144Y-14637407D01*
X11818144Y-14637407D02*
X11808620Y-14627883D01*
X11808620Y-14627883D02*
X11799096Y-14608835D01*
X11799096Y-14608835D02*
X11789572Y-14570740D01*
X11789572Y-14570740D02*
X11789572Y-14523121D01*
X11789572Y-14523121D02*
X11799096Y-14485026D01*
X11799096Y-14485026D02*
X11808620Y-14465978D01*
X11808620Y-14465978D02*
X11818144Y-14456454D01*
X11818144Y-14456454D02*
X11837191Y-14446930D01*
X11980049Y-14446930D02*
X11980049Y-14485026D01*
X12056239Y-14446930D02*
X12056239Y-14485026D01*
X12351477Y-14723121D02*
X12341953Y-14713597D01*
X12341953Y-14713597D02*
X12322906Y-14685026D01*
X12322906Y-14685026D02*
X12313382Y-14665978D01*
X12313382Y-14665978D02*
X12303858Y-14637407D01*
X12303858Y-14637407D02*
X12294334Y-14589787D01*
X12294334Y-14589787D02*
X12294334Y-14551692D01*
X12294334Y-14551692D02*
X12303858Y-14504073D01*
X12303858Y-14504073D02*
X12313382Y-14475502D01*
X12313382Y-14475502D02*
X12322906Y-14456454D01*
X12322906Y-14456454D02*
X12341953Y-14427883D01*
X12341953Y-14427883D02*
X12351477Y-14418359D01*
X12532430Y-14646930D02*
X12418144Y-14646930D01*
X12475287Y-14646930D02*
X12475287Y-14446930D01*
X12475287Y-14446930D02*
X12456239Y-14475502D01*
X12456239Y-14475502D02*
X12437192Y-14494549D01*
X12437192Y-14494549D02*
X12418144Y-14504073D01*
X12599096Y-14446930D02*
X12722906Y-14446930D01*
X12722906Y-14446930D02*
X12656239Y-14523121D01*
X12656239Y-14523121D02*
X12684811Y-14523121D01*
X12684811Y-14523121D02*
X12703858Y-14532645D01*
X12703858Y-14532645D02*
X12713382Y-14542168D01*
X12713382Y-14542168D02*
X12722906Y-14561216D01*
X12722906Y-14561216D02*
X12722906Y-14608835D01*
X12722906Y-14608835D02*
X12713382Y-14627883D01*
X12713382Y-14627883D02*
X12703858Y-14637407D01*
X12703858Y-14637407D02*
X12684811Y-14646930D01*
X12684811Y-14646930D02*
X12627668Y-14646930D01*
X12627668Y-14646930D02*
X12608620Y-14637407D01*
X12608620Y-14637407D02*
X12599096Y-14627883D01*
X12961001Y-14646930D02*
X12961001Y-14446930D01*
X13046715Y-14646930D02*
X13046715Y-14542168D01*
X13046715Y-14542168D02*
X13037192Y-14523121D01*
X13037192Y-14523121D02*
X13018144Y-14513597D01*
X13018144Y-14513597D02*
X12989573Y-14513597D01*
X12989573Y-14513597D02*
X12970525Y-14523121D01*
X12970525Y-14523121D02*
X12961001Y-14532645D01*
X13170525Y-14646930D02*
X13151477Y-14637407D01*
X13151477Y-14637407D02*
X13141954Y-14627883D01*
X13141954Y-14627883D02*
X13132430Y-14608835D01*
X13132430Y-14608835D02*
X13132430Y-14551692D01*
X13132430Y-14551692D02*
X13141954Y-14532645D01*
X13141954Y-14532645D02*
X13151477Y-14523121D01*
X13151477Y-14523121D02*
X13170525Y-14513597D01*
X13170525Y-14513597D02*
X13199096Y-14513597D01*
X13199096Y-14513597D02*
X13218144Y-14523121D01*
X13218144Y-14523121D02*
X13227668Y-14532645D01*
X13227668Y-14532645D02*
X13237192Y-14551692D01*
X13237192Y-14551692D02*
X13237192Y-14608835D01*
X13237192Y-14608835D02*
X13227668Y-14627883D01*
X13227668Y-14627883D02*
X13218144Y-14637407D01*
X13218144Y-14637407D02*
X13199096Y-14646930D01*
X13199096Y-14646930D02*
X13170525Y-14646930D01*
X13351477Y-14646930D02*
X13332430Y-14637407D01*
X13332430Y-14637407D02*
X13322906Y-14618359D01*
X13322906Y-14618359D02*
X13322906Y-14446930D01*
X13503858Y-14637407D02*
X13484811Y-14646930D01*
X13484811Y-14646930D02*
X13446715Y-14646930D01*
X13446715Y-14646930D02*
X13427668Y-14637407D01*
X13427668Y-14637407D02*
X13418144Y-14618359D01*
X13418144Y-14618359D02*
X13418144Y-14542168D01*
X13418144Y-14542168D02*
X13427668Y-14523121D01*
X13427668Y-14523121D02*
X13446715Y-14513597D01*
X13446715Y-14513597D02*
X13484811Y-14513597D01*
X13484811Y-14513597D02*
X13503858Y-14523121D01*
X13503858Y-14523121D02*
X13513382Y-14542168D01*
X13513382Y-14542168D02*
X13513382Y-14561216D01*
X13513382Y-14561216D02*
X13418144Y-14580264D01*
X13589573Y-14637407D02*
X13608620Y-14646930D01*
X13608620Y-14646930D02*
X13646715Y-14646930D01*
X13646715Y-14646930D02*
X13665763Y-14637407D01*
X13665763Y-14637407D02*
X13675287Y-14618359D01*
X13675287Y-14618359D02*
X13675287Y-14608835D01*
X13675287Y-14608835D02*
X13665763Y-14589787D01*
X13665763Y-14589787D02*
X13646715Y-14580264D01*
X13646715Y-14580264D02*
X13618144Y-14580264D01*
X13618144Y-14580264D02*
X13599096Y-14570740D01*
X13599096Y-14570740D02*
X13589573Y-14551692D01*
X13589573Y-14551692D02*
X13589573Y-14542168D01*
X13589573Y-14542168D02*
X13599096Y-14523121D01*
X13599096Y-14523121D02*
X13618144Y-14513597D01*
X13618144Y-14513597D02*
X13646715Y-14513597D01*
X13646715Y-14513597D02*
X13665763Y-14523121D01*
X13741954Y-14723121D02*
X13751477Y-14713597D01*
X13751477Y-14713597D02*
X13770525Y-14685026D01*
X13770525Y-14685026D02*
X13780049Y-14665978D01*
X13780049Y-14665978D02*
X13789573Y-14637407D01*
X13789573Y-14637407D02*
X13799096Y-14589787D01*
X13799096Y-14589787D02*
X13799096Y-14551692D01*
X13799096Y-14551692D02*
X13789573Y-14504073D01*
X13789573Y-14504073D02*
X13780049Y-14475502D01*
X13780049Y-14475502D02*
X13770525Y-14456454D01*
X13770525Y-14456454D02*
X13751477Y-14427883D01*
X13751477Y-14427883D02*
X13741954Y-14418359D01*
X14103858Y-14723121D02*
X14094335Y-14713597D01*
X14094335Y-14713597D02*
X14075287Y-14685026D01*
X14075287Y-14685026D02*
X14065763Y-14665978D01*
X14065763Y-14665978D02*
X14056239Y-14637407D01*
X14056239Y-14637407D02*
X14046716Y-14589787D01*
X14046716Y-14589787D02*
X14046716Y-14551692D01*
X14046716Y-14551692D02*
X14056239Y-14504073D01*
X14056239Y-14504073D02*
X14065763Y-14475502D01*
X14065763Y-14475502D02*
X14075287Y-14456454D01*
X14075287Y-14456454D02*
X14094335Y-14427883D01*
X14094335Y-14427883D02*
X14103858Y-14418359D01*
X14180049Y-14513597D02*
X14180049Y-14646930D01*
X14180049Y-14532645D02*
X14189573Y-14523121D01*
X14189573Y-14523121D02*
X14208620Y-14513597D01*
X14208620Y-14513597D02*
X14237192Y-14513597D01*
X14237192Y-14513597D02*
X14256239Y-14523121D01*
X14256239Y-14523121D02*
X14265763Y-14542168D01*
X14265763Y-14542168D02*
X14265763Y-14646930D01*
X14389573Y-14646930D02*
X14370525Y-14637407D01*
X14370525Y-14637407D02*
X14361001Y-14627883D01*
X14361001Y-14627883D02*
X14351477Y-14608835D01*
X14351477Y-14608835D02*
X14351477Y-14551692D01*
X14351477Y-14551692D02*
X14361001Y-14532645D01*
X14361001Y-14532645D02*
X14370525Y-14523121D01*
X14370525Y-14523121D02*
X14389573Y-14513597D01*
X14389573Y-14513597D02*
X14418144Y-14513597D01*
X14418144Y-14513597D02*
X14437192Y-14523121D01*
X14437192Y-14523121D02*
X14446716Y-14532645D01*
X14446716Y-14532645D02*
X14456239Y-14551692D01*
X14456239Y-14551692D02*
X14456239Y-14608835D01*
X14456239Y-14608835D02*
X14446716Y-14627883D01*
X14446716Y-14627883D02*
X14437192Y-14637407D01*
X14437192Y-14637407D02*
X14418144Y-14646930D01*
X14418144Y-14646930D02*
X14389573Y-14646930D01*
X14513382Y-14513597D02*
X14589573Y-14513597D01*
X14541954Y-14446930D02*
X14541954Y-14618359D01*
X14541954Y-14618359D02*
X14551477Y-14637407D01*
X14551477Y-14637407D02*
X14570525Y-14646930D01*
X14570525Y-14646930D02*
X14589573Y-14646930D01*
X14808620Y-14513597D02*
X14808620Y-14713597D01*
X14808620Y-14523121D02*
X14827668Y-14513597D01*
X14827668Y-14513597D02*
X14865763Y-14513597D01*
X14865763Y-14513597D02*
X14884811Y-14523121D01*
X14884811Y-14523121D02*
X14894335Y-14532645D01*
X14894335Y-14532645D02*
X14903858Y-14551692D01*
X14903858Y-14551692D02*
X14903858Y-14608835D01*
X14903858Y-14608835D02*
X14894335Y-14627883D01*
X14894335Y-14627883D02*
X14884811Y-14637407D01*
X14884811Y-14637407D02*
X14865763Y-14646930D01*
X14865763Y-14646930D02*
X14827668Y-14646930D01*
X14827668Y-14646930D02*
X14808620Y-14637407D01*
X15018144Y-14646930D02*
X14999097Y-14637407D01*
X14999097Y-14637407D02*
X14989573Y-14618359D01*
X14989573Y-14618359D02*
X14989573Y-14446930D01*
X15180049Y-14646930D02*
X15180049Y-14542168D01*
X15180049Y-14542168D02*
X15170525Y-14523121D01*
X15170525Y-14523121D02*
X15151478Y-14513597D01*
X15151478Y-14513597D02*
X15113382Y-14513597D01*
X15113382Y-14513597D02*
X15094335Y-14523121D01*
X15180049Y-14637407D02*
X15161001Y-14646930D01*
X15161001Y-14646930D02*
X15113382Y-14646930D01*
X15113382Y-14646930D02*
X15094335Y-14637407D01*
X15094335Y-14637407D02*
X15084811Y-14618359D01*
X15084811Y-14618359D02*
X15084811Y-14599311D01*
X15084811Y-14599311D02*
X15094335Y-14580264D01*
X15094335Y-14580264D02*
X15113382Y-14570740D01*
X15113382Y-14570740D02*
X15161001Y-14570740D01*
X15161001Y-14570740D02*
X15180049Y-14561216D01*
X15246716Y-14513597D02*
X15322906Y-14513597D01*
X15275287Y-14446930D02*
X15275287Y-14618359D01*
X15275287Y-14618359D02*
X15284811Y-14637407D01*
X15284811Y-14637407D02*
X15303858Y-14646930D01*
X15303858Y-14646930D02*
X15322906Y-14646930D01*
X15465763Y-14637407D02*
X15446716Y-14646930D01*
X15446716Y-14646930D02*
X15408620Y-14646930D01*
X15408620Y-14646930D02*
X15389573Y-14637407D01*
X15389573Y-14637407D02*
X15380049Y-14618359D01*
X15380049Y-14618359D02*
X15380049Y-14542168D01*
X15380049Y-14542168D02*
X15389573Y-14523121D01*
X15389573Y-14523121D02*
X15408620Y-14513597D01*
X15408620Y-14513597D02*
X15446716Y-14513597D01*
X15446716Y-14513597D02*
X15465763Y-14523121D01*
X15465763Y-14523121D02*
X15475287Y-14542168D01*
X15475287Y-14542168D02*
X15475287Y-14561216D01*
X15475287Y-14561216D02*
X15380049Y-14580264D01*
X15646716Y-14646930D02*
X15646716Y-14446930D01*
X15646716Y-14637407D02*
X15627668Y-14646930D01*
X15627668Y-14646930D02*
X15589573Y-14646930D01*
X15589573Y-14646930D02*
X15570525Y-14637407D01*
X15570525Y-14637407D02*
X15561001Y-14627883D01*
X15561001Y-14627883D02*
X15551478Y-14608835D01*
X15551478Y-14608835D02*
X15551478Y-14551692D01*
X15551478Y-14551692D02*
X15561001Y-14532645D01*
X15561001Y-14532645D02*
X15570525Y-14523121D01*
X15570525Y-14523121D02*
X15589573Y-14513597D01*
X15589573Y-14513597D02*
X15627668Y-14513597D01*
X15627668Y-14513597D02*
X15646716Y-14523121D01*
X15722906Y-14723121D02*
X15732430Y-14713597D01*
X15732430Y-14713597D02*
X15751478Y-14685026D01*
X15751478Y-14685026D02*
X15761001Y-14665978D01*
X15761001Y-14665978D02*
X15770525Y-14637407D01*
X15770525Y-14637407D02*
X15780049Y-14589787D01*
X15780049Y-14589787D02*
X15780049Y-14551692D01*
X15780049Y-14551692D02*
X15770525Y-14504073D01*
X15770525Y-14504073D02*
X15761001Y-14475502D01*
X15761001Y-14475502D02*
X15751478Y-14456454D01*
X15751478Y-14456454D02*
X15732430Y-14427883D01*
X15732430Y-14427883D02*
X15722906Y-14418359D01*
M02*
