%TF.GenerationSoftware,KiCad,Pcbnew,8.0.6-1.fc41*%
%TF.CreationDate,2024-12-09T09:59:40+11:00*%
%TF.ProjectId,pueo-mx-spaced,7075656f-2d6d-4782-9d73-70616365642e,0.1*%
%TF.SameCoordinates,Original*%
%TF.FileFunction,Legend,Top*%
%TF.FilePolarity,Positive*%
%FSLAX46Y46*%
G04 Gerber Fmt 4.6, Leading zero omitted, Abs format (unit mm)*
G04 Created by KiCad (PCBNEW 8.0.6-1.fc41) date 2024-12-09 09:59:40*
%MOMM*%
%LPD*%
G01*
G04 APERTURE LIST*
%ADD10C,0.150000*%
%ADD11C,0.100000*%
%ADD12C,0.200000*%
%ADD13C,0.010000*%
%ADD14C,0.120000*%
G04 APERTURE END LIST*
D10*
X198614948Y-67889160D02*
X197814948Y-67889160D01*
X198576852Y-67889160D02*
X198614948Y-67965350D01*
X198614948Y-67965350D02*
X198614948Y-68117731D01*
X198614948Y-68117731D02*
X198576852Y-68193922D01*
X198576852Y-68193922D02*
X198538757Y-68232017D01*
X198538757Y-68232017D02*
X198462567Y-68270112D01*
X198462567Y-68270112D02*
X198233995Y-68270112D01*
X198233995Y-68270112D02*
X198157805Y-68232017D01*
X198157805Y-68232017D02*
X198119710Y-68193922D01*
X198119710Y-68193922D02*
X198081614Y-68117731D01*
X198081614Y-68117731D02*
X198081614Y-67965350D01*
X198081614Y-67965350D02*
X198119710Y-67889160D01*
X198614948Y-68955827D02*
X198081614Y-68955827D01*
X198614948Y-68612970D02*
X198195900Y-68612970D01*
X198195900Y-68612970D02*
X198119710Y-68651065D01*
X198119710Y-68651065D02*
X198081614Y-68727255D01*
X198081614Y-68727255D02*
X198081614Y-68841541D01*
X198081614Y-68841541D02*
X198119710Y-68917732D01*
X198119710Y-68917732D02*
X198157805Y-68955827D01*
X198119710Y-69641542D02*
X198081614Y-69565351D01*
X198081614Y-69565351D02*
X198081614Y-69412970D01*
X198081614Y-69412970D02*
X198119710Y-69336780D01*
X198119710Y-69336780D02*
X198195900Y-69298684D01*
X198195900Y-69298684D02*
X198500662Y-69298684D01*
X198500662Y-69298684D02*
X198576852Y-69336780D01*
X198576852Y-69336780D02*
X198614948Y-69412970D01*
X198614948Y-69412970D02*
X198614948Y-69565351D01*
X198614948Y-69565351D02*
X198576852Y-69641542D01*
X198576852Y-69641542D02*
X198500662Y-69679637D01*
X198500662Y-69679637D02*
X198424471Y-69679637D01*
X198424471Y-69679637D02*
X198348281Y-69298684D01*
X198081614Y-70136779D02*
X198119710Y-70060589D01*
X198119710Y-70060589D02*
X198157805Y-70022494D01*
X198157805Y-70022494D02*
X198233995Y-69984398D01*
X198233995Y-69984398D02*
X198462567Y-69984398D01*
X198462567Y-69984398D02*
X198538757Y-70022494D01*
X198538757Y-70022494D02*
X198576852Y-70060589D01*
X198576852Y-70060589D02*
X198614948Y-70136779D01*
X198614948Y-70136779D02*
X198614948Y-70251065D01*
X198614948Y-70251065D02*
X198576852Y-70327256D01*
X198576852Y-70327256D02*
X198538757Y-70365351D01*
X198538757Y-70365351D02*
X198462567Y-70403446D01*
X198462567Y-70403446D02*
X198233995Y-70403446D01*
X198233995Y-70403446D02*
X198157805Y-70365351D01*
X198157805Y-70365351D02*
X198119710Y-70327256D01*
X198119710Y-70327256D02*
X198081614Y-70251065D01*
X198081614Y-70251065D02*
X198081614Y-70136779D01*
X198386376Y-70746304D02*
X198386376Y-71355828D01*
X198119710Y-72079637D02*
X198081614Y-72003446D01*
X198081614Y-72003446D02*
X198081614Y-71851065D01*
X198081614Y-71851065D02*
X198119710Y-71774875D01*
X198119710Y-71774875D02*
X198157805Y-71736780D01*
X198157805Y-71736780D02*
X198233995Y-71698684D01*
X198233995Y-71698684D02*
X198462567Y-71698684D01*
X198462567Y-71698684D02*
X198538757Y-71736780D01*
X198538757Y-71736780D02*
X198576852Y-71774875D01*
X198576852Y-71774875D02*
X198614948Y-71851065D01*
X198614948Y-71851065D02*
X198614948Y-72003446D01*
X198614948Y-72003446D02*
X198576852Y-72079637D01*
X198081614Y-72422494D02*
X198881614Y-72422494D01*
X198081614Y-72765351D02*
X198500662Y-72765351D01*
X198500662Y-72765351D02*
X198576852Y-72727256D01*
X198576852Y-72727256D02*
X198614948Y-72651065D01*
X198614948Y-72651065D02*
X198614948Y-72536779D01*
X198614948Y-72536779D02*
X198576852Y-72460589D01*
X198576852Y-72460589D02*
X198538757Y-72422494D01*
X198081614Y-73260589D02*
X198119710Y-73184399D01*
X198119710Y-73184399D02*
X198157805Y-73146304D01*
X198157805Y-73146304D02*
X198233995Y-73108208D01*
X198233995Y-73108208D02*
X198462567Y-73108208D01*
X198462567Y-73108208D02*
X198538757Y-73146304D01*
X198538757Y-73146304D02*
X198576852Y-73184399D01*
X198576852Y-73184399D02*
X198614948Y-73260589D01*
X198614948Y-73260589D02*
X198614948Y-73374875D01*
X198614948Y-73374875D02*
X198576852Y-73451066D01*
X198576852Y-73451066D02*
X198538757Y-73489161D01*
X198538757Y-73489161D02*
X198462567Y-73527256D01*
X198462567Y-73527256D02*
X198233995Y-73527256D01*
X198233995Y-73527256D02*
X198157805Y-73489161D01*
X198157805Y-73489161D02*
X198119710Y-73451066D01*
X198119710Y-73451066D02*
X198081614Y-73374875D01*
X198081614Y-73374875D02*
X198081614Y-73260589D01*
X198119710Y-74212971D02*
X198081614Y-74136780D01*
X198081614Y-74136780D02*
X198081614Y-73984399D01*
X198081614Y-73984399D02*
X198119710Y-73908209D01*
X198119710Y-73908209D02*
X198157805Y-73870114D01*
X198157805Y-73870114D02*
X198233995Y-73832018D01*
X198233995Y-73832018D02*
X198462567Y-73832018D01*
X198462567Y-73832018D02*
X198538757Y-73870114D01*
X198538757Y-73870114D02*
X198576852Y-73908209D01*
X198576852Y-73908209D02*
X198614948Y-73984399D01*
X198614948Y-73984399D02*
X198614948Y-74136780D01*
X198614948Y-74136780D02*
X198576852Y-74212971D01*
X198614948Y-74479637D02*
X198081614Y-74670113D01*
X198081614Y-74670113D02*
X198614948Y-74860590D01*
X198805424Y-75127256D02*
X198843519Y-75165352D01*
X198843519Y-75165352D02*
X198881614Y-75241542D01*
X198881614Y-75241542D02*
X198881614Y-75432018D01*
X198881614Y-75432018D02*
X198843519Y-75508209D01*
X198843519Y-75508209D02*
X198805424Y-75546304D01*
X198805424Y-75546304D02*
X198729233Y-75584399D01*
X198729233Y-75584399D02*
X198653043Y-75584399D01*
X198653043Y-75584399D02*
X198538757Y-75546304D01*
X198538757Y-75546304D02*
X198081614Y-75089161D01*
X198081614Y-75089161D02*
X198081614Y-75584399D01*
X198614948Y-76460590D02*
X198081614Y-76651066D01*
X198081614Y-76651066D02*
X198614948Y-76841543D01*
X198881614Y-77298686D02*
X198881614Y-77374876D01*
X198881614Y-77374876D02*
X198843519Y-77451067D01*
X198843519Y-77451067D02*
X198805424Y-77489162D01*
X198805424Y-77489162D02*
X198729233Y-77527257D01*
X198729233Y-77527257D02*
X198576852Y-77565352D01*
X198576852Y-77565352D02*
X198386376Y-77565352D01*
X198386376Y-77565352D02*
X198233995Y-77527257D01*
X198233995Y-77527257D02*
X198157805Y-77489162D01*
X198157805Y-77489162D02*
X198119710Y-77451067D01*
X198119710Y-77451067D02*
X198081614Y-77374876D01*
X198081614Y-77374876D02*
X198081614Y-77298686D01*
X198081614Y-77298686D02*
X198119710Y-77222495D01*
X198119710Y-77222495D02*
X198157805Y-77184400D01*
X198157805Y-77184400D02*
X198233995Y-77146305D01*
X198233995Y-77146305D02*
X198386376Y-77108209D01*
X198386376Y-77108209D02*
X198576852Y-77108209D01*
X198576852Y-77108209D02*
X198729233Y-77146305D01*
X198729233Y-77146305D02*
X198805424Y-77184400D01*
X198805424Y-77184400D02*
X198843519Y-77222495D01*
X198843519Y-77222495D02*
X198881614Y-77298686D01*
X198157805Y-77908210D02*
X198119710Y-77946305D01*
X198119710Y-77946305D02*
X198081614Y-77908210D01*
X198081614Y-77908210D02*
X198119710Y-77870114D01*
X198119710Y-77870114D02*
X198157805Y-77908210D01*
X198157805Y-77908210D02*
X198081614Y-77908210D01*
X198805424Y-78251066D02*
X198843519Y-78289162D01*
X198843519Y-78289162D02*
X198881614Y-78365352D01*
X198881614Y-78365352D02*
X198881614Y-78555828D01*
X198881614Y-78555828D02*
X198843519Y-78632019D01*
X198843519Y-78632019D02*
X198805424Y-78670114D01*
X198805424Y-78670114D02*
X198729233Y-78708209D01*
X198729233Y-78708209D02*
X198653043Y-78708209D01*
X198653043Y-78708209D02*
X198538757Y-78670114D01*
X198538757Y-78670114D02*
X198081614Y-78212971D01*
X198081614Y-78212971D02*
X198081614Y-78708209D01*
X198081614Y-79660591D02*
X198881614Y-79660591D01*
X198576852Y-79660591D02*
X198614948Y-79736781D01*
X198614948Y-79736781D02*
X198614948Y-79889162D01*
X198614948Y-79889162D02*
X198576852Y-79965353D01*
X198576852Y-79965353D02*
X198538757Y-80003448D01*
X198538757Y-80003448D02*
X198462567Y-80041543D01*
X198462567Y-80041543D02*
X198233995Y-80041543D01*
X198233995Y-80041543D02*
X198157805Y-80003448D01*
X198157805Y-80003448D02*
X198119710Y-79965353D01*
X198119710Y-79965353D02*
X198081614Y-79889162D01*
X198081614Y-79889162D02*
X198081614Y-79736781D01*
X198081614Y-79736781D02*
X198119710Y-79660591D01*
X198614948Y-80308210D02*
X198081614Y-80498686D01*
X198614948Y-80689163D02*
X198081614Y-80498686D01*
X198081614Y-80498686D02*
X197891138Y-80422496D01*
X197891138Y-80422496D02*
X197853043Y-80384401D01*
X197853043Y-80384401D02*
X197814948Y-80308210D01*
X198081614Y-81603449D02*
X198614948Y-81603449D01*
X198462567Y-81603449D02*
X198538757Y-81641544D01*
X198538757Y-81641544D02*
X198576852Y-81679639D01*
X198576852Y-81679639D02*
X198614948Y-81755830D01*
X198614948Y-81755830D02*
X198614948Y-81832020D01*
X198119710Y-82403449D02*
X198081614Y-82327258D01*
X198081614Y-82327258D02*
X198081614Y-82174877D01*
X198081614Y-82174877D02*
X198119710Y-82098687D01*
X198119710Y-82098687D02*
X198195900Y-82060591D01*
X198195900Y-82060591D02*
X198500662Y-82060591D01*
X198500662Y-82060591D02*
X198576852Y-82098687D01*
X198576852Y-82098687D02*
X198614948Y-82174877D01*
X198614948Y-82174877D02*
X198614948Y-82327258D01*
X198614948Y-82327258D02*
X198576852Y-82403449D01*
X198576852Y-82403449D02*
X198500662Y-82441544D01*
X198500662Y-82441544D02*
X198424471Y-82441544D01*
X198424471Y-82441544D02*
X198348281Y-82060591D01*
X198119710Y-83089163D02*
X198081614Y-83012972D01*
X198081614Y-83012972D02*
X198081614Y-82860591D01*
X198081614Y-82860591D02*
X198119710Y-82784401D01*
X198119710Y-82784401D02*
X198195900Y-82746305D01*
X198195900Y-82746305D02*
X198500662Y-82746305D01*
X198500662Y-82746305D02*
X198576852Y-82784401D01*
X198576852Y-82784401D02*
X198614948Y-82860591D01*
X198614948Y-82860591D02*
X198614948Y-83012972D01*
X198614948Y-83012972D02*
X198576852Y-83089163D01*
X198576852Y-83089163D02*
X198500662Y-83127258D01*
X198500662Y-83127258D02*
X198424471Y-83127258D01*
X198424471Y-83127258D02*
X198348281Y-82746305D01*
X198614948Y-83393924D02*
X198081614Y-83584400D01*
X198081614Y-83584400D02*
X198614948Y-83774877D01*
X198119710Y-84384401D02*
X198081614Y-84308210D01*
X198081614Y-84308210D02*
X198081614Y-84155829D01*
X198081614Y-84155829D02*
X198119710Y-84079639D01*
X198119710Y-84079639D02*
X198195900Y-84041543D01*
X198195900Y-84041543D02*
X198500662Y-84041543D01*
X198500662Y-84041543D02*
X198576852Y-84079639D01*
X198576852Y-84079639D02*
X198614948Y-84155829D01*
X198614948Y-84155829D02*
X198614948Y-84308210D01*
X198614948Y-84308210D02*
X198576852Y-84384401D01*
X198576852Y-84384401D02*
X198500662Y-84422496D01*
X198500662Y-84422496D02*
X198424471Y-84422496D01*
X198424471Y-84422496D02*
X198348281Y-84041543D01*
D11*
X144710606Y-97311756D02*
X144715925Y-97007040D01*
X144445975Y-97192833D02*
X145131585Y-97204801D01*
X145131585Y-97204801D02*
X145208428Y-97168041D01*
X145208428Y-97168041D02*
X145247847Y-97092527D01*
X145247847Y-97092527D02*
X145249177Y-97016348D01*
X145221061Y-96444342D02*
X145257820Y-96521185D01*
X145257820Y-96521185D02*
X145255161Y-96673543D01*
X145255161Y-96673543D02*
X145215742Y-96749057D01*
X145215742Y-96749057D02*
X145138898Y-96785817D01*
X145138898Y-96785817D02*
X144834182Y-96780498D01*
X144834182Y-96780498D02*
X144758668Y-96741079D01*
X144758668Y-96741079D02*
X144721909Y-96664235D01*
X144721909Y-96664235D02*
X144724568Y-96511877D01*
X144724568Y-96511877D02*
X144763987Y-96436363D01*
X144763987Y-96436363D02*
X144840831Y-96399604D01*
X144840831Y-96399604D02*
X144917010Y-96400933D01*
X144917010Y-96400933D02*
X144986540Y-96783157D01*
X144732546Y-96054805D02*
X145265799Y-96064112D01*
X144808725Y-96056134D02*
X144771301Y-96017380D01*
X144771301Y-96017380D02*
X144734541Y-95940536D01*
X144734541Y-95940536D02*
X144736536Y-95826268D01*
X144736536Y-95826268D02*
X144775955Y-95750754D01*
X144775955Y-95750754D02*
X144852798Y-95713994D01*
X144852798Y-95713994D02*
X145271782Y-95721308D01*
X144743184Y-95445373D02*
X144748503Y-95140658D01*
X144478553Y-95326451D02*
X145164162Y-95338418D01*
X145164162Y-95338418D02*
X145241006Y-95301658D01*
X145241006Y-95301658D02*
X145280425Y-95226144D01*
X145280425Y-95226144D02*
X145281755Y-95149966D01*
X145286409Y-94883339D02*
X144753157Y-94874031D01*
X144486531Y-94869377D02*
X144523955Y-94908132D01*
X144523955Y-94908132D02*
X144562710Y-94870707D01*
X144562710Y-94870707D02*
X144525285Y-94831953D01*
X144525285Y-94831953D02*
X144486531Y-94869377D01*
X144486531Y-94869377D02*
X144562710Y-94870707D01*
X144759805Y-94493137D02*
X145293058Y-94502445D01*
X144835984Y-94494467D02*
X144798560Y-94455713D01*
X144798560Y-94455713D02*
X144761800Y-94378869D01*
X144761800Y-94378869D02*
X144763795Y-94264601D01*
X144763795Y-94264601D02*
X144803214Y-94189087D01*
X144803214Y-94189087D02*
X144880057Y-94152327D01*
X144880057Y-94152327D02*
X145299041Y-94159640D01*
X144778421Y-93426633D02*
X145425942Y-93437935D01*
X145425942Y-93437935D02*
X145501456Y-93477354D01*
X145501456Y-93477354D02*
X145538880Y-93516109D01*
X145538880Y-93516109D02*
X145575640Y-93592952D01*
X145575640Y-93592952D02*
X145573645Y-93707221D01*
X145573645Y-93707221D02*
X145534226Y-93782735D01*
X145273584Y-93435276D02*
X145310344Y-93512120D01*
X145310344Y-93512120D02*
X145307684Y-93664477D01*
X145307684Y-93664477D02*
X145268265Y-93739991D01*
X145268265Y-93739991D02*
X145229511Y-93777416D01*
X145229511Y-93777416D02*
X145152667Y-93814176D01*
X145152667Y-93814176D02*
X144924131Y-93810186D01*
X144924131Y-93810186D02*
X144848617Y-93770767D01*
X144848617Y-93770767D02*
X144811192Y-93732013D01*
X144811192Y-93732013D02*
X144774432Y-93655169D01*
X144774432Y-93655169D02*
X144777092Y-93502812D01*
X144777092Y-93502812D02*
X144816511Y-93427298D01*
X144886048Y-83622228D02*
X145685926Y-83636190D01*
X144924138Y-83622893D02*
X144887378Y-83546049D01*
X144887378Y-83546049D02*
X144890037Y-83393691D01*
X144890037Y-83393691D02*
X144929456Y-83318177D01*
X144929456Y-83318177D02*
X144968211Y-83280753D01*
X144968211Y-83280753D02*
X145045054Y-83243993D01*
X145045054Y-83243993D02*
X145273591Y-83247982D01*
X145273591Y-83247982D02*
X145349105Y-83287401D01*
X145349105Y-83287401D02*
X145386530Y-83326156D01*
X145386530Y-83326156D02*
X145423289Y-83402999D01*
X145423289Y-83402999D02*
X145420630Y-83555357D01*
X145420630Y-83555357D02*
X145381211Y-83630871D01*
X144904664Y-82555723D02*
X145437916Y-82565031D01*
X144898680Y-82898528D02*
X145317664Y-82905842D01*
X145317664Y-82905842D02*
X145394508Y-82869082D01*
X145394508Y-82869082D02*
X145433927Y-82793568D01*
X145433927Y-82793568D02*
X145435922Y-82679299D01*
X145435922Y-82679299D02*
X145399162Y-82602456D01*
X145399162Y-82602456D02*
X145361737Y-82563701D01*
X145412459Y-81840667D02*
X145449219Y-81917510D01*
X145449219Y-81917510D02*
X145446559Y-82069868D01*
X145446559Y-82069868D02*
X145407140Y-82145382D01*
X145407140Y-82145382D02*
X145368386Y-82182807D01*
X145368386Y-82182807D02*
X145291542Y-82219566D01*
X145291542Y-82219566D02*
X145063006Y-82215577D01*
X145063006Y-82215577D02*
X144987491Y-82176158D01*
X144987491Y-82176158D02*
X144950067Y-82137404D01*
X144950067Y-82137404D02*
X144913307Y-82060560D01*
X144913307Y-82060560D02*
X144915967Y-81908202D01*
X144915967Y-81908202D02*
X144955386Y-81832688D01*
X145456532Y-81498527D02*
X144656654Y-81484565D01*
X145153146Y-81417029D02*
X145461851Y-81193811D01*
X144928599Y-81184503D02*
X145227995Y-81494538D01*
D10*
X196720189Y-60500763D02*
X196720189Y-59700763D01*
X196720189Y-59700763D02*
X197024951Y-59700763D01*
X197024951Y-59700763D02*
X197101141Y-59738858D01*
X197101141Y-59738858D02*
X197139236Y-59776953D01*
X197139236Y-59776953D02*
X197177332Y-59853144D01*
X197177332Y-59853144D02*
X197177332Y-59967429D01*
X197177332Y-59967429D02*
X197139236Y-60043620D01*
X197139236Y-60043620D02*
X197101141Y-60081715D01*
X197101141Y-60081715D02*
X197024951Y-60119810D01*
X197024951Y-60119810D02*
X196720189Y-60119810D01*
X197672570Y-59700763D02*
X197748760Y-59700763D01*
X197748760Y-59700763D02*
X197824951Y-59738858D01*
X197824951Y-59738858D02*
X197863046Y-59776953D01*
X197863046Y-59776953D02*
X197901141Y-59853144D01*
X197901141Y-59853144D02*
X197939236Y-60005525D01*
X197939236Y-60005525D02*
X197939236Y-60196001D01*
X197939236Y-60196001D02*
X197901141Y-60348382D01*
X197901141Y-60348382D02*
X197863046Y-60424572D01*
X197863046Y-60424572D02*
X197824951Y-60462668D01*
X197824951Y-60462668D02*
X197748760Y-60500763D01*
X197748760Y-60500763D02*
X197672570Y-60500763D01*
X197672570Y-60500763D02*
X197596379Y-60462668D01*
X197596379Y-60462668D02*
X197558284Y-60424572D01*
X197558284Y-60424572D02*
X197520189Y-60348382D01*
X197520189Y-60348382D02*
X197482093Y-60196001D01*
X197482093Y-60196001D02*
X197482093Y-60005525D01*
X197482093Y-60005525D02*
X197520189Y-59853144D01*
X197520189Y-59853144D02*
X197558284Y-59776953D01*
X197558284Y-59776953D02*
X197596379Y-59738858D01*
X197596379Y-59738858D02*
X197672570Y-59700763D01*
X198701141Y-60500763D02*
X198243998Y-60500763D01*
X198472570Y-60500763D02*
X198472570Y-59700763D01*
X198472570Y-59700763D02*
X198396379Y-59815048D01*
X198396379Y-59815048D02*
X198320189Y-59891239D01*
X198320189Y-59891239D02*
X198243998Y-59929334D01*
X196720189Y-63040763D02*
X196720189Y-62240763D01*
X196720189Y-62240763D02*
X197024951Y-62240763D01*
X197024951Y-62240763D02*
X197101141Y-62278858D01*
X197101141Y-62278858D02*
X197139236Y-62316953D01*
X197139236Y-62316953D02*
X197177332Y-62393144D01*
X197177332Y-62393144D02*
X197177332Y-62507429D01*
X197177332Y-62507429D02*
X197139236Y-62583620D01*
X197139236Y-62583620D02*
X197101141Y-62621715D01*
X197101141Y-62621715D02*
X197024951Y-62659810D01*
X197024951Y-62659810D02*
X196720189Y-62659810D01*
X197672570Y-62240763D02*
X197748760Y-62240763D01*
X197748760Y-62240763D02*
X197824951Y-62278858D01*
X197824951Y-62278858D02*
X197863046Y-62316953D01*
X197863046Y-62316953D02*
X197901141Y-62393144D01*
X197901141Y-62393144D02*
X197939236Y-62545525D01*
X197939236Y-62545525D02*
X197939236Y-62736001D01*
X197939236Y-62736001D02*
X197901141Y-62888382D01*
X197901141Y-62888382D02*
X197863046Y-62964572D01*
X197863046Y-62964572D02*
X197824951Y-63002668D01*
X197824951Y-63002668D02*
X197748760Y-63040763D01*
X197748760Y-63040763D02*
X197672570Y-63040763D01*
X197672570Y-63040763D02*
X197596379Y-63002668D01*
X197596379Y-63002668D02*
X197558284Y-62964572D01*
X197558284Y-62964572D02*
X197520189Y-62888382D01*
X197520189Y-62888382D02*
X197482093Y-62736001D01*
X197482093Y-62736001D02*
X197482093Y-62545525D01*
X197482093Y-62545525D02*
X197520189Y-62393144D01*
X197520189Y-62393144D02*
X197558284Y-62316953D01*
X197558284Y-62316953D02*
X197596379Y-62278858D01*
X197596379Y-62278858D02*
X197672570Y-62240763D01*
X198434475Y-62240763D02*
X198510665Y-62240763D01*
X198510665Y-62240763D02*
X198586856Y-62278858D01*
X198586856Y-62278858D02*
X198624951Y-62316953D01*
X198624951Y-62316953D02*
X198663046Y-62393144D01*
X198663046Y-62393144D02*
X198701141Y-62545525D01*
X198701141Y-62545525D02*
X198701141Y-62736001D01*
X198701141Y-62736001D02*
X198663046Y-62888382D01*
X198663046Y-62888382D02*
X198624951Y-62964572D01*
X198624951Y-62964572D02*
X198586856Y-63002668D01*
X198586856Y-63002668D02*
X198510665Y-63040763D01*
X198510665Y-63040763D02*
X198434475Y-63040763D01*
X198434475Y-63040763D02*
X198358284Y-63002668D01*
X198358284Y-63002668D02*
X198320189Y-62964572D01*
X198320189Y-62964572D02*
X198282094Y-62888382D01*
X198282094Y-62888382D02*
X198243998Y-62736001D01*
X198243998Y-62736001D02*
X198243998Y-62545525D01*
X198243998Y-62545525D02*
X198282094Y-62393144D01*
X198282094Y-62393144D02*
X198320189Y-62316953D01*
X198320189Y-62316953D02*
X198358284Y-62278858D01*
X198358284Y-62278858D02*
X198434475Y-62240763D01*
X190878522Y-65580764D02*
X190611855Y-65199811D01*
X190421379Y-65580764D02*
X190421379Y-64780764D01*
X190421379Y-64780764D02*
X190726141Y-64780764D01*
X190726141Y-64780764D02*
X190802331Y-64818859D01*
X190802331Y-64818859D02*
X190840426Y-64856954D01*
X190840426Y-64856954D02*
X190878522Y-64933145D01*
X190878522Y-64933145D02*
X190878522Y-65047430D01*
X190878522Y-65047430D02*
X190840426Y-65123621D01*
X190840426Y-65123621D02*
X190802331Y-65161716D01*
X190802331Y-65161716D02*
X190726141Y-65199811D01*
X190726141Y-65199811D02*
X190421379Y-65199811D01*
X191183283Y-65542669D02*
X191297569Y-65580764D01*
X191297569Y-65580764D02*
X191488045Y-65580764D01*
X191488045Y-65580764D02*
X191564236Y-65542669D01*
X191564236Y-65542669D02*
X191602331Y-65504573D01*
X191602331Y-65504573D02*
X191640426Y-65428383D01*
X191640426Y-65428383D02*
X191640426Y-65352192D01*
X191640426Y-65352192D02*
X191602331Y-65276002D01*
X191602331Y-65276002D02*
X191564236Y-65237907D01*
X191564236Y-65237907D02*
X191488045Y-65199811D01*
X191488045Y-65199811D02*
X191335664Y-65161716D01*
X191335664Y-65161716D02*
X191259474Y-65123621D01*
X191259474Y-65123621D02*
X191221379Y-65085526D01*
X191221379Y-65085526D02*
X191183283Y-65009335D01*
X191183283Y-65009335D02*
X191183283Y-64933145D01*
X191183283Y-64933145D02*
X191221379Y-64856954D01*
X191221379Y-64856954D02*
X191259474Y-64818859D01*
X191259474Y-64818859D02*
X191335664Y-64780764D01*
X191335664Y-64780764D02*
X191526141Y-64780764D01*
X191526141Y-64780764D02*
X191640426Y-64818859D01*
X191868998Y-64780764D02*
X192326141Y-64780764D01*
X192097569Y-65580764D02*
X192097569Y-64780764D01*
X190878522Y-60500762D02*
X190611855Y-60119809D01*
X190421379Y-60500762D02*
X190421379Y-59700762D01*
X190421379Y-59700762D02*
X190726141Y-59700762D01*
X190726141Y-59700762D02*
X190802331Y-59738857D01*
X190802331Y-59738857D02*
X190840426Y-59776952D01*
X190840426Y-59776952D02*
X190878522Y-59853143D01*
X190878522Y-59853143D02*
X190878522Y-59967428D01*
X190878522Y-59967428D02*
X190840426Y-60043619D01*
X190840426Y-60043619D02*
X190802331Y-60081714D01*
X190802331Y-60081714D02*
X190726141Y-60119809D01*
X190726141Y-60119809D02*
X190421379Y-60119809D01*
X191183283Y-60272190D02*
X191564236Y-60272190D01*
X191107093Y-60500762D02*
X191373760Y-59700762D01*
X191373760Y-59700762D02*
X191640426Y-60500762D01*
X191830902Y-59700762D02*
X192021378Y-60500762D01*
X192021378Y-60500762D02*
X192173759Y-59929333D01*
X192173759Y-59929333D02*
X192326140Y-60500762D01*
X192326140Y-60500762D02*
X192516617Y-59700762D01*
X190821378Y-62278856D02*
X190745188Y-62240761D01*
X190745188Y-62240761D02*
X190630902Y-62240761D01*
X190630902Y-62240761D02*
X190516616Y-62278856D01*
X190516616Y-62278856D02*
X190440426Y-62355046D01*
X190440426Y-62355046D02*
X190402331Y-62431237D01*
X190402331Y-62431237D02*
X190364235Y-62583618D01*
X190364235Y-62583618D02*
X190364235Y-62697904D01*
X190364235Y-62697904D02*
X190402331Y-62850285D01*
X190402331Y-62850285D02*
X190440426Y-62926475D01*
X190440426Y-62926475D02*
X190516616Y-63002666D01*
X190516616Y-63002666D02*
X190630902Y-63040761D01*
X190630902Y-63040761D02*
X190707093Y-63040761D01*
X190707093Y-63040761D02*
X190821378Y-63002666D01*
X190821378Y-63002666D02*
X190859474Y-62964570D01*
X190859474Y-62964570D02*
X190859474Y-62697904D01*
X190859474Y-62697904D02*
X190707093Y-62697904D01*
X191202331Y-63040761D02*
X191202331Y-62240761D01*
X191202331Y-62240761D02*
X191659474Y-63040761D01*
X191659474Y-63040761D02*
X191659474Y-62240761D01*
X192040426Y-63040761D02*
X192040426Y-62240761D01*
X192040426Y-62240761D02*
X192230902Y-62240761D01*
X192230902Y-62240761D02*
X192345188Y-62278856D01*
X192345188Y-62278856D02*
X192421378Y-62355046D01*
X192421378Y-62355046D02*
X192459473Y-62431237D01*
X192459473Y-62431237D02*
X192497569Y-62583618D01*
X192497569Y-62583618D02*
X192497569Y-62697904D01*
X192497569Y-62697904D02*
X192459473Y-62850285D01*
X192459473Y-62850285D02*
X192421378Y-62926475D01*
X192421378Y-62926475D02*
X192345188Y-63002666D01*
X192345188Y-63002666D02*
X192230902Y-63040761D01*
X192230902Y-63040761D02*
X192040426Y-63040761D01*
D12*
%TO.C,REF\u002A\u002A*%
X124957050Y-85249668D02*
G75*
G02*
X126063196Y-81117796I20266976J-3211685D01*
G01*
X125818582Y-95131757D02*
G75*
G02*
X124857311Y-90963798I19405457J6670381D01*
G01*
X138553694Y-69055864D02*
G75*
G02*
X142721654Y-68094592I6670429J-19405664D01*
G01*
X142012386Y-108728402D02*
G75*
G02*
X137880517Y-107622258I3211699J20267035D01*
G01*
X144283240Y-77707445D02*
G75*
G02*
X145412484Y-77668011I940841J-10753842D01*
G01*
X145035686Y-99254722D02*
G75*
G02*
X143908507Y-99175902I188391J10793276D01*
G01*
X145412484Y-77668012D02*
G75*
G02*
X146539663Y-77746832I-188397J-10793255D01*
G01*
X146164930Y-99215289D02*
G75*
G02*
X145035686Y-99254723I-940820J10753110D01*
G01*
X148435784Y-68194332D02*
G75*
G02*
X152567656Y-69300478I-3211699J-20267035D01*
G01*
X151894475Y-107866870D02*
G75*
G02*
X147726516Y-108828142I-6670472J19405844D01*
G01*
X164629589Y-81790979D02*
G75*
G02*
X165590860Y-85958936I-19405914J-6670483D01*
G01*
X165491120Y-91673066D02*
G75*
G02*
X164384975Y-95804935I-20266866J3211657D01*
G01*
D13*
X143380326Y-100879389D02*
X143351814Y-102512698D01*
X144168648Y-101724135D01*
X144456919Y-101732261D01*
X144745186Y-101740385D01*
X143883082Y-102585606D01*
X143763084Y-102703253D01*
X143646270Y-102817779D01*
X143533876Y-102927976D01*
X143427141Y-103032620D01*
X143327302Y-103130505D01*
X143235607Y-103220411D01*
X143153286Y-103301124D01*
X143081582Y-103371428D01*
X143021733Y-103430109D01*
X142974979Y-103475954D01*
X142942558Y-103507745D01*
X142928536Y-103521502D01*
X142836094Y-103612175D01*
X142883940Y-100870727D01*
X143380326Y-100879389D01*
G36*
X143380326Y-100879389D02*
G01*
X143351814Y-102512698D01*
X144168648Y-101724135D01*
X144456919Y-101732261D01*
X144745186Y-101740385D01*
X143883082Y-102585606D01*
X143763084Y-102703253D01*
X143646270Y-102817779D01*
X143533876Y-102927976D01*
X143427141Y-103032620D01*
X143327302Y-103130505D01*
X143235607Y-103220411D01*
X143153286Y-103301124D01*
X143081582Y-103371428D01*
X143021733Y-103430109D01*
X142974979Y-103475954D01*
X142942558Y-103507745D01*
X142928536Y-103521502D01*
X142836094Y-103612175D01*
X142883940Y-100870727D01*
X143380326Y-100879389D01*
G37*
X144151377Y-102933249D02*
X144173679Y-102956503D01*
X144207534Y-102992631D01*
X144250989Y-103039486D01*
X144302098Y-103094935D01*
X144358903Y-103156831D01*
X144419457Y-103223033D01*
X144481806Y-103291400D01*
X144543997Y-103359794D01*
X144604079Y-103426073D01*
X144660103Y-103488094D01*
X144710110Y-103543717D01*
X144752154Y-103590805D01*
X144784283Y-103627210D01*
X144804544Y-103650795D01*
X144806788Y-103653526D01*
X144834494Y-103687651D01*
X144214577Y-103676834D01*
X144044328Y-103497763D01*
X143991549Y-103442089D01*
X143942170Y-103389706D01*
X143899152Y-103343770D01*
X143865436Y-103307428D01*
X143843976Y-103283843D01*
X143840858Y-103280295D01*
X143807641Y-103241896D01*
X143971472Y-103083386D01*
X144022034Y-103034805D01*
X144067010Y-102992260D01*
X144103758Y-102958183D01*
X144129646Y-102935011D01*
X144142052Y-102925178D01*
X144142584Y-102925006D01*
X144151377Y-102933249D01*
G36*
X144151377Y-102933249D02*
G01*
X144173679Y-102956503D01*
X144207534Y-102992631D01*
X144250989Y-103039486D01*
X144302098Y-103094935D01*
X144358903Y-103156831D01*
X144419457Y-103223033D01*
X144481806Y-103291400D01*
X144543997Y-103359794D01*
X144604079Y-103426073D01*
X144660103Y-103488094D01*
X144710110Y-103543717D01*
X144752154Y-103590805D01*
X144784283Y-103627210D01*
X144804544Y-103650795D01*
X144806788Y-103653526D01*
X144834494Y-103687651D01*
X144214577Y-103676834D01*
X144044328Y-103497763D01*
X143991549Y-103442089D01*
X143942170Y-103389706D01*
X143899152Y-103343770D01*
X143865436Y-103307428D01*
X143843976Y-103283843D01*
X143840858Y-103280295D01*
X143807641Y-103241896D01*
X143971472Y-103083386D01*
X144022034Y-103034805D01*
X144067010Y-102992260D01*
X144103758Y-102958183D01*
X144129646Y-102935011D01*
X144142052Y-102925178D01*
X144142584Y-102925006D01*
X144151377Y-102933249D01*
G37*
X145576316Y-101417136D02*
X145574682Y-101521366D01*
X145573483Y-101618110D01*
X145572715Y-101704990D01*
X145572389Y-101779656D01*
X145572508Y-101839744D01*
X145573082Y-101882882D01*
X145574117Y-101906713D01*
X145574951Y-101910758D01*
X145587493Y-101904660D01*
X145612621Y-101888755D01*
X145637064Y-101871980D01*
X145752965Y-101803267D01*
X145876020Y-101756303D01*
X146006865Y-101730907D01*
X146146159Y-101726897D01*
X146163956Y-101727878D01*
X146253463Y-101735993D01*
X146329725Y-101749264D01*
X146401025Y-101770002D01*
X146475641Y-101800524D01*
X146544913Y-101834379D01*
X146671512Y-101911909D01*
X146782811Y-102005829D01*
X146877822Y-102114494D01*
X146955568Y-102236190D01*
X147015064Y-102369238D01*
X147055334Y-102511934D01*
X147075389Y-102662583D01*
X147077384Y-102752302D01*
X147064434Y-102904578D01*
X147030559Y-103048573D01*
X146974990Y-103186859D01*
X146915879Y-103292763D01*
X146828082Y-103411542D01*
X146724652Y-103514601D01*
X146607797Y-103600897D01*
X146479706Y-103669387D01*
X146342584Y-103719023D01*
X146198623Y-103748767D01*
X146050041Y-103757576D01*
X145949873Y-103751329D01*
X145805721Y-103723942D01*
X145665983Y-103675221D01*
X145533982Y-103606927D01*
X145413045Y-103520806D01*
X145306509Y-103418603D01*
X145298271Y-103409294D01*
X145218968Y-103303774D01*
X145151349Y-103184396D01*
X145098390Y-103057588D01*
X145063065Y-102929784D01*
X145055004Y-102883195D01*
X145052884Y-102854758D01*
X145051411Y-102804653D01*
X145050927Y-102762965D01*
X145547088Y-102762965D01*
X145555955Y-102860681D01*
X145584743Y-102955218D01*
X145612446Y-103009854D01*
X145677828Y-103099293D01*
X145756061Y-103171544D01*
X145844564Y-103225603D01*
X145940756Y-103260408D01*
X146042059Y-103274972D01*
X146145892Y-103268263D01*
X146219046Y-103250248D01*
X146262317Y-103234914D01*
X146303521Y-103218270D01*
X146319821Y-103210779D01*
X146365638Y-103180569D01*
X146415760Y-103135242D01*
X146464778Y-103080635D01*
X146507285Y-103022580D01*
X146529436Y-102984627D01*
X146550384Y-102940740D01*
X146563704Y-102902360D01*
X146571792Y-102860210D01*
X146577085Y-102804991D01*
X146577454Y-102799697D01*
X146575959Y-102692410D01*
X146554815Y-102594136D01*
X146512797Y-102499949D01*
X146495529Y-102471130D01*
X146432357Y-102392111D01*
X146354639Y-102328576D01*
X146265807Y-102281520D01*
X146169312Y-102251954D01*
X146068581Y-102240874D01*
X145967070Y-102249287D01*
X145868205Y-102278191D01*
X145854095Y-102284229D01*
X145765233Y-102335636D01*
X145690062Y-102402550D01*
X145629626Y-102481853D01*
X145584960Y-102570435D01*
X145557100Y-102665174D01*
X145547088Y-102762965D01*
X145050927Y-102762965D01*
X145050826Y-102754301D01*
X145050590Y-102734291D01*
X145050407Y-102645083D01*
X145050868Y-102538448D01*
X145051963Y-102415791D01*
X145053693Y-102278532D01*
X145056059Y-102128074D01*
X145056263Y-102116342D01*
X145068246Y-101424730D01*
X145584775Y-100923642D01*
X145576316Y-101417136D01*
G36*
X145576316Y-101417136D02*
G01*
X145574682Y-101521366D01*
X145573483Y-101618110D01*
X145572715Y-101704990D01*
X145572389Y-101779656D01*
X145572508Y-101839744D01*
X145573082Y-101882882D01*
X145574117Y-101906713D01*
X145574951Y-101910758D01*
X145587493Y-101904660D01*
X145612621Y-101888755D01*
X145637064Y-101871980D01*
X145752965Y-101803267D01*
X145876020Y-101756303D01*
X146006865Y-101730907D01*
X146146159Y-101726897D01*
X146163956Y-101727878D01*
X146253463Y-101735993D01*
X146329725Y-101749264D01*
X146401025Y-101770002D01*
X146475641Y-101800524D01*
X146544913Y-101834379D01*
X146671512Y-101911909D01*
X146782811Y-102005829D01*
X146877822Y-102114494D01*
X146955568Y-102236190D01*
X147015064Y-102369238D01*
X147055334Y-102511934D01*
X147075389Y-102662583D01*
X147077384Y-102752302D01*
X147064434Y-102904578D01*
X147030559Y-103048573D01*
X146974990Y-103186859D01*
X146915879Y-103292763D01*
X146828082Y-103411542D01*
X146724652Y-103514601D01*
X146607797Y-103600897D01*
X146479706Y-103669387D01*
X146342584Y-103719023D01*
X146198623Y-103748767D01*
X146050041Y-103757576D01*
X145949873Y-103751329D01*
X145805721Y-103723942D01*
X145665983Y-103675221D01*
X145533982Y-103606927D01*
X145413045Y-103520806D01*
X145306509Y-103418603D01*
X145298271Y-103409294D01*
X145218968Y-103303774D01*
X145151349Y-103184396D01*
X145098390Y-103057588D01*
X145063065Y-102929784D01*
X145055004Y-102883195D01*
X145052884Y-102854758D01*
X145051411Y-102804653D01*
X145050927Y-102762965D01*
X145547088Y-102762965D01*
X145555955Y-102860681D01*
X145584743Y-102955218D01*
X145612446Y-103009854D01*
X145677828Y-103099293D01*
X145756061Y-103171544D01*
X145844564Y-103225603D01*
X145940756Y-103260408D01*
X146042059Y-103274972D01*
X146145892Y-103268263D01*
X146219046Y-103250248D01*
X146262317Y-103234914D01*
X146303521Y-103218270D01*
X146319821Y-103210779D01*
X146365638Y-103180569D01*
X146415760Y-103135242D01*
X146464778Y-103080635D01*
X146507285Y-103022580D01*
X146529436Y-102984627D01*
X146550384Y-102940740D01*
X146563704Y-102902360D01*
X146571792Y-102860210D01*
X146577085Y-102804991D01*
X146577454Y-102799697D01*
X146575959Y-102692410D01*
X146554815Y-102594136D01*
X146512797Y-102499949D01*
X146495529Y-102471130D01*
X146432357Y-102392111D01*
X146354639Y-102328576D01*
X146265807Y-102281520D01*
X146169312Y-102251954D01*
X146068581Y-102240874D01*
X145967070Y-102249287D01*
X145868205Y-102278191D01*
X145854095Y-102284229D01*
X145765233Y-102335636D01*
X145690062Y-102402550D01*
X145629626Y-102481853D01*
X145584960Y-102570435D01*
X145557100Y-102665174D01*
X145547088Y-102762965D01*
X145050927Y-102762965D01*
X145050826Y-102754301D01*
X145050590Y-102734291D01*
X145050407Y-102645083D01*
X145050868Y-102538448D01*
X145051963Y-102415791D01*
X145053693Y-102278532D01*
X145056059Y-102128074D01*
X145056263Y-102116342D01*
X145068246Y-101424730D01*
X145584775Y-100923642D01*
X145576316Y-101417136D01*
G37*
D14*
X167754216Y-62669489D02*
X168208342Y-62669489D01*
X167754216Y-64139489D02*
X168208342Y-64139489D01*
X167754215Y-60082944D02*
X168208341Y-60082944D01*
X167754215Y-61552944D02*
X168208341Y-61552944D01*
X167754215Y-57519488D02*
X168208341Y-57519488D01*
X167754215Y-58989488D02*
X168208341Y-58989488D01*
%TO.C,MCU1*%
X186891618Y-59138468D02*
X189691618Y-59138468D01*
X186891617Y-59808467D02*
X186891618Y-59138468D01*
X186891617Y-61138469D02*
X186891617Y-60458467D01*
X186891618Y-61678468D02*
X189691618Y-61678468D01*
X186891616Y-62358468D02*
X186891618Y-61678468D01*
X186891618Y-63678468D02*
X186891619Y-63008469D01*
X186891619Y-64218468D02*
X189691616Y-64218467D01*
X186891618Y-64883467D02*
X186891619Y-64218468D01*
X186891618Y-66218468D02*
X186891617Y-65533468D01*
X189691618Y-59138468D02*
X189691618Y-61138467D01*
X189691618Y-61138467D02*
X186891617Y-61138469D01*
X189691618Y-61678468D02*
X189691616Y-63678468D01*
X189691616Y-63678468D02*
X186891618Y-63678468D01*
X189691616Y-64218467D02*
X189691618Y-66218468D01*
X189691618Y-66218468D02*
X186891618Y-66218468D01*
%TD*%
M02*
