%TF.GenerationSoftware,KiCad,Pcbnew,8.0.6-1.fc41*%
%TF.CreationDate,2024-12-09T09:59:40+11:00*%
%TF.ProjectId,pueo-mx-spaced,7075656f-2d6d-4782-9d73-70616365642e,0.1*%
%TF.SameCoordinates,Original*%
%TF.FileFunction,Legend,Bot*%
%TF.FilePolarity,Positive*%
%FSLAX46Y46*%
G04 Gerber Fmt 4.6, Leading zero omitted, Abs format (unit mm)*
G04 Created by KiCad (PCBNEW 8.0.6-1.fc41) date 2024-12-09 09:59:40*
%MOMM*%
%LPD*%
G01*
G04 APERTURE LIST*
%ADD10C,0.100000*%
%ADD11C,0.150000*%
%ADD12C,0.200000*%
%ADD13C,0.010000*%
%ADD14C,0.120000*%
G04 APERTURE END LIST*
D10*
X144957413Y-79533852D02*
X144952094Y-79838567D01*
X144688792Y-79643466D02*
X145374402Y-79655434D01*
X145374402Y-79655434D02*
X145449916Y-79694853D01*
X145449916Y-79694853D02*
X145486676Y-79771697D01*
X145486676Y-79771697D02*
X145485346Y-79847875D01*
X145437284Y-80418552D02*
X145476703Y-80343038D01*
X145476703Y-80343038D02*
X145479362Y-80190680D01*
X145479362Y-80190680D02*
X145442603Y-80113837D01*
X145442603Y-80113837D02*
X145367089Y-80074418D01*
X145367089Y-80074418D02*
X145062373Y-80069099D01*
X145062373Y-80069099D02*
X144985530Y-80105858D01*
X144985530Y-80105858D02*
X144946110Y-80181372D01*
X144946110Y-80181372D02*
X144943451Y-80333730D01*
X144943451Y-80333730D02*
X144980211Y-80410574D01*
X144980211Y-80410574D02*
X145055725Y-80449993D01*
X145055725Y-80449993D02*
X145131904Y-80451323D01*
X145131904Y-80451323D02*
X145214731Y-80071758D01*
X144935473Y-80790803D02*
X145468725Y-80800111D01*
X145011652Y-80792133D02*
X144972897Y-80829557D01*
X144972897Y-80829557D02*
X144933478Y-80905071D01*
X144933478Y-80905071D02*
X144931484Y-81019340D01*
X144931484Y-81019340D02*
X144968243Y-81096184D01*
X144968243Y-81096184D02*
X145043757Y-81135603D01*
X145043757Y-81135603D02*
X145462741Y-81142916D01*
X144924835Y-81400235D02*
X144919516Y-81704950D01*
X144656214Y-81509849D02*
X145341824Y-81521816D01*
X145341824Y-81521816D02*
X145417338Y-81561235D01*
X145417338Y-81561235D02*
X145454098Y-81638079D01*
X145454098Y-81638079D02*
X145452768Y-81714258D01*
X145448114Y-81980884D02*
X144914862Y-81971576D01*
X144648236Y-81966922D02*
X144686990Y-81929498D01*
X144686990Y-81929498D02*
X144724415Y-81968252D01*
X144724415Y-81968252D02*
X144685661Y-82005677D01*
X144685661Y-82005677D02*
X144648236Y-81966922D01*
X144648236Y-81966922D02*
X144724415Y-81968252D01*
X144908214Y-82352470D02*
X145441466Y-82361778D01*
X144984393Y-82353800D02*
X144945638Y-82391225D01*
X144945638Y-82391225D02*
X144906219Y-82466739D01*
X144906219Y-82466739D02*
X144904225Y-82581007D01*
X144904225Y-82581007D02*
X144940984Y-82657851D01*
X144940984Y-82657851D02*
X145016498Y-82697270D01*
X145016498Y-82697270D02*
X145435482Y-82704583D01*
X144889598Y-83418975D02*
X145537118Y-83430277D01*
X145537118Y-83430277D02*
X145613962Y-83393518D01*
X145613962Y-83393518D02*
X145652716Y-83356093D01*
X145652716Y-83356093D02*
X145692135Y-83280579D01*
X145692135Y-83280579D02*
X145694130Y-83166311D01*
X145694130Y-83166311D02*
X145657370Y-83089467D01*
X145384760Y-83427618D02*
X145424180Y-83352104D01*
X145424180Y-83352104D02*
X145426839Y-83199746D01*
X145426839Y-83199746D02*
X145390079Y-83122903D01*
X145390079Y-83122903D02*
X145352655Y-83084148D01*
X145352655Y-83084148D02*
X145277141Y-83044729D01*
X145277141Y-83044729D02*
X145048604Y-83040740D01*
X145048604Y-83040740D02*
X144971760Y-83077500D01*
X144971760Y-83077500D02*
X144933006Y-83114924D01*
X144933006Y-83114924D02*
X144893587Y-83190438D01*
X144893587Y-83190438D02*
X144890928Y-83342796D01*
X144890928Y-83342796D02*
X144927687Y-83419640D01*
X145075802Y-95692381D02*
X144275924Y-95678419D01*
X145037713Y-95691716D02*
X145077132Y-95616202D01*
X145077132Y-95616202D02*
X145079791Y-95463845D01*
X145079791Y-95463845D02*
X145043031Y-95387001D01*
X145043031Y-95387001D02*
X145005607Y-95348247D01*
X145005607Y-95348247D02*
X144930093Y-95308827D01*
X144930093Y-95308827D02*
X144701556Y-95304838D01*
X144701556Y-95304838D02*
X144624713Y-95341598D01*
X144624713Y-95341598D02*
X144585958Y-95379023D01*
X144585958Y-95379023D02*
X144546539Y-95454537D01*
X144546539Y-95454537D02*
X144543880Y-95606894D01*
X144543880Y-95606894D02*
X144580639Y-95683738D01*
X145094418Y-94625877D02*
X144561166Y-94616569D01*
X145088434Y-94968681D02*
X144669450Y-94961368D01*
X144669450Y-94961368D02*
X144593936Y-94921949D01*
X144593936Y-94921949D02*
X144557177Y-94845105D01*
X144557177Y-94845105D02*
X144559171Y-94730837D01*
X144559171Y-94730837D02*
X144598590Y-94655323D01*
X144598590Y-94655323D02*
X144637345Y-94617898D01*
X144611888Y-93893534D02*
X144572468Y-93969048D01*
X144572468Y-93969048D02*
X144569809Y-94121405D01*
X144569809Y-94121405D02*
X144606569Y-94198249D01*
X144606569Y-94198249D02*
X144643993Y-94237003D01*
X144643993Y-94237003D02*
X144719507Y-94276423D01*
X144719507Y-94276423D02*
X144948044Y-94280412D01*
X144948044Y-94280412D02*
X145024888Y-94243652D01*
X145024888Y-94243652D02*
X145063642Y-94206227D01*
X145063642Y-94206227D02*
X145103061Y-94130713D01*
X145103061Y-94130713D02*
X145105720Y-93978356D01*
X145105720Y-93978356D02*
X145068961Y-93901512D01*
X144579782Y-93550064D02*
X145379660Y-93564026D01*
X144885827Y-93479204D02*
X144585101Y-93245349D01*
X145118353Y-93254657D02*
X144808318Y-93554053D01*
D11*
X194997462Y-65572704D02*
X195264129Y-65191751D01*
X195454605Y-65572704D02*
X195454605Y-64772704D01*
X195454605Y-64772704D02*
X195149843Y-64772704D01*
X195149843Y-64772704D02*
X195073653Y-64810799D01*
X195073653Y-64810799D02*
X195035558Y-64848894D01*
X195035558Y-64848894D02*
X194997462Y-64925085D01*
X194997462Y-64925085D02*
X194997462Y-65039370D01*
X194997462Y-65039370D02*
X195035558Y-65115561D01*
X195035558Y-65115561D02*
X195073653Y-65153656D01*
X195073653Y-65153656D02*
X195149843Y-65191751D01*
X195149843Y-65191751D02*
X195454605Y-65191751D01*
X194692701Y-65534609D02*
X194578415Y-65572704D01*
X194578415Y-65572704D02*
X194387939Y-65572704D01*
X194387939Y-65572704D02*
X194311748Y-65534609D01*
X194311748Y-65534609D02*
X194273653Y-65496513D01*
X194273653Y-65496513D02*
X194235558Y-65420323D01*
X194235558Y-65420323D02*
X194235558Y-65344132D01*
X194235558Y-65344132D02*
X194273653Y-65267942D01*
X194273653Y-65267942D02*
X194311748Y-65229847D01*
X194311748Y-65229847D02*
X194387939Y-65191751D01*
X194387939Y-65191751D02*
X194540320Y-65153656D01*
X194540320Y-65153656D02*
X194616510Y-65115561D01*
X194616510Y-65115561D02*
X194654605Y-65077466D01*
X194654605Y-65077466D02*
X194692701Y-65001275D01*
X194692701Y-65001275D02*
X194692701Y-64925085D01*
X194692701Y-64925085D02*
X194654605Y-64848894D01*
X194654605Y-64848894D02*
X194616510Y-64810799D01*
X194616510Y-64810799D02*
X194540320Y-64772704D01*
X194540320Y-64772704D02*
X194349843Y-64772704D01*
X194349843Y-64772704D02*
X194235558Y-64810799D01*
X194006986Y-64772704D02*
X193549843Y-64772704D01*
X193778415Y-65572704D02*
X193778415Y-64772704D01*
X195054604Y-62270798D02*
X195130794Y-62232703D01*
X195130794Y-62232703D02*
X195245080Y-62232703D01*
X195245080Y-62232703D02*
X195359366Y-62270798D01*
X195359366Y-62270798D02*
X195435556Y-62346988D01*
X195435556Y-62346988D02*
X195473651Y-62423179D01*
X195473651Y-62423179D02*
X195511747Y-62575560D01*
X195511747Y-62575560D02*
X195511747Y-62689846D01*
X195511747Y-62689846D02*
X195473651Y-62842227D01*
X195473651Y-62842227D02*
X195435556Y-62918417D01*
X195435556Y-62918417D02*
X195359366Y-62994608D01*
X195359366Y-62994608D02*
X195245080Y-63032703D01*
X195245080Y-63032703D02*
X195168889Y-63032703D01*
X195168889Y-63032703D02*
X195054604Y-62994608D01*
X195054604Y-62994608D02*
X195016508Y-62956512D01*
X195016508Y-62956512D02*
X195016508Y-62689846D01*
X195016508Y-62689846D02*
X195168889Y-62689846D01*
X194673651Y-63032703D02*
X194673651Y-62232703D01*
X194673651Y-62232703D02*
X194216508Y-63032703D01*
X194216508Y-63032703D02*
X194216508Y-62232703D01*
X193835556Y-63032703D02*
X193835556Y-62232703D01*
X193835556Y-62232703D02*
X193645080Y-62232703D01*
X193645080Y-62232703D02*
X193530794Y-62270798D01*
X193530794Y-62270798D02*
X193454604Y-62346988D01*
X193454604Y-62346988D02*
X193416509Y-62423179D01*
X193416509Y-62423179D02*
X193378413Y-62575560D01*
X193378413Y-62575560D02*
X193378413Y-62689846D01*
X193378413Y-62689846D02*
X193416509Y-62842227D01*
X193416509Y-62842227D02*
X193454604Y-62918417D01*
X193454604Y-62918417D02*
X193530794Y-62994608D01*
X193530794Y-62994608D02*
X193645080Y-63032703D01*
X193645080Y-63032703D02*
X193835556Y-63032703D01*
X194997464Y-60492702D02*
X195264131Y-60111749D01*
X195454607Y-60492702D02*
X195454607Y-59692702D01*
X195454607Y-59692702D02*
X195149845Y-59692702D01*
X195149845Y-59692702D02*
X195073655Y-59730797D01*
X195073655Y-59730797D02*
X195035560Y-59768892D01*
X195035560Y-59768892D02*
X194997464Y-59845083D01*
X194997464Y-59845083D02*
X194997464Y-59959368D01*
X194997464Y-59959368D02*
X195035560Y-60035559D01*
X195035560Y-60035559D02*
X195073655Y-60073654D01*
X195073655Y-60073654D02*
X195149845Y-60111749D01*
X195149845Y-60111749D02*
X195454607Y-60111749D01*
X194692703Y-60264130D02*
X194311750Y-60264130D01*
X194768893Y-60492702D02*
X194502226Y-59692702D01*
X194502226Y-59692702D02*
X194235560Y-60492702D01*
X194045084Y-59692702D02*
X193854608Y-60492702D01*
X193854608Y-60492702D02*
X193702227Y-59921273D01*
X193702227Y-59921273D02*
X193549846Y-60492702D01*
X193549846Y-60492702D02*
X193359370Y-59692702D01*
D12*
%TO.C,REF\u002A\u002A*%
X124957050Y-85249668D02*
G75*
G02*
X126063198Y-81117789I20267113J-3211720D01*
G01*
X125818581Y-95131756D02*
G75*
G02*
X124857310Y-90963798I19405504J6670389D01*
G01*
X138553696Y-69055863D02*
G75*
G02*
X142721654Y-68094592I6670389J-19405504D01*
G01*
X142012386Y-108728402D02*
G75*
G02*
X137880517Y-107622257I3211660J20266882D01*
G01*
X144283240Y-77707445D02*
G75*
G02*
X145412484Y-77668011I940841J-10753842D01*
G01*
X145035686Y-99254722D02*
G75*
G02*
X143908507Y-99175902I188391J10793276D01*
G01*
X145412484Y-77668012D02*
G75*
G02*
X146539663Y-77746832I-188397J-10793255D01*
G01*
X146164930Y-99215289D02*
G75*
G02*
X145035686Y-99254723I-940820J10753110D01*
G01*
X148435784Y-68194332D02*
G75*
G02*
X152567658Y-69300476I-3211702J-20267078D01*
G01*
X151894473Y-107866871D02*
G75*
G02*
X147726516Y-108828142I-6670483J19405914D01*
G01*
X164629588Y-81790976D02*
G75*
G02*
X165590860Y-85958936I-19405660J-6670428D01*
G01*
X165491120Y-91673066D02*
G75*
G02*
X164384974Y-95804938I-20267148J3211730D01*
G01*
D13*
X147086839Y-100980264D02*
X147038984Y-103721722D01*
X146949766Y-103627875D01*
X146936228Y-103613639D01*
X146904938Y-103580736D01*
X146859809Y-103533286D01*
X146802048Y-103472552D01*
X146732838Y-103399789D01*
X146653384Y-103316251D01*
X146564883Y-103223199D01*
X146468523Y-103121891D01*
X146365506Y-103013583D01*
X146257026Y-102899535D01*
X146144279Y-102780999D01*
X146028459Y-102659236D01*
X145196379Y-101784445D01*
X145484755Y-101786385D01*
X145773131Y-101788324D01*
X146561948Y-102604914D01*
X146590456Y-100971604D01*
X147086839Y-100980264D01*
G36*
X147086839Y-100980264D02*
G01*
X147038984Y-103721722D01*
X146949766Y-103627875D01*
X146936228Y-103613639D01*
X146904938Y-103580736D01*
X146859809Y-103533286D01*
X146802048Y-103472552D01*
X146732838Y-103399789D01*
X146653384Y-103316251D01*
X146564883Y-103223199D01*
X146468523Y-103121891D01*
X146365506Y-103013583D01*
X146257026Y-102899535D01*
X146144279Y-102780999D01*
X146028459Y-102659236D01*
X145196379Y-101784445D01*
X145484755Y-101786385D01*
X145773131Y-101788324D01*
X146561948Y-102604914D01*
X146590456Y-100971604D01*
X147086839Y-100980264D01*
G37*
X145757799Y-102989563D02*
X145769843Y-102999823D01*
X145794915Y-103023886D01*
X145830451Y-103059224D01*
X145873912Y-103103312D01*
X145922755Y-103153629D01*
X146080949Y-103317757D01*
X146046412Y-103354977D01*
X146043175Y-103358413D01*
X146020906Y-103381235D01*
X145985940Y-103416378D01*
X145941342Y-103460789D01*
X145890168Y-103511414D01*
X145835478Y-103565211D01*
X145659084Y-103738227D01*
X145039163Y-103727406D01*
X145068047Y-103694271D01*
X145070387Y-103691620D01*
X145091455Y-103668753D01*
X145124835Y-103633491D01*
X145168500Y-103587903D01*
X145220418Y-103534057D01*
X145278570Y-103474027D01*
X145340930Y-103409887D01*
X145405468Y-103343705D01*
X145470167Y-103277554D01*
X145532994Y-103213506D01*
X145591925Y-103153631D01*
X145644934Y-103100002D01*
X145690005Y-103054688D01*
X145725096Y-103019767D01*
X145748198Y-102997296D01*
X145757270Y-102989371D01*
X145757799Y-102989563D01*
G36*
X145757799Y-102989563D02*
G01*
X145769843Y-102999823D01*
X145794915Y-103023886D01*
X145830451Y-103059224D01*
X145873912Y-103103312D01*
X145922755Y-103153629D01*
X146080949Y-103317757D01*
X146046412Y-103354977D01*
X146043175Y-103358413D01*
X146020906Y-103381235D01*
X145985940Y-103416378D01*
X145941342Y-103460789D01*
X145890168Y-103511414D01*
X145835478Y-103565211D01*
X145659084Y-103738227D01*
X145039163Y-103727406D01*
X145068047Y-103694271D01*
X145070387Y-103691620D01*
X145091455Y-103668753D01*
X145124835Y-103633491D01*
X145168500Y-103587903D01*
X145220418Y-103534057D01*
X145278570Y-103474027D01*
X145340930Y-103409887D01*
X145405468Y-103343705D01*
X145470167Y-103277554D01*
X145532994Y-103213506D01*
X145591925Y-103153631D01*
X145644934Y-103100002D01*
X145690005Y-103054688D01*
X145725096Y-103019767D01*
X145748198Y-102997296D01*
X145757270Y-102989371D01*
X145757799Y-102989563D01*
G37*
X144884532Y-101457705D02*
X144872372Y-102149315D01*
X144872165Y-102161047D01*
X144869277Y-102311492D01*
X144866218Y-102448734D01*
X144863032Y-102571353D01*
X144859769Y-102677939D01*
X144856476Y-102767084D01*
X144855542Y-102787076D01*
X144853195Y-102837376D01*
X144849976Y-102887399D01*
X144846869Y-102915743D01*
X144837191Y-102962032D01*
X144797422Y-103088518D01*
X144740069Y-103213399D01*
X144668324Y-103330345D01*
X144585388Y-103433033D01*
X144576836Y-103442053D01*
X144466791Y-103540472D01*
X144342923Y-103622320D01*
X144208619Y-103685965D01*
X144067263Y-103729780D01*
X143922242Y-103752132D01*
X143821935Y-103754866D01*
X143673737Y-103740878D01*
X143530900Y-103706128D01*
X143395595Y-103651735D01*
X143269972Y-103578816D01*
X143156199Y-103488494D01*
X143056432Y-103381891D01*
X142972832Y-103260119D01*
X142917452Y-103152217D01*
X142866745Y-103012081D01*
X142837916Y-102866985D01*
X142833527Y-102779166D01*
X143328261Y-102779166D01*
X143328447Y-102784459D01*
X143331801Y-102839830D01*
X143338418Y-102882245D01*
X143350387Y-102921069D01*
X143369791Y-102965656D01*
X143390609Y-103004356D01*
X143431058Y-103063867D01*
X143478143Y-103120150D01*
X143526652Y-103167198D01*
X143571389Y-103198987D01*
X143587418Y-103207046D01*
X143628014Y-103225115D01*
X143670724Y-103241949D01*
X143743204Y-103262504D01*
X143846740Y-103272835D01*
X143948489Y-103261814D01*
X144045838Y-103230376D01*
X144136173Y-103179453D01*
X144216877Y-103109974D01*
X144285345Y-103022873D01*
X144314938Y-102969234D01*
X144347008Y-102875753D01*
X144359279Y-102778404D01*
X144352683Y-102680335D01*
X144328148Y-102584679D01*
X144286602Y-102494593D01*
X144228972Y-102413228D01*
X144156182Y-102343736D01*
X144069168Y-102289266D01*
X144055276Y-102282729D01*
X143957478Y-102250392D01*
X143856321Y-102238443D01*
X143755268Y-102245999D01*
X143657799Y-102272181D01*
X143567380Y-102316106D01*
X143487490Y-102376892D01*
X143421601Y-102453654D01*
X143403334Y-102481870D01*
X143358058Y-102574512D01*
X143333496Y-102671996D01*
X143328261Y-102779166D01*
X142833527Y-102779166D01*
X142830288Y-102714353D01*
X142835413Y-102624755D01*
X142860713Y-102474896D01*
X142905936Y-102333697D01*
X142970039Y-102202809D01*
X143051987Y-102083895D01*
X143150734Y-101978622D01*
X143265240Y-101888620D01*
X143394468Y-101815572D01*
X143464879Y-101784165D01*
X143540513Y-101756254D01*
X143612498Y-101738019D01*
X143689177Y-101727417D01*
X143778912Y-101722428D01*
X143796732Y-101722072D01*
X143935802Y-101730937D01*
X144065680Y-101760886D01*
X144187020Y-101812118D01*
X144300466Y-101884828D01*
X144324295Y-101902460D01*
X144348847Y-101919221D01*
X144361173Y-101925753D01*
X144362150Y-101921739D01*
X144364014Y-101897962D01*
X144366095Y-101854868D01*
X144368314Y-101794822D01*
X144370589Y-101720190D01*
X144372854Y-101633330D01*
X144375033Y-101536605D01*
X144377043Y-101432386D01*
X144385808Y-100938896D01*
X144884532Y-101457705D01*
G36*
X144884532Y-101457705D02*
G01*
X144872372Y-102149315D01*
X144872165Y-102161047D01*
X144869277Y-102311492D01*
X144866218Y-102448734D01*
X144863032Y-102571353D01*
X144859769Y-102677939D01*
X144856476Y-102767084D01*
X144855542Y-102787076D01*
X144853195Y-102837376D01*
X144849976Y-102887399D01*
X144846869Y-102915743D01*
X144837191Y-102962032D01*
X144797422Y-103088518D01*
X144740069Y-103213399D01*
X144668324Y-103330345D01*
X144585388Y-103433033D01*
X144576836Y-103442053D01*
X144466791Y-103540472D01*
X144342923Y-103622320D01*
X144208619Y-103685965D01*
X144067263Y-103729780D01*
X143922242Y-103752132D01*
X143821935Y-103754866D01*
X143673737Y-103740878D01*
X143530900Y-103706128D01*
X143395595Y-103651735D01*
X143269972Y-103578816D01*
X143156199Y-103488494D01*
X143056432Y-103381891D01*
X142972832Y-103260119D01*
X142917452Y-103152217D01*
X142866745Y-103012081D01*
X142837916Y-102866985D01*
X142833527Y-102779166D01*
X143328261Y-102779166D01*
X143328447Y-102784459D01*
X143331801Y-102839830D01*
X143338418Y-102882245D01*
X143350387Y-102921069D01*
X143369791Y-102965656D01*
X143390609Y-103004356D01*
X143431058Y-103063867D01*
X143478143Y-103120150D01*
X143526652Y-103167198D01*
X143571389Y-103198987D01*
X143587418Y-103207046D01*
X143628014Y-103225115D01*
X143670724Y-103241949D01*
X143743204Y-103262504D01*
X143846740Y-103272835D01*
X143948489Y-103261814D01*
X144045838Y-103230376D01*
X144136173Y-103179453D01*
X144216877Y-103109974D01*
X144285345Y-103022873D01*
X144314938Y-102969234D01*
X144347008Y-102875753D01*
X144359279Y-102778404D01*
X144352683Y-102680335D01*
X144328148Y-102584679D01*
X144286602Y-102494593D01*
X144228972Y-102413228D01*
X144156182Y-102343736D01*
X144069168Y-102289266D01*
X144055276Y-102282729D01*
X143957478Y-102250392D01*
X143856321Y-102238443D01*
X143755268Y-102245999D01*
X143657799Y-102272181D01*
X143567380Y-102316106D01*
X143487490Y-102376892D01*
X143421601Y-102453654D01*
X143403334Y-102481870D01*
X143358058Y-102574512D01*
X143333496Y-102671996D01*
X143328261Y-102779166D01*
X142833527Y-102779166D01*
X142830288Y-102714353D01*
X142835413Y-102624755D01*
X142860713Y-102474896D01*
X142905936Y-102333697D01*
X142970039Y-102202809D01*
X143051987Y-102083895D01*
X143150734Y-101978622D01*
X143265240Y-101888620D01*
X143394468Y-101815572D01*
X143464879Y-101784165D01*
X143540513Y-101756254D01*
X143612498Y-101738019D01*
X143689177Y-101727417D01*
X143778912Y-101722428D01*
X143796732Y-101722072D01*
X143935802Y-101730937D01*
X144065680Y-101760886D01*
X144187020Y-101812118D01*
X144300466Y-101884828D01*
X144324295Y-101902460D01*
X144348847Y-101919221D01*
X144361173Y-101925753D01*
X144362150Y-101921739D01*
X144364014Y-101897962D01*
X144366095Y-101854868D01*
X144368314Y-101794822D01*
X144370589Y-101720190D01*
X144372854Y-101633330D01*
X144375033Y-101536605D01*
X144377043Y-101432386D01*
X144385808Y-100938896D01*
X144884532Y-101457705D01*
G37*
D14*
X167754215Y-60082944D02*
X168208341Y-60082944D01*
X167754215Y-61552944D02*
X168208341Y-61552944D01*
X167754215Y-57519488D02*
X168208341Y-57519488D01*
X167754215Y-58989488D02*
X168208341Y-58989488D01*
X167754216Y-62669489D02*
X168208342Y-62669489D01*
X167754216Y-64139489D02*
X168208342Y-64139489D01*
%TO.C,MCU1*%
X196091619Y-59138468D02*
X196091618Y-61138469D01*
X196091618Y-61138469D02*
X198891618Y-61138469D01*
X196091617Y-61678467D02*
X196091619Y-63678468D01*
X196091619Y-63678468D02*
X198891617Y-63678468D01*
X196091619Y-64218468D02*
X196091617Y-66218468D01*
X196091617Y-66218468D02*
X198891617Y-66218468D01*
X198891618Y-59138467D02*
X196091619Y-59138468D01*
X198891619Y-59808468D02*
X198891618Y-59138467D01*
X198891618Y-61138469D02*
X198891619Y-60458470D01*
X198891618Y-61678468D02*
X196091617Y-61678467D01*
X198891617Y-62358469D02*
X198891618Y-61678468D01*
X198891617Y-63678468D02*
X198891617Y-63008468D01*
X198891619Y-64218468D02*
X196091619Y-64218468D01*
X198891619Y-64883469D02*
X198891619Y-64218468D01*
X198891617Y-66218468D02*
X198891619Y-65558467D01*
%TD*%
M02*
