%TF.GenerationSoftware,KiCad,Pcbnew,8.0.6-1.fc41*%
%TF.CreationDate,2024-12-09T09:59:33+11:00*%
%TF.ProjectId,pueo-mx-spaced,7075656f-2d6d-4782-9d73-70616365642e,0.1*%
%TF.SameCoordinates,Original*%
%TF.FileFunction,Drillmap*%
%TF.FilePolarity,Positive*%
%FSLAX45Y45*%
G04 Gerber Fmt 4.5, Leading zero omitted, Abs format (unit mm)*
G04 Created by KiCad (PCBNEW 8.0.6-1.fc41) date 2024-12-09 09:59:33*
%MOMM*%
%LPD*%
G01*
G04 APERTURE LIST*
%ADD10C,0.150000*%
%ADD11C,0.200000*%
%ADD12C,0.100000*%
%ADD13C,0.109000*%
%ADD14C,0.109220*%
%ADD15C,0.120000*%
%ADD16C,0.220000*%
G04 APERTURE END LIST*
D10*
X20284162Y-5575847D02*
X14489162Y-5575847D01*
X20334162Y-11887789D02*
X20334162Y-5625847D01*
X20284162Y-5575847D02*
G75*
G02*
X20334167Y-5625847I0J-50005D01*
G01*
X20367061Y-11934773D02*
G75*
G02*
X20334164Y-11887789I17101J46982D01*
G01*
X20593719Y-12017270D02*
X20367061Y-11934773D01*
X12739162Y-5250846D02*
G75*
G02*
X12789162Y-5200844I50003J-1D01*
G01*
X12739162Y-5525847D02*
G75*
G02*
X12689162Y-5575844I-49997J-1D01*
G01*
X8784402Y-9944600D02*
X9007079Y-11529029D01*
X8826956Y-9888128D02*
X10268621Y-9685516D01*
X10311662Y-5625847D02*
G75*
G02*
X10361662Y-5575844I50003J-1D01*
G01*
X20076371Y-13584864D02*
G75*
G02*
X20012283Y-13614751I-46986J17097D01*
G01*
X14489162Y-5575847D02*
G75*
G02*
X14439165Y-5525847I4J50000D01*
G01*
X17713535Y-12292948D02*
X17574721Y-12674338D01*
X10311662Y-9636002D02*
G75*
G02*
X10268620Y-9685508I-49996J5D01*
G01*
X14389162Y-5200847D02*
X12789162Y-5200847D01*
X12689162Y-5575847D02*
X10361662Y-5575847D01*
X10311662Y-11453692D02*
X10311662Y-12175847D01*
X14439162Y-5525847D02*
X14439162Y-5250847D01*
X10254703Y-11404179D02*
G75*
G02*
X10311661Y-11453692I6962J-49509D01*
G01*
X9063551Y-11571584D02*
G75*
G02*
X9007080Y-11529029I-6955J49517D01*
G01*
X17604605Y-12738423D02*
G75*
G02*
X17574719Y-12674337I17100J46986D01*
G01*
X20076371Y-13584864D02*
X20623603Y-12081356D01*
X8784402Y-9944601D02*
G75*
G02*
X8826956Y-9888124I49513J6963D01*
G01*
X17604605Y-12738423D02*
X20012285Y-13614747D01*
X17666551Y-12225847D02*
G75*
G02*
X17713540Y-12292950I4J-50001D01*
G01*
X10361662Y-12225847D02*
X17666551Y-12225847D01*
X10311662Y-5625847D02*
X10311662Y-9636002D01*
X10361662Y-12225847D02*
G75*
G02*
X10311666Y-12175847I3J49999D01*
G01*
X20593719Y-12017270D02*
G75*
G02*
X20623604Y-12081356I-17104J-46987D01*
G01*
X9063551Y-11571584D02*
X10254703Y-11404179D01*
X14389162Y-5200847D02*
G75*
G02*
X14439165Y-5250847I3J-50000D01*
G01*
X12739162Y-5250846D02*
X12739162Y-5525847D01*
D11*
D12*
X16538955Y-6061794D02*
X16578955Y-6101794D01*
X16578955Y-6061794D02*
X16538955Y-6101794D01*
X16540329Y-6320449D02*
X16580329Y-6360449D01*
X16580329Y-6320449D02*
X16540329Y-6360449D01*
X16545299Y-5805449D02*
X16585299Y-5845449D01*
X16585299Y-5805449D02*
X16545299Y-5845449D01*
X19140000Y-6000000D02*
X19180000Y-6040000D01*
X19180000Y-6000000D02*
X19140000Y-6040000D01*
X19280000Y-6260000D02*
X19320000Y-6300000D01*
X19320000Y-6260000D02*
X19280000Y-6300000D01*
X20165770Y-9504847D02*
G75*
G02*
X20090770Y-9504847I-37500J0D01*
G01*
X20090770Y-9504847D02*
G75*
G02*
X20165770Y-9504847I37500J0D01*
G01*
X20165770Y-9304847D02*
G75*
G02*
X20090770Y-9304847I-37500J0D01*
G01*
X20090770Y-9304847D02*
G75*
G02*
X20165770Y-9304847I37500J0D01*
G01*
X19863860Y-10465347D02*
X19863860Y-10545347D01*
X19823860Y-10505347D02*
X19903860Y-10505347D01*
X19863861Y-10215347D02*
X19863861Y-10295347D01*
X19823861Y-10255347D02*
X19903861Y-10255347D01*
X19863862Y-10715347D02*
X19863862Y-10795347D01*
X19823862Y-10755347D02*
X19903862Y-10755347D01*
X20183861Y-10715347D02*
X20183861Y-10795347D01*
X20143861Y-10755347D02*
X20223861Y-10755347D01*
X20183862Y-10465347D02*
X20183862Y-10545347D01*
X20143862Y-10505347D02*
X20223862Y-10505347D01*
X20183862Y-10215346D02*
X20183862Y-10295346D01*
X20143862Y-10255346D02*
X20223862Y-10255346D01*
X9200449Y-10173861D02*
X9200449Y-10103150D01*
X9129737Y-10103150D01*
X9129737Y-10173861D01*
X9200449Y-10173861D01*
X10190716Y-10034688D02*
X10190716Y-9963977D01*
X10120005Y-9963977D01*
X10120005Y-10034688D01*
X10190716Y-10034688D01*
X10972407Y-6138497D02*
X10972407Y-6067785D01*
X10901696Y-6067785D01*
X10901696Y-6138497D01*
X10972407Y-6138497D01*
X11071845Y-8035893D02*
X11071845Y-7965181D01*
X11001134Y-7965181D01*
X11001134Y-8035893D01*
X11071845Y-8035893D01*
X11171284Y-9933289D02*
X11171284Y-9862577D01*
X11100573Y-9862577D01*
X11100573Y-9933289D01*
X11171284Y-9933289D01*
X11971037Y-6086161D02*
X11971037Y-6015449D01*
X11900325Y-6015449D01*
X11900325Y-6086161D01*
X11971037Y-6086161D01*
X12070475Y-7983557D02*
X12070475Y-7912845D01*
X11999763Y-7912845D01*
X11999763Y-7983557D01*
X12070475Y-7983557D01*
X12169913Y-9880953D02*
X12169913Y-9810241D01*
X12099202Y-9810241D01*
X12099202Y-9880953D01*
X12169913Y-9880953D01*
X13124517Y-7431202D02*
X13124517Y-7360491D01*
X13053806Y-7360491D01*
X13053806Y-7431202D01*
X13124517Y-7431202D01*
X13124517Y-9331203D02*
X13124517Y-9260492D01*
X13053806Y-9260492D01*
X13053806Y-9331203D01*
X13124517Y-9331203D01*
X13124517Y-5531203D02*
X13124517Y-5460491D01*
X13053806Y-5460491D01*
X13053806Y-5531203D01*
X13124517Y-5531203D01*
X14124517Y-7431202D02*
X14124517Y-7360491D01*
X14053806Y-7360491D01*
X14053806Y-7431202D01*
X14124517Y-7431202D01*
X14124517Y-9331203D02*
X14124517Y-9260491D01*
X14053806Y-9260491D01*
X14053806Y-9331203D01*
X14124517Y-9331203D01*
X14124517Y-5531202D02*
X14124517Y-5460491D01*
X14053806Y-5460491D01*
X14053806Y-5531202D01*
X14124517Y-5531202D01*
X15024517Y-9806203D02*
X15024517Y-9735491D01*
X14953806Y-9735491D01*
X14953806Y-9806203D01*
X15024517Y-9806203D01*
X15024517Y-6006203D02*
X15024517Y-5935491D01*
X14953806Y-5935491D01*
X14953806Y-6006203D01*
X15024517Y-6006203D01*
X15024517Y-7906203D02*
X15024517Y-7835491D01*
X14953806Y-7835491D01*
X14953806Y-7906203D01*
X15024517Y-7906203D01*
X16024517Y-9806202D02*
X16024517Y-9735491D01*
X15953806Y-9735491D01*
X15953806Y-9806202D01*
X16024517Y-9806202D01*
X16024517Y-6006202D02*
X16024517Y-5935491D01*
X15953806Y-5935491D01*
X15953806Y-6006202D01*
X16024517Y-6006202D01*
X16024518Y-7906202D02*
X16024518Y-7835491D01*
X15953806Y-7835491D01*
X15953806Y-7906202D01*
X16024518Y-7906202D01*
X16924517Y-8856202D02*
X16924517Y-8785491D01*
X16853806Y-8785491D01*
X16853806Y-8856202D01*
X16924517Y-8856202D01*
X16924517Y-6956203D02*
X16924517Y-6885491D01*
X16853806Y-6885491D01*
X16853806Y-6956203D01*
X16924517Y-6956203D01*
X17924517Y-8856202D02*
X17924517Y-8785491D01*
X17853806Y-8785491D01*
X17853806Y-8856202D01*
X17924517Y-8856202D01*
X17924518Y-6956202D02*
X17924518Y-6885491D01*
X17853806Y-6885491D01*
X17853806Y-6956202D01*
X17924518Y-6956202D01*
X18854492Y-11720663D02*
X18854492Y-11649951D01*
X18783781Y-11649951D01*
X18783781Y-11720663D01*
X18854492Y-11720663D01*
X19794185Y-12062683D02*
X19794185Y-11991972D01*
X19723473Y-11991972D01*
X19723473Y-12062683D01*
X19794185Y-12062683D01*
D13*
X17216814Y-5882294D02*
X17271314Y-5827794D01*
X17216814Y-5773294D01*
X17162314Y-5827794D01*
X17216814Y-5882294D01*
X17216814Y-6390294D02*
X17271314Y-6335794D01*
X17216814Y-6281294D01*
X17162314Y-6335794D01*
X17216814Y-6390294D01*
X17724814Y-5882294D02*
X17779314Y-5827794D01*
X17724814Y-5773294D01*
X17670314Y-5827794D01*
X17724814Y-5882294D01*
X17724814Y-6390294D02*
X17779314Y-6335794D01*
X17724814Y-6281294D01*
X17670314Y-6335794D01*
X17724814Y-6390294D01*
D14*
X18472552Y-5959237D02*
X18581772Y-6068457D01*
X18581772Y-5959237D02*
X18472552Y-6068457D01*
X18581772Y-6013847D02*
G75*
G02*
X18472552Y-6013847I-54610J0D01*
G01*
X18472552Y-6013847D02*
G75*
G02*
X18581772Y-6013847I54610J0D01*
G01*
X18472552Y-6213237D02*
X18581772Y-6322457D01*
X18581772Y-6213237D02*
X18472552Y-6322457D01*
X18581772Y-6267847D02*
G75*
G02*
X18472552Y-6267847I-54610J0D01*
G01*
X18472552Y-6267847D02*
G75*
G02*
X18581772Y-6267847I54610J0D01*
G01*
X18472552Y-7483237D02*
X18581772Y-7592457D01*
X18581772Y-7483237D02*
X18472552Y-7592457D01*
X18581772Y-7537847D02*
G75*
G02*
X18472552Y-7537847I-54610J0D01*
G01*
X18472552Y-7537847D02*
G75*
G02*
X18581772Y-7537847I54610J0D01*
G01*
X18472552Y-8499237D02*
X18581772Y-8608457D01*
X18581772Y-8499237D02*
X18472552Y-8608457D01*
X18581772Y-8553847D02*
G75*
G02*
X18472552Y-8553847I-54610J0D01*
G01*
X18472552Y-8553847D02*
G75*
G02*
X18581772Y-8553847I54610J0D01*
G01*
X18472552Y-6975237D02*
X18581772Y-7084457D01*
X18581772Y-6975237D02*
X18472552Y-7084457D01*
X18581772Y-7029847D02*
G75*
G02*
X18472552Y-7029847I-54610J0D01*
G01*
X18472552Y-7029847D02*
G75*
G02*
X18581772Y-7029847I54610J0D01*
G01*
X18472552Y-7229237D02*
X18581772Y-7338457D01*
X18581772Y-7229237D02*
X18472552Y-7338457D01*
X18581772Y-7283847D02*
G75*
G02*
X18472552Y-7283847I-54610J0D01*
G01*
X18472552Y-7283847D02*
G75*
G02*
X18581772Y-7283847I54610J0D01*
G01*
X18472552Y-7737237D02*
X18581772Y-7846457D01*
X18581772Y-7737237D02*
X18472552Y-7846457D01*
X18581772Y-7791847D02*
G75*
G02*
X18472552Y-7791847I-54610J0D01*
G01*
X18472552Y-7791847D02*
G75*
G02*
X18581772Y-7791847I54610J0D01*
G01*
X18472552Y-7991237D02*
X18581772Y-8100457D01*
X18581772Y-7991237D02*
X18472552Y-8100457D01*
X18581772Y-8045847D02*
G75*
G02*
X18472552Y-8045847I-54610J0D01*
G01*
X18472552Y-8045847D02*
G75*
G02*
X18581772Y-8045847I54610J0D01*
G01*
X18472552Y-8245237D02*
X18581772Y-8354457D01*
X18581772Y-8245237D02*
X18472552Y-8354457D01*
X18581772Y-8299847D02*
G75*
G02*
X18472552Y-8299847I-54610J0D01*
G01*
X18472552Y-8299847D02*
G75*
G02*
X18581772Y-8299847I54610J0D01*
G01*
X18472552Y-8753237D02*
X18581772Y-8862457D01*
X18581772Y-8753237D02*
X18472552Y-8862457D01*
X18581772Y-8807847D02*
G75*
G02*
X18472552Y-8807847I-54610J0D01*
G01*
X18472552Y-8807847D02*
G75*
G02*
X18581772Y-8807847I54610J0D01*
G01*
X18472552Y-6467237D02*
X18581772Y-6576457D01*
X18581772Y-6467237D02*
X18472552Y-6576457D01*
X18581772Y-6521847D02*
G75*
G02*
X18472552Y-6521847I-54610J0D01*
G01*
X18472552Y-6521847D02*
G75*
G02*
X18581772Y-6521847I54610J0D01*
G01*
X18472552Y-6721237D02*
X18581772Y-6830457D01*
X18581772Y-6721237D02*
X18472552Y-6830457D01*
X18581772Y-6775847D02*
G75*
G02*
X18472552Y-6775847I-54610J0D01*
G01*
X18472552Y-6775847D02*
G75*
G02*
X18581772Y-6775847I54610J0D01*
G01*
X19996552Y-7991237D02*
X20105772Y-8100457D01*
X20105772Y-7991237D02*
X19996552Y-8100457D01*
X20105772Y-8045847D02*
G75*
G02*
X19996552Y-8045847I-54610J0D01*
G01*
X19996552Y-8045847D02*
G75*
G02*
X20105772Y-8045847I54610J0D01*
G01*
X19996552Y-8245237D02*
X20105772Y-8354457D01*
X20105772Y-8245237D02*
X19996552Y-8354457D01*
X20105772Y-8299847D02*
G75*
G02*
X19996552Y-8299847I-54610J0D01*
G01*
X19996552Y-8299847D02*
G75*
G02*
X20105772Y-8299847I54610J0D01*
G01*
X19996552Y-5959237D02*
X20105772Y-6068457D01*
X20105772Y-5959237D02*
X19996552Y-6068457D01*
X20105772Y-6013847D02*
G75*
G02*
X19996552Y-6013847I-54610J0D01*
G01*
X19996552Y-6013847D02*
G75*
G02*
X20105772Y-6013847I54610J0D01*
G01*
X19996552Y-6467237D02*
X20105772Y-6576457D01*
X20105772Y-6467237D02*
X19996552Y-6576457D01*
X20105772Y-6521847D02*
G75*
G02*
X19996552Y-6521847I-54610J0D01*
G01*
X19996552Y-6521847D02*
G75*
G02*
X20105772Y-6521847I54610J0D01*
G01*
X19996552Y-6721237D02*
X20105772Y-6830457D01*
X20105772Y-6721237D02*
X19996552Y-6830457D01*
X20105772Y-6775847D02*
G75*
G02*
X19996552Y-6775847I-54610J0D01*
G01*
X19996552Y-6775847D02*
G75*
G02*
X20105772Y-6775847I54610J0D01*
G01*
X19996552Y-6975237D02*
X20105772Y-7084457D01*
X20105772Y-6975237D02*
X19996552Y-7084457D01*
X20105772Y-7029847D02*
G75*
G02*
X19996552Y-7029847I-54610J0D01*
G01*
X19996552Y-7029847D02*
G75*
G02*
X20105772Y-7029847I54610J0D01*
G01*
X19996552Y-7483237D02*
X20105772Y-7592457D01*
X20105772Y-7483237D02*
X19996552Y-7592457D01*
X20105772Y-7537847D02*
G75*
G02*
X19996552Y-7537847I-54610J0D01*
G01*
X19996552Y-7537847D02*
G75*
G02*
X20105772Y-7537847I54610J0D01*
G01*
X19996552Y-7737237D02*
X20105772Y-7846457D01*
X20105772Y-7737237D02*
X19996552Y-7846457D01*
X20105772Y-7791847D02*
G75*
G02*
X19996552Y-7791847I-54610J0D01*
G01*
X19996552Y-7791847D02*
G75*
G02*
X20105772Y-7791847I54610J0D01*
G01*
X19996552Y-6213237D02*
X20105772Y-6322457D01*
X20105772Y-6213237D02*
X19996552Y-6322457D01*
X20105772Y-6267847D02*
G75*
G02*
X19996552Y-6267847I-54610J0D01*
G01*
X19996552Y-6267847D02*
G75*
G02*
X20105772Y-6267847I54610J0D01*
G01*
X19996552Y-7229237D02*
X20105772Y-7338457D01*
X20105772Y-7229237D02*
X19996552Y-7338457D01*
X20105772Y-7283847D02*
G75*
G02*
X19996552Y-7283847I-54610J0D01*
G01*
X19996552Y-7283847D02*
G75*
G02*
X20105772Y-7283847I54610J0D01*
G01*
X19996552Y-8499237D02*
X20105772Y-8608457D01*
X20105772Y-8499237D02*
X19996552Y-8608457D01*
X20105772Y-8553847D02*
G75*
G02*
X19996552Y-8553847I-54610J0D01*
G01*
X19996552Y-8553847D02*
G75*
G02*
X20105772Y-8553847I54610J0D01*
G01*
X19996552Y-8753237D02*
X20105772Y-8862457D01*
X20105772Y-8753237D02*
X19996552Y-8862457D01*
X20105772Y-8807847D02*
G75*
G02*
X19996552Y-8807847I-54610J0D01*
G01*
X19996552Y-8807847D02*
G75*
G02*
X20105772Y-8807847I54610J0D01*
G01*
D15*
X9235220Y-11004406D02*
X9355220Y-11124406D01*
X9355220Y-11004406D02*
X9235220Y-11124406D01*
X9295220Y-11004406D02*
X9295220Y-11124406D01*
X9235220Y-11064406D02*
X9355220Y-11064406D01*
X9759580Y-11142776D02*
X9879580Y-11262776D01*
X9879580Y-11142776D02*
X9759580Y-11262776D01*
X9819580Y-11142776D02*
X9819580Y-11262776D01*
X9759580Y-11202776D02*
X9879580Y-11202776D01*
X10225488Y-10865233D02*
X10345488Y-10985233D01*
X10345488Y-10865233D02*
X10225488Y-10985233D01*
X10285488Y-10865233D02*
X10285488Y-10985233D01*
X10225488Y-10925233D02*
X10345488Y-10925233D01*
X10925985Y-6976860D02*
X11045985Y-7096860D01*
X11045985Y-6976860D02*
X10925985Y-7096860D01*
X10985985Y-6976860D02*
X10985985Y-7096860D01*
X10925985Y-7036860D02*
X11045985Y-7036860D01*
X11025424Y-8874256D02*
X11145424Y-8994256D01*
X11145424Y-8874256D02*
X11025424Y-8994256D01*
X11085424Y-8874256D02*
X11085424Y-8994256D01*
X11025424Y-8934256D02*
X11145424Y-8934256D01*
X11124862Y-10771652D02*
X11244862Y-10891652D01*
X11244862Y-10771652D02*
X11124862Y-10891652D01*
X11184862Y-10771652D02*
X11184862Y-10891652D01*
X11124862Y-10831652D02*
X11244862Y-10831652D01*
X11436291Y-7160404D02*
X11556291Y-7280404D01*
X11556291Y-7160404D02*
X11436291Y-7280404D01*
X11496291Y-7160404D02*
X11496291Y-7280404D01*
X11436291Y-7220404D02*
X11556291Y-7220404D01*
X11535729Y-9057800D02*
X11655729Y-9177800D01*
X11655729Y-9057800D02*
X11535729Y-9177800D01*
X11595729Y-9057800D02*
X11595729Y-9177800D01*
X11535729Y-9117800D02*
X11655729Y-9117800D01*
X11635167Y-10955196D02*
X11755167Y-11075196D01*
X11755167Y-10955196D02*
X11635167Y-11075196D01*
X11695167Y-10955196D02*
X11695167Y-11075196D01*
X11635167Y-11015196D02*
X11755167Y-11015196D01*
X11924615Y-6924524D02*
X12044615Y-7044524D01*
X12044615Y-6924524D02*
X11924615Y-7044524D01*
X11984615Y-6924524D02*
X11984615Y-7044524D01*
X11924615Y-6984524D02*
X12044615Y-6984524D01*
X12024053Y-8821920D02*
X12144053Y-8941920D01*
X12144053Y-8821920D02*
X12024053Y-8941920D01*
X12084053Y-8821920D02*
X12084053Y-8941920D01*
X12024053Y-8881920D02*
X12144053Y-8881920D01*
X12123492Y-10719316D02*
X12243492Y-10839316D01*
X12243492Y-10719316D02*
X12123492Y-10839316D01*
X12183492Y-10719316D02*
X12183492Y-10839316D01*
X12123492Y-10779316D02*
X12243492Y-10779316D01*
X13029161Y-8270847D02*
X13149161Y-8390847D01*
X13149161Y-8270847D02*
X13029161Y-8390847D01*
X13089161Y-8270847D02*
X13089161Y-8390847D01*
X13029161Y-8330847D02*
X13149161Y-8330847D01*
X13029162Y-10170847D02*
X13149162Y-10290847D01*
X13149162Y-10170847D02*
X13029162Y-10290847D01*
X13089162Y-10170847D02*
X13089162Y-10290847D01*
X13029162Y-10230847D02*
X13149162Y-10230847D01*
X13029162Y-6370847D02*
X13149162Y-6490847D01*
X13149162Y-6370847D02*
X13029162Y-6490847D01*
X13089162Y-6370847D02*
X13089162Y-6490847D01*
X13029162Y-6430847D02*
X13149162Y-6430847D01*
X13529161Y-8480847D02*
X13649161Y-8600847D01*
X13649161Y-8480847D02*
X13529161Y-8600847D01*
X13589161Y-8480847D02*
X13589161Y-8600847D01*
X13529161Y-8540847D02*
X13649161Y-8540847D01*
X13529162Y-10380847D02*
X13649162Y-10500847D01*
X13649162Y-10380847D02*
X13529162Y-10500847D01*
X13589162Y-10380847D02*
X13589162Y-10500847D01*
X13529162Y-10440847D02*
X13649162Y-10440847D01*
X13529162Y-6580847D02*
X13649162Y-6700847D01*
X13649162Y-6580847D02*
X13529162Y-6700847D01*
X13589162Y-6580847D02*
X13589162Y-6700847D01*
X13529162Y-6640847D02*
X13649162Y-6640847D01*
X14029161Y-8270847D02*
X14149161Y-8390847D01*
X14149161Y-8270847D02*
X14029161Y-8390847D01*
X14089161Y-8270847D02*
X14089161Y-8390847D01*
X14029161Y-8330847D02*
X14149161Y-8330847D01*
X14029162Y-10170847D02*
X14149162Y-10290847D01*
X14149162Y-10170847D02*
X14029162Y-10290847D01*
X14089162Y-10170847D02*
X14089162Y-10290847D01*
X14029162Y-10230847D02*
X14149162Y-10230847D01*
X14029162Y-6370847D02*
X14149162Y-6490847D01*
X14149162Y-6370847D02*
X14029162Y-6490847D01*
X14089162Y-6370847D02*
X14089162Y-6490847D01*
X14029162Y-6430847D02*
X14149162Y-6430847D01*
X14929162Y-10645847D02*
X15049162Y-10765847D01*
X15049162Y-10645847D02*
X14929162Y-10765847D01*
X14989162Y-10645847D02*
X14989162Y-10765847D01*
X14929162Y-10705847D02*
X15049162Y-10705847D01*
X14929162Y-6845847D02*
X15049162Y-6965847D01*
X15049162Y-6845847D02*
X14929162Y-6965847D01*
X14989162Y-6845847D02*
X14989162Y-6965847D01*
X14929162Y-6905847D02*
X15049162Y-6905847D01*
X14929162Y-8745847D02*
X15049162Y-8865847D01*
X15049162Y-8745847D02*
X14929162Y-8865847D01*
X14989162Y-8745847D02*
X14989162Y-8865847D01*
X14929162Y-8805847D02*
X15049162Y-8805847D01*
X15429162Y-10855847D02*
X15549162Y-10975847D01*
X15549162Y-10855847D02*
X15429162Y-10975847D01*
X15489162Y-10855847D02*
X15489162Y-10975847D01*
X15429162Y-10915847D02*
X15549162Y-10915847D01*
X15429162Y-7055847D02*
X15549162Y-7175847D01*
X15549162Y-7055847D02*
X15429162Y-7175847D01*
X15489162Y-7055847D02*
X15489162Y-7175847D01*
X15429162Y-7115847D02*
X15549162Y-7115847D01*
X15429162Y-8955847D02*
X15549162Y-9075847D01*
X15549162Y-8955847D02*
X15429162Y-9075847D01*
X15489162Y-8955847D02*
X15489162Y-9075847D01*
X15429162Y-9015847D02*
X15549162Y-9015847D01*
X15929162Y-10645847D02*
X16049162Y-10765847D01*
X16049162Y-10645847D02*
X15929162Y-10765847D01*
X15989162Y-10645847D02*
X15989162Y-10765847D01*
X15929162Y-10705847D02*
X16049162Y-10705847D01*
X15929162Y-6845847D02*
X16049162Y-6965847D01*
X16049162Y-6845847D02*
X15929162Y-6965847D01*
X15989162Y-6845847D02*
X15989162Y-6965847D01*
X15929162Y-6905847D02*
X16049162Y-6905847D01*
X15929162Y-8745847D02*
X16049162Y-8865847D01*
X16049162Y-8745847D02*
X15929162Y-8865847D01*
X15989162Y-8745847D02*
X15989162Y-8865847D01*
X15929162Y-8805847D02*
X16049162Y-8805847D01*
X16829162Y-9695847D02*
X16949162Y-9815847D01*
X16949162Y-9695847D02*
X16829162Y-9815847D01*
X16889162Y-9695847D02*
X16889162Y-9815847D01*
X16829162Y-9755847D02*
X16949162Y-9755847D01*
X16829162Y-7795847D02*
X16949162Y-7915847D01*
X16949162Y-7795847D02*
X16829162Y-7915847D01*
X16889162Y-7795847D02*
X16889162Y-7915847D01*
X16829162Y-7855847D02*
X16949162Y-7855847D01*
X17329162Y-9905847D02*
X17449162Y-10025847D01*
X17449162Y-9905847D02*
X17329162Y-10025847D01*
X17389162Y-9905847D02*
X17389162Y-10025847D01*
X17329162Y-9965847D02*
X17449162Y-9965847D01*
X17329162Y-8005847D02*
X17449162Y-8125847D01*
X17449162Y-8005847D02*
X17329162Y-8125847D01*
X17389162Y-8005847D02*
X17389162Y-8125847D01*
X17329162Y-8065847D02*
X17449162Y-8065847D01*
X17829162Y-9695847D02*
X17949162Y-9815847D01*
X17949162Y-9695847D02*
X17829162Y-9815847D01*
X17889162Y-9695847D02*
X17889162Y-9815847D01*
X17829162Y-9755847D02*
X17949162Y-9755847D01*
X17829162Y-7795847D02*
X17949162Y-7915847D01*
X17949162Y-7795847D02*
X17829162Y-7915847D01*
X17889162Y-7795847D02*
X17889162Y-7915847D01*
X17829162Y-7855847D02*
X17949162Y-7855847D01*
X18439348Y-12503920D02*
X18559348Y-12623920D01*
X18559348Y-12503920D02*
X18439348Y-12623920D01*
X18499348Y-12503920D02*
X18499348Y-12623920D01*
X18439348Y-12563920D02*
X18559348Y-12563920D01*
X18837370Y-12872265D02*
X18957370Y-12992265D01*
X18957370Y-12872265D02*
X18837370Y-12992265D01*
X18897370Y-12872265D02*
X18897370Y-12992265D01*
X18837370Y-12932265D02*
X18957370Y-12932265D01*
X19379040Y-12845940D02*
X19499040Y-12965940D01*
X19499040Y-12845940D02*
X19379040Y-12965940D01*
X19439040Y-12845940D02*
X19439040Y-12965940D01*
X19379040Y-12905940D02*
X19499040Y-12905940D01*
D16*
X10830283Y-11644182D02*
X11050283Y-11864182D01*
X11050283Y-11644182D02*
X10830283Y-11864182D01*
X11018066Y-11831964D02*
X11018066Y-11676399D01*
X10862501Y-11676399D01*
X10862501Y-11831964D01*
X11018066Y-11831964D01*
X12433932Y-6451308D02*
X12653932Y-6671308D01*
X12653932Y-6451308D02*
X12433932Y-6671308D01*
X12621715Y-6639090D02*
X12621715Y-6483525D01*
X12466150Y-6483525D01*
X12466150Y-6639090D01*
X12621715Y-6639090D01*
X12507699Y-8702890D02*
X12727699Y-8922890D01*
X12727699Y-8702890D02*
X12507699Y-8922890D01*
X12695481Y-8890672D02*
X12695481Y-8735107D01*
X12539916Y-8735107D01*
X12539916Y-8890672D01*
X12695481Y-8890672D01*
X14379162Y-10640847D02*
X14599162Y-10860847D01*
X14599162Y-10640847D02*
X14379162Y-10860847D01*
X14566944Y-10828629D02*
X14566944Y-10673064D01*
X14411379Y-10673064D01*
X14411379Y-10828629D01*
X14566944Y-10828629D01*
X14379162Y-10640847D02*
X14599162Y-10860847D01*
X14599162Y-10640847D02*
X14379162Y-10860847D01*
X14566944Y-10828629D02*
X14566944Y-10673064D01*
X14411379Y-10673064D01*
X14411379Y-10828629D01*
X14566944Y-10828629D01*
X14445655Y-6831427D02*
X14665655Y-7051427D01*
X14665655Y-6831427D02*
X14445655Y-7051427D01*
X14633438Y-7019209D02*
X14633438Y-6863644D01*
X14477873Y-6863644D01*
X14477873Y-7019209D01*
X14633438Y-7019209D01*
X16317118Y-8769384D02*
X16537118Y-8989384D01*
X16537118Y-8769384D02*
X16317118Y-8989384D01*
X16504901Y-8957166D02*
X16504901Y-8801601D01*
X16349336Y-8801601D01*
X16349336Y-8957166D01*
X16504901Y-8957166D01*
X18039162Y-5965847D02*
X18259162Y-6185847D01*
X18259162Y-5965847D02*
X18039162Y-6185847D01*
X18226944Y-6153629D02*
X18226944Y-5998064D01*
X18071379Y-5998064D01*
X18071379Y-6153629D01*
X18226944Y-6153629D01*
X19917447Y-11164216D02*
X20137447Y-11384216D01*
X20137447Y-11164216D02*
X19917447Y-11384216D01*
X20105230Y-11351999D02*
X20105230Y-11196434D01*
X19949665Y-11196434D01*
X19949665Y-11351999D01*
X20105230Y-11351999D01*
X19917447Y-11164216D02*
X20137447Y-11384216D01*
X20137447Y-11164216D02*
X19917447Y-11384216D01*
X20105230Y-11351999D02*
X20105230Y-11196434D01*
X19949665Y-11196434D01*
X19949665Y-11351999D01*
X20105230Y-11351999D01*
D11*
X9037191Y-13936750D02*
X9037191Y-13736750D01*
X9037191Y-13736750D02*
X9084810Y-13736750D01*
X9084810Y-13736750D02*
X9113382Y-13746274D01*
X9113382Y-13746274D02*
X9132429Y-13765322D01*
X9132429Y-13765322D02*
X9141953Y-13784369D01*
X9141953Y-13784369D02*
X9151477Y-13822465D01*
X9151477Y-13822465D02*
X9151477Y-13851036D01*
X9151477Y-13851036D02*
X9141953Y-13889131D01*
X9141953Y-13889131D02*
X9132429Y-13908179D01*
X9132429Y-13908179D02*
X9113382Y-13927227D01*
X9113382Y-13927227D02*
X9084810Y-13936750D01*
X9084810Y-13936750D02*
X9037191Y-13936750D01*
X9237191Y-13936750D02*
X9237191Y-13803417D01*
X9237191Y-13841512D02*
X9246715Y-13822465D01*
X9246715Y-13822465D02*
X9256239Y-13812941D01*
X9256239Y-13812941D02*
X9275287Y-13803417D01*
X9275287Y-13803417D02*
X9294334Y-13803417D01*
X9361001Y-13936750D02*
X9361001Y-13803417D01*
X9361001Y-13736750D02*
X9351477Y-13746274D01*
X9351477Y-13746274D02*
X9361001Y-13755798D01*
X9361001Y-13755798D02*
X9370525Y-13746274D01*
X9370525Y-13746274D02*
X9361001Y-13736750D01*
X9361001Y-13736750D02*
X9361001Y-13755798D01*
X9484810Y-13936750D02*
X9465763Y-13927227D01*
X9465763Y-13927227D02*
X9456239Y-13908179D01*
X9456239Y-13908179D02*
X9456239Y-13736750D01*
X9589572Y-13936750D02*
X9570525Y-13927227D01*
X9570525Y-13927227D02*
X9561001Y-13908179D01*
X9561001Y-13908179D02*
X9561001Y-13736750D01*
X9818144Y-13936750D02*
X9818144Y-13736750D01*
X9818144Y-13736750D02*
X9884810Y-13879607D01*
X9884810Y-13879607D02*
X9951477Y-13736750D01*
X9951477Y-13736750D02*
X9951477Y-13936750D01*
X10132429Y-13936750D02*
X10132429Y-13831988D01*
X10132429Y-13831988D02*
X10122906Y-13812941D01*
X10122906Y-13812941D02*
X10103858Y-13803417D01*
X10103858Y-13803417D02*
X10065763Y-13803417D01*
X10065763Y-13803417D02*
X10046715Y-13812941D01*
X10132429Y-13927227D02*
X10113382Y-13936750D01*
X10113382Y-13936750D02*
X10065763Y-13936750D01*
X10065763Y-13936750D02*
X10046715Y-13927227D01*
X10046715Y-13927227D02*
X10037191Y-13908179D01*
X10037191Y-13908179D02*
X10037191Y-13889131D01*
X10037191Y-13889131D02*
X10046715Y-13870084D01*
X10046715Y-13870084D02*
X10065763Y-13860560D01*
X10065763Y-13860560D02*
X10113382Y-13860560D01*
X10113382Y-13860560D02*
X10132429Y-13851036D01*
X10227668Y-13803417D02*
X10227668Y-14003417D01*
X10227668Y-13812941D02*
X10246715Y-13803417D01*
X10246715Y-13803417D02*
X10284810Y-13803417D01*
X10284810Y-13803417D02*
X10303858Y-13812941D01*
X10303858Y-13812941D02*
X10313382Y-13822465D01*
X10313382Y-13822465D02*
X10322906Y-13841512D01*
X10322906Y-13841512D02*
X10322906Y-13898655D01*
X10322906Y-13898655D02*
X10313382Y-13917703D01*
X10313382Y-13917703D02*
X10303858Y-13927227D01*
X10303858Y-13927227D02*
X10284810Y-13936750D01*
X10284810Y-13936750D02*
X10246715Y-13936750D01*
X10246715Y-13936750D02*
X10227668Y-13927227D01*
X10408620Y-13917703D02*
X10418144Y-13927227D01*
X10418144Y-13927227D02*
X10408620Y-13936750D01*
X10408620Y-13936750D02*
X10399096Y-13927227D01*
X10399096Y-13927227D02*
X10408620Y-13917703D01*
X10408620Y-13917703D02*
X10408620Y-13936750D01*
X10408620Y-13812941D02*
X10418144Y-13822465D01*
X10418144Y-13822465D02*
X10408620Y-13831988D01*
X10408620Y-13831988D02*
X10399096Y-13822465D01*
X10399096Y-13822465D02*
X10408620Y-13812941D01*
X10408620Y-13812941D02*
X10408620Y-13831988D01*
D12*
X8736415Y-14245267D02*
X8776415Y-14285267D01*
X8776415Y-14245267D02*
X8736415Y-14285267D01*
D11*
X9075287Y-14156750D02*
X9094334Y-14156750D01*
X9094334Y-14156750D02*
X9113382Y-14166274D01*
X9113382Y-14166274D02*
X9122906Y-14175798D01*
X9122906Y-14175798D02*
X9132429Y-14194846D01*
X9132429Y-14194846D02*
X9141953Y-14232941D01*
X9141953Y-14232941D02*
X9141953Y-14280560D01*
X9141953Y-14280560D02*
X9132429Y-14318655D01*
X9132429Y-14318655D02*
X9122906Y-14337703D01*
X9122906Y-14337703D02*
X9113382Y-14347227D01*
X9113382Y-14347227D02*
X9094334Y-14356750D01*
X9094334Y-14356750D02*
X9075287Y-14356750D01*
X9075287Y-14356750D02*
X9056239Y-14347227D01*
X9056239Y-14347227D02*
X9046715Y-14337703D01*
X9046715Y-14337703D02*
X9037191Y-14318655D01*
X9037191Y-14318655D02*
X9027668Y-14280560D01*
X9027668Y-14280560D02*
X9027668Y-14232941D01*
X9027668Y-14232941D02*
X9037191Y-14194846D01*
X9037191Y-14194846D02*
X9046715Y-14175798D01*
X9046715Y-14175798D02*
X9056239Y-14166274D01*
X9056239Y-14166274D02*
X9075287Y-14156750D01*
X9227668Y-14337703D02*
X9237191Y-14347227D01*
X9237191Y-14347227D02*
X9227668Y-14356750D01*
X9227668Y-14356750D02*
X9218144Y-14347227D01*
X9218144Y-14347227D02*
X9227668Y-14337703D01*
X9227668Y-14337703D02*
X9227668Y-14356750D01*
X9408620Y-14223417D02*
X9408620Y-14356750D01*
X9361001Y-14147227D02*
X9313382Y-14290084D01*
X9313382Y-14290084D02*
X9437191Y-14290084D01*
X9551477Y-14156750D02*
X9570525Y-14156750D01*
X9570525Y-14156750D02*
X9589572Y-14166274D01*
X9589572Y-14166274D02*
X9599096Y-14175798D01*
X9599096Y-14175798D02*
X9608620Y-14194846D01*
X9608620Y-14194846D02*
X9618144Y-14232941D01*
X9618144Y-14232941D02*
X9618144Y-14280560D01*
X9618144Y-14280560D02*
X9608620Y-14318655D01*
X9608620Y-14318655D02*
X9599096Y-14337703D01*
X9599096Y-14337703D02*
X9589572Y-14347227D01*
X9589572Y-14347227D02*
X9570525Y-14356750D01*
X9570525Y-14356750D02*
X9551477Y-14356750D01*
X9551477Y-14356750D02*
X9532429Y-14347227D01*
X9532429Y-14347227D02*
X9522906Y-14337703D01*
X9522906Y-14337703D02*
X9513382Y-14318655D01*
X9513382Y-14318655D02*
X9503858Y-14280560D01*
X9503858Y-14280560D02*
X9503858Y-14232941D01*
X9503858Y-14232941D02*
X9513382Y-14194846D01*
X9513382Y-14194846D02*
X9522906Y-14175798D01*
X9522906Y-14175798D02*
X9532429Y-14166274D01*
X9532429Y-14166274D02*
X9551477Y-14156750D01*
X9741953Y-14156750D02*
X9761001Y-14156750D01*
X9761001Y-14156750D02*
X9780049Y-14166274D01*
X9780049Y-14166274D02*
X9789572Y-14175798D01*
X9789572Y-14175798D02*
X9799096Y-14194846D01*
X9799096Y-14194846D02*
X9808620Y-14232941D01*
X9808620Y-14232941D02*
X9808620Y-14280560D01*
X9808620Y-14280560D02*
X9799096Y-14318655D01*
X9799096Y-14318655D02*
X9789572Y-14337703D01*
X9789572Y-14337703D02*
X9780049Y-14347227D01*
X9780049Y-14347227D02*
X9761001Y-14356750D01*
X9761001Y-14356750D02*
X9741953Y-14356750D01*
X9741953Y-14356750D02*
X9722906Y-14347227D01*
X9722906Y-14347227D02*
X9713382Y-14337703D01*
X9713382Y-14337703D02*
X9703858Y-14318655D01*
X9703858Y-14318655D02*
X9694334Y-14280560D01*
X9694334Y-14280560D02*
X9694334Y-14232941D01*
X9694334Y-14232941D02*
X9703858Y-14194846D01*
X9703858Y-14194846D02*
X9713382Y-14175798D01*
X9713382Y-14175798D02*
X9722906Y-14166274D01*
X9722906Y-14166274D02*
X9741953Y-14156750D01*
X9894334Y-14356750D02*
X9894334Y-14223417D01*
X9894334Y-14242465D02*
X9903858Y-14232941D01*
X9903858Y-14232941D02*
X9922906Y-14223417D01*
X9922906Y-14223417D02*
X9951477Y-14223417D01*
X9951477Y-14223417D02*
X9970525Y-14232941D01*
X9970525Y-14232941D02*
X9980049Y-14251988D01*
X9980049Y-14251988D02*
X9980049Y-14356750D01*
X9980049Y-14251988D02*
X9989572Y-14232941D01*
X9989572Y-14232941D02*
X10008620Y-14223417D01*
X10008620Y-14223417D02*
X10037191Y-14223417D01*
X10037191Y-14223417D02*
X10056239Y-14232941D01*
X10056239Y-14232941D02*
X10065763Y-14251988D01*
X10065763Y-14251988D02*
X10065763Y-14356750D01*
X10161001Y-14356750D02*
X10161001Y-14223417D01*
X10161001Y-14242465D02*
X10170525Y-14232941D01*
X10170525Y-14232941D02*
X10189572Y-14223417D01*
X10189572Y-14223417D02*
X10218144Y-14223417D01*
X10218144Y-14223417D02*
X10237191Y-14232941D01*
X10237191Y-14232941D02*
X10246715Y-14251988D01*
X10246715Y-14251988D02*
X10246715Y-14356750D01*
X10246715Y-14251988D02*
X10256239Y-14232941D01*
X10256239Y-14232941D02*
X10275287Y-14223417D01*
X10275287Y-14223417D02*
X10303858Y-14223417D01*
X10303858Y-14223417D02*
X10322906Y-14232941D01*
X10322906Y-14232941D02*
X10332430Y-14251988D01*
X10332430Y-14251988D02*
X10332430Y-14356750D01*
X10722906Y-14147227D02*
X10551477Y-14404369D01*
X10980049Y-14156750D02*
X10999096Y-14156750D01*
X10999096Y-14156750D02*
X11018144Y-14166274D01*
X11018144Y-14166274D02*
X11027668Y-14175798D01*
X11027668Y-14175798D02*
X11037192Y-14194846D01*
X11037192Y-14194846D02*
X11046715Y-14232941D01*
X11046715Y-14232941D02*
X11046715Y-14280560D01*
X11046715Y-14280560D02*
X11037192Y-14318655D01*
X11037192Y-14318655D02*
X11027668Y-14337703D01*
X11027668Y-14337703D02*
X11018144Y-14347227D01*
X11018144Y-14347227D02*
X10999096Y-14356750D01*
X10999096Y-14356750D02*
X10980049Y-14356750D01*
X10980049Y-14356750D02*
X10961001Y-14347227D01*
X10961001Y-14347227D02*
X10951477Y-14337703D01*
X10951477Y-14337703D02*
X10941953Y-14318655D01*
X10941953Y-14318655D02*
X10932430Y-14280560D01*
X10932430Y-14280560D02*
X10932430Y-14232941D01*
X10932430Y-14232941D02*
X10941953Y-14194846D01*
X10941953Y-14194846D02*
X10951477Y-14175798D01*
X10951477Y-14175798D02*
X10961001Y-14166274D01*
X10961001Y-14166274D02*
X10980049Y-14156750D01*
X11132430Y-14337703D02*
X11141953Y-14347227D01*
X11141953Y-14347227D02*
X11132430Y-14356750D01*
X11132430Y-14356750D02*
X11122906Y-14347227D01*
X11122906Y-14347227D02*
X11132430Y-14337703D01*
X11132430Y-14337703D02*
X11132430Y-14356750D01*
X11265763Y-14156750D02*
X11284811Y-14156750D01*
X11284811Y-14156750D02*
X11303858Y-14166274D01*
X11303858Y-14166274D02*
X11313382Y-14175798D01*
X11313382Y-14175798D02*
X11322906Y-14194846D01*
X11322906Y-14194846D02*
X11332430Y-14232941D01*
X11332430Y-14232941D02*
X11332430Y-14280560D01*
X11332430Y-14280560D02*
X11322906Y-14318655D01*
X11322906Y-14318655D02*
X11313382Y-14337703D01*
X11313382Y-14337703D02*
X11303858Y-14347227D01*
X11303858Y-14347227D02*
X11284811Y-14356750D01*
X11284811Y-14356750D02*
X11265763Y-14356750D01*
X11265763Y-14356750D02*
X11246715Y-14347227D01*
X11246715Y-14347227D02*
X11237191Y-14337703D01*
X11237191Y-14337703D02*
X11227668Y-14318655D01*
X11227668Y-14318655D02*
X11218144Y-14280560D01*
X11218144Y-14280560D02*
X11218144Y-14232941D01*
X11218144Y-14232941D02*
X11227668Y-14194846D01*
X11227668Y-14194846D02*
X11237191Y-14175798D01*
X11237191Y-14175798D02*
X11246715Y-14166274D01*
X11246715Y-14166274D02*
X11265763Y-14156750D01*
X11522906Y-14356750D02*
X11408620Y-14356750D01*
X11465763Y-14356750D02*
X11465763Y-14156750D01*
X11465763Y-14156750D02*
X11446715Y-14185322D01*
X11446715Y-14185322D02*
X11427668Y-14204369D01*
X11427668Y-14204369D02*
X11408620Y-14213893D01*
X11703858Y-14156750D02*
X11608620Y-14156750D01*
X11608620Y-14156750D02*
X11599096Y-14251988D01*
X11599096Y-14251988D02*
X11608620Y-14242465D01*
X11608620Y-14242465D02*
X11627668Y-14232941D01*
X11627668Y-14232941D02*
X11675287Y-14232941D01*
X11675287Y-14232941D02*
X11694334Y-14242465D01*
X11694334Y-14242465D02*
X11703858Y-14251988D01*
X11703858Y-14251988D02*
X11713382Y-14271036D01*
X11713382Y-14271036D02*
X11713382Y-14318655D01*
X11713382Y-14318655D02*
X11703858Y-14337703D01*
X11703858Y-14337703D02*
X11694334Y-14347227D01*
X11694334Y-14347227D02*
X11675287Y-14356750D01*
X11675287Y-14356750D02*
X11627668Y-14356750D01*
X11627668Y-14356750D02*
X11608620Y-14347227D01*
X11608620Y-14347227D02*
X11599096Y-14337703D01*
X11780049Y-14156750D02*
X11913382Y-14156750D01*
X11913382Y-14156750D02*
X11827668Y-14356750D01*
X11980049Y-14156750D02*
X11980049Y-14194846D01*
X12056239Y-14156750D02*
X12056239Y-14194846D01*
X12351477Y-14432941D02*
X12341953Y-14423417D01*
X12341953Y-14423417D02*
X12322906Y-14394846D01*
X12322906Y-14394846D02*
X12313382Y-14375798D01*
X12313382Y-14375798D02*
X12303858Y-14347227D01*
X12303858Y-14347227D02*
X12294334Y-14299607D01*
X12294334Y-14299607D02*
X12294334Y-14261512D01*
X12294334Y-14261512D02*
X12303858Y-14213893D01*
X12303858Y-14213893D02*
X12313382Y-14185322D01*
X12313382Y-14185322D02*
X12322906Y-14166274D01*
X12322906Y-14166274D02*
X12341953Y-14137703D01*
X12341953Y-14137703D02*
X12351477Y-14128179D01*
X12522906Y-14156750D02*
X12427668Y-14156750D01*
X12427668Y-14156750D02*
X12418144Y-14251988D01*
X12418144Y-14251988D02*
X12427668Y-14242465D01*
X12427668Y-14242465D02*
X12446715Y-14232941D01*
X12446715Y-14232941D02*
X12494334Y-14232941D01*
X12494334Y-14232941D02*
X12513382Y-14242465D01*
X12513382Y-14242465D02*
X12522906Y-14251988D01*
X12522906Y-14251988D02*
X12532430Y-14271036D01*
X12532430Y-14271036D02*
X12532430Y-14318655D01*
X12532430Y-14318655D02*
X12522906Y-14337703D01*
X12522906Y-14337703D02*
X12513382Y-14347227D01*
X12513382Y-14347227D02*
X12494334Y-14356750D01*
X12494334Y-14356750D02*
X12446715Y-14356750D01*
X12446715Y-14356750D02*
X12427668Y-14347227D01*
X12427668Y-14347227D02*
X12418144Y-14337703D01*
X12770525Y-14356750D02*
X12770525Y-14156750D01*
X12856239Y-14356750D02*
X12856239Y-14251988D01*
X12856239Y-14251988D02*
X12846715Y-14232941D01*
X12846715Y-14232941D02*
X12827668Y-14223417D01*
X12827668Y-14223417D02*
X12799096Y-14223417D01*
X12799096Y-14223417D02*
X12780049Y-14232941D01*
X12780049Y-14232941D02*
X12770525Y-14242465D01*
X12980049Y-14356750D02*
X12961001Y-14347227D01*
X12961001Y-14347227D02*
X12951477Y-14337703D01*
X12951477Y-14337703D02*
X12941954Y-14318655D01*
X12941954Y-14318655D02*
X12941954Y-14261512D01*
X12941954Y-14261512D02*
X12951477Y-14242465D01*
X12951477Y-14242465D02*
X12961001Y-14232941D01*
X12961001Y-14232941D02*
X12980049Y-14223417D01*
X12980049Y-14223417D02*
X13008620Y-14223417D01*
X13008620Y-14223417D02*
X13027668Y-14232941D01*
X13027668Y-14232941D02*
X13037192Y-14242465D01*
X13037192Y-14242465D02*
X13046715Y-14261512D01*
X13046715Y-14261512D02*
X13046715Y-14318655D01*
X13046715Y-14318655D02*
X13037192Y-14337703D01*
X13037192Y-14337703D02*
X13027668Y-14347227D01*
X13027668Y-14347227D02*
X13008620Y-14356750D01*
X13008620Y-14356750D02*
X12980049Y-14356750D01*
X13161001Y-14356750D02*
X13141954Y-14347227D01*
X13141954Y-14347227D02*
X13132430Y-14328179D01*
X13132430Y-14328179D02*
X13132430Y-14156750D01*
X13313382Y-14347227D02*
X13294335Y-14356750D01*
X13294335Y-14356750D02*
X13256239Y-14356750D01*
X13256239Y-14356750D02*
X13237192Y-14347227D01*
X13237192Y-14347227D02*
X13227668Y-14328179D01*
X13227668Y-14328179D02*
X13227668Y-14251988D01*
X13227668Y-14251988D02*
X13237192Y-14232941D01*
X13237192Y-14232941D02*
X13256239Y-14223417D01*
X13256239Y-14223417D02*
X13294335Y-14223417D01*
X13294335Y-14223417D02*
X13313382Y-14232941D01*
X13313382Y-14232941D02*
X13322906Y-14251988D01*
X13322906Y-14251988D02*
X13322906Y-14271036D01*
X13322906Y-14271036D02*
X13227668Y-14290084D01*
X13399096Y-14347227D02*
X13418144Y-14356750D01*
X13418144Y-14356750D02*
X13456239Y-14356750D01*
X13456239Y-14356750D02*
X13475287Y-14347227D01*
X13475287Y-14347227D02*
X13484811Y-14328179D01*
X13484811Y-14328179D02*
X13484811Y-14318655D01*
X13484811Y-14318655D02*
X13475287Y-14299607D01*
X13475287Y-14299607D02*
X13456239Y-14290084D01*
X13456239Y-14290084D02*
X13427668Y-14290084D01*
X13427668Y-14290084D02*
X13408620Y-14280560D01*
X13408620Y-14280560D02*
X13399096Y-14261512D01*
X13399096Y-14261512D02*
X13399096Y-14251988D01*
X13399096Y-14251988D02*
X13408620Y-14232941D01*
X13408620Y-14232941D02*
X13427668Y-14223417D01*
X13427668Y-14223417D02*
X13456239Y-14223417D01*
X13456239Y-14223417D02*
X13475287Y-14232941D01*
X13551477Y-14432941D02*
X13561001Y-14423417D01*
X13561001Y-14423417D02*
X13580049Y-14394846D01*
X13580049Y-14394846D02*
X13589573Y-14375798D01*
X13589573Y-14375798D02*
X13599096Y-14347227D01*
X13599096Y-14347227D02*
X13608620Y-14299607D01*
X13608620Y-14299607D02*
X13608620Y-14261512D01*
X13608620Y-14261512D02*
X13599096Y-14213893D01*
X13599096Y-14213893D02*
X13589573Y-14185322D01*
X13589573Y-14185322D02*
X13580049Y-14166274D01*
X13580049Y-14166274D02*
X13561001Y-14137703D01*
X13561001Y-14137703D02*
X13551477Y-14128179D01*
D12*
X8776415Y-14529267D02*
G75*
G02*
X8701415Y-14529267I-37500J0D01*
G01*
X8701415Y-14529267D02*
G75*
G02*
X8776415Y-14529267I37500J0D01*
G01*
D11*
X9075287Y-14420750D02*
X9094334Y-14420750D01*
X9094334Y-14420750D02*
X9113382Y-14430274D01*
X9113382Y-14430274D02*
X9122906Y-14439798D01*
X9122906Y-14439798D02*
X9132429Y-14458846D01*
X9132429Y-14458846D02*
X9141953Y-14496941D01*
X9141953Y-14496941D02*
X9141953Y-14544560D01*
X9141953Y-14544560D02*
X9132429Y-14582655D01*
X9132429Y-14582655D02*
X9122906Y-14601703D01*
X9122906Y-14601703D02*
X9113382Y-14611227D01*
X9113382Y-14611227D02*
X9094334Y-14620750D01*
X9094334Y-14620750D02*
X9075287Y-14620750D01*
X9075287Y-14620750D02*
X9056239Y-14611227D01*
X9056239Y-14611227D02*
X9046715Y-14601703D01*
X9046715Y-14601703D02*
X9037191Y-14582655D01*
X9037191Y-14582655D02*
X9027668Y-14544560D01*
X9027668Y-14544560D02*
X9027668Y-14496941D01*
X9027668Y-14496941D02*
X9037191Y-14458846D01*
X9037191Y-14458846D02*
X9046715Y-14439798D01*
X9046715Y-14439798D02*
X9056239Y-14430274D01*
X9056239Y-14430274D02*
X9075287Y-14420750D01*
X9227668Y-14601703D02*
X9237191Y-14611227D01*
X9237191Y-14611227D02*
X9227668Y-14620750D01*
X9227668Y-14620750D02*
X9218144Y-14611227D01*
X9218144Y-14611227D02*
X9227668Y-14601703D01*
X9227668Y-14601703D02*
X9227668Y-14620750D01*
X9303858Y-14420750D02*
X9437191Y-14420750D01*
X9437191Y-14420750D02*
X9351477Y-14620750D01*
X9608620Y-14420750D02*
X9513382Y-14420750D01*
X9513382Y-14420750D02*
X9503858Y-14515988D01*
X9503858Y-14515988D02*
X9513382Y-14506465D01*
X9513382Y-14506465D02*
X9532429Y-14496941D01*
X9532429Y-14496941D02*
X9580049Y-14496941D01*
X9580049Y-14496941D02*
X9599096Y-14506465D01*
X9599096Y-14506465D02*
X9608620Y-14515988D01*
X9608620Y-14515988D02*
X9618144Y-14535036D01*
X9618144Y-14535036D02*
X9618144Y-14582655D01*
X9618144Y-14582655D02*
X9608620Y-14601703D01*
X9608620Y-14601703D02*
X9599096Y-14611227D01*
X9599096Y-14611227D02*
X9580049Y-14620750D01*
X9580049Y-14620750D02*
X9532429Y-14620750D01*
X9532429Y-14620750D02*
X9513382Y-14611227D01*
X9513382Y-14611227D02*
X9503858Y-14601703D01*
X9741953Y-14420750D02*
X9761001Y-14420750D01*
X9761001Y-14420750D02*
X9780049Y-14430274D01*
X9780049Y-14430274D02*
X9789572Y-14439798D01*
X9789572Y-14439798D02*
X9799096Y-14458846D01*
X9799096Y-14458846D02*
X9808620Y-14496941D01*
X9808620Y-14496941D02*
X9808620Y-14544560D01*
X9808620Y-14544560D02*
X9799096Y-14582655D01*
X9799096Y-14582655D02*
X9789572Y-14601703D01*
X9789572Y-14601703D02*
X9780049Y-14611227D01*
X9780049Y-14611227D02*
X9761001Y-14620750D01*
X9761001Y-14620750D02*
X9741953Y-14620750D01*
X9741953Y-14620750D02*
X9722906Y-14611227D01*
X9722906Y-14611227D02*
X9713382Y-14601703D01*
X9713382Y-14601703D02*
X9703858Y-14582655D01*
X9703858Y-14582655D02*
X9694334Y-14544560D01*
X9694334Y-14544560D02*
X9694334Y-14496941D01*
X9694334Y-14496941D02*
X9703858Y-14458846D01*
X9703858Y-14458846D02*
X9713382Y-14439798D01*
X9713382Y-14439798D02*
X9722906Y-14430274D01*
X9722906Y-14430274D02*
X9741953Y-14420750D01*
X9894334Y-14620750D02*
X9894334Y-14487417D01*
X9894334Y-14506465D02*
X9903858Y-14496941D01*
X9903858Y-14496941D02*
X9922906Y-14487417D01*
X9922906Y-14487417D02*
X9951477Y-14487417D01*
X9951477Y-14487417D02*
X9970525Y-14496941D01*
X9970525Y-14496941D02*
X9980049Y-14515988D01*
X9980049Y-14515988D02*
X9980049Y-14620750D01*
X9980049Y-14515988D02*
X9989572Y-14496941D01*
X9989572Y-14496941D02*
X10008620Y-14487417D01*
X10008620Y-14487417D02*
X10037191Y-14487417D01*
X10037191Y-14487417D02*
X10056239Y-14496941D01*
X10056239Y-14496941D02*
X10065763Y-14515988D01*
X10065763Y-14515988D02*
X10065763Y-14620750D01*
X10161001Y-14620750D02*
X10161001Y-14487417D01*
X10161001Y-14506465D02*
X10170525Y-14496941D01*
X10170525Y-14496941D02*
X10189572Y-14487417D01*
X10189572Y-14487417D02*
X10218144Y-14487417D01*
X10218144Y-14487417D02*
X10237191Y-14496941D01*
X10237191Y-14496941D02*
X10246715Y-14515988D01*
X10246715Y-14515988D02*
X10246715Y-14620750D01*
X10246715Y-14515988D02*
X10256239Y-14496941D01*
X10256239Y-14496941D02*
X10275287Y-14487417D01*
X10275287Y-14487417D02*
X10303858Y-14487417D01*
X10303858Y-14487417D02*
X10322906Y-14496941D01*
X10322906Y-14496941D02*
X10332430Y-14515988D01*
X10332430Y-14515988D02*
X10332430Y-14620750D01*
X10722906Y-14411227D02*
X10551477Y-14668369D01*
X10980049Y-14420750D02*
X10999096Y-14420750D01*
X10999096Y-14420750D02*
X11018144Y-14430274D01*
X11018144Y-14430274D02*
X11027668Y-14439798D01*
X11027668Y-14439798D02*
X11037192Y-14458846D01*
X11037192Y-14458846D02*
X11046715Y-14496941D01*
X11046715Y-14496941D02*
X11046715Y-14544560D01*
X11046715Y-14544560D02*
X11037192Y-14582655D01*
X11037192Y-14582655D02*
X11027668Y-14601703D01*
X11027668Y-14601703D02*
X11018144Y-14611227D01*
X11018144Y-14611227D02*
X10999096Y-14620750D01*
X10999096Y-14620750D02*
X10980049Y-14620750D01*
X10980049Y-14620750D02*
X10961001Y-14611227D01*
X10961001Y-14611227D02*
X10951477Y-14601703D01*
X10951477Y-14601703D02*
X10941953Y-14582655D01*
X10941953Y-14582655D02*
X10932430Y-14544560D01*
X10932430Y-14544560D02*
X10932430Y-14496941D01*
X10932430Y-14496941D02*
X10941953Y-14458846D01*
X10941953Y-14458846D02*
X10951477Y-14439798D01*
X10951477Y-14439798D02*
X10961001Y-14430274D01*
X10961001Y-14430274D02*
X10980049Y-14420750D01*
X11132430Y-14601703D02*
X11141953Y-14611227D01*
X11141953Y-14611227D02*
X11132430Y-14620750D01*
X11132430Y-14620750D02*
X11122906Y-14611227D01*
X11122906Y-14611227D02*
X11132430Y-14601703D01*
X11132430Y-14601703D02*
X11132430Y-14620750D01*
X11265763Y-14420750D02*
X11284811Y-14420750D01*
X11284811Y-14420750D02*
X11303858Y-14430274D01*
X11303858Y-14430274D02*
X11313382Y-14439798D01*
X11313382Y-14439798D02*
X11322906Y-14458846D01*
X11322906Y-14458846D02*
X11332430Y-14496941D01*
X11332430Y-14496941D02*
X11332430Y-14544560D01*
X11332430Y-14544560D02*
X11322906Y-14582655D01*
X11322906Y-14582655D02*
X11313382Y-14601703D01*
X11313382Y-14601703D02*
X11303858Y-14611227D01*
X11303858Y-14611227D02*
X11284811Y-14620750D01*
X11284811Y-14620750D02*
X11265763Y-14620750D01*
X11265763Y-14620750D02*
X11246715Y-14611227D01*
X11246715Y-14611227D02*
X11237191Y-14601703D01*
X11237191Y-14601703D02*
X11227668Y-14582655D01*
X11227668Y-14582655D02*
X11218144Y-14544560D01*
X11218144Y-14544560D02*
X11218144Y-14496941D01*
X11218144Y-14496941D02*
X11227668Y-14458846D01*
X11227668Y-14458846D02*
X11237191Y-14439798D01*
X11237191Y-14439798D02*
X11246715Y-14430274D01*
X11246715Y-14430274D02*
X11265763Y-14420750D01*
X11408620Y-14439798D02*
X11418144Y-14430274D01*
X11418144Y-14430274D02*
X11437191Y-14420750D01*
X11437191Y-14420750D02*
X11484811Y-14420750D01*
X11484811Y-14420750D02*
X11503858Y-14430274D01*
X11503858Y-14430274D02*
X11513382Y-14439798D01*
X11513382Y-14439798D02*
X11522906Y-14458846D01*
X11522906Y-14458846D02*
X11522906Y-14477893D01*
X11522906Y-14477893D02*
X11513382Y-14506465D01*
X11513382Y-14506465D02*
X11399096Y-14620750D01*
X11399096Y-14620750D02*
X11522906Y-14620750D01*
X11618144Y-14620750D02*
X11656239Y-14620750D01*
X11656239Y-14620750D02*
X11675287Y-14611227D01*
X11675287Y-14611227D02*
X11684811Y-14601703D01*
X11684811Y-14601703D02*
X11703858Y-14573131D01*
X11703858Y-14573131D02*
X11713382Y-14535036D01*
X11713382Y-14535036D02*
X11713382Y-14458846D01*
X11713382Y-14458846D02*
X11703858Y-14439798D01*
X11703858Y-14439798D02*
X11694334Y-14430274D01*
X11694334Y-14430274D02*
X11675287Y-14420750D01*
X11675287Y-14420750D02*
X11637191Y-14420750D01*
X11637191Y-14420750D02*
X11618144Y-14430274D01*
X11618144Y-14430274D02*
X11608620Y-14439798D01*
X11608620Y-14439798D02*
X11599096Y-14458846D01*
X11599096Y-14458846D02*
X11599096Y-14506465D01*
X11599096Y-14506465D02*
X11608620Y-14525512D01*
X11608620Y-14525512D02*
X11618144Y-14535036D01*
X11618144Y-14535036D02*
X11637191Y-14544560D01*
X11637191Y-14544560D02*
X11675287Y-14544560D01*
X11675287Y-14544560D02*
X11694334Y-14535036D01*
X11694334Y-14535036D02*
X11703858Y-14525512D01*
X11703858Y-14525512D02*
X11713382Y-14506465D01*
X11894334Y-14420750D02*
X11799096Y-14420750D01*
X11799096Y-14420750D02*
X11789572Y-14515988D01*
X11789572Y-14515988D02*
X11799096Y-14506465D01*
X11799096Y-14506465D02*
X11818144Y-14496941D01*
X11818144Y-14496941D02*
X11865763Y-14496941D01*
X11865763Y-14496941D02*
X11884811Y-14506465D01*
X11884811Y-14506465D02*
X11894334Y-14515988D01*
X11894334Y-14515988D02*
X11903858Y-14535036D01*
X11903858Y-14535036D02*
X11903858Y-14582655D01*
X11903858Y-14582655D02*
X11894334Y-14601703D01*
X11894334Y-14601703D02*
X11884811Y-14611227D01*
X11884811Y-14611227D02*
X11865763Y-14620750D01*
X11865763Y-14620750D02*
X11818144Y-14620750D01*
X11818144Y-14620750D02*
X11799096Y-14611227D01*
X11799096Y-14611227D02*
X11789572Y-14601703D01*
X11980049Y-14420750D02*
X11980049Y-14458846D01*
X12056239Y-14420750D02*
X12056239Y-14458846D01*
X12351477Y-14696941D02*
X12341953Y-14687417D01*
X12341953Y-14687417D02*
X12322906Y-14658846D01*
X12322906Y-14658846D02*
X12313382Y-14639798D01*
X12313382Y-14639798D02*
X12303858Y-14611227D01*
X12303858Y-14611227D02*
X12294334Y-14563607D01*
X12294334Y-14563607D02*
X12294334Y-14525512D01*
X12294334Y-14525512D02*
X12303858Y-14477893D01*
X12303858Y-14477893D02*
X12313382Y-14449322D01*
X12313382Y-14449322D02*
X12322906Y-14430274D01*
X12322906Y-14430274D02*
X12341953Y-14401703D01*
X12341953Y-14401703D02*
X12351477Y-14392179D01*
X12418144Y-14439798D02*
X12427668Y-14430274D01*
X12427668Y-14430274D02*
X12446715Y-14420750D01*
X12446715Y-14420750D02*
X12494334Y-14420750D01*
X12494334Y-14420750D02*
X12513382Y-14430274D01*
X12513382Y-14430274D02*
X12522906Y-14439798D01*
X12522906Y-14439798D02*
X12532430Y-14458846D01*
X12532430Y-14458846D02*
X12532430Y-14477893D01*
X12532430Y-14477893D02*
X12522906Y-14506465D01*
X12522906Y-14506465D02*
X12408620Y-14620750D01*
X12408620Y-14620750D02*
X12532430Y-14620750D01*
X12770525Y-14620750D02*
X12770525Y-14420750D01*
X12856239Y-14620750D02*
X12856239Y-14515988D01*
X12856239Y-14515988D02*
X12846715Y-14496941D01*
X12846715Y-14496941D02*
X12827668Y-14487417D01*
X12827668Y-14487417D02*
X12799096Y-14487417D01*
X12799096Y-14487417D02*
X12780049Y-14496941D01*
X12780049Y-14496941D02*
X12770525Y-14506465D01*
X12980049Y-14620750D02*
X12961001Y-14611227D01*
X12961001Y-14611227D02*
X12951477Y-14601703D01*
X12951477Y-14601703D02*
X12941954Y-14582655D01*
X12941954Y-14582655D02*
X12941954Y-14525512D01*
X12941954Y-14525512D02*
X12951477Y-14506465D01*
X12951477Y-14506465D02*
X12961001Y-14496941D01*
X12961001Y-14496941D02*
X12980049Y-14487417D01*
X12980049Y-14487417D02*
X13008620Y-14487417D01*
X13008620Y-14487417D02*
X13027668Y-14496941D01*
X13027668Y-14496941D02*
X13037192Y-14506465D01*
X13037192Y-14506465D02*
X13046715Y-14525512D01*
X13046715Y-14525512D02*
X13046715Y-14582655D01*
X13046715Y-14582655D02*
X13037192Y-14601703D01*
X13037192Y-14601703D02*
X13027668Y-14611227D01*
X13027668Y-14611227D02*
X13008620Y-14620750D01*
X13008620Y-14620750D02*
X12980049Y-14620750D01*
X13161001Y-14620750D02*
X13141954Y-14611227D01*
X13141954Y-14611227D02*
X13132430Y-14592179D01*
X13132430Y-14592179D02*
X13132430Y-14420750D01*
X13313382Y-14611227D02*
X13294335Y-14620750D01*
X13294335Y-14620750D02*
X13256239Y-14620750D01*
X13256239Y-14620750D02*
X13237192Y-14611227D01*
X13237192Y-14611227D02*
X13227668Y-14592179D01*
X13227668Y-14592179D02*
X13227668Y-14515988D01*
X13227668Y-14515988D02*
X13237192Y-14496941D01*
X13237192Y-14496941D02*
X13256239Y-14487417D01*
X13256239Y-14487417D02*
X13294335Y-14487417D01*
X13294335Y-14487417D02*
X13313382Y-14496941D01*
X13313382Y-14496941D02*
X13322906Y-14515988D01*
X13322906Y-14515988D02*
X13322906Y-14535036D01*
X13322906Y-14535036D02*
X13227668Y-14554084D01*
X13399096Y-14611227D02*
X13418144Y-14620750D01*
X13418144Y-14620750D02*
X13456239Y-14620750D01*
X13456239Y-14620750D02*
X13475287Y-14611227D01*
X13475287Y-14611227D02*
X13484811Y-14592179D01*
X13484811Y-14592179D02*
X13484811Y-14582655D01*
X13484811Y-14582655D02*
X13475287Y-14563607D01*
X13475287Y-14563607D02*
X13456239Y-14554084D01*
X13456239Y-14554084D02*
X13427668Y-14554084D01*
X13427668Y-14554084D02*
X13408620Y-14544560D01*
X13408620Y-14544560D02*
X13399096Y-14525512D01*
X13399096Y-14525512D02*
X13399096Y-14515988D01*
X13399096Y-14515988D02*
X13408620Y-14496941D01*
X13408620Y-14496941D02*
X13427668Y-14487417D01*
X13427668Y-14487417D02*
X13456239Y-14487417D01*
X13456239Y-14487417D02*
X13475287Y-14496941D01*
X13551477Y-14696941D02*
X13561001Y-14687417D01*
X13561001Y-14687417D02*
X13580049Y-14658846D01*
X13580049Y-14658846D02*
X13589573Y-14639798D01*
X13589573Y-14639798D02*
X13599096Y-14611227D01*
X13599096Y-14611227D02*
X13608620Y-14563607D01*
X13608620Y-14563607D02*
X13608620Y-14525512D01*
X13608620Y-14525512D02*
X13599096Y-14477893D01*
X13599096Y-14477893D02*
X13589573Y-14449322D01*
X13589573Y-14449322D02*
X13580049Y-14430274D01*
X13580049Y-14430274D02*
X13561001Y-14401703D01*
X13561001Y-14401703D02*
X13551477Y-14392179D01*
D12*
X8736415Y-14753267D02*
X8736415Y-14833267D01*
X8696415Y-14793267D02*
X8776415Y-14793267D01*
D11*
X9075287Y-14684750D02*
X9094334Y-14684750D01*
X9094334Y-14684750D02*
X9113382Y-14694274D01*
X9113382Y-14694274D02*
X9122906Y-14703798D01*
X9122906Y-14703798D02*
X9132429Y-14722846D01*
X9132429Y-14722846D02*
X9141953Y-14760941D01*
X9141953Y-14760941D02*
X9141953Y-14808560D01*
X9141953Y-14808560D02*
X9132429Y-14846655D01*
X9132429Y-14846655D02*
X9122906Y-14865703D01*
X9122906Y-14865703D02*
X9113382Y-14875227D01*
X9113382Y-14875227D02*
X9094334Y-14884750D01*
X9094334Y-14884750D02*
X9075287Y-14884750D01*
X9075287Y-14884750D02*
X9056239Y-14875227D01*
X9056239Y-14875227D02*
X9046715Y-14865703D01*
X9046715Y-14865703D02*
X9037191Y-14846655D01*
X9037191Y-14846655D02*
X9027668Y-14808560D01*
X9027668Y-14808560D02*
X9027668Y-14760941D01*
X9027668Y-14760941D02*
X9037191Y-14722846D01*
X9037191Y-14722846D02*
X9046715Y-14703798D01*
X9046715Y-14703798D02*
X9056239Y-14694274D01*
X9056239Y-14694274D02*
X9075287Y-14684750D01*
X9227668Y-14865703D02*
X9237191Y-14875227D01*
X9237191Y-14875227D02*
X9227668Y-14884750D01*
X9227668Y-14884750D02*
X9218144Y-14875227D01*
X9218144Y-14875227D02*
X9227668Y-14865703D01*
X9227668Y-14865703D02*
X9227668Y-14884750D01*
X9351477Y-14770465D02*
X9332429Y-14760941D01*
X9332429Y-14760941D02*
X9322906Y-14751417D01*
X9322906Y-14751417D02*
X9313382Y-14732369D01*
X9313382Y-14732369D02*
X9313382Y-14722846D01*
X9313382Y-14722846D02*
X9322906Y-14703798D01*
X9322906Y-14703798D02*
X9332429Y-14694274D01*
X9332429Y-14694274D02*
X9351477Y-14684750D01*
X9351477Y-14684750D02*
X9389572Y-14684750D01*
X9389572Y-14684750D02*
X9408620Y-14694274D01*
X9408620Y-14694274D02*
X9418144Y-14703798D01*
X9418144Y-14703798D02*
X9427668Y-14722846D01*
X9427668Y-14722846D02*
X9427668Y-14732369D01*
X9427668Y-14732369D02*
X9418144Y-14751417D01*
X9418144Y-14751417D02*
X9408620Y-14760941D01*
X9408620Y-14760941D02*
X9389572Y-14770465D01*
X9389572Y-14770465D02*
X9351477Y-14770465D01*
X9351477Y-14770465D02*
X9332429Y-14779988D01*
X9332429Y-14779988D02*
X9322906Y-14789512D01*
X9322906Y-14789512D02*
X9313382Y-14808560D01*
X9313382Y-14808560D02*
X9313382Y-14846655D01*
X9313382Y-14846655D02*
X9322906Y-14865703D01*
X9322906Y-14865703D02*
X9332429Y-14875227D01*
X9332429Y-14875227D02*
X9351477Y-14884750D01*
X9351477Y-14884750D02*
X9389572Y-14884750D01*
X9389572Y-14884750D02*
X9408620Y-14875227D01*
X9408620Y-14875227D02*
X9418144Y-14865703D01*
X9418144Y-14865703D02*
X9427668Y-14846655D01*
X9427668Y-14846655D02*
X9427668Y-14808560D01*
X9427668Y-14808560D02*
X9418144Y-14789512D01*
X9418144Y-14789512D02*
X9408620Y-14779988D01*
X9408620Y-14779988D02*
X9389572Y-14770465D01*
X9551477Y-14684750D02*
X9570525Y-14684750D01*
X9570525Y-14684750D02*
X9589572Y-14694274D01*
X9589572Y-14694274D02*
X9599096Y-14703798D01*
X9599096Y-14703798D02*
X9608620Y-14722846D01*
X9608620Y-14722846D02*
X9618144Y-14760941D01*
X9618144Y-14760941D02*
X9618144Y-14808560D01*
X9618144Y-14808560D02*
X9608620Y-14846655D01*
X9608620Y-14846655D02*
X9599096Y-14865703D01*
X9599096Y-14865703D02*
X9589572Y-14875227D01*
X9589572Y-14875227D02*
X9570525Y-14884750D01*
X9570525Y-14884750D02*
X9551477Y-14884750D01*
X9551477Y-14884750D02*
X9532429Y-14875227D01*
X9532429Y-14875227D02*
X9522906Y-14865703D01*
X9522906Y-14865703D02*
X9513382Y-14846655D01*
X9513382Y-14846655D02*
X9503858Y-14808560D01*
X9503858Y-14808560D02*
X9503858Y-14760941D01*
X9503858Y-14760941D02*
X9513382Y-14722846D01*
X9513382Y-14722846D02*
X9522906Y-14703798D01*
X9522906Y-14703798D02*
X9532429Y-14694274D01*
X9532429Y-14694274D02*
X9551477Y-14684750D01*
X9741953Y-14684750D02*
X9761001Y-14684750D01*
X9761001Y-14684750D02*
X9780049Y-14694274D01*
X9780049Y-14694274D02*
X9789572Y-14703798D01*
X9789572Y-14703798D02*
X9799096Y-14722846D01*
X9799096Y-14722846D02*
X9808620Y-14760941D01*
X9808620Y-14760941D02*
X9808620Y-14808560D01*
X9808620Y-14808560D02*
X9799096Y-14846655D01*
X9799096Y-14846655D02*
X9789572Y-14865703D01*
X9789572Y-14865703D02*
X9780049Y-14875227D01*
X9780049Y-14875227D02*
X9761001Y-14884750D01*
X9761001Y-14884750D02*
X9741953Y-14884750D01*
X9741953Y-14884750D02*
X9722906Y-14875227D01*
X9722906Y-14875227D02*
X9713382Y-14865703D01*
X9713382Y-14865703D02*
X9703858Y-14846655D01*
X9703858Y-14846655D02*
X9694334Y-14808560D01*
X9694334Y-14808560D02*
X9694334Y-14760941D01*
X9694334Y-14760941D02*
X9703858Y-14722846D01*
X9703858Y-14722846D02*
X9713382Y-14703798D01*
X9713382Y-14703798D02*
X9722906Y-14694274D01*
X9722906Y-14694274D02*
X9741953Y-14684750D01*
X9894334Y-14884750D02*
X9894334Y-14751417D01*
X9894334Y-14770465D02*
X9903858Y-14760941D01*
X9903858Y-14760941D02*
X9922906Y-14751417D01*
X9922906Y-14751417D02*
X9951477Y-14751417D01*
X9951477Y-14751417D02*
X9970525Y-14760941D01*
X9970525Y-14760941D02*
X9980049Y-14779988D01*
X9980049Y-14779988D02*
X9980049Y-14884750D01*
X9980049Y-14779988D02*
X9989572Y-14760941D01*
X9989572Y-14760941D02*
X10008620Y-14751417D01*
X10008620Y-14751417D02*
X10037191Y-14751417D01*
X10037191Y-14751417D02*
X10056239Y-14760941D01*
X10056239Y-14760941D02*
X10065763Y-14779988D01*
X10065763Y-14779988D02*
X10065763Y-14884750D01*
X10161001Y-14884750D02*
X10161001Y-14751417D01*
X10161001Y-14770465D02*
X10170525Y-14760941D01*
X10170525Y-14760941D02*
X10189572Y-14751417D01*
X10189572Y-14751417D02*
X10218144Y-14751417D01*
X10218144Y-14751417D02*
X10237191Y-14760941D01*
X10237191Y-14760941D02*
X10246715Y-14779988D01*
X10246715Y-14779988D02*
X10246715Y-14884750D01*
X10246715Y-14779988D02*
X10256239Y-14760941D01*
X10256239Y-14760941D02*
X10275287Y-14751417D01*
X10275287Y-14751417D02*
X10303858Y-14751417D01*
X10303858Y-14751417D02*
X10322906Y-14760941D01*
X10322906Y-14760941D02*
X10332430Y-14779988D01*
X10332430Y-14779988D02*
X10332430Y-14884750D01*
X10722906Y-14675227D02*
X10551477Y-14932369D01*
X10980049Y-14684750D02*
X10999096Y-14684750D01*
X10999096Y-14684750D02*
X11018144Y-14694274D01*
X11018144Y-14694274D02*
X11027668Y-14703798D01*
X11027668Y-14703798D02*
X11037192Y-14722846D01*
X11037192Y-14722846D02*
X11046715Y-14760941D01*
X11046715Y-14760941D02*
X11046715Y-14808560D01*
X11046715Y-14808560D02*
X11037192Y-14846655D01*
X11037192Y-14846655D02*
X11027668Y-14865703D01*
X11027668Y-14865703D02*
X11018144Y-14875227D01*
X11018144Y-14875227D02*
X10999096Y-14884750D01*
X10999096Y-14884750D02*
X10980049Y-14884750D01*
X10980049Y-14884750D02*
X10961001Y-14875227D01*
X10961001Y-14875227D02*
X10951477Y-14865703D01*
X10951477Y-14865703D02*
X10941953Y-14846655D01*
X10941953Y-14846655D02*
X10932430Y-14808560D01*
X10932430Y-14808560D02*
X10932430Y-14760941D01*
X10932430Y-14760941D02*
X10941953Y-14722846D01*
X10941953Y-14722846D02*
X10951477Y-14703798D01*
X10951477Y-14703798D02*
X10961001Y-14694274D01*
X10961001Y-14694274D02*
X10980049Y-14684750D01*
X11132430Y-14865703D02*
X11141953Y-14875227D01*
X11141953Y-14875227D02*
X11132430Y-14884750D01*
X11132430Y-14884750D02*
X11122906Y-14875227D01*
X11122906Y-14875227D02*
X11132430Y-14865703D01*
X11132430Y-14865703D02*
X11132430Y-14884750D01*
X11265763Y-14684750D02*
X11284811Y-14684750D01*
X11284811Y-14684750D02*
X11303858Y-14694274D01*
X11303858Y-14694274D02*
X11313382Y-14703798D01*
X11313382Y-14703798D02*
X11322906Y-14722846D01*
X11322906Y-14722846D02*
X11332430Y-14760941D01*
X11332430Y-14760941D02*
X11332430Y-14808560D01*
X11332430Y-14808560D02*
X11322906Y-14846655D01*
X11322906Y-14846655D02*
X11313382Y-14865703D01*
X11313382Y-14865703D02*
X11303858Y-14875227D01*
X11303858Y-14875227D02*
X11284811Y-14884750D01*
X11284811Y-14884750D02*
X11265763Y-14884750D01*
X11265763Y-14884750D02*
X11246715Y-14875227D01*
X11246715Y-14875227D02*
X11237191Y-14865703D01*
X11237191Y-14865703D02*
X11227668Y-14846655D01*
X11227668Y-14846655D02*
X11218144Y-14808560D01*
X11218144Y-14808560D02*
X11218144Y-14760941D01*
X11218144Y-14760941D02*
X11227668Y-14722846D01*
X11227668Y-14722846D02*
X11237191Y-14703798D01*
X11237191Y-14703798D02*
X11246715Y-14694274D01*
X11246715Y-14694274D02*
X11265763Y-14684750D01*
X11399096Y-14684750D02*
X11522906Y-14684750D01*
X11522906Y-14684750D02*
X11456239Y-14760941D01*
X11456239Y-14760941D02*
X11484811Y-14760941D01*
X11484811Y-14760941D02*
X11503858Y-14770465D01*
X11503858Y-14770465D02*
X11513382Y-14779988D01*
X11513382Y-14779988D02*
X11522906Y-14799036D01*
X11522906Y-14799036D02*
X11522906Y-14846655D01*
X11522906Y-14846655D02*
X11513382Y-14865703D01*
X11513382Y-14865703D02*
X11503858Y-14875227D01*
X11503858Y-14875227D02*
X11484811Y-14884750D01*
X11484811Y-14884750D02*
X11427668Y-14884750D01*
X11427668Y-14884750D02*
X11408620Y-14875227D01*
X11408620Y-14875227D02*
X11399096Y-14865703D01*
X11713382Y-14884750D02*
X11599096Y-14884750D01*
X11656239Y-14884750D02*
X11656239Y-14684750D01*
X11656239Y-14684750D02*
X11637191Y-14713322D01*
X11637191Y-14713322D02*
X11618144Y-14732369D01*
X11618144Y-14732369D02*
X11599096Y-14741893D01*
X11894334Y-14684750D02*
X11799096Y-14684750D01*
X11799096Y-14684750D02*
X11789572Y-14779988D01*
X11789572Y-14779988D02*
X11799096Y-14770465D01*
X11799096Y-14770465D02*
X11818144Y-14760941D01*
X11818144Y-14760941D02*
X11865763Y-14760941D01*
X11865763Y-14760941D02*
X11884811Y-14770465D01*
X11884811Y-14770465D02*
X11894334Y-14779988D01*
X11894334Y-14779988D02*
X11903858Y-14799036D01*
X11903858Y-14799036D02*
X11903858Y-14846655D01*
X11903858Y-14846655D02*
X11894334Y-14865703D01*
X11894334Y-14865703D02*
X11884811Y-14875227D01*
X11884811Y-14875227D02*
X11865763Y-14884750D01*
X11865763Y-14884750D02*
X11818144Y-14884750D01*
X11818144Y-14884750D02*
X11799096Y-14875227D01*
X11799096Y-14875227D02*
X11789572Y-14865703D01*
X11980049Y-14684750D02*
X11980049Y-14722846D01*
X12056239Y-14684750D02*
X12056239Y-14722846D01*
X12351477Y-14960941D02*
X12341953Y-14951417D01*
X12341953Y-14951417D02*
X12322906Y-14922846D01*
X12322906Y-14922846D02*
X12313382Y-14903798D01*
X12313382Y-14903798D02*
X12303858Y-14875227D01*
X12303858Y-14875227D02*
X12294334Y-14827607D01*
X12294334Y-14827607D02*
X12294334Y-14789512D01*
X12294334Y-14789512D02*
X12303858Y-14741893D01*
X12303858Y-14741893D02*
X12313382Y-14713322D01*
X12313382Y-14713322D02*
X12322906Y-14694274D01*
X12322906Y-14694274D02*
X12341953Y-14665703D01*
X12341953Y-14665703D02*
X12351477Y-14656179D01*
X12513382Y-14684750D02*
X12475287Y-14684750D01*
X12475287Y-14684750D02*
X12456239Y-14694274D01*
X12456239Y-14694274D02*
X12446715Y-14703798D01*
X12446715Y-14703798D02*
X12427668Y-14732369D01*
X12427668Y-14732369D02*
X12418144Y-14770465D01*
X12418144Y-14770465D02*
X12418144Y-14846655D01*
X12418144Y-14846655D02*
X12427668Y-14865703D01*
X12427668Y-14865703D02*
X12437192Y-14875227D01*
X12437192Y-14875227D02*
X12456239Y-14884750D01*
X12456239Y-14884750D02*
X12494334Y-14884750D01*
X12494334Y-14884750D02*
X12513382Y-14875227D01*
X12513382Y-14875227D02*
X12522906Y-14865703D01*
X12522906Y-14865703D02*
X12532430Y-14846655D01*
X12532430Y-14846655D02*
X12532430Y-14799036D01*
X12532430Y-14799036D02*
X12522906Y-14779988D01*
X12522906Y-14779988D02*
X12513382Y-14770465D01*
X12513382Y-14770465D02*
X12494334Y-14760941D01*
X12494334Y-14760941D02*
X12456239Y-14760941D01*
X12456239Y-14760941D02*
X12437192Y-14770465D01*
X12437192Y-14770465D02*
X12427668Y-14779988D01*
X12427668Y-14779988D02*
X12418144Y-14799036D01*
X12770525Y-14884750D02*
X12770525Y-14684750D01*
X12856239Y-14884750D02*
X12856239Y-14779988D01*
X12856239Y-14779988D02*
X12846715Y-14760941D01*
X12846715Y-14760941D02*
X12827668Y-14751417D01*
X12827668Y-14751417D02*
X12799096Y-14751417D01*
X12799096Y-14751417D02*
X12780049Y-14760941D01*
X12780049Y-14760941D02*
X12770525Y-14770465D01*
X12980049Y-14884750D02*
X12961001Y-14875227D01*
X12961001Y-14875227D02*
X12951477Y-14865703D01*
X12951477Y-14865703D02*
X12941954Y-14846655D01*
X12941954Y-14846655D02*
X12941954Y-14789512D01*
X12941954Y-14789512D02*
X12951477Y-14770465D01*
X12951477Y-14770465D02*
X12961001Y-14760941D01*
X12961001Y-14760941D02*
X12980049Y-14751417D01*
X12980049Y-14751417D02*
X13008620Y-14751417D01*
X13008620Y-14751417D02*
X13027668Y-14760941D01*
X13027668Y-14760941D02*
X13037192Y-14770465D01*
X13037192Y-14770465D02*
X13046715Y-14789512D01*
X13046715Y-14789512D02*
X13046715Y-14846655D01*
X13046715Y-14846655D02*
X13037192Y-14865703D01*
X13037192Y-14865703D02*
X13027668Y-14875227D01*
X13027668Y-14875227D02*
X13008620Y-14884750D01*
X13008620Y-14884750D02*
X12980049Y-14884750D01*
X13161001Y-14884750D02*
X13141954Y-14875227D01*
X13141954Y-14875227D02*
X13132430Y-14856179D01*
X13132430Y-14856179D02*
X13132430Y-14684750D01*
X13313382Y-14875227D02*
X13294335Y-14884750D01*
X13294335Y-14884750D02*
X13256239Y-14884750D01*
X13256239Y-14884750D02*
X13237192Y-14875227D01*
X13237192Y-14875227D02*
X13227668Y-14856179D01*
X13227668Y-14856179D02*
X13227668Y-14779988D01*
X13227668Y-14779988D02*
X13237192Y-14760941D01*
X13237192Y-14760941D02*
X13256239Y-14751417D01*
X13256239Y-14751417D02*
X13294335Y-14751417D01*
X13294335Y-14751417D02*
X13313382Y-14760941D01*
X13313382Y-14760941D02*
X13322906Y-14779988D01*
X13322906Y-14779988D02*
X13322906Y-14799036D01*
X13322906Y-14799036D02*
X13227668Y-14818084D01*
X13399096Y-14875227D02*
X13418144Y-14884750D01*
X13418144Y-14884750D02*
X13456239Y-14884750D01*
X13456239Y-14884750D02*
X13475287Y-14875227D01*
X13475287Y-14875227D02*
X13484811Y-14856179D01*
X13484811Y-14856179D02*
X13484811Y-14846655D01*
X13484811Y-14846655D02*
X13475287Y-14827607D01*
X13475287Y-14827607D02*
X13456239Y-14818084D01*
X13456239Y-14818084D02*
X13427668Y-14818084D01*
X13427668Y-14818084D02*
X13408620Y-14808560D01*
X13408620Y-14808560D02*
X13399096Y-14789512D01*
X13399096Y-14789512D02*
X13399096Y-14779988D01*
X13399096Y-14779988D02*
X13408620Y-14760941D01*
X13408620Y-14760941D02*
X13427668Y-14751417D01*
X13427668Y-14751417D02*
X13456239Y-14751417D01*
X13456239Y-14751417D02*
X13475287Y-14760941D01*
X13551477Y-14960941D02*
X13561001Y-14951417D01*
X13561001Y-14951417D02*
X13580049Y-14922846D01*
X13580049Y-14922846D02*
X13589573Y-14903798D01*
X13589573Y-14903798D02*
X13599096Y-14875227D01*
X13599096Y-14875227D02*
X13608620Y-14827607D01*
X13608620Y-14827607D02*
X13608620Y-14789512D01*
X13608620Y-14789512D02*
X13599096Y-14741893D01*
X13599096Y-14741893D02*
X13589573Y-14713322D01*
X13589573Y-14713322D02*
X13580049Y-14694274D01*
X13580049Y-14694274D02*
X13561001Y-14665703D01*
X13561001Y-14665703D02*
X13551477Y-14656179D01*
D12*
X8761770Y-15092622D02*
X8761770Y-15021911D01*
X8691059Y-15021911D01*
X8691059Y-15092622D01*
X8761770Y-15092622D01*
D11*
X9141953Y-15148750D02*
X9027668Y-15148750D01*
X9084810Y-15148750D02*
X9084810Y-14948750D01*
X9084810Y-14948750D02*
X9065763Y-14977322D01*
X9065763Y-14977322D02*
X9046715Y-14996369D01*
X9046715Y-14996369D02*
X9027668Y-15005893D01*
X9227668Y-15129703D02*
X9237191Y-15139227D01*
X9237191Y-15139227D02*
X9227668Y-15148750D01*
X9227668Y-15148750D02*
X9218144Y-15139227D01*
X9218144Y-15139227D02*
X9227668Y-15129703D01*
X9227668Y-15129703D02*
X9227668Y-15148750D01*
X9361001Y-14948750D02*
X9380049Y-14948750D01*
X9380049Y-14948750D02*
X9399096Y-14958274D01*
X9399096Y-14958274D02*
X9408620Y-14967798D01*
X9408620Y-14967798D02*
X9418144Y-14986846D01*
X9418144Y-14986846D02*
X9427668Y-15024941D01*
X9427668Y-15024941D02*
X9427668Y-15072560D01*
X9427668Y-15072560D02*
X9418144Y-15110655D01*
X9418144Y-15110655D02*
X9408620Y-15129703D01*
X9408620Y-15129703D02*
X9399096Y-15139227D01*
X9399096Y-15139227D02*
X9380049Y-15148750D01*
X9380049Y-15148750D02*
X9361001Y-15148750D01*
X9361001Y-15148750D02*
X9341953Y-15139227D01*
X9341953Y-15139227D02*
X9332429Y-15129703D01*
X9332429Y-15129703D02*
X9322906Y-15110655D01*
X9322906Y-15110655D02*
X9313382Y-15072560D01*
X9313382Y-15072560D02*
X9313382Y-15024941D01*
X9313382Y-15024941D02*
X9322906Y-14986846D01*
X9322906Y-14986846D02*
X9332429Y-14967798D01*
X9332429Y-14967798D02*
X9341953Y-14958274D01*
X9341953Y-14958274D02*
X9361001Y-14948750D01*
X9551477Y-14948750D02*
X9570525Y-14948750D01*
X9570525Y-14948750D02*
X9589572Y-14958274D01*
X9589572Y-14958274D02*
X9599096Y-14967798D01*
X9599096Y-14967798D02*
X9608620Y-14986846D01*
X9608620Y-14986846D02*
X9618144Y-15024941D01*
X9618144Y-15024941D02*
X9618144Y-15072560D01*
X9618144Y-15072560D02*
X9608620Y-15110655D01*
X9608620Y-15110655D02*
X9599096Y-15129703D01*
X9599096Y-15129703D02*
X9589572Y-15139227D01*
X9589572Y-15139227D02*
X9570525Y-15148750D01*
X9570525Y-15148750D02*
X9551477Y-15148750D01*
X9551477Y-15148750D02*
X9532429Y-15139227D01*
X9532429Y-15139227D02*
X9522906Y-15129703D01*
X9522906Y-15129703D02*
X9513382Y-15110655D01*
X9513382Y-15110655D02*
X9503858Y-15072560D01*
X9503858Y-15072560D02*
X9503858Y-15024941D01*
X9503858Y-15024941D02*
X9513382Y-14986846D01*
X9513382Y-14986846D02*
X9522906Y-14967798D01*
X9522906Y-14967798D02*
X9532429Y-14958274D01*
X9532429Y-14958274D02*
X9551477Y-14948750D01*
X9741953Y-14948750D02*
X9761001Y-14948750D01*
X9761001Y-14948750D02*
X9780049Y-14958274D01*
X9780049Y-14958274D02*
X9789572Y-14967798D01*
X9789572Y-14967798D02*
X9799096Y-14986846D01*
X9799096Y-14986846D02*
X9808620Y-15024941D01*
X9808620Y-15024941D02*
X9808620Y-15072560D01*
X9808620Y-15072560D02*
X9799096Y-15110655D01*
X9799096Y-15110655D02*
X9789572Y-15129703D01*
X9789572Y-15129703D02*
X9780049Y-15139227D01*
X9780049Y-15139227D02*
X9761001Y-15148750D01*
X9761001Y-15148750D02*
X9741953Y-15148750D01*
X9741953Y-15148750D02*
X9722906Y-15139227D01*
X9722906Y-15139227D02*
X9713382Y-15129703D01*
X9713382Y-15129703D02*
X9703858Y-15110655D01*
X9703858Y-15110655D02*
X9694334Y-15072560D01*
X9694334Y-15072560D02*
X9694334Y-15024941D01*
X9694334Y-15024941D02*
X9703858Y-14986846D01*
X9703858Y-14986846D02*
X9713382Y-14967798D01*
X9713382Y-14967798D02*
X9722906Y-14958274D01*
X9722906Y-14958274D02*
X9741953Y-14948750D01*
X9894334Y-15148750D02*
X9894334Y-15015417D01*
X9894334Y-15034465D02*
X9903858Y-15024941D01*
X9903858Y-15024941D02*
X9922906Y-15015417D01*
X9922906Y-15015417D02*
X9951477Y-15015417D01*
X9951477Y-15015417D02*
X9970525Y-15024941D01*
X9970525Y-15024941D02*
X9980049Y-15043988D01*
X9980049Y-15043988D02*
X9980049Y-15148750D01*
X9980049Y-15043988D02*
X9989572Y-15024941D01*
X9989572Y-15024941D02*
X10008620Y-15015417D01*
X10008620Y-15015417D02*
X10037191Y-15015417D01*
X10037191Y-15015417D02*
X10056239Y-15024941D01*
X10056239Y-15024941D02*
X10065763Y-15043988D01*
X10065763Y-15043988D02*
X10065763Y-15148750D01*
X10161001Y-15148750D02*
X10161001Y-15015417D01*
X10161001Y-15034465D02*
X10170525Y-15024941D01*
X10170525Y-15024941D02*
X10189572Y-15015417D01*
X10189572Y-15015417D02*
X10218144Y-15015417D01*
X10218144Y-15015417D02*
X10237191Y-15024941D01*
X10237191Y-15024941D02*
X10246715Y-15043988D01*
X10246715Y-15043988D02*
X10246715Y-15148750D01*
X10246715Y-15043988D02*
X10256239Y-15024941D01*
X10256239Y-15024941D02*
X10275287Y-15015417D01*
X10275287Y-15015417D02*
X10303858Y-15015417D01*
X10303858Y-15015417D02*
X10322906Y-15024941D01*
X10322906Y-15024941D02*
X10332430Y-15043988D01*
X10332430Y-15043988D02*
X10332430Y-15148750D01*
X10722906Y-14939227D02*
X10551477Y-15196369D01*
X10980049Y-14948750D02*
X10999096Y-14948750D01*
X10999096Y-14948750D02*
X11018144Y-14958274D01*
X11018144Y-14958274D02*
X11027668Y-14967798D01*
X11027668Y-14967798D02*
X11037192Y-14986846D01*
X11037192Y-14986846D02*
X11046715Y-15024941D01*
X11046715Y-15024941D02*
X11046715Y-15072560D01*
X11046715Y-15072560D02*
X11037192Y-15110655D01*
X11037192Y-15110655D02*
X11027668Y-15129703D01*
X11027668Y-15129703D02*
X11018144Y-15139227D01*
X11018144Y-15139227D02*
X10999096Y-15148750D01*
X10999096Y-15148750D02*
X10980049Y-15148750D01*
X10980049Y-15148750D02*
X10961001Y-15139227D01*
X10961001Y-15139227D02*
X10951477Y-15129703D01*
X10951477Y-15129703D02*
X10941953Y-15110655D01*
X10941953Y-15110655D02*
X10932430Y-15072560D01*
X10932430Y-15072560D02*
X10932430Y-15024941D01*
X10932430Y-15024941D02*
X10941953Y-14986846D01*
X10941953Y-14986846D02*
X10951477Y-14967798D01*
X10951477Y-14967798D02*
X10961001Y-14958274D01*
X10961001Y-14958274D02*
X10980049Y-14948750D01*
X11132430Y-15129703D02*
X11141953Y-15139227D01*
X11141953Y-15139227D02*
X11132430Y-15148750D01*
X11132430Y-15148750D02*
X11122906Y-15139227D01*
X11122906Y-15139227D02*
X11132430Y-15129703D01*
X11132430Y-15129703D02*
X11132430Y-15148750D01*
X11265763Y-14948750D02*
X11284811Y-14948750D01*
X11284811Y-14948750D02*
X11303858Y-14958274D01*
X11303858Y-14958274D02*
X11313382Y-14967798D01*
X11313382Y-14967798D02*
X11322906Y-14986846D01*
X11322906Y-14986846D02*
X11332430Y-15024941D01*
X11332430Y-15024941D02*
X11332430Y-15072560D01*
X11332430Y-15072560D02*
X11322906Y-15110655D01*
X11322906Y-15110655D02*
X11313382Y-15129703D01*
X11313382Y-15129703D02*
X11303858Y-15139227D01*
X11303858Y-15139227D02*
X11284811Y-15148750D01*
X11284811Y-15148750D02*
X11265763Y-15148750D01*
X11265763Y-15148750D02*
X11246715Y-15139227D01*
X11246715Y-15139227D02*
X11237191Y-15129703D01*
X11237191Y-15129703D02*
X11227668Y-15110655D01*
X11227668Y-15110655D02*
X11218144Y-15072560D01*
X11218144Y-15072560D02*
X11218144Y-15024941D01*
X11218144Y-15024941D02*
X11227668Y-14986846D01*
X11227668Y-14986846D02*
X11237191Y-14967798D01*
X11237191Y-14967798D02*
X11246715Y-14958274D01*
X11246715Y-14958274D02*
X11265763Y-14948750D01*
X11399096Y-14948750D02*
X11522906Y-14948750D01*
X11522906Y-14948750D02*
X11456239Y-15024941D01*
X11456239Y-15024941D02*
X11484811Y-15024941D01*
X11484811Y-15024941D02*
X11503858Y-15034465D01*
X11503858Y-15034465D02*
X11513382Y-15043988D01*
X11513382Y-15043988D02*
X11522906Y-15063036D01*
X11522906Y-15063036D02*
X11522906Y-15110655D01*
X11522906Y-15110655D02*
X11513382Y-15129703D01*
X11513382Y-15129703D02*
X11503858Y-15139227D01*
X11503858Y-15139227D02*
X11484811Y-15148750D01*
X11484811Y-15148750D02*
X11427668Y-15148750D01*
X11427668Y-15148750D02*
X11408620Y-15139227D01*
X11408620Y-15139227D02*
X11399096Y-15129703D01*
X11618144Y-15148750D02*
X11656239Y-15148750D01*
X11656239Y-15148750D02*
X11675287Y-15139227D01*
X11675287Y-15139227D02*
X11684811Y-15129703D01*
X11684811Y-15129703D02*
X11703858Y-15101131D01*
X11703858Y-15101131D02*
X11713382Y-15063036D01*
X11713382Y-15063036D02*
X11713382Y-14986846D01*
X11713382Y-14986846D02*
X11703858Y-14967798D01*
X11703858Y-14967798D02*
X11694334Y-14958274D01*
X11694334Y-14958274D02*
X11675287Y-14948750D01*
X11675287Y-14948750D02*
X11637191Y-14948750D01*
X11637191Y-14948750D02*
X11618144Y-14958274D01*
X11618144Y-14958274D02*
X11608620Y-14967798D01*
X11608620Y-14967798D02*
X11599096Y-14986846D01*
X11599096Y-14986846D02*
X11599096Y-15034465D01*
X11599096Y-15034465D02*
X11608620Y-15053512D01*
X11608620Y-15053512D02*
X11618144Y-15063036D01*
X11618144Y-15063036D02*
X11637191Y-15072560D01*
X11637191Y-15072560D02*
X11675287Y-15072560D01*
X11675287Y-15072560D02*
X11694334Y-15063036D01*
X11694334Y-15063036D02*
X11703858Y-15053512D01*
X11703858Y-15053512D02*
X11713382Y-15034465D01*
X11884811Y-15015417D02*
X11884811Y-15148750D01*
X11837191Y-14939227D02*
X11789572Y-15082084D01*
X11789572Y-15082084D02*
X11913382Y-15082084D01*
X11980049Y-14948750D02*
X11980049Y-14986846D01*
X12056239Y-14948750D02*
X12056239Y-14986846D01*
X12351477Y-15224941D02*
X12341953Y-15215417D01*
X12341953Y-15215417D02*
X12322906Y-15186846D01*
X12322906Y-15186846D02*
X12313382Y-15167798D01*
X12313382Y-15167798D02*
X12303858Y-15139227D01*
X12303858Y-15139227D02*
X12294334Y-15091607D01*
X12294334Y-15091607D02*
X12294334Y-15053512D01*
X12294334Y-15053512D02*
X12303858Y-15005893D01*
X12303858Y-15005893D02*
X12313382Y-14977322D01*
X12313382Y-14977322D02*
X12322906Y-14958274D01*
X12322906Y-14958274D02*
X12341953Y-14929703D01*
X12341953Y-14929703D02*
X12351477Y-14920179D01*
X12418144Y-14967798D02*
X12427668Y-14958274D01*
X12427668Y-14958274D02*
X12446715Y-14948750D01*
X12446715Y-14948750D02*
X12494334Y-14948750D01*
X12494334Y-14948750D02*
X12513382Y-14958274D01*
X12513382Y-14958274D02*
X12522906Y-14967798D01*
X12522906Y-14967798D02*
X12532430Y-14986846D01*
X12532430Y-14986846D02*
X12532430Y-15005893D01*
X12532430Y-15005893D02*
X12522906Y-15034465D01*
X12522906Y-15034465D02*
X12408620Y-15148750D01*
X12408620Y-15148750D02*
X12532430Y-15148750D01*
X12703858Y-14948750D02*
X12665763Y-14948750D01*
X12665763Y-14948750D02*
X12646715Y-14958274D01*
X12646715Y-14958274D02*
X12637192Y-14967798D01*
X12637192Y-14967798D02*
X12618144Y-14996369D01*
X12618144Y-14996369D02*
X12608620Y-15034465D01*
X12608620Y-15034465D02*
X12608620Y-15110655D01*
X12608620Y-15110655D02*
X12618144Y-15129703D01*
X12618144Y-15129703D02*
X12627668Y-15139227D01*
X12627668Y-15139227D02*
X12646715Y-15148750D01*
X12646715Y-15148750D02*
X12684811Y-15148750D01*
X12684811Y-15148750D02*
X12703858Y-15139227D01*
X12703858Y-15139227D02*
X12713382Y-15129703D01*
X12713382Y-15129703D02*
X12722906Y-15110655D01*
X12722906Y-15110655D02*
X12722906Y-15063036D01*
X12722906Y-15063036D02*
X12713382Y-15043988D01*
X12713382Y-15043988D02*
X12703858Y-15034465D01*
X12703858Y-15034465D02*
X12684811Y-15024941D01*
X12684811Y-15024941D02*
X12646715Y-15024941D01*
X12646715Y-15024941D02*
X12627668Y-15034465D01*
X12627668Y-15034465D02*
X12618144Y-15043988D01*
X12618144Y-15043988D02*
X12608620Y-15063036D01*
X12961001Y-15148750D02*
X12961001Y-14948750D01*
X13046715Y-15148750D02*
X13046715Y-15043988D01*
X13046715Y-15043988D02*
X13037192Y-15024941D01*
X13037192Y-15024941D02*
X13018144Y-15015417D01*
X13018144Y-15015417D02*
X12989573Y-15015417D01*
X12989573Y-15015417D02*
X12970525Y-15024941D01*
X12970525Y-15024941D02*
X12961001Y-15034465D01*
X13170525Y-15148750D02*
X13151477Y-15139227D01*
X13151477Y-15139227D02*
X13141954Y-15129703D01*
X13141954Y-15129703D02*
X13132430Y-15110655D01*
X13132430Y-15110655D02*
X13132430Y-15053512D01*
X13132430Y-15053512D02*
X13141954Y-15034465D01*
X13141954Y-15034465D02*
X13151477Y-15024941D01*
X13151477Y-15024941D02*
X13170525Y-15015417D01*
X13170525Y-15015417D02*
X13199096Y-15015417D01*
X13199096Y-15015417D02*
X13218144Y-15024941D01*
X13218144Y-15024941D02*
X13227668Y-15034465D01*
X13227668Y-15034465D02*
X13237192Y-15053512D01*
X13237192Y-15053512D02*
X13237192Y-15110655D01*
X13237192Y-15110655D02*
X13227668Y-15129703D01*
X13227668Y-15129703D02*
X13218144Y-15139227D01*
X13218144Y-15139227D02*
X13199096Y-15148750D01*
X13199096Y-15148750D02*
X13170525Y-15148750D01*
X13351477Y-15148750D02*
X13332430Y-15139227D01*
X13332430Y-15139227D02*
X13322906Y-15120179D01*
X13322906Y-15120179D02*
X13322906Y-14948750D01*
X13503858Y-15139227D02*
X13484811Y-15148750D01*
X13484811Y-15148750D02*
X13446715Y-15148750D01*
X13446715Y-15148750D02*
X13427668Y-15139227D01*
X13427668Y-15139227D02*
X13418144Y-15120179D01*
X13418144Y-15120179D02*
X13418144Y-15043988D01*
X13418144Y-15043988D02*
X13427668Y-15024941D01*
X13427668Y-15024941D02*
X13446715Y-15015417D01*
X13446715Y-15015417D02*
X13484811Y-15015417D01*
X13484811Y-15015417D02*
X13503858Y-15024941D01*
X13503858Y-15024941D02*
X13513382Y-15043988D01*
X13513382Y-15043988D02*
X13513382Y-15063036D01*
X13513382Y-15063036D02*
X13418144Y-15082084D01*
X13589573Y-15139227D02*
X13608620Y-15148750D01*
X13608620Y-15148750D02*
X13646715Y-15148750D01*
X13646715Y-15148750D02*
X13665763Y-15139227D01*
X13665763Y-15139227D02*
X13675287Y-15120179D01*
X13675287Y-15120179D02*
X13675287Y-15110655D01*
X13675287Y-15110655D02*
X13665763Y-15091607D01*
X13665763Y-15091607D02*
X13646715Y-15082084D01*
X13646715Y-15082084D02*
X13618144Y-15082084D01*
X13618144Y-15082084D02*
X13599096Y-15072560D01*
X13599096Y-15072560D02*
X13589573Y-15053512D01*
X13589573Y-15053512D02*
X13589573Y-15043988D01*
X13589573Y-15043988D02*
X13599096Y-15024941D01*
X13599096Y-15024941D02*
X13618144Y-15015417D01*
X13618144Y-15015417D02*
X13646715Y-15015417D01*
X13646715Y-15015417D02*
X13665763Y-15024941D01*
X13741954Y-15224941D02*
X13751477Y-15215417D01*
X13751477Y-15215417D02*
X13770525Y-15186846D01*
X13770525Y-15186846D02*
X13780049Y-15167798D01*
X13780049Y-15167798D02*
X13789573Y-15139227D01*
X13789573Y-15139227D02*
X13799096Y-15091607D01*
X13799096Y-15091607D02*
X13799096Y-15053512D01*
X13799096Y-15053512D02*
X13789573Y-15005893D01*
X13789573Y-15005893D02*
X13780049Y-14977322D01*
X13780049Y-14977322D02*
X13770525Y-14958274D01*
X13770525Y-14958274D02*
X13751477Y-14929703D01*
X13751477Y-14929703D02*
X13741954Y-14920179D01*
D13*
X8721915Y-15375767D02*
X8776415Y-15321267D01*
X8721915Y-15266767D01*
X8667415Y-15321267D01*
X8721915Y-15375767D01*
D11*
X9141953Y-15412750D02*
X9027668Y-15412750D01*
X9084810Y-15412750D02*
X9084810Y-15212750D01*
X9084810Y-15212750D02*
X9065763Y-15241322D01*
X9065763Y-15241322D02*
X9046715Y-15260369D01*
X9046715Y-15260369D02*
X9027668Y-15269893D01*
X9227668Y-15393703D02*
X9237191Y-15403227D01*
X9237191Y-15403227D02*
X9227668Y-15412750D01*
X9227668Y-15412750D02*
X9218144Y-15403227D01*
X9218144Y-15403227D02*
X9227668Y-15393703D01*
X9227668Y-15393703D02*
X9227668Y-15412750D01*
X9361001Y-15212750D02*
X9380049Y-15212750D01*
X9380049Y-15212750D02*
X9399096Y-15222274D01*
X9399096Y-15222274D02*
X9408620Y-15231798D01*
X9408620Y-15231798D02*
X9418144Y-15250846D01*
X9418144Y-15250846D02*
X9427668Y-15288941D01*
X9427668Y-15288941D02*
X9427668Y-15336560D01*
X9427668Y-15336560D02*
X9418144Y-15374655D01*
X9418144Y-15374655D02*
X9408620Y-15393703D01*
X9408620Y-15393703D02*
X9399096Y-15403227D01*
X9399096Y-15403227D02*
X9380049Y-15412750D01*
X9380049Y-15412750D02*
X9361001Y-15412750D01*
X9361001Y-15412750D02*
X9341953Y-15403227D01*
X9341953Y-15403227D02*
X9332429Y-15393703D01*
X9332429Y-15393703D02*
X9322906Y-15374655D01*
X9322906Y-15374655D02*
X9313382Y-15336560D01*
X9313382Y-15336560D02*
X9313382Y-15288941D01*
X9313382Y-15288941D02*
X9322906Y-15250846D01*
X9322906Y-15250846D02*
X9332429Y-15231798D01*
X9332429Y-15231798D02*
X9341953Y-15222274D01*
X9341953Y-15222274D02*
X9361001Y-15212750D01*
X9522906Y-15412750D02*
X9561001Y-15412750D01*
X9561001Y-15412750D02*
X9580049Y-15403227D01*
X9580049Y-15403227D02*
X9589572Y-15393703D01*
X9589572Y-15393703D02*
X9608620Y-15365131D01*
X9608620Y-15365131D02*
X9618144Y-15327036D01*
X9618144Y-15327036D02*
X9618144Y-15250846D01*
X9618144Y-15250846D02*
X9608620Y-15231798D01*
X9608620Y-15231798D02*
X9599096Y-15222274D01*
X9599096Y-15222274D02*
X9580049Y-15212750D01*
X9580049Y-15212750D02*
X9541953Y-15212750D01*
X9541953Y-15212750D02*
X9522906Y-15222274D01*
X9522906Y-15222274D02*
X9513382Y-15231798D01*
X9513382Y-15231798D02*
X9503858Y-15250846D01*
X9503858Y-15250846D02*
X9503858Y-15298465D01*
X9503858Y-15298465D02*
X9513382Y-15317512D01*
X9513382Y-15317512D02*
X9522906Y-15327036D01*
X9522906Y-15327036D02*
X9541953Y-15336560D01*
X9541953Y-15336560D02*
X9580049Y-15336560D01*
X9580049Y-15336560D02*
X9599096Y-15327036D01*
X9599096Y-15327036D02*
X9608620Y-15317512D01*
X9608620Y-15317512D02*
X9618144Y-15298465D01*
X9741953Y-15212750D02*
X9761001Y-15212750D01*
X9761001Y-15212750D02*
X9780049Y-15222274D01*
X9780049Y-15222274D02*
X9789572Y-15231798D01*
X9789572Y-15231798D02*
X9799096Y-15250846D01*
X9799096Y-15250846D02*
X9808620Y-15288941D01*
X9808620Y-15288941D02*
X9808620Y-15336560D01*
X9808620Y-15336560D02*
X9799096Y-15374655D01*
X9799096Y-15374655D02*
X9789572Y-15393703D01*
X9789572Y-15393703D02*
X9780049Y-15403227D01*
X9780049Y-15403227D02*
X9761001Y-15412750D01*
X9761001Y-15412750D02*
X9741953Y-15412750D01*
X9741953Y-15412750D02*
X9722906Y-15403227D01*
X9722906Y-15403227D02*
X9713382Y-15393703D01*
X9713382Y-15393703D02*
X9703858Y-15374655D01*
X9703858Y-15374655D02*
X9694334Y-15336560D01*
X9694334Y-15336560D02*
X9694334Y-15288941D01*
X9694334Y-15288941D02*
X9703858Y-15250846D01*
X9703858Y-15250846D02*
X9713382Y-15231798D01*
X9713382Y-15231798D02*
X9722906Y-15222274D01*
X9722906Y-15222274D02*
X9741953Y-15212750D01*
X9894334Y-15412750D02*
X9894334Y-15279417D01*
X9894334Y-15298465D02*
X9903858Y-15288941D01*
X9903858Y-15288941D02*
X9922906Y-15279417D01*
X9922906Y-15279417D02*
X9951477Y-15279417D01*
X9951477Y-15279417D02*
X9970525Y-15288941D01*
X9970525Y-15288941D02*
X9980049Y-15307988D01*
X9980049Y-15307988D02*
X9980049Y-15412750D01*
X9980049Y-15307988D02*
X9989572Y-15288941D01*
X9989572Y-15288941D02*
X10008620Y-15279417D01*
X10008620Y-15279417D02*
X10037191Y-15279417D01*
X10037191Y-15279417D02*
X10056239Y-15288941D01*
X10056239Y-15288941D02*
X10065763Y-15307988D01*
X10065763Y-15307988D02*
X10065763Y-15412750D01*
X10161001Y-15412750D02*
X10161001Y-15279417D01*
X10161001Y-15298465D02*
X10170525Y-15288941D01*
X10170525Y-15288941D02*
X10189572Y-15279417D01*
X10189572Y-15279417D02*
X10218144Y-15279417D01*
X10218144Y-15279417D02*
X10237191Y-15288941D01*
X10237191Y-15288941D02*
X10246715Y-15307988D01*
X10246715Y-15307988D02*
X10246715Y-15412750D01*
X10246715Y-15307988D02*
X10256239Y-15288941D01*
X10256239Y-15288941D02*
X10275287Y-15279417D01*
X10275287Y-15279417D02*
X10303858Y-15279417D01*
X10303858Y-15279417D02*
X10322906Y-15288941D01*
X10322906Y-15288941D02*
X10332430Y-15307988D01*
X10332430Y-15307988D02*
X10332430Y-15412750D01*
X10722906Y-15203227D02*
X10551477Y-15460369D01*
X10980049Y-15212750D02*
X10999096Y-15212750D01*
X10999096Y-15212750D02*
X11018144Y-15222274D01*
X11018144Y-15222274D02*
X11027668Y-15231798D01*
X11027668Y-15231798D02*
X11037192Y-15250846D01*
X11037192Y-15250846D02*
X11046715Y-15288941D01*
X11046715Y-15288941D02*
X11046715Y-15336560D01*
X11046715Y-15336560D02*
X11037192Y-15374655D01*
X11037192Y-15374655D02*
X11027668Y-15393703D01*
X11027668Y-15393703D02*
X11018144Y-15403227D01*
X11018144Y-15403227D02*
X10999096Y-15412750D01*
X10999096Y-15412750D02*
X10980049Y-15412750D01*
X10980049Y-15412750D02*
X10961001Y-15403227D01*
X10961001Y-15403227D02*
X10951477Y-15393703D01*
X10951477Y-15393703D02*
X10941953Y-15374655D01*
X10941953Y-15374655D02*
X10932430Y-15336560D01*
X10932430Y-15336560D02*
X10932430Y-15288941D01*
X10932430Y-15288941D02*
X10941953Y-15250846D01*
X10941953Y-15250846D02*
X10951477Y-15231798D01*
X10951477Y-15231798D02*
X10961001Y-15222274D01*
X10961001Y-15222274D02*
X10980049Y-15212750D01*
X11132430Y-15393703D02*
X11141953Y-15403227D01*
X11141953Y-15403227D02*
X11132430Y-15412750D01*
X11132430Y-15412750D02*
X11122906Y-15403227D01*
X11122906Y-15403227D02*
X11132430Y-15393703D01*
X11132430Y-15393703D02*
X11132430Y-15412750D01*
X11265763Y-15212750D02*
X11284811Y-15212750D01*
X11284811Y-15212750D02*
X11303858Y-15222274D01*
X11303858Y-15222274D02*
X11313382Y-15231798D01*
X11313382Y-15231798D02*
X11322906Y-15250846D01*
X11322906Y-15250846D02*
X11332430Y-15288941D01*
X11332430Y-15288941D02*
X11332430Y-15336560D01*
X11332430Y-15336560D02*
X11322906Y-15374655D01*
X11322906Y-15374655D02*
X11313382Y-15393703D01*
X11313382Y-15393703D02*
X11303858Y-15403227D01*
X11303858Y-15403227D02*
X11284811Y-15412750D01*
X11284811Y-15412750D02*
X11265763Y-15412750D01*
X11265763Y-15412750D02*
X11246715Y-15403227D01*
X11246715Y-15403227D02*
X11237191Y-15393703D01*
X11237191Y-15393703D02*
X11227668Y-15374655D01*
X11227668Y-15374655D02*
X11218144Y-15336560D01*
X11218144Y-15336560D02*
X11218144Y-15288941D01*
X11218144Y-15288941D02*
X11227668Y-15250846D01*
X11227668Y-15250846D02*
X11237191Y-15231798D01*
X11237191Y-15231798D02*
X11246715Y-15222274D01*
X11246715Y-15222274D02*
X11265763Y-15212750D01*
X11503858Y-15279417D02*
X11503858Y-15412750D01*
X11456239Y-15203227D02*
X11408620Y-15346084D01*
X11408620Y-15346084D02*
X11532430Y-15346084D01*
X11599096Y-15231798D02*
X11608620Y-15222274D01*
X11608620Y-15222274D02*
X11627668Y-15212750D01*
X11627668Y-15212750D02*
X11675287Y-15212750D01*
X11675287Y-15212750D02*
X11694334Y-15222274D01*
X11694334Y-15222274D02*
X11703858Y-15231798D01*
X11703858Y-15231798D02*
X11713382Y-15250846D01*
X11713382Y-15250846D02*
X11713382Y-15269893D01*
X11713382Y-15269893D02*
X11703858Y-15298465D01*
X11703858Y-15298465D02*
X11589572Y-15412750D01*
X11589572Y-15412750D02*
X11713382Y-15412750D01*
X11808620Y-15412750D02*
X11846715Y-15412750D01*
X11846715Y-15412750D02*
X11865763Y-15403227D01*
X11865763Y-15403227D02*
X11875287Y-15393703D01*
X11875287Y-15393703D02*
X11894334Y-15365131D01*
X11894334Y-15365131D02*
X11903858Y-15327036D01*
X11903858Y-15327036D02*
X11903858Y-15250846D01*
X11903858Y-15250846D02*
X11894334Y-15231798D01*
X11894334Y-15231798D02*
X11884811Y-15222274D01*
X11884811Y-15222274D02*
X11865763Y-15212750D01*
X11865763Y-15212750D02*
X11827668Y-15212750D01*
X11827668Y-15212750D02*
X11808620Y-15222274D01*
X11808620Y-15222274D02*
X11799096Y-15231798D01*
X11799096Y-15231798D02*
X11789572Y-15250846D01*
X11789572Y-15250846D02*
X11789572Y-15298465D01*
X11789572Y-15298465D02*
X11799096Y-15317512D01*
X11799096Y-15317512D02*
X11808620Y-15327036D01*
X11808620Y-15327036D02*
X11827668Y-15336560D01*
X11827668Y-15336560D02*
X11865763Y-15336560D01*
X11865763Y-15336560D02*
X11884811Y-15327036D01*
X11884811Y-15327036D02*
X11894334Y-15317512D01*
X11894334Y-15317512D02*
X11903858Y-15298465D01*
X11980049Y-15212750D02*
X11980049Y-15250846D01*
X12056239Y-15212750D02*
X12056239Y-15250846D01*
X12351477Y-15488941D02*
X12341953Y-15479417D01*
X12341953Y-15479417D02*
X12322906Y-15450846D01*
X12322906Y-15450846D02*
X12313382Y-15431798D01*
X12313382Y-15431798D02*
X12303858Y-15403227D01*
X12303858Y-15403227D02*
X12294334Y-15355607D01*
X12294334Y-15355607D02*
X12294334Y-15317512D01*
X12294334Y-15317512D02*
X12303858Y-15269893D01*
X12303858Y-15269893D02*
X12313382Y-15241322D01*
X12313382Y-15241322D02*
X12322906Y-15222274D01*
X12322906Y-15222274D02*
X12341953Y-15193703D01*
X12341953Y-15193703D02*
X12351477Y-15184179D01*
X12513382Y-15279417D02*
X12513382Y-15412750D01*
X12465763Y-15203227D02*
X12418144Y-15346084D01*
X12418144Y-15346084D02*
X12541953Y-15346084D01*
X12770525Y-15412750D02*
X12770525Y-15212750D01*
X12856239Y-15412750D02*
X12856239Y-15307988D01*
X12856239Y-15307988D02*
X12846715Y-15288941D01*
X12846715Y-15288941D02*
X12827668Y-15279417D01*
X12827668Y-15279417D02*
X12799096Y-15279417D01*
X12799096Y-15279417D02*
X12780049Y-15288941D01*
X12780049Y-15288941D02*
X12770525Y-15298465D01*
X12980049Y-15412750D02*
X12961001Y-15403227D01*
X12961001Y-15403227D02*
X12951477Y-15393703D01*
X12951477Y-15393703D02*
X12941954Y-15374655D01*
X12941954Y-15374655D02*
X12941954Y-15317512D01*
X12941954Y-15317512D02*
X12951477Y-15298465D01*
X12951477Y-15298465D02*
X12961001Y-15288941D01*
X12961001Y-15288941D02*
X12980049Y-15279417D01*
X12980049Y-15279417D02*
X13008620Y-15279417D01*
X13008620Y-15279417D02*
X13027668Y-15288941D01*
X13027668Y-15288941D02*
X13037192Y-15298465D01*
X13037192Y-15298465D02*
X13046715Y-15317512D01*
X13046715Y-15317512D02*
X13046715Y-15374655D01*
X13046715Y-15374655D02*
X13037192Y-15393703D01*
X13037192Y-15393703D02*
X13027668Y-15403227D01*
X13027668Y-15403227D02*
X13008620Y-15412750D01*
X13008620Y-15412750D02*
X12980049Y-15412750D01*
X13161001Y-15412750D02*
X13141954Y-15403227D01*
X13141954Y-15403227D02*
X13132430Y-15384179D01*
X13132430Y-15384179D02*
X13132430Y-15212750D01*
X13313382Y-15403227D02*
X13294335Y-15412750D01*
X13294335Y-15412750D02*
X13256239Y-15412750D01*
X13256239Y-15412750D02*
X13237192Y-15403227D01*
X13237192Y-15403227D02*
X13227668Y-15384179D01*
X13227668Y-15384179D02*
X13227668Y-15307988D01*
X13227668Y-15307988D02*
X13237192Y-15288941D01*
X13237192Y-15288941D02*
X13256239Y-15279417D01*
X13256239Y-15279417D02*
X13294335Y-15279417D01*
X13294335Y-15279417D02*
X13313382Y-15288941D01*
X13313382Y-15288941D02*
X13322906Y-15307988D01*
X13322906Y-15307988D02*
X13322906Y-15327036D01*
X13322906Y-15327036D02*
X13227668Y-15346084D01*
X13399096Y-15403227D02*
X13418144Y-15412750D01*
X13418144Y-15412750D02*
X13456239Y-15412750D01*
X13456239Y-15412750D02*
X13475287Y-15403227D01*
X13475287Y-15403227D02*
X13484811Y-15384179D01*
X13484811Y-15384179D02*
X13484811Y-15374655D01*
X13484811Y-15374655D02*
X13475287Y-15355607D01*
X13475287Y-15355607D02*
X13456239Y-15346084D01*
X13456239Y-15346084D02*
X13427668Y-15346084D01*
X13427668Y-15346084D02*
X13408620Y-15336560D01*
X13408620Y-15336560D02*
X13399096Y-15317512D01*
X13399096Y-15317512D02*
X13399096Y-15307988D01*
X13399096Y-15307988D02*
X13408620Y-15288941D01*
X13408620Y-15288941D02*
X13427668Y-15279417D01*
X13427668Y-15279417D02*
X13456239Y-15279417D01*
X13456239Y-15279417D02*
X13475287Y-15288941D01*
X13551477Y-15488941D02*
X13561001Y-15479417D01*
X13561001Y-15479417D02*
X13580049Y-15450846D01*
X13580049Y-15450846D02*
X13589573Y-15431798D01*
X13589573Y-15431798D02*
X13599096Y-15403227D01*
X13599096Y-15403227D02*
X13608620Y-15355607D01*
X13608620Y-15355607D02*
X13608620Y-15317512D01*
X13608620Y-15317512D02*
X13599096Y-15269893D01*
X13599096Y-15269893D02*
X13589573Y-15241322D01*
X13589573Y-15241322D02*
X13580049Y-15222274D01*
X13580049Y-15222274D02*
X13561001Y-15193703D01*
X13561001Y-15193703D02*
X13551477Y-15184179D01*
D14*
X8667195Y-15530657D02*
X8776415Y-15639877D01*
X8776415Y-15530657D02*
X8667195Y-15639877D01*
X8776415Y-15585267D02*
G75*
G02*
X8667195Y-15585267I-54610J0D01*
G01*
X8667195Y-15585267D02*
G75*
G02*
X8776415Y-15585267I54610J0D01*
G01*
D11*
X9141953Y-15676750D02*
X9027668Y-15676750D01*
X9084810Y-15676750D02*
X9084810Y-15476750D01*
X9084810Y-15476750D02*
X9065763Y-15505322D01*
X9065763Y-15505322D02*
X9046715Y-15524369D01*
X9046715Y-15524369D02*
X9027668Y-15533893D01*
X9227668Y-15657703D02*
X9237191Y-15667227D01*
X9237191Y-15667227D02*
X9227668Y-15676750D01*
X9227668Y-15676750D02*
X9218144Y-15667227D01*
X9218144Y-15667227D02*
X9227668Y-15657703D01*
X9227668Y-15657703D02*
X9227668Y-15676750D01*
X9361001Y-15476750D02*
X9380049Y-15476750D01*
X9380049Y-15476750D02*
X9399096Y-15486274D01*
X9399096Y-15486274D02*
X9408620Y-15495798D01*
X9408620Y-15495798D02*
X9418144Y-15514846D01*
X9418144Y-15514846D02*
X9427668Y-15552941D01*
X9427668Y-15552941D02*
X9427668Y-15600560D01*
X9427668Y-15600560D02*
X9418144Y-15638655D01*
X9418144Y-15638655D02*
X9408620Y-15657703D01*
X9408620Y-15657703D02*
X9399096Y-15667227D01*
X9399096Y-15667227D02*
X9380049Y-15676750D01*
X9380049Y-15676750D02*
X9361001Y-15676750D01*
X9361001Y-15676750D02*
X9341953Y-15667227D01*
X9341953Y-15667227D02*
X9332429Y-15657703D01*
X9332429Y-15657703D02*
X9322906Y-15638655D01*
X9322906Y-15638655D02*
X9313382Y-15600560D01*
X9313382Y-15600560D02*
X9313382Y-15552941D01*
X9313382Y-15552941D02*
X9322906Y-15514846D01*
X9322906Y-15514846D02*
X9332429Y-15495798D01*
X9332429Y-15495798D02*
X9341953Y-15486274D01*
X9341953Y-15486274D02*
X9361001Y-15476750D01*
X9522906Y-15676750D02*
X9561001Y-15676750D01*
X9561001Y-15676750D02*
X9580049Y-15667227D01*
X9580049Y-15667227D02*
X9589572Y-15657703D01*
X9589572Y-15657703D02*
X9608620Y-15629131D01*
X9608620Y-15629131D02*
X9618144Y-15591036D01*
X9618144Y-15591036D02*
X9618144Y-15514846D01*
X9618144Y-15514846D02*
X9608620Y-15495798D01*
X9608620Y-15495798D02*
X9599096Y-15486274D01*
X9599096Y-15486274D02*
X9580049Y-15476750D01*
X9580049Y-15476750D02*
X9541953Y-15476750D01*
X9541953Y-15476750D02*
X9522906Y-15486274D01*
X9522906Y-15486274D02*
X9513382Y-15495798D01*
X9513382Y-15495798D02*
X9503858Y-15514846D01*
X9503858Y-15514846D02*
X9503858Y-15562465D01*
X9503858Y-15562465D02*
X9513382Y-15581512D01*
X9513382Y-15581512D02*
X9522906Y-15591036D01*
X9522906Y-15591036D02*
X9541953Y-15600560D01*
X9541953Y-15600560D02*
X9580049Y-15600560D01*
X9580049Y-15600560D02*
X9599096Y-15591036D01*
X9599096Y-15591036D02*
X9608620Y-15581512D01*
X9608620Y-15581512D02*
X9618144Y-15562465D01*
X9694334Y-15495798D02*
X9703858Y-15486274D01*
X9703858Y-15486274D02*
X9722906Y-15476750D01*
X9722906Y-15476750D02*
X9770525Y-15476750D01*
X9770525Y-15476750D02*
X9789572Y-15486274D01*
X9789572Y-15486274D02*
X9799096Y-15495798D01*
X9799096Y-15495798D02*
X9808620Y-15514846D01*
X9808620Y-15514846D02*
X9808620Y-15533893D01*
X9808620Y-15533893D02*
X9799096Y-15562465D01*
X9799096Y-15562465D02*
X9684810Y-15676750D01*
X9684810Y-15676750D02*
X9808620Y-15676750D01*
X9894334Y-15676750D02*
X9894334Y-15543417D01*
X9894334Y-15562465D02*
X9903858Y-15552941D01*
X9903858Y-15552941D02*
X9922906Y-15543417D01*
X9922906Y-15543417D02*
X9951477Y-15543417D01*
X9951477Y-15543417D02*
X9970525Y-15552941D01*
X9970525Y-15552941D02*
X9980049Y-15571988D01*
X9980049Y-15571988D02*
X9980049Y-15676750D01*
X9980049Y-15571988D02*
X9989572Y-15552941D01*
X9989572Y-15552941D02*
X10008620Y-15543417D01*
X10008620Y-15543417D02*
X10037191Y-15543417D01*
X10037191Y-15543417D02*
X10056239Y-15552941D01*
X10056239Y-15552941D02*
X10065763Y-15571988D01*
X10065763Y-15571988D02*
X10065763Y-15676750D01*
X10161001Y-15676750D02*
X10161001Y-15543417D01*
X10161001Y-15562465D02*
X10170525Y-15552941D01*
X10170525Y-15552941D02*
X10189572Y-15543417D01*
X10189572Y-15543417D02*
X10218144Y-15543417D01*
X10218144Y-15543417D02*
X10237191Y-15552941D01*
X10237191Y-15552941D02*
X10246715Y-15571988D01*
X10246715Y-15571988D02*
X10246715Y-15676750D01*
X10246715Y-15571988D02*
X10256239Y-15552941D01*
X10256239Y-15552941D02*
X10275287Y-15543417D01*
X10275287Y-15543417D02*
X10303858Y-15543417D01*
X10303858Y-15543417D02*
X10322906Y-15552941D01*
X10322906Y-15552941D02*
X10332430Y-15571988D01*
X10332430Y-15571988D02*
X10332430Y-15676750D01*
X10722906Y-15467227D02*
X10551477Y-15724369D01*
X10980049Y-15476750D02*
X10999096Y-15476750D01*
X10999096Y-15476750D02*
X11018144Y-15486274D01*
X11018144Y-15486274D02*
X11027668Y-15495798D01*
X11027668Y-15495798D02*
X11037192Y-15514846D01*
X11037192Y-15514846D02*
X11046715Y-15552941D01*
X11046715Y-15552941D02*
X11046715Y-15600560D01*
X11046715Y-15600560D02*
X11037192Y-15638655D01*
X11037192Y-15638655D02*
X11027668Y-15657703D01*
X11027668Y-15657703D02*
X11018144Y-15667227D01*
X11018144Y-15667227D02*
X10999096Y-15676750D01*
X10999096Y-15676750D02*
X10980049Y-15676750D01*
X10980049Y-15676750D02*
X10961001Y-15667227D01*
X10961001Y-15667227D02*
X10951477Y-15657703D01*
X10951477Y-15657703D02*
X10941953Y-15638655D01*
X10941953Y-15638655D02*
X10932430Y-15600560D01*
X10932430Y-15600560D02*
X10932430Y-15552941D01*
X10932430Y-15552941D02*
X10941953Y-15514846D01*
X10941953Y-15514846D02*
X10951477Y-15495798D01*
X10951477Y-15495798D02*
X10961001Y-15486274D01*
X10961001Y-15486274D02*
X10980049Y-15476750D01*
X11132430Y-15657703D02*
X11141953Y-15667227D01*
X11141953Y-15667227D02*
X11132430Y-15676750D01*
X11132430Y-15676750D02*
X11122906Y-15667227D01*
X11122906Y-15667227D02*
X11132430Y-15657703D01*
X11132430Y-15657703D02*
X11132430Y-15676750D01*
X11265763Y-15476750D02*
X11284811Y-15476750D01*
X11284811Y-15476750D02*
X11303858Y-15486274D01*
X11303858Y-15486274D02*
X11313382Y-15495798D01*
X11313382Y-15495798D02*
X11322906Y-15514846D01*
X11322906Y-15514846D02*
X11332430Y-15552941D01*
X11332430Y-15552941D02*
X11332430Y-15600560D01*
X11332430Y-15600560D02*
X11322906Y-15638655D01*
X11322906Y-15638655D02*
X11313382Y-15657703D01*
X11313382Y-15657703D02*
X11303858Y-15667227D01*
X11303858Y-15667227D02*
X11284811Y-15676750D01*
X11284811Y-15676750D02*
X11265763Y-15676750D01*
X11265763Y-15676750D02*
X11246715Y-15667227D01*
X11246715Y-15667227D02*
X11237191Y-15657703D01*
X11237191Y-15657703D02*
X11227668Y-15638655D01*
X11227668Y-15638655D02*
X11218144Y-15600560D01*
X11218144Y-15600560D02*
X11218144Y-15552941D01*
X11218144Y-15552941D02*
X11227668Y-15514846D01*
X11227668Y-15514846D02*
X11237191Y-15495798D01*
X11237191Y-15495798D02*
X11246715Y-15486274D01*
X11246715Y-15486274D02*
X11265763Y-15476750D01*
X11503858Y-15543417D02*
X11503858Y-15676750D01*
X11456239Y-15467227D02*
X11408620Y-15610084D01*
X11408620Y-15610084D02*
X11532430Y-15610084D01*
X11589572Y-15476750D02*
X11713382Y-15476750D01*
X11713382Y-15476750D02*
X11646715Y-15552941D01*
X11646715Y-15552941D02*
X11675287Y-15552941D01*
X11675287Y-15552941D02*
X11694334Y-15562465D01*
X11694334Y-15562465D02*
X11703858Y-15571988D01*
X11703858Y-15571988D02*
X11713382Y-15591036D01*
X11713382Y-15591036D02*
X11713382Y-15638655D01*
X11713382Y-15638655D02*
X11703858Y-15657703D01*
X11703858Y-15657703D02*
X11694334Y-15667227D01*
X11694334Y-15667227D02*
X11675287Y-15676750D01*
X11675287Y-15676750D02*
X11618144Y-15676750D01*
X11618144Y-15676750D02*
X11599096Y-15667227D01*
X11599096Y-15667227D02*
X11589572Y-15657703D01*
X11837191Y-15476750D02*
X11856239Y-15476750D01*
X11856239Y-15476750D02*
X11875287Y-15486274D01*
X11875287Y-15486274D02*
X11884811Y-15495798D01*
X11884811Y-15495798D02*
X11894334Y-15514846D01*
X11894334Y-15514846D02*
X11903858Y-15552941D01*
X11903858Y-15552941D02*
X11903858Y-15600560D01*
X11903858Y-15600560D02*
X11894334Y-15638655D01*
X11894334Y-15638655D02*
X11884811Y-15657703D01*
X11884811Y-15657703D02*
X11875287Y-15667227D01*
X11875287Y-15667227D02*
X11856239Y-15676750D01*
X11856239Y-15676750D02*
X11837191Y-15676750D01*
X11837191Y-15676750D02*
X11818144Y-15667227D01*
X11818144Y-15667227D02*
X11808620Y-15657703D01*
X11808620Y-15657703D02*
X11799096Y-15638655D01*
X11799096Y-15638655D02*
X11789572Y-15600560D01*
X11789572Y-15600560D02*
X11789572Y-15552941D01*
X11789572Y-15552941D02*
X11799096Y-15514846D01*
X11799096Y-15514846D02*
X11808620Y-15495798D01*
X11808620Y-15495798D02*
X11818144Y-15486274D01*
X11818144Y-15486274D02*
X11837191Y-15476750D01*
X11980049Y-15476750D02*
X11980049Y-15514846D01*
X12056239Y-15476750D02*
X12056239Y-15514846D01*
X12351477Y-15752941D02*
X12341953Y-15743417D01*
X12341953Y-15743417D02*
X12322906Y-15714846D01*
X12322906Y-15714846D02*
X12313382Y-15695798D01*
X12313382Y-15695798D02*
X12303858Y-15667227D01*
X12303858Y-15667227D02*
X12294334Y-15619607D01*
X12294334Y-15619607D02*
X12294334Y-15581512D01*
X12294334Y-15581512D02*
X12303858Y-15533893D01*
X12303858Y-15533893D02*
X12313382Y-15505322D01*
X12313382Y-15505322D02*
X12322906Y-15486274D01*
X12322906Y-15486274D02*
X12341953Y-15457703D01*
X12341953Y-15457703D02*
X12351477Y-15448179D01*
X12418144Y-15495798D02*
X12427668Y-15486274D01*
X12427668Y-15486274D02*
X12446715Y-15476750D01*
X12446715Y-15476750D02*
X12494334Y-15476750D01*
X12494334Y-15476750D02*
X12513382Y-15486274D01*
X12513382Y-15486274D02*
X12522906Y-15495798D01*
X12522906Y-15495798D02*
X12532430Y-15514846D01*
X12532430Y-15514846D02*
X12532430Y-15533893D01*
X12532430Y-15533893D02*
X12522906Y-15562465D01*
X12522906Y-15562465D02*
X12408620Y-15676750D01*
X12408620Y-15676750D02*
X12532430Y-15676750D01*
X12703858Y-15543417D02*
X12703858Y-15676750D01*
X12656239Y-15467227D02*
X12608620Y-15610084D01*
X12608620Y-15610084D02*
X12732430Y-15610084D01*
X12961001Y-15676750D02*
X12961001Y-15476750D01*
X13046715Y-15676750D02*
X13046715Y-15571988D01*
X13046715Y-15571988D02*
X13037192Y-15552941D01*
X13037192Y-15552941D02*
X13018144Y-15543417D01*
X13018144Y-15543417D02*
X12989573Y-15543417D01*
X12989573Y-15543417D02*
X12970525Y-15552941D01*
X12970525Y-15552941D02*
X12961001Y-15562465D01*
X13170525Y-15676750D02*
X13151477Y-15667227D01*
X13151477Y-15667227D02*
X13141954Y-15657703D01*
X13141954Y-15657703D02*
X13132430Y-15638655D01*
X13132430Y-15638655D02*
X13132430Y-15581512D01*
X13132430Y-15581512D02*
X13141954Y-15562465D01*
X13141954Y-15562465D02*
X13151477Y-15552941D01*
X13151477Y-15552941D02*
X13170525Y-15543417D01*
X13170525Y-15543417D02*
X13199096Y-15543417D01*
X13199096Y-15543417D02*
X13218144Y-15552941D01*
X13218144Y-15552941D02*
X13227668Y-15562465D01*
X13227668Y-15562465D02*
X13237192Y-15581512D01*
X13237192Y-15581512D02*
X13237192Y-15638655D01*
X13237192Y-15638655D02*
X13227668Y-15657703D01*
X13227668Y-15657703D02*
X13218144Y-15667227D01*
X13218144Y-15667227D02*
X13199096Y-15676750D01*
X13199096Y-15676750D02*
X13170525Y-15676750D01*
X13351477Y-15676750D02*
X13332430Y-15667227D01*
X13332430Y-15667227D02*
X13322906Y-15648179D01*
X13322906Y-15648179D02*
X13322906Y-15476750D01*
X13503858Y-15667227D02*
X13484811Y-15676750D01*
X13484811Y-15676750D02*
X13446715Y-15676750D01*
X13446715Y-15676750D02*
X13427668Y-15667227D01*
X13427668Y-15667227D02*
X13418144Y-15648179D01*
X13418144Y-15648179D02*
X13418144Y-15571988D01*
X13418144Y-15571988D02*
X13427668Y-15552941D01*
X13427668Y-15552941D02*
X13446715Y-15543417D01*
X13446715Y-15543417D02*
X13484811Y-15543417D01*
X13484811Y-15543417D02*
X13503858Y-15552941D01*
X13503858Y-15552941D02*
X13513382Y-15571988D01*
X13513382Y-15571988D02*
X13513382Y-15591036D01*
X13513382Y-15591036D02*
X13418144Y-15610084D01*
X13589573Y-15667227D02*
X13608620Y-15676750D01*
X13608620Y-15676750D02*
X13646715Y-15676750D01*
X13646715Y-15676750D02*
X13665763Y-15667227D01*
X13665763Y-15667227D02*
X13675287Y-15648179D01*
X13675287Y-15648179D02*
X13675287Y-15638655D01*
X13675287Y-15638655D02*
X13665763Y-15619607D01*
X13665763Y-15619607D02*
X13646715Y-15610084D01*
X13646715Y-15610084D02*
X13618144Y-15610084D01*
X13618144Y-15610084D02*
X13599096Y-15600560D01*
X13599096Y-15600560D02*
X13589573Y-15581512D01*
X13589573Y-15581512D02*
X13589573Y-15571988D01*
X13589573Y-15571988D02*
X13599096Y-15552941D01*
X13599096Y-15552941D02*
X13618144Y-15543417D01*
X13618144Y-15543417D02*
X13646715Y-15543417D01*
X13646715Y-15543417D02*
X13665763Y-15552941D01*
X13741954Y-15752941D02*
X13751477Y-15743417D01*
X13751477Y-15743417D02*
X13770525Y-15714846D01*
X13770525Y-15714846D02*
X13780049Y-15695798D01*
X13780049Y-15695798D02*
X13789573Y-15667227D01*
X13789573Y-15667227D02*
X13799096Y-15619607D01*
X13799096Y-15619607D02*
X13799096Y-15581512D01*
X13799096Y-15581512D02*
X13789573Y-15533893D01*
X13789573Y-15533893D02*
X13780049Y-15505322D01*
X13780049Y-15505322D02*
X13770525Y-15486274D01*
X13770525Y-15486274D02*
X13751477Y-15457703D01*
X13751477Y-15457703D02*
X13741954Y-15448179D01*
D15*
X8656415Y-15789267D02*
X8776415Y-15909267D01*
X8776415Y-15789267D02*
X8656415Y-15909267D01*
X8716415Y-15789267D02*
X8716415Y-15909267D01*
X8656415Y-15849267D02*
X8776415Y-15849267D01*
D11*
X9141953Y-15940750D02*
X9027668Y-15940750D01*
X9084810Y-15940750D02*
X9084810Y-15740750D01*
X9084810Y-15740750D02*
X9065763Y-15769322D01*
X9065763Y-15769322D02*
X9046715Y-15788369D01*
X9046715Y-15788369D02*
X9027668Y-15797893D01*
X9227668Y-15921703D02*
X9237191Y-15931227D01*
X9237191Y-15931227D02*
X9227668Y-15940750D01*
X9227668Y-15940750D02*
X9218144Y-15931227D01*
X9218144Y-15931227D02*
X9227668Y-15921703D01*
X9227668Y-15921703D02*
X9227668Y-15940750D01*
X9313382Y-15759798D02*
X9322906Y-15750274D01*
X9322906Y-15750274D02*
X9341953Y-15740750D01*
X9341953Y-15740750D02*
X9389572Y-15740750D01*
X9389572Y-15740750D02*
X9408620Y-15750274D01*
X9408620Y-15750274D02*
X9418144Y-15759798D01*
X9418144Y-15759798D02*
X9427668Y-15778846D01*
X9427668Y-15778846D02*
X9427668Y-15797893D01*
X9427668Y-15797893D02*
X9418144Y-15826465D01*
X9418144Y-15826465D02*
X9303858Y-15940750D01*
X9303858Y-15940750D02*
X9427668Y-15940750D01*
X9551477Y-15740750D02*
X9570525Y-15740750D01*
X9570525Y-15740750D02*
X9589572Y-15750274D01*
X9589572Y-15750274D02*
X9599096Y-15759798D01*
X9599096Y-15759798D02*
X9608620Y-15778846D01*
X9608620Y-15778846D02*
X9618144Y-15816941D01*
X9618144Y-15816941D02*
X9618144Y-15864560D01*
X9618144Y-15864560D02*
X9608620Y-15902655D01*
X9608620Y-15902655D02*
X9599096Y-15921703D01*
X9599096Y-15921703D02*
X9589572Y-15931227D01*
X9589572Y-15931227D02*
X9570525Y-15940750D01*
X9570525Y-15940750D02*
X9551477Y-15940750D01*
X9551477Y-15940750D02*
X9532429Y-15931227D01*
X9532429Y-15931227D02*
X9522906Y-15921703D01*
X9522906Y-15921703D02*
X9513382Y-15902655D01*
X9513382Y-15902655D02*
X9503858Y-15864560D01*
X9503858Y-15864560D02*
X9503858Y-15816941D01*
X9503858Y-15816941D02*
X9513382Y-15778846D01*
X9513382Y-15778846D02*
X9522906Y-15759798D01*
X9522906Y-15759798D02*
X9532429Y-15750274D01*
X9532429Y-15750274D02*
X9551477Y-15740750D01*
X9741953Y-15740750D02*
X9761001Y-15740750D01*
X9761001Y-15740750D02*
X9780049Y-15750274D01*
X9780049Y-15750274D02*
X9789572Y-15759798D01*
X9789572Y-15759798D02*
X9799096Y-15778846D01*
X9799096Y-15778846D02*
X9808620Y-15816941D01*
X9808620Y-15816941D02*
X9808620Y-15864560D01*
X9808620Y-15864560D02*
X9799096Y-15902655D01*
X9799096Y-15902655D02*
X9789572Y-15921703D01*
X9789572Y-15921703D02*
X9780049Y-15931227D01*
X9780049Y-15931227D02*
X9761001Y-15940750D01*
X9761001Y-15940750D02*
X9741953Y-15940750D01*
X9741953Y-15940750D02*
X9722906Y-15931227D01*
X9722906Y-15931227D02*
X9713382Y-15921703D01*
X9713382Y-15921703D02*
X9703858Y-15902655D01*
X9703858Y-15902655D02*
X9694334Y-15864560D01*
X9694334Y-15864560D02*
X9694334Y-15816941D01*
X9694334Y-15816941D02*
X9703858Y-15778846D01*
X9703858Y-15778846D02*
X9713382Y-15759798D01*
X9713382Y-15759798D02*
X9722906Y-15750274D01*
X9722906Y-15750274D02*
X9741953Y-15740750D01*
X9894334Y-15940750D02*
X9894334Y-15807417D01*
X9894334Y-15826465D02*
X9903858Y-15816941D01*
X9903858Y-15816941D02*
X9922906Y-15807417D01*
X9922906Y-15807417D02*
X9951477Y-15807417D01*
X9951477Y-15807417D02*
X9970525Y-15816941D01*
X9970525Y-15816941D02*
X9980049Y-15835988D01*
X9980049Y-15835988D02*
X9980049Y-15940750D01*
X9980049Y-15835988D02*
X9989572Y-15816941D01*
X9989572Y-15816941D02*
X10008620Y-15807417D01*
X10008620Y-15807417D02*
X10037191Y-15807417D01*
X10037191Y-15807417D02*
X10056239Y-15816941D01*
X10056239Y-15816941D02*
X10065763Y-15835988D01*
X10065763Y-15835988D02*
X10065763Y-15940750D01*
X10161001Y-15940750D02*
X10161001Y-15807417D01*
X10161001Y-15826465D02*
X10170525Y-15816941D01*
X10170525Y-15816941D02*
X10189572Y-15807417D01*
X10189572Y-15807417D02*
X10218144Y-15807417D01*
X10218144Y-15807417D02*
X10237191Y-15816941D01*
X10237191Y-15816941D02*
X10246715Y-15835988D01*
X10246715Y-15835988D02*
X10246715Y-15940750D01*
X10246715Y-15835988D02*
X10256239Y-15816941D01*
X10256239Y-15816941D02*
X10275287Y-15807417D01*
X10275287Y-15807417D02*
X10303858Y-15807417D01*
X10303858Y-15807417D02*
X10322906Y-15816941D01*
X10322906Y-15816941D02*
X10332430Y-15835988D01*
X10332430Y-15835988D02*
X10332430Y-15940750D01*
X10722906Y-15731227D02*
X10551477Y-15988369D01*
X10980049Y-15740750D02*
X10999096Y-15740750D01*
X10999096Y-15740750D02*
X11018144Y-15750274D01*
X11018144Y-15750274D02*
X11027668Y-15759798D01*
X11027668Y-15759798D02*
X11037192Y-15778846D01*
X11037192Y-15778846D02*
X11046715Y-15816941D01*
X11046715Y-15816941D02*
X11046715Y-15864560D01*
X11046715Y-15864560D02*
X11037192Y-15902655D01*
X11037192Y-15902655D02*
X11027668Y-15921703D01*
X11027668Y-15921703D02*
X11018144Y-15931227D01*
X11018144Y-15931227D02*
X10999096Y-15940750D01*
X10999096Y-15940750D02*
X10980049Y-15940750D01*
X10980049Y-15940750D02*
X10961001Y-15931227D01*
X10961001Y-15931227D02*
X10951477Y-15921703D01*
X10951477Y-15921703D02*
X10941953Y-15902655D01*
X10941953Y-15902655D02*
X10932430Y-15864560D01*
X10932430Y-15864560D02*
X10932430Y-15816941D01*
X10932430Y-15816941D02*
X10941953Y-15778846D01*
X10941953Y-15778846D02*
X10951477Y-15759798D01*
X10951477Y-15759798D02*
X10961001Y-15750274D01*
X10961001Y-15750274D02*
X10980049Y-15740750D01*
X11132430Y-15921703D02*
X11141953Y-15931227D01*
X11141953Y-15931227D02*
X11132430Y-15940750D01*
X11132430Y-15940750D02*
X11122906Y-15931227D01*
X11122906Y-15931227D02*
X11132430Y-15921703D01*
X11132430Y-15921703D02*
X11132430Y-15940750D01*
X11265763Y-15740750D02*
X11284811Y-15740750D01*
X11284811Y-15740750D02*
X11303858Y-15750274D01*
X11303858Y-15750274D02*
X11313382Y-15759798D01*
X11313382Y-15759798D02*
X11322906Y-15778846D01*
X11322906Y-15778846D02*
X11332430Y-15816941D01*
X11332430Y-15816941D02*
X11332430Y-15864560D01*
X11332430Y-15864560D02*
X11322906Y-15902655D01*
X11322906Y-15902655D02*
X11313382Y-15921703D01*
X11313382Y-15921703D02*
X11303858Y-15931227D01*
X11303858Y-15931227D02*
X11284811Y-15940750D01*
X11284811Y-15940750D02*
X11265763Y-15940750D01*
X11265763Y-15940750D02*
X11246715Y-15931227D01*
X11246715Y-15931227D02*
X11237191Y-15921703D01*
X11237191Y-15921703D02*
X11227668Y-15902655D01*
X11227668Y-15902655D02*
X11218144Y-15864560D01*
X11218144Y-15864560D02*
X11218144Y-15816941D01*
X11218144Y-15816941D02*
X11227668Y-15778846D01*
X11227668Y-15778846D02*
X11237191Y-15759798D01*
X11237191Y-15759798D02*
X11246715Y-15750274D01*
X11246715Y-15750274D02*
X11265763Y-15740750D01*
X11503858Y-15807417D02*
X11503858Y-15940750D01*
X11456239Y-15731227D02*
X11408620Y-15874084D01*
X11408620Y-15874084D02*
X11532430Y-15874084D01*
X11589572Y-15740750D02*
X11722906Y-15740750D01*
X11722906Y-15740750D02*
X11637191Y-15940750D01*
X11789572Y-15759798D02*
X11799096Y-15750274D01*
X11799096Y-15750274D02*
X11818144Y-15740750D01*
X11818144Y-15740750D02*
X11865763Y-15740750D01*
X11865763Y-15740750D02*
X11884811Y-15750274D01*
X11884811Y-15750274D02*
X11894334Y-15759798D01*
X11894334Y-15759798D02*
X11903858Y-15778846D01*
X11903858Y-15778846D02*
X11903858Y-15797893D01*
X11903858Y-15797893D02*
X11894334Y-15826465D01*
X11894334Y-15826465D02*
X11780049Y-15940750D01*
X11780049Y-15940750D02*
X11903858Y-15940750D01*
X11980049Y-15740750D02*
X11980049Y-15778846D01*
X12056239Y-15740750D02*
X12056239Y-15778846D01*
X12351477Y-16016941D02*
X12341953Y-16007417D01*
X12341953Y-16007417D02*
X12322906Y-15978846D01*
X12322906Y-15978846D02*
X12313382Y-15959798D01*
X12313382Y-15959798D02*
X12303858Y-15931227D01*
X12303858Y-15931227D02*
X12294334Y-15883607D01*
X12294334Y-15883607D02*
X12294334Y-15845512D01*
X12294334Y-15845512D02*
X12303858Y-15797893D01*
X12303858Y-15797893D02*
X12313382Y-15769322D01*
X12313382Y-15769322D02*
X12322906Y-15750274D01*
X12322906Y-15750274D02*
X12341953Y-15721703D01*
X12341953Y-15721703D02*
X12351477Y-15712179D01*
X12408620Y-15740750D02*
X12532430Y-15740750D01*
X12532430Y-15740750D02*
X12465763Y-15816941D01*
X12465763Y-15816941D02*
X12494334Y-15816941D01*
X12494334Y-15816941D02*
X12513382Y-15826465D01*
X12513382Y-15826465D02*
X12522906Y-15835988D01*
X12522906Y-15835988D02*
X12532430Y-15855036D01*
X12532430Y-15855036D02*
X12532430Y-15902655D01*
X12532430Y-15902655D02*
X12522906Y-15921703D01*
X12522906Y-15921703D02*
X12513382Y-15931227D01*
X12513382Y-15931227D02*
X12494334Y-15940750D01*
X12494334Y-15940750D02*
X12437192Y-15940750D01*
X12437192Y-15940750D02*
X12418144Y-15931227D01*
X12418144Y-15931227D02*
X12408620Y-15921703D01*
X12627668Y-15940750D02*
X12665763Y-15940750D01*
X12665763Y-15940750D02*
X12684811Y-15931227D01*
X12684811Y-15931227D02*
X12694334Y-15921703D01*
X12694334Y-15921703D02*
X12713382Y-15893131D01*
X12713382Y-15893131D02*
X12722906Y-15855036D01*
X12722906Y-15855036D02*
X12722906Y-15778846D01*
X12722906Y-15778846D02*
X12713382Y-15759798D01*
X12713382Y-15759798D02*
X12703858Y-15750274D01*
X12703858Y-15750274D02*
X12684811Y-15740750D01*
X12684811Y-15740750D02*
X12646715Y-15740750D01*
X12646715Y-15740750D02*
X12627668Y-15750274D01*
X12627668Y-15750274D02*
X12618144Y-15759798D01*
X12618144Y-15759798D02*
X12608620Y-15778846D01*
X12608620Y-15778846D02*
X12608620Y-15826465D01*
X12608620Y-15826465D02*
X12618144Y-15845512D01*
X12618144Y-15845512D02*
X12627668Y-15855036D01*
X12627668Y-15855036D02*
X12646715Y-15864560D01*
X12646715Y-15864560D02*
X12684811Y-15864560D01*
X12684811Y-15864560D02*
X12703858Y-15855036D01*
X12703858Y-15855036D02*
X12713382Y-15845512D01*
X12713382Y-15845512D02*
X12722906Y-15826465D01*
X12961001Y-15940750D02*
X12961001Y-15740750D01*
X13046715Y-15940750D02*
X13046715Y-15835988D01*
X13046715Y-15835988D02*
X13037192Y-15816941D01*
X13037192Y-15816941D02*
X13018144Y-15807417D01*
X13018144Y-15807417D02*
X12989573Y-15807417D01*
X12989573Y-15807417D02*
X12970525Y-15816941D01*
X12970525Y-15816941D02*
X12961001Y-15826465D01*
X13170525Y-15940750D02*
X13151477Y-15931227D01*
X13151477Y-15931227D02*
X13141954Y-15921703D01*
X13141954Y-15921703D02*
X13132430Y-15902655D01*
X13132430Y-15902655D02*
X13132430Y-15845512D01*
X13132430Y-15845512D02*
X13141954Y-15826465D01*
X13141954Y-15826465D02*
X13151477Y-15816941D01*
X13151477Y-15816941D02*
X13170525Y-15807417D01*
X13170525Y-15807417D02*
X13199096Y-15807417D01*
X13199096Y-15807417D02*
X13218144Y-15816941D01*
X13218144Y-15816941D02*
X13227668Y-15826465D01*
X13227668Y-15826465D02*
X13237192Y-15845512D01*
X13237192Y-15845512D02*
X13237192Y-15902655D01*
X13237192Y-15902655D02*
X13227668Y-15921703D01*
X13227668Y-15921703D02*
X13218144Y-15931227D01*
X13218144Y-15931227D02*
X13199096Y-15940750D01*
X13199096Y-15940750D02*
X13170525Y-15940750D01*
X13351477Y-15940750D02*
X13332430Y-15931227D01*
X13332430Y-15931227D02*
X13322906Y-15912179D01*
X13322906Y-15912179D02*
X13322906Y-15740750D01*
X13503858Y-15931227D02*
X13484811Y-15940750D01*
X13484811Y-15940750D02*
X13446715Y-15940750D01*
X13446715Y-15940750D02*
X13427668Y-15931227D01*
X13427668Y-15931227D02*
X13418144Y-15912179D01*
X13418144Y-15912179D02*
X13418144Y-15835988D01*
X13418144Y-15835988D02*
X13427668Y-15816941D01*
X13427668Y-15816941D02*
X13446715Y-15807417D01*
X13446715Y-15807417D02*
X13484811Y-15807417D01*
X13484811Y-15807417D02*
X13503858Y-15816941D01*
X13503858Y-15816941D02*
X13513382Y-15835988D01*
X13513382Y-15835988D02*
X13513382Y-15855036D01*
X13513382Y-15855036D02*
X13418144Y-15874084D01*
X13589573Y-15931227D02*
X13608620Y-15940750D01*
X13608620Y-15940750D02*
X13646715Y-15940750D01*
X13646715Y-15940750D02*
X13665763Y-15931227D01*
X13665763Y-15931227D02*
X13675287Y-15912179D01*
X13675287Y-15912179D02*
X13675287Y-15902655D01*
X13675287Y-15902655D02*
X13665763Y-15883607D01*
X13665763Y-15883607D02*
X13646715Y-15874084D01*
X13646715Y-15874084D02*
X13618144Y-15874084D01*
X13618144Y-15874084D02*
X13599096Y-15864560D01*
X13599096Y-15864560D02*
X13589573Y-15845512D01*
X13589573Y-15845512D02*
X13589573Y-15835988D01*
X13589573Y-15835988D02*
X13599096Y-15816941D01*
X13599096Y-15816941D02*
X13618144Y-15807417D01*
X13618144Y-15807417D02*
X13646715Y-15807417D01*
X13646715Y-15807417D02*
X13665763Y-15816941D01*
X13741954Y-16016941D02*
X13751477Y-16007417D01*
X13751477Y-16007417D02*
X13770525Y-15978846D01*
X13770525Y-15978846D02*
X13780049Y-15959798D01*
X13780049Y-15959798D02*
X13789573Y-15931227D01*
X13789573Y-15931227D02*
X13799096Y-15883607D01*
X13799096Y-15883607D02*
X13799096Y-15845512D01*
X13799096Y-15845512D02*
X13789573Y-15797893D01*
X13789573Y-15797893D02*
X13780049Y-15769322D01*
X13780049Y-15769322D02*
X13770525Y-15750274D01*
X13770525Y-15750274D02*
X13751477Y-15721703D01*
X13751477Y-15721703D02*
X13741954Y-15712179D01*
X8576415Y-16013267D02*
X8776415Y-16213267D01*
X8776415Y-16013267D02*
X8576415Y-16213267D01*
X8747126Y-16183978D02*
X8747126Y-16042555D01*
X8605703Y-16042555D01*
X8605703Y-16183978D01*
X8747126Y-16183978D01*
X9027668Y-16023798D02*
X9037191Y-16014274D01*
X9037191Y-16014274D02*
X9056239Y-16004750D01*
X9056239Y-16004750D02*
X9103858Y-16004750D01*
X9103858Y-16004750D02*
X9122906Y-16014274D01*
X9122906Y-16014274D02*
X9132429Y-16023798D01*
X9132429Y-16023798D02*
X9141953Y-16042846D01*
X9141953Y-16042846D02*
X9141953Y-16061893D01*
X9141953Y-16061893D02*
X9132429Y-16090465D01*
X9132429Y-16090465D02*
X9018144Y-16204750D01*
X9018144Y-16204750D02*
X9141953Y-16204750D01*
X9227668Y-16185703D02*
X9237191Y-16195227D01*
X9237191Y-16195227D02*
X9227668Y-16204750D01*
X9227668Y-16204750D02*
X9218144Y-16195227D01*
X9218144Y-16195227D02*
X9227668Y-16185703D01*
X9227668Y-16185703D02*
X9227668Y-16204750D01*
X9313382Y-16023798D02*
X9322906Y-16014274D01*
X9322906Y-16014274D02*
X9341953Y-16004750D01*
X9341953Y-16004750D02*
X9389572Y-16004750D01*
X9389572Y-16004750D02*
X9408620Y-16014274D01*
X9408620Y-16014274D02*
X9418144Y-16023798D01*
X9418144Y-16023798D02*
X9427668Y-16042846D01*
X9427668Y-16042846D02*
X9427668Y-16061893D01*
X9427668Y-16061893D02*
X9418144Y-16090465D01*
X9418144Y-16090465D02*
X9303858Y-16204750D01*
X9303858Y-16204750D02*
X9427668Y-16204750D01*
X9551477Y-16004750D02*
X9570525Y-16004750D01*
X9570525Y-16004750D02*
X9589572Y-16014274D01*
X9589572Y-16014274D02*
X9599096Y-16023798D01*
X9599096Y-16023798D02*
X9608620Y-16042846D01*
X9608620Y-16042846D02*
X9618144Y-16080941D01*
X9618144Y-16080941D02*
X9618144Y-16128560D01*
X9618144Y-16128560D02*
X9608620Y-16166655D01*
X9608620Y-16166655D02*
X9599096Y-16185703D01*
X9599096Y-16185703D02*
X9589572Y-16195227D01*
X9589572Y-16195227D02*
X9570525Y-16204750D01*
X9570525Y-16204750D02*
X9551477Y-16204750D01*
X9551477Y-16204750D02*
X9532429Y-16195227D01*
X9532429Y-16195227D02*
X9522906Y-16185703D01*
X9522906Y-16185703D02*
X9513382Y-16166655D01*
X9513382Y-16166655D02*
X9503858Y-16128560D01*
X9503858Y-16128560D02*
X9503858Y-16080941D01*
X9503858Y-16080941D02*
X9513382Y-16042846D01*
X9513382Y-16042846D02*
X9522906Y-16023798D01*
X9522906Y-16023798D02*
X9532429Y-16014274D01*
X9532429Y-16014274D02*
X9551477Y-16004750D01*
X9741953Y-16004750D02*
X9761001Y-16004750D01*
X9761001Y-16004750D02*
X9780049Y-16014274D01*
X9780049Y-16014274D02*
X9789572Y-16023798D01*
X9789572Y-16023798D02*
X9799096Y-16042846D01*
X9799096Y-16042846D02*
X9808620Y-16080941D01*
X9808620Y-16080941D02*
X9808620Y-16128560D01*
X9808620Y-16128560D02*
X9799096Y-16166655D01*
X9799096Y-16166655D02*
X9789572Y-16185703D01*
X9789572Y-16185703D02*
X9780049Y-16195227D01*
X9780049Y-16195227D02*
X9761001Y-16204750D01*
X9761001Y-16204750D02*
X9741953Y-16204750D01*
X9741953Y-16204750D02*
X9722906Y-16195227D01*
X9722906Y-16195227D02*
X9713382Y-16185703D01*
X9713382Y-16185703D02*
X9703858Y-16166655D01*
X9703858Y-16166655D02*
X9694334Y-16128560D01*
X9694334Y-16128560D02*
X9694334Y-16080941D01*
X9694334Y-16080941D02*
X9703858Y-16042846D01*
X9703858Y-16042846D02*
X9713382Y-16023798D01*
X9713382Y-16023798D02*
X9722906Y-16014274D01*
X9722906Y-16014274D02*
X9741953Y-16004750D01*
X9894334Y-16204750D02*
X9894334Y-16071417D01*
X9894334Y-16090465D02*
X9903858Y-16080941D01*
X9903858Y-16080941D02*
X9922906Y-16071417D01*
X9922906Y-16071417D02*
X9951477Y-16071417D01*
X9951477Y-16071417D02*
X9970525Y-16080941D01*
X9970525Y-16080941D02*
X9980049Y-16099988D01*
X9980049Y-16099988D02*
X9980049Y-16204750D01*
X9980049Y-16099988D02*
X9989572Y-16080941D01*
X9989572Y-16080941D02*
X10008620Y-16071417D01*
X10008620Y-16071417D02*
X10037191Y-16071417D01*
X10037191Y-16071417D02*
X10056239Y-16080941D01*
X10056239Y-16080941D02*
X10065763Y-16099988D01*
X10065763Y-16099988D02*
X10065763Y-16204750D01*
X10161001Y-16204750D02*
X10161001Y-16071417D01*
X10161001Y-16090465D02*
X10170525Y-16080941D01*
X10170525Y-16080941D02*
X10189572Y-16071417D01*
X10189572Y-16071417D02*
X10218144Y-16071417D01*
X10218144Y-16071417D02*
X10237191Y-16080941D01*
X10237191Y-16080941D02*
X10246715Y-16099988D01*
X10246715Y-16099988D02*
X10246715Y-16204750D01*
X10246715Y-16099988D02*
X10256239Y-16080941D01*
X10256239Y-16080941D02*
X10275287Y-16071417D01*
X10275287Y-16071417D02*
X10303858Y-16071417D01*
X10303858Y-16071417D02*
X10322906Y-16080941D01*
X10322906Y-16080941D02*
X10332430Y-16099988D01*
X10332430Y-16099988D02*
X10332430Y-16204750D01*
X10722906Y-15995227D02*
X10551477Y-16252369D01*
X10980049Y-16004750D02*
X10999096Y-16004750D01*
X10999096Y-16004750D02*
X11018144Y-16014274D01*
X11018144Y-16014274D02*
X11027668Y-16023798D01*
X11027668Y-16023798D02*
X11037192Y-16042846D01*
X11037192Y-16042846D02*
X11046715Y-16080941D01*
X11046715Y-16080941D02*
X11046715Y-16128560D01*
X11046715Y-16128560D02*
X11037192Y-16166655D01*
X11037192Y-16166655D02*
X11027668Y-16185703D01*
X11027668Y-16185703D02*
X11018144Y-16195227D01*
X11018144Y-16195227D02*
X10999096Y-16204750D01*
X10999096Y-16204750D02*
X10980049Y-16204750D01*
X10980049Y-16204750D02*
X10961001Y-16195227D01*
X10961001Y-16195227D02*
X10951477Y-16185703D01*
X10951477Y-16185703D02*
X10941953Y-16166655D01*
X10941953Y-16166655D02*
X10932430Y-16128560D01*
X10932430Y-16128560D02*
X10932430Y-16080941D01*
X10932430Y-16080941D02*
X10941953Y-16042846D01*
X10941953Y-16042846D02*
X10951477Y-16023798D01*
X10951477Y-16023798D02*
X10961001Y-16014274D01*
X10961001Y-16014274D02*
X10980049Y-16004750D01*
X11132430Y-16185703D02*
X11141953Y-16195227D01*
X11141953Y-16195227D02*
X11132430Y-16204750D01*
X11132430Y-16204750D02*
X11122906Y-16195227D01*
X11122906Y-16195227D02*
X11132430Y-16185703D01*
X11132430Y-16185703D02*
X11132430Y-16204750D01*
X11265763Y-16004750D02*
X11284811Y-16004750D01*
X11284811Y-16004750D02*
X11303858Y-16014274D01*
X11303858Y-16014274D02*
X11313382Y-16023798D01*
X11313382Y-16023798D02*
X11322906Y-16042846D01*
X11322906Y-16042846D02*
X11332430Y-16080941D01*
X11332430Y-16080941D02*
X11332430Y-16128560D01*
X11332430Y-16128560D02*
X11322906Y-16166655D01*
X11322906Y-16166655D02*
X11313382Y-16185703D01*
X11313382Y-16185703D02*
X11303858Y-16195227D01*
X11303858Y-16195227D02*
X11284811Y-16204750D01*
X11284811Y-16204750D02*
X11265763Y-16204750D01*
X11265763Y-16204750D02*
X11246715Y-16195227D01*
X11246715Y-16195227D02*
X11237191Y-16185703D01*
X11237191Y-16185703D02*
X11227668Y-16166655D01*
X11227668Y-16166655D02*
X11218144Y-16128560D01*
X11218144Y-16128560D02*
X11218144Y-16080941D01*
X11218144Y-16080941D02*
X11227668Y-16042846D01*
X11227668Y-16042846D02*
X11237191Y-16023798D01*
X11237191Y-16023798D02*
X11246715Y-16014274D01*
X11246715Y-16014274D02*
X11265763Y-16004750D01*
X11446715Y-16090465D02*
X11427668Y-16080941D01*
X11427668Y-16080941D02*
X11418144Y-16071417D01*
X11418144Y-16071417D02*
X11408620Y-16052369D01*
X11408620Y-16052369D02*
X11408620Y-16042846D01*
X11408620Y-16042846D02*
X11418144Y-16023798D01*
X11418144Y-16023798D02*
X11427668Y-16014274D01*
X11427668Y-16014274D02*
X11446715Y-16004750D01*
X11446715Y-16004750D02*
X11484811Y-16004750D01*
X11484811Y-16004750D02*
X11503858Y-16014274D01*
X11503858Y-16014274D02*
X11513382Y-16023798D01*
X11513382Y-16023798D02*
X11522906Y-16042846D01*
X11522906Y-16042846D02*
X11522906Y-16052369D01*
X11522906Y-16052369D02*
X11513382Y-16071417D01*
X11513382Y-16071417D02*
X11503858Y-16080941D01*
X11503858Y-16080941D02*
X11484811Y-16090465D01*
X11484811Y-16090465D02*
X11446715Y-16090465D01*
X11446715Y-16090465D02*
X11427668Y-16099988D01*
X11427668Y-16099988D02*
X11418144Y-16109512D01*
X11418144Y-16109512D02*
X11408620Y-16128560D01*
X11408620Y-16128560D02*
X11408620Y-16166655D01*
X11408620Y-16166655D02*
X11418144Y-16185703D01*
X11418144Y-16185703D02*
X11427668Y-16195227D01*
X11427668Y-16195227D02*
X11446715Y-16204750D01*
X11446715Y-16204750D02*
X11484811Y-16204750D01*
X11484811Y-16204750D02*
X11503858Y-16195227D01*
X11503858Y-16195227D02*
X11513382Y-16185703D01*
X11513382Y-16185703D02*
X11522906Y-16166655D01*
X11522906Y-16166655D02*
X11522906Y-16128560D01*
X11522906Y-16128560D02*
X11513382Y-16109512D01*
X11513382Y-16109512D02*
X11503858Y-16099988D01*
X11503858Y-16099988D02*
X11484811Y-16090465D01*
X11694334Y-16004750D02*
X11656239Y-16004750D01*
X11656239Y-16004750D02*
X11637191Y-16014274D01*
X11637191Y-16014274D02*
X11627668Y-16023798D01*
X11627668Y-16023798D02*
X11608620Y-16052369D01*
X11608620Y-16052369D02*
X11599096Y-16090465D01*
X11599096Y-16090465D02*
X11599096Y-16166655D01*
X11599096Y-16166655D02*
X11608620Y-16185703D01*
X11608620Y-16185703D02*
X11618144Y-16195227D01*
X11618144Y-16195227D02*
X11637191Y-16204750D01*
X11637191Y-16204750D02*
X11675287Y-16204750D01*
X11675287Y-16204750D02*
X11694334Y-16195227D01*
X11694334Y-16195227D02*
X11703858Y-16185703D01*
X11703858Y-16185703D02*
X11713382Y-16166655D01*
X11713382Y-16166655D02*
X11713382Y-16119036D01*
X11713382Y-16119036D02*
X11703858Y-16099988D01*
X11703858Y-16099988D02*
X11694334Y-16090465D01*
X11694334Y-16090465D02*
X11675287Y-16080941D01*
X11675287Y-16080941D02*
X11637191Y-16080941D01*
X11637191Y-16080941D02*
X11618144Y-16090465D01*
X11618144Y-16090465D02*
X11608620Y-16099988D01*
X11608620Y-16099988D02*
X11599096Y-16119036D01*
X11884811Y-16004750D02*
X11846715Y-16004750D01*
X11846715Y-16004750D02*
X11827668Y-16014274D01*
X11827668Y-16014274D02*
X11818144Y-16023798D01*
X11818144Y-16023798D02*
X11799096Y-16052369D01*
X11799096Y-16052369D02*
X11789572Y-16090465D01*
X11789572Y-16090465D02*
X11789572Y-16166655D01*
X11789572Y-16166655D02*
X11799096Y-16185703D01*
X11799096Y-16185703D02*
X11808620Y-16195227D01*
X11808620Y-16195227D02*
X11827668Y-16204750D01*
X11827668Y-16204750D02*
X11865763Y-16204750D01*
X11865763Y-16204750D02*
X11884811Y-16195227D01*
X11884811Y-16195227D02*
X11894334Y-16185703D01*
X11894334Y-16185703D02*
X11903858Y-16166655D01*
X11903858Y-16166655D02*
X11903858Y-16119036D01*
X11903858Y-16119036D02*
X11894334Y-16099988D01*
X11894334Y-16099988D02*
X11884811Y-16090465D01*
X11884811Y-16090465D02*
X11865763Y-16080941D01*
X11865763Y-16080941D02*
X11827668Y-16080941D01*
X11827668Y-16080941D02*
X11808620Y-16090465D01*
X11808620Y-16090465D02*
X11799096Y-16099988D01*
X11799096Y-16099988D02*
X11789572Y-16119036D01*
X11980049Y-16004750D02*
X11980049Y-16042846D01*
X12056239Y-16004750D02*
X12056239Y-16042846D01*
X12351477Y-16280941D02*
X12341953Y-16271417D01*
X12341953Y-16271417D02*
X12322906Y-16242846D01*
X12322906Y-16242846D02*
X12313382Y-16223798D01*
X12313382Y-16223798D02*
X12303858Y-16195227D01*
X12303858Y-16195227D02*
X12294334Y-16147607D01*
X12294334Y-16147607D02*
X12294334Y-16109512D01*
X12294334Y-16109512D02*
X12303858Y-16061893D01*
X12303858Y-16061893D02*
X12313382Y-16033322D01*
X12313382Y-16033322D02*
X12322906Y-16014274D01*
X12322906Y-16014274D02*
X12341953Y-15985703D01*
X12341953Y-15985703D02*
X12351477Y-15976179D01*
X12532430Y-16204750D02*
X12418144Y-16204750D01*
X12475287Y-16204750D02*
X12475287Y-16004750D01*
X12475287Y-16004750D02*
X12456239Y-16033322D01*
X12456239Y-16033322D02*
X12437192Y-16052369D01*
X12437192Y-16052369D02*
X12418144Y-16061893D01*
X12656239Y-16004750D02*
X12675287Y-16004750D01*
X12675287Y-16004750D02*
X12694334Y-16014274D01*
X12694334Y-16014274D02*
X12703858Y-16023798D01*
X12703858Y-16023798D02*
X12713382Y-16042846D01*
X12713382Y-16042846D02*
X12722906Y-16080941D01*
X12722906Y-16080941D02*
X12722906Y-16128560D01*
X12722906Y-16128560D02*
X12713382Y-16166655D01*
X12713382Y-16166655D02*
X12703858Y-16185703D01*
X12703858Y-16185703D02*
X12694334Y-16195227D01*
X12694334Y-16195227D02*
X12675287Y-16204750D01*
X12675287Y-16204750D02*
X12656239Y-16204750D01*
X12656239Y-16204750D02*
X12637192Y-16195227D01*
X12637192Y-16195227D02*
X12627668Y-16185703D01*
X12627668Y-16185703D02*
X12618144Y-16166655D01*
X12618144Y-16166655D02*
X12608620Y-16128560D01*
X12608620Y-16128560D02*
X12608620Y-16080941D01*
X12608620Y-16080941D02*
X12618144Y-16042846D01*
X12618144Y-16042846D02*
X12627668Y-16023798D01*
X12627668Y-16023798D02*
X12637192Y-16014274D01*
X12637192Y-16014274D02*
X12656239Y-16004750D01*
X12961001Y-16204750D02*
X12961001Y-16004750D01*
X13046715Y-16204750D02*
X13046715Y-16099988D01*
X13046715Y-16099988D02*
X13037192Y-16080941D01*
X13037192Y-16080941D02*
X13018144Y-16071417D01*
X13018144Y-16071417D02*
X12989573Y-16071417D01*
X12989573Y-16071417D02*
X12970525Y-16080941D01*
X12970525Y-16080941D02*
X12961001Y-16090465D01*
X13170525Y-16204750D02*
X13151477Y-16195227D01*
X13151477Y-16195227D02*
X13141954Y-16185703D01*
X13141954Y-16185703D02*
X13132430Y-16166655D01*
X13132430Y-16166655D02*
X13132430Y-16109512D01*
X13132430Y-16109512D02*
X13141954Y-16090465D01*
X13141954Y-16090465D02*
X13151477Y-16080941D01*
X13151477Y-16080941D02*
X13170525Y-16071417D01*
X13170525Y-16071417D02*
X13199096Y-16071417D01*
X13199096Y-16071417D02*
X13218144Y-16080941D01*
X13218144Y-16080941D02*
X13227668Y-16090465D01*
X13227668Y-16090465D02*
X13237192Y-16109512D01*
X13237192Y-16109512D02*
X13237192Y-16166655D01*
X13237192Y-16166655D02*
X13227668Y-16185703D01*
X13227668Y-16185703D02*
X13218144Y-16195227D01*
X13218144Y-16195227D02*
X13199096Y-16204750D01*
X13199096Y-16204750D02*
X13170525Y-16204750D01*
X13351477Y-16204750D02*
X13332430Y-16195227D01*
X13332430Y-16195227D02*
X13322906Y-16176179D01*
X13322906Y-16176179D02*
X13322906Y-16004750D01*
X13503858Y-16195227D02*
X13484811Y-16204750D01*
X13484811Y-16204750D02*
X13446715Y-16204750D01*
X13446715Y-16204750D02*
X13427668Y-16195227D01*
X13427668Y-16195227D02*
X13418144Y-16176179D01*
X13418144Y-16176179D02*
X13418144Y-16099988D01*
X13418144Y-16099988D02*
X13427668Y-16080941D01*
X13427668Y-16080941D02*
X13446715Y-16071417D01*
X13446715Y-16071417D02*
X13484811Y-16071417D01*
X13484811Y-16071417D02*
X13503858Y-16080941D01*
X13503858Y-16080941D02*
X13513382Y-16099988D01*
X13513382Y-16099988D02*
X13513382Y-16119036D01*
X13513382Y-16119036D02*
X13418144Y-16138084D01*
X13589573Y-16195227D02*
X13608620Y-16204750D01*
X13608620Y-16204750D02*
X13646715Y-16204750D01*
X13646715Y-16204750D02*
X13665763Y-16195227D01*
X13665763Y-16195227D02*
X13675287Y-16176179D01*
X13675287Y-16176179D02*
X13675287Y-16166655D01*
X13675287Y-16166655D02*
X13665763Y-16147607D01*
X13665763Y-16147607D02*
X13646715Y-16138084D01*
X13646715Y-16138084D02*
X13618144Y-16138084D01*
X13618144Y-16138084D02*
X13599096Y-16128560D01*
X13599096Y-16128560D02*
X13589573Y-16109512D01*
X13589573Y-16109512D02*
X13589573Y-16099988D01*
X13589573Y-16099988D02*
X13599096Y-16080941D01*
X13599096Y-16080941D02*
X13618144Y-16071417D01*
X13618144Y-16071417D02*
X13646715Y-16071417D01*
X13646715Y-16071417D02*
X13665763Y-16080941D01*
X13741954Y-16280941D02*
X13751477Y-16271417D01*
X13751477Y-16271417D02*
X13770525Y-16242846D01*
X13770525Y-16242846D02*
X13780049Y-16223798D01*
X13780049Y-16223798D02*
X13789573Y-16195227D01*
X13789573Y-16195227D02*
X13799096Y-16147607D01*
X13799096Y-16147607D02*
X13799096Y-16109512D01*
X13799096Y-16109512D02*
X13789573Y-16061893D01*
X13789573Y-16061893D02*
X13780049Y-16033322D01*
X13780049Y-16033322D02*
X13770525Y-16014274D01*
X13770525Y-16014274D02*
X13751477Y-15985703D01*
X13751477Y-15985703D02*
X13741954Y-15976179D01*
M02*
