%TF.GenerationSoftware,KiCad,Pcbnew,8.0.6-1.fc41*%
%TF.CreationDate,2024-12-09T09:59:40+11:00*%
%TF.ProjectId,pueo-mx-spaced,7075656f-2d6d-4782-9d73-70616365642e,0.1*%
%TF.SameCoordinates,Original*%
%TF.FileFunction,Soldermask,Top*%
%TF.FilePolarity,Negative*%
%FSLAX46Y46*%
G04 Gerber Fmt 4.6, Leading zero omitted, Abs format (unit mm)*
G04 Created by KiCad (PCBNEW 8.0.6-1.fc41) date 2024-12-09 09:59:40*
%MOMM*%
%LPD*%
G01*
G04 APERTURE LIST*
G04 Aperture macros list*
%AMRoundRect*
0 Rectangle with rounded corners*
0 $1 Rounding radius*
0 $2 $3 $4 $5 $6 $7 $8 $9 X,Y pos of 4 corners*
0 Add a 4 corners polygon primitive as box body*
4,1,4,$2,$3,$4,$5,$6,$7,$8,$9,$2,$3,0*
0 Add four circle primitives for the rounded corners*
1,1,$1+$1,$2,$3*
1,1,$1+$1,$4,$5*
1,1,$1+$1,$6,$7*
1,1,$1+$1,$8,$9*
0 Add four rect primitives between the rounded corners*
20,1,$1+$1,$2,$3,$4,$5,0*
20,1,$1+$1,$4,$5,$6,$7,0*
20,1,$1+$1,$6,$7,$8,$9,0*
20,1,$1+$1,$8,$9,$2,$3,0*%
%AMFreePoly0*
4,1,16,0.535355,0.785355,0.550000,0.750000,0.550000,-0.750000,0.535355,-0.785355,0.500000,-0.800000,-0.650000,-0.800000,-0.685355,-0.785355,-0.700000,-0.750000,-0.691603,-0.722265,-0.210093,0.000000,-0.691603,0.722265,-0.699029,0.759806,-0.677735,0.791603,-0.650000,0.800000,0.500000,0.800000,0.535355,0.785355,0.535355,0.785355,$1*%
%AMFreePoly1*
4,1,16,0.535355,0.785355,0.541603,0.777735,1.041603,0.027735,1.049029,-0.009806,1.041603,-0.027735,0.541603,-0.777735,0.509806,-0.799029,0.500000,-0.800000,-0.500000,-0.800000,-0.535355,-0.785355,-0.550000,-0.750000,-0.550000,0.750000,-0.535355,0.785355,-0.500000,0.800000,0.500000,0.800000,0.535355,0.785355,0.535355,0.785355,$1*%
G04 Aperture macros list end*
%ADD10RoundRect,0.270833X-0.654167X0.379167X-0.654167X-0.379167X0.654167X-0.379167X0.654167X0.379167X0*%
%ADD11RoundRect,0.050000X-0.800000X0.800000X-0.800000X-0.800000X0.800000X-0.800000X0.800000X0.800000X0*%
%ADD12C,1.700000*%
%ADD13O,1.850000X1.300000*%
%ADD14C,3.700000*%
%ADD15C,4.500000*%
%ADD16RoundRect,0.270833X-0.379167X-0.479167X0.379167X-0.479167X0.379167X0.479167X-0.379167X0.479167X0*%
%ADD17RoundRect,0.102000X-0.820000X0.820000X-0.820000X-0.820000X0.820000X-0.820000X0.820000X0.820000X0*%
%ADD18C,1.844000*%
%ADD19C,1.801800*%
%ADD20C,4.900000*%
%ADD21C,1.852600*%
%ADD22FreePoly0,180.000000*%
%ADD23RoundRect,0.050000X-0.762000X0.250000X-0.762000X-0.250000X0.762000X-0.250000X0.762000X0.250000X0*%
%ADD24FreePoly1,180.000000*%
G04 APERTURE END LIST*
D10*
%TO.C,*%
X201282701Y-93048471D03*
%TD*%
D11*
%TO.C,on/off*%
X198638611Y-102553469D03*
D12*
X198638604Y-105053469D03*
X198638619Y-107553467D03*
X201838621Y-102553461D03*
X201838616Y-105053469D03*
X201838605Y-107553468D03*
%TD*%
D13*
%TO.C,*%
X201282700Y-95048470D03*
%TD*%
D14*
%TO.C,*%
X200274472Y-112742162D03*
%TD*%
D15*
%TO.C,REF\u002A\u002A*%
X126176986Y-88128899D03*
X145556553Y-69414268D03*
X144891617Y-107508466D03*
X164271184Y-88793835D03*
%TD*%
%TO.C,*%
X144891617Y-107508466D03*
%TD*%
D16*
%TO.C,REF\u002A\u002A*%
X166981279Y-63404487D03*
X168981279Y-63404491D03*
%TD*%
%TO.C,REF\u002A\u002A*%
X166981278Y-60817942D03*
X168981278Y-60817946D03*
%TD*%
%TO.C,REF\u002A\u002A*%
X166981278Y-58254486D03*
X168981278Y-58254490D03*
%TD*%
D17*
%TO.C,REF\u002A\u002A*%
X177248141Y-58277937D03*
D18*
X177248141Y-63357939D03*
X172168139Y-63357939D03*
X172168139Y-58277937D03*
%TD*%
D19*
%TO.C,S4*%
X109161664Y-66599976D03*
D20*
X114654126Y-66312127D03*
D19*
X120146588Y-66024278D03*
%TD*%
%TO.C,S13*%
X185823306Y-121897357D03*
D20*
X190991616Y-123778467D03*
D19*
X196159926Y-125659577D03*
%TD*%
%TO.C,S8*%
X149391618Y-103258464D03*
D20*
X154891617Y-103258466D03*
D19*
X160391616Y-103258468D03*
%TD*%
%TO.C,S3*%
X110156046Y-85573933D03*
D20*
X115648508Y-85286084D03*
D19*
X121140970Y-84998235D03*
%TD*%
%TO.C,S5*%
X130391617Y-98508468D03*
D20*
X135891616Y-98508470D03*
D19*
X141391615Y-98508472D03*
%TD*%
D14*
%TO.C,REF\u002A\u002A*%
X109402834Y-117541819D03*
%TD*%
D19*
%TO.C,S12*%
X168391620Y-74758467D03*
D20*
X173891619Y-74758469D03*
D19*
X179391618Y-74758471D03*
%TD*%
D14*
%TO.C,REF\u002A\u002A*%
X125439323Y-65613080D03*
%TD*%
D19*
%TO.C,S11*%
X168391618Y-93758463D03*
D20*
X173891617Y-93758465D03*
D19*
X179391616Y-93758467D03*
%TD*%
%TO.C,S10*%
X149391619Y-65258467D03*
D20*
X154891618Y-65258469D03*
D19*
X160391617Y-65258471D03*
%TD*%
D14*
%TO.C,REF\u002A\u002A*%
X181491618Y-60758466D03*
%TD*%
D21*
%TO.C,MCU1*%
X200511617Y-60138469D03*
D22*
X187566617Y-60138466D03*
D23*
X186641619Y-60138468D03*
D21*
X185271617Y-60138467D03*
X200511619Y-62678469D03*
D22*
X187566617Y-62678468D03*
D23*
X186641617Y-62678468D03*
D21*
X185271617Y-62678469D03*
X200511618Y-65218469D03*
D22*
X187566618Y-65218468D03*
D23*
X186641618Y-65218468D03*
D21*
X185271620Y-65218466D03*
X200511618Y-67758468D03*
X185271620Y-67758467D03*
D24*
X189016619Y-60138467D03*
X189016618Y-62678467D03*
X189016618Y-65218469D03*
D21*
X200511618Y-70298469D03*
X200511619Y-72838467D03*
X200511618Y-75378468D03*
X200511618Y-77918468D03*
X200511616Y-80458469D03*
X200511616Y-82998470D03*
X200511619Y-85538467D03*
X200511619Y-88078469D03*
X185271618Y-70298468D03*
X185271618Y-72838468D03*
X185271617Y-75378469D03*
X185271618Y-77918467D03*
X185271618Y-80458468D03*
X185271618Y-82998467D03*
X185271617Y-85538467D03*
X185271619Y-88078467D03*
%TD*%
D19*
%TO.C,S6*%
X130391616Y-79508464D03*
D20*
X135891615Y-79508466D03*
D19*
X141391614Y-79508468D03*
%TD*%
%TO.C,S2*%
X111150431Y-104547895D03*
D20*
X116642893Y-104260046D03*
D19*
X122135355Y-103972197D03*
%TD*%
%TO.C,S7*%
X130391619Y-60508465D03*
D20*
X135891618Y-60508467D03*
D19*
X141391617Y-60508469D03*
%TD*%
D14*
%TO.C,REF\u002A\u002A*%
X200274472Y-112742162D03*
%TD*%
D19*
%TO.C,S1*%
X91928205Y-106950630D03*
D20*
X97374678Y-106185178D03*
D19*
X102821151Y-105419726D03*
%TD*%
%TO.C,S9*%
X149391620Y-84258467D03*
D20*
X154891619Y-84258469D03*
D19*
X160391618Y-84258471D03*
%TD*%
M02*
