%TF.GenerationSoftware,KiCad,Pcbnew,8.0.5*%
%TF.CreationDate,2024-09-22T11:05:02+10:00*%
%TF.ProjectId,pueo,7075656f-2e6b-4696-9361-645f70636258,0.1*%
%TF.SameCoordinates,Original*%
%TF.FileFunction,Legend,Bot*%
%TF.FilePolarity,Positive*%
%FSLAX46Y46*%
G04 Gerber Fmt 4.6, Leading zero omitted, Abs format (unit mm)*
G04 Created by KiCad (PCBNEW 8.0.5) date 2024-09-22 11:05:02*
%MOMM*%
%LPD*%
G01*
G04 APERTURE LIST*
%ADD10C,0.150000*%
%ADD11C,0.100000*%
%ADD12C,0.120000*%
%ADD13C,0.200000*%
%ADD14C,0.010000*%
G04 APERTURE END LIST*
D10*
X200478350Y-81564337D02*
X200440255Y-81450051D01*
X200440255Y-81450051D02*
X200402159Y-81411956D01*
X200402159Y-81411956D02*
X200325969Y-81373860D01*
X200325969Y-81373860D02*
X200211683Y-81373860D01*
X200211683Y-81373860D02*
X200135493Y-81411956D01*
X200135493Y-81411956D02*
X200097398Y-81450051D01*
X200097398Y-81450051D02*
X200059302Y-81526241D01*
X200059302Y-81526241D02*
X200059302Y-81831003D01*
X200059302Y-81831003D02*
X200859302Y-81831003D01*
X200859302Y-81831003D02*
X200859302Y-81564337D01*
X200859302Y-81564337D02*
X200821207Y-81488146D01*
X200821207Y-81488146D02*
X200783112Y-81450051D01*
X200783112Y-81450051D02*
X200706921Y-81411956D01*
X200706921Y-81411956D02*
X200630731Y-81411956D01*
X200630731Y-81411956D02*
X200554540Y-81450051D01*
X200554540Y-81450051D02*
X200516445Y-81488146D01*
X200516445Y-81488146D02*
X200478350Y-81564337D01*
X200478350Y-81564337D02*
X200478350Y-81831003D01*
X200364064Y-81031003D02*
X200364064Y-80421480D01*
X200059302Y-80726241D02*
X200668826Y-80726241D01*
X196450851Y-47695639D02*
X196717518Y-47314686D01*
X196907994Y-47695639D02*
X196907994Y-46895639D01*
X196907994Y-46895639D02*
X196603232Y-46895639D01*
X196603232Y-46895639D02*
X196527042Y-46933734D01*
X196527042Y-46933734D02*
X196488947Y-46971829D01*
X196488947Y-46971829D02*
X196450851Y-47048020D01*
X196450851Y-47048020D02*
X196450851Y-47162305D01*
X196450851Y-47162305D02*
X196488947Y-47238496D01*
X196488947Y-47238496D02*
X196527042Y-47276591D01*
X196527042Y-47276591D02*
X196603232Y-47314686D01*
X196603232Y-47314686D02*
X196907994Y-47314686D01*
X196146090Y-47467067D02*
X195765137Y-47467067D01*
X196222280Y-47695639D02*
X195955613Y-46895639D01*
X195955613Y-46895639D02*
X195688947Y-47695639D01*
X195498471Y-46895639D02*
X195307995Y-47695639D01*
X195307995Y-47695639D02*
X195155614Y-47124210D01*
X195155614Y-47124210D02*
X195003233Y-47695639D01*
X195003233Y-47695639D02*
X194812757Y-46895639D01*
X196507993Y-49473739D02*
X196584183Y-49435644D01*
X196584183Y-49435644D02*
X196698469Y-49435644D01*
X196698469Y-49435644D02*
X196812755Y-49473739D01*
X196812755Y-49473739D02*
X196888945Y-49549929D01*
X196888945Y-49549929D02*
X196927040Y-49626120D01*
X196927040Y-49626120D02*
X196965136Y-49778501D01*
X196965136Y-49778501D02*
X196965136Y-49892787D01*
X196965136Y-49892787D02*
X196927040Y-50045168D01*
X196927040Y-50045168D02*
X196888945Y-50121358D01*
X196888945Y-50121358D02*
X196812755Y-50197549D01*
X196812755Y-50197549D02*
X196698469Y-50235644D01*
X196698469Y-50235644D02*
X196622278Y-50235644D01*
X196622278Y-50235644D02*
X196507993Y-50197549D01*
X196507993Y-50197549D02*
X196469897Y-50159453D01*
X196469897Y-50159453D02*
X196469897Y-49892787D01*
X196469897Y-49892787D02*
X196622278Y-49892787D01*
X196127040Y-50235644D02*
X196127040Y-49435644D01*
X196127040Y-49435644D02*
X195669897Y-50235644D01*
X195669897Y-50235644D02*
X195669897Y-49435644D01*
X195288945Y-50235644D02*
X195288945Y-49435644D01*
X195288945Y-49435644D02*
X195098469Y-49435644D01*
X195098469Y-49435644D02*
X194984183Y-49473739D01*
X194984183Y-49473739D02*
X194907993Y-49549929D01*
X194907993Y-49549929D02*
X194869898Y-49626120D01*
X194869898Y-49626120D02*
X194831802Y-49778501D01*
X194831802Y-49778501D02*
X194831802Y-49892787D01*
X194831802Y-49892787D02*
X194869898Y-50045168D01*
X194869898Y-50045168D02*
X194907993Y-50121358D01*
X194907993Y-50121358D02*
X194984183Y-50197549D01*
X194984183Y-50197549D02*
X195098469Y-50235644D01*
X195098469Y-50235644D02*
X195288945Y-50235644D01*
X196450849Y-52775644D02*
X196717516Y-52394691D01*
X196907992Y-52775644D02*
X196907992Y-51975644D01*
X196907992Y-51975644D02*
X196603230Y-51975644D01*
X196603230Y-51975644D02*
X196527040Y-52013739D01*
X196527040Y-52013739D02*
X196488945Y-52051834D01*
X196488945Y-52051834D02*
X196450849Y-52128025D01*
X196450849Y-52128025D02*
X196450849Y-52242310D01*
X196450849Y-52242310D02*
X196488945Y-52318501D01*
X196488945Y-52318501D02*
X196527040Y-52356596D01*
X196527040Y-52356596D02*
X196603230Y-52394691D01*
X196603230Y-52394691D02*
X196907992Y-52394691D01*
X196146088Y-52737549D02*
X196031802Y-52775644D01*
X196031802Y-52775644D02*
X195841326Y-52775644D01*
X195841326Y-52775644D02*
X195765135Y-52737549D01*
X195765135Y-52737549D02*
X195727040Y-52699453D01*
X195727040Y-52699453D02*
X195688945Y-52623263D01*
X195688945Y-52623263D02*
X195688945Y-52547072D01*
X195688945Y-52547072D02*
X195727040Y-52470882D01*
X195727040Y-52470882D02*
X195765135Y-52432787D01*
X195765135Y-52432787D02*
X195841326Y-52394691D01*
X195841326Y-52394691D02*
X195993707Y-52356596D01*
X195993707Y-52356596D02*
X196069897Y-52318501D01*
X196069897Y-52318501D02*
X196107992Y-52280406D01*
X196107992Y-52280406D02*
X196146088Y-52204215D01*
X196146088Y-52204215D02*
X196146088Y-52128025D01*
X196146088Y-52128025D02*
X196107992Y-52051834D01*
X196107992Y-52051834D02*
X196069897Y-52013739D01*
X196069897Y-52013739D02*
X195993707Y-51975644D01*
X195993707Y-51975644D02*
X195803230Y-51975644D01*
X195803230Y-51975644D02*
X195688945Y-52013739D01*
X195460373Y-51975644D02*
X195003230Y-51975644D01*
X195231802Y-52775644D02*
X195231802Y-51975644D01*
D11*
X147594811Y-66048892D02*
X147589492Y-66353607D01*
X147326190Y-66158506D02*
X148011800Y-66170474D01*
X148011800Y-66170474D02*
X148087314Y-66209893D01*
X148087314Y-66209893D02*
X148124074Y-66286737D01*
X148124074Y-66286737D02*
X148122744Y-66362915D01*
X148074682Y-66933592D02*
X148114101Y-66858078D01*
X148114101Y-66858078D02*
X148116760Y-66705720D01*
X148116760Y-66705720D02*
X148080001Y-66628877D01*
X148080001Y-66628877D02*
X148004487Y-66589458D01*
X148004487Y-66589458D02*
X147699771Y-66584139D01*
X147699771Y-66584139D02*
X147622928Y-66620898D01*
X147622928Y-66620898D02*
X147583508Y-66696412D01*
X147583508Y-66696412D02*
X147580849Y-66848770D01*
X147580849Y-66848770D02*
X147617609Y-66925614D01*
X147617609Y-66925614D02*
X147693123Y-66965033D01*
X147693123Y-66965033D02*
X147769302Y-66966363D01*
X147769302Y-66966363D02*
X147852129Y-66586798D01*
X147572871Y-67305843D02*
X148106123Y-67315151D01*
X147649050Y-67307173D02*
X147610295Y-67344597D01*
X147610295Y-67344597D02*
X147570876Y-67420111D01*
X147570876Y-67420111D02*
X147568882Y-67534380D01*
X147568882Y-67534380D02*
X147605641Y-67611224D01*
X147605641Y-67611224D02*
X147681155Y-67650643D01*
X147681155Y-67650643D02*
X148100139Y-67657956D01*
X147562233Y-67915275D02*
X147556914Y-68219990D01*
X147293612Y-68024889D02*
X147979222Y-68036856D01*
X147979222Y-68036856D02*
X148054736Y-68076275D01*
X148054736Y-68076275D02*
X148091496Y-68153119D01*
X148091496Y-68153119D02*
X148090166Y-68229298D01*
X148085512Y-68495924D02*
X147552260Y-68486616D01*
X147285634Y-68481962D02*
X147324388Y-68444538D01*
X147324388Y-68444538D02*
X147361813Y-68483292D01*
X147361813Y-68483292D02*
X147323059Y-68520717D01*
X147323059Y-68520717D02*
X147285634Y-68481962D01*
X147285634Y-68481962D02*
X147361813Y-68483292D01*
X147545612Y-68867510D02*
X148078864Y-68876818D01*
X147621791Y-68868840D02*
X147583036Y-68906265D01*
X147583036Y-68906265D02*
X147543617Y-68981779D01*
X147543617Y-68981779D02*
X147541623Y-69096047D01*
X147541623Y-69096047D02*
X147578382Y-69172891D01*
X147578382Y-69172891D02*
X147653896Y-69212310D01*
X147653896Y-69212310D02*
X148072880Y-69219623D01*
X147526996Y-69934015D02*
X148174516Y-69945317D01*
X148174516Y-69945317D02*
X148251360Y-69908558D01*
X148251360Y-69908558D02*
X148290114Y-69871133D01*
X148290114Y-69871133D02*
X148329533Y-69795619D01*
X148329533Y-69795619D02*
X148331528Y-69681351D01*
X148331528Y-69681351D02*
X148294768Y-69604507D01*
X148022158Y-69942658D02*
X148061578Y-69867144D01*
X148061578Y-69867144D02*
X148064237Y-69714786D01*
X148064237Y-69714786D02*
X148027477Y-69637943D01*
X148027477Y-69637943D02*
X147990053Y-69599188D01*
X147990053Y-69599188D02*
X147914539Y-69559769D01*
X147914539Y-69559769D02*
X147686002Y-69555780D01*
X147686002Y-69555780D02*
X147609158Y-69592540D01*
X147609158Y-69592540D02*
X147570404Y-69629964D01*
X147570404Y-69629964D02*
X147530985Y-69705478D01*
X147530985Y-69705478D02*
X147528326Y-69857836D01*
X147528326Y-69857836D02*
X147565085Y-69934680D01*
X147713200Y-82207420D02*
X146913322Y-82193458D01*
X147675111Y-82206755D02*
X147714530Y-82131241D01*
X147714530Y-82131241D02*
X147717189Y-81978884D01*
X147717189Y-81978884D02*
X147680429Y-81902040D01*
X147680429Y-81902040D02*
X147643005Y-81863286D01*
X147643005Y-81863286D02*
X147567491Y-81823866D01*
X147567491Y-81823866D02*
X147338954Y-81819877D01*
X147338954Y-81819877D02*
X147262111Y-81856637D01*
X147262111Y-81856637D02*
X147223356Y-81894062D01*
X147223356Y-81894062D02*
X147183937Y-81969576D01*
X147183937Y-81969576D02*
X147181278Y-82121933D01*
X147181278Y-82121933D02*
X147218037Y-82198777D01*
X147731816Y-81140916D02*
X147198564Y-81131608D01*
X147725832Y-81483720D02*
X147306848Y-81476407D01*
X147306848Y-81476407D02*
X147231334Y-81436988D01*
X147231334Y-81436988D02*
X147194575Y-81360144D01*
X147194575Y-81360144D02*
X147196569Y-81245876D01*
X147196569Y-81245876D02*
X147235988Y-81170362D01*
X147235988Y-81170362D02*
X147274743Y-81132937D01*
X147249286Y-80408573D02*
X147209866Y-80484087D01*
X147209866Y-80484087D02*
X147207207Y-80636444D01*
X147207207Y-80636444D02*
X147243967Y-80713288D01*
X147243967Y-80713288D02*
X147281391Y-80752042D01*
X147281391Y-80752042D02*
X147356905Y-80791462D01*
X147356905Y-80791462D02*
X147585442Y-80795451D01*
X147585442Y-80795451D02*
X147662286Y-80758691D01*
X147662286Y-80758691D02*
X147701040Y-80721266D01*
X147701040Y-80721266D02*
X147740459Y-80645752D01*
X147740459Y-80645752D02*
X147743118Y-80493395D01*
X147743118Y-80493395D02*
X147706359Y-80416551D01*
X147217180Y-80065103D02*
X148017058Y-80079065D01*
X147523225Y-79994243D02*
X147222499Y-79760388D01*
X147755751Y-79769696D02*
X147445716Y-80069092D01*
D12*
%TO.C,MCU1*%
X197545006Y-46341408D02*
X197545006Y-48341409D01*
X197545006Y-48341409D02*
X200345008Y-48341409D01*
X197545007Y-48881407D02*
X197545008Y-50881409D01*
X197545007Y-53421411D02*
X200345007Y-53421409D01*
X197545008Y-50881409D02*
X200345006Y-50881409D01*
X197545008Y-51421409D02*
X197545007Y-53421411D01*
X200344999Y-47011414D02*
X200345007Y-46341411D01*
X200345005Y-51421409D02*
X197545008Y-51421409D01*
X200345006Y-49561408D02*
X200345007Y-48881409D01*
X200345006Y-50881409D02*
X200345008Y-50211410D01*
X200345006Y-52086410D02*
X200345005Y-51421409D01*
X200345007Y-46341411D02*
X197545006Y-46341408D01*
X200345007Y-48881409D02*
X197545007Y-48881407D01*
X200345007Y-53421409D02*
X200345006Y-52761408D01*
X200345008Y-48341409D02*
X200345005Y-47661410D01*
D13*
%TO.C,REF\u002A\u002A*%
X127594448Y-71764709D02*
G75*
G02*
X128700594Y-67632832I20267135J-3211720D01*
G01*
X128455978Y-81646796D02*
G75*
G02*
X127494707Y-77478839I19405505J6670389D01*
G01*
X141191094Y-55570902D02*
G75*
G02*
X145359051Y-54609631I6670389J-19405505D01*
G01*
X144649785Y-95243442D02*
G75*
G02*
X140517916Y-94137297I3211658J20266882D01*
G01*
X146920637Y-64222485D02*
G75*
G02*
X148049882Y-64183051I940841J-10753843D01*
G01*
X147673084Y-85769763D02*
G75*
G02*
X146545903Y-85690943I188392J10793277D01*
G01*
X148049882Y-64183051D02*
G75*
G02*
X149177063Y-64261872I-188397J-10793256D01*
G01*
X148802329Y-85730329D02*
G75*
G02*
X147673084Y-85769763I-940820J10753111D01*
G01*
X151073181Y-54709372D02*
G75*
G02*
X155205055Y-55815517I-3211702J-20267079D01*
G01*
X154531871Y-94381912D02*
G75*
G02*
X150363915Y-95343183I-6670484J19405915D01*
G01*
X167266987Y-68306016D02*
G75*
G02*
X168228258Y-72473975I-19405661J-6670427D01*
G01*
X168128518Y-78188105D02*
G75*
G02*
X167022372Y-82319977I-20267147J3211729D01*
G01*
D14*
X149724238Y-87495307D02*
X149676382Y-90236762D01*
X149587162Y-90142915D01*
X149573627Y-90128680D01*
X149542336Y-90095776D01*
X149497210Y-90048327D01*
X149439446Y-89987592D01*
X149370237Y-89914828D01*
X149290784Y-89831291D01*
X149202280Y-89738239D01*
X149105921Y-89636931D01*
X149002904Y-89528624D01*
X148894424Y-89414574D01*
X148781676Y-89296039D01*
X148665859Y-89174276D01*
X147833775Y-88299485D01*
X148122154Y-88301425D01*
X148410531Y-88303363D01*
X149199346Y-89119954D01*
X149227854Y-87486645D01*
X149724238Y-87495307D01*
G36*
X149724238Y-87495307D02*
G01*
X149676382Y-90236762D01*
X149587162Y-90142915D01*
X149573627Y-90128680D01*
X149542336Y-90095776D01*
X149497210Y-90048327D01*
X149439446Y-89987592D01*
X149370237Y-89914828D01*
X149290784Y-89831291D01*
X149202280Y-89738239D01*
X149105921Y-89636931D01*
X149002904Y-89528624D01*
X148894424Y-89414574D01*
X148781676Y-89296039D01*
X148665859Y-89174276D01*
X147833775Y-88299485D01*
X148122154Y-88301425D01*
X148410531Y-88303363D01*
X149199346Y-89119954D01*
X149227854Y-87486645D01*
X149724238Y-87495307D01*
G37*
X148395196Y-89504603D02*
X148407243Y-89514863D01*
X148432314Y-89538924D01*
X148467850Y-89574263D01*
X148511311Y-89618352D01*
X148560153Y-89668668D01*
X148718348Y-89832798D01*
X148683811Y-89870016D01*
X148680573Y-89873453D01*
X148658304Y-89896276D01*
X148623339Y-89931418D01*
X148578741Y-89975829D01*
X148527567Y-90026453D01*
X148472878Y-90080250D01*
X148296481Y-90253267D01*
X147676562Y-90242446D01*
X147705445Y-90209310D01*
X147707786Y-90206659D01*
X147728854Y-90183794D01*
X147762234Y-90148532D01*
X147805896Y-90102942D01*
X147857816Y-90049097D01*
X147915968Y-89989067D01*
X147978327Y-89924927D01*
X148042867Y-89858745D01*
X148107565Y-89792594D01*
X148170391Y-89728546D01*
X148229324Y-89668671D01*
X148282332Y-89615042D01*
X148327401Y-89569730D01*
X148362495Y-89534806D01*
X148385594Y-89512338D01*
X148394669Y-89504411D01*
X148395196Y-89504603D01*
G36*
X148395196Y-89504603D02*
G01*
X148407243Y-89514863D01*
X148432314Y-89538924D01*
X148467850Y-89574263D01*
X148511311Y-89618352D01*
X148560153Y-89668668D01*
X148718348Y-89832798D01*
X148683811Y-89870016D01*
X148680573Y-89873453D01*
X148658304Y-89896276D01*
X148623339Y-89931418D01*
X148578741Y-89975829D01*
X148527567Y-90026453D01*
X148472878Y-90080250D01*
X148296481Y-90253267D01*
X147676562Y-90242446D01*
X147705445Y-90209310D01*
X147707786Y-90206659D01*
X147728854Y-90183794D01*
X147762234Y-90148532D01*
X147805896Y-90102942D01*
X147857816Y-90049097D01*
X147915968Y-89989067D01*
X147978327Y-89924927D01*
X148042867Y-89858745D01*
X148107565Y-89792594D01*
X148170391Y-89728546D01*
X148229324Y-89668671D01*
X148282332Y-89615042D01*
X148327401Y-89569730D01*
X148362495Y-89534806D01*
X148385594Y-89512338D01*
X148394669Y-89504411D01*
X148395196Y-89504603D01*
G37*
X147521930Y-87972745D02*
X147509771Y-88664353D01*
X147509563Y-88676087D01*
X147506676Y-88826533D01*
X147503616Y-88963773D01*
X147500431Y-89086391D01*
X147497168Y-89192980D01*
X147493873Y-89282125D01*
X147492941Y-89302115D01*
X147490593Y-89352416D01*
X147487374Y-89402439D01*
X147484266Y-89430784D01*
X147474588Y-89477072D01*
X147434821Y-89603558D01*
X147377467Y-89728439D01*
X147305722Y-89845384D01*
X147222787Y-89948074D01*
X147214234Y-89957091D01*
X147104188Y-90055513D01*
X146980321Y-90137361D01*
X146846016Y-90201005D01*
X146704662Y-90244820D01*
X146559642Y-90267174D01*
X146459333Y-90269906D01*
X146311135Y-90255919D01*
X146168299Y-90221168D01*
X146032992Y-90166775D01*
X145907370Y-90093857D01*
X145793596Y-90003536D01*
X145693829Y-89896930D01*
X145610229Y-89775159D01*
X145554849Y-89667257D01*
X145504142Y-89527122D01*
X145475314Y-89382026D01*
X145470925Y-89294206D01*
X145965656Y-89294206D01*
X145965846Y-89299500D01*
X145969198Y-89354870D01*
X145975816Y-89397284D01*
X145987785Y-89436107D01*
X146007189Y-89480697D01*
X146028007Y-89519394D01*
X146068455Y-89578905D01*
X146115541Y-89635190D01*
X146164050Y-89682237D01*
X146208788Y-89714027D01*
X146224817Y-89722084D01*
X146265413Y-89740155D01*
X146308123Y-89756989D01*
X146380602Y-89777545D01*
X146484138Y-89787875D01*
X146585887Y-89776855D01*
X146683237Y-89745416D01*
X146773571Y-89694493D01*
X146854277Y-89625014D01*
X146922742Y-89537912D01*
X146952336Y-89484276D01*
X146984405Y-89390794D01*
X146996677Y-89293444D01*
X146990082Y-89195374D01*
X146965546Y-89099719D01*
X146923999Y-89009633D01*
X146866369Y-88928267D01*
X146793579Y-88858774D01*
X146706566Y-88804305D01*
X146692673Y-88797769D01*
X146594876Y-88765432D01*
X146493718Y-88753483D01*
X146392666Y-88761040D01*
X146295196Y-88787221D01*
X146204779Y-88831146D01*
X146124889Y-88891931D01*
X146058997Y-88968692D01*
X146040732Y-88996911D01*
X145995456Y-89089552D01*
X145970895Y-89187036D01*
X145965656Y-89294206D01*
X145470925Y-89294206D01*
X145467686Y-89229393D01*
X145472811Y-89139797D01*
X145498111Y-88989937D01*
X145543334Y-88848736D01*
X145607438Y-88717849D01*
X145689384Y-88598936D01*
X145788131Y-88493661D01*
X145902638Y-88403659D01*
X146031866Y-88330611D01*
X146102277Y-88299202D01*
X146177913Y-88271295D01*
X146249894Y-88253056D01*
X146326574Y-88242457D01*
X146416310Y-88237467D01*
X146434130Y-88237112D01*
X146573198Y-88245977D01*
X146703078Y-88275926D01*
X146824418Y-88327157D01*
X146937864Y-88399868D01*
X146961694Y-88417498D01*
X146986248Y-88434260D01*
X146998570Y-88440793D01*
X146999548Y-88436779D01*
X147001412Y-88413001D01*
X147003492Y-88369908D01*
X147005711Y-88309862D01*
X147007988Y-88235229D01*
X147010254Y-88148369D01*
X147012431Y-88051647D01*
X147014440Y-87947427D01*
X147023204Y-87453936D01*
X147521930Y-87972745D01*
G36*
X147521930Y-87972745D02*
G01*
X147509771Y-88664353D01*
X147509563Y-88676087D01*
X147506676Y-88826533D01*
X147503616Y-88963773D01*
X147500431Y-89086391D01*
X147497168Y-89192980D01*
X147493873Y-89282125D01*
X147492941Y-89302115D01*
X147490593Y-89352416D01*
X147487374Y-89402439D01*
X147484266Y-89430784D01*
X147474588Y-89477072D01*
X147434821Y-89603558D01*
X147377467Y-89728439D01*
X147305722Y-89845384D01*
X147222787Y-89948074D01*
X147214234Y-89957091D01*
X147104188Y-90055513D01*
X146980321Y-90137361D01*
X146846016Y-90201005D01*
X146704662Y-90244820D01*
X146559642Y-90267174D01*
X146459333Y-90269906D01*
X146311135Y-90255919D01*
X146168299Y-90221168D01*
X146032992Y-90166775D01*
X145907370Y-90093857D01*
X145793596Y-90003536D01*
X145693829Y-89896930D01*
X145610229Y-89775159D01*
X145554849Y-89667257D01*
X145504142Y-89527122D01*
X145475314Y-89382026D01*
X145470925Y-89294206D01*
X145965656Y-89294206D01*
X145965846Y-89299500D01*
X145969198Y-89354870D01*
X145975816Y-89397284D01*
X145987785Y-89436107D01*
X146007189Y-89480697D01*
X146028007Y-89519394D01*
X146068455Y-89578905D01*
X146115541Y-89635190D01*
X146164050Y-89682237D01*
X146208788Y-89714027D01*
X146224817Y-89722084D01*
X146265413Y-89740155D01*
X146308123Y-89756989D01*
X146380602Y-89777545D01*
X146484138Y-89787875D01*
X146585887Y-89776855D01*
X146683237Y-89745416D01*
X146773571Y-89694493D01*
X146854277Y-89625014D01*
X146922742Y-89537912D01*
X146952336Y-89484276D01*
X146984405Y-89390794D01*
X146996677Y-89293444D01*
X146990082Y-89195374D01*
X146965546Y-89099719D01*
X146923999Y-89009633D01*
X146866369Y-88928267D01*
X146793579Y-88858774D01*
X146706566Y-88804305D01*
X146692673Y-88797769D01*
X146594876Y-88765432D01*
X146493718Y-88753483D01*
X146392666Y-88761040D01*
X146295196Y-88787221D01*
X146204779Y-88831146D01*
X146124889Y-88891931D01*
X146058997Y-88968692D01*
X146040732Y-88996911D01*
X145995456Y-89089552D01*
X145970895Y-89187036D01*
X145965656Y-89294206D01*
X145470925Y-89294206D01*
X145467686Y-89229393D01*
X145472811Y-89139797D01*
X145498111Y-88989937D01*
X145543334Y-88848736D01*
X145607438Y-88717849D01*
X145689384Y-88598936D01*
X145788131Y-88493661D01*
X145902638Y-88403659D01*
X146031866Y-88330611D01*
X146102277Y-88299202D01*
X146177913Y-88271295D01*
X146249894Y-88253056D01*
X146326574Y-88242457D01*
X146416310Y-88237467D01*
X146434130Y-88237112D01*
X146573198Y-88245977D01*
X146703078Y-88275926D01*
X146824418Y-88327157D01*
X146937864Y-88399868D01*
X146961694Y-88417498D01*
X146986248Y-88434260D01*
X146998570Y-88440793D01*
X146999548Y-88436779D01*
X147001412Y-88413001D01*
X147003492Y-88369908D01*
X147005711Y-88309862D01*
X147007988Y-88235229D01*
X147010254Y-88148369D01*
X147012431Y-88051647D01*
X147014440Y-87947427D01*
X147023204Y-87453936D01*
X147521930Y-87972745D01*
G37*
%TD*%
M02*
