%TF.GenerationSoftware,KiCad,Pcbnew,8.0.5*%
%TF.CreationDate,2024-09-22T11:05:02+10:00*%
%TF.ProjectId,pueo,7075656f-2e6b-4696-9361-645f70636258,0.1*%
%TF.SameCoordinates,Original*%
%TF.FileFunction,Legend,Top*%
%TF.FilePolarity,Positive*%
%FSLAX46Y46*%
G04 Gerber Fmt 4.6, Leading zero omitted, Abs format (unit mm)*
G04 Created by KiCad (PCBNEW 8.0.5) date 2024-09-22 11:05:02*
%MOMM*%
%LPD*%
G01*
G04 APERTURE LIST*
%ADD10C,0.150000*%
%ADD11C,0.100000*%
%ADD12C,0.120000*%
%ADD13C,0.200000*%
%ADD14C,0.010000*%
%ADD15C,2.000000*%
G04 APERTURE END LIST*
D10*
X200314948Y-54031160D02*
X199514948Y-54031160D01*
X200276852Y-54031160D02*
X200314948Y-54107350D01*
X200314948Y-54107350D02*
X200314948Y-54259731D01*
X200314948Y-54259731D02*
X200276852Y-54335922D01*
X200276852Y-54335922D02*
X200238757Y-54374017D01*
X200238757Y-54374017D02*
X200162567Y-54412112D01*
X200162567Y-54412112D02*
X199933995Y-54412112D01*
X199933995Y-54412112D02*
X199857805Y-54374017D01*
X199857805Y-54374017D02*
X199819710Y-54335922D01*
X199819710Y-54335922D02*
X199781614Y-54259731D01*
X199781614Y-54259731D02*
X199781614Y-54107350D01*
X199781614Y-54107350D02*
X199819710Y-54031160D01*
X200314948Y-55097827D02*
X199781614Y-55097827D01*
X200314948Y-54754970D02*
X199895900Y-54754970D01*
X199895900Y-54754970D02*
X199819710Y-54793065D01*
X199819710Y-54793065D02*
X199781614Y-54869255D01*
X199781614Y-54869255D02*
X199781614Y-54983541D01*
X199781614Y-54983541D02*
X199819710Y-55059732D01*
X199819710Y-55059732D02*
X199857805Y-55097827D01*
X199819710Y-55783542D02*
X199781614Y-55707351D01*
X199781614Y-55707351D02*
X199781614Y-55554970D01*
X199781614Y-55554970D02*
X199819710Y-55478780D01*
X199819710Y-55478780D02*
X199895900Y-55440684D01*
X199895900Y-55440684D02*
X200200662Y-55440684D01*
X200200662Y-55440684D02*
X200276852Y-55478780D01*
X200276852Y-55478780D02*
X200314948Y-55554970D01*
X200314948Y-55554970D02*
X200314948Y-55707351D01*
X200314948Y-55707351D02*
X200276852Y-55783542D01*
X200276852Y-55783542D02*
X200200662Y-55821637D01*
X200200662Y-55821637D02*
X200124471Y-55821637D01*
X200124471Y-55821637D02*
X200048281Y-55440684D01*
X199781614Y-56278779D02*
X199819710Y-56202589D01*
X199819710Y-56202589D02*
X199857805Y-56164494D01*
X199857805Y-56164494D02*
X199933995Y-56126398D01*
X199933995Y-56126398D02*
X200162567Y-56126398D01*
X200162567Y-56126398D02*
X200238757Y-56164494D01*
X200238757Y-56164494D02*
X200276852Y-56202589D01*
X200276852Y-56202589D02*
X200314948Y-56278779D01*
X200314948Y-56278779D02*
X200314948Y-56393065D01*
X200314948Y-56393065D02*
X200276852Y-56469256D01*
X200276852Y-56469256D02*
X200238757Y-56507351D01*
X200238757Y-56507351D02*
X200162567Y-56545446D01*
X200162567Y-56545446D02*
X199933995Y-56545446D01*
X199933995Y-56545446D02*
X199857805Y-56507351D01*
X199857805Y-56507351D02*
X199819710Y-56469256D01*
X199819710Y-56469256D02*
X199781614Y-56393065D01*
X199781614Y-56393065D02*
X199781614Y-56278779D01*
X200314948Y-57421637D02*
X199781614Y-57612113D01*
X199781614Y-57612113D02*
X200314948Y-57802590D01*
X200581614Y-58259733D02*
X200581614Y-58335923D01*
X200581614Y-58335923D02*
X200543519Y-58412114D01*
X200543519Y-58412114D02*
X200505424Y-58450209D01*
X200505424Y-58450209D02*
X200429233Y-58488304D01*
X200429233Y-58488304D02*
X200276852Y-58526399D01*
X200276852Y-58526399D02*
X200086376Y-58526399D01*
X200086376Y-58526399D02*
X199933995Y-58488304D01*
X199933995Y-58488304D02*
X199857805Y-58450209D01*
X199857805Y-58450209D02*
X199819710Y-58412114D01*
X199819710Y-58412114D02*
X199781614Y-58335923D01*
X199781614Y-58335923D02*
X199781614Y-58259733D01*
X199781614Y-58259733D02*
X199819710Y-58183542D01*
X199819710Y-58183542D02*
X199857805Y-58145447D01*
X199857805Y-58145447D02*
X199933995Y-58107352D01*
X199933995Y-58107352D02*
X200086376Y-58069256D01*
X200086376Y-58069256D02*
X200276852Y-58069256D01*
X200276852Y-58069256D02*
X200429233Y-58107352D01*
X200429233Y-58107352D02*
X200505424Y-58145447D01*
X200505424Y-58145447D02*
X200543519Y-58183542D01*
X200543519Y-58183542D02*
X200581614Y-58259733D01*
X199857805Y-58869257D02*
X199819710Y-58907352D01*
X199819710Y-58907352D02*
X199781614Y-58869257D01*
X199781614Y-58869257D02*
X199819710Y-58831161D01*
X199819710Y-58831161D02*
X199857805Y-58869257D01*
X199857805Y-58869257D02*
X199781614Y-58869257D01*
X199781614Y-59669256D02*
X199781614Y-59212113D01*
X199781614Y-59440685D02*
X200581614Y-59440685D01*
X200581614Y-59440685D02*
X200467329Y-59364494D01*
X200467329Y-59364494D02*
X200391138Y-59288304D01*
X200391138Y-59288304D02*
X200353043Y-59212113D01*
X199781614Y-60621638D02*
X200581614Y-60621638D01*
X200276852Y-60621638D02*
X200314948Y-60697828D01*
X200314948Y-60697828D02*
X200314948Y-60850209D01*
X200314948Y-60850209D02*
X200276852Y-60926400D01*
X200276852Y-60926400D02*
X200238757Y-60964495D01*
X200238757Y-60964495D02*
X200162567Y-61002590D01*
X200162567Y-61002590D02*
X199933995Y-61002590D01*
X199933995Y-61002590D02*
X199857805Y-60964495D01*
X199857805Y-60964495D02*
X199819710Y-60926400D01*
X199819710Y-60926400D02*
X199781614Y-60850209D01*
X199781614Y-60850209D02*
X199781614Y-60697828D01*
X199781614Y-60697828D02*
X199819710Y-60621638D01*
X200314948Y-61269257D02*
X199781614Y-61459733D01*
X200314948Y-61650210D02*
X199781614Y-61459733D01*
X199781614Y-61459733D02*
X199591138Y-61383543D01*
X199591138Y-61383543D02*
X199553043Y-61345448D01*
X199553043Y-61345448D02*
X199514948Y-61269257D01*
X199781614Y-62564496D02*
X200314948Y-62564496D01*
X200162567Y-62564496D02*
X200238757Y-62602591D01*
X200238757Y-62602591D02*
X200276852Y-62640686D01*
X200276852Y-62640686D02*
X200314948Y-62716877D01*
X200314948Y-62716877D02*
X200314948Y-62793067D01*
X199819710Y-63364496D02*
X199781614Y-63288305D01*
X199781614Y-63288305D02*
X199781614Y-63135924D01*
X199781614Y-63135924D02*
X199819710Y-63059734D01*
X199819710Y-63059734D02*
X199895900Y-63021638D01*
X199895900Y-63021638D02*
X200200662Y-63021638D01*
X200200662Y-63021638D02*
X200276852Y-63059734D01*
X200276852Y-63059734D02*
X200314948Y-63135924D01*
X200314948Y-63135924D02*
X200314948Y-63288305D01*
X200314948Y-63288305D02*
X200276852Y-63364496D01*
X200276852Y-63364496D02*
X200200662Y-63402591D01*
X200200662Y-63402591D02*
X200124471Y-63402591D01*
X200124471Y-63402591D02*
X200048281Y-63021638D01*
X199819710Y-64050210D02*
X199781614Y-63974019D01*
X199781614Y-63974019D02*
X199781614Y-63821638D01*
X199781614Y-63821638D02*
X199819710Y-63745448D01*
X199819710Y-63745448D02*
X199895900Y-63707352D01*
X199895900Y-63707352D02*
X200200662Y-63707352D01*
X200200662Y-63707352D02*
X200276852Y-63745448D01*
X200276852Y-63745448D02*
X200314948Y-63821638D01*
X200314948Y-63821638D02*
X200314948Y-63974019D01*
X200314948Y-63974019D02*
X200276852Y-64050210D01*
X200276852Y-64050210D02*
X200200662Y-64088305D01*
X200200662Y-64088305D02*
X200124471Y-64088305D01*
X200124471Y-64088305D02*
X200048281Y-63707352D01*
X200314948Y-64354971D02*
X199781614Y-64545447D01*
X199781614Y-64545447D02*
X200314948Y-64735924D01*
X199819710Y-65345448D02*
X199781614Y-65269257D01*
X199781614Y-65269257D02*
X199781614Y-65116876D01*
X199781614Y-65116876D02*
X199819710Y-65040686D01*
X199819710Y-65040686D02*
X199895900Y-65002590D01*
X199895900Y-65002590D02*
X200200662Y-65002590D01*
X200200662Y-65002590D02*
X200276852Y-65040686D01*
X200276852Y-65040686D02*
X200314948Y-65116876D01*
X200314948Y-65116876D02*
X200314948Y-65269257D01*
X200314948Y-65269257D02*
X200276852Y-65345448D01*
X200276852Y-65345448D02*
X200200662Y-65383543D01*
X200200662Y-65383543D02*
X200124471Y-65383543D01*
X200124471Y-65383543D02*
X200048281Y-65002590D01*
X200478350Y-80688146D02*
X200440255Y-80802432D01*
X200440255Y-80802432D02*
X200402159Y-80840527D01*
X200402159Y-80840527D02*
X200325969Y-80878623D01*
X200325969Y-80878623D02*
X200211683Y-80878623D01*
X200211683Y-80878623D02*
X200135493Y-80840527D01*
X200135493Y-80840527D02*
X200097398Y-80802432D01*
X200097398Y-80802432D02*
X200059302Y-80726242D01*
X200059302Y-80726242D02*
X200059302Y-80421480D01*
X200059302Y-80421480D02*
X200859302Y-80421480D01*
X200859302Y-80421480D02*
X200859302Y-80688146D01*
X200859302Y-80688146D02*
X200821207Y-80764337D01*
X200821207Y-80764337D02*
X200783112Y-80802432D01*
X200783112Y-80802432D02*
X200706921Y-80840527D01*
X200706921Y-80840527D02*
X200630731Y-80840527D01*
X200630731Y-80840527D02*
X200554540Y-80802432D01*
X200554540Y-80802432D02*
X200516445Y-80764337D01*
X200516445Y-80764337D02*
X200478350Y-80688146D01*
X200478350Y-80688146D02*
X200478350Y-80421480D01*
X200364064Y-81221480D02*
X200364064Y-81831004D01*
X200059302Y-81526242D02*
X200668826Y-81526242D01*
X192331916Y-47703703D02*
X192065249Y-47322750D01*
X191874773Y-47703703D02*
X191874773Y-46903703D01*
X191874773Y-46903703D02*
X192179535Y-46903703D01*
X192179535Y-46903703D02*
X192255725Y-46941798D01*
X192255725Y-46941798D02*
X192293820Y-46979893D01*
X192293820Y-46979893D02*
X192331916Y-47056084D01*
X192331916Y-47056084D02*
X192331916Y-47170369D01*
X192331916Y-47170369D02*
X192293820Y-47246560D01*
X192293820Y-47246560D02*
X192255725Y-47284655D01*
X192255725Y-47284655D02*
X192179535Y-47322750D01*
X192179535Y-47322750D02*
X191874773Y-47322750D01*
X192636677Y-47475131D02*
X193017630Y-47475131D01*
X192560487Y-47703703D02*
X192827154Y-46903703D01*
X192827154Y-46903703D02*
X193093820Y-47703703D01*
X193284296Y-46903703D02*
X193474772Y-47703703D01*
X193474772Y-47703703D02*
X193627153Y-47132274D01*
X193627153Y-47132274D02*
X193779534Y-47703703D01*
X193779534Y-47703703D02*
X193970011Y-46903703D01*
X192331913Y-52783705D02*
X192065246Y-52402752D01*
X191874770Y-52783705D02*
X191874770Y-51983705D01*
X191874770Y-51983705D02*
X192179532Y-51983705D01*
X192179532Y-51983705D02*
X192255722Y-52021800D01*
X192255722Y-52021800D02*
X192293817Y-52059895D01*
X192293817Y-52059895D02*
X192331913Y-52136086D01*
X192331913Y-52136086D02*
X192331913Y-52250371D01*
X192331913Y-52250371D02*
X192293817Y-52326562D01*
X192293817Y-52326562D02*
X192255722Y-52364657D01*
X192255722Y-52364657D02*
X192179532Y-52402752D01*
X192179532Y-52402752D02*
X191874770Y-52402752D01*
X192636674Y-52745610D02*
X192750960Y-52783705D01*
X192750960Y-52783705D02*
X192941436Y-52783705D01*
X192941436Y-52783705D02*
X193017627Y-52745610D01*
X193017627Y-52745610D02*
X193055722Y-52707514D01*
X193055722Y-52707514D02*
X193093817Y-52631324D01*
X193093817Y-52631324D02*
X193093817Y-52555133D01*
X193093817Y-52555133D02*
X193055722Y-52478943D01*
X193055722Y-52478943D02*
X193017627Y-52440848D01*
X193017627Y-52440848D02*
X192941436Y-52402752D01*
X192941436Y-52402752D02*
X192789055Y-52364657D01*
X192789055Y-52364657D02*
X192712865Y-52326562D01*
X192712865Y-52326562D02*
X192674770Y-52288467D01*
X192674770Y-52288467D02*
X192636674Y-52212276D01*
X192636674Y-52212276D02*
X192636674Y-52136086D01*
X192636674Y-52136086D02*
X192674770Y-52059895D01*
X192674770Y-52059895D02*
X192712865Y-52021800D01*
X192712865Y-52021800D02*
X192789055Y-51983705D01*
X192789055Y-51983705D02*
X192979532Y-51983705D01*
X192979532Y-51983705D02*
X193093817Y-52021800D01*
X193322389Y-51983705D02*
X193779532Y-51983705D01*
X193550960Y-52783705D02*
X193550960Y-51983705D01*
X192274768Y-49481798D02*
X192198578Y-49443703D01*
X192198578Y-49443703D02*
X192084292Y-49443703D01*
X192084292Y-49443703D02*
X191970006Y-49481798D01*
X191970006Y-49481798D02*
X191893816Y-49557988D01*
X191893816Y-49557988D02*
X191855721Y-49634179D01*
X191855721Y-49634179D02*
X191817625Y-49786560D01*
X191817625Y-49786560D02*
X191817625Y-49900846D01*
X191817625Y-49900846D02*
X191855721Y-50053227D01*
X191855721Y-50053227D02*
X191893816Y-50129417D01*
X191893816Y-50129417D02*
X191970006Y-50205608D01*
X191970006Y-50205608D02*
X192084292Y-50243703D01*
X192084292Y-50243703D02*
X192160483Y-50243703D01*
X192160483Y-50243703D02*
X192274768Y-50205608D01*
X192274768Y-50205608D02*
X192312864Y-50167512D01*
X192312864Y-50167512D02*
X192312864Y-49900846D01*
X192312864Y-49900846D02*
X192160483Y-49900846D01*
X192655721Y-50243703D02*
X192655721Y-49443703D01*
X192655721Y-49443703D02*
X193112864Y-50243703D01*
X193112864Y-50243703D02*
X193112864Y-49443703D01*
X193493816Y-50243703D02*
X193493816Y-49443703D01*
X193493816Y-49443703D02*
X193684292Y-49443703D01*
X193684292Y-49443703D02*
X193798578Y-49481798D01*
X193798578Y-49481798D02*
X193874768Y-49557988D01*
X193874768Y-49557988D02*
X193912863Y-49634179D01*
X193912863Y-49634179D02*
X193950959Y-49786560D01*
X193950959Y-49786560D02*
X193950959Y-49900846D01*
X193950959Y-49900846D02*
X193912863Y-50053227D01*
X193912863Y-50053227D02*
X193874768Y-50129417D01*
X193874768Y-50129417D02*
X193798578Y-50205608D01*
X193798578Y-50205608D02*
X193684292Y-50243703D01*
X193684292Y-50243703D02*
X193493816Y-50243703D01*
D11*
X147348006Y-83826796D02*
X147353325Y-83522080D01*
X147083375Y-83707873D02*
X147768985Y-83719841D01*
X147768985Y-83719841D02*
X147845828Y-83683081D01*
X147845828Y-83683081D02*
X147885247Y-83607567D01*
X147885247Y-83607567D02*
X147886577Y-83531388D01*
X147858461Y-82959382D02*
X147895220Y-83036225D01*
X147895220Y-83036225D02*
X147892561Y-83188583D01*
X147892561Y-83188583D02*
X147853142Y-83264097D01*
X147853142Y-83264097D02*
X147776298Y-83300857D01*
X147776298Y-83300857D02*
X147471582Y-83295538D01*
X147471582Y-83295538D02*
X147396068Y-83256119D01*
X147396068Y-83256119D02*
X147359309Y-83179275D01*
X147359309Y-83179275D02*
X147361968Y-83026917D01*
X147361968Y-83026917D02*
X147401387Y-82951403D01*
X147401387Y-82951403D02*
X147478231Y-82914644D01*
X147478231Y-82914644D02*
X147554410Y-82915973D01*
X147554410Y-82915973D02*
X147623940Y-83298197D01*
X147369946Y-82569845D02*
X147903199Y-82579152D01*
X147446125Y-82571174D02*
X147408701Y-82532420D01*
X147408701Y-82532420D02*
X147371941Y-82455576D01*
X147371941Y-82455576D02*
X147373936Y-82341308D01*
X147373936Y-82341308D02*
X147413355Y-82265794D01*
X147413355Y-82265794D02*
X147490198Y-82229034D01*
X147490198Y-82229034D02*
X147909182Y-82236348D01*
X147380584Y-81960413D02*
X147385903Y-81655698D01*
X147115953Y-81841491D02*
X147801562Y-81853458D01*
X147801562Y-81853458D02*
X147878406Y-81816698D01*
X147878406Y-81816698D02*
X147917825Y-81741184D01*
X147917825Y-81741184D02*
X147919155Y-81665006D01*
X147923809Y-81398379D02*
X147390557Y-81389071D01*
X147123931Y-81384417D02*
X147161355Y-81423172D01*
X147161355Y-81423172D02*
X147200110Y-81385747D01*
X147200110Y-81385747D02*
X147162685Y-81346993D01*
X147162685Y-81346993D02*
X147123931Y-81384417D01*
X147123931Y-81384417D02*
X147200110Y-81385747D01*
X147397205Y-81008177D02*
X147930458Y-81017485D01*
X147473384Y-81009507D02*
X147435960Y-80970753D01*
X147435960Y-80970753D02*
X147399200Y-80893909D01*
X147399200Y-80893909D02*
X147401195Y-80779641D01*
X147401195Y-80779641D02*
X147440614Y-80704127D01*
X147440614Y-80704127D02*
X147517457Y-80667367D01*
X147517457Y-80667367D02*
X147936441Y-80674680D01*
X147415821Y-79941673D02*
X148063342Y-79952975D01*
X148063342Y-79952975D02*
X148138856Y-79992394D01*
X148138856Y-79992394D02*
X148176280Y-80031149D01*
X148176280Y-80031149D02*
X148213040Y-80107992D01*
X148213040Y-80107992D02*
X148211045Y-80222261D01*
X148211045Y-80222261D02*
X148171626Y-80297775D01*
X147910984Y-79950316D02*
X147947744Y-80027160D01*
X147947744Y-80027160D02*
X147945084Y-80179517D01*
X147945084Y-80179517D02*
X147905665Y-80255031D01*
X147905665Y-80255031D02*
X147866911Y-80292456D01*
X147866911Y-80292456D02*
X147790067Y-80329216D01*
X147790067Y-80329216D02*
X147561531Y-80325226D01*
X147561531Y-80325226D02*
X147486017Y-80285807D01*
X147486017Y-80285807D02*
X147448592Y-80247053D01*
X147448592Y-80247053D02*
X147411832Y-80170209D01*
X147411832Y-80170209D02*
X147414492Y-80017852D01*
X147414492Y-80017852D02*
X147453911Y-79942338D01*
X147523446Y-70137269D02*
X148323324Y-70151231D01*
X147561536Y-70137934D02*
X147524776Y-70061090D01*
X147524776Y-70061090D02*
X147527435Y-69908732D01*
X147527435Y-69908732D02*
X147566854Y-69833218D01*
X147566854Y-69833218D02*
X147605609Y-69795794D01*
X147605609Y-69795794D02*
X147682452Y-69759034D01*
X147682452Y-69759034D02*
X147910989Y-69763023D01*
X147910989Y-69763023D02*
X147986503Y-69802442D01*
X147986503Y-69802442D02*
X148023928Y-69841197D01*
X148023928Y-69841197D02*
X148060687Y-69918040D01*
X148060687Y-69918040D02*
X148058028Y-70070398D01*
X148058028Y-70070398D02*
X148018609Y-70145912D01*
X147542062Y-69070764D02*
X148075314Y-69080072D01*
X147536078Y-69413569D02*
X147955062Y-69420883D01*
X147955062Y-69420883D02*
X148031906Y-69384123D01*
X148031906Y-69384123D02*
X148071325Y-69308609D01*
X148071325Y-69308609D02*
X148073320Y-69194340D01*
X148073320Y-69194340D02*
X148036560Y-69117497D01*
X148036560Y-69117497D02*
X147999135Y-69078742D01*
X148049857Y-68355708D02*
X148086617Y-68432551D01*
X148086617Y-68432551D02*
X148083957Y-68584909D01*
X148083957Y-68584909D02*
X148044538Y-68660423D01*
X148044538Y-68660423D02*
X148005784Y-68697848D01*
X148005784Y-68697848D02*
X147928940Y-68734607D01*
X147928940Y-68734607D02*
X147700404Y-68730618D01*
X147700404Y-68730618D02*
X147624889Y-68691199D01*
X147624889Y-68691199D02*
X147587465Y-68652445D01*
X147587465Y-68652445D02*
X147550705Y-68575601D01*
X147550705Y-68575601D02*
X147553365Y-68423243D01*
X147553365Y-68423243D02*
X147592784Y-68347729D01*
X148093930Y-68013568D02*
X147294052Y-67999606D01*
X147790544Y-67932070D02*
X148099249Y-67708852D01*
X147565997Y-67699544D02*
X147865393Y-68009579D01*
D12*
%TO.C,MCU1*%
X188345005Y-49561411D02*
X188345006Y-48881409D01*
X188345006Y-48341409D02*
X188345008Y-47661408D01*
X188345006Y-48881409D02*
X191145005Y-48881410D01*
X188345007Y-47011408D02*
X188345008Y-46341405D01*
X188345007Y-50881407D02*
X188345007Y-50211409D01*
X188345007Y-51421408D02*
X191145005Y-51421410D01*
X188345007Y-52086408D02*
X188345007Y-51421408D01*
X188345007Y-53421408D02*
X188345007Y-52736409D01*
X188345008Y-46341405D02*
X191145007Y-46341408D01*
X191145005Y-48881410D02*
X191145008Y-50881409D01*
X191145005Y-51421410D02*
X191145006Y-53421408D01*
X191145006Y-48341407D02*
X188345006Y-48341409D01*
X191145006Y-53421408D02*
X188345007Y-53421408D01*
X191145007Y-46341408D02*
X191145006Y-48341407D01*
X191145008Y-50881409D02*
X188345007Y-50881407D01*
D13*
%TO.C,REF\u002A\u002A*%
X127594448Y-71764709D02*
G75*
G02*
X128700594Y-67632837I20266975J-3211683D01*
G01*
X128455979Y-81646797D02*
G75*
G02*
X127494708Y-77478839I19405457J6670381D01*
G01*
X141191092Y-55570903D02*
G75*
G02*
X145359051Y-54609632I6670428J-19405665D01*
G01*
X144649785Y-95243442D02*
G75*
G02*
X140517915Y-94137297I3211698J20267035D01*
G01*
X146920637Y-64222485D02*
G75*
G02*
X148049882Y-64183051I940841J-10753843D01*
G01*
X147673084Y-85769763D02*
G75*
G02*
X146545903Y-85690943I188392J10793277D01*
G01*
X148049882Y-64183051D02*
G75*
G02*
X149177063Y-64261872I-188397J-10793256D01*
G01*
X148802329Y-85730329D02*
G75*
G02*
X147673084Y-85769763I-940820J10753111D01*
G01*
X151073181Y-54709372D02*
G75*
G02*
X155205052Y-55815517I-3211698J-20267035D01*
G01*
X154531873Y-94381911D02*
G75*
G02*
X150363915Y-95343182I-6670471J19405846D01*
G01*
X167266988Y-68306019D02*
G75*
G02*
X168228259Y-72473975I-19405915J-6670484D01*
G01*
X168128518Y-78188105D02*
G75*
G02*
X167022373Y-82319975I-20266866J3211655D01*
G01*
D14*
X146017723Y-87394429D02*
X145989213Y-89027738D01*
X146806046Y-88239174D01*
X147094316Y-88247300D01*
X147382586Y-88255426D01*
X146520480Y-89100645D01*
X146400483Y-89218292D01*
X146283668Y-89332820D01*
X146171273Y-89443015D01*
X146064539Y-89547661D01*
X145964702Y-89645545D01*
X145873005Y-89735451D01*
X145790685Y-89816164D01*
X145718980Y-89886468D01*
X145659131Y-89945150D01*
X145612377Y-89990995D01*
X145579956Y-90022786D01*
X145565933Y-90036541D01*
X145473492Y-90127217D01*
X145521338Y-87385767D01*
X146017723Y-87394429D01*
G36*
X146017723Y-87394429D02*
G01*
X145989213Y-89027738D01*
X146806046Y-88239174D01*
X147094316Y-88247300D01*
X147382586Y-88255426D01*
X146520480Y-89100645D01*
X146400483Y-89218292D01*
X146283668Y-89332820D01*
X146171273Y-89443015D01*
X146064539Y-89547661D01*
X145964702Y-89645545D01*
X145873005Y-89735451D01*
X145790685Y-89816164D01*
X145718980Y-89886468D01*
X145659131Y-89945150D01*
X145612377Y-89990995D01*
X145579956Y-90022786D01*
X145565933Y-90036541D01*
X145473492Y-90127217D01*
X145521338Y-87385767D01*
X146017723Y-87394429D01*
G37*
X146788775Y-89448288D02*
X146811076Y-89471544D01*
X146844930Y-89507671D01*
X146888387Y-89554528D01*
X146939495Y-89609975D01*
X146996302Y-89671870D01*
X147056855Y-89738072D01*
X147119203Y-89806440D01*
X147181395Y-89874834D01*
X147241477Y-89941112D01*
X147297500Y-90003134D01*
X147347508Y-90058758D01*
X147389553Y-90105844D01*
X147421681Y-90142250D01*
X147441940Y-90165836D01*
X147444186Y-90168567D01*
X147471895Y-90202691D01*
X146851976Y-90191874D01*
X146681725Y-90012804D01*
X146628947Y-89957130D01*
X146579569Y-89904747D01*
X146536549Y-89858809D01*
X146502833Y-89822469D01*
X146481373Y-89798882D01*
X146478257Y-89795335D01*
X146445040Y-89756935D01*
X146608867Y-89598426D01*
X146659432Y-89549847D01*
X146704409Y-89507299D01*
X146741156Y-89473223D01*
X146767045Y-89450051D01*
X146779449Y-89440218D01*
X146779983Y-89440044D01*
X146788775Y-89448288D01*
G36*
X146788775Y-89448288D02*
G01*
X146811076Y-89471544D01*
X146844930Y-89507671D01*
X146888387Y-89554528D01*
X146939495Y-89609975D01*
X146996302Y-89671870D01*
X147056855Y-89738072D01*
X147119203Y-89806440D01*
X147181395Y-89874834D01*
X147241477Y-89941112D01*
X147297500Y-90003134D01*
X147347508Y-90058758D01*
X147389553Y-90105844D01*
X147421681Y-90142250D01*
X147441940Y-90165836D01*
X147444186Y-90168567D01*
X147471895Y-90202691D01*
X146851976Y-90191874D01*
X146681725Y-90012804D01*
X146628947Y-89957130D01*
X146579569Y-89904747D01*
X146536549Y-89858809D01*
X146502833Y-89822469D01*
X146481373Y-89798882D01*
X146478257Y-89795335D01*
X146445040Y-89756935D01*
X146608867Y-89598426D01*
X146659432Y-89549847D01*
X146704409Y-89507299D01*
X146741156Y-89473223D01*
X146767045Y-89450051D01*
X146779449Y-89440218D01*
X146779983Y-89440044D01*
X146788775Y-89448288D01*
G37*
X148213712Y-87932176D02*
X148212079Y-88036405D01*
X148210880Y-88133149D01*
X148210113Y-88220030D01*
X148209786Y-88294697D01*
X148209906Y-88354783D01*
X148210480Y-88397923D01*
X148211514Y-88421752D01*
X148212350Y-88425797D01*
X148224891Y-88419701D01*
X148250019Y-88403794D01*
X148274462Y-88387018D01*
X148390362Y-88318306D01*
X148513417Y-88271343D01*
X148644263Y-88245946D01*
X148783555Y-88241939D01*
X148801353Y-88242918D01*
X148890860Y-88251033D01*
X148967123Y-88264303D01*
X149038422Y-88285042D01*
X149113040Y-88315566D01*
X149182311Y-88349419D01*
X149308910Y-88426943D01*
X149420208Y-88520870D01*
X149515220Y-88629534D01*
X149592965Y-88751230D01*
X149652463Y-88884278D01*
X149692731Y-89026973D01*
X149712786Y-89177624D01*
X149714781Y-89267342D01*
X149701831Y-89419617D01*
X149667956Y-89563612D01*
X149612389Y-89701899D01*
X149553277Y-89807803D01*
X149465479Y-89926582D01*
X149362051Y-90029642D01*
X149245195Y-90115937D01*
X149117105Y-90184426D01*
X148979982Y-90234063D01*
X148836021Y-90263808D01*
X148687435Y-90272615D01*
X148587272Y-90266369D01*
X148443120Y-90238983D01*
X148303381Y-90190261D01*
X148171380Y-90121968D01*
X148050444Y-90035847D01*
X147943905Y-89933645D01*
X147935667Y-89924335D01*
X147856366Y-89818815D01*
X147788747Y-89699435D01*
X147735786Y-89572628D01*
X147700462Y-89444827D01*
X147692401Y-89398235D01*
X147690283Y-89369798D01*
X147688809Y-89319693D01*
X147688324Y-89278004D01*
X148184486Y-89278004D01*
X148193353Y-89375722D01*
X148222141Y-89470258D01*
X148249844Y-89524895D01*
X148315227Y-89614332D01*
X148393459Y-89686586D01*
X148481961Y-89740642D01*
X148578154Y-89775448D01*
X148679457Y-89790012D01*
X148783290Y-89783302D01*
X148856443Y-89765288D01*
X148899714Y-89749955D01*
X148940917Y-89733311D01*
X148957218Y-89725819D01*
X149003036Y-89695610D01*
X149053157Y-89650282D01*
X149102176Y-89595675D01*
X149144682Y-89537619D01*
X149166834Y-89499667D01*
X149187784Y-89455780D01*
X149201102Y-89417400D01*
X149209190Y-89375247D01*
X149214483Y-89320027D01*
X149214852Y-89314738D01*
X149213356Y-89207451D01*
X149192212Y-89109175D01*
X149150195Y-89014994D01*
X149132928Y-88986170D01*
X149069755Y-88907151D01*
X148992036Y-88843618D01*
X148903207Y-88796561D01*
X148806709Y-88766995D01*
X148705979Y-88755915D01*
X148604469Y-88764327D01*
X148505603Y-88793231D01*
X148491493Y-88799271D01*
X148402630Y-88850677D01*
X148327461Y-88917590D01*
X148267025Y-88996893D01*
X148222359Y-89085474D01*
X148194499Y-89180215D01*
X148184486Y-89278004D01*
X147688324Y-89278004D01*
X147688223Y-89269341D01*
X147687988Y-89249331D01*
X147687806Y-89160125D01*
X147688264Y-89053488D01*
X147689361Y-88930832D01*
X147691092Y-88793571D01*
X147693457Y-88643114D01*
X147693659Y-88631382D01*
X147705644Y-87939770D01*
X148222172Y-87438682D01*
X148213712Y-87932176D01*
G36*
X148213712Y-87932176D02*
G01*
X148212079Y-88036405D01*
X148210880Y-88133149D01*
X148210113Y-88220030D01*
X148209786Y-88294697D01*
X148209906Y-88354783D01*
X148210480Y-88397923D01*
X148211514Y-88421752D01*
X148212350Y-88425797D01*
X148224891Y-88419701D01*
X148250019Y-88403794D01*
X148274462Y-88387018D01*
X148390362Y-88318306D01*
X148513417Y-88271343D01*
X148644263Y-88245946D01*
X148783555Y-88241939D01*
X148801353Y-88242918D01*
X148890860Y-88251033D01*
X148967123Y-88264303D01*
X149038422Y-88285042D01*
X149113040Y-88315566D01*
X149182311Y-88349419D01*
X149308910Y-88426943D01*
X149420208Y-88520870D01*
X149515220Y-88629534D01*
X149592965Y-88751230D01*
X149652463Y-88884278D01*
X149692731Y-89026973D01*
X149712786Y-89177624D01*
X149714781Y-89267342D01*
X149701831Y-89419617D01*
X149667956Y-89563612D01*
X149612389Y-89701899D01*
X149553277Y-89807803D01*
X149465479Y-89926582D01*
X149362051Y-90029642D01*
X149245195Y-90115937D01*
X149117105Y-90184426D01*
X148979982Y-90234063D01*
X148836021Y-90263808D01*
X148687435Y-90272615D01*
X148587272Y-90266369D01*
X148443120Y-90238983D01*
X148303381Y-90190261D01*
X148171380Y-90121968D01*
X148050444Y-90035847D01*
X147943905Y-89933645D01*
X147935667Y-89924335D01*
X147856366Y-89818815D01*
X147788747Y-89699435D01*
X147735786Y-89572628D01*
X147700462Y-89444827D01*
X147692401Y-89398235D01*
X147690283Y-89369798D01*
X147688809Y-89319693D01*
X147688324Y-89278004D01*
X148184486Y-89278004D01*
X148193353Y-89375722D01*
X148222141Y-89470258D01*
X148249844Y-89524895D01*
X148315227Y-89614332D01*
X148393459Y-89686586D01*
X148481961Y-89740642D01*
X148578154Y-89775448D01*
X148679457Y-89790012D01*
X148783290Y-89783302D01*
X148856443Y-89765288D01*
X148899714Y-89749955D01*
X148940917Y-89733311D01*
X148957218Y-89725819D01*
X149003036Y-89695610D01*
X149053157Y-89650282D01*
X149102176Y-89595675D01*
X149144682Y-89537619D01*
X149166834Y-89499667D01*
X149187784Y-89455780D01*
X149201102Y-89417400D01*
X149209190Y-89375247D01*
X149214483Y-89320027D01*
X149214852Y-89314738D01*
X149213356Y-89207451D01*
X149192212Y-89109175D01*
X149150195Y-89014994D01*
X149132928Y-88986170D01*
X149069755Y-88907151D01*
X148992036Y-88843618D01*
X148903207Y-88796561D01*
X148806709Y-88766995D01*
X148705979Y-88755915D01*
X148604469Y-88764327D01*
X148505603Y-88793231D01*
X148491493Y-88799271D01*
X148402630Y-88850677D01*
X148327461Y-88917590D01*
X148267025Y-88996893D01*
X148222359Y-89085474D01*
X148194499Y-89180215D01*
X148184486Y-89278004D01*
X147688324Y-89278004D01*
X147688223Y-89269341D01*
X147687988Y-89249331D01*
X147687806Y-89160125D01*
X147688264Y-89053488D01*
X147689361Y-88930832D01*
X147691092Y-88793571D01*
X147693457Y-88643114D01*
X147693659Y-88631382D01*
X147705644Y-87939770D01*
X148222172Y-87438682D01*
X148213712Y-87932176D01*
G37*
%TD*%
D15*
%TO.C,SW16*%
X172605597Y-46874244D03*
X179105597Y-46874244D03*
%TD*%
M02*
