M48
; DRILL file {KiCad 8.0.5} date 2024-09-22T11:05:01+1000
; FORMAT={-:-/ absolute / inch / decimal}
; #@! TF.CreationDate,2024-09-22T11:05:01+10:00
; #@! TF.GenerationSoftware,Kicad,Pcbnew,8.0.5
; #@! TF.FileFunction,Plated,1,2,PTH
FMAT,2
INCH
; #@! TA.AperFunction,Plated,PTH,ViaDrill
T1C0.0157
; #@! TA.AperFunction,Plated,PTH,ComponentDrill
T2C0.0295
; #@! TA.AperFunction,Plated,PTH,ComponentDrill
T3C0.0315
; #@! TA.AperFunction,Plated,PTH,ComponentDrill
T4C0.0430
; #@! TA.AperFunction,Plated,PTH,ComponentDrill
T5C0.0500
; #@! TA.AperFunction,Plated,PTH,ComponentDrill
T6C0.0512
; #@! TA.AperFunction,Plated,PTH,ComponentDrill
T7C0.0866
%
G90
G05
T1
X7.5925Y-1.8649
X7.6532Y-1.7998
X7.6532Y-1.9638
X7.7145Y-1.7995
X7.7145Y-2.0638
T2
X7.9496Y-3.1943
X7.9496Y-3.1156
T3
X7.8649Y-3.6094
X7.8649Y-3.5109
X7.8649Y-3.7078
X7.9909Y-3.7078
X7.9909Y-3.6094
X7.9909Y-3.5109
T4
X7.3514Y-2.7638
X7.3514Y-2.2638
X7.3514Y-2.6638
X7.3514Y-1.9638
X7.3514Y-2.1638
X7.3514Y-2.3638
X7.3514Y-2.4638
X7.3514Y-2.5638
X7.3514Y-2.8638
X7.3514Y-2.0638
X7.3514Y-2.9638
X7.3514Y-1.8638
X7.9514Y-2.9638
X7.9514Y-1.8638
X7.9514Y-2.7638
X7.9514Y-1.9638
X7.9514Y-2.2638
X7.9514Y-2.3638
X7.9514Y-2.4638
X7.9514Y-2.6638
X7.9514Y-2.8638
X7.9514Y-2.1638
X7.9514Y-2.5638
X7.9514Y-2.0638
T5
X3.7599Y-3.3878
X3.9433Y-3.2785
X4.1498Y-3.333
X4.455Y-1.9163
X4.4911Y-2.6043
X4.5271Y-3.2924
X4.6472Y-1.8235
X4.6833Y-2.5115
X4.7194Y-3.1995
X4.8482Y-1.8957
X4.8842Y-2.5837
X4.9203Y-3.2718
X5.2695Y-2.3823
X5.2695Y-1.6934
X5.2695Y-3.0713
X5.4663Y-2.2997
X5.4663Y-1.6107
X5.4663Y-2.9886
X5.6632Y-2.3823
X5.6632Y-1.6934
X5.6632Y-3.0713
X5.9978Y-2.5546
X5.9978Y-3.2436
X5.9978Y-1.8656
X6.1947Y-2.4719
X6.1947Y-3.1609
X6.1947Y-1.7829
X6.3915Y-2.5546
X6.3915Y-3.2436
X6.3915Y-1.8656
X6.7262Y-2.2101
X6.7262Y-2.8991
X6.923Y-2.1274
X6.923Y-2.8164
X7.1199Y-2.2101
X7.1199Y-2.8991
X7.4447Y-3.9293
X7.658Y-3.919
X7.8147Y-4.064
T6
X6.7955Y-1.8454
X7.0514Y-1.8454
T7
X5.0714Y-2.9387
X5.8082Y-3.7017
X5.8344Y-2.2019
X6.5712Y-2.9649
M30
