%TF.GenerationSoftware,KiCad,Pcbnew,8.0.5*%
%TF.CreationDate,2024-09-22T11:05:02+10:00*%
%TF.ProjectId,pueo,7075656f-2e6b-4696-9361-645f70636258,0.1*%
%TF.SameCoordinates,Original*%
%TF.FileFunction,Profile,NP*%
%FSLAX46Y46*%
G04 Gerber Fmt 4.6, Leading zero omitted, Abs format (unit mm)*
G04 Created by KiCad (PCBNEW 8.0.5) date 2024-09-22 11:05:02*
%MOMM*%
%LPD*%
G01*
G04 APERTURE LIST*
%TA.AperFunction,Profile*%
%ADD10C,0.150000*%
%TD*%
G04 APERTURE END LIST*
D10*
X107487918Y-96785507D02*
G75*
G02*
X108057474Y-97280642I69682J-494993D01*
G01*
X94242556Y-98647021D02*
G75*
G02*
X93677853Y-98221468I-69656J495021D01*
G01*
X147345004Y-41936409D02*
X147345008Y-38811410D01*
X130345006Y-38811407D02*
X130345005Y-41936401D01*
X204586498Y-100441839D02*
G75*
G02*
X204257538Y-99971996I170902J469739D01*
G01*
X129845003Y-42436402D02*
X108557504Y-42436407D01*
X204257506Y-99971996D02*
X204257507Y-42936409D01*
X177549433Y-108692177D02*
G75*
G02*
X177250648Y-108051340I171167J469877D01*
G01*
X108057509Y-42936409D02*
X108057508Y-79103742D01*
X146845008Y-38311406D02*
G75*
G02*
X147344994Y-38811410I-8J-499994D01*
G01*
X91451062Y-82377183D02*
X93677829Y-98221471D01*
X108057508Y-79103742D02*
G75*
G02*
X107627101Y-79598927I-500108J42D01*
G01*
X91451062Y-82377183D02*
G75*
G02*
X91876621Y-81812547I495038J69583D01*
G01*
X108057509Y-42936409D02*
G75*
G02*
X108557504Y-42436409I499991J9D01*
G01*
X178595064Y-104357418D02*
X177250595Y-108051321D01*
X178125219Y-103686405D02*
G75*
G02*
X178595041Y-104357410I-19J-499995D01*
G01*
X108057506Y-97280642D02*
X108057501Y-103186408D01*
X203757502Y-42436403D02*
X147845005Y-42436407D01*
X130345005Y-41936401D02*
G75*
G02*
X129845003Y-42436405I-500005J1D01*
G01*
X202267094Y-117156574D02*
X207739412Y-102121497D01*
X130345006Y-38811407D02*
G75*
G02*
X130845004Y-38311406I499994J7D01*
G01*
X108557501Y-103686407D02*
X178125219Y-103686405D01*
X108557501Y-103686407D02*
G75*
G02*
X108057493Y-103186408I-101J499907D01*
G01*
X207440580Y-101480636D02*
G75*
G02*
X207739396Y-102121491I-171080J-469864D01*
G01*
X207440580Y-101480636D02*
X204586498Y-100441839D01*
X91876609Y-81812464D02*
X107627094Y-79598874D01*
X94242556Y-98647021D02*
X107487918Y-96785507D01*
X146845007Y-38311406D02*
X130845004Y-38311408D01*
X177549433Y-108692177D02*
X201626242Y-117455415D01*
X202267094Y-117156574D02*
G75*
G02*
X201626259Y-117455369I-469794J170974D01*
G01*
X203757502Y-42436405D02*
G75*
G02*
X204257495Y-42936404I-102J-500095D01*
G01*
X147845005Y-42436407D02*
G75*
G02*
X147344993Y-41936409I-105J499907D01*
G01*
M02*
