M48
; DRILL file {KiCad 8.0.5} date 2024-09-22T11:05:01+1000
; FORMAT={-:-/ absolute / inch / decimal}
; #@! TF.CreationDate,2024-09-22T11:05:01+10:00
; #@! TF.GenerationSoftware,Kicad,Pcbnew,8.0.5
; #@! TF.FileFunction,NonPlated,1,2,NPTH
FMAT,2
INCH
; #@! TA.AperFunction,NonPlated,NPTH,ComponentDrill
T1C0.0670
; #@! TA.AperFunction,NonPlated,NPTH,ComponentDrill
T2C0.1350
%
G90
G05
T1
X3.7612Y-3.5387
X4.1901Y-3.4784
X4.4432Y-2.0667
X4.4792Y-2.7548
X4.5153Y-3.4428
X4.8756Y-2.0441
X4.9117Y-2.7321
X4.9478Y-3.4201
X5.2498Y-2.5319
X5.2498Y-1.843
X5.2498Y-3.2209
X5.6829Y-2.5319
X5.6829Y-1.843
X5.6829Y-3.2209
X5.9781Y-2.7042
X5.9781Y-3.3932
X5.9781Y-2.0152
X6.4112Y-2.7042
X6.4112Y-3.3932
X6.4112Y-2.0152
X6.7065Y-2.3597
X6.7065Y-3.0487
X7.1396Y-2.3597
X7.1396Y-3.0487
X7.3751Y-4.0632
X7.782Y-4.2113
T2
X3.9757Y-3.5085
X4.6594Y-2.0554
X4.6955Y-2.7434
X4.7315Y-3.4315
X5.4663Y-2.5319
X5.4663Y-1.843
X5.4663Y-3.2209
X6.1947Y-2.7042
X6.1947Y-3.3932
X6.1947Y-2.0152
X6.923Y-2.3597
X6.923Y-3.0487
X7.5785Y-4.1373
M30
