%TF.GenerationSoftware,KiCad,Pcbnew,8.0.5*%
%TF.CreationDate,2024-09-22T11:05:02+10:00*%
%TF.ProjectId,pueo,7075656f-2e6b-4696-9361-645f70636258,0.1*%
%TF.SameCoordinates,Original*%
%TF.FileFunction,Soldermask,Bot*%
%TF.FilePolarity,Negative*%
%FSLAX46Y46*%
G04 Gerber Fmt 4.6, Leading zero omitted, Abs format (unit mm)*
G04 Created by KiCad (PCBNEW 8.0.5) date 2024-09-22 11:05:02*
%MOMM*%
%LPD*%
G01*
G04 APERTURE LIST*
G04 Aperture macros list*
%AMRoundRect*
0 Rectangle with rounded corners*
0 $1 Rounding radius*
0 $2 $3 $4 $5 $6 $7 $8 $9 X,Y pos of 4 corners*
0 Add a 4 corners polygon primitive as box body*
4,1,4,$2,$3,$4,$5,$6,$7,$8,$9,$2,$3,0*
0 Add four circle primitives for the rounded corners*
1,1,$1+$1,$2,$3*
1,1,$1+$1,$4,$5*
1,1,$1+$1,$6,$7*
1,1,$1+$1,$8,$9*
0 Add four rect primitives between the rounded corners*
20,1,$1+$1,$2,$3,$4,$5,0*
20,1,$1+$1,$4,$5,$6,$7,0*
20,1,$1+$1,$6,$7,$8,$9,0*
20,1,$1+$1,$8,$9,$2,$3,0*%
%AMFreePoly0*
4,1,16,0.685355,0.785355,0.700000,0.750000,0.691603,0.722265,0.210093,0.000000,0.691603,-0.722265,0.699029,-0.759806,0.677735,-0.791603,0.650000,-0.800000,-0.500000,-0.800000,-0.535355,-0.785355,-0.550000,-0.750000,-0.550000,0.750000,-0.535355,0.785355,-0.500000,0.800000,0.650000,0.800000,0.685355,0.785355,0.685355,0.785355,$1*%
%AMFreePoly1*
4,1,16,0.535355,0.785355,0.550000,0.750000,0.550000,-0.750000,0.535355,-0.785355,0.500000,-0.800000,-0.500000,-0.800000,-0.535355,-0.785355,-0.541603,-0.777735,-1.041603,-0.027735,-1.049029,0.009806,-1.041603,0.027735,-0.541603,0.777735,-0.509806,0.799029,-0.500000,0.800000,0.500000,0.800000,0.535355,0.785355,0.535355,0.785355,$1*%
G04 Aperture macros list end*
%ADD10C,1.801800*%
%ADD11C,3.529000*%
%ADD12C,2.132000*%
%ADD13RoundRect,0.050000X-0.762000X0.250000X-0.762000X-0.250000X0.762000X-0.250000X0.762000X0.250000X0*%
%ADD14FreePoly0,180.000000*%
%ADD15C,1.852600*%
%ADD16FreePoly1,180.000000*%
%ADD17C,4.500000*%
%ADD18RoundRect,0.270833X-0.654167X0.379167X-0.654167X-0.379167X0.654167X-0.379167X0.654167X0.379167X0*%
%ADD19O,1.850000X1.300000*%
%ADD20C,2.100000*%
%ADD21RoundRect,0.050000X-0.800000X0.800000X-0.800000X-0.800000X0.800000X-0.800000X0.800000X0.800000X0*%
%ADD22C,1.700000*%
G04 APERTURE END LIST*
D10*
%TO.C,S13*%
X187326695Y-103205295D03*
D11*
X192495004Y-105086406D03*
D10*
X197663313Y-106967517D03*
D12*
X189096217Y-99805473D03*
X198493144Y-103225675D03*
X194512923Y-99542220D03*
%TD*%
D10*
%TO.C,S5*%
X133345007Y-81811405D03*
D11*
X138845007Y-81811405D03*
D10*
X144345007Y-81811405D03*
D12*
X133845007Y-78011405D03*
X143845007Y-78011405D03*
X138845007Y-75911405D03*
%TD*%
D10*
%TO.C,S9*%
X151845001Y-68686408D03*
D11*
X157345001Y-68686408D03*
D10*
X162845001Y-68686408D03*
D12*
X152345001Y-64886408D03*
X162345001Y-64886408D03*
X157345001Y-62786408D03*
%TD*%
D10*
%TO.C,S3*%
X113772297Y-69971421D03*
D11*
X119264759Y-69683573D03*
D10*
X124757221Y-69395725D03*
D12*
X114072735Y-66150461D03*
X124059030Y-65627101D03*
X118955977Y-63791659D03*
%TD*%
D10*
%TO.C,S2*%
X114688178Y-87447440D03*
D11*
X120180640Y-87159592D03*
D10*
X125673102Y-86871744D03*
D12*
X114988616Y-83626480D03*
X124974911Y-83103120D03*
X119871858Y-81267678D03*
%TD*%
D13*
%TO.C,MCU1*%
X200620007Y-47341408D03*
D14*
X199670008Y-47341410D03*
D15*
X186725014Y-47341410D03*
X201965003Y-47341412D03*
D14*
X199670007Y-49881408D03*
D15*
X186725007Y-49881409D03*
X201965007Y-49881410D03*
D13*
X200620008Y-49881411D03*
D15*
X186725008Y-52421408D03*
X201965009Y-52421409D03*
D13*
X200620007Y-52421409D03*
D14*
X199670005Y-52421410D03*
D15*
X201965008Y-54961411D03*
X186725007Y-54961411D03*
D16*
X198220007Y-47341409D03*
X198220008Y-49881407D03*
X198220007Y-52421409D03*
D15*
X201965007Y-57501409D03*
X201965007Y-60041408D03*
X201965007Y-62581410D03*
X201965008Y-65121410D03*
X201965007Y-67661407D03*
X201965006Y-70201410D03*
X201965007Y-72741409D03*
X201965000Y-75281408D03*
X186725006Y-57501408D03*
X186725007Y-60041408D03*
X186725007Y-62581410D03*
X186725007Y-65121409D03*
X186725006Y-67661407D03*
X186725005Y-70201409D03*
X186725007Y-72741408D03*
X186725011Y-75281406D03*
%TD*%
D10*
%TO.C,S1*%
X95535255Y-89881810D03*
D11*
X100981722Y-89116358D03*
D10*
X106428189Y-88350906D03*
D12*
X95501524Y-86049201D03*
X105404205Y-84657474D03*
X100160601Y-83273776D03*
%TD*%
D17*
%TO.C,REF\u002A\u002A*%
X128814384Y-74643939D03*
X148193951Y-55929308D03*
X147529015Y-94023506D03*
X166908582Y-75308875D03*
%TD*%
D10*
%TO.C,S10*%
X151845007Y-51186409D03*
D11*
X157345007Y-51186409D03*
D10*
X162845007Y-51186409D03*
D12*
X152345007Y-47386409D03*
X162345007Y-47386409D03*
X157345007Y-45286409D03*
%TD*%
D10*
%TO.C,S4*%
X112856418Y-52495402D03*
D11*
X118348880Y-52207554D03*
D10*
X123841342Y-51919706D03*
D12*
X113156856Y-48674442D03*
X123143151Y-48151082D03*
X118040098Y-46315640D03*
%TD*%
D18*
%TO.C,J6*%
X201919596Y-79136247D03*
D19*
X201919593Y-81136247D03*
%TD*%
D20*
%TO.C,SW16*%
X172605597Y-46874244D03*
X179105597Y-46874244D03*
%TD*%
D10*
%TO.C,S8*%
X151845003Y-86186403D03*
D11*
X157345003Y-86186403D03*
D10*
X162845003Y-86186403D03*
D12*
X152345003Y-82386403D03*
X162345003Y-82386403D03*
X157345003Y-80286403D03*
%TD*%
D10*
%TO.C,S12*%
X170345001Y-59936406D03*
D11*
X175845001Y-59936406D03*
D10*
X181345001Y-59936406D03*
D12*
X170845001Y-56136406D03*
X180845001Y-56136406D03*
X175845001Y-54036406D03*
%TD*%
D10*
%TO.C,S11*%
X170345005Y-77436403D03*
D11*
X175845005Y-77436403D03*
D10*
X181345005Y-77436403D03*
D12*
X170845005Y-73636403D03*
X180845005Y-73636403D03*
X175845005Y-71536403D03*
%TD*%
D10*
%TO.C,S6*%
X133345003Y-64311406D03*
D11*
X138845003Y-64311406D03*
D10*
X144345003Y-64311406D03*
D12*
X133845003Y-60511406D03*
X143845003Y-60511406D03*
X138845003Y-58411406D03*
%TD*%
D10*
%TO.C,S7*%
X133345005Y-46811406D03*
D11*
X138845005Y-46811406D03*
D10*
X144345005Y-46811406D03*
D12*
X133845005Y-43011406D03*
X143845005Y-43011406D03*
X138845005Y-40911406D03*
%TD*%
D21*
%TO.C,on/off*%
X199768600Y-89177738D03*
D22*
X199768593Y-91677739D03*
X199768608Y-94177738D03*
X202968610Y-89177730D03*
X202968605Y-91677738D03*
X202968594Y-94177737D03*
%TD*%
M02*
