0
SECTION
2
HEADER
9
$INSUNITS
70
4
0
ENDSEC
0
SECTION
2
TABLES
0
TABLE
2
LTYPE
0
LTYPE
72
65
70
64
2
CONTINUOUS
3
______
73
0
40
0
0
ENDTAB
0
TABLE
2
LAYER
0
ENDTAB
0
ENDSEC
0
SECTION
2
ENTITIES
0
LINE
8
0
10
117.9667664
20
-82.3676943
11
189.5906568
21
-82.3676943
0
LINE
8
0
10
216.2667664
20
-78.9871119
11
216.2667664
21
-16.3676943
0
LINE
8
0
10
215.7667664
20
-15.8676943
11
157.8167664
21
-15.8676943
0
LINE
8
0
10
139.8167664
20
-15.8676943
11
117.9667664
21
-15.8676943
0
LINE
8
0
10
117.4667664
20
-16.3676943
11
117.4667664
21
-56.2689783
0
LINE
8
0
10
117.4667664
20
-74.4458745
11
117.4667664
21
-81.8676943
0
ARC
8
0
10
215.7667664
20
-16.3676943
40
0.5
50
0
51
90
0
ARC
8
0
10
117.9667664
20
-16.3676943
40
0.5
50
90
51
180
0
ARC
8
0
10
117.9667664
20
-81.8676943
40
0.5
50
180
51
270
0
LINE
8
0
10
103.5606549
20
-75.8250669
11
116.8971799
21
-73.9507405
0
LINE
8
0
10
101.1947122
20
-58.9905098
11
117.0363529
21
-56.7641123
0
LINE
8
0
10
100.7691647
20
-59.5552303
11
102.9959344
21
-75.3995194
0
LINE
8
0
10
157.3167664
20
-15.3676943
11
157.3167664
21
-12.6176943
0
LINE
8
0
10
156.8167664
20
-12.1176943
11
140.8167664
21
-12.1176943
0
LINE
8
0
10
140.3167664
20
-12.6176943
11
140.3167664
21
-15.3676943
0
LINE
8
0
10
188.971193
20
-87.4934615
11
213.0479974
21
-96.2567016
0
LINE
8
0
10
213.6888538
20
-95.9578654
11
219.161176
21
-80.9227835
0
LINE
8
0
10
218.8623398
20
-80.2819271
11
216.5957563
21
-79.4569582
0
LINE
8
0
10
190.0605031
20
-83.0387044
11
188.6723568
21
-86.8526051
0
ARC
8
0
10
189.5906568
20
-82.8676943
40
0.5
50
340.0000019
51
90
0
ARC
8
0
10
189.1422031
20
-87.0236152
40
0.5
50
160.0000019
51
250.0000019
0
ARC
8
0
10
213.2190075
20
-95.7868553
40
0.5
50
250.0000019
51
340.0000019
0
ARC
8
0
10
218.6913297
20
-80.7517734
40
0.5
50
340.0000019
51
70.0000019
0
ARC
8
0
10
216.7667664
20
-78.9871119
40
0.5
50
180
51
250.0000019
0
ARC
8
0
10
157.8167664
20
-15.3676943
40
0.5
50
180
51
270
0
ARC
8
0
10
156.8167664
20
-12.6176943
40
0.5
50
0
51
90
0
ARC
8
0
10
140.8167664
20
-12.6176943
40
0.5
50
90
51
180
0
ARC
8
0
10
139.8167664
20
-15.3676943
40
0.5
50
270
51
0
0
ARC
8
0
10
116.9667664
20
-56.2689783
40
0.5
50
277.9999997
51
0
0
ARC
8
0
10
101.2642988
20
-59.4856438
40
0.5
50
97.9999997
51
187.9999997
0
ARC
8
0
10
103.4910684
20
-75.3299328
40
0.5
50
187.9999997
51
277.9999997
0
ARC
8
0
10
116.9667664
20
-74.4458745
40
0.5
50
0
51
97.9999997
0
LINE
8
0
10
104.3421633
20
-74.2004917
11
118.2059163
21
-72.2520683
0
LINE
8
0
10
118.2059163
20
-72.2520683
11
116.2574929
21
-58.3883153
0
LINE
8
0
10
116.2574929
20
-58.3883153
11
102.3937399
21
-60.3367387
0
LINE
8
0
10
102.3937399
20
-60.3367387
11
104.3421633
21
-74.2004917
0
LINE
8
0
10
122.9439865
20
-71.7260308
11
136.9247999
21
-70.9933274
0
LINE
8
0
10
136.9247999
20
-70.9933274
11
136.1920965
21
-57.012514
0
LINE
8
0
10
136.1920965
20
-57.012514
11
122.2112831
21
-57.7452174
0
LINE
8
0
10
122.2112831
20
-57.7452174
11
122.9439865
21
-71.7260308
0
LINE
8
0
10
121.9496033
20
-52.7520696
11
135.9304167
21
-52.0193662
0
LINE
8
0
10
135.9304167
20
-52.0193662
11
135.1977133
21
-38.0385528
0
LINE
8
0
10
135.1977133
20
-38.0385528
11
121.2168999
21
-38.7712562
0
LINE
8
0
10
121.2168999
20
-38.7712562
11
121.9496033
21
-52.7520696
0
LINE
8
0
10
120.9552201
20
-33.7781084
11
134.9360335
21
-33.045405
0
LINE
8
0
10
134.9360335
20
-33.045405
11
134.2033301
21
-19.0645916
0
LINE
8
0
10
134.2033301
20
-19.0645916
11
120.2225167
21
-19.797295
0
LINE
8
0
10
120.2225167
20
-19.797295
11
120.9552201
21
-33.7781084
0
LINE
8
0
10
141.8167664
20
-65.6176943
11
155.8167664
21
-65.6176943
0
LINE
8
0
10
155.8167664
20
-65.6176943
11
155.8167664
21
-51.6176943
0
LINE
8
0
10
155.8167664
20
-51.6176943
11
141.8167664
21
-51.6176943
0
LINE
8
0
10
141.8167664
20
-51.6176943
11
141.8167664
21
-65.6176943
0
LINE
8
0
10
141.8167664
20
-46.6176943
11
155.8167664
21
-46.6176943
0
LINE
8
0
10
155.8167664
20
-46.6176943
11
155.8167664
21
-32.6176943
0
LINE
8
0
10
155.8167664
20
-32.6176943
11
141.8167664
21
-32.6176943
0
LINE
8
0
10
141.8167664
20
-32.6176943
11
141.8167664
21
-46.6176943
0
LINE
8
0
10
141.8167664
20
-27.6176943
11
155.8167664
21
-27.6176943
0
LINE
8
0
10
155.8167664
20
-27.6176943
11
155.8167664
21
-13.6176943
0
LINE
8
0
10
155.8167664
20
-13.6176943
11
141.8167664
21
-13.6176943
0
LINE
8
0
10
141.8167664
20
-13.6176943
11
141.8167664
21
-27.6176943
0
LINE
8
0
10
160.8167664
20
-70.3676943
11
174.8167664
21
-70.3676943
0
LINE
8
0
10
174.8167664
20
-70.3676943
11
174.8167664
21
-56.3676943
0
LINE
8
0
10
174.8167664
20
-56.3676943
11
160.8167664
21
-56.3676943
0
LINE
8
0
10
160.8167664
20
-56.3676943
11
160.8167664
21
-70.3676943
0
LINE
8
0
10
160.8167664
20
-51.3676943
11
174.8167664
21
-51.3676943
0
LINE
8
0
10
174.8167664
20
-51.3676943
11
174.8167664
21
-37.3676943
0
LINE
8
0
10
174.8167664
20
-37.3676943
11
160.8167664
21
-37.3676943
0
LINE
8
0
10
160.8167664
20
-37.3676943
11
160.8167664
21
-51.3676943
0
LINE
8
0
10
160.8167664
20
-32.3676943
11
174.8167664
21
-32.3676943
0
LINE
8
0
10
174.8167664
20
-32.3676943
11
174.8167664
21
-18.3676943
0
LINE
8
0
10
174.8167664
20
-18.3676943
11
160.8167664
21
-18.3676943
0
LINE
8
0
10
160.8167664
20
-18.3676943
11
160.8167664
21
-32.3676943
0
LINE
8
0
10
179.8167664
20
-60.8676943
11
193.8167664
21
-60.8676943
0
LINE
8
0
10
193.8167664
20
-60.8676943
11
193.8167664
21
-46.8676943
0
LINE
8
0
10
193.8167664
20
-46.8676943
11
179.8167664
21
-46.8676943
0
LINE
8
0
10
179.8167664
20
-46.8676943
11
179.8167664
21
-60.8676943
0
LINE
8
0
10
179.8167664
20
-41.8676943
11
193.8167664
21
-41.8676943
0
LINE
8
0
10
193.8167664
20
-41.8676943
11
193.8167664
21
-27.8676943
0
LINE
8
0
10
193.8167664
20
-27.8676943
11
179.8167664
21
-27.8676943
0
LINE
8
0
10
179.8167664
20
-27.8676943
11
179.8167664
21
-41.8676943
0
LINE
8
0
10
194.9447771
20
-88.0714016
11
208.1004737
21
-92.8596836
0
LINE
8
0
10
208.1004737
20
-92.8596836
11
212.8887557
21
-79.703987
0
LINE
8
0
10
212.8887557
20
-79.703987
11
199.7330591
21
-74.915705
0
LINE
8
0
10
199.7330591
20
-74.915705
11
194.9447771
21
-88.0714016
0
LINE
8
0
10
196.6667664
20
-20.1676943
11
196.6667664
21
-54.2676943
0
LINE
8
0
10
196.6667664
20
-54.2676943
11
214.9667664
21
-54.2676943
0
LINE
8
0
10
214.9667664
20
-54.2676943
11
214.9667664
21
-20.1676943
0
LINE
8
0
10
214.9667664
20
-20.1676943
11
196.6667664
21
-20.1676943
0
CIRCLE
8
0
10
138.3644741
20
-25.7223093
40
1
0
CIRCLE
8
0
10
122.3279774
20
-77.6510452
40
1
0
CIRCLE
8
0
10
211.8167664
20
-72.8676943
40
1
0
CIRCLE
8
0
10
194.4167664
20
-20.8676943
40
1
0
ENDSEC
0
EOF