0
SECTION
2
HEADER
9
$INSUNITS
70
4
0
ENDSEC
0
SECTION
2
TABLES
0
TABLE
2
LTYPE
0
LTYPE
72
65
70
64
2
CONTINUOUS
3
______
73
0
40
0
0
ENDTAB
0
TABLE
2
LAYER
0
ENDTAB
0
ENDSEC
0
SECTION
2
ENTITIES
0
LINE
8
0
10
117.9667664
20
-82.3676943
11
189.5906568
21
-82.3676943
0
LINE
8
0
10
216.2667664
20
-78.9871119
11
216.2667664
21
-16.3676943
0
LINE
8
0
10
215.7667664
20
-15.8676943
11
157.8167664
21
-15.8676943
0
LINE
8
0
10
139.8167664
20
-15.8676943
11
117.9667664
21
-15.8676943
0
LINE
8
0
10
117.4667664
20
-16.3676943
11
117.4667664
21
-56.2689783
0
LINE
8
0
10
117.4667664
20
-74.4458745
11
117.4667664
21
-81.8676943
0
ARC
8
0
10
215.7667664
20
-16.3676943
40
0.5
50
0
51
90
0
ARC
8
0
10
117.9667664
20
-16.3676943
40
0.5
50
90
51
180
0
ARC
8
0
10
117.9667664
20
-81.8676943
40
0.5
50
180
51
270
0
LINE
8
0
10
103.5606549
20
-75.8250669
11
116.8971799
21
-73.9507405
0
LINE
8
0
10
101.1947122
20
-58.9905098
11
117.0363529
21
-56.7641123
0
LINE
8
0
10
100.7691647
20
-59.5552303
11
102.9959344
21
-75.3995194
0
LINE
8
0
10
157.3167664
20
-15.3676943
11
157.3167664
21
-12.6176943
0
LINE
8
0
10
156.8167664
20
-12.1176943
11
140.8167664
21
-12.1176943
0
LINE
8
0
10
140.3167664
20
-12.6176943
11
140.3167664
21
-15.3676943
0
LINE
8
0
10
188.971193
20
-87.4934615
11
213.0479974
21
-96.2567016
0
LINE
8
0
10
213.6888538
20
-95.9578654
11
219.161176
21
-80.9227835
0
LINE
8
0
10
218.8623398
20
-80.2819271
11
216.5957563
21
-79.4569582
0
LINE
8
0
10
190.0605031
20
-83.0387044
11
188.6723568
21
-86.8526051
0
ARC
8
0
10
189.5906568
20
-82.8676943
40
0.5
50
340.0000019
51
90
0
ARC
8
0
10
189.1422031
20
-87.0236152
40
0.5
50
160.0000019
51
250.0000019
0
ARC
8
0
10
213.2190075
20
-95.7868553
40
0.5
50
250.0000019
51
340.0000019
0
ARC
8
0
10
218.6913297
20
-80.7517734
40
0.5
50
340.0000019
51
70.0000019
0
ARC
8
0
10
216.7667664
20
-78.9871119
40
0.5
50
180
51
250.0000019
0
ARC
8
0
10
157.8167664
20
-15.3676943
40
0.5
50
180
51
270
0
ARC
8
0
10
156.8167664
20
-12.6176943
40
0.5
50
0
51
90
0
ARC
8
0
10
140.8167664
20
-12.6176943
40
0.5
50
90
51
180
0
ARC
8
0
10
139.8167664
20
-15.3676943
40
0.5
50
270
51
0
0
ARC
8
0
10
116.9667664
20
-56.2689783
40
0.5
50
277.9999997
51
0
0
ARC
8
0
10
101.2642988
20
-59.4856438
40
0.5
50
97.9999997
51
187.9999997
0
ARC
8
0
10
103.4910684
20
-75.3299328
40
0.5
50
187.9999997
51
277.9999997
0
ARC
8
0
10
116.9667664
20
-74.4458745
40
0.5
50
0
51
97.9999997
0
LINE
8
0
10
102.6399734
20
-76.459374
11
120.4647986
21
-73.9542582
0
LINE
8
0
10
120.4647986
20
-73.9542582
11
117.9596828
21
-56.129433
0
LINE
8
0
10
117.9596828
20
-56.129433
11
100.1348576
21
-58.6345488
0
LINE
8
0
10
100.1348576
20
-58.6345488
11
102.6399734
21
-76.459374
0
LINE
8
0
10
121.0513993
20
-73.8279618
11
139.0267309
21
-72.8859146
0
LINE
8
0
10
139.0267309
20
-72.8859146
11
138.0846837
21
-54.910583
0
LINE
8
0
10
138.0846837
20
-54.910583
11
120.1093521
21
-55.8526302
0
LINE
8
0
10
120.1093521
20
-55.8526302
11
121.0513993
21
-73.8279618
0
LINE
8
0
10
120.0570161
20
-54.8540006
11
138.0323477
21
-53.9119534
0
LINE
8
0
10
138.0323477
20
-53.9119534
11
137.0903005
21
-35.9366218
0
LINE
8
0
10
137.0903005
20
-35.9366218
11
119.1149689
21
-36.878669
0
LINE
8
0
10
119.1149689
20
-36.878669
11
120.0570161
21
-54.8540006
0
LINE
8
0
10
119.0626329
20
-35.8800394
11
137.0379645
21
-34.9379922
0
LINE
8
0
10
137.0379645
20
-34.9379922
11
136.0959173
21
-16.9626606
0
LINE
8
0
10
136.0959173
20
-16.9626606
11
118.1205857
21
-17.9047078
0
LINE
8
0
10
118.1205857
20
-17.9047078
11
119.0626329
21
-35.8800394
0
LINE
8
0
10
139.8167664
20
-67.6176943
11
157.8167664
21
-67.6176943
0
LINE
8
0
10
157.8167664
20
-67.6176943
11
157.8167664
21
-49.6176943
0
LINE
8
0
10
157.8167664
20
-49.6176943
11
139.8167664
21
-49.6176943
0
LINE
8
0
10
139.8167664
20
-49.6176943
11
139.8167664
21
-67.6176943
0
LINE
8
0
10
139.8167664
20
-48.6176943
11
157.8167664
21
-48.6176943
0
LINE
8
0
10
157.8167664
20
-48.6176943
11
157.8167664
21
-30.6176943
0
LINE
8
0
10
157.8167664
20
-30.6176943
11
139.8167664
21
-30.6176943
0
LINE
8
0
10
139.8167664
20
-30.6176943
11
139.8167664
21
-48.6176943
0
LINE
8
0
10
139.8167664
20
-29.6176943
11
157.8167664
21
-29.6176943
0
LINE
8
0
10
157.8167664
20
-29.6176943
11
157.8167664
21
-11.6176943
0
LINE
8
0
10
157.8167664
20
-11.6176943
11
139.8167664
21
-11.6176943
0
LINE
8
0
10
139.8167664
20
-11.6176943
11
139.8167664
21
-29.6176943
0
LINE
8
0
10
158.8167664
20
-72.3676943
11
176.8167664
21
-72.3676943
0
LINE
8
0
10
176.8167664
20
-72.3676943
11
176.8167664
21
-54.3676943
0
LINE
8
0
10
176.8167664
20
-54.3676943
11
158.8167664
21
-54.3676943
0
LINE
8
0
10
158.8167664
20
-54.3676943
11
158.8167664
21
-72.3676943
0
LINE
8
0
10
158.8167664
20
-53.3676943
11
176.8167664
21
-53.3676943
0
LINE
8
0
10
176.8167664
20
-53.3676943
11
176.8167664
21
-35.3676943
0
LINE
8
0
10
176.8167664
20
-35.3676943
11
158.8167664
21
-35.3676943
0
LINE
8
0
10
158.8167664
20
-35.3676943
11
158.8167664
21
-53.3676943
0
LINE
8
0
10
158.8167664
20
-34.3676943
11
176.8167664
21
-34.3676943
0
LINE
8
0
10
176.8167664
20
-34.3676943
11
176.8167664
21
-16.3676943
0
LINE
8
0
10
176.8167664
20
-16.3676943
11
158.8167664
21
-16.3676943
0
LINE
8
0
10
158.8167664
20
-16.3676943
11
158.8167664
21
-34.3676943
0
LINE
8
0
10
177.8167664
20
-62.8676943
11
195.8167664
21
-62.8676943
0
LINE
8
0
10
195.8167664
20
-62.8676943
11
195.8167664
21
-44.8676943
0
LINE
8
0
10
195.8167664
20
-44.8676943
11
177.8167664
21
-44.8676943
0
LINE
8
0
10
177.8167664
20
-44.8676943
11
177.8167664
21
-62.8676943
0
LINE
8
0
10
177.8167664
20
-43.8676943
11
195.8167664
21
-43.8676943
0
LINE
8
0
10
195.8167664
20
-43.8676943
11
195.8167664
21
-25.8676943
0
LINE
8
0
10
195.8167664
20
-25.8676943
11
177.8167664
21
-25.8676943
0
LINE
8
0
10
177.8167664
20
-25.8676943
11
177.8167664
21
-43.8676943
0
LINE
8
0
10
188.1527347
20
-87.727656
11
213.5244355
21
-96.9621998
0
LINE
8
0
10
213.5244355
20
-96.9621998
11
219.6807981
21
-80.0477326
0
LINE
8
0
10
219.6807981
20
-80.0477326
11
194.3090973
21
-70.8131888
0
LINE
8
0
10
194.3090973
20
-70.8131888
11
188.1527347
21
-87.727656
0
LINE
8
0
10
196.6667664
20
-20.1676943
11
196.6667664
21
-54.2676943
0
LINE
8
0
10
196.6667664
20
-54.2676943
11
214.9667664
21
-54.2676943
0
LINE
8
0
10
214.9667664
20
-54.2676943
11
214.9667664
21
-20.1676943
0
LINE
8
0
10
214.9667664
20
-20.1676943
11
196.6667664
21
-20.1676943
0
CIRCLE
8
0
10
138.3644741
20
-25.7223093
40
1
0
CIRCLE
8
0
10
122.3279774
20
-77.6510452
40
1
0
CIRCLE
8
0
10
211.8167664
20
-72.8676943
40
1
0
CIRCLE
8
0
10
194.4167664
20
-20.8676943
40
1
0
ENDSEC
0
EOF