0
SECTION
2
HEADER
9
$INSUNITS
70
4
0
ENDSEC
0
SECTION
2
TABLES
0
TABLE
2
LTYPE
0
LTYPE
72
65
70
64
2
CONTINUOUS
3
______
73
0
40
0
0
ENDTAB
0
TABLE
2
LAYER
0
ENDTAB
0
ENDSEC
0
SECTION
2
ENTITIES
0
LINE
8
0
10
117.9667664
20
-82.3676943
11
189.5906568
21
-82.3676943
0
LINE
8
0
10
216.2667664
20
-78.9871119
11
216.2667664
21
-16.3676943
0
LINE
8
0
10
215.7667664
20
-15.8676943
11
157.8167664
21
-15.8676943
0
LINE
8
0
10
139.8167664
20
-15.8676943
11
117.9667664
21
-15.8676943
0
LINE
8
0
10
117.4667664
20
-16.3676943
11
117.4667664
21
-56.2689783
0
LINE
8
0
10
117.4667664
20
-74.4458745
11
117.4667664
21
-81.8676943
0
ARC
8
0
10
215.7667664
20
-16.3676943
40
0.5
50
0
51
90
0
ARC
8
0
10
117.9667664
20
-16.3676943
40
0.5
50
90
51
180
0
ARC
8
0
10
117.9667664
20
-81.8676943
40
0.5
50
180
51
270
0
LINE
8
0
10
103.5606549
20
-75.8250669
11
116.8971799
21
-73.9507405
0
LINE
8
0
10
101.1947122
20
-58.9905098
11
117.0363529
21
-56.7641123
0
LINE
8
0
10
100.7691647
20
-59.5552303
11
102.9959344
21
-75.3995194
0
LINE
8
0
10
157.3167664
20
-15.3676943
11
157.3167664
21
-12.6176943
0
LINE
8
0
10
156.8167664
20
-12.1176943
11
140.8167664
21
-12.1176943
0
LINE
8
0
10
140.3167664
20
-12.6176943
11
140.3167664
21
-15.3676943
0
LINE
8
0
10
188.971193
20
-87.4934615
11
213.0479974
21
-96.2567016
0
LINE
8
0
10
213.6888538
20
-95.9578654
11
219.161176
21
-80.9227835
0
LINE
8
0
10
218.8623398
20
-80.2819271
11
216.5957563
21
-79.4569582
0
LINE
8
0
10
190.0605031
20
-83.0387044
11
188.6723568
21
-86.8526051
0
ARC
8
0
10
189.5906568
20
-82.8676943
40
0.5
50
340.0000019
51
90
0
ARC
8
0
10
189.1422031
20
-87.0236152
40
0.5
50
160.0000019
51
250.0000019
0
ARC
8
0
10
213.2190075
20
-95.7868553
40
0.5
50
250.0000019
51
340.0000019
0
ARC
8
0
10
218.6913297
20
-80.7517734
40
0.5
50
340.0000019
51
70.0000019
0
ARC
8
0
10
216.7667664
20
-78.9871119
40
0.5
50
180
51
250.0000019
0
ARC
8
0
10
157.8167664
20
-15.3676943
40
0.5
50
180
51
270
0
ARC
8
0
10
156.8167664
20
-12.6176943
40
0.5
50
0
51
90
0
ARC
8
0
10
140.8167664
20
-12.6176943
40
0.5
50
90
51
180
0
ARC
8
0
10
139.8167664
20
-15.3676943
40
0.5
50
270
51
0
0
ARC
8
0
10
116.9667664
20
-56.2689783
40
0.5
50
277.9999997
51
0
0
ARC
8
0
10
101.2642988
20
-59.4856438
40
0.5
50
97.9999997
51
187.9999997
0
ARC
8
0
10
103.4910684
20
-75.3299328
40
0.5
50
187.9999997
51
277.9999997
0
ARC
8
0
10
116.9667664
20
-74.4458745
40
0.5
50
0
51
97.9999997
0
ENDSEC
0
EOF