0
SECTION
2
HEADER
9
$INSUNITS
70
4
0
ENDSEC
0
SECTION
2
TABLES
0
TABLE
2
LTYPE
0
LTYPE
72
65
70
64
2
CONTINUOUS
3
______
73
0
40
0
0
ENDTAB
0
TABLE
2
LAYER
0
ENDTAB
0
ENDSEC
0
SECTION
2
ENTITIES
0
LINE
8
0
10
117.9667664
20
-82.3676943
11
189.5906568
21
-82.3676943
0
LINE
8
0
10
216.2667664
20
-78.9871119
11
216.2667664
21
-16.3676943
0
LINE
8
0
10
215.7667664
20
-15.8676943
11
157.8167664
21
-15.8676943
0
LINE
8
0
10
139.8167664
20
-15.8676943
11
117.9667664
21
-15.8676943
0
LINE
8
0
10
117.4667664
20
-16.3676943
11
117.4667664
21
-56.2689783
0
LINE
8
0
10
117.4667664
20
-74.4458745
11
117.4667664
21
-81.8676943
0
ARC
8
0
10
215.7667664
20
-16.3676943
40
0.5
50
0
51
90
0
ARC
8
0
10
117.9667664
20
-16.3676943
40
0.5
50
90
51
180
0
ARC
8
0
10
117.9667664
20
-81.8676943
40
0.5
50
180
51
270
0
LINE
8
0
10
103.5606549
20
-75.8250669
11
116.8971799
21
-73.9507405
0
LINE
8
0
10
101.1947122
20
-58.9905098
11
117.0363529
21
-56.7641123
0
LINE
8
0
10
100.7691647
20
-59.5552303
11
102.9959344
21
-75.3995194
0
LINE
8
0
10
157.3167664
20
-15.3676943
11
157.3167664
21
-12.6176943
0
LINE
8
0
10
156.8167664
20
-12.1176943
11
140.8167664
21
-12.1176943
0
LINE
8
0
10
140.3167664
20
-12.6176943
11
140.3167664
21
-15.3676943
0
LINE
8
0
10
188.971193
20
-87.4934615
11
213.0479974
21
-96.2567016
0
LINE
8
0
10
213.6888538
20
-95.9578654
11
219.161176
21
-80.9227835
0
LINE
8
0
10
218.8623398
20
-80.2819271
11
216.5957563
21
-79.4569582
0
LINE
8
0
10
190.0605031
20
-83.0387044
11
188.6723568
21
-86.8526051
0
ARC
8
0
10
189.5906568
20
-82.8676943
40
0.5
50
340.0000019
51
90
0
ARC
8
0
10
189.1422031
20
-87.0236152
40
0.5
50
160.0000019
51
250.0000019
0
ARC
8
0
10
213.2190075
20
-95.7868553
40
0.5
50
250.0000019
51
340.0000019
0
ARC
8
0
10
218.6913297
20
-80.7517734
40
0.5
50
340.0000019
51
70.0000019
0
ARC
8
0
10
216.7667664
20
-78.9871119
40
0.5
50
180
51
250.0000019
0
ARC
8
0
10
157.8167664
20
-15.3676943
40
0.5
50
180
51
270
0
ARC
8
0
10
156.8167664
20
-12.6176943
40
0.5
50
0
51
90
0
ARC
8
0
10
140.8167664
20
-12.6176943
40
0.5
50
90
51
180
0
ARC
8
0
10
139.8167664
20
-15.3676943
40
0.5
50
270
51
0
0
ARC
8
0
10
116.9667664
20
-56.2689783
40
0.5
50
277.9999997
51
0
0
ARC
8
0
10
101.2642988
20
-59.4856438
40
0.5
50
97.9999997
51
187.9999997
0
ARC
8
0
10
103.4910684
20
-75.3299328
40
0.5
50
187.9999997
51
277.9999997
0
ARC
8
0
10
116.9667664
20
-74.4458745
40
0.5
50
0
51
97.9999997
0
LINE
8
0
10
104.8372973
20
-74.1309052
11
117.7107823
21
-72.3216548
0
LINE
8
0
10
118.1363298
20
-71.7569343
11
116.3270794
21
-58.8834493
0
LINE
8
0
10
115.7623589
20
-58.4579018
11
102.8888739
21
-60.2671522
0
LINE
8
0
10
102.4633264
20
-60.8318727
11
104.2725768
21
-73.7053577
0
LINE
8
0
10
123.4433013
20
-71.6998628
11
136.4254851
21
-71.0194954
0
LINE
8
0
10
136.8986319
20
-70.4940126
11
136.2182645
21
-57.5118288
0
LINE
8
0
10
135.6927817
20
-57.038682
11
122.7105979
21
-57.7190494
0
LINE
8
0
10
122.2374511
20
-58.2445322
11
122.9178185
21
-71.226716
0
LINE
8
0
10
122.4489181
20
-52.7259016
11
135.4311019
21
-52.0455342
0
LINE
8
0
10
135.9042487
20
-51.5200514
11
135.2238813
21
-38.5378676
0
LINE
8
0
10
134.6983985
20
-38.0647208
11
121.7162147
21
-38.7450882
0
LINE
8
0
10
121.2430679
20
-39.270571
11
121.9234353
21
-52.2527548
0
LINE
8
0
10
121.4545349
20
-33.7519404
11
134.4367187
21
-33.071573
0
LINE
8
0
10
134.9098655
20
-32.5460902
11
134.2294981
21
-19.5639064
0
LINE
8
0
10
133.7040153
20
-19.0907596
11
120.7218315
21
-19.771127
0
LINE
8
0
10
120.2486847
20
-20.2966098
11
120.9290521
21
-33.2787936
0
LINE
8
0
10
142.3167664
20
-65.6176943
11
155.3167664
21
-65.6176943
0
LINE
8
0
10
155.8167664
20
-65.1176943
11
155.8167664
21
-52.1176943
0
LINE
8
0
10
155.3167664
20
-51.6176943
11
142.3167664
21
-51.6176943
0
LINE
8
0
10
141.8167664
20
-52.1176943
11
141.8167664
21
-65.1176943
0
LINE
8
0
10
142.3167664
20
-46.6176943
11
155.3167664
21
-46.6176943
0
LINE
8
0
10
155.8167664
20
-46.1176943
11
155.8167664
21
-33.1176943
0
LINE
8
0
10
155.3167664
20
-32.6176943
11
142.3167664
21
-32.6176943
0
LINE
8
0
10
141.8167664
20
-33.1176943
11
141.8167664
21
-46.1176943
0
LINE
8
0
10
142.3167664
20
-27.6176943
11
155.3167664
21
-27.6176943
0
LINE
8
0
10
155.8167664
20
-27.1176943
11
155.8167664
21
-14.1176943
0
LINE
8
0
10
155.3167664
20
-13.6176943
11
142.3167664
21
-13.6176943
0
LINE
8
0
10
141.8167664
20
-14.1176943
11
141.8167664
21
-27.1176943
0
LINE
8
0
10
161.3167664
20
-70.3676943
11
174.3167664
21
-70.3676943
0
LINE
8
0
10
174.8167664
20
-69.8676943
11
174.8167664
21
-56.8676943
0
LINE
8
0
10
174.3167664
20
-56.3676943
11
161.3167664
21
-56.3676943
0
LINE
8
0
10
160.8167664
20
-56.8676943
11
160.8167664
21
-69.8676943
0
LINE
8
0
10
161.3167664
20
-51.3676943
11
174.3167664
21
-51.3676943
0
LINE
8
0
10
174.8167664
20
-50.8676943
11
174.8167664
21
-37.8676943
0
LINE
8
0
10
174.3167664
20
-37.3676943
11
161.3167664
21
-37.3676943
0
LINE
8
0
10
160.8167664
20
-37.8676943
11
160.8167664
21
-50.8676943
0
LINE
8
0
10
161.3167664
20
-32.3676943
11
174.3167664
21
-32.3676943
0
LINE
8
0
10
174.8167664
20
-31.8676943
11
174.8167664
21
-18.8676943
0
LINE
8
0
10
174.3167664
20
-18.3676943
11
161.3167664
21
-18.3676943
0
LINE
8
0
10
160.8167664
20
-18.8676943
11
160.8167664
21
-31.8676943
0
LINE
8
0
10
180.3167664
20
-60.8676943
11
193.3167664
21
-60.8676943
0
LINE
8
0
10
193.8167664
20
-60.3676943
11
193.8167664
21
-47.3676943
0
LINE
8
0
10
193.3167664
20
-46.8676943
11
180.3167664
21
-46.8676943
0
LINE
8
0
10
179.8167664
20
-47.3676943
11
179.8167664
21
-60.3676943
0
LINE
8
0
10
180.3167664
20
-41.8676943
11
193.3167664
21
-41.8676943
0
LINE
8
0
10
193.8167664
20
-41.3676943
11
193.8167664
21
-28.3676943
0
LINE
8
0
10
193.3167664
20
-27.8676943
11
180.3167664
21
-27.8676943
0
LINE
8
0
10
179.8167664
20
-28.3676943
11
179.8167664
21
-41.3676943
0
ARC
8
0
10
117.6411958
20
-71.8265209
40
0.5
50
277.9999997
51
7.9999997
0
ARC
8
0
10
115.8319455
20
-58.9530358
40
0.5
50
7.9999997
51
97.9999997
0
ARC
8
0
10
102.9584604
20
-60.7622861
40
0.5
50
97.9999997
51
187.9999997
0
ARC
8
0
10
104.7677107
20
-73.6357712
40
0.5
50
187.9999997
51
277.9999997
0
ARC
8
0
10
155.3167664
20
-65.1176943
40
0.5
50
270
51
0
0
ARC
8
0
10
155.3167664
20
-52.1176943
40
0.5
50
0
51
90
0
ARC
8
0
10
142.3167664
20
-52.1176943
40
0.5
50
90
51
180
0
ARC
8
0
10
142.3167664
20
-65.1176943
40
0.5
50
180
51
270
0
ARC
8
0
10
155.3167664
20
-46.1176943
40
0.5
50
270
51
0
0
ARC
8
0
10
155.3167664
20
-33.1176943
40
0.5
50
0
51
90
0
ARC
8
0
10
142.3167664
20
-33.1176943
40
0.5
50
90
51
180
0
ARC
8
0
10
142.3167664
20
-46.1176943
40
0.5
50
180
51
270
0
ARC
8
0
10
155.3167664
20
-27.1176943
40
0.5
50
270
51
0
0
ARC
8
0
10
155.3167664
20
-14.1176943
40
0.5
50
0
51
90
0
ARC
8
0
10
142.3167664
20
-14.1176943
40
0.5
50
90
51
180
0
ARC
8
0
10
142.3167664
20
-27.1176943
40
0.5
50
180
51
270
0
ARC
8
0
10
174.3167664
20
-69.8676943
40
0.5
50
270
51
0
0
ARC
8
0
10
174.3167664
20
-56.8676943
40
0.5
50
0
51
90
0
ARC
8
0
10
161.3167664
20
-56.8676943
40
0.5
50
90
51
180
0
ARC
8
0
10
161.3167664
20
-69.8676943
40
0.5
50
180
51
270
0
ARC
8
0
10
174.3167664
20
-50.8676943
40
0.5
50
270
51
0
0
ARC
8
0
10
174.3167664
20
-37.8676943
40
0.5
50
0
51
90
0
ARC
8
0
10
161.3167664
20
-37.8676943
40
0.5
50
90
51
180
0
ARC
8
0
10
161.3167664
20
-50.8676943
40
0.5
50
180
51
270
0
ARC
8
0
10
174.3167664
20
-31.8676943
40
0.5
50
270
51
0
0
ARC
8
0
10
174.3167664
20
-18.8676943
40
0.5
50
0
51
90
0
ARC
8
0
10
161.3167664
20
-18.8676943
40
0.5
50
90
51
180
0
ARC
8
0
10
161.3167664
20
-31.8676943
40
0.5
50
180
51
270
0
ARC
8
0
10
193.3167664
20
-60.3676943
40
0.5
50
270
51
0
0
ARC
8
0
10
193.3167664
20
-47.3676943
40
0.5
50
0
51
90
0
ARC
8
0
10
180.3167664
20
-47.3676943
40
0.5
50
90
51
180
0
ARC
8
0
10
180.3167664
20
-60.3676943
40
0.5
50
180
51
270
0
ARC
8
0
10
193.3167664
20
-41.3676943
40
0.5
50
270
51
0
0
ARC
8
0
10
193.3167664
20
-28.3676943
40
0.5
50
0
51
90
0
ARC
8
0
10
180.3167664
20
-28.3676943
40
0.5
50
90
51
180
0
ARC
8
0
10
180.3167664
20
-41.3676943
40
0.5
50
180
51
270
0
ARC
8
0
10
134.4105507
20
-32.5722582
40
0.5
50
273.0000026
51
3.0000026
0
ARC
8
0
10
133.7301833
20
-19.5900744
40
0.5
50
3.0000026
51
93.0000026
0
ARC
8
0
10
120.7479995
20
-20.2704418
40
0.5
50
93.0000026
51
183.0000026
0
ARC
8
0
10
121.4283669
20
-33.2526256
40
0.5
50
183.0000026
51
273.0000026
0
ARC
8
0
10
136.3993171
20
-70.5201806
40
0.5
50
273.0000026
51
3.0000026
0
ARC
8
0
10
135.7189497
20
-57.5379968
40
0.5
50
3.0000026
51
93.0000026
0
ARC
8
0
10
122.7367659
20
-58.2183642
40
0.5
50
93.0000026
51
183.0000026
0
ARC
8
0
10
123.4171333
20
-71.200548
40
0.5
50
183.0000026
51
273.0000026
0
ARC
8
0
10
135.4049339
20
-51.5462194
40
0.5
50
273.0000026
51
3.0000026
0
ARC
8
0
10
134.7245665
20
-38.5640356
40
0.5
50
3.0000026
51
93.0000026
0
ARC
8
0
10
121.7423827
20
-39.244403
40
0.5
50
93.0000026
51
183.0000026
0
ARC
8
0
10
122.4227501
20
-52.2265868
40
0.5
50
183.0000026
51
273.0000026
0
LINE
8
0
10
195.4146234
20
-88.2424117
11
207.6306274
21
-92.6886735
0
LINE
8
0
10
208.2714838
20
-92.3898373
11
212.7177456
21
-80.1738333
0
LINE
8
0
10
212.4189094
20
-79.5329769
11
200.2029054
21
-75.0867151
0
LINE
8
0
10
199.562049
20
-75.3855513
11
195.1157872
21
-87.6015553
0
ARC
8
0
10
207.8016375
20
-92.2188272
40
0.5
50
250.0000019
51
340.0000019
0
ARC
8
0
10
212.2478993
20
-80.0028232
40
0.5
50
340.0000019
51
70.0000019
0
ARC
8
0
10
200.0318953
20
-75.5565614
40
0.5
50
70.0000019
51
160.0000019
0
ARC
8
0
10
195.5856335
20
-87.7725654
40
0.5
50
160.0000019
51
250.0000019
0
LINE
8
0
10
196.6667664
20
-20.6676943
11
196.6667664
21
-53.7676943
0
LINE
8
0
10
197.1667664
20
-54.2676943
11
214.4667664
21
-54.2676943
0
LINE
8
0
10
214.9667664
20
-53.7676943
11
214.9667664
21
-20.6676943
0
LINE
8
0
10
214.4667664
20
-20.1676943
11
197.1667664
21
-20.1676943
0
ARC
8
0
10
197.1667664
20
-53.7676943
40
0.5
50
180
51
270
0
ARC
8
0
10
214.4667664
20
-53.7676943
40
0.5
50
270
51
0
0
ARC
8
0
10
214.4667664
20
-20.6676943
40
0.5
50
0
51
90
0
ARC
8
0
10
197.1667664
20
-20.6676943
40
0.5
50
90
51
180
0
CIRCLE
8
0
10
138.3644741
20
-25.7223093
40
1
0
CIRCLE
8
0
10
122.3279774
20
-77.6510452
40
1
0
CIRCLE
8
0
10
211.8167664
20
-72.8676943
40
1
0
CIRCLE
8
0
10
194.4167664
20
-20.8676943
40
1
0
ENDSEC
0
EOF