<svg width="2546" height="379" viewBox="0 0 2546 379" class="keymap" xmlns="http://www.w3.org/2000/svg" xmlns:xlink="http://www.w3.org/1999/xlink">
<style>/* inherit to force styles through use tags */
svg path {
    fill: inherit;
}

/* font and background color specifications */
svg.keymap {
    font-family: SFMono-Regular,Consolas,Liberation Mono,Menlo,monospace;
    font-size: 14px;
    font-kerning: normal;
    text-rendering: optimizeLegibility;
    fill: #24292e;
}

/* default key styling */
rect.key {
    fill: #f6f8fa;
}

rect.key, rect.combo {
    stroke: #c9cccf;
    stroke-width: 1;
}

/* default key side styling, only used is draw_key_sides is set */
rect.side {
    filter: brightness(90%);
}

/* color accent for combo boxes */
rect.combo, rect.combo-separate {
    fill: #cdf;
}

/* color accent for held keys */
rect.held, rect.combo.held {
    fill: #fdd;
}

/* color accent for ghost (optional) keys */
rect.ghost, rect.combo.ghost {
    stroke-dasharray: 4, 4;
    stroke-width: 2;
}

text {
    text-anchor: middle;
    dominant-baseline: middle;
}

/* styling for layer labels */
text.label {
    font-weight: bold;
    text-anchor: start;
    stroke: white;
    stroke-width: 4;
    paint-order: stroke;
}

/* styling for optional footer */
text.footer {
    text-anchor: end;
    dominant-baseline: auto;
    stroke: white;
    stroke-width: 4;
    paint-order: stroke;
}

/* styling for combo tap, and key hold/shifted label text */
text.combo, text.hold, text.shifted {
    font-size: 11px;
}

text.hold {
    text-anchor: middle;
    dominant-baseline: auto;
}

text.shifted {
    text-anchor: middle;
    dominant-baseline: hanging;
}

text.layer-activator {
    text-decoration: underline;
}

/* styling for hold/shifted label text in combo box */
text.combo.hold, text.combo.shifted {
    font-size: 8px;
}

/* lighter symbol for transparent keys */
text.trans {
    fill: #7b7e81;
}

/* styling for combo dendrons */
path.combo {
    stroke-width: 1;
    stroke: gray;
    fill: none;
}

/* Start Tabler Icons Cleanup */
/* cannot use height/width with glyphs */
.icon-tabler > path {
    fill: inherit;
    stroke: inherit;
    stroke-width: 2;
}
/* hide tabler's default box */
.icon-tabler > path[stroke="none"][fill="none"] {
    visibility: hidden;
}
/* End Tabler Icons Cleanup */

@media (prefers-color-scheme: dark) {
svg.keymap { fill: #d1d6db; }
rect.key { fill: #3f4750; }
rect.key, rect.combo { stroke: #60666c; }
rect.combo, rect.combo-separate { fill: #1f3d7a; }
rect.held, rect.combo.held { fill: #854747; }
text.label, text.footer { stroke: black; }
text.trans { fill: #7e8184; }
path.combo { stroke: #7f7f7f; }

}</style>
<g transform="translate(30, 0)" class="layer-colemak">
<text x="0" y="28" class="label" id="colemak">colemak:</text>
<g transform="translate(0, 56)">
<g transform="translate(82, 46) rotate(-3.0)" class="key keypos-0">
<rect rx="6" ry="6" x="-26" y="-26" width="52" height="52" class="key"/>
<text x="0" y="0" class="key tap">W</text>
</g>
<g transform="translate(146, 28)" class="key keypos-1">
<rect rx="6" ry="6" x="-26" y="-26" width="52" height="52" class="key"/>
<text x="0" y="0" class="key tap">F</text>
</g>
<g transform="translate(203, 42)" class="key keypos-2">
<rect rx="6" ry="6" x="-26" y="-26" width="52" height="52" class="key"/>
<text x="0" y="0" class="key tap">P</text>
</g>
<g transform="translate(261, 71)" class="key keypos-3">
<rect rx="6" ry="6" x="-26" y="-26" width="52" height="52" class="key"/>
<text x="0" y="0" class="key tap">B</text>
</g>
<g transform="translate(524, 71)" class="key keypos-4">
<rect rx="6" ry="6" x="-26" y="-26" width="52" height="52" class="key"/>
<text x="0" y="0" class="key tap">K</text>
</g>
<g transform="translate(582, 42)" class="key keypos-5">
<rect rx="6" ry="6" x="-26" y="-26" width="52" height="52" class="key"/>
<text x="0" y="0" class="key tap">L</text>
</g>
<g transform="translate(639, 28)" class="key keypos-6">
<rect rx="6" ry="6" x="-26" y="-26" width="52" height="52" class="key"/>
<text x="0" y="0" class="key tap">U</text>
</g>
<g transform="translate(703, 46) rotate(3.0)" class="key keypos-7">
<rect rx="6" ry="6" x="-26" y="-26" width="52" height="52" class="key"/>
<text x="0" y="0" class="key tap">Y</text>
</g>
<g transform="translate(28, 167) rotate(-8.0)" class="key keypos-8">
<rect rx="6" ry="6" x="-26" y="-26" width="52" height="52" class="key"/>
<text x="0" y="0" class="key tap">A</text>
<text x="0" y="24" class="key hold">SHIFT</text>
</g>
<g transform="translate(85, 103) rotate(-3.0)" class="key keypos-9">
<rect rx="6" ry="6" x="-26" y="-26" width="52" height="52" class="key"/>
<text x="0" y="0" class="key tap">R</text>
<text x="0" y="24" class="key hold">CONTROL</text>
</g>
<g transform="translate(146, 86)" class="key keypos-10">
<rect rx="6" ry="6" x="-26" y="-26" width="52" height="52" class="key"/>
<text x="0" y="0" class="key tap">S</text>
<text x="0" y="24" class="key hold">ALT</text>
</g>
<g transform="translate(203, 100)" class="key keypos-11">
<rect rx="6" ry="6" x="-26" y="-26" width="52" height="52" class="key"/>
<text x="0" y="0" class="key tap">T</text>
<text x="0" y="24" class="key hold">GUI</text>
</g>
<g transform="translate(261, 129)" class="key keypos-12">
<rect rx="6" ry="6" x="-26" y="-26" width="52" height="52" class="key"/>
<text x="0" y="0" class="key tap">G</text>
</g>
<g transform="translate(524, 129)" class="key keypos-13">
<rect rx="6" ry="6" x="-26" y="-26" width="52" height="52" class="key"/>
<text x="0" y="0" class="key tap">M</text>
</g>
<g transform="translate(582, 100)" class="key keypos-14">
<rect rx="6" ry="6" x="-26" y="-26" width="52" height="52" class="key"/>
<text x="0" y="0" class="key tap">N</text>
<text x="0" y="24" class="key hold">GUI</text>
</g>
<g transform="translate(639, 86)" class="key keypos-15">
<rect rx="6" ry="6" x="-26" y="-26" width="52" height="52" class="key"/>
<text x="0" y="0" class="key tap">E</text>
<text x="0" y="24" class="key hold">ALT</text>
</g>
<g transform="translate(700, 103) rotate(3.0)" class="key keypos-16">
<rect rx="6" ry="6" x="-26" y="-26" width="52" height="52" class="key"/>
<text x="0" y="0" class="key tap">I</text>
<text x="0" y="24" class="key hold">CONTROL</text>
</g>
<g transform="translate(757, 167) rotate(8.0)" class="key keypos-17">
<rect rx="6" ry="6" x="-26" y="-26" width="52" height="52" class="key"/>
<text x="0" y="0" class="key tap">O</text>
<text x="0" y="24" class="key hold">SHIFT</text>
</g>
<g transform="translate(88, 161) rotate(-3.0)" class="key keypos-18">
<rect rx="6" ry="6" x="-26" y="-26" width="52" height="52" class="key"/>
<text x="0" y="0" class="key tap">X</text>
</g>
<g transform="translate(146, 143)" class="key keypos-19">
<rect rx="6" ry="6" x="-26" y="-26" width="52" height="52" class="key"/>
<text x="0" y="0" class="key tap">C</text>
</g>
<g transform="translate(203, 158)" class="key keypos-20">
<rect rx="6" ry="6" x="-26" y="-26" width="52" height="52" class="key"/>
<text x="0" y="0" class="key tap">D</text>
</g>
<g transform="translate(582, 158)" class="key keypos-21">
<rect rx="6" ry="6" x="-26" y="-26" width="52" height="52" class="key"/>
<text x="0" y="0" class="key tap">H</text>
</g>
<g transform="translate(639, 143)" class="key keypos-22">
<rect rx="6" ry="6" x="-26" y="-26" width="52" height="52" class="key"/>
<text x="0" y="0" class="key tap">,</text>
<text x="0" y="-24" class="key shifted">;</text>
</g>
<g transform="translate(697, 161) rotate(3.0)" class="key keypos-23">
<rect rx="6" ry="6" x="-26" y="-26" width="52" height="52" class="key"/>
<text x="0" y="0" class="key tap">.</text>
<text x="0" y="-24" class="key shifted">:</text>
</g>
<g transform="translate(326, 225) rotate(20.0)" class="key keypos-24">
<rect rx="6" ry="6" x="-40" y="-26" width="80" height="52" class="key"/>
<text x="0" y="0" class="key tap">SPACE</text>
<text x="0" y="24" class="key hold">nav</text>
</g>
<g transform="translate(458, 226) rotate(-20.0)" class="key keypos-25">
<rect rx="6" ry="6" x="-40" y="-26" width="80" height="52" class="key"/>
<text x="0" y="0" class="key tap">SHIFT</text>
<text x="0" y="24" class="key hold">symnum</text>
</g>
<g class="combo combopos-0">
<rect rx="6" ry="6" x="161" y="22" width="28" height="26" class="combo"/>
<text x="175" y="35" class="combo tap">J</text>
</g>
<g class="combo combopos-1">
<rect rx="6" ry="6" x="103" y="139" width="28" height="26" class="combo"/>
<text x="117" y="152" class="combo tap">Z</text>
</g>
<g class="combo combopos-2">
<rect rx="6" ry="6" x="100" y="24" width="28" height="26" class="combo"/>
<text x="114" y="37" class="combo tap">V</text>
</g>
<g class="combo combopos-3">
<rect rx="6" ry="6" x="161" y="138" width="28" height="26" class="combo"/>
<text x="175" y="150" class="combo tap">QU</text>
</g>
<g class="combo combopos-4">
<rect rx="6" ry="6" x="69" y="62" width="28" height="26" class="combo"/>
<text x="83" y="75" class="combo tap">{</text>
</g>
<g class="combo combopos-5">
<rect rx="6" ry="6" x="132" y="44" width="28" height="26" class="combo"/>
<text x="146" y="57" class="combo tap">[</text>
</g>
<g class="combo combopos-6">
<rect rx="6" ry="6" x="189" y="58" width="28" height="26" class="combo"/>
<text x="203" y="71" class="combo tap">(</text>
</g>
<g class="combo combopos-7">
<rect rx="6" ry="6" x="247" y="87" width="28" height="26" class="combo"/>
<text x="261" y="100" class="combo tap">&lt;</text>
</g>
<g class="combo combopos-8">
<rect rx="6" ry="6" x="688" y="62" width="28" height="26" class="combo"/>
<text x="702" y="75" class="combo tap">}</text>
</g>
<g class="combo combopos-9">
<rect rx="6" ry="6" x="625" y="44" width="28" height="26" class="combo"/>
<text x="639" y="57" class="combo tap">]</text>
</g>
<g class="combo combopos-10">
<rect rx="6" ry="6" x="568" y="58" width="28" height="26" class="combo"/>
<text x="582" y="71" class="combo tap">)</text>
</g>
<g class="combo combopos-11">
<rect rx="6" ry="6" x="510" y="87" width="28" height="26" class="combo"/>
<text x="524" y="100" class="combo tap">&gt;</text>
</g>
<g class="combo combopos-12">
<rect rx="6" ry="6" x="654" y="139" width="28" height="26" class="combo"/>
<text x="668" y="152" class="combo tap">/</text>
</g>
<g class="combo combopos-13">
<rect rx="6" ry="6" x="597" y="138" width="28" height="26" class="combo"/>
<text x="611" y="150" class="combo tap">\</text>
</g>
<g class="combo combopos-14">
<rect rx="6" ry="6" x="657" y="24" width="28" height="26" class="combo"/>
<text x="671" y="37" class="combo tap">&#x27;</text>
</g>
<g class="combo combopos-15">
<rect rx="6" ry="6" x="597" y="22" width="28" height="26" class="combo"/>
<text x="611" y="35" class="combo tap">`</text>
</g>
</g>
</g>
<g transform="translate(879, 0)" class="layer-bird">
<text x="0" y="28" class="label" id="bird">bird:</text>
<g transform="translate(0, 56)">
<g transform="translate(82, 46) rotate(-3.0)" class="key keypos-0">
<rect rx="6" ry="6" x="-26" y="-26" width="52" height="52" class="key"/>
<text x="0" y="0" class="key tap">C</text>
</g>
<g transform="translate(146, 28)" class="key keypos-1">
<rect rx="6" ry="6" x="-26" y="-26" width="52" height="52" class="key"/>
<text x="0" y="0" class="key tap">L</text>
</g>
<g transform="translate(203, 42)" class="key keypos-2">
<rect rx="6" ry="6" x="-26" y="-26" width="52" height="52" class="key"/>
<text x="0" y="0" class="key tap">F</text>
</g>
<g transform="translate(261, 71)" class="key keypos-3">
<rect rx="6" ry="6" x="-26" y="-26" width="52" height="52" class="key"/>
<text x="0" y="0" class="key tap">P</text>
</g>
<g transform="translate(524, 71)" class="key keypos-4">
<rect rx="6" ry="6" x="-26" y="-26" width="52" height="52" class="key"/>
<text x="0" y="0" class="key tap">K</text>
</g>
<g transform="translate(582, 42)" class="key keypos-5">
<rect rx="6" ry="6" x="-26" y="-26" width="52" height="52" class="key"/>
<text x="0" y="0" class="key tap">Y</text>
</g>
<g transform="translate(639, 28)" class="key keypos-6">
<rect rx="6" ry="6" x="-26" y="-26" width="52" height="52" class="key"/>
<text x="0" y="0" class="key tap">O</text>
</g>
<g transform="translate(703, 46) rotate(3.0)" class="key keypos-7">
<rect rx="6" ry="6" x="-26" y="-26" width="52" height="52" class="key"/>
<text x="0" y="0" class="key tap">U</text>
</g>
<g transform="translate(28, 167) rotate(-8.0)" class="key keypos-8">
<rect rx="6" ry="6" x="-26" y="-26" width="52" height="52" class="key"/>
<text x="0" y="0" class="key tap">R</text>
<text x="0" y="24" class="key hold">SHIFT</text>
</g>
<g transform="translate(85, 103) rotate(-3.0)" class="key keypos-9">
<rect rx="6" ry="6" x="-26" y="-26" width="52" height="52" class="key"/>
<text x="0" y="0" class="key tap">S</text>
<text x="0" y="24" class="key hold">CONTROL</text>
</g>
<g transform="translate(146, 86)" class="key keypos-10">
<rect rx="6" ry="6" x="-26" y="-26" width="52" height="52" class="key"/>
<text x="0" y="0" class="key tap">N</text>
<text x="0" y="24" class="key hold">ALT</text>
</g>
<g transform="translate(203, 100)" class="key keypos-11">
<rect rx="6" ry="6" x="-26" y="-26" width="52" height="52" class="key"/>
<text x="0" y="0" class="key tap">T</text>
<text x="0" y="24" class="key hold">GUI</text>
</g>
<g transform="translate(261, 129)" class="key keypos-12">
<rect rx="6" ry="6" x="-26" y="-26" width="52" height="52" class="key"/>
<text x="0" y="0" class="key tap">B</text>
</g>
<g transform="translate(524, 129)" class="key keypos-13">
<rect rx="6" ry="6" x="-26" y="-26" width="52" height="52" class="key"/>
<text x="0" y="0" class="key tap">J</text>
</g>
<g transform="translate(582, 100)" class="key keypos-14">
<rect rx="6" ry="6" x="-26" y="-26" width="52" height="52" class="key"/>
<text x="0" y="0" class="key tap">H</text>
<text x="0" y="24" class="key hold">GUI</text>
</g>
<g transform="translate(639, 86)" class="key keypos-15">
<rect rx="6" ry="6" x="-26" y="-26" width="52" height="52" class="key"/>
<text x="0" y="0" class="key tap">E</text>
<text x="0" y="24" class="key hold">ALT</text>
</g>
<g transform="translate(700, 103) rotate(3.0)" class="key keypos-16">
<rect rx="6" ry="6" x="-26" y="-26" width="52" height="52" class="key"/>
<text x="0" y="0" class="key tap">I</text>
<text x="0" y="24" class="key hold">CONTROL</text>
</g>
<g transform="translate(757, 167) rotate(8.0)" class="key keypos-17">
<rect rx="6" ry="6" x="-26" y="-26" width="52" height="52" class="key"/>
<text x="0" y="0" class="key tap">O</text>
<text x="0" y="24" class="key hold">SHIFT</text>
</g>
<g transform="translate(88, 161) rotate(-3.0)" class="key keypos-18">
<rect rx="6" ry="6" x="-26" y="-26" width="52" height="52" class="key"/>
<text x="0" y="0" class="key tap">W</text>
</g>
<g transform="translate(146, 143)" class="key keypos-19">
<rect rx="6" ry="6" x="-26" y="-26" width="52" height="52" class="key"/>
<text x="0" y="0" class="key tap">M</text>
</g>
<g transform="translate(203, 158)" class="key keypos-20">
<rect rx="6" ry="6" x="-26" y="-26" width="52" height="52" class="key"/>
<text x="0" y="0" class="key tap">G</text>
</g>
<g transform="translate(582, 158)" class="key keypos-21">
<rect rx="6" ry="6" x="-26" y="-26" width="52" height="52" class="key"/>
<text x="0" y="0" class="key tap">D</text>
</g>
<g transform="translate(639, 143)" class="key keypos-22">
<rect rx="6" ry="6" x="-26" y="-26" width="52" height="52" class="key"/>
<text x="0" y="0" class="key tap">,</text>
<text x="0" y="-24" class="key shifted">;</text>
</g>
<g transform="translate(697, 161) rotate(3.0)" class="key keypos-23">
<rect rx="6" ry="6" x="-26" y="-26" width="52" height="52" class="key"/>
<text x="0" y="0" class="key tap">.</text>
<text x="0" y="-24" class="key shifted">:</text>
</g>
<g transform="translate(326, 225) rotate(20.0)" class="key keypos-24">
<rect rx="6" ry="6" x="-40" y="-26" width="80" height="52" class="key"/>
<text x="0" y="0" class="key tap">SPACE</text>
<text x="0" y="24" class="key hold">nav</text>
</g>
<g transform="translate(458, 226) rotate(-20.0)" class="key keypos-25">
<rect rx="6" ry="6" x="-40" y="-26" width="80" height="52" class="key"/>
<text x="0" y="0" class="key tap">SHIFT</text>
<text x="0" y="24" class="key hold">symnum</text>
</g>
<g class="combo combopos-0">
<rect rx="6" ry="6" x="161" y="22" width="28" height="26" class="combo"/>
<text x="175" y="35" class="combo tap">QU</text>
</g>
<g class="combo combopos-1">
<rect rx="6" ry="6" x="103" y="139" width="28" height="26" class="combo"/>
<text x="117" y="152" class="combo tap">Z</text>
</g>
<g class="combo combopos-2">
<rect rx="6" ry="6" x="100" y="24" width="28" height="26" class="combo"/>
<text x="114" y="37" class="combo tap">V</text>
</g>
<g class="combo combopos-3">
<rect rx="6" ry="6" x="161" y="138" width="28" height="26" class="combo"/>
<text x="175" y="150" class="combo tap">X</text>
</g>
<g class="combo combopos-4">
<rect rx="6" ry="6" x="69" y="62" width="28" height="26" class="combo"/>
<text x="83" y="75" class="combo tap">{</text>
</g>
<g class="combo combopos-5">
<rect rx="6" ry="6" x="132" y="44" width="28" height="26" class="combo"/>
<text x="146" y="57" class="combo tap">[</text>
</g>
<g class="combo combopos-6">
<rect rx="6" ry="6" x="189" y="58" width="28" height="26" class="combo"/>
<text x="203" y="71" class="combo tap">(</text>
</g>
<g class="combo combopos-7">
<rect rx="6" ry="6" x="247" y="87" width="28" height="26" class="combo"/>
<text x="261" y="100" class="combo tap">&lt;</text>
</g>
<g class="combo combopos-8">
<rect rx="6" ry="6" x="688" y="62" width="28" height="26" class="combo"/>
<text x="702" y="75" class="combo tap">}</text>
</g>
<g class="combo combopos-9">
<rect rx="6" ry="6" x="625" y="44" width="28" height="26" class="combo"/>
<text x="639" y="57" class="combo tap">]</text>
</g>
<g class="combo combopos-10">
<rect rx="6" ry="6" x="568" y="58" width="28" height="26" class="combo"/>
<text x="582" y="71" class="combo tap">)</text>
</g>
<g class="combo combopos-11">
<rect rx="6" ry="6" x="510" y="87" width="28" height="26" class="combo"/>
<text x="524" y="100" class="combo tap">&gt;</text>
</g>
<g class="combo combopos-12">
<rect rx="6" ry="6" x="654" y="139" width="28" height="26" class="combo"/>
<text x="668" y="152" class="combo tap">/</text>
</g>
<g class="combo combopos-13">
<rect rx="6" ry="6" x="597" y="138" width="28" height="26" class="combo"/>
<text x="611" y="150" class="combo tap">\</text>
</g>
<g class="combo combopos-14">
<rect rx="6" ry="6" x="657" y="24" width="28" height="26" class="combo"/>
<text x="671" y="37" class="combo tap">&#x27;</text>
</g>
<g class="combo combopos-15">
<rect rx="6" ry="6" x="597" y="22" width="28" height="26" class="combo"/>
<text x="611" y="35" class="combo tap">`</text>
</g>
</g>
</g>
<g transform="translate(1727, 0)" class="layer-gallium-ssbb">
<text x="0" y="28" class="label" id="gallium-ssbb">gallium-ssbb:</text>
<g transform="translate(0, 56)">
<g transform="translate(82, 46) rotate(-3.0)" class="key keypos-0">
<rect rx="6" ry="6" x="-26" y="-26" width="52" height="52" class="key"/>
<text x="0" y="0" class="key tap">L</text>
</g>
<g transform="translate(146, 28)" class="key keypos-1">
<rect rx="6" ry="6" x="-26" y="-26" width="52" height="52" class="key"/>
<text x="0" y="0" class="key tap">D</text>
</g>
<g transform="translate(203, 42)" class="key keypos-2">
<rect rx="6" ry="6" x="-26" y="-26" width="52" height="52" class="key"/>
<text x="0" y="0" class="key tap">W</text>
</g>
<g transform="translate(261, 71)" class="key keypos-3">
<rect rx="6" ry="6" x="-26" y="-26" width="52" height="52" class="key"/>
<text x="0" y="0" class="key tap">G</text>
</g>
<g transform="translate(524, 71)" class="key keypos-4">
<rect rx="6" ry="6" x="-26" y="-26" width="52" height="52" class="key"/>
<text x="0" y="0" class="key tap">B</text>
</g>
<g transform="translate(582, 42)" class="key keypos-5">
<rect rx="6" ry="6" x="-26" y="-26" width="52" height="52" class="key"/>
<text x="0" y="0" class="key tap">F</text>
</g>
<g transform="translate(639, 28)" class="key keypos-6">
<rect rx="6" ry="6" x="-26" y="-26" width="52" height="52" class="key"/>
<text x="0" y="0" class="key tap">O</text>
</g>
<g transform="translate(703, 46) rotate(3.0)" class="key keypos-7">
<rect rx="6" ry="6" x="-26" y="-26" width="52" height="52" class="key"/>
<text x="0" y="0" class="key tap">U</text>
</g>
<g transform="translate(28, 167) rotate(-8.0)" class="key keypos-8">
<rect rx="6" ry="6" x="-26" y="-26" width="52" height="52" class="key"/>
<text x="0" y="0" class="key tap">N</text>
<text x="0" y="24" class="key hold">SHIFT</text>
</g>
<g transform="translate(85, 103) rotate(-3.0)" class="key keypos-9">
<rect rx="6" ry="6" x="-26" y="-26" width="52" height="52" class="key"/>
<text x="0" y="0" class="key tap">R</text>
<text x="0" y="24" class="key hold">CONTROL</text>
</g>
<g transform="translate(146, 86)" class="key keypos-10">
<rect rx="6" ry="6" x="-26" y="-26" width="52" height="52" class="key"/>
<text x="0" y="0" class="key tap">T</text>
<text x="0" y="24" class="key hold">ALT</text>
</g>
<g transform="translate(203, 100)" class="key keypos-11">
<rect rx="6" ry="6" x="-26" y="-26" width="52" height="52" class="key"/>
<text x="0" y="0" class="key tap">Y</text>
<text x="0" y="24" class="key hold">GUI</text>
</g>
<g transform="translate(261, 129)" class="key keypos-12">
<rect rx="6" ry="6" x="-26" y="-26" width="52" height="52" class="key"/>
<text x="0" y="0" class="key tap">V</text>
</g>
<g transform="translate(524, 129)" class="key keypos-13">
<rect rx="6" ry="6" x="-26" y="-26" width="52" height="52" class="key"/>
<text x="0" y="0" class="key tap">K</text>
</g>
<g transform="translate(582, 100)" class="key keypos-14">
<rect rx="6" ry="6" x="-26" y="-26" width="52" height="52" class="key"/>
<text x="0" y="0" class="key tap">H</text>
<text x="0" y="24" class="key hold">GUI</text>
</g>
<g transform="translate(639, 86)" class="key keypos-15">
<rect rx="6" ry="6" x="-26" y="-26" width="52" height="52" class="key"/>
<text x="0" y="0" class="key tap">A</text>
<text x="0" y="24" class="key hold">ALT</text>
</g>
<g transform="translate(700, 103) rotate(3.0)" class="key keypos-16">
<rect rx="6" ry="6" x="-26" y="-26" width="52" height="52" class="key"/>
<text x="0" y="0" class="key tap">E</text>
<text x="0" y="24" class="key hold">CONTROL</text>
</g>
<g transform="translate(757, 167) rotate(8.0)" class="key keypos-17">
<rect rx="6" ry="6" x="-26" y="-26" width="52" height="52" class="key"/>
<text x="0" y="0" class="key tap">I</text>
<text x="0" y="24" class="key hold">SHIFT</text>
</g>
<g transform="translate(88, 161) rotate(-3.0)" class="key keypos-18">
<rect rx="6" ry="6" x="-26" y="-26" width="52" height="52" class="key"/>
<text x="0" y="0" class="key tap">J</text>
</g>
<g transform="translate(146, 143)" class="key keypos-19">
<rect rx="6" ry="6" x="-26" y="-26" width="52" height="52" class="key"/>
<text x="0" y="0" class="key tap">M</text>
</g>
<g transform="translate(203, 158)" class="key keypos-20">
<rect rx="6" ry="6" x="-26" y="-26" width="52" height="52" class="key"/>
<text x="0" y="0" class="key tap">C</text>
</g>
<g transform="translate(582, 158)" class="key keypos-21">
<rect rx="6" ry="6" x="-26" y="-26" width="52" height="52" class="key"/>
<text x="0" y="0" class="key tap">P</text>
</g>
<g transform="translate(639, 143)" class="key keypos-22">
<rect rx="6" ry="6" x="-26" y="-26" width="52" height="52" class="key"/>
<text x="0" y="0" class="key tap">,</text>
<text x="0" y="-24" class="key shifted">;</text>
</g>
<g transform="translate(697, 161) rotate(3.0)" class="key keypos-23">
<rect rx="6" ry="6" x="-26" y="-26" width="52" height="52" class="key"/>
<text x="0" y="0" class="key tap">.</text>
<text x="0" y="-24" class="key shifted">:</text>
</g>
<g transform="translate(326, 225) rotate(20.0)" class="key keypos-24">
<rect rx="6" ry="6" x="-40" y="-26" width="80" height="52" class="key"/>
<text x="0" y="0" class="key tap">SPACE</text>
<text x="0" y="24" class="key hold">nav</text>
</g>
<g transform="translate(458, 226) rotate(-20.0)" class="key keypos-25">
<rect rx="6" ry="6" x="-40" y="-26" width="80" height="52" class="key"/>
<text x="0" y="0" class="key tap">S</text>
<text x="0" y="24" class="key hold">symnum</text>
</g>
<g class="combo combopos-0">
<rect rx="6" ry="6" x="161" y="22" width="28" height="26" class="combo"/>
<text x="175" y="35" class="combo tap">Q</text>
</g>
<g class="combo combopos-1">
<rect rx="6" ry="6" x="100" y="24" width="28" height="26" class="combo"/>
<text x="114" y="37" class="combo tap">X</text>
</g>
<g class="combo combopos-2">
<rect rx="6" ry="6" x="103" y="139" width="28" height="26" class="combo"/>
<text x="117" y="152" class="combo tap">Z</text>
</g>
<g class="combo combopos-3">
<rect rx="6" ry="6" x="69" y="62" width="28" height="26" class="combo"/>
<text x="83" y="75" class="combo tap">{</text>
</g>
<g class="combo combopos-4">
<rect rx="6" ry="6" x="132" y="44" width="28" height="26" class="combo"/>
<text x="146" y="57" class="combo tap">[</text>
</g>
<g class="combo combopos-5">
<rect rx="6" ry="6" x="189" y="58" width="28" height="26" class="combo"/>
<text x="203" y="71" class="combo tap">(</text>
</g>
<g class="combo combopos-6">
<rect rx="6" ry="6" x="247" y="87" width="28" height="26" class="combo"/>
<text x="261" y="100" class="combo tap">&lt;</text>
</g>
<g class="combo combopos-7">
<rect rx="6" ry="6" x="688" y="62" width="28" height="26" class="combo"/>
<text x="702" y="75" class="combo tap">}</text>
</g>
<g class="combo combopos-8">
<rect rx="6" ry="6" x="625" y="44" width="28" height="26" class="combo"/>
<text x="639" y="57" class="combo tap">]</text>
</g>
<g class="combo combopos-9">
<rect rx="6" ry="6" x="568" y="58" width="28" height="26" class="combo"/>
<text x="582" y="71" class="combo tap">)</text>
</g>
<g class="combo combopos-10">
<rect rx="6" ry="6" x="510" y="87" width="28" height="26" class="combo"/>
<text x="524" y="100" class="combo tap">&gt;</text>
</g>
<g class="combo combopos-11">
<rect rx="6" ry="6" x="654" y="139" width="28" height="26" class="combo"/>
<text x="668" y="152" class="combo tap">/</text>
</g>
<g class="combo combopos-12">
<rect rx="6" ry="6" x="597" y="138" width="28" height="26" class="combo"/>
<text x="611" y="150" class="combo tap">\</text>
</g>
<g class="combo combopos-13">
<rect rx="6" ry="6" x="657" y="24" width="28" height="26" class="combo"/>
<text x="671" y="37" class="combo tap">&#x27;</text>
</g>
<g class="combo combopos-14">
<rect rx="6" ry="6" x="597" y="22" width="28" height="26" class="combo"/>
<text x="611" y="35" class="combo tap">`</text>
</g>
</g>
</g>
<text x="2516.0" y="351.0" class="footer">Created with <a href="https://github.com/caksoylar/keymap-drawer">keymap-drawer</a></text></svg>
